<?xml version="1.0" encoding="utf-8" standalone="no"?>
<!DOCTYPE svg PUBLIC "-//W3C//DTD SVG 1.1//EN"
  "http://www.w3.org/Graphics/SVG/1.1/DTD/svg11.dtd">
<!-- Created with matplotlib (https://matplotlib.org/) -->
<svg height="360pt" version="1.1" viewBox="0 0 720 360" width="720pt" xmlns="http://www.w3.org/2000/svg" xmlns:xlink="http://www.w3.org/1999/xlink">
 <defs>
  <style type="text/css">
*{stroke-linecap:butt;stroke-linejoin:round;}
  </style>
 </defs>
 <g id="figure_1">
  <g id="patch_1">
   <path d="M 0 360 
L 720 360 
L 720 0 
L 0 0 
z
" style="fill:#ffffff;"/>
  </g>
  <g id="axes_1">
   <g id="patch_2">
    <path d="M 73.28 304 
L 703.8 304 
L 703.8 16.2 
L 73.28 16.2 
z
" style="fill:#ffffff;"/>
   </g>
   <g id="matplotlib.axis_1">
    <g id="xtick_1">
     <g id="line2d_1">
      <defs>
       <path d="M 0 0 
L 0 3.5 
" id="m2d4e25e8cd" style="stroke:#000000;stroke-width:0.8;"/>
      </defs>
      <g>
       <use style="stroke:#000000;stroke-width:0.8;" x="98.773149" xlink:href="#m2d4e25e8cd" y="304"/>
      </g>
     </g>
     <g id="text_1">
      <text style="font-family:DejaVu Sans;font-size:15px;font-style:normal;font-weight:normal;text-anchor:middle;" transform="rotate(-0, 98.773149, 322.397656)" x="98.773149" y="322.397656">0</text>
     </g>
    </g>
    <g id="xtick_2">
     <g id="line2d_2">
      <g>
       <use style="stroke:#000000;stroke-width:0.8;" x="225.447182" xlink:href="#m2d4e25e8cd" y="304"/>
      </g>
     </g>
     <g id="text_2">
      <text style="font-family:DejaVu Sans;font-size:15px;font-style:normal;font-weight:normal;text-anchor:middle;" transform="rotate(-0, 225.447182, 322.397656)" x="225.447182" y="322.397656">20000</text>
     </g>
    </g>
    <g id="xtick_3">
     <g id="line2d_3">
      <g>
       <use style="stroke:#000000;stroke-width:0.8;" x="352.121215" xlink:href="#m2d4e25e8cd" y="304"/>
      </g>
     </g>
     <g id="text_3">
      <text style="font-family:DejaVu Sans;font-size:15px;font-style:normal;font-weight:normal;text-anchor:middle;" transform="rotate(-0, 352.121215, 322.397656)" x="352.121215" y="322.397656">40000</text>
     </g>
    </g>
    <g id="xtick_4">
     <g id="line2d_4">
      <g>
       <use style="stroke:#000000;stroke-width:0.8;" x="478.795249" xlink:href="#m2d4e25e8cd" y="304"/>
      </g>
     </g>
     <g id="text_4">
      <text style="font-family:DejaVu Sans;font-size:15px;font-style:normal;font-weight:normal;text-anchor:middle;" transform="rotate(-0, 478.795249, 322.397656)" x="478.795249" y="322.397656">60000</text>
     </g>
    </g>
    <g id="xtick_5">
     <g id="line2d_5">
      <g>
       <use style="stroke:#000000;stroke-width:0.8;" x="605.469282" xlink:href="#m2d4e25e8cd" y="304"/>
      </g>
     </g>
     <g id="text_5">
      <text style="font-family:DejaVu Sans;font-size:15px;font-style:normal;font-weight:normal;text-anchor:middle;" transform="rotate(-0, 605.469282, 322.397656)" x="605.469282" y="322.397656">80000</text>
     </g>
    </g>
    <g id="text_6">
     <text style="font-family:DejaVu Sans;font-size:15px;font-style:normal;font-weight:normal;text-anchor:middle;" transform="rotate(-0, 388.54, 340.914844)" x="388.54" y="340.914844">Episodes</text>
    </g>
   </g>
   <g id="matplotlib.axis_2">
    <g id="ytick_1">
     <g id="line2d_6">
      <defs>
       <path d="M 0 0 
L -3.5 0 
" id="m74e71f843f" style="stroke:#000000;stroke-width:0.8;"/>
      </defs>
      <g>
       <use style="stroke:#000000;stroke-width:0.8;" x="73.28" xlink:href="#m74e71f843f" y="290.140381"/>
      </g>
     </g>
     <g id="text_7">
      <text style="font-family:DejaVu Sans;font-size:15px;font-style:normal;font-weight:normal;text-anchor:end;" transform="rotate(-0, 66.28, 295.839209)" x="66.28" y="295.839209">−71</text>
     </g>
    </g>
    <g id="ytick_2">
     <g id="line2d_7">
      <g>
       <use style="stroke:#000000;stroke-width:0.8;" x="73.28" xlink:href="#m74e71f843f" y="257.878394"/>
      </g>
     </g>
     <g id="text_8">
      <text style="font-family:DejaVu Sans;font-size:15px;font-style:normal;font-weight:normal;text-anchor:end;" transform="rotate(-0, 66.28, 263.577223)" x="66.28" y="263.577223">−70</text>
     </g>
    </g>
    <g id="ytick_3">
     <g id="line2d_8">
      <g>
       <use style="stroke:#000000;stroke-width:0.8;" x="73.28" xlink:href="#m74e71f843f" y="225.616408"/>
      </g>
     </g>
     <g id="text_9">
      <text style="font-family:DejaVu Sans;font-size:15px;font-style:normal;font-weight:normal;text-anchor:end;" transform="rotate(-0, 66.28, 231.315236)" x="66.28" y="231.315236">−69</text>
     </g>
    </g>
    <g id="ytick_4">
     <g id="line2d_9">
      <g>
       <use style="stroke:#000000;stroke-width:0.8;" x="73.28" xlink:href="#m74e71f843f" y="193.354421"/>
      </g>
     </g>
     <g id="text_10">
      <text style="font-family:DejaVu Sans;font-size:15px;font-style:normal;font-weight:normal;text-anchor:end;" transform="rotate(-0, 66.28, 199.053249)" x="66.28" y="199.053249">−68</text>
     </g>
    </g>
    <g id="ytick_5">
     <g id="line2d_10">
      <g>
       <use style="stroke:#000000;stroke-width:0.8;" x="73.28" xlink:href="#m74e71f843f" y="161.092434"/>
      </g>
     </g>
     <g id="text_11">
      <text style="font-family:DejaVu Sans;font-size:15px;font-style:normal;font-weight:normal;text-anchor:end;" transform="rotate(-0, 66.28, 166.791262)" x="66.28" y="166.791262">−67</text>
     </g>
    </g>
    <g id="ytick_6">
     <g id="line2d_11">
      <g>
       <use style="stroke:#000000;stroke-width:0.8;" x="73.28" xlink:href="#m74e71f843f" y="128.830447"/>
      </g>
     </g>
     <g id="text_12">
      <text style="font-family:DejaVu Sans;font-size:15px;font-style:normal;font-weight:normal;text-anchor:end;" transform="rotate(-0, 66.28, 134.529276)" x="66.28" y="134.529276">−66</text>
     </g>
    </g>
    <g id="ytick_7">
     <g id="line2d_12">
      <g>
       <use style="stroke:#000000;stroke-width:0.8;" x="73.28" xlink:href="#m74e71f843f" y="96.568461"/>
      </g>
     </g>
     <g id="text_13">
      <text style="font-family:DejaVu Sans;font-size:15px;font-style:normal;font-weight:normal;text-anchor:end;" transform="rotate(-0, 66.28, 102.267289)" x="66.28" y="102.267289">−65</text>
     </g>
    </g>
    <g id="ytick_8">
     <g id="line2d_13">
      <g>
       <use style="stroke:#000000;stroke-width:0.8;" x="73.28" xlink:href="#m74e71f843f" y="64.306474"/>
      </g>
     </g>
     <g id="text_14">
      <text style="font-family:DejaVu Sans;font-size:15px;font-style:normal;font-weight:normal;text-anchor:end;" transform="rotate(-0, 66.28, 70.005302)" x="66.28" y="70.005302">−64</text>
     </g>
    </g>
    <g id="ytick_9">
     <g id="line2d_14">
      <g>
       <use style="stroke:#000000;stroke-width:0.8;" x="73.28" xlink:href="#m74e71f843f" y="32.044487"/>
      </g>
     </g>
     <g id="text_15">
      <text style="font-family:DejaVu Sans;font-size:15px;font-style:normal;font-weight:normal;text-anchor:end;" transform="rotate(-0, 66.28, 37.743315)" x="66.28" y="37.743315">−63</text>
     </g>
    </g>
    <g id="text_16">
     <text style="font-family:DejaVu Sans;font-size:15px;font-style:normal;font-weight:normal;text-anchor:middle;" transform="rotate(-90, 27.503438, 160.1)" x="27.503438" y="160.1">Actor Loss</text>
    </g>
   </g>
   <g id="line2d_15">
    <path clip-path="url(#p3a6c177e4e)" d="M 101.94 34.260973 
L 105.106851 90.591703 
L 108.273702 80.63684 
L 111.440552 67.957952 
L 114.607403 50.258066 
L 117.774254 47.182062 
L 120.941105 37.844517 
L 124.107956 30.638046 
L 127.274807 45.272512 
L 130.441657 29.281818 
L 133.608508 33.098948 
L 136.775359 42.236136 
L 139.94221 30.124723 
L 143.109061 49.488265 
L 146.275912 65.89555 
L 149.442762 65.85346 
L 152.609613 60.144995 
L 155.776464 57.858975 
L 158.943315 77.004068 
L 162.110166 81.14118 
L 165.277017 77.162582 
L 168.443867 87.18981 
L 171.610718 99.42417 
L 174.777569 103.943782 
L 177.94442 95.686789 
L 181.111271 83.276193 
L 184.278122 108.272883 
L 187.444972 93.109709 
L 190.611823 122.46479 
L 193.778674 102.542264 
L 196.945525 110.180217 
L 200.112376 117.143009 
L 203.279227 131.392759 
L 206.446077 135.771087 
L 209.612928 134.052049 
L 212.779779 149.471207 
L 215.94663 142.940636 
L 219.113481 132.282799 
L 222.280331 134.69595 
L 225.447182 129.722457 
L 228.614033 126.586148 
L 231.780884 145.282899 
L 234.947735 149.30014 
L 238.114586 139.398197 
L 241.281436 171.631632 
L 244.448287 173.295042 
L 247.615138 157.405758 
L 250.781989 170.913397 
L 253.94884 171.999364 
L 257.115691 168.420989 
L 260.282541 179.785247 
L 263.449392 185.108504 
L 266.616243 175.501928 
L 269.783094 176.553436 
L 272.949945 187.49901 
L 276.116796 176.643031 
L 279.283646 183.874115 
L 282.450497 195.100534 
L 285.617348 194.984356 
L 288.784199 199.087747 
L 291.95105 186.689211 
L 295.117901 207.343755 
L 298.284751 214.077884 
L 301.451602 209.382774 
L 304.618453 200.263062 
L 307.785304 207.884523 
L 310.952155 223.732949 
L 314.119006 226.588905 
L 317.285856 197.138076 
L 320.452707 216.357135 
L 323.619558 214.681418 
L 326.786409 222.576586 
L 329.95326 227.218775 
L 333.12011 217.217146 
L 336.286961 225.081301 
L 339.453812 226.326274 
L 342.620663 231.212634 
L 345.787514 232.353736 
L 348.954365 232.150671 
L 352.121215 235.101144 
L 355.288066 230.804781 
L 358.454917 233.41632 
L 361.621768 233.692488 
L 364.788619 220.75097 
L 367.95547 234.798885 
L 371.12232 236.21714 
L 374.289171 242.381949 
L 377.456022 236.560013 
L 380.622873 233.627508 
L 383.789724 245.131818 
L 386.956575 229.058421 
L 390.123425 241.492893 
L 393.290276 247.898671 
L 396.457127 242.171745 
L 399.623978 253.549787 
L 402.790829 256.172648 
L 405.95768 247.783478 
L 409.12453 254.694335 
L 412.291381 260.402308 
L 415.458232 259.897968 
L 418.625083 264.247744 
L 421.791934 249.216502 
L 424.958785 258.477498 
L 428.125635 257.552506 
L 431.292486 272.58621 
L 434.459337 265.257654 
L 437.626188 262.801183 
L 440.793039 267.270337 
L 443.95989 258.301508 
L 447.12674 269.8644 
L 450.293591 274.65895 
L 453.460442 267.401529 
L 456.627293 269.079215 
L 459.794144 264.496099 
L 462.960994 272.3573 
L 466.127845 275.068526 
L 469.294696 268.895595 
L 472.461547 273.472804 
L 475.628398 262.386438 
L 478.795249 274.380074 
L 481.962099 266.204061 
L 485.12895 263.84826 
L 488.295801 273.903794 
L 491.462652 268.595059 
L 494.629503 263.554862 
L 497.796354 268.427192 
L 500.963204 265.877187 
L 504.130055 271.139894 
L 507.296906 275.242054 
L 510.463757 270.222287 
L 513.630608 277.423096 
L 516.797459 275.432074 
L 519.964309 273.21485 
L 523.13116 268.05626 
L 526.298011 283.584458 
L 529.464862 282.7242 
L 532.631713 277.411035 
L 535.798564 274.160271 
L 538.965414 280.185026 
L 542.132265 276.014932 
L 545.299116 279.006018 
L 548.465967 273.030984 
L 551.632818 271.118973 
L 554.799669 278.761848 
L 557.966519 277.919559 
L 561.13337 278.058381 
L 564.300221 271.268871 
L 567.467072 274.778574 
L 570.633923 281.462982 
L 573.800773 280.871509 
L 576.967624 275.738025 
L 580.134475 275.963735 
L 583.301326 276.318176 
L 586.468177 270.226717 
L 589.635028 273.545661 
L 592.801878 279.1921 
L 595.968729 273.534831 
L 599.13558 287.37082 
L 602.302431 279.713423 
L 605.469282 270.932645 
L 608.636133 281.196905 
L 611.802983 283.798599 
L 614.969834 280.556943 
L 618.136685 273.187528 
L 621.303536 272.508183 
L 624.470387 273.382225 
L 627.637238 278.856119 
L 630.804088 279.029155 
L 633.970939 274.627198 
L 637.13779 290.918182 
L 640.304641 284.645565 
L 643.471492 280.233762 
L 646.638343 276.023301 
L 649.805193 288.466633 
L 652.972044 278.859319 
L 656.138895 279.262249 
L 659.305746 283.441204 
L 662.472597 284.058768 
L 665.639448 287.947525 
L 668.806298 281.746288 
L 671.973149 281.142508 
L 675.14 282.086207 
L 675.14 282.086207 
" style="fill:none;stroke:#1f77b4;stroke-linecap:square;stroke-width:1.5;"/>
   </g>
   <g id="patch_3">
    <path d="M 73.28 304 
L 73.28 16.2 
" style="fill:none;stroke:#000000;stroke-linecap:square;stroke-linejoin:miter;stroke-width:0.8;"/>
   </g>
   <g id="patch_4">
    <path d="M 703.8 304 
L 703.8 16.2 
" style="fill:none;stroke:#000000;stroke-linecap:square;stroke-linejoin:miter;stroke-width:0.8;"/>
   </g>
   <g id="patch_5">
    <path d="M 73.28 304 
L 703.8 304 
" style="fill:none;stroke:#000000;stroke-linecap:square;stroke-linejoin:miter;stroke-width:0.8;"/>
   </g>
   <g id="patch_6">
    <path d="M 73.28 16.2 
L 703.8 16.2 
" style="fill:none;stroke:#000000;stroke-linecap:square;stroke-linejoin:miter;stroke-width:0.8;"/>
   </g>
  </g>
 </g>
 <defs>
  <clipPath id="p3a6c177e4e">
   <rect height="287.8" width="630.52" x="73.28" y="16.2"/>
  </clipPath>
 </defs>
</svg>
