<?xml version="1.0" encoding="utf-8" standalone="no"?>
<!DOCTYPE svg PUBLIC "-//W3C//DTD SVG 1.1//EN"
  "http://www.w3.org/Graphics/SVG/1.1/DTD/svg11.dtd">
<!-- Created with matplotlib (https://matplotlib.org/) -->
<svg height="360pt" version="1.1" viewBox="0 0 720 360" width="720pt" xmlns="http://www.w3.org/2000/svg" xmlns:xlink="http://www.w3.org/1999/xlink">
 <defs>
  <style type="text/css">
*{stroke-linecap:butt;stroke-linejoin:round;}
  </style>
 </defs>
 <g id="figure_1">
  <g id="patch_1">
   <path d="M 0 360 
L 720 360 
L 720 0 
L 0 0 
z
" style="fill:#ffffff;"/>
  </g>
  <g id="axes_1">
   <g id="patch_2">
    <path d="M 60.68 304 
L 703.8 304 
L 703.8 16.2 
L 60.68 16.2 
z
" style="fill:#ffffff;"/>
   </g>
   <g id="matplotlib.axis_1">
    <g id="xtick_1">
     <g id="line2d_1">
      <defs>
       <path d="M 0 0 
L 0 3.5 
" id="mb1790b03f7" style="stroke:#000000;stroke-width:0.8;"/>
      </defs>
      <g>
       <use style="stroke:#000000;stroke-width:0.8;" x="86.682592" xlink:href="#mb1790b03f7" y="304"/>
      </g>
     </g>
     <g id="text_1">
      <text style="font-family:DejaVu Sans;font-size:15px;font-style:normal;font-weight:normal;text-anchor:middle;" transform="rotate(-0, 86.682592, 322.397656)" x="86.682592" y="322.397656">0</text>
     </g>
    </g>
    <g id="xtick_2">
     <g id="line2d_2">
      <g>
       <use style="stroke:#000000;stroke-width:0.8;" x="215.888016" xlink:href="#mb1790b03f7" y="304"/>
      </g>
     </g>
     <g id="text_2">
      <text style="font-family:DejaVu Sans;font-size:15px;font-style:normal;font-weight:normal;text-anchor:middle;" transform="rotate(-0, 215.888016, 322.397656)" x="215.888016" y="322.397656">20000</text>
     </g>
    </g>
    <g id="xtick_3">
     <g id="line2d_3">
      <g>
       <use style="stroke:#000000;stroke-width:0.8;" x="345.09344" xlink:href="#mb1790b03f7" y="304"/>
      </g>
     </g>
     <g id="text_3">
      <text style="font-family:DejaVu Sans;font-size:15px;font-style:normal;font-weight:normal;text-anchor:middle;" transform="rotate(-0, 345.09344, 322.397656)" x="345.09344" y="322.397656">40000</text>
     </g>
    </g>
    <g id="xtick_4">
     <g id="line2d_4">
      <g>
       <use style="stroke:#000000;stroke-width:0.8;" x="474.298865" xlink:href="#mb1790b03f7" y="304"/>
      </g>
     </g>
     <g id="text_4">
      <text style="font-family:DejaVu Sans;font-size:15px;font-style:normal;font-weight:normal;text-anchor:middle;" transform="rotate(-0, 474.298865, 322.397656)" x="474.298865" y="322.397656">60000</text>
     </g>
    </g>
    <g id="xtick_5">
     <g id="line2d_5">
      <g>
       <use style="stroke:#000000;stroke-width:0.8;" x="603.504289" xlink:href="#mb1790b03f7" y="304"/>
      </g>
     </g>
     <g id="text_5">
      <text style="font-family:DejaVu Sans;font-size:15px;font-style:normal;font-weight:normal;text-anchor:middle;" transform="rotate(-0, 603.504289, 322.397656)" x="603.504289" y="322.397656">80000</text>
     </g>
    </g>
    <g id="text_6">
     <text style="font-family:DejaVu Sans;font-size:15px;font-style:normal;font-weight:normal;text-anchor:middle;" transform="rotate(-0, 382.24, 340.914844)" x="382.24" y="340.914844">Episodes</text>
    </g>
   </g>
   <g id="matplotlib.axis_2">
    <g id="ytick_1">
     <g id="line2d_6">
      <defs>
       <path d="M 0 0 
L -3.5 0 
" id="m986ff10c0f" style="stroke:#000000;stroke-width:0.8;"/>
      </defs>
      <g>
       <use style="stroke:#000000;stroke-width:0.8;" x="60.68" xlink:href="#m986ff10c0f" y="290.918182"/>
      </g>
     </g>
     <g id="text_7">
      <text style="font-family:DejaVu Sans;font-size:15px;font-style:normal;font-weight:normal;text-anchor:end;" transform="rotate(-0, 53.68, 296.61701)" x="53.68" y="296.61701">0</text>
     </g>
    </g>
    <g id="ytick_2">
     <g id="line2d_7">
      <g>
       <use style="stroke:#000000;stroke-width:0.8;" x="60.68" xlink:href="#m986ff10c0f" y="233.184319"/>
      </g>
     </g>
     <g id="text_8">
      <text style="font-family:DejaVu Sans;font-size:15px;font-style:normal;font-weight:normal;text-anchor:end;" transform="rotate(-0, 53.68, 238.883147)" x="53.68" y="238.883147">10</text>
     </g>
    </g>
    <g id="ytick_3">
     <g id="line2d_8">
      <g>
       <use style="stroke:#000000;stroke-width:0.8;" x="60.68" xlink:href="#m986ff10c0f" y="175.450455"/>
      </g>
     </g>
     <g id="text_9">
      <text style="font-family:DejaVu Sans;font-size:15px;font-style:normal;font-weight:normal;text-anchor:end;" transform="rotate(-0, 53.68, 181.149284)" x="53.68" y="181.149284">20</text>
     </g>
    </g>
    <g id="ytick_4">
     <g id="line2d_9">
      <g>
       <use style="stroke:#000000;stroke-width:0.8;" x="60.68" xlink:href="#m986ff10c0f" y="117.716592"/>
      </g>
     </g>
     <g id="text_10">
      <text style="font-family:DejaVu Sans;font-size:15px;font-style:normal;font-weight:normal;text-anchor:end;" transform="rotate(-0, 53.68, 123.41542)" x="53.68" y="123.41542">30</text>
     </g>
    </g>
    <g id="ytick_5">
     <g id="line2d_10">
      <g>
       <use style="stroke:#000000;stroke-width:0.8;" x="60.68" xlink:href="#m986ff10c0f" y="59.982729"/>
      </g>
     </g>
     <g id="text_11">
      <text style="font-family:DejaVu Sans;font-size:15px;font-style:normal;font-weight:normal;text-anchor:end;" transform="rotate(-0, 53.68, 65.681557)" x="53.68" y="65.681557">40</text>
     </g>
    </g>
    <g id="text_12">
     <text style="font-family:DejaVu Sans;font-size:15px;font-style:normal;font-weight:normal;text-anchor:middle;" transform="rotate(-90, 27.472969, 160.1)" x="27.472969" y="160.1">Reward Components Mean (Max 50)</text>
    </g>
   </g>
   <g id="line2d_11">
    <path clip-path="url(#p5d4f8a92a3)" d="M 89.912727 174.07298 
L 93.142863 151.153016 
L 96.372998 158.733851 
L 99.603134 149.321636 
L 102.83327 141.456929 
L 106.063405 130.804713 
L 109.293541 130.567046 
L 112.523677 126.288304 
L 115.753812 137.619677 
L 118.983948 114.935853 
L 122.214083 129.39792 
L 125.444219 122.25452 
L 128.674355 115.954413 
L 131.90449 124.713794 
L 135.134626 108.668297 
L 138.364761 111.446112 
L 141.594897 101.71015 
L 144.825033 98.551287 
L 148.055168 98.979606 
L 151.285304 94.611641 
L 154.515439 90.738744 
L 157.745575 90.682775 
L 160.975711 100.71251 
L 164.205846 96.589073 
L 167.435982 99.895601 
L 170.666118 90.811761 
L 173.896253 92.614301 
L 177.126389 91.470662 
L 180.356524 90.74733 
L 183.58666 81.648622 
L 186.816796 91.21104 
L 190.046931 86.903563 
L 193.277067 87.386835 
L 196.507202 88.472723 
L 199.737338 84.939091 
L 202.967474 95.493942 
L 206.197609 89.46985 
L 209.427745 88.232393 
L 212.65788 93.813904 
L 215.888016 87.114207 
L 219.118152 94.548877 
L 222.348287 92.082031 
L 225.578423 80.198922 
L 228.808559 85.344679 
L 232.038694 88.959705 
L 235.26883 90.780815 
L 238.498965 85.898845 
L 241.729101 86.751073 
L 244.959237 84.902736 
L 248.189372 88.792122 
L 251.419508 81.685344 
L 254.649643 86.458879 
L 257.879779 95.291603 
L 264.34005 77.677821 
L 267.570186 74.125829 
L 270.800321 79.346882 
L 274.030457 81.683356 
L 277.260593 74.584972 
L 280.490728 72.766823 
L 283.720864 80.588124 
L 286.950999 82.73254 
L 290.181135 85.103593 
L 293.411271 77.895398 
L 296.641406 77.784141 
L 299.871542 80.228049 
L 306.331813 79.196035 
L 312.792084 75.07536 
L 316.02222 66.236724 
L 319.252356 76.501322 
L 322.482491 71.154454 
L 325.712627 84.497179 
L 328.942762 68.167993 
L 332.172898 72.619083 
L 335.403034 66.021272 
L 338.633169 67.973556 
L 341.863305 75.527945 
L 345.09344 82.139061 
L 348.323576 69.821708 
L 351.553712 82.972695 
L 354.783847 72.216457 
L 358.013983 78.021317 
L 361.244119 70.857555 
L 364.474254 78.885556 
L 367.70439 68.801358 
L 370.934525 67.840523 
L 374.164661 79.886834 
L 377.394797 72.717232 
L 380.624932 72.382028 
L 383.855068 78.922302 
L 387.085203 69.461148 
L 390.315339 63.696223 
L 393.545475 69.107309 
L 396.77561 64.550692 
L 400.005746 71.060449 
L 403.235881 66.027096 
L 406.466017 72.250157 
L 409.696153 64.620693 
L 412.926288 72.699303 
L 416.156424 69.488185 
L 419.38656 69.428318 
L 422.616695 73.792193 
L 425.846831 73.327234 
L 429.076966 69.990185 
L 432.307102 68.58101 
L 435.537238 66.018726 
L 438.767373 63.729916 
L 441.997509 65.724545 
L 445.227644 64.208282 
L 448.45778 65.432135 
L 451.687916 67.222652 
L 454.918051 75.216632 
L 458.148187 69.984603 
L 461.378322 60.764622 
L 464.608458 68.441638 
L 467.838594 73.140953 
L 471.068729 65.935372 
L 474.298865 60.987538 
L 477.529001 70.03263 
L 480.759136 65.184472 
L 483.989272 65.891484 
L 487.219407 63.256815 
L 490.449543 67.520944 
L 493.679679 61.512056 
L 496.909814 71.063339 
L 500.13995 64.706678 
L 503.370085 62.762348 
L 506.600221 58.257939 
L 509.830357 64.943166 
L 513.060492 77.42239 
L 516.290628 63.315687 
L 519.520763 66.815616 
L 522.750899 72.421433 
L 525.981035 63.95887 
L 529.21117 75.218538 
L 532.441306 67.864207 
L 535.671441 68.058437 
L 538.901577 62.30672 
L 542.131713 75.576122 
L 545.361848 66.821809 
L 548.591984 63.695202 
L 551.82212 64.584167 
L 555.052255 64.463003 
L 558.282391 59.971111 
L 561.512526 67.824284 
L 564.742662 59.625316 
L 567.972798 63.151483 
L 571.202933 64.149734 
L 574.433069 68.815686 
L 577.663204 61.918786 
L 580.89334 64.207314 
L 584.123476 70.144049 
L 587.353611 61.392556 
L 590.583747 65.124115 
L 593.813882 67.866194 
L 597.044018 62.706253 
L 600.274154 59.1626 
L 603.504289 61.484313 
L 606.734425 60.42478 
L 609.964561 56.868949 
L 613.194696 61.578908 
L 616.424832 63.772772 
L 619.654967 62.416145 
L 622.885103 61.211113 
L 626.115239 63.723775 
L 629.345374 63.114962 
L 632.57551 59.087589 
L 635.805645 57.920981 
L 639.035781 60.081995 
L 642.265917 63.542692 
L 645.496052 68.305754 
L 648.726188 70.569739 
L 651.956323 62.469045 
L 655.186459 72.21047 
L 658.416595 72.432828 
L 661.64673 62.188741 
L 664.876866 59.25808 
L 668.107002 54.297693 
L 671.337137 64.946449 
L 674.567273 64.189647 
L 674.567273 64.189647 
" style="fill:none;stroke:#1f77b4;stroke-linecap:square;stroke-width:1.5;"/>
   </g>
   <g id="line2d_12">
    <path clip-path="url(#p5d4f8a92a3)" d="M 89.912727 80.792249 
L 93.142863 62.414173 
L 96.372998 58.143286 
L 99.603134 62.43549 
L 102.83327 55.867298 
L 106.063405 52.39204 
L 109.293541 58.079358 
L 112.523677 53.961559 
L 115.753812 61.385279 
L 118.983948 45.616996 
L 122.214083 54.563893 
L 125.444219 41.198535 
L 128.674355 52.238779 
L 131.90449 45.639778 
L 135.134626 44.095918 
L 138.364761 48.503386 
L 141.594897 49.753863 
L 144.825033 46.673916 
L 151.285304 43.041944 
L 157.745575 44.145597 
L 160.975711 45.571364 
L 164.205846 45.080639 
L 167.435982 40.334909 
L 170.666118 45.013468 
L 173.896253 44.501634 
L 177.126389 47.028193 
L 180.356524 45.382981 
L 183.58666 42.939918 
L 186.816796 44.024487 
L 190.046931 38.978682 
L 193.277067 43.151384 
L 196.507202 40.882461 
L 199.737338 36.4506 
L 202.967474 46.414175 
L 206.197609 40.894528 
L 209.427745 41.173426 
L 212.65788 42.594471 
L 215.888016 36.938904 
L 219.118152 40.05665 
L 222.348287 40.125095 
L 225.578423 40.594424 
L 228.808559 36.795183 
L 232.038694 44.904849 
L 235.26883 39.604175 
L 238.498965 37.821688 
L 241.729101 35.28211 
L 244.959237 37.472031 
L 248.189372 44.12764 
L 251.419508 37.281087 
L 254.649643 39.619045 
L 257.879779 41.233017 
L 261.109915 36.01244 
L 264.34005 37.940586 
L 267.570186 37.385382 
L 270.800321 37.163064 
L 274.030457 35.476791 
L 277.260593 35.665368 
L 280.490728 33.851885 
L 283.720864 36.958593 
L 286.950999 33.696693 
L 290.181135 34.722358 
L 293.411271 35.976941 
L 296.641406 37.756436 
L 299.871542 37.026327 
L 306.331813 37.916429 
L 309.561949 37.532123 
L 312.792084 35.477448 
L 316.02222 31.387686 
L 319.252356 37.495138 
L 322.482491 36.964425 
L 325.712627 35.393064 
L 328.942762 30.915943 
L 332.172898 37.939002 
L 335.403034 31.717317 
L 338.633169 33.879161 
L 341.863305 38.59088 
L 345.09344 38.077154 
L 348.323576 36.72307 
L 351.553712 36.474924 
L 354.783847 34.219604 
L 358.013983 34.146025 
L 361.244119 33.639911 
L 364.474254 37.785036 
L 367.70439 36.654341 
L 370.934525 35.809149 
L 374.164661 36.681053 
L 377.394797 33.14075 
L 380.624932 35.80481 
L 383.855068 36.198384 
L 387.085203 31.926605 
L 390.315339 33.1084 
L 393.545475 36.305388 
L 396.77561 35.024205 
L 400.005746 32.938917 
L 403.235881 32.94505 
L 406.466017 40.79309 
L 409.696153 34.782377 
L 412.926288 41.397037 
L 416.156424 31.75964 
L 422.616695 36.272269 
L 425.846831 37.421915 
L 429.076966 34.92659 
L 432.307102 35.12718 
L 435.537238 34.146411 
L 438.767373 33.645386 
L 441.997509 29.29953 
L 445.227644 32.897591 
L 448.45778 32.046706 
L 451.687916 31.859544 
L 454.918051 32.668991 
L 458.148187 37.044884 
L 461.378322 34.254721 
L 464.608458 32.496283 
L 467.838594 34.329332 
L 471.068729 35.97177 
L 474.298865 37.143768 
L 477.529001 36.540209 
L 480.759136 34.00883 
L 483.989272 32.851946 
L 487.219407 34.786103 
L 490.449543 32.287673 
L 493.679679 33.030032 
L 496.909814 36.211873 
L 500.13995 34.252225 
L 503.370085 30.586511 
L 506.600221 31.817464 
L 509.830357 37.761238 
L 513.060492 37.72565 
L 516.290628 34.817533 
L 519.520763 32.298224 
L 522.750899 34.804615 
L 525.981035 36.963995 
L 529.21117 37.991728 
L 532.441306 32.615084 
L 535.671441 35.297042 
L 538.901577 35.443922 
L 542.131713 34.958528 
L 545.361848 34.123162 
L 548.591984 33.960958 
L 551.82212 37.024083 
L 555.052255 34.175079 
L 558.282391 34.879665 
L 561.512526 39.574885 
L 564.742662 33.50678 
L 567.972798 30.190923 
L 571.202933 35.028693 
L 574.433069 36.70646 
L 577.663204 37.560802 
L 580.89334 35.510278 
L 584.123476 32.478107 
L 587.353611 33.487802 
L 590.583747 33.008999 
L 597.044018 35.066441 
L 600.274154 32.169337 
L 603.504289 36.106693 
L 606.734425 36.225478 
L 609.964561 29.281818 
L 613.194696 35.743715 
L 616.424832 35.785272 
L 619.654967 30.288853 
L 622.885103 34.259673 
L 626.115239 31.660985 
L 629.345374 35.874011 
L 632.57551 33.428705 
L 635.805645 34.393627 
L 639.035781 34.864378 
L 642.265917 34.971676 
L 645.496052 36.481155 
L 648.726188 34.809676 
L 651.956323 40.034717 
L 655.186459 40.369018 
L 658.416595 36.820036 
L 661.64673 33.005466 
L 664.876866 34.076219 
L 668.107002 35.462441 
L 671.337137 32.505887 
L 674.567273 33.858265 
L 674.567273 33.858265 
" style="fill:none;stroke:#ff7f0e;stroke-linecap:square;stroke-width:1.5;"/>
   </g>
   <g id="line2d_13">
    <path clip-path="url(#p5d4f8a92a3)" d="M 89.912727 290.918182 
L 125.444219 290.918182 
L 128.674355 290.340843 
L 131.90449 290.860448 
L 138.364761 290.918182 
L 148.055168 290.918182 
L 151.285304 290.687246 
L 154.515439 290.918182 
L 160.975711 290.918182 
L 164.205846 290.802714 
L 167.435982 290.918182 
L 193.277067 290.860448 
L 196.507202 290.687246 
L 199.737338 290.918182 
L 219.118152 290.918182 
L 222.348287 290.340843 
L 225.578423 289.878972 
L 228.808559 290.514045 
L 232.038694 290.918182 
L 257.879779 290.918182 
L 261.109915 290.74498 
L 264.34005 290.860448 
L 267.570186 290.687246 
L 274.030457 290.571779 
L 277.260593 290.918182 
L 283.720864 290.918182 
L 286.950999 290.802714 
L 290.181135 290.918182 
L 293.411271 290.802714 
L 299.871542 290.918182 
L 303.101678 290.629513 
L 309.561949 290.918182 
L 312.792084 290.918182 
L 319.252356 290.398577 
L 322.482491 290.918182 
L 325.712627 290.74498 
L 332.172898 290.687246 
L 335.403034 290.109908 
L 338.633169 290.860448 
L 341.863305 289.99444 
L 345.09344 290.860448 
L 348.323576 290.687246 
L 351.553712 290.802714 
L 354.783847 288.031489 
L 358.013983 290.918182 
L 361.244119 287.165481 
L 364.474254 289.821238 
L 367.70439 287.338682 
L 370.934525 289.648037 
L 374.164661 290.687246 
L 380.624932 290.918182 
L 383.855068 290.398577 
L 387.085203 290.456311 
L 390.315339 289.012964 
L 393.545475 289.2439 
L 396.77561 290.514045 
L 400.005746 289.012964 
L 403.235881 289.474835 
L 406.466017 290.283109 
L 409.696153 290.74498 
L 412.926288 290.398577 
L 416.156424 287.396416 
L 419.38656 290.918182 
L 422.616695 288.666561 
L 425.846831 290.74498 
L 429.076966 290.687246 
L 432.307102 288.089223 
L 435.537238 289.012964 
L 438.767373 285.779868 
L 441.997509 290.109908 
L 445.227644 290.74498 
L 448.45778 285.548933 
L 451.687916 288.146956 
L 454.918051 290.918182 
L 458.148187 289.2439 
L 461.378322 290.052174 
L 464.608458 290.74498 
L 467.838594 288.031489 
L 471.068729 290.802714 
L 474.298865 289.821238 
L 477.529001 290.687246 
L 480.759136 288.608827 
L 483.989272 290.225375 
L 487.219407 286.934545 
L 490.449543 290.629513 
L 493.679679 290.918182 
L 496.909814 289.012964 
L 500.13995 287.685085 
L 503.370085 287.338682 
L 506.600221 290.167642 
L 509.830357 288.782029 
L 513.060492 286.357207 
L 516.290628 288.666561 
L 519.520763 288.839763 
L 522.750899 284.451989 
L 525.981035 290.225375 
L 529.21117 290.687246 
L 532.441306 289.763505 
L 535.671441 288.031489 
L 538.901577 289.474835 
L 542.131713 285.95307 
L 545.361848 284.336521 
L 548.591984 289.648037 
L 551.82212 289.012964 
L 555.052255 287.45415 
L 558.282391 287.916021 
L 561.512526 287.45415 
L 567.972798 288.666561 
L 571.202933 289.763505 
L 574.433069 289.878972 
L 577.663204 290.74498 
L 580.89334 290.802714 
L 584.123476 289.648037 
L 587.353611 290.514045 
L 590.583747 290.571779 
L 593.813882 289.878972 
L 597.044018 289.590303 
L 600.274154 287.45415 
L 603.504289 288.897497 
L 606.734425 288.377892 
L 609.964561 289.474835 
L 613.194696 287.800553 
L 616.424832 290.167642 
L 619.654967 289.590303 
L 622.885103 290.687246 
L 626.115239 288.724295 
L 629.345374 287.627352 
L 632.57551 290.514045 
L 635.805645 284.798392 
L 639.035781 290.74498 
L 642.265917 288.377892 
L 645.496052 290.571779 
L 648.726188 290.860448 
L 651.956323 285.6644 
L 655.186459 290.687246 
L 658.416595 287.858287 
L 661.64673 290.167642 
L 664.876866 290.514045 
L 668.107002 289.590303 
L 671.337137 284.047852 
L 674.567273 288.551093 
L 674.567273 288.551093 
" style="fill:none;stroke:#2ca02c;stroke-linecap:square;stroke-width:1.5;"/>
   </g>
   <g id="patch_3">
    <path d="M 60.68 304 
L 60.68 16.2 
" style="fill:none;stroke:#000000;stroke-linecap:square;stroke-linejoin:miter;stroke-width:0.8;"/>
   </g>
   <g id="patch_4">
    <path d="M 703.8 304 
L 703.8 16.2 
" style="fill:none;stroke:#000000;stroke-linecap:square;stroke-linejoin:miter;stroke-width:0.8;"/>
   </g>
   <g id="patch_5">
    <path d="M 60.68 304 
L 703.8 304 
" style="fill:none;stroke:#000000;stroke-linecap:square;stroke-linejoin:miter;stroke-width:0.8;"/>
   </g>
   <g id="patch_6">
    <path d="M 60.68 16.2 
L 703.8 16.2 
" style="fill:none;stroke:#000000;stroke-linecap:square;stroke-linejoin:miter;stroke-width:0.8;"/>
   </g>
   <g id="legend_1">
    <g id="patch_7">
     <path d="M 505.942969 195.375781 
L 693.3 195.375781 
Q 696.3 195.375781 696.3 192.375781 
L 696.3 127.824219 
Q 696.3 124.824219 693.3 124.824219 
L 505.942969 124.824219 
Q 502.942969 124.824219 502.942969 127.824219 
L 502.942969 192.375781 
Q 502.942969 195.375781 505.942969 195.375781 
z
" style="fill:#ffffff;opacity:0.8;stroke:#cccccc;stroke-linejoin:miter;"/>
    </g>
    <g id="line2d_14">
     <path d="M 508.942969 136.971875 
L 538.942969 136.971875 
" style="fill:none;stroke:#1f77b4;stroke-linecap:square;stroke-width:1.5;"/>
    </g>
    <g id="line2d_15"/>
    <g id="text_13">
     <text style="font-family:DejaVu Sans;font-size:15px;font-style:normal;font-weight:normal;text-anchor:start;" transform="rotate(-0, 550.942969, 142.221875)" x="550.942969" y="142.221875">position reward</text>
    </g>
    <g id="line2d_16">
     <path d="M 508.942969 158.989063 
L 538.942969 158.989063 
" style="fill:none;stroke:#ff7f0e;stroke-linecap:square;stroke-width:1.5;"/>
    </g>
    <g id="line2d_17"/>
    <g id="text_14">
     <text style="font-family:DejaVu Sans;font-size:15px;font-style:normal;font-weight:normal;text-anchor:start;" transform="rotate(-0, 550.942969, 164.239063)" x="550.942969" y="164.239063">orientation reward</text>
    </g>
    <g id="line2d_18">
     <path d="M 508.942969 181.00625 
L 538.942969 181.00625 
" style="fill:none;stroke:#2ca02c;stroke-linecap:square;stroke-width:1.5;"/>
    </g>
    <g id="line2d_19"/>
    <g id="text_15">
     <text style="font-family:DejaVu Sans;font-size:15px;font-style:normal;font-weight:normal;text-anchor:start;" transform="rotate(-0, 550.942969, 186.25625)" x="550.942969" y="186.25625">bonus reward</text>
    </g>
   </g>
  </g>
 </g>
 <defs>
  <clipPath id="p5d4f8a92a3">
   <rect height="287.8" width="643.12" x="60.68" y="16.2"/>
  </clipPath>
 </defs>
</svg>
