<?xml version="1.0" encoding="utf-8" standalone="no"?>
<!DOCTYPE svg PUBLIC "-//W3C//DTD SVG 1.1//EN"
  "http://www.w3.org/Graphics/SVG/1.1/DTD/svg11.dtd">
<!-- Created with matplotlib (https://matplotlib.org/) -->
<svg height="360pt" version="1.1" viewBox="0 0 720 360" width="720pt" xmlns="http://www.w3.org/2000/svg" xmlns:xlink="http://www.w3.org/1999/xlink">
 <defs>
  <style type="text/css">
*{stroke-linecap:butt;stroke-linejoin:round;}
  </style>
 </defs>
 <g id="figure_1">
  <g id="patch_1">
   <path d="M 0 360 
L 720 360 
L 720 0 
L 0 0 
z
" style="fill:#ffffff;"/>
  </g>
  <g id="axes_1">
   <g id="patch_2">
    <path d="M 60.68 304 
L 703.8 304 
L 703.8 16.2 
L 60.68 16.2 
z
" style="fill:#ffffff;"/>
   </g>
   <g id="matplotlib.axis_1">
    <g id="xtick_1">
     <g id="line2d_1">
      <defs>
       <path d="M 0 0 
L 0 3.5 
" id="mb9e1884d87" style="stroke:#000000;stroke-width:0.8;"/>
      </defs>
      <g>
       <use style="stroke:#000000;stroke-width:0.8;" x="86.682592" xlink:href="#mb9e1884d87" y="304"/>
      </g>
     </g>
     <g id="text_1">
      <text style="font-family:DejaVu Sans;font-size:15px;font-style:normal;font-weight:normal;text-anchor:middle;" transform="rotate(-0, 86.682592, 322.397656)" x="86.682592" y="322.397656">0</text>
     </g>
    </g>
    <g id="xtick_2">
     <g id="line2d_2">
      <g>
       <use style="stroke:#000000;stroke-width:0.8;" x="215.888016" xlink:href="#mb9e1884d87" y="304"/>
      </g>
     </g>
     <g id="text_2">
      <text style="font-family:DejaVu Sans;font-size:15px;font-style:normal;font-weight:normal;text-anchor:middle;" transform="rotate(-0, 215.888016, 322.397656)" x="215.888016" y="322.397656">20000</text>
     </g>
    </g>
    <g id="xtick_3">
     <g id="line2d_3">
      <g>
       <use style="stroke:#000000;stroke-width:0.8;" x="345.09344" xlink:href="#mb9e1884d87" y="304"/>
      </g>
     </g>
     <g id="text_3">
      <text style="font-family:DejaVu Sans;font-size:15px;font-style:normal;font-weight:normal;text-anchor:middle;" transform="rotate(-0, 345.09344, 322.397656)" x="345.09344" y="322.397656">40000</text>
     </g>
    </g>
    <g id="xtick_4">
     <g id="line2d_4">
      <g>
       <use style="stroke:#000000;stroke-width:0.8;" x="474.298865" xlink:href="#mb9e1884d87" y="304"/>
      </g>
     </g>
     <g id="text_4">
      <text style="font-family:DejaVu Sans;font-size:15px;font-style:normal;font-weight:normal;text-anchor:middle;" transform="rotate(-0, 474.298865, 322.397656)" x="474.298865" y="322.397656">60000</text>
     </g>
    </g>
    <g id="xtick_5">
     <g id="line2d_5">
      <g>
       <use style="stroke:#000000;stroke-width:0.8;" x="603.504289" xlink:href="#mb9e1884d87" y="304"/>
      </g>
     </g>
     <g id="text_5">
      <text style="font-family:DejaVu Sans;font-size:15px;font-style:normal;font-weight:normal;text-anchor:middle;" transform="rotate(-0, 603.504289, 322.397656)" x="603.504289" y="322.397656">80000</text>
     </g>
    </g>
    <g id="text_6">
     <text style="font-family:DejaVu Sans;font-size:15px;font-style:normal;font-weight:normal;text-anchor:middle;" transform="rotate(-0, 382.24, 340.914844)" x="382.24" y="340.914844">Episodes</text>
    </g>
   </g>
   <g id="matplotlib.axis_2">
    <g id="ytick_1">
     <g id="line2d_6">
      <defs>
       <path d="M 0 0 
L -3.5 0 
" id="m861e2cec80" style="stroke:#000000;stroke-width:0.8;"/>
      </defs>
      <g>
       <use style="stroke:#000000;stroke-width:0.8;" x="60.68" xlink:href="#m861e2cec80" y="286.79179"/>
      </g>
     </g>
     <g id="text_7">
      <text style="font-family:DejaVu Sans;font-size:15px;font-style:normal;font-weight:normal;text-anchor:end;" transform="rotate(-0, 53.68, 292.490618)" x="53.68" y="292.490618">22</text>
     </g>
    </g>
    <g id="ytick_2">
     <g id="line2d_7">
      <g>
       <use style="stroke:#000000;stroke-width:0.8;" x="60.68" xlink:href="#m861e2cec80" y="239.351464"/>
      </g>
     </g>
     <g id="text_8">
      <text style="font-family:DejaVu Sans;font-size:15px;font-style:normal;font-weight:normal;text-anchor:end;" transform="rotate(-0, 53.68, 245.050293)" x="53.68" y="245.050293">24</text>
     </g>
    </g>
    <g id="ytick_3">
     <g id="line2d_8">
      <g>
       <use style="stroke:#000000;stroke-width:0.8;" x="60.68" xlink:href="#m861e2cec80" y="191.911139"/>
      </g>
     </g>
     <g id="text_9">
      <text style="font-family:DejaVu Sans;font-size:15px;font-style:normal;font-weight:normal;text-anchor:end;" transform="rotate(-0, 53.68, 197.609967)" x="53.68" y="197.609967">26</text>
     </g>
    </g>
    <g id="ytick_4">
     <g id="line2d_9">
      <g>
       <use style="stroke:#000000;stroke-width:0.8;" x="60.68" xlink:href="#m861e2cec80" y="144.470814"/>
      </g>
     </g>
     <g id="text_10">
      <text style="font-family:DejaVu Sans;font-size:15px;font-style:normal;font-weight:normal;text-anchor:end;" transform="rotate(-0, 53.68, 150.169642)" x="53.68" y="150.169642">28</text>
     </g>
    </g>
    <g id="ytick_5">
     <g id="line2d_10">
      <g>
       <use style="stroke:#000000;stroke-width:0.8;" x="60.68" xlink:href="#m861e2cec80" y="97.030488"/>
      </g>
     </g>
     <g id="text_11">
      <text style="font-family:DejaVu Sans;font-size:15px;font-style:normal;font-weight:normal;text-anchor:end;" transform="rotate(-0, 53.68, 102.729317)" x="53.68" y="102.729317">30</text>
     </g>
    </g>
    <g id="ytick_6">
     <g id="line2d_11">
      <g>
       <use style="stroke:#000000;stroke-width:0.8;" x="60.68" xlink:href="#m861e2cec80" y="49.590163"/>
      </g>
     </g>
     <g id="text_12">
      <text style="font-family:DejaVu Sans;font-size:15px;font-style:normal;font-weight:normal;text-anchor:end;" transform="rotate(-0, 53.68, 55.288991)" x="53.68" y="55.288991">32</text>
     </g>
    </g>
    <g id="text_13">
     <text style="font-family:DejaVu Sans;font-size:15px;font-style:normal;font-weight:normal;text-anchor:middle;" transform="rotate(-90, 27.472969, 160.1)" x="27.472969" y="160.1">Episode Reward Mean (Max 50)</text>
    </g>
   </g>
   <g id="line2d_12">
    <path clip-path="url(#p29f6e5605c)" d="M 89.912727 290.918182 
L 93.142863 203.678803 
L 96.372998 192.206775 
L 99.603134 199.346636 
L 102.83327 167.258755 
L 106.063405 154.589443 
L 109.293541 156.829756 
L 112.523677 167.394089 
L 115.753812 142.952295 
L 118.983948 157.704015 
L 122.214083 148.099796 
L 125.444219 153.669923 
L 128.674355 129.04694 
L 131.90449 145.644527 
L 135.134626 125.560689 
L 138.364761 113.578497 
L 141.594897 113.284 
L 144.825033 127.075398 
L 148.055168 123.347134 
L 151.285304 118.911673 
L 154.515439 128.468067 
L 157.745575 114.202949 
L 160.975711 101.286787 
L 164.205846 120.095605 
L 167.435982 103.200178 
L 170.666118 90.05481 
L 173.896253 122.646037 
L 177.126389 110.985557 
L 180.356524 100.243083 
L 183.58666 100.657395 
L 186.816796 104.116429 
L 190.046931 110.220614 
L 193.277067 87.3221 
L 196.507202 95.450848 
L 199.737338 80.469327 
L 202.967474 93.689985 
L 206.197609 81.722791 
L 209.427745 101.208499 
L 212.65788 92.048541 
L 215.888016 83.547619 
L 219.118152 88.235065 
L 222.348287 82.181117 
L 225.578423 90.965814 
L 228.808559 83.716022 
L 232.038694 98.561585 
L 235.26883 76.422347 
L 238.498965 83.133461 
L 241.729101 88.878699 
L 244.959237 77.537623 
L 248.189372 97.144412 
L 251.419508 75.513224 
L 254.649643 74.867911 
L 257.879779 84.005731 
L 261.109915 84.235768 
L 264.34005 78.483754 
L 267.570186 72.105203 
L 270.800321 92.211525 
L 274.030457 72.295868 
L 277.260593 70.280272 
L 280.490728 76.132036 
L 283.720864 78.001649 
L 286.950999 65.878671 
L 290.181135 75.302486 
L 293.411271 70.320806 
L 296.641406 72.850263 
L 299.871542 77.007276 
L 303.101678 59.727807 
L 306.331813 62.332603 
L 309.561949 72.28101 
L 312.792084 55.043229 
L 316.02222 69.187365 
L 319.252356 69.995049 
L 322.482491 63.052247 
L 325.712627 64.810622 
L 328.942762 69.616331 
L 332.172898 67.905281 
L 335.403034 70.029882 
L 338.633169 55.522414 
L 345.09344 72.358187 
L 348.323576 64.374348 
L 351.553712 43.212344 
L 354.783847 58.936808 
L 358.013983 60.198296 
L 361.244119 65.165348 
L 364.474254 57.768177 
L 367.70439 62.716477 
L 370.934525 50.641054 
L 374.164661 56.556037 
L 377.394797 50.919365 
L 380.624932 59.140059 
L 383.855068 65.274996 
L 387.085203 60.284099 
L 390.315339 51.104496 
L 393.545475 48.628258 
L 396.77561 58.138692 
L 400.005746 47.206785 
L 403.235881 46.678971 
L 406.466017 62.326592 
L 409.696153 46.89128 
L 412.926288 62.865977 
L 416.156424 44.880836 
L 419.38656 65.44836 
L 422.616695 48.492926 
L 425.846831 47.404737 
L 429.076966 51.609802 
L 432.307102 67.451269 
L 435.537238 57.944574 
L 438.767373 52.109825 
L 441.997509 48.770592 
L 445.227644 52.993893 
L 448.45778 47.247696 
L 451.687916 38.490619 
L 454.918051 50.212116 
L 458.148187 48.914947 
L 461.378322 70.677053 
L 464.608458 39.049529 
L 467.838594 52.442633 
L 471.068729 57.609563 
L 474.298865 46.927253 
L 477.529001 42.290723 
L 480.759136 60.272486 
L 483.989272 56.277521 
L 487.219407 48.706149 
L 490.449543 49.234408 
L 493.679679 51.053689 
L 496.909814 59.325335 
L 500.13995 46.536978 
L 503.370085 41.884107 
L 506.600221 38.606645 
L 509.830357 61.90856 
L 513.060492 47.913813 
L 516.290628 46.153472 
L 519.520763 41.442296 
L 522.750899 51.14817 
L 525.981035 50.635469 
L 529.21117 52.613321 
L 532.441306 33.016194 
L 535.671441 50.124095 
L 538.901577 46.591794 
L 542.131713 63.405145 
L 545.361848 46.840659 
L 548.591984 41.596517 
L 551.82212 53.277774 
L 555.052255 55.275619 
L 558.282391 37.926949 
L 561.512526 72.57648 
L 564.742662 56.364272 
L 567.972798 46.544484 
L 571.202933 48.512878 
L 574.433069 54.489282 
L 577.663204 53.326797 
L 580.89334 56.997122 
L 584.123476 51.058919 
L 587.353611 51.346847 
L 590.583747 45.871373 
L 593.813882 52.513267 
L 597.044018 44.08731 
L 600.274154 49.896171 
L 603.504289 51.826856 
L 606.734425 55.925506 
L 609.964561 43.0129 
L 613.194696 50.527365 
L 616.424832 39.016393 
L 619.654967 56.078007 
L 622.885103 54.742495 
L 626.115239 51.555922 
L 629.345374 42.604409 
L 632.57551 39.106159 
L 635.805645 53.622244 
L 639.035781 42.475901 
L 642.265917 60.75417 
L 645.496052 46.143122 
L 648.726188 50.106975 
L 651.956323 42.980904 
L 655.186459 48.130513 
L 658.416595 49.296149 
L 661.64673 55.47016 
L 664.876866 46.490278 
L 668.107002 56.709641 
L 671.337137 44.061751 
L 674.567273 54.757373 
L 674.567273 54.757373 
" style="fill:none;stroke:#1f77b4;stroke-linecap:square;stroke-width:1.5;"/>
   </g>
   <g id="line2d_13">
    <path clip-path="url(#p29f6e5605c)" d="M 89.912727 256.964776 
L 93.142863 195.669415 
L 96.372998 194.682404 
L 99.603134 193.832134 
L 102.83327 172.261201 
L 106.063405 154.180839 
L 109.293541 165.619998 
L 112.523677 152.766095 
L 115.753812 179.655241 
L 118.983948 123.963641 
L 122.214083 157.197443 
L 125.444219 122.40419 
L 128.674355 138.019751 
L 131.90449 133.994396 
L 135.134626 114.40132 
L 138.364761 126.308629 
L 141.594897 118.877306 
L 144.825033 109.305696 
L 148.055168 106.07298 
L 151.285304 97.560907 
L 154.515439 94.936285 
L 157.745575 96.029835 
L 160.975711 109.260624 
L 164.205846 103.898621 
L 167.435982 97.664467 
L 170.666118 97.94516 
L 173.896253 98.745167 
L 177.126389 102.760725 
L 180.356524 98.638059 
L 183.58666 84.273764 
L 186.816796 96.323642 
L 190.046931 81.474552 
L 193.277067 90.542785 
L 196.507202 86.819261 
L 199.737338 74.32272 
L 202.967474 105.631814 
L 206.197609 88.105432 
L 209.427745 87.40733 
L 212.65788 96.059495 
L 215.888016 77.500661 
L 219.118152 91.601049 
L 222.348287 88.614868 
L 225.578423 76.899047 
L 228.808559 75.032077 
L 232.038694 95.819719 
L 235.26883 86.801238 
L 238.498965 78.125096 
L 241.729101 73.783476 
L 244.959237 76.32437 
L 248.189372 94.050993 
L 251.419508 72.686729 
L 254.649643 82.39258 
L 257.879779 94.780501 
L 261.109915 74.752471 
L 267.570186 64.899141 
L 270.800321 69.745863 
L 274.030457 68.622378 
L 277.260593 62.074577 
L 280.490728 56.481715 
L 283.720864 70.897247 
L 286.950999 66.280433 
L 290.181135 70.941412 
L 293.411271 65.99628 
L 296.641406 69.596865 
L 299.871542 70.666546 
L 303.101678 70.719425 
L 306.331813 71.316436 
L 309.561949 68.512985 
L 312.792084 62.192233 
L 316.02222 44.475102 
L 319.252356 67.268057 
L 322.482491 61.219585 
L 325.712627 71.518454 
L 328.942762 45.489687 
L 332.172898 64.488798 
L 335.403034 44.337951 
L 338.633169 51.555119 
L 341.863305 68.104113 
L 345.09344 74.72879 
L 348.323576 59.117668 
L 351.553712 72.234335 
L 354.783847 53.706787 
L 358.013983 62.483026 
L 361.244119 50.230662 
L 364.474254 69.71951 
L 367.70439 54.48902 
L 370.934525 54.137879 
L 374.164661 69.369585 
L 377.394797 54.851316 
L 380.624932 60.098308 
L 383.855068 67.090848 
L 387.085203 48.656899 
L 390.315339 43.680763 
L 393.545475 56.043345 
L 396.77561 50.035804 
L 400.005746 50.896646 
L 403.235881 46.213719 
L 406.466017 69.557817 
L 409.696153 49.848127 
L 412.926288 71.378421 
L 416.156424 45.198758 
L 419.38656 53.335413 
L 422.616695 60.194307 
L 425.846831 64.213229 
L 429.076966 55.600265 
L 435.537238 48.198636 
L 438.767373 41.497661 
L 441.997509 39.06639 
L 445.227644 45.55267 
L 448.45778 39.724749 
L 451.687916 43.847886 
L 454.918051 56.568016 
L 458.148187 58.463566 
L 461.378322 44.091875 
L 464.608458 49.076499 
L 467.838594 54.881779 
L 471.068729 53.70111 
L 474.298865 50.018512 
L 477.529001 58.958668 
L 480.759136 46.644016 
L 483.989272 46.654074 
L 487.219407 44.541067 
L 490.449543 47.583682 
L 493.679679 43.233256 
L 496.909814 57.623142 
L 500.13995 45.704449 
L 503.370085 35.821201 
L 506.600221 36.628996 
L 509.830357 54.282514 
L 513.060492 64.536623 
L 516.290628 46.445116 
L 519.520763 45.042578 
L 522.750899 51.44247 
L 525.981035 53.116269 
L 529.21117 67.267097 
L 532.441306 47.719342 
L 535.671441 51.649291 
L 538.901577 47.525749 
L 542.131713 56.540746 
L 545.361848 44.172418 
L 548.591984 46.083402 
L 551.82212 52.636661 
L 555.052255 45.058483 
L 558.282391 42.366518 
L 561.512526 59.603615 
L 564.742662 39.368971 
L 567.972798 36.772161 
L 571.202933 48.862281 
L 574.433069 57.220021 
L 577.663204 52.780536 
L 580.89334 50.978133 
L 584.123476 49.661057 
L 587.353611 43.635793 
L 590.583747 46.544313 
L 593.813882 50.711928 
L 597.044018 47.279276 
L 600.274154 35.493927 
L 603.504289 47.44953 
L 606.734425 46.071561 
L 609.964561 29.281818 
L 613.194696 45.674332 
L 616.424832 50.444408 
L 619.654967 37.166851 
L 622.885103 45.212956 
L 626.115239 40.439182 
L 629.345374 47.341827 
L 632.57551 41.146881 
L 635.805645 36.060087 
L 639.035781 45.354728 
L 642.265917 46.69843 
L 645.496052 56.945022 
L 648.726188 56.133273 
L 651.956323 53.209373 
L 655.186459 69.060998 
L 658.416595 59.093113 
L 661.64673 43.10693 
L 664.876866 42.652166 
L 668.107002 39.456048 
L 671.337137 38.627353 
L 674.567273 45.253596 
L 674.567273 45.253596 
" style="fill:none;stroke:#ff7f0e;stroke-linecap:square;stroke-width:1.5;"/>
   </g>
   <g id="patch_3">
    <path d="M 60.68 304 
L 60.68 16.2 
" style="fill:none;stroke:#000000;stroke-linecap:square;stroke-linejoin:miter;stroke-width:0.8;"/>
   </g>
   <g id="patch_4">
    <path d="M 703.8 304 
L 703.8 16.2 
" style="fill:none;stroke:#000000;stroke-linecap:square;stroke-linejoin:miter;stroke-width:0.8;"/>
   </g>
   <g id="patch_5">
    <path d="M 60.68 304 
L 703.8 304 
" style="fill:none;stroke:#000000;stroke-linecap:square;stroke-linejoin:miter;stroke-width:0.8;"/>
   </g>
   <g id="patch_6">
    <path d="M 60.68 16.2 
L 703.8 16.2 
" style="fill:none;stroke:#000000;stroke-linecap:square;stroke-linejoin:miter;stroke-width:0.8;"/>
   </g>
   <g id="legend_1">
    <g id="patch_7">
     <path d="M 466.8375 296.5 
L 693.3 296.5 
Q 696.3 296.5 696.3 293.5 
L 696.3 250.965625 
Q 696.3 247.965625 693.3 247.965625 
L 466.8375 247.965625 
Q 463.8375 247.965625 463.8375 250.965625 
L 463.8375 293.5 
Q 463.8375 296.5 466.8375 296.5 
z
" style="fill:#ffffff;opacity:0.8;stroke:#cccccc;stroke-linejoin:miter;"/>
    </g>
    <g id="line2d_14">
     <path d="M 469.8375 260.113281 
L 499.8375 260.113281 
" style="fill:none;stroke:#1f77b4;stroke-linecap:square;stroke-width:1.5;"/>
    </g>
    <g id="line2d_15"/>
    <g id="text_14">
     <text style="font-family:DejaVu Sans;font-size:15px;font-style:normal;font-weight:normal;text-anchor:start;" transform="rotate(-0, 511.8375, 265.363281)" x="511.8375" y="265.363281">training mean reward</text>
    </g>
    <g id="line2d_16">
     <path d="M 469.8375 282.130469 
L 499.8375 282.130469 
" style="fill:none;stroke:#ff7f0e;stroke-linecap:square;stroke-width:1.5;"/>
    </g>
    <g id="line2d_17"/>
    <g id="text_15">
     <text style="font-family:DejaVu Sans;font-size:15px;font-style:normal;font-weight:normal;text-anchor:start;" transform="rotate(-0, 511.8375, 287.380469)" x="511.8375" y="287.380469">validation mean reward</text>
    </g>
   </g>
  </g>
 </g>
 <defs>
  <clipPath id="p29f6e5605c">
   <rect height="287.8" width="643.12" x="60.68" y="16.2"/>
  </clipPath>
 </defs>
</svg>
