<?xml version="1.0" encoding="utf-8" standalone="no"?>
<!DOCTYPE svg PUBLIC "-//W3C//DTD SVG 1.1//EN"
  "http://www.w3.org/Graphics/SVG/1.1/DTD/svg11.dtd">
<!-- Created with matplotlib (https://matplotlib.org/) -->
<svg height="360pt" version="1.1" viewBox="0 0 720 360" width="720pt" xmlns="http://www.w3.org/2000/svg" xmlns:xlink="http://www.w3.org/1999/xlink">
 <defs>
  <style type="text/css">
*{stroke-linecap:butt;stroke-linejoin:round;}
  </style>
 </defs>
 <g id="figure_1">
  <g id="patch_1">
   <path d="M 0 360 
L 720 360 
L 720 0 
L 0 0 
z
" style="fill:#ffffff;"/>
  </g>
  <g id="axes_1">
   <g id="patch_2">
    <path d="M 74.99 304 
L 703.8 304 
L 703.8 16.2 
L 74.99 16.2 
z
" style="fill:#ffffff;"/>
   </g>
   <g id="matplotlib.axis_1">
    <g id="xtick_1">
     <g id="line2d_1">
      <defs>
       <path d="M 0 0 
L 0 3.5 
" id="m318f9a8f0d" style="stroke:#000000;stroke-width:0.8;"/>
      </defs>
      <g>
       <use style="stroke:#000000;stroke-width:0.8;" x="100.414011" xlink:href="#m318f9a8f0d" y="304"/>
      </g>
     </g>
     <g id="text_1">
      <text style="font-family:DejaVu Sans;font-size:15px;font-style:normal;font-weight:normal;text-anchor:middle;" transform="rotate(-0, 100.414011, 322.397656)" x="100.414011" y="322.397656">0</text>
     </g>
    </g>
    <g id="xtick_2">
     <g id="line2d_2">
      <g>
       <use style="stroke:#000000;stroke-width:0.8;" x="226.744498" xlink:href="#m318f9a8f0d" y="304"/>
      </g>
     </g>
     <g id="text_2">
      <text style="font-family:DejaVu Sans;font-size:15px;font-style:normal;font-weight:normal;text-anchor:middle;" transform="rotate(-0, 226.744498, 322.397656)" x="226.744498" y="322.397656">20000</text>
     </g>
    </g>
    <g id="xtick_3">
     <g id="line2d_3">
      <g>
       <use style="stroke:#000000;stroke-width:0.8;" x="353.074985" xlink:href="#m318f9a8f0d" y="304"/>
      </g>
     </g>
     <g id="text_3">
      <text style="font-family:DejaVu Sans;font-size:15px;font-style:normal;font-weight:normal;text-anchor:middle;" transform="rotate(-0, 353.074985, 322.397656)" x="353.074985" y="322.397656">40000</text>
     </g>
    </g>
    <g id="xtick_4">
     <g id="line2d_4">
      <g>
       <use style="stroke:#000000;stroke-width:0.8;" x="479.405472" xlink:href="#m318f9a8f0d" y="304"/>
      </g>
     </g>
     <g id="text_4">
      <text style="font-family:DejaVu Sans;font-size:15px;font-style:normal;font-weight:normal;text-anchor:middle;" transform="rotate(-0, 479.405472, 322.397656)" x="479.405472" y="322.397656">60000</text>
     </g>
    </g>
    <g id="xtick_5">
     <g id="line2d_5">
      <g>
       <use style="stroke:#000000;stroke-width:0.8;" x="605.735959" xlink:href="#m318f9a8f0d" y="304"/>
      </g>
     </g>
     <g id="text_5">
      <text style="font-family:DejaVu Sans;font-size:15px;font-style:normal;font-weight:normal;text-anchor:middle;" transform="rotate(-0, 605.735959, 322.397656)" x="605.735959" y="322.397656">80000</text>
     </g>
    </g>
    <g id="text_6">
     <text style="font-family:DejaVu Sans;font-size:15px;font-style:normal;font-weight:normal;text-anchor:middle;" transform="rotate(-0, 389.395, 340.914844)" x="389.395" y="340.914844">Episodes</text>
    </g>
   </g>
   <g id="matplotlib.axis_2">
    <g id="ytick_1">
     <g id="line2d_6">
      <defs>
       <path d="M 0 0 
L -3.5 0 
" id="mb8fa27807d" style="stroke:#000000;stroke-width:0.8;"/>
      </defs>
      <g>
       <use style="stroke:#000000;stroke-width:0.8;" x="74.99" xlink:href="#mb8fa27807d" y="290.918182"/>
      </g>
     </g>
     <g id="text_7">
      <text style="font-family:DejaVu Sans;font-size:15px;font-style:normal;font-weight:normal;text-anchor:end;" transform="rotate(-0, 67.99, 296.61701)" x="67.99" y="296.61701">0.00</text>
     </g>
    </g>
    <g id="ytick_2">
     <g id="line2d_7">
      <g>
       <use style="stroke:#000000;stroke-width:0.8;" x="74.99" xlink:href="#mb8fa27807d" y="247.312121"/>
      </g>
     </g>
     <g id="text_8">
      <text style="font-family:DejaVu Sans;font-size:15px;font-style:normal;font-weight:normal;text-anchor:end;" transform="rotate(-0, 67.99, 253.010949)" x="67.99" y="253.010949">0.01</text>
     </g>
    </g>
    <g id="ytick_3">
     <g id="line2d_8">
      <g>
       <use style="stroke:#000000;stroke-width:0.8;" x="74.99" xlink:href="#mb8fa27807d" y="203.706061"/>
      </g>
     </g>
     <g id="text_9">
      <text style="font-family:DejaVu Sans;font-size:15px;font-style:normal;font-weight:normal;text-anchor:end;" transform="rotate(-0, 67.99, 209.404889)" x="67.99" y="209.404889">0.02</text>
     </g>
    </g>
    <g id="ytick_4">
     <g id="line2d_9">
      <g>
       <use style="stroke:#000000;stroke-width:0.8;" x="74.99" xlink:href="#mb8fa27807d" y="160.1"/>
      </g>
     </g>
     <g id="text_10">
      <text style="font-family:DejaVu Sans;font-size:15px;font-style:normal;font-weight:normal;text-anchor:end;" transform="rotate(-0, 67.99, 165.798828)" x="67.99" y="165.798828">0.03</text>
     </g>
    </g>
    <g id="ytick_5">
     <g id="line2d_10">
      <g>
       <use style="stroke:#000000;stroke-width:0.8;" x="74.99" xlink:href="#mb8fa27807d" y="116.493939"/>
      </g>
     </g>
     <g id="text_11">
      <text style="font-family:DejaVu Sans;font-size:15px;font-style:normal;font-weight:normal;text-anchor:end;" transform="rotate(-0, 67.99, 122.192768)" x="67.99" y="122.192768">0.04</text>
     </g>
    </g>
    <g id="ytick_6">
     <g id="line2d_11">
      <g>
       <use style="stroke:#000000;stroke-width:0.8;" x="74.99" xlink:href="#mb8fa27807d" y="72.887879"/>
      </g>
     </g>
     <g id="text_12">
      <text style="font-family:DejaVu Sans;font-size:15px;font-style:normal;font-weight:normal;text-anchor:end;" transform="rotate(-0, 67.99, 78.586707)" x="67.99" y="78.586707">0.05</text>
     </g>
    </g>
    <g id="ytick_7">
     <g id="line2d_12">
      <g>
       <use style="stroke:#000000;stroke-width:0.8;" x="74.99" xlink:href="#mb8fa27807d" y="29.281818"/>
      </g>
     </g>
     <g id="text_13">
      <text style="font-family:DejaVu Sans;font-size:15px;font-style:normal;font-weight:normal;text-anchor:end;" transform="rotate(-0, 67.99, 34.980646)" x="67.99" y="34.980646">0.06</text>
     </g>
    </g>
    <g id="text_14">
     <text style="font-family:DejaVu Sans;font-size:15px;font-style:normal;font-weight:normal;text-anchor:middle;" transform="rotate(-90, 27.472031, 160.1)" x="27.472031" y="160.1">Success Rate</text>
    </g>
   </g>
   <g id="line2d_13">
    <path clip-path="url(#p2b2ad7e8f6)" d="M 103.572273 290.918182 
L 236.219284 290.918182 
L 239.377546 247.312121 
L 242.535809 290.918182 
L 289.909741 290.918182 
L 293.068004 247.312121 
L 299.384528 247.312121 
L 302.54279 290.918182 
L 340.441936 290.918182 
L 343.600198 203.706061 
L 346.758461 290.918182 
L 353.074985 290.918182 
L 356.233247 247.312121 
L 359.391509 290.918182 
L 387.815869 290.918182 
L 390.974131 247.312121 
L 394.132393 247.312121 
L 397.290655 290.918182 
L 406.765442 290.918182 
L 409.923704 247.312121 
L 413.081966 247.312121 
L 416.240229 290.918182 
L 419.398491 203.706061 
L 425.715015 290.918182 
L 428.873277 247.312121 
L 432.031539 247.312121 
L 435.189802 203.706061 
L 438.348064 290.918182 
L 441.506326 247.312121 
L 444.664588 290.918182 
L 447.82285 290.918182 
L 454.139375 203.706061 
L 457.297637 290.918182 
L 463.614161 290.918182 
L 466.772423 247.312121 
L 469.930686 290.918182 
L 473.088948 203.706061 
L 476.24721 247.312121 
L 479.405472 247.312121 
L 482.563734 290.918182 
L 485.721996 247.312121 
L 492.038521 247.312121 
L 495.196783 290.918182 
L 498.355045 290.918182 
L 501.513307 247.312121 
L 514.146356 247.312121 
L 517.304618 160.1 
L 520.46288 290.918182 
L 523.621143 247.312121 
L 529.937667 247.312121 
L 533.095929 203.706061 
L 536.254191 247.312121 
L 539.412454 247.312121 
L 542.570716 290.918182 
L 548.88724 290.918182 
L 552.045502 160.1 
L 555.203764 203.706061 
L 558.362027 203.706061 
L 561.520289 290.918182 
L 564.678551 290.918182 
L 567.836813 247.312121 
L 570.995075 290.918182 
L 574.153338 160.1 
L 577.3116 247.312121 
L 580.469862 290.918182 
L 593.102911 290.918182 
L 596.261173 247.312121 
L 599.419435 290.918182 
L 602.577697 290.918182 
L 605.735959 247.312121 
L 608.894221 290.918182 
L 615.210746 290.918182 
L 618.369008 247.312121 
L 621.52727 290.918182 
L 624.685532 247.312121 
L 634.160319 247.312121 
L 637.318581 290.918182 
L 640.476843 247.312121 
L 643.635105 247.312121 
L 646.793368 290.918182 
L 649.95163 290.918182 
L 653.109892 203.706061 
L 656.268154 290.918182 
L 662.584679 290.918182 
L 665.742941 247.312121 
L 675.217727 247.312121 
L 675.217727 247.312121 
" style="fill:none;stroke:#1f77b4;stroke-linecap:square;stroke-width:1.5;"/>
   </g>
   <g id="line2d_14">
    <path clip-path="url(#p2b2ad7e8f6)" d="M 103.572273 290.918182 
L 274.11843 290.918182 
L 277.276693 247.312121 
L 280.434955 290.918182 
L 283.593217 247.312121 
L 286.751479 290.918182 
L 346.758461 290.918182 
L 349.916723 247.312121 
L 353.074985 290.918182 
L 359.391509 290.918182 
L 362.549771 203.706061 
L 365.708034 290.918182 
L 368.866296 116.493939 
L 372.024558 247.312121 
L 375.18282 160.1 
L 378.341082 247.312121 
L 381.499345 290.918182 
L 394.132393 290.918182 
L 397.290655 247.312121 
L 400.448918 247.312121 
L 403.60718 290.918182 
L 406.765442 247.312121 
L 413.081966 247.312121 
L 416.240229 290.918182 
L 419.398491 290.918182 
L 422.556753 203.706061 
L 425.715015 290.918182 
L 428.873277 247.312121 
L 432.031539 290.918182 
L 435.189802 290.918182 
L 438.348064 116.493939 
L 441.506326 247.312121 
L 444.664588 160.1 
L 447.82285 290.918182 
L 450.981113 290.918182 
L 454.139375 203.706061 
L 460.455899 290.918182 
L 463.614161 247.312121 
L 466.772423 290.918182 
L 469.930686 290.918182 
L 473.088948 203.706061 
L 476.24721 290.918182 
L 482.563734 290.918182 
L 485.721996 247.312121 
L 488.880259 247.312121 
L 492.038521 160.1 
L 495.196783 290.918182 
L 498.355045 290.918182 
L 507.829832 160.1 
L 510.988094 290.918182 
L 514.146356 203.706061 
L 517.304618 160.1 
L 520.46288 247.312121 
L 523.621143 247.312121 
L 526.779405 160.1 
L 529.937667 247.312121 
L 533.095929 290.918182 
L 539.412454 203.706061 
L 542.570716 203.706061 
L 548.88724 116.493939 
L 552.045502 247.312121 
L 555.203764 247.312121 
L 558.362027 203.706061 
L 561.520289 247.312121 
L 564.678551 203.706061 
L 570.995075 203.706061 
L 574.153338 247.312121 
L 577.3116 247.312121 
L 580.469862 290.918182 
L 593.102911 290.918182 
L 596.261173 247.312121 
L 599.419435 247.312121 
L 602.577697 160.1 
L 605.735959 203.706061 
L 608.894221 203.706061 
L 612.052484 247.312121 
L 615.210746 203.706061 
L 618.369008 290.918182 
L 624.685532 290.918182 
L 627.843795 203.706061 
L 631.002057 203.706061 
L 634.160319 290.918182 
L 637.318581 116.493939 
L 640.476843 290.918182 
L 643.635105 203.706061 
L 646.793368 290.918182 
L 649.95163 290.918182 
L 653.109892 116.493939 
L 656.268154 290.918182 
L 659.426416 203.706061 
L 662.584679 290.918182 
L 665.742941 290.918182 
L 668.901203 203.706061 
L 672.059465 29.281818 
L 675.217727 203.706061 
L 675.217727 203.706061 
" style="fill:none;stroke:#ff7f0e;stroke-linecap:square;stroke-width:1.5;"/>
   </g>
   <g id="patch_3">
    <path d="M 74.99 304 
L 74.99 16.2 
" style="fill:none;stroke:#000000;stroke-linecap:square;stroke-linejoin:miter;stroke-width:0.8;"/>
   </g>
   <g id="patch_4">
    <path d="M 703.8 304 
L 703.8 16.2 
" style="fill:none;stroke:#000000;stroke-linecap:square;stroke-linejoin:miter;stroke-width:0.8;"/>
   </g>
   <g id="patch_5">
    <path d="M 74.99 304 
L 703.8 304 
" style="fill:none;stroke:#000000;stroke-linecap:square;stroke-linejoin:miter;stroke-width:0.8;"/>
   </g>
   <g id="patch_6">
    <path d="M 74.99 16.2 
L 703.8 16.2 
" style="fill:none;stroke:#000000;stroke-linecap:square;stroke-linejoin:miter;stroke-width:0.8;"/>
   </g>
   <g id="legend_1">
    <g id="patch_7">
     <path d="M 85.49 72.234375 
L 306.018125 72.234375 
Q 309.018125 72.234375 309.018125 69.234375 
L 309.018125 26.7 
Q 309.018125 23.7 306.018125 23.7 
L 85.49 23.7 
Q 82.49 23.7 82.49 26.7 
L 82.49 69.234375 
Q 82.49 72.234375 85.49 72.234375 
z
" style="fill:#ffffff;opacity:0.8;stroke:#cccccc;stroke-linejoin:miter;"/>
    </g>
    <g id="line2d_15">
     <path d="M 88.49 35.847656 
L 118.49 35.847656 
" style="fill:none;stroke:#1f77b4;stroke-linecap:square;stroke-width:1.5;"/>
    </g>
    <g id="line2d_16"/>
    <g id="text_15">
     <text style="font-family:DejaVu Sans;font-size:15px;font-style:normal;font-weight:normal;text-anchor:start;" transform="rotate(-0, 130.49, 41.097656)" x="130.49" y="41.097656">training success rate</text>
    </g>
    <g id="line2d_17">
     <path d="M 88.49 57.864844 
L 118.49 57.864844 
" style="fill:none;stroke:#ff7f0e;stroke-linecap:square;stroke-width:1.5;"/>
    </g>
    <g id="line2d_18"/>
    <g id="text_16">
     <text style="font-family:DejaVu Sans;font-size:15px;font-style:normal;font-weight:normal;text-anchor:start;" transform="rotate(-0, 130.49, 63.114844)" x="130.49" y="63.114844">validation success rate</text>
    </g>
   </g>
  </g>
 </g>
 <defs>
  <clipPath id="p2b2ad7e8f6">
   <rect height="287.8" width="628.81" x="74.99" y="16.2"/>
  </clipPath>
 </defs>
</svg>
