<?xml version="1.0" encoding="utf-8" standalone="no"?>
<!DOCTYPE svg PUBLIC "-//W3C//DTD SVG 1.1//EN"
  "http://www.w3.org/Graphics/SVG/1.1/DTD/svg11.dtd">
<!-- Created with matplotlib (https://matplotlib.org/) -->
<svg height="360pt" version="1.1" viewBox="0 0 720 360" width="720pt" xmlns="http://www.w3.org/2000/svg" xmlns:xlink="http://www.w3.org/1999/xlink">
 <defs>
  <style type="text/css">
*{stroke-linecap:butt;stroke-linejoin:round;}
  </style>
 </defs>
 <g id="figure_1">
  <g id="patch_1">
   <path d="M 0 360 
L 720 360 
L 720 0 
L 0 0 
z
" style="fill:#ffffff;"/>
  </g>
  <g id="axes_1">
   <g id="patch_2">
    <path d="M 65.45 304 
L 703.8 304 
L 703.8 21.652853 
L 65.45 21.652853 
z
" style="fill:#ffffff;"/>
   </g>
   <g id="matplotlib.axis_1">
    <g id="xtick_1">
     <g id="line2d_1">
      <defs>
       <path d="M 0 0 
L 0 3.5 
" id="m7380358b8c" style="stroke:#000000;stroke-width:0.8;"/>
      </defs>
      <g>
       <use style="stroke:#000000;stroke-width:0.8;" x="94.025941" xlink:href="#m7380358b8c" y="304"/>
      </g>
     </g>
     <g id="text_1">
      <text style="font-family:DejaVu Sans;font-size:15px;font-style:normal;font-weight:normal;text-anchor:middle;" transform="rotate(-0, 94.025941, 322.397656)" x="94.025941" y="322.397656">0</text>
     </g>
    </g>
    <g id="xtick_2">
     <g id="line2d_2">
      <g>
       <use style="stroke:#000000;stroke-width:0.8;" x="182.0196" xlink:href="#m7380358b8c" y="304"/>
      </g>
     </g>
     <g id="text_2">
      <text style="font-family:DejaVu Sans;font-size:15px;font-style:normal;font-weight:normal;text-anchor:middle;" transform="rotate(-0, 182.0196, 322.397656)" x="182.0196" y="322.397656">100000</text>
     </g>
    </g>
    <g id="xtick_3">
     <g id="line2d_3">
      <g>
       <use style="stroke:#000000;stroke-width:0.8;" x="270.013259" xlink:href="#m7380358b8c" y="304"/>
      </g>
     </g>
     <g id="text_3">
      <text style="font-family:DejaVu Sans;font-size:15px;font-style:normal;font-weight:normal;text-anchor:middle;" transform="rotate(-0, 270.013259, 322.397656)" x="270.013259" y="322.397656">200000</text>
     </g>
    </g>
    <g id="xtick_4">
     <g id="line2d_4">
      <g>
       <use style="stroke:#000000;stroke-width:0.8;" x="358.006918" xlink:href="#m7380358b8c" y="304"/>
      </g>
     </g>
     <g id="text_4">
      <text style="font-family:DejaVu Sans;font-size:15px;font-style:normal;font-weight:normal;text-anchor:middle;" transform="rotate(-0, 358.006918, 322.397656)" x="358.006918" y="322.397656">300000</text>
     </g>
    </g>
    <g id="xtick_5">
     <g id="line2d_5">
      <g>
       <use style="stroke:#000000;stroke-width:0.8;" x="446.000577" xlink:href="#m7380358b8c" y="304"/>
      </g>
     </g>
     <g id="text_5">
      <text style="font-family:DejaVu Sans;font-size:15px;font-style:normal;font-weight:normal;text-anchor:middle;" transform="rotate(-0, 446.000577, 322.397656)" x="446.000577" y="322.397656">400000</text>
     </g>
    </g>
    <g id="xtick_6">
     <g id="line2d_6">
      <g>
       <use style="stroke:#000000;stroke-width:0.8;" x="533.994236" xlink:href="#m7380358b8c" y="304"/>
      </g>
     </g>
     <g id="text_6">
      <text style="font-family:DejaVu Sans;font-size:15px;font-style:normal;font-weight:normal;text-anchor:middle;" transform="rotate(-0, 533.994236, 322.397656)" x="533.994236" y="322.397656">500000</text>
     </g>
    </g>
    <g id="xtick_7">
     <g id="line2d_7">
      <g>
       <use style="stroke:#000000;stroke-width:0.8;" x="621.987895" xlink:href="#m7380358b8c" y="304"/>
      </g>
     </g>
     <g id="text_7">
      <text style="font-family:DejaVu Sans;font-size:15px;font-style:normal;font-weight:normal;text-anchor:middle;" transform="rotate(-0, 621.987895, 322.397656)" x="621.987895" y="322.397656">600000</text>
     </g>
    </g>
    <g id="text_8">
     <text style="font-family:DejaVu Sans;font-size:15px;font-style:normal;font-weight:normal;text-anchor:middle;" transform="rotate(-0, 384.625, 340.914844)" x="384.625" y="340.914844">Episodes</text>
    </g>
   </g>
   <g id="matplotlib.axis_2">
    <g id="ytick_1">
     <g id="line2d_8">
      <defs>
       <path d="M 0 0 
L -3.5 0 
" id="mddbbf704a9" style="stroke:#000000;stroke-width:0.8;"/>
      </defs>
      <g>
       <use style="stroke:#000000;stroke-width:0.8;" x="65.45" xlink:href="#mddbbf704a9" y="293.607216"/>
      </g>
     </g>
     <g id="text_9">
      <text style="font-family:DejaVu Sans;font-size:15px;font-style:normal;font-weight:normal;text-anchor:end;" transform="rotate(-0, 58.45, 299.306044)" x="58.45" y="299.306044">0.0</text>
     </g>
    </g>
    <g id="ytick_2">
     <g id="line2d_9">
      <g>
       <use style="stroke:#000000;stroke-width:0.8;" x="65.45" xlink:href="#mddbbf704a9" y="254.801285"/>
      </g>
     </g>
     <g id="text_10">
      <text style="font-family:DejaVu Sans;font-size:15px;font-style:normal;font-weight:normal;text-anchor:end;" transform="rotate(-0, 58.45, 260.500114)" x="58.45" y="260.500114">0.2</text>
     </g>
    </g>
    <g id="ytick_3">
     <g id="line2d_10">
      <g>
       <use style="stroke:#000000;stroke-width:0.8;" x="65.45" xlink:href="#mddbbf704a9" y="215.995355"/>
      </g>
     </g>
     <g id="text_11">
      <text style="font-family:DejaVu Sans;font-size:15px;font-style:normal;font-weight:normal;text-anchor:end;" transform="rotate(-0, 58.45, 221.694183)" x="58.45" y="221.694183">0.4</text>
     </g>
    </g>
    <g id="ytick_4">
     <g id="line2d_11">
      <g>
       <use style="stroke:#000000;stroke-width:0.8;" x="65.45" xlink:href="#mddbbf704a9" y="177.189425"/>
      </g>
     </g>
     <g id="text_12">
      <text style="font-family:DejaVu Sans;font-size:15px;font-style:normal;font-weight:normal;text-anchor:end;" transform="rotate(-0, 58.45, 182.888253)" x="58.45" y="182.888253">0.6</text>
     </g>
    </g>
    <g id="ytick_5">
     <g id="line2d_12">
      <g>
       <use style="stroke:#000000;stroke-width:0.8;" x="65.45" xlink:href="#mddbbf704a9" y="138.383494"/>
      </g>
     </g>
     <g id="text_13">
      <text style="font-family:DejaVu Sans;font-size:15px;font-style:normal;font-weight:normal;text-anchor:end;" transform="rotate(-0, 58.45, 144.082322)" x="58.45" y="144.082322">0.8</text>
     </g>
    </g>
    <g id="ytick_6">
     <g id="line2d_13">
      <g>
       <use style="stroke:#000000;stroke-width:0.8;" x="65.45" xlink:href="#mddbbf704a9" y="99.577564"/>
      </g>
     </g>
     <g id="text_14">
      <text style="font-family:DejaVu Sans;font-size:15px;font-style:normal;font-weight:normal;text-anchor:end;" transform="rotate(-0, 58.45, 105.276392)" x="58.45" y="105.276392">1.0</text>
     </g>
    </g>
    <g id="ytick_7">
     <g id="line2d_14">
      <g>
       <use style="stroke:#000000;stroke-width:0.8;" x="65.45" xlink:href="#mddbbf704a9" y="60.771634"/>
      </g>
     </g>
     <g id="text_15">
      <text style="font-family:DejaVu Sans;font-size:15px;font-style:normal;font-weight:normal;text-anchor:end;" transform="rotate(-0, 58.45, 66.470462)" x="58.45" y="66.470462">1.2</text>
     </g>
    </g>
    <g id="ytick_8">
     <g id="line2d_15">
      <g>
       <use style="stroke:#000000;stroke-width:0.8;" x="65.45" xlink:href="#mddbbf704a9" y="21.965703"/>
      </g>
     </g>
     <g id="text_16">
      <text style="font-family:DejaVu Sans;font-size:15px;font-style:normal;font-weight:normal;text-anchor:end;" transform="rotate(-0, 58.45, 27.664531)" x="58.45" y="27.664531">1.4</text>
     </g>
    </g>
    <g id="text_17">
     <text style="font-family:DejaVu Sans;font-size:15px;font-style:normal;font-weight:normal;text-anchor:middle;" transform="rotate(-90, 27.475781, 162.826427)" x="27.475781" y="162.826427">Critic Loss</text>
    </g>
   </g>
   <g id="line2d_16">
    <path clip-path="url(#pa78f5929f9)" d="M 94.465909 281.99024 
L 94.905877 282.156523 
L 95.345846 276.959181 
L 95.785814 275.241664 
L 96.225782 275.460146 
L 96.665751 273.528039 
L 97.105719 273.635993 
L 97.545687 271.107988 
L 97.985655 276.937127 
L 98.425624 272.960848 
L 98.865592 276.769861 
L 99.30556 275.51148 
L 99.745529 277.130496 
L 100.185497 275.664009 
L 100.625465 279.642623 
L 101.065434 281.660855 
L 101.505402 280.016664 
L 101.94537 277.063487 
L 102.385338 283.379115 
L 102.825307 280.728225 
L 103.265275 283.076845 
L 103.705243 281.956369 
L 104.145212 283.916126 
L 104.58518 283.980761 
L 105.025148 282.660203 
L 105.465116 281.958494 
L 105.905085 283.906942 
L 106.345053 282.256572 
L 106.785021 282.251777 
L 107.22499 284.681368 
L 107.664958 283.65413 
L 108.104926 284.355664 
L 108.544895 286.383559 
L 109.424831 284.61404 
L 109.864799 285.023184 
L 110.304768 284.063428 
L 110.744736 284.404076 
L 111.184704 286.498502 
L 111.624673 286.011203 
L 112.064641 285.734379 
L 112.504609 286.130253 
L 112.944578 287.155879 
L 113.384546 285.729511 
L 113.824514 285.742646 
L 114.264482 287.974206 
L 114.704451 288.751204 
L 115.144419 286.21279 
L 115.584387 287.999605 
L 116.024356 287.824787 
L 116.464324 288.466567 
L 117.34426 287.748124 
L 117.784229 289.520859 
L 118.224197 288.941799 
L 118.664165 288.721027 
L 119.104134 288.269726 
L 119.544102 289.708381 
L 119.98407 289.105934 
L 120.424039 289.135464 
L 120.864007 290.045665 
L 121.303975 288.654453 
L 121.743943 289.829344 
L 122.183912 289.264172 
L 122.62388 289.469665 
L 123.063848 290.735855 
L 123.503817 289.014306 
L 123.943785 289.748978 
L 124.383753 290.225052 
L 124.823721 289.678184 
L 125.26369 290.600355 
L 125.703658 290.705869 
L 126.143626 291.018953 
L 127.023563 289.89231 
L 127.463531 290.315681 
L 127.9035 289.635614 
L 128.343468 291.166039 
L 128.783436 290.648724 
L 129.223404 290.479025 
L 130.103341 290.438564 
L 130.543309 289.391864 
L 130.983278 290.886798 
L 131.423246 289.477764 
L 131.863214 290.419553 
L 132.303183 290.19885 
L 132.743151 289.798015 
L 133.183119 289.82548 
L 133.623087 290.517888 
L 134.063056 289.877795 
L 134.503024 289.766645 
L 134.942992 290.842119 
L 135.382961 289.50811 
L 135.822929 289.477693 
L 136.262897 290.541715 
L 136.702865 290.589071 
L 137.142834 290.041247 
L 137.582802 290.41348 
L 138.02277 290.968156 
L 138.462739 290.419722 
L 138.902707 290.873842 
L 139.342675 290.355142 
L 139.782644 290.886317 
L 140.222612 290.563497 
L 140.66258 290.753763 
L 141.542517 289.765723 
L 141.982485 290.358952 
L 142.422453 289.866667 
L 142.862422 290.003187 
L 143.30239 290.576556 
L 143.742358 289.996213 
L 144.182326 290.221733 
L 145.062263 290.094491 
L 145.9422 289.348585 
L 146.382168 290.169255 
L 146.822136 289.891064 
L 147.262105 290.746736 
L 147.702073 288.824117 
L 148.142041 290.457144 
L 148.582009 289.320995 
L 149.021978 289.363656 
L 149.461946 290.107082 
L 149.901914 289.436272 
L 150.341883 289.885962 
L 150.781851 289.379578 
L 151.221819 289.54228 
L 151.661788 289.401041 
L 152.101756 289.774037 
L 152.541724 289.423414 
L 152.981692 288.02711 
L 153.421661 289.88941 
L 153.861629 288.905926 
L 154.741566 289.211993 
L 155.181534 288.464976 
L 155.621502 289.208996 
L 156.06147 289.007366 
L 156.501439 288.935334 
L 157.381375 289.806071 
L 157.821344 288.675765 
L 158.261312 288.620943 
L 158.70128 288.017557 
L 159.581217 289.674222 
L 160.021185 289.730404 
L 160.461153 289.23119 
L 160.901122 289.203676 
L 161.34109 289.95452 
L 161.781058 289.32463 
L 162.221027 289.466607 
L 162.660995 289.070037 
L 163.100963 289.622717 
L 163.540931 289.684702 
L 163.9809 290.21387 
L 164.420868 289.15154 
L 164.860836 288.554396 
L 165.300805 288.202143 
L 165.740773 288.54537 
L 166.180741 287.927014 
L 166.62071 289.304468 
L 167.060678 286.854249 
L 167.500646 288.582412 
L 167.940614 287.804091 
L 168.380583 288.08273 
L 168.820551 287.965092 
L 169.260519 289.05721 
L 169.700488 288.400071 
L 170.140456 288.766452 
L 170.580424 287.407131 
L 171.020393 288.626403 
L 171.460361 287.720597 
L 171.900329 288.188354 
L 172.340297 288.301199 
L 172.780266 287.704625 
L 173.220234 287.795312 
L 173.660202 287.570061 
L 174.100171 285.425977 
L 174.540139 286.161431 
L 174.980107 287.610103 
L 175.420075 286.91012 
L 175.860044 286.817022 
L 176.300012 285.583999 
L 176.73998 287.55435 
L 177.179949 286.44887 
L 177.619917 288.016636 
L 178.059885 287.797457 
L 178.499854 287.796206 
L 179.37979 287.332109 
L 179.819758 288.300016 
L 180.259727 287.336064 
L 180.699695 286.778538 
L 181.139663 287.490198 
L 181.579632 287.395785 
L 182.0196 287.7934 
L 182.459568 287.538556 
L 182.899536 287.974725 
L 183.339505 286.222451 
L 183.779473 286.027977 
L 184.219441 286.271589 
L 184.65941 286.161613 
L 185.099378 286.848734 
L 185.979315 284.709253 
L 186.419283 287.55784 
L 186.859251 287.289701 
L 187.299219 285.77417 
L 187.739188 286.180045 
L 188.179156 285.923499 
L 188.619124 284.904914 
L 189.059093 286.679287 
L 189.499061 286.964022 
L 189.939029 285.033499 
L 190.378998 287.606866 
L 190.818966 287.224079 
L 191.258934 288.486542 
L 191.698902 287.125037 
L 192.138871 286.968272 
L 192.578839 287.494883 
L 193.018807 287.248508 
L 193.458776 286.271794 
L 193.898744 287.594955 
L 194.338712 286.562165 
L 194.77868 287.400958 
L 195.218649 286.816336 
L 195.658617 285.964595 
L 196.098585 287.114322 
L 196.538554 284.049852 
L 196.978522 286.654148 
L 197.41849 287.731907 
L 197.858459 285.525138 
L 198.298427 286.727272 
L 198.738395 286.657656 
L 199.178363 288.646362 
L 199.618332 286.5373 
L 200.0583 288.920086 
L 200.498268 285.661035 
L 200.938237 286.251665 
L 201.378205 286.086964 
L 201.818173 285.29031 
L 202.258141 286.321077 
L 202.69811 286.856312 
L 203.138078 286.051527 
L 203.578046 286.413272 
L 204.018015 286.185942 
L 204.457983 287.063376 
L 204.897951 285.640257 
L 205.33792 285.642553 
L 205.777888 287.00096 
L 206.217856 285.628647 
L 206.657824 286.854329 
L 207.097793 283.727257 
L 207.537761 286.984051 
L 207.977729 286.83979 
L 208.417698 286.301747 
L 209.297634 286.209276 
L 209.737603 284.823308 
L 210.177571 287.418891 
L 210.617539 287.750402 
L 211.057507 285.907203 
L 211.497476 286.807287 
L 211.937444 284.966492 
L 212.377412 286.838444 
L 212.817381 287.223493 
L 213.257349 286.92234 
L 213.697317 287.5026 
L 214.137285 284.340212 
L 214.577254 287.693336 
L 215.017222 285.397696 
L 215.897159 287.214081 
L 216.337127 286.87235 
L 216.777095 286.060422 
L 217.217064 287.723788 
L 217.657032 286.600805 
L 218.097 286.350658 
L 218.536968 287.544061 
L 218.976937 287.528948 
L 219.416905 286.740381 
L 219.856873 288.144254 
L 220.73681 285.228663 
L 221.176778 286.946518 
L 221.616747 287.38058 
L 222.056715 281.609263 
L 222.496683 285.038025 
L 222.936651 286.403518 
L 223.37662 285.035509 
L 223.816588 285.6044 
L 224.256556 284.356922 
L 224.696525 286.609191 
L 225.136493 286.155124 
L 225.576461 287.264451 
L 226.016429 285.500909 
L 226.456398 284.740185 
L 226.896366 286.71196 
L 227.336334 286.053766 
L 227.776303 286.820741 
L 228.216271 285.892106 
L 229.096208 285.773408 
L 229.536176 287.00507 
L 229.976144 286.468249 
L 230.416112 286.361205 
L 230.856081 286.775252 
L 231.296049 286.374791 
L 231.736017 285.371055 
L 232.175986 285.248169 
L 232.615954 285.897002 
L 233.055922 285.002569 
L 233.49589 285.960272 
L 233.935859 282.360659 
L 234.375827 285.110234 
L 234.815795 285.13915 
L 235.255764 284.880884 
L 235.695732 282.011814 
L 236.1357 286.073943 
L 236.575669 285.983633 
L 237.015637 282.822896 
L 237.455605 285.971306 
L 238.335542 285.777393 
L 238.77551 284.906106 
L 239.215478 284.392288 
L 239.655447 281.898768 
L 240.095415 286.791416 
L 240.535383 282.046163 
L 240.975352 279.77507 
L 241.41532 286.276719 
L 241.855288 284.520194 
L 242.295256 285.512998 
L 242.735225 280.957818 
L 243.175193 283.604734 
L 243.615161 282.455323 
L 244.05513 283.836955 
L 244.495098 281.260042 
L 244.935066 284.551699 
L 245.375034 283.68709 
L 245.815003 285.295538 
L 246.254971 284.401082 
L 246.694939 284.250474 
L 247.134908 286.888348 
L 247.574876 285.404084 
L 248.014844 281.52519 
L 248.454813 283.41124 
L 248.894781 285.790171 
L 249.334749 283.741053 
L 249.774717 283.496411 
L 250.214686 282.453244 
L 250.654654 285.70186 
L 251.534591 283.906024 
L 251.974559 286.779441 
L 252.414527 282.98094 
L 252.854495 284.866901 
L 253.294464 281.256762 
L 253.734432 284.402763 
L 254.1744 280.323572 
L 254.614369 282.087752 
L 255.054337 279.205235 
L 255.494305 279.829286 
L 255.934274 280.698153 
L 256.374242 284.256898 
L 256.81421 283.052926 
L 257.254178 281.203856 
L 257.694147 284.23113 
L 258.134115 283.707903 
L 258.574083 284.483052 
L 259.014052 281.431773 
L 259.45402 283.209712 
L 259.893988 279.956685 
L 260.773925 285.123225 
L 261.213893 284.092521 
L 261.653861 283.945646 
L 262.09383 282.245562 
L 262.533798 282.161024 
L 262.973766 280.510691 
L 263.413735 280.834863 
L 263.853703 284.039861 
L 264.293671 281.743035 
L 264.733639 283.281154 
L 265.173608 284.119491 
L 265.613576 281.758077 
L 266.053544 281.333186 
L 266.493513 282.477034 
L 266.933481 281.583282 
L 267.373449 284.285661 
L 267.813418 283.542573 
L 268.253386 282.507743 
L 268.693354 283.982886 
L 269.133322 272.604651 
L 269.573291 279.370102 
L 270.013259 278.33612 
L 270.453227 285.42362 
L 270.893196 279.05218 
L 271.333164 277.050331 
L 271.773132 281.740683 
L 272.2131 279.300463 
L 272.653069 281.874573 
L 273.093037 278.533832 
L 273.533005 283.214342 
L 274.412942 277.467952 
L 275.292879 280.775634 
L 275.732847 281.236208 
L 276.612783 276.284397 
L 277.052752 278.812128 
L 277.49272 283.789995 
L 278.372657 277.45833 
L 278.812625 280.326886 
L 279.252593 282.291307 
L 279.692562 280.07513 
L 280.13253 279.331645 
L 280.572498 278.95548 
L 281.012466 279.126547 
L 281.452435 278.645485 
L 281.892403 281.759303 
L 282.332371 275.388639 
L 282.77234 279.140897 
L 283.212308 284.765938 
L 284.092244 278.515307 
L 284.532213 281.285941 
L 284.972181 277.453731 
L 285.412149 276.658319 
L 285.852118 276.65382 
L 286.292086 275.289275 
L 286.732054 280.814053 
L 287.172023 277.09669 
L 287.611991 275.64109 
L 288.051959 278.834671 
L 288.491927 283.570661 
L 288.931896 280.185523 
L 289.371864 278.144239 
L 289.811832 274.589572 
L 290.251801 279.914102 
L 290.691769 282.341913 
L 291.131737 279.25243 
L 291.571705 281.055352 
L 292.011674 280.051433 
L 292.451642 273.76542 
L 292.89161 281.256242 
L 293.331579 279.839233 
L 293.771547 281.600911 
L 294.211515 281.412685 
L 294.651484 283.116007 
L 295.971388 277.529267 
L 296.411357 279.032951 
L 296.851325 277.014563 
L 297.291293 278.686703 
L 297.731262 282.987759 
L 298.17123 278.549988 
L 298.611198 280.19435 
L 299.051167 281.053071 
L 299.491135 275.837274 
L 299.931103 272.915227 
L 300.371071 266.546254 
L 300.81104 274.298501 
L 301.251008 277.528466 
L 301.690976 279.462044 
L 302.130945 273.293101 
L 302.570913 278.623165 
L 303.010881 282.316078 
L 303.450849 275.818758 
L 303.890818 279.417522 
L 304.330786 280.56373 
L 304.770754 281.138528 
L 305.210723 275.439621 
L 305.650691 279.738153 
L 306.090659 280.511775 
L 306.530628 278.808147 
L 306.970596 270.530374 
L 307.410564 282.462224 
L 307.850532 282.483601 
L 308.290501 280.252219 
L 308.730469 283.092535 
L 309.170437 282.76032 
L 309.610406 278.221757 
L 310.050374 277.566524 
L 310.490342 277.264057 
L 310.93031 276.722892 
L 311.370279 278.328819 
L 311.810247 275.986799 
L 312.250215 271.194405 
L 312.690184 283.194909 
L 313.130152 278.868146 
L 313.57012 277.306408 
L 314.010089 278.735024 
L 314.450057 278.783678 
L 314.890025 283.97406 
L 315.329993 279.935651 
L 315.769962 281.380458 
L 316.20993 280.721678 
L 316.649898 269.506587 
L 317.089867 280.524562 
L 317.529835 272.825119 
L 317.969803 279.378945 
L 318.409772 283.413822 
L 318.84974 275.695596 
L 319.729676 281.659793 
L 320.169645 280.025066 
L 320.609613 275.872509 
L 321.049581 280.490864 
L 321.48955 279.197667 
L 321.929518 277.117335 
L 322.369486 276.986611 
L 323.249423 275.887037 
L 323.689391 272.002125 
L 324.129359 275.117213 
L 324.569328 276.789701 
L 325.009296 270.932472 
L 325.449264 275.964316 
L 325.889233 277.113511 
L 326.329201 263.934882 
L 326.769169 276.226355 
L 327.209137 279.605833 
L 327.649106 273.6484 
L 328.089074 273.330371 
L 328.529042 269.567791 
L 328.969011 274.793642 
L 329.408979 277.237389 
L 329.848947 277.884806 
L 330.288916 275.100057 
L 330.728884 270.832952 
L 331.168852 279.982689 
L 331.60882 282.173868 
L 332.048789 277.372355 
L 332.488757 278.115208 
L 332.928725 277.039596 
L 333.368694 272.021519 
L 333.808662 278.730903 
L 334.24863 273.619656 
L 334.688598 273.780271 
L 335.128567 268.460409 
L 335.568535 280.657353 
L 336.008503 265.643083 
L 336.448472 272.064558 
L 336.88844 272.043617 
L 337.328408 277.277646 
L 337.768377 267.534703 
L 338.208345 278.305899 
L 338.648313 274.308421 
L 339.088281 276.336074 
L 339.52825 271.407662 
L 339.968218 268.848078 
L 340.408186 274.552521 
L 340.848155 278.802725 
L 341.288123 279.997115 
L 341.728091 278.850998 
L 342.168059 281.912448 
L 343.047996 272.705376 
L 343.487964 271.476622 
L 343.927933 262.08853 
L 344.367901 270.679098 
L 344.807869 275.847645 
L 345.247838 268.443518 
L 345.687806 272.94217 
L 346.127774 267.298186 
L 346.567742 259.474142 
L 347.007711 274.164676 
L 347.447679 280.601403 
L 347.887647 268.62838 
L 348.327616 273.362354 
L 348.767584 267.441561 
L 349.207552 266.684086 
L 349.647521 274.531338 
L 350.087489 270.616087 
L 350.527457 268.240909 
L 350.967425 275.721652 
L 351.407394 270.955416 
L 351.847362 270.822478 
L 352.28733 277.262599 
L 352.727299 268.670002 
L 353.167267 276.9535 
L 353.607235 274.818519 
L 354.047203 265.231592 
L 354.487172 263.707235 
L 354.92714 265.140713 
L 355.367108 278.517979 
L 355.807077 262.987358 
L 356.687013 276.423627 
L 357.126982 271.193205 
L 357.56695 268.622502 
L 358.006918 260.297717 
L 358.446886 271.990037 
L 358.886855 255.417443 
L 359.766791 270.498344 
L 360.20676 262.152942 
L 361.086696 276.189396 
L 361.526664 275.477391 
L 361.966633 272.292673 
L 362.406601 265.833976 
L 362.846569 275.946554 
L 363.286538 255.470813 
L 363.726506 275.837492 
L 364.166474 257.84075 
L 364.606443 274.995223 
L 365.046411 267.141545 
L 365.486379 261.851351 
L 365.926347 267.330498 
L 366.366316 267.606444 
L 366.806284 263.051975 
L 367.246252 266.374724 
L 367.686221 271.798778 
L 368.126189 281.169588 
L 368.566157 267.701341 
L 369.006126 263.475546 
L 369.446094 264.734418 
L 369.886062 267.598423 
L 370.32603 264.089755 
L 370.765999 274.079288 
L 371.205967 258.542376 
L 371.645935 252.693418 
L 372.085904 224.448667 
L 372.525872 242.613313 
L 372.96584 270.132723 
L 373.405808 262.740915 
L 373.845777 276.44996 
L 374.285745 272.870864 
L 374.725713 264.492329 
L 375.165682 268.800826 
L 375.60565 255.988471 
L 376.045618 272.357582 
L 376.485587 259.16443 
L 376.925555 278.565775 
L 377.365523 270.064307 
L 377.805491 258.086311 
L 378.24546 260.828987 
L 378.685428 254.549302 
L 379.125396 274.522024 
L 379.565365 270.255848 
L 380.445301 264.73092 
L 380.885269 264.002578 
L 381.325238 265.271442 
L 381.765206 268.005063 
L 382.205174 268.895001 
L 382.645143 265.796331 
L 383.085111 252.025339 
L 383.525079 266.671396 
L 383.965048 263.990498 
L 384.405016 266.860404 
L 384.844984 256.857331 
L 385.284952 271.047954 
L 385.724921 258.847807 
L 386.164889 257.088269 
L 386.604857 266.22661 
L 387.044826 255.918352 
L 387.484794 272.485162 
L 387.924762 253.981434 
L 388.804699 268.69049 
L 389.244667 254.808701 
L 389.684635 257.558394 
L 390.124604 243.627813 
L 390.564572 222.534255 
L 391.00454 257.548992 
L 391.444509 267.137376 
L 391.884477 250.32545 
L 392.324445 216.171351 
L 392.764413 255.571634 
L 393.204382 210.211068 
L 393.64435 240.526431 
L 394.084318 259.301302 
L 394.524287 242.670942 
L 394.964255 250.312197 
L 395.404223 239.963056 
L 395.844192 233.221171 
L 396.28416 253.777027 
L 396.724128 238.590005 
L 397.164096 259.13735 
L 397.604065 215.047591 
L 398.044033 233.447233 
L 398.484001 226.854786 
L 398.92397 234.263704 
L 399.363938 246.082487 
L 399.803906 222.125152 
L 400.243874 250.090254 
L 400.683843 244.599666 
L 401.123811 242.887209 
L 402.003748 213.383834 
L 402.443716 224.144633 
L 402.883684 204.420669 
L 403.323653 239.251764 
L 403.763621 221.610842 
L 404.643557 162.980161 
L 405.083526 204.040398 
L 405.523494 234.561926 
L 405.963462 134.480675 
L 406.403431 161.749822 
L 406.843399 215.622918 
L 407.283367 202.782223 
L 407.723336 220.106776 
L 408.163304 151.68206 
L 408.603272 206.332959 
L 409.04324 206.110447 
L 409.483209 211.374247 
L 409.923177 168.211296 
L 410.363145 196.104622 
L 410.803114 208.286686 
L 411.243082 213.001881 
L 411.68305 161.132479 
L 412.123018 139.299214 
L 412.562987 223.601052 
L 413.002955 218.320598 
L 413.442923 218.509658 
L 413.882892 109.009814 
L 414.32286 215.370985 
L 414.762828 194.390412 
L 415.202797 215.42567 
L 415.642765 215.160217 
L 416.082733 194.006764 
L 416.522701 209.085705 
L 416.96267 181.363947 
L 417.402638 208.326736 
L 417.842606 202.998935 
L 418.282575 221.644826 
L 418.722543 214.028755 
L 419.162511 193.332613 
L 420.042448 165.771436 
L 420.482416 218.491506 
L 420.922384 187.870987 
L 421.802321 220.087208 
L 422.242289 224.174893 
L 422.682258 233.900861 
L 423.122226 218.603271 
L 423.562194 196.0118 
L 424.002162 190.391316 
L 424.442131 198.172329 
L 424.882099 176.740268 
L 425.322067 181.766874 
L 425.762036 172.630886 
L 426.202004 211.859466 
L 426.641972 210.050764 
L 427.081941 230.161007 
L 427.521909 159.433189 
L 427.961877 194.927853 
L 428.401845 207.700268 
L 428.841814 239.590892 
L 429.281782 193.684839 
L 429.72175 171.089078 
L 430.161719 210.408431 
L 430.601687 195.827731 
L 431.041655 188.848397 
L 431.481623 231.67558 
L 431.921592 226.721018 
L 432.801528 202.667185 
L 433.241497 221.246502 
L 433.681465 184.119637 
L 434.121433 182.950073 
L 434.561402 180.382281 
L 435.00137 218.727179 
L 435.441338 175.604693 
L 435.881306 200.476813 
L 436.321275 201.798671 
L 436.761243 180.129584 
L 437.201211 227.906524 
L 437.64118 234.784699 
L 438.081148 214.325763 
L 438.521116 143.680467 
L 438.961084 141.722732 
L 439.401053 150.334892 
L 439.841021 214.486292 
L 440.280989 213.44148 
L 440.720958 229.996205 
L 441.160926 229.296605 
L 441.600894 250.675736 
L 442.040863 233.994799 
L 442.480831 247.119729 
L 442.920799 232.043743 
L 443.360767 224.626289 
L 443.800736 228.556342 
L 444.240704 217.100552 
L 444.680672 226.794763 
L 445.120641 240.547335 
L 445.560609 232.849336 
L 446.000577 215.323354 
L 446.440546 212.995034 
L 446.880514 223.392748 
L 447.320482 228.723105 
L 447.76045 229.45378 
L 448.200419 224.292516 
L 448.640387 233.322533 
L 449.080355 236.085682 
L 449.520324 244.176575 
L 449.960292 179.033771 
L 450.40026 246.957769 
L 451.280197 236.549979 
L 451.720165 254.476032 
L 452.160133 217.167942 
L 452.600102 222.544583 
L 453.04007 244.308058 
L 453.480038 225.969202 
L 453.920007 167.762779 
L 454.359975 223.97905 
L 454.799943 262.204591 
L 455.239911 223.018201 
L 455.67988 197.948302 
L 456.119848 223.193863 
L 456.999785 236.317105 
L 457.439753 199.955668 
L 457.879721 209.354165 
L 458.31969 213.798685 
L 458.759658 190.247065 
L 459.199626 212.004763 
L 459.639594 212.616451 
L 460.079563 207.051017 
L 460.519531 230.624333 
L 460.959499 145.834588 
L 461.399468 237.547605 
L 461.839436 196.674704 
L 462.279404 190.56655 
L 462.719372 223.887351 
L 463.159341 186.326067 
L 463.599309 199.510395 
L 464.039277 219.435517 
L 464.479246 251.556263 
L 465.359182 203.077722 
L 465.799151 182.668869 
L 466.239119 193.922895 
L 466.679087 243.94654 
L 467.119055 245.619485 
L 467.559024 204.226734 
L 467.998992 234.499406 
L 468.43896 191.861444 
L 468.878929 203.051371 
L 469.318897 222.185516 
L 469.758865 224.922505 
L 470.198833 242.410682 
L 470.638802 215.534902 
L 471.07877 166.878815 
L 471.518738 248.371639 
L 471.958707 220.408989 
L 472.398675 204.38864 
L 472.838643 202.388548 
L 473.278612 234.240493 
L 473.71858 204.494188 
L 474.158548 208.008373 
L 474.598516 213.589542 
L 475.038485 208.664702 
L 475.918421 172.004522 
L 476.35839 197.96924 
L 476.798358 180.748154 
L 477.238326 148.73986 
L 477.678295 229.058781 
L 478.118263 226.197814 
L 478.558231 175.304534 
L 479.438168 229.227186 
L 479.878136 228.054511 
L 480.318104 133.445312 
L 480.758073 197.955883 
L 481.198041 184.614194 
L 481.638009 221.207054 
L 482.077977 202.426244 
L 482.517946 160.982226 
L 482.957914 163.293343 
L 483.397882 207.205254 
L 484.277819 160.952457 
L 484.717787 195.515821 
L 485.597724 232.139548 
L 487.357597 160.424651 
L 487.797565 196.172925 
L 488.237534 208.66151 
L 488.677502 208.106428 
L 489.11747 209.31363 
L 489.557438 209.599351 
L 489.997407 231.668849 
L 490.437375 197.349555 
L 490.877343 207.883042 
L 491.317312 198.016414 
L 491.75728 222.988398 
L 492.197248 183.331535 
L 492.637217 208.281794 
L 493.077185 195.548446 
L 493.517153 220.766899 
L 493.957121 230.083602 
L 494.39709 207.914476 
L 495.277026 146.730546 
L 496.156963 199.720197 
L 496.596931 207.938104 
L 497.0369 195.000331 
L 497.476868 199.47311 
L 497.916836 220.938802 
L 498.356804 195.112385 
L 498.796773 189.548963 
L 499.236741 237.432775 
L 499.676709 199.580538 
L 500.116678 137.414443 
L 500.556646 210.845926 
L 500.996614 230.431676 
L 501.436582 216.332019 
L 501.876551 190.154533 
L 502.316519 215.648113 
L 502.756487 157.937155 
L 503.196456 209.152482 
L 503.636424 214.561621 
L 504.076392 171.164135 
L 504.516361 228.260427 
L 504.956329 234.131151 
L 505.396297 168.057943 
L 505.836265 206.705337 
L 506.276234 118.698878 
L 506.716202 205.528128 
L 507.15617 204.773941 
L 507.596139 194.763259 
L 508.036107 191.238538 
L 508.476075 217.262012 
L 508.916043 149.925789 
L 509.356012 180.803342 
L 509.79598 180.395072 
L 510.235948 194.685067 
L 510.675917 188.44769 
L 511.115885 190.416343 
L 511.555853 170.479714 
L 511.995822 213.084981 
L 512.43579 223.470124 
L 512.875758 183.578901 
L 513.315726 234.858304 
L 513.755695 214.378083 
L 514.195663 187.102569 
L 514.635631 191.110825 
L 515.0756 228.17724 
L 515.515568 170.86349 
L 515.955536 223.05743 
L 516.395505 199.019927 
L 516.835473 37.307558 
L 517.275441 155.073771 
L 517.715409 192.987234 
L 518.155378 181.060919 
L 518.595346 215.634079 
L 519.035314 217.909922 
L 519.475283 232.765842 
L 519.915251 235.205528 
L 520.355219 201.19989 
L 520.795187 228.287206 
L 521.235156 185.254737 
L 521.675124 181.535989 
L 522.115092 190.398532 
L 522.555061 231.695328 
L 522.995029 229.155309 
L 523.434997 225.471569 
L 523.874966 215.789687 
L 524.314934 177.099733 
L 524.754902 232.2616 
L 525.19487 241.308658 
L 525.634839 188.630419 
L 526.074807 234.563025 
L 526.514775 224.121682 
L 526.954744 208.625346 
L 527.394712 198.666735 
L 527.83468 235.654068 
L 528.274648 193.942347 
L 528.714617 231.095124 
L 529.154585 196.387376 
L 529.594553 197.948464 
L 530.034522 221.236105 
L 530.47449 180.948102 
L 530.914458 77.395763 
L 531.354427 52.144638 
L 532.234363 136.734128 
L 532.674331 150.149804 
L 533.1143 196.615977 
L 533.554268 199.744039 
L 533.994236 178.606789 
L 534.434205 146.982294 
L 534.874173 193.920258 
L 535.314141 190.597313 
L 535.75411 176.837911 
L 536.194078 206.287283 
L 536.634046 212.791304 
L 537.074014 114.288146 
L 537.513983 162.686269 
L 537.953951 172.123897 
L 538.833888 214.791448 
L 539.273856 233.669757 
L 539.713824 76.069319 
L 540.153792 168.07344 
L 540.593761 54.399457 
L 541.033729 136.575745 
L 541.473697 160.3124 
L 541.913666 160.411559 
L 542.353634 139.450231 
L 542.793602 149.989327 
L 543.233571 201.872757 
L 543.673539 165.588592 
L 544.113507 155.468568 
L 544.553475 185.813931 
L 544.993444 130.039422 
L 545.433412 206.768598 
L 545.87338 190.744698 
L 546.313349 201.504514 
L 546.753317 161.809949 
L 547.193285 138.144708 
L 547.633253 200.148556 
L 548.073222 162.925967 
L 548.51319 186.253462 
L 548.953158 161.862258 
L 549.393127 213.993655 
L 549.833095 153.052104 
L 550.273063 167.800759 
L 550.713032 189.177516 
L 551.153 167.383422 
L 551.592968 163.35628 
L 552.032936 220.609897 
L 552.472905 165.877372 
L 552.912873 179.994458 
L 553.352841 162.938249 
L 553.79281 203.807339 
L 554.232778 223.984763 
L 554.672746 200.106505 
L 555.112715 189.713071 
L 555.552683 204.901238 
L 555.992651 124.951625 
L 556.432619 214.384461 
L 556.872588 168.879386 
L 557.312556 206.10116 
L 557.752524 193.336441 
L 558.192493 160.600324 
L 558.632461 176.550172 
L 559.072429 202.914302 
L 559.512397 194.653229 
L 559.952366 138.303358 
L 560.392334 221.51768 
L 561.272271 198.159133 
L 561.712239 218.487956 
L 562.152207 214.097705 
L 562.592176 229.023259 
L 563.032144 214.099625 
L 563.472112 209.338194 
L 563.91208 225.443801 
L 564.352049 206.628198 
L 565.231985 158.631186 
L 565.671954 229.163474 
L 566.111922 196.524838 
L 566.55189 223.424887 
L 566.991859 163.865143 
L 567.431827 76.535923 
L 567.871795 192.723597 
L 568.311763 155.952589 
L 568.751732 209.53088 
L 569.1917 208.575333 
L 569.631668 186.977736 
L 570.071637 140.893019 
L 570.511605 215.937442 
L 570.951573 227.105296 
L 571.391541 191.770843 
L 571.83151 228.115228 
L 572.271478 205.07424 
L 572.711446 218.929233 
L 573.151415 150.427389 
L 573.591383 196.205076 
L 574.031351 148.722374 
L 574.47132 223.045582 
L 574.911288 168.46198 
L 575.351256 179.782031 
L 575.791224 218.947823 
L 576.231193 218.672604 
L 576.671161 227.839852 
L 577.111129 194.669246 
L 577.991066 234.158577 
L 578.431034 218.354102 
L 578.871002 169.11721 
L 579.310971 200.18561 
L 579.750939 155.639673 
L 580.630876 227.99908 
L 581.070844 208.219146 
L 581.510812 181.926148 
L 581.950781 228.519947 
L 582.390749 192.60036 
L 582.830717 109.812916 
L 583.270685 175.219426 
L 583.710654 197.261088 
L 584.150622 194.151224 
L 584.59059 159.397568 
L 585.030559 149.243993 
L 585.470527 149.88922 
L 585.910495 203.945622 
L 586.350464 201.806536 
L 586.790432 226.047093 
L 587.2304 201.515264 
L 587.670368 207.686118 
L 588.110337 241.5911 
L 588.550305 205.777171 
L 588.990273 137.622823 
L 589.87021 171.911851 
L 590.310178 215.081095 
L 590.750146 189.162874 
L 591.190115 193.199939 
L 591.630083 230.240315 
L 592.070051 190.446019 
L 592.51002 231.82507 
L 592.949988 184.730562 
L 593.389956 206.908292 
L 593.829925 200.367656 
L 594.269893 190.259821 
L 595.149829 222.638034 
L 595.589798 176.097759 
L 596.029766 190.844181 
L 596.469734 199.190621 
L 596.909703 218.022155 
L 597.349671 91.028342 
L 597.789639 103.938208 
L 598.669576 208.232475 
L 599.109544 152.812326 
L 599.549512 141.573832 
L 599.989481 192.183832 
L 600.429449 122.210495 
L 600.869417 131.588656 
L 601.309386 162.566039 
L 601.749354 153.176059 
L 602.189322 97.3932 
L 602.62929 224.924726 
L 603.069259 168.583402 
L 603.509227 156.610664 
L 603.949195 103.232843 
L 604.389164 215.512333 
L 604.829132 245.322011 
L 605.2691 219.803419 
L 605.709069 203.649765 
L 606.149037 124.649684 
L 606.589005 215.164756 
L 607.028973 217.414833 
L 607.468942 164.654829 
L 608.348878 246.857997 
L 609.228815 181.775455 
L 609.668783 211.071046 
L 610.108751 203.588759 
L 610.54872 240.062354 
L 610.988688 180.820759 
L 611.428656 226.336208 
L 611.868625 196.70316 
L 612.308593 217.887486 
L 612.748561 213.020096 
L 613.18853 223.412616 
L 613.628498 95.792595 
L 614.068466 197.537811 
L 614.508434 181.58639 
L 614.948403 161.041427 
L 615.388371 208.464228 
L 615.828339 190.204829 
L 616.268308 152.298478 
L 616.708276 178.601122 
L 617.148244 173.10214 
L 617.588212 196.599109 
L 618.028181 93.890025 
L 618.468149 218.08201 
L 618.908117 126.280035 
L 619.348086 198.349228 
L 619.788054 165.760658 
L 620.228022 227.804122 
L 620.667991 168.300219 
L 621.107959 180.439921 
L 621.987895 132.899186 
L 622.427864 181.081204 
L 622.867832 205.591181 
L 623.747769 172.276093 
L 624.187737 211.630917 
L 624.627705 141.204663 
L 625.067674 193.180695 
L 625.507642 228.459936 
L 625.94761 190.035123 
L 626.387578 182.457367 
L 626.827547 189.060223 
L 627.267515 122.484518 
L 627.707483 227.737443 
L 628.147452 219.830105 
L 628.58742 179.281078 
L 629.027388 175.211897 
L 629.467356 165.555239 
L 629.907325 186.590387 
L 630.347293 215.226595 
L 630.787261 205.472084 
L 631.22723 188.610735 
L 631.667198 177.818965 
L 632.107166 183.312314 
L 632.547135 196.207273 
L 632.987103 176.86118 
L 633.427071 145.557501 
L 633.867039 195.469618 
L 634.307008 213.769951 
L 635.186944 130.425302 
L 635.626913 173.73387 
L 636.066881 120.00092 
L 636.506849 123.742601 
L 636.946817 177.004761 
L 637.386786 186.545641 
L 637.826754 104.317438 
L 638.266722 134.833097 
L 638.706691 114.081756 
L 639.146659 120.00203 
L 639.586627 108.296168 
L 640.026596 182.018229 
L 640.466564 57.706835 
L 640.906532 152.553534 
L 641.3465 198.97617 
L 641.786469 194.264318 
L 642.226437 202.230962 
L 642.666405 203.883518 
L 643.106374 134.317549 
L 643.546342 178.409211 
L 643.98631 77.124677 
L 644.426279 145.956218 
L 644.866247 167.381016 
L 645.306215 156.595711 
L 645.746183 179.529242 
L 646.186152 240.472087 
L 646.62612 122.64045 
L 647.066088 144.748489 
L 647.506057 196.747541 
L 647.946025 215.500884 
L 648.385993 182.368905 
L 648.825961 208.060138 
L 649.26593 138.741015 
L 649.705898 164.019941 
L 650.145866 172.690308 
L 650.585835 162.843369 
L 651.025803 214.616063 
L 651.465771 34.486814 
L 651.90574 188.969483 
L 652.345708 159.653908 
L 652.785676 148.835261 
L 653.225644 130.843437 
L 653.665613 174.53563 
L 654.105581 143.280339 
L 654.545549 51.278507 
L 655.425486 159.949604 
L 655.865454 162.279479 
L 656.305422 119.62753 
L 656.745391 161.977411 
L 657.185359 130.843229 
L 657.625327 168.562018 
L 658.065296 166.380661 
L 658.505264 196.650955 
L 659.385201 68.001874 
L 659.825169 72.011969 
L 660.265137 190.256606 
L 660.705105 173.494797 
L 661.145074 210.732571 
L 661.585042 129.016746 
L 662.02501 195.920737 
L 662.464979 137.783091 
L 662.904947 180.272714 
L 663.344915 153.812346 
L 663.784884 49.757261 
L 664.66482 188.842545 
L 665.104788 136.744294 
L 665.544757 186.502608 
L 665.984725 212.741256 
L 666.424693 209.36048 
L 666.864662 203.073223 
L 667.30463 143.429574 
L 667.744598 186.729711 
L 668.184566 194.76822 
L 668.624535 167.855577 
L 669.064503 168.954062 
L 669.504471 177.294523 
L 669.94444 179.027919 
L 670.384408 205.936861 
L 670.824376 70.520237 
L 671.264345 183.051927 
L 671.704313 207.230958 
L 672.144281 220.854759 
L 673.024218 172.160998 
L 673.464186 223.167437 
L 673.904154 217.492498 
L 674.344123 187.381854 
L 674.784091 229.697699 
L 674.784091 229.697699 
" style="fill:none;stroke:#1f77b4;stroke-linecap:square;stroke-width:1.5;"/>
   </g>
   <g id="patch_3">
    <path d="M 65.45 304 
L 65.45 21.652853 
" style="fill:none;stroke:#000000;stroke-linecap:square;stroke-linejoin:miter;stroke-width:0.8;"/>
   </g>
   <g id="patch_4">
    <path d="M 703.8 304 
L 703.8 21.652853 
" style="fill:none;stroke:#000000;stroke-linecap:square;stroke-linejoin:miter;stroke-width:0.8;"/>
   </g>
   <g id="patch_5">
    <path d="M 65.45 304 
L 703.8 304 
" style="fill:none;stroke:#000000;stroke-linecap:square;stroke-linejoin:miter;stroke-width:0.8;"/>
   </g>
   <g id="patch_6">
    <path d="M 65.45 21.652853 
L 703.8 21.652853 
" style="fill:none;stroke:#000000;stroke-linecap:square;stroke-linejoin:miter;stroke-width:0.8;"/>
   </g>
  </g>
 </g>
 <defs>
  <clipPath id="pa78f5929f9">
   <rect height="282.347147" width="638.35" x="65.45" y="21.652853"/>
  </clipPath>
 </defs>
</svg>
