<?xml version="1.0" encoding="utf-8" standalone="no"?>
<!DOCTYPE svg PUBLIC "-//W3C//DTD SVG 1.1//EN"
  "http://www.w3.org/Graphics/SVG/1.1/DTD/svg11.dtd">
<!-- Created with matplotlib (https://matplotlib.org/) -->
<svg height="360pt" version="1.1" viewBox="0 0 720 360" width="720pt" xmlns="http://www.w3.org/2000/svg" xmlns:xlink="http://www.w3.org/1999/xlink">
 <defs>
  <style type="text/css">
*{stroke-linecap:butt;stroke-linejoin:round;}
  </style>
 </defs>
 <g id="figure_1">
  <g id="patch_1">
   <path d="M 0 360 
L 720 360 
L 720 0 
L 0 0 
z
" style="fill:#ffffff;"/>
  </g>
  <g id="axes_1">
   <g id="patch_2">
    <path d="M 84.53 304 
L 703.8 304 
L 703.8 16.2 
L 84.53 16.2 
z
" style="fill:#ffffff;"/>
   </g>
   <g id="matplotlib.axis_1">
    <g id="xtick_1">
     <g id="line2d_1">
      <defs>
       <path d="M 0 0 
L 0 3.5 
" id="me734e44cf8" style="stroke:#000000;stroke-width:0.8;"/>
      </defs>
      <g>
       <use style="stroke:#000000;stroke-width:0.8;" x="112.251819" xlink:href="#me734e44cf8" y="304"/>
      </g>
     </g>
     <g id="text_1">
      <text style="font-family:DejaVu Sans;font-size:15px;font-style:normal;font-weight:normal;text-anchor:middle;" transform="rotate(-0, 112.251819, 322.397656)" x="112.251819" y="322.397656">0</text>
     </g>
    </g>
    <g id="xtick_2">
     <g id="line2d_2">
      <g>
       <use style="stroke:#000000;stroke-width:0.8;" x="197.615386" xlink:href="#me734e44cf8" y="304"/>
      </g>
     </g>
     <g id="text_2">
      <text style="font-family:DejaVu Sans;font-size:15px;font-style:normal;font-weight:normal;text-anchor:middle;" transform="rotate(-0, 197.615386, 322.397656)" x="197.615386" y="322.397656">100000</text>
     </g>
    </g>
    <g id="xtick_3">
     <g id="line2d_3">
      <g>
       <use style="stroke:#000000;stroke-width:0.8;" x="282.978953" xlink:href="#me734e44cf8" y="304"/>
      </g>
     </g>
     <g id="text_3">
      <text style="font-family:DejaVu Sans;font-size:15px;font-style:normal;font-weight:normal;text-anchor:middle;" transform="rotate(-0, 282.978953, 322.397656)" x="282.978953" y="322.397656">200000</text>
     </g>
    </g>
    <g id="xtick_4">
     <g id="line2d_4">
      <g>
       <use style="stroke:#000000;stroke-width:0.8;" x="368.342521" xlink:href="#me734e44cf8" y="304"/>
      </g>
     </g>
     <g id="text_4">
      <text style="font-family:DejaVu Sans;font-size:15px;font-style:normal;font-weight:normal;text-anchor:middle;" transform="rotate(-0, 368.342521, 322.397656)" x="368.342521" y="322.397656">300000</text>
     </g>
    </g>
    <g id="xtick_5">
     <g id="line2d_5">
      <g>
       <use style="stroke:#000000;stroke-width:0.8;" x="453.706088" xlink:href="#me734e44cf8" y="304"/>
      </g>
     </g>
     <g id="text_5">
      <text style="font-family:DejaVu Sans;font-size:15px;font-style:normal;font-weight:normal;text-anchor:middle;" transform="rotate(-0, 453.706088, 322.397656)" x="453.706088" y="322.397656">400000</text>
     </g>
    </g>
    <g id="xtick_6">
     <g id="line2d_6">
      <g>
       <use style="stroke:#000000;stroke-width:0.8;" x="539.069656" xlink:href="#me734e44cf8" y="304"/>
      </g>
     </g>
     <g id="text_6">
      <text style="font-family:DejaVu Sans;font-size:15px;font-style:normal;font-weight:normal;text-anchor:middle;" transform="rotate(-0, 539.069656, 322.397656)" x="539.069656" y="322.397656">500000</text>
     </g>
    </g>
    <g id="xtick_7">
     <g id="line2d_7">
      <g>
       <use style="stroke:#000000;stroke-width:0.8;" x="624.433223" xlink:href="#me734e44cf8" y="304"/>
      </g>
     </g>
     <g id="text_7">
      <text style="font-family:DejaVu Sans;font-size:15px;font-style:normal;font-weight:normal;text-anchor:middle;" transform="rotate(-0, 624.433223, 322.397656)" x="624.433223" y="322.397656">600000</text>
     </g>
    </g>
    <g id="text_8">
     <text style="font-family:DejaVu Sans;font-size:15px;font-style:normal;font-weight:normal;text-anchor:middle;" transform="rotate(-0, 394.165, 340.914844)" x="394.165" y="340.914844">Episodes</text>
    </g>
   </g>
   <g id="matplotlib.axis_2">
    <g id="ytick_1">
     <g id="line2d_8">
      <defs>
       <path d="M 0 0 
L -3.5 0 
" id="mf61efafcee" style="stroke:#000000;stroke-width:0.8;"/>
      </defs>
      <g>
       <use style="stroke:#000000;stroke-width:0.8;" x="84.53" xlink:href="#mf61efafcee" y="273.929313"/>
      </g>
     </g>
     <g id="text_9">
      <text style="font-family:DejaVu Sans;font-size:15px;font-style:normal;font-weight:normal;text-anchor:end;" transform="rotate(-0, 77.53, 279.628141)" x="77.53" y="279.628141">0.002</text>
     </g>
    </g>
    <g id="ytick_2">
     <g id="line2d_9">
      <g>
       <use style="stroke:#000000;stroke-width:0.8;" x="84.53" xlink:href="#mf61efafcee" y="233.160922"/>
      </g>
     </g>
     <g id="text_10">
      <text style="font-family:DejaVu Sans;font-size:15px;font-style:normal;font-weight:normal;text-anchor:end;" transform="rotate(-0, 77.53, 238.85975)" x="77.53" y="238.85975">0.003</text>
     </g>
    </g>
    <g id="ytick_3">
     <g id="line2d_10">
      <g>
       <use style="stroke:#000000;stroke-width:0.8;" x="84.53" xlink:href="#mf61efafcee" y="192.392531"/>
      </g>
     </g>
     <g id="text_11">
      <text style="font-family:DejaVu Sans;font-size:15px;font-style:normal;font-weight:normal;text-anchor:end;" transform="rotate(-0, 77.53, 198.091359)" x="77.53" y="198.091359">0.004</text>
     </g>
    </g>
    <g id="ytick_4">
     <g id="line2d_11">
      <g>
       <use style="stroke:#000000;stroke-width:0.8;" x="84.53" xlink:href="#mf61efafcee" y="151.62414"/>
      </g>
     </g>
     <g id="text_12">
      <text style="font-family:DejaVu Sans;font-size:15px;font-style:normal;font-weight:normal;text-anchor:end;" transform="rotate(-0, 77.53, 157.322968)" x="77.53" y="157.322968">0.005</text>
     </g>
    </g>
    <g id="ytick_5">
     <g id="line2d_12">
      <g>
       <use style="stroke:#000000;stroke-width:0.8;" x="84.53" xlink:href="#mf61efafcee" y="110.855749"/>
      </g>
     </g>
     <g id="text_13">
      <text style="font-family:DejaVu Sans;font-size:15px;font-style:normal;font-weight:normal;text-anchor:end;" transform="rotate(-0, 77.53, 116.554577)" x="77.53" y="116.554577">0.006</text>
     </g>
    </g>
    <g id="ytick_6">
     <g id="line2d_13">
      <g>
       <use style="stroke:#000000;stroke-width:0.8;" x="84.53" xlink:href="#mf61efafcee" y="70.087358"/>
      </g>
     </g>
     <g id="text_14">
      <text style="font-family:DejaVu Sans;font-size:15px;font-style:normal;font-weight:normal;text-anchor:end;" transform="rotate(-0, 77.53, 75.786186)" x="77.53" y="75.786186">0.007</text>
     </g>
    </g>
    <g id="ytick_7">
     <g id="line2d_14">
      <g>
       <use style="stroke:#000000;stroke-width:0.8;" x="84.53" xlink:href="#mf61efafcee" y="29.318967"/>
      </g>
     </g>
     <g id="text_15">
      <text style="font-family:DejaVu Sans;font-size:15px;font-style:normal;font-weight:normal;text-anchor:end;" transform="rotate(-0, 77.53, 35.017795)" x="77.53" y="35.017795">0.008</text>
     </g>
    </g>
    <g id="text_16">
     <text style="font-family:DejaVu Sans;font-size:15px;font-style:normal;font-weight:normal;text-anchor:middle;" transform="rotate(-90, 27.468281, 160.1)" x="27.468281" y="160.1">Entropy Coefficient</text>
    </g>
   </g>
   <g id="line2d_15">
    <path clip-path="url(#pd819262dd8)" d="M 112.678636 41.003328 
L 113.105454 29.281818 
L 113.532272 54.232529 
L 113.95909 64.064478 
L 114.812726 102.330143 
L 115.666361 129.189759 
L 116.519997 147.266858 
L 116.946815 149.385691 
L 117.80045 173.483857 
L 118.227268 174.510032 
L 118.654086 177.608491 
L 119.080904 183.082964 
L 119.507722 193.187565 
L 119.93454 198.449888 
L 120.361357 200.445077 
L 121.214993 209.60653 
L 121.641811 210.331046 
L 122.495447 214.474522 
L 122.922264 219.057807 
L 123.7759 225.230587 
L 124.202718 226.277408 
L 124.629536 225.628165 
L 125.056354 230.219224 
L 125.483171 232.34249 
L 125.909989 238.982577 
L 126.336807 239.5578 
L 126.763625 239.925041 
L 128.044079 245.851634 
L 128.470896 247.012132 
L 128.897714 244.295494 
L 129.324532 246.493074 
L 129.75135 253.162321 
L 130.178168 254.441566 
L 131.031803 262.034701 
L 131.885439 267.357745 
L 132.312257 271.666204 
L 132.739075 271.423737 
L 133.165893 271.311892 
L 133.59271 274.299075 
L 134.019528 275.582373 
L 134.446346 278.581801 
L 134.873164 278.522679 
L 135.299982 280.524199 
L 135.7268 281.342183 
L 136.153617 280.909043 
L 136.580435 281.169849 
L 137.007253 280.07898 
L 137.434071 281.522999 
L 137.860889 283.597001 
L 138.287707 280.771469 
L 138.714524 282.15508 
L 139.141342 284.784808 
L 139.56816 285.065372 
L 139.994978 284.390833 
L 140.421796 285.755018 
L 140.848614 285.264322 
L 141.275431 286.163474 
L 141.702249 284.743038 
L 142.129067 285.973527 
L 142.555885 286.045928 
L 143.409521 289.106514 
L 143.836338 288.276693 
L 144.263156 289.329759 
L 144.689974 289.5601 
L 145.116792 290.806141 
L 145.54361 288.828456 
L 145.970428 290.918182 
L 146.397246 287.93462 
L 146.824063 289.59187 
L 147.677699 287.593525 
L 148.104517 289.546996 
L 148.531335 290.36892 
L 148.958153 284.823323 
L 149.38497 285.625251 
L 149.811788 284.275779 
L 150.238606 284.615787 
L 150.665424 283.660613 
L 151.092242 285.269913 
L 151.51906 283.891395 
L 151.945877 283.646678 
L 152.372695 281.635989 
L 152.799513 284.109794 
L 153.226331 283.306665 
L 153.653149 286.298466 
L 154.079967 288.018739 
L 154.506784 287.248942 
L 154.933602 287.994036 
L 155.36042 285.342879 
L 155.787238 285.320141 
L 156.640874 280.771649 
L 157.494509 282.093462 
L 157.921327 280.854663 
L 158.348145 282.090519 
L 158.774963 281.836662 
L 159.201781 280.986784 
L 159.628598 279.769342 
L 160.055416 280.950334 
L 160.482234 279.859821 
L 160.909052 277.609237 
L 161.33587 278.164826 
L 161.762688 276.712819 
L 162.616323 277.028148 
L 163.043141 274.303488 
L 163.469959 276.478966 
L 163.896777 274.192345 
L 164.323595 274.196911 
L 164.750413 275.195417 
L 165.17723 275.255758 
L 165.604048 275.012294 
L 166.030866 273.412177 
L 166.457684 270.161588 
L 166.884502 270.827565 
L 167.31132 270.523399 
L 167.738137 268.073461 
L 168.164955 270.406874 
L 168.591773 273.680814 
L 169.018591 271.349775 
L 169.445409 266.93563 
L 170.299044 269.875685 
L 170.725862 264.547182 
L 171.15268 265.424388 
L 171.579498 265.206268 
L 172.006316 262.530484 
L 172.433134 260.576586 
L 172.859951 264.519655 
L 173.286769 259.899778 
L 173.713587 258.277003 
L 174.140405 257.144972 
L 174.567223 256.705059 
L 174.994041 255.57634 
L 175.420858 258.220222 
L 175.847676 256.330822 
L 176.274494 257.167136 
L 176.701312 258.653224 
L 177.12813 256.23069 
L 177.554948 254.80557 
L 177.981765 252.782673 
L 178.408583 255.567532 
L 178.835401 255.047296 
L 179.262219 251.852739 
L 179.689037 251.891419 
L 180.115855 251.69254 
L 180.542672 252.114266 
L 180.96949 248.45318 
L 181.396308 250.191806 
L 181.823126 244.034327 
L 182.249944 244.612521 
L 182.676762 245.41249 
L 183.10358 245.956863 
L 183.530397 245.81693 
L 183.957215 243.138118 
L 184.384033 242.613061 
L 184.810851 241.736349 
L 185.237669 244.760057 
L 185.664487 242.82316 
L 186.091304 242.468534 
L 186.518122 240.103408 
L 186.94494 236.927313 
L 187.371758 236.59953 
L 187.798576 234.776699 
L 188.225394 231.705302 
L 188.652211 232.029468 
L 189.079029 229.911631 
L 189.505847 230.89774 
L 189.932665 228.801935 
L 190.359483 230.714305 
L 190.786301 231.775041 
L 191.213118 233.139231 
L 192.066754 234.367 
L 192.92039 230.031669 
L 193.347208 229.052945 
L 193.774025 231.513893 
L 194.200843 230.894361 
L 194.627661 230.477676 
L 195.054479 229.864275 
L 195.908115 227.899404 
L 196.334932 228.336991 
L 196.76175 224.360814 
L 197.188568 224.759996 
L 197.615386 224.999795 
L 198.042204 223.970697 
L 198.469022 226.488095 
L 198.895839 225.228157 
L 199.322657 221.186712 
L 199.749475 221.708741 
L 200.176293 221.74127 
L 200.603111 222.158725 
L 201.029929 218.640495 
L 201.456747 220.453112 
L 201.883564 217.301972 
L 202.310382 220.721303 
L 202.7372 220.789466 
L 203.164018 222.724399 
L 203.590836 220.145805 
L 204.017654 221.11497 
L 204.871289 222.075868 
L 205.298107 220.022378 
L 205.724925 219.663642 
L 206.151743 221.390612 
L 207.005378 219.691046 
L 207.432196 223.224197 
L 207.859014 222.120699 
L 208.285832 218.10307 
L 208.71265 223.836269 
L 209.139468 224.120853 
L 209.566285 223.693327 
L 209.993103 222.157196 
L 210.419921 218.06456 
L 210.846739 216.313784 
L 211.273557 219.850799 
L 211.700375 220.86901 
L 212.127192 219.68126 
L 212.55401 219.766442 
L 212.980828 217.402541 
L 213.407646 218.256908 
L 213.834464 221.923643 
L 214.688099 225.308565 
L 215.114917 223.347851 
L 215.541735 222.347694 
L 215.968553 223.108374 
L 216.395371 220.382595 
L 216.822189 221.270622 
L 217.249006 220.937088 
L 217.675824 221.698546 
L 218.102642 219.352262 
L 218.52946 222.863648 
L 218.956278 218.053483 
L 219.383096 219.382314 
L 219.809914 218.435417 
L 220.236731 219.942331 
L 220.663549 218.303619 
L 221.090367 213.592324 
L 221.517185 214.932878 
L 221.944003 213.372628 
L 222.370821 213.221865 
L 222.797638 216.50131 
L 223.224456 209.166162 
L 223.651274 212.452594 
L 224.078092 207.54577 
L 224.931728 212.848805 
L 225.358545 211.953574 
L 225.785363 208.615476 
L 226.212181 210.508644 
L 226.638999 209.675719 
L 227.065817 207.208239 
L 227.492635 209.902856 
L 227.919452 211.008167 
L 228.34627 211.494344 
L 228.773088 206.604397 
L 229.199906 209.037876 
L 229.626724 207.436962 
L 230.053542 205.185684 
L 230.480359 208.629477 
L 230.907177 205.149994 
L 231.333995 205.439438 
L 231.760813 205.064318 
L 232.614449 206.553216 
L 233.041266 207.533914 
L 233.468084 203.378193 
L 233.894902 201.901208 
L 234.32172 199.94376 
L 234.748538 200.501384 
L 235.175356 197.736403 
L 235.602173 198.983488 
L 236.028991 201.898132 
L 236.455809 201.603183 
L 236.882627 184.069975 
L 237.309445 193.919788 
L 238.163081 197.956687 
L 239.016716 195.825067 
L 239.443534 196.200443 
L 239.870352 193.060693 
L 240.29717 191.787305 
L 240.723988 192.984528 
L 241.150805 192.861225 
L 241.577623 190.747783 
L 242.004441 192.515902 
L 242.431259 196.514319 
L 242.858077 193.607117 
L 243.284895 191.693162 
L 243.711712 193.732565 
L 244.13853 189.820554 
L 244.565348 191.188598 
L 244.992166 194.375619 
L 245.418984 192.353131 
L 245.845802 191.897869 
L 246.272619 192.359889 
L 246.699437 186.189453 
L 247.126255 186.020171 
L 247.553073 186.43118 
L 247.979891 182.565738 
L 248.406709 188.130784 
L 248.833526 188.543445 
L 249.260344 190.688932 
L 249.687162 190.503019 
L 250.11398 189.498619 
L 250.540798 181.63025 
L 250.967616 187.015819 
L 251.394433 190.033994 
L 251.821251 190.843806 
L 252.248069 187.724711 
L 252.674887 187.042663 
L 253.101705 187.958825 
L 253.528523 183.713431 
L 253.95534 183.65289 
L 254.382158 184.402351 
L 254.808976 187.892513 
L 255.235794 186.532955 
L 255.662612 191.252746 
L 256.08943 185.563466 
L 256.516248 185.090739 
L 256.943065 183.11313 
L 257.369883 178.411336 
L 257.796701 177.957726 
L 258.223519 181.786605 
L 258.650337 184.496798 
L 259.077155 184.612849 
L 259.503972 186.97077 
L 259.93079 178.254317 
L 260.357608 182.318221 
L 260.784426 182.72082 
L 261.211244 186.820528 
L 261.638062 186.90423 
L 262.064879 187.91761 
L 262.491697 185.138257 
L 262.918515 189.393332 
L 263.345333 191.329556 
L 263.772151 187.348917 
L 264.198969 188.417636 
L 264.625786 187.608052 
L 265.052604 187.285586 
L 265.479422 185.204436 
L 265.90624 186.075187 
L 266.759876 179.164157 
L 267.186693 179.130877 
L 267.613511 181.604564 
L 268.040329 175.594831 
L 268.893965 180.901539 
L 269.320783 172.744743 
L 270.174418 179.917053 
L 270.601236 178.770632 
L 271.028054 178.011622 
L 271.454872 174.004956 
L 271.88169 175.893738 
L 272.308507 178.97382 
L 272.735325 175.346801 
L 273.162143 177.879416 
L 274.015779 185.497192 
L 274.442597 183.311971 
L 274.869415 176.447053 
L 275.296232 173.341133 
L 275.72305 169.264795 
L 276.576686 180.904387 
L 277.003504 182.376503 
L 277.430322 182.747018 
L 277.857139 180.935844 
L 278.283957 176.072608 
L 278.710775 179.05906 
L 279.137593 180.848497 
L 279.564411 177.010088 
L 279.991229 177.003178 
L 280.418046 175.614631 
L 280.844864 169.937559 
L 281.271682 167.331153 
L 282.125318 172.642171 
L 282.552136 171.055409 
L 282.978953 176.425278 
L 283.405771 175.006679 
L 283.832589 176.515681 
L 284.686225 181.563691 
L 285.113043 179.441953 
L 285.53986 178.944604 
L 285.966678 175.004458 
L 286.393496 177.789563 
L 286.820314 174.502856 
L 287.247132 174.690781 
L 287.67395 173.44175 
L 288.100767 176.538462 
L 288.527585 174.946708 
L 288.954403 167.636989 
L 289.808039 182.339521 
L 290.234857 180.713652 
L 290.661674 176.713194 
L 291.088492 180.780723 
L 291.51531 178.151194 
L 291.942128 185.307748 
L 292.368946 182.786544 
L 292.795764 177.283879 
L 293.222582 167.222487 
L 293.649399 162.738651 
L 294.076217 168.222824 
L 294.503035 171.120107 
L 294.929853 164.47349 
L 295.356671 174.241898 
L 295.783489 188.26525 
L 296.210306 193.513923 
L 296.637124 187.52847 
L 297.063942 187.210579 
L 297.49076 183.973743 
L 297.917578 184.11491 
L 298.344396 186.757463 
L 298.771213 186.476154 
L 299.198031 194.494403 
L 299.624849 195.76445 
L 300.051667 191.227383 
L 300.478485 194.716159 
L 300.905303 196.210239 
L 301.33212 195.004112 
L 301.758938 198.576295 
L 302.185756 200.081557 
L 303.039392 192.604843 
L 303.46621 199.375333 
L 304.319845 187.084732 
L 304.746663 186.103777 
L 305.173481 201.203764 
L 305.600299 199.429277 
L 306.027117 200.971881 
L 306.880752 197.948504 
L 307.734388 200.305894 
L 308.161206 212.103492 
L 308.588024 212.016649 
L 309.014841 207.245059 
L 309.441659 212.666575 
L 309.868477 203.328578 
L 310.295295 204.694884 
L 310.722113 203.303414 
L 311.148931 209.146827 
L 311.575749 206.948553 
L 312.002566 204.044075 
L 312.429384 191.772573 
L 312.856202 208.782462 
L 313.28302 211.40397 
L 313.709838 203.718875 
L 314.136656 208.488187 
L 314.563473 211.516309 
L 314.990291 206.620221 
L 315.417109 199.986977 
L 315.843927 207.486643 
L 316.270745 204.082481 
L 316.697563 203.143984 
L 317.12438 200.180066 
L 317.551198 211.037222 
L 317.978016 211.193548 
L 318.404834 206.778777 
L 318.831652 204.263049 
L 319.25847 215.406925 
L 319.685287 214.229521 
L 320.112105 216.38543 
L 320.538923 212.753836 
L 320.965741 212.345978 
L 321.392559 211.645288 
L 321.819377 212.906935 
L 322.246194 208.177519 
L 322.673012 209.152209 
L 323.09983 208.463308 
L 323.526648 216.091924 
L 323.953466 218.416196 
L 324.380284 211.810261 
L 324.807101 223.303751 
L 325.233919 221.6981 
L 325.660737 226.327849 
L 326.514373 219.101252 
L 326.941191 219.986659 
L 327.368008 225.73647 
L 327.794826 221.788067 
L 328.221644 214.962427 
L 328.648462 219.247213 
L 329.07528 222.289488 
L 329.502098 232.256216 
L 330.355733 216.180154 
L 330.782551 217.999805 
L 331.209369 207.389586 
L 331.636187 213.463326 
L 332.063005 206.864899 
L 332.489823 219.217531 
L 332.91664 217.428739 
L 333.343458 217.020568 
L 333.770276 210.079182 
L 334.197094 215.298221 
L 334.623912 215.043547 
L 335.477547 211.541017 
L 335.904365 208.614498 
L 336.331183 201.141306 
L 336.758001 217.317852 
L 337.184819 221.336516 
L 337.611637 215.130495 
L 338.038454 216.386361 
L 338.465272 215.471756 
L 339.318908 200.699086 
L 339.745726 208.766724 
L 340.172544 221.675642 
L 340.599361 221.281054 
L 341.026179 216.442725 
L 341.452997 220.361855 
L 342.306633 232.369201 
L 342.733451 228.901735 
L 343.160268 233.992754 
L 344.013904 229.105977 
L 344.440722 230.074194 
L 344.86754 235.986206 
L 345.294358 229.890863 
L 346.147993 224.112775 
L 346.574811 229.293352 
L 347.001629 218.322461 
L 347.428447 214.360579 
L 347.855265 223.363979 
L 348.282083 229.556113 
L 348.7089 232.980181 
L 349.135718 229.146224 
L 349.562536 220.870538 
L 349.989354 222.033884 
L 350.416172 218.876593 
L 350.84299 224.731889 
L 351.269807 227.586059 
L 351.696625 229.633892 
L 352.123443 232.981994 
L 352.550261 241.919499 
L 352.977079 235.625828 
L 353.403897 239.310711 
L 354.257532 224.928481 
L 354.68435 221.271657 
L 355.111168 230.724594 
L 355.537986 229.761931 
L 355.964804 218.232115 
L 356.391621 221.017182 
L 356.818439 214.93864 
L 357.245257 222.319009 
L 357.672075 226.422647 
L 358.098893 236.126215 
L 358.525711 229.902832 
L 358.952528 232.616243 
L 359.379346 220.477763 
L 360.232982 232.271612 
L 360.6598 221.527545 
L 361.086618 225.555778 
L 361.513435 227.808564 
L 361.940253 227.730795 
L 362.367071 227.786884 
L 362.793889 221.211353 
L 363.220707 220.747454 
L 363.647525 222.65185 
L 364.074342 219.899873 
L 364.50116 219.298907 
L 364.927978 217.380623 
L 365.354796 217.790484 
L 365.781614 224.357814 
L 366.208432 229.206205 
L 366.63525 224.796332 
L 367.062067 228.00526 
L 367.488885 221.806861 
L 367.915703 212.355727 
L 368.342521 222.371624 
L 368.769339 220.910785 
L 369.196157 167.093622 
L 369.622974 221.21366 
L 370.049792 220.843011 
L 370.903428 235.086779 
L 371.330246 233.560871 
L 371.757064 230.25649 
L 372.183881 234.658494 
L 372.610699 234.32888 
L 373.464335 229.326252 
L 373.891153 234.809789 
L 374.317971 233.016735 
L 374.744788 238.420007 
L 375.171606 228.419829 
L 375.598424 226.779779 
L 376.025242 231.784419 
L 376.45206 233.765028 
L 376.878878 227.747672 
L 377.305695 230.363666 
L 377.732513 225.779137 
L 378.159331 223.746416 
L 378.586149 222.876093 
L 379.012967 212.857766 
L 379.439785 211.526466 
L 379.866602 212.047422 
L 380.29342 212.917661 
L 380.720238 219.546196 
L 381.147056 204.308906 
L 381.573874 211.303154 
L 382.000692 158.668122 
L 382.427509 216.849415 
L 382.854327 217.916264 
L 383.281145 222.589895 
L 383.707963 206.281228 
L 384.134781 208.769381 
L 384.561599 207.801374 
L 384.988417 207.897235 
L 385.415234 202.924184 
L 385.842052 205.76123 
L 386.26887 216.324538 
L 386.695688 220.098496 
L 387.549324 201.32084 
L 387.976141 214.313735 
L 388.402959 210.489507 
L 388.829777 213.781151 
L 389.256595 212.082239 
L 389.683413 198.042438 
L 390.110231 203.68197 
L 390.537048 211.085082 
L 390.963866 210.137207 
L 391.390684 214.709566 
L 391.817502 214.166531 
L 392.24432 207.802636 
L 392.671138 213.412324 
L 393.097955 215.637071 
L 393.524773 214.233356 
L 393.951591 213.580145 
L 394.378409 216.68579 
L 394.805227 221.681954 
L 395.232045 220.263573 
L 395.658862 225.66246 
L 396.08568 222.788376 
L 396.512498 231.635231 
L 396.939316 222.192669 
L 397.366134 215.412326 
L 397.792952 213.819043 
L 398.219769 221.701726 
L 398.646587 186.267156 
L 399.073405 201.199426 
L 399.500223 207.767354 
L 399.927041 208.296094 
L 400.353859 209.040818 
L 400.780676 205.708036 
L 401.207494 206.76864 
L 402.06113 189.397832 
L 402.487948 190.192646 
L 402.914766 192.809341 
L 403.341583 200.405077 
L 403.768401 195.616202 
L 404.195219 208.252725 
L 404.622037 204.368421 
L 405.048855 208.122246 
L 405.475673 204.503457 
L 405.902491 194.293018 
L 406.329308 196.868414 
L 406.756126 182.422065 
L 407.182944 189.609772 
L 407.609762 191.190477 
L 408.03658 175.892713 
L 408.463398 184.524344 
L 408.890215 188.36243 
L 409.743851 180.589362 
L 410.170669 186.686404 
L 410.597487 186.104594 
L 411.024305 198.370961 
L 411.451122 190.28844 
L 411.87794 189.683146 
L 412.304758 160.252852 
L 412.731576 176.959021 
L 413.158394 139.610486 
L 413.585212 167.828199 
L 414.012029 162.735538 
L 414.438847 150.931503 
L 414.865665 118.840299 
L 415.292483 127.936418 
L 416.146119 149.580071 
L 416.572936 167.306131 
L 416.999754 162.869566 
L 417.426572 165.695583 
L 417.85339 158.206253 
L 418.280208 169.655775 
L 418.707026 152.199728 
L 419.133843 145.057317 
L 419.560661 142.201971 
L 419.987479 141.666899 
L 420.414297 151.915059 
L 420.841115 149.758656 
L 421.267933 144.213448 
L 421.69475 150.569056 
L 422.121568 159.568697 
L 422.548386 159.790984 
L 422.975204 154.474327 
L 423.82884 125.046482 
L 424.255658 134.108391 
L 424.682475 138.041532 
L 425.109293 132.166396 
L 425.536111 134.349321 
L 425.962929 144.784646 
L 426.389747 142.298961 
L 426.816565 153.529708 
L 427.243382 160.830068 
L 427.6702 119.466913 
L 428.097018 132.343102 
L 428.523836 135.655723 
L 429.377472 150.788077 
L 429.804289 158.988424 
L 430.231107 175.441324 
L 430.657925 179.081917 
L 431.084743 170.154815 
L 431.511561 155.504451 
L 431.938379 165.913636 
L 432.365196 159.949825 
L 432.792014 149.377129 
L 433.218832 135.184495 
L 433.64565 130.268217 
L 434.072468 149.913093 
L 434.499286 159.31015 
L 434.926103 162.330281 
L 435.779739 142.498391 
L 436.206557 143.101369 
L 436.633375 169.220751 
L 437.060193 140.634136 
L 437.48701 155.61437 
L 437.913828 139.872583 
L 438.340646 162.146551 
L 438.767464 154.387209 
L 439.194282 162.990306 
L 439.6211 155.098625 
L 440.047917 156.883867 
L 440.474735 177.86214 
L 440.901553 170.246053 
L 441.328371 165.48425 
L 441.755189 171.846692 
L 442.182007 171.606124 
L 442.608825 150.863597 
L 443.889278 179.983252 
L 444.316096 164.019481 
L 444.742914 171.179699 
L 445.169732 159.216425 
L 445.596549 163.971831 
L 446.023367 174.567725 
L 446.877003 149.944075 
L 447.303821 172.138025 
L 447.730639 178.899915 
L 448.157456 147.554355 
L 448.584274 154.713301 
L 449.011092 171.267919 
L 449.43791 160.231267 
L 449.864728 169.925713 
L 450.291546 158.363101 
L 450.718363 156.501884 
L 451.145181 151.004745 
L 451.571999 163.161943 
L 451.998817 168.161107 
L 452.425635 155.412719 
L 452.852453 173.115277 
L 453.27927 170.605254 
L 453.706088 165.881078 
L 454.132906 157.742088 
L 454.559724 169.918973 
L 454.986542 149.060168 
L 455.41336 153.162325 
L 455.840177 175.902718 
L 456.266995 153.244413 
L 456.693813 145.266315 
L 457.120631 153.964676 
L 457.547449 169.648144 
L 457.974267 166.699793 
L 458.401084 173.507283 
L 458.827902 168.523649 
L 459.25472 176.255065 
L 459.681538 177.422901 
L 460.108356 181.709737 
L 460.961992 154.126801 
L 461.388809 170.782795 
L 461.815627 171.201056 
L 462.242445 173.813993 
L 462.669263 175.281932 
L 463.096081 174.875593 
L 463.522899 161.70773 
L 463.949716 163.604865 
L 464.376534 174.17215 
L 464.803352 173.172667 
L 465.23017 176.701689 
L 465.656988 174.611028 
L 466.083806 178.018741 
L 466.510623 153.324811 
L 466.937441 165.428626 
L 467.364259 181.374437 
L 467.791077 174.370346 
L 468.217895 182.466526 
L 468.644713 196.441078 
L 469.07153 182.880725 
L 469.498348 149.761029 
L 469.925166 135.852343 
L 470.778802 173.720249 
L 471.20562 161.471622 
L 471.632437 172.034048 
L 472.059255 158.780888 
L 472.486073 162.558357 
L 472.912891 160.555537 
L 473.339709 181.356269 
L 473.766527 173.114499 
L 474.193344 176.871503 
L 474.620162 185.721131 
L 475.04698 170.712686 
L 475.473798 133.666514 
L 475.900616 166.562556 
L 476.327434 169.122773 
L 476.754251 165.839863 
L 477.607887 171.28865 
L 478.034705 170.933492 
L 478.461523 188.534446 
L 479.315159 153.365684 
L 479.741976 176.934246 
L 480.168794 165.034949 
L 481.02243 176.45516 
L 481.449248 164.647443 
L 481.876066 148.926082 
L 482.302883 145.41798 
L 482.729701 152.536946 
L 483.156519 144.291113 
L 483.583337 120.727733 
L 484.436973 150.912007 
L 484.86379 157.351392 
L 485.290608 148.667194 
L 485.717426 150.458321 
L 486.144244 146.360663 
L 486.571062 145.621017 
L 486.99788 133.30642 
L 487.424697 137.548416 
L 487.851515 144.61973 
L 488.278333 171.124778 
L 488.705151 159.065329 
L 489.131969 157.198854 
L 489.985604 155.637132 
L 490.412422 147.457479 
L 490.83924 155.648675 
L 491.266058 179.586689 
L 491.692876 166.456965 
L 492.119694 167.850657 
L 492.546511 169.953676 
L 492.973329 180.092506 
L 493.400147 171.163543 
L 493.826965 168.308254 
L 494.253783 171.665108 
L 494.680601 130.356665 
L 495.107418 153.543966 
L 495.961054 171.433671 
L 496.387872 169.732396 
L 496.81469 160.036317 
L 497.241508 169.922789 
L 497.668326 163.801295 
L 498.095143 177.614414 
L 498.521961 173.926038 
L 498.948779 165.481535 
L 499.375597 168.778684 
L 499.802415 181.602818 
L 500.229233 148.723691 
L 500.65605 148.975612 
L 501.082868 136.916031 
L 501.509686 148.748522 
L 502.363322 159.459291 
L 502.79014 134.737207 
L 503.643775 156.852239 
L 504.070593 132.88197 
L 504.497411 136.533745 
L 504.924229 153.890884 
L 505.351047 134.269397 
L 505.777864 131.674894 
L 506.204682 147.030447 
L 506.6315 140.009573 
L 507.058318 155.360418 
L 507.485136 147.330683 
L 507.911954 147.231015 
L 508.338771 175.129716 
L 508.765589 165.864542 
L 509.192407 149.569762 
L 509.619225 151.879141 
L 510.046043 153.362002 
L 510.472861 137.760717 
L 510.899678 150.033434 
L 511.326496 139.605968 
L 511.753314 134.347745 
L 512.180132 140.884444 
L 512.60695 134.096659 
L 513.033768 150.085926 
L 513.460585 149.414376 
L 513.887403 155.475576 
L 514.314221 152.301275 
L 514.741039 140.540468 
L 515.167857 169.141093 
L 515.594675 168.645984 
L 516.021493 170.645881 
L 516.44831 163.860317 
L 517.301946 169.08714 
L 517.728764 179.397207 
L 518.155582 173.081808 
L 518.5824 174.830885 
L 519.009217 169.529188 
L 519.436035 149.823202 
L 519.862853 165.814633 
L 520.289671 162.641034 
L 520.716489 164.103923 
L 521.143307 160.457445 
L 521.996942 166.538958 
L 522.42376 136.788551 
L 522.850578 115.061026 
L 523.277396 151.92438 
L 523.704214 131.530367 
L 524.131031 150.830431 
L 524.557849 157.318587 
L 524.984667 145.829236 
L 525.411485 137.830768 
L 526.265121 150.056158 
L 526.691938 160.661906 
L 527.118756 154.613843 
L 527.545574 144.295346 
L 527.972392 165.29492 
L 528.39921 170.096913 
L 528.826028 191.286177 
L 529.252845 175.126432 
L 529.679663 144.512222 
L 530.106481 183.829691 
L 530.533299 180.693149 
L 530.960117 170.574329 
L 531.386935 155.657351 
L 531.813752 148.69679 
L 532.24057 164.074535 
L 532.667388 151.482768 
L 533.094206 149.537166 
L 533.521024 134.593174 
L 533.947842 127.562238 
L 534.37466 131.443324 
L 534.801477 150.865856 
L 535.228295 144.791671 
L 535.655113 162.369217 
L 536.081931 113.845369 
L 536.508749 125.197616 
L 536.935567 108.441499 
L 537.362384 138.335161 
L 538.21602 154.144267 
L 538.642838 149.787797 
L 539.069656 146.952706 
L 539.496474 123.567152 
L 539.923291 127.169359 
L 540.350109 142.997943 
L 540.776927 138.545336 
L 541.203745 132.846621 
L 541.630563 139.084394 
L 542.057381 127.967135 
L 542.484198 135.050846 
L 542.911016 126.044029 
L 543.337834 129.733222 
L 543.764652 137.968746 
L 544.19147 122.050063 
L 544.618288 132.617937 
L 545.045105 116.068369 
L 545.471923 121.37783 
L 545.898741 113.240891 
L 546.325559 117.653954 
L 546.752377 150.68636 
L 547.179195 126.68957 
L 547.606012 135.203404 
L 548.03283 121.43129 
L 548.459648 120.111979 
L 548.886466 103.214923 
L 549.313284 112.887765 
L 549.740102 129.83418 
L 550.166919 134.622447 
L 550.593737 124.148052 
L 551.020555 142.35954 
L 551.447373 141.006494 
L 551.874191 123.776929 
L 552.301009 150.189599 
L 552.727827 100.768991 
L 553.154644 126.093141 
L 554.00828 146.850761 
L 554.435098 145.977541 
L 554.861916 136.634893 
L 555.288734 130.786051 
L 555.715551 145.742858 
L 556.142369 134.682267 
L 556.996005 157.512379 
L 557.422823 136.045583 
L 557.849641 146.259629 
L 558.276458 161.998094 
L 558.703276 168.387209 
L 559.556912 154.37616 
L 559.98373 150.926625 
L 560.410548 164.660637 
L 560.837365 172.060037 
L 561.264183 136.23947 
L 561.691001 124.387728 
L 562.117819 139.745179 
L 562.544637 106.873361 
L 563.398272 142.480944 
L 563.82509 134.000485 
L 564.251908 122.954189 
L 564.678726 120.77115 
L 565.105544 137.806791 
L 565.532362 135.030343 
L 565.959179 165.737196 
L 566.385997 163.603783 
L 566.812815 151.450286 
L 567.239633 114.599405 
L 567.666451 150.420979 
L 568.093269 160.034552 
L 568.520086 165.465873 
L 568.946904 154.678959 
L 569.373722 155.484898 
L 569.80054 165.873579 
L 570.227358 170.632136 
L 570.654176 152.696546 
L 571.080994 155.567005 
L 571.507811 128.006489 
L 571.934629 125.296638 
L 572.361447 153.701516 
L 572.788265 157.395303 
L 573.215083 159.151461 
L 573.641901 145.618321 
L 574.068718 171.41892 
L 574.495536 148.86668 
L 574.922354 185.125898 
L 575.349172 181.807658 
L 575.77599 174.321025 
L 576.202808 173.832522 
L 576.629625 179.486187 
L 577.056443 159.921861 
L 577.910079 178.147549 
L 578.336897 174.565827 
L 578.763715 188.240532 
L 579.190532 188.976191 
L 579.61735 180.326582 
L 580.044168 156.319085 
L 580.470986 150.729036 
L 580.897804 169.107757 
L 581.324622 170.005048 
L 581.751439 180.04383 
L 582.178257 177.554196 
L 583.031893 135.634745 
L 583.458711 130.826525 
L 583.885529 157.947517 
L 584.312346 169.386237 
L 584.739164 171.955415 
L 585.165982 195.107975 
L 585.5928 178.507643 
L 586.019618 175.729961 
L 586.446436 176.000392 
L 586.873253 145.941775 
L 587.726889 171.639156 
L 588.153707 97.306831 
L 588.580525 150.322109 
L 589.434161 178.009363 
L 589.860978 167.928018 
L 590.287796 165.987826 
L 590.714614 174.331314 
L 591.141432 173.100584 
L 591.56825 178.947394 
L 591.995068 158.263814 
L 592.421885 144.496731 
L 592.848703 182.019655 
L 593.275521 153.387459 
L 593.702339 172.89656 
L 594.129157 169.040021 
L 594.555975 157.178692 
L 594.982792 173.610501 
L 595.40961 181.706168 
L 595.836428 178.59368 
L 596.263246 155.962674 
L 596.690064 166.607966 
L 597.116882 181.392871 
L 597.543699 172.39118 
L 597.970517 155.826956 
L 598.397335 165.694045 
L 598.824153 166.147123 
L 599.250971 169.966491 
L 599.677789 149.981493 
L 600.104606 157.57571 
L 600.958242 140.790908 
L 601.38506 141.038482 
L 601.811878 146.384014 
L 602.238696 155.901279 
L 602.665513 130.1235 
L 603.092331 162.683236 
L 603.519149 173.856252 
L 603.945967 167.198794 
L 604.372785 154.173446 
L 605.22642 172.498441 
L 605.653238 185.749057 
L 606.080056 183.962865 
L 606.506874 158.30518 
L 606.933692 175.856908 
L 607.36051 185.796213 
L 607.787328 161.302624 
L 608.214145 163.742064 
L 608.640963 172.969156 
L 609.067781 159.205661 
L 609.494599 159.684235 
L 609.921417 171.230216 
L 610.348235 127.138889 
L 610.775052 176.130263 
L 611.20187 182.110039 
L 611.628688 190.799212 
L 612.055506 177.049728 
L 612.482324 186.271181 
L 612.909142 157.878452 
L 613.335959 177.629089 
L 613.762777 169.782325 
L 614.189595 172.064328 
L 614.616413 182.137396 
L 615.043231 177.87391 
L 615.896866 163.249593 
L 616.323684 176.571058 
L 616.750502 149.875542 
L 617.17732 145.085205 
L 617.604138 155.011183 
L 618.030956 145.266999 
L 618.884591 173.010389 
L 619.311409 166.017992 
L 619.738227 174.27681 
L 620.165045 188.973249 
L 620.591863 175.920012 
L 621.01868 180.626799 
L 621.445498 178.370975 
L 621.872316 165.04167 
L 622.299134 162.852765 
L 622.725952 187.014377 
L 623.15277 163.689402 
L 623.579587 174.871967 
L 624.006405 170.860631 
L 624.860041 142.017311 
L 625.286859 155.256403 
L 625.713677 157.457818 
L 626.140495 169.185061 
L 626.567312 161.028758 
L 626.99413 159.417335 
L 627.420948 160.669632 
L 627.847766 166.201741 
L 628.274584 186.706623 
L 628.701402 156.668794 
L 629.128219 159.690576 
L 629.555037 159.45481 
L 630.408673 180.812465 
L 631.689126 153.894909 
L 632.115944 151.755231 
L 632.542762 163.755676 
L 632.96958 148.825105 
L 633.396398 152.848287 
L 633.823216 150.782021 
L 634.250033 137.279541 
L 634.676851 145.658834 
L 635.103669 123.77429 
L 635.530487 135.481751 
L 635.957305 139.153307 
L 636.384123 153.282401 
L 636.81094 120.58856 
L 637.237758 114.475096 
L 637.664576 92.892706 
L 638.091394 93.676794 
L 638.518212 115.774929 
L 638.94503 114.38718 
L 639.371847 124.56132 
L 639.798665 107.688033 
L 640.225483 136.378055 
L 640.652301 103.931389 
L 641.079119 97.317291 
L 641.505937 114.666344 
L 641.932754 118.040207 
L 642.359572 128.144106 
L 642.78639 133.036882 
L 643.213208 147.801568 
L 643.640026 124.979335 
L 644.066844 127.297028 
L 644.493662 123.170286 
L 644.920479 114.498656 
L 645.347297 97.294776 
L 645.774115 146.366168 
L 646.200933 161.627066 
L 646.627751 154.391214 
L 647.054569 135.828479 
L 647.481386 157.716156 
L 647.908204 154.615855 
L 648.335022 139.598127 
L 648.76184 135.991383 
L 649.188658 126.248622 
L 649.615476 167.650696 
L 650.042293 165.406699 
L 650.469111 118.310961 
L 650.895929 137.077207 
L 651.749565 166.642897 
L 652.176383 154.181229 
L 652.6032 145.37052 
L 653.030018 108.384964 
L 653.456836 120.928891 
L 653.883654 117.726512 
L 654.310472 130.163158 
L 654.73729 129.033898 
L 655.164107 120.037675 
L 656.017743 73.754007 
L 656.444561 115.066741 
L 656.871379 102.56046 
L 657.298197 61.817938 
L 657.725014 60.208889 
L 658.151832 54.012691 
L 658.57865 75.983633 
L 659.005468 68.40821 
L 659.432286 48.893225 
L 659.859104 44.640864 
L 660.285921 48.969352 
L 660.712739 35.276744 
L 661.139557 33.14485 
L 661.566375 71.961323 
L 661.993193 70.71364 
L 662.420011 84.287615 
L 662.846829 67.777306 
L 663.273646 84.04416 
L 663.700464 74.013693 
L 664.127282 106.430819 
L 664.5541 47.553733 
L 664.980918 47.34428 
L 665.407736 113.876465 
L 665.834553 127.388077 
L 666.261371 116.644276 
L 666.688189 135.684218 
L 667.115007 138.664045 
L 667.541825 138.680086 
L 668.39546 142.621238 
L 668.822278 166.16643 
L 669.249096 137.952666 
L 669.675914 123.407305 
L 670.102732 98.137393 
L 670.52955 109.92791 
L 670.956367 109.690227 
L 671.383185 109.262322 
L 671.810003 30.519592 
L 672.236821 94.318405 
L 672.663639 118.519522 
L 673.090457 119.555797 
L 673.517274 126.658663 
L 673.944092 139.386719 
L 674.37091 133.359291 
L 674.797728 138.215864 
L 675.224546 136.970117 
L 675.651364 118.971253 
L 675.651364 118.971253 
" style="fill:none;stroke:#1f77b4;stroke-linecap:square;stroke-width:1.5;"/>
   </g>
   <g id="patch_3">
    <path d="M 84.53 304 
L 84.53 16.2 
" style="fill:none;stroke:#000000;stroke-linecap:square;stroke-linejoin:miter;stroke-width:0.8;"/>
   </g>
   <g id="patch_4">
    <path d="M 703.8 304 
L 703.8 16.2 
" style="fill:none;stroke:#000000;stroke-linecap:square;stroke-linejoin:miter;stroke-width:0.8;"/>
   </g>
   <g id="patch_5">
    <path d="M 84.53 304 
L 703.8 304 
" style="fill:none;stroke:#000000;stroke-linecap:square;stroke-linejoin:miter;stroke-width:0.8;"/>
   </g>
   <g id="patch_6">
    <path d="M 84.53 16.2 
L 703.8 16.2 
" style="fill:none;stroke:#000000;stroke-linecap:square;stroke-linejoin:miter;stroke-width:0.8;"/>
   </g>
  </g>
 </g>
 <defs>
  <clipPath id="pd819262dd8">
   <rect height="287.8" width="619.27" x="84.53" y="16.2"/>
  </clipPath>
 </defs>
</svg>
