<?xml version="1.0" encoding="UTF-8" standalone="no"?>
<!-- Created with matplotlib (https://matplotlib.org/) -->

<svg
   height="328.23499pt"
   version="1.1"
   viewBox="0 0 688.12817 328.23499"
   width="688.12817pt"
   xmlns:xlink="http://www.w3.org/1999/xlink"
   xmlns="http://www.w3.org/2000/svg">
  <defs
     id="defs1">
    <style
       type="text/css"
       id="style1">
*{stroke-linecap:butt;stroke-linejoin:round;}
  </style>
  </defs>
  <g
     id="figure_1"
     transform="translate(-16.071803,-15.8)">
    <g
       id="axes_1">
      <g
         id="patch_2">
        <path
           d="M 84.53,304 H 703.8 V 16.2 H 84.53 Z"
           style="fill:#ffffff"
           id="path2" />
      </g>
      <g
         id="matplotlib.axis_1">
        <g
           id="xtick_1">
          <g
             id="line2d_1">
            <defs
               id="defs2">
              <path
                 d="M 0,0 V 3.5"
                 id="m5229551690"
                 style="stroke:#000000;stroke-width:0.8" />
            </defs>
            <g
               id="g2">
              <use
                 style="stroke:#000000;stroke-width:0.8"
                 x="108.2106"
                 xlink:href="#m5229551690"
                 y="304"
                 id="use2" />
            </g>
          </g>
          <g
             id="text_1">
            <text
               style="font-style:normal;font-weight:normal;font-size:15px;font-family:'DejaVu Sans';text-anchor:middle"
               x="108.2106"
               y="322.39764"
               id="text2">0</text>
          </g>
        </g>
        <g
           id="xtick_2">
          <g
             id="line2d_2">
            <g
               id="g3">
              <use
                 style="stroke:#000000;stroke-width:0.8"
                 x="197.57135"
                 xlink:href="#m5229551690"
                 y="304"
                 id="use3" />
            </g>
          </g>
          <g
             id="text_2">
            <text
               style="font-style:normal;font-weight:normal;font-size:15px;font-family:'DejaVu Sans';text-anchor:middle"
               x="197.57135"
               y="322.39764"
               id="text3">10000</text>
          </g>
        </g>
        <g
           id="xtick_3">
          <g
             id="line2d_3">
            <g
               id="g4">
              <use
                 style="stroke:#000000;stroke-width:0.8"
                 x="286.9321"
                 xlink:href="#m5229551690"
                 y="304"
                 id="use4" />
            </g>
          </g>
          <g
             id="text_3">
            <text
               style="font-style:normal;font-weight:normal;font-size:15px;font-family:'DejaVu Sans';text-anchor:middle"
               x="286.9321"
               y="322.39764"
               id="text4">20000</text>
          </g>
        </g>
        <g
           id="xtick_4">
          <g
             id="line2d_4">
            <g
               id="g5">
              <use
                 style="stroke:#000000;stroke-width:0.8"
                 x="376.29285"
                 xlink:href="#m5229551690"
                 y="304"
                 id="use5" />
            </g>
          </g>
          <g
             id="text_4">
            <text
               style="font-style:normal;font-weight:normal;font-size:15px;font-family:'DejaVu Sans';text-anchor:middle"
               x="376.29285"
               y="322.39764"
               id="text5">30000</text>
          </g>
        </g>
        <g
           id="xtick_5">
          <g
             id="line2d_5">
            <g
               id="g6">
              <use
                 style="stroke:#000000;stroke-width:0.8"
                 x="465.65359"
                 xlink:href="#m5229551690"
                 y="304"
                 id="use6" />
            </g>
          </g>
          <g
             id="text_5">
            <text
               style="font-style:normal;font-weight:normal;font-size:15px;font-family:'DejaVu Sans';text-anchor:middle"
               x="465.65359"
               y="322.39764"
               id="text6">40000</text>
          </g>
        </g>
        <g
           id="xtick_6">
          <g
             id="line2d_6">
            <g
               id="g7">
              <use
                 style="stroke:#000000;stroke-width:0.8"
                 x="555.01434"
                 xlink:href="#m5229551690"
                 y="304"
                 id="use7" />
            </g>
          </g>
          <g
             id="text_6">
            <text
               style="font-style:normal;font-weight:normal;font-size:15px;font-family:'DejaVu Sans';text-anchor:middle"
               x="555.01434"
               y="322.39764"
               id="text7">50000</text>
          </g>
        </g>
        <g
           id="xtick_7">
          <g
             id="line2d_7">
            <g
               id="g8">
              <use
                 style="stroke:#000000;stroke-width:0.8"
                 x="644.37512"
                 xlink:href="#m5229551690"
                 y="304"
                 id="use8" />
            </g>
          </g>
          <g
             id="text_7">
            <text
               style="font-style:normal;font-weight:normal;font-size:15px;font-family:'DejaVu Sans';text-anchor:middle"
               x="644.37512"
               y="322.39764"
               id="text8">60000</text>
          </g>
        </g>
        <g
           id="text_8">
          <text
             style="font-style:normal;font-weight:normal;font-size:15px;font-family:'DejaVu Sans';text-anchor:middle"
             x="394.16501"
             y="340.91486"
             id="text9">Episodes</text>
        </g>
      </g>
      <g
         id="matplotlib.axis_2">
        <g
           id="ytick_1">
          <g
             id="line2d_8">
            <defs
               id="defs9">
              <path
                 d="M 0,0 H -3.5"
                 id="me767f52aa5"
                 style="stroke:#000000;stroke-width:0.8" />
            </defs>
            <g
               id="g9">
              <use
                 style="stroke:#000000;stroke-width:0.8"
                 x="84.529999"
                 xlink:href="#me767f52aa5"
                 y="269.53528"
                 id="use9" />
            </g>
          </g>
          <g
             id="text_9">
            <text
               style="font-style:normal;font-weight:normal;font-size:15px;font-family:'DejaVu Sans';text-anchor:end"
               x="77.529999"
               y="275.23413"
               id="text10">0.002</text>
          </g>
        </g>
        <g
           id="ytick_2">
          <g
             id="line2d_9">
            <g
               id="g10">
              <use
                 style="stroke:#000000;stroke-width:0.8"
                 x="84.529999"
                 xlink:href="#me767f52aa5"
                 y="206.1387"
                 id="use10" />
            </g>
          </g>
          <g
             id="text_10">
            <text
               style="font-style:normal;font-weight:normal;font-size:15px;font-family:'DejaVu Sans';text-anchor:end"
               x="77.529999"
               y="211.83752"
               id="text11">0.004</text>
          </g>
        </g>
        <g
           id="ytick_3">
          <g
             id="line2d_10">
            <g
               id="g11">
              <use
                 style="stroke:#000000;stroke-width:0.8"
                 x="84.529999"
                 xlink:href="#me767f52aa5"
                 y="142.7421"
                 id="use11" />
            </g>
          </g>
          <g
             id="text_11">
            <text
               style="font-style:normal;font-weight:normal;font-size:15px;font-family:'DejaVu Sans';text-anchor:end"
               x="77.529999"
               y="148.44093"
               id="text12">0.006</text>
          </g>
        </g>
        <g
           id="ytick_4">
          <g
             id="line2d_11">
            <g
               id="g12">
              <use
                 style="stroke:#000000;stroke-width:0.8"
                 x="84.529999"
                 xlink:href="#me767f52aa5"
                 y="79.345505"
                 id="use12" />
            </g>
          </g>
          <g
             id="text_12">
            <text
               style="font-style:normal;font-weight:normal;font-size:15px;font-family:'DejaVu Sans';text-anchor:end"
               x="77.529999"
               y="85.044334"
               id="text13">0.008</text>
          </g>
        </g>
        <g
           id="text_13">
          <text
             style="font-style:normal;font-weight:normal;font-size:15px;font-family:'DejaVu Sans';text-anchor:middle"
             transform="rotate(-90,27.468281,160.1)"
             x="27.468281"
             y="160.10001"
             id="text14">Entropy Coefficient</text>
        </g>
      </g>
      <g
         id="line2d_12">
        <path
           clip-path="url(#p3f58294cb4)"
           d="m 112.67864,212.50807 4.46803,14.26165 4.46804,27.33563 4.46804,6.87717 4.46804,3.85555 4.46803,-3.47219 4.46804,9.37498 4.46804,1.44242 4.46804,2.7964 4.46803,2.18249 4.46804,3.19663 4.46804,3.02281 4.46804,0.27394 4.46803,0.34605 4.46804,0.94789 4.46804,-0.0337 4.46804,0.22639 4.46803,-0.095 4.46804,0.25307 4.46804,-1.60799 4.46804,2.70557 4.46803,1.71884 4.46804,-0.037 4.46804,0.91843 4.46804,1.13163 4.46803,0.27079 4.46804,0.51767 4.46804,-0.0299 4.46804,-1.76099 4.46803,0.34408 4.46804,0.17407 4.46804,0.25493 4.46804,-1.31415 4.46803,-2.36881 4.46804,-1.53532 4.46804,-2.26907 4.46804,-2.46216 4.46803,-1.77357 4.46804,1.73251 4.46804,-3.54145 4.46804,-0.10853 4.46803,-1.57631 4.46804,1.41023 4.46804,-1.83903 4.46804,-2.85209 4.46803,-1.12045 4.46804,1.37717 4.46804,-1.07852 4.46804,0.30477 4.46804,-2.20883 4.46803,-3.27291 4.46804,-2.59301 4.46804,-3.64302 4.46803,-4.84717 4.46804,-3.3882 4.46804,-3.14086 4.46804,-5.36234 4.46804,-3.63242 4.46803,-7.04737 4.46804,-2.38485 4.46804,-8.5388 4.46803,-0.19528 4.46804,-3.01794 4.46804,-1.42318 4.46804,-8.16355 4.46803,-7.8129 4.46804,-3.9537 4.46804,-5.57997 4.46804,-4.06046 4.46804,-7.2205 4.46803,-10.23228 4.46804,-2.47618 4.46804,-7.35518 4.46803,-10.44516 4.46804,0.56448 4.46804,-9.40384 4.46804,-0.93404 4.46804,1.62847 4.46803,-8.84466 4.46804,-6.81457 4.46804,-8.35451 4.46803,-9.31345 4.46804,-7.907483 4.46804,-2.072161 4.46804,-4.061665 4.46803,-2.403228 4.46804,-5.508771 4.46804,-0.09878 4.46804,-5.550823 4.46803,-7.604816 4.46804,-2.318281 4.46804,1.848567 4.46804,-3.138325 4.46804,-8.68258 4.46803,1.040243 4.46804,-3.796503 4.46804,-0.610413 4.46804,1.358779 4.46803,0.822878 4.46804,-3.650904 4.46804,-3.728516 4.46804,-5.31579 4.46803,3.960879 4.46804,-8.662536 4.46804,4.863877 4.46804,-4.862342 4.46803,2.784571 4.46804,0.611918 4.46804,-12.762665 4.46804,-2.177849 4.46803,6.172765 4.46804,-6.685639 4.46804,2.462287 4.46804,-1.73804 4.46803,5.948078 4.46804,3.325372 4.46804,-1.721891 4.46804,-6.045675 4.46803,8.089555 4.46804,-6.39503 4.46804,0.743967 4.46804,3.103667 4.46803,1.810928 4.46804,-0.208185 4.46804,4.904026 4.46804,-6.843312 4.46803,2.070036"
           style="fill:none;stroke:#1f77b4;stroke-width:1.5;stroke-linecap:square"
           id="path14" />
      </g>
      <g
         id="patch_3">
        <path
           d="M 84.53,304 V 16.2"
           style="fill:none;stroke:#000000;stroke-width:0.8;stroke-linecap:square;stroke-linejoin:miter"
           id="path15" />
      </g>
      <g
         id="patch_4">
        <path
           d="M 703.8,304 V 16.2"
           style="fill:none;stroke:#000000;stroke-width:0.8;stroke-linecap:square;stroke-linejoin:miter"
           id="path16" />
      </g>
      <g
         id="patch_5">
        <path
           d="M 84.53,304 H 703.8"
           style="fill:none;stroke:#000000;stroke-width:0.8;stroke-linecap:square;stroke-linejoin:miter"
           id="path17" />
      </g>
      <g
         id="patch_6">
        <path
           d="M 84.53,16.2 H 703.8"
           style="fill:none;stroke:#000000;stroke-width:0.8;stroke-linecap:square;stroke-linejoin:miter"
           id="path18" />
      </g>
    </g>
  </g>
  <defs
     id="defs18">
    <clipPath
       id="p3f58294cb4">
      <rect
         height="287.79999"
         width="619.27002"
         x="84.529999"
         y="16.200001"
         id="rect18" />
    </clipPath>
  </defs>
</svg>
