<?xml version="1.0" encoding="UTF-8" standalone="no"?>
<!-- Created with matplotlib (https://matplotlib.org/) -->

<svg
   height="327.3642pt"
   version="1.1"
   viewBox="0 0 688.12354 327.3642"
   width="688.12354pt"
   xmlns:xlink="http://www.w3.org/1999/xlink"
   xmlns="http://www.w3.org/2000/svg">
  <defs
     id="defs1">
    <style
       type="text/css"
       id="style1">
*{stroke-linecap:butt;stroke-linejoin:round;}
  </style>
  </defs>
  <g
     id="figure_1"
     transform="translate(-16.076478,-16.670786)">
    <g
       id="axes_1">
      <g
         id="patch_2">
        <path
           d="M 60.68,304 H 703.8 V 17.598646 H 60.68 Z"
           style="fill:#ffffff"
           id="path2" />
      </g>
      <g
         id="matplotlib.axis_1">
        <g
           id="xtick_1">
          <g
             id="line2d_1">
            <defs
               id="defs2">
              <path
                 d="M 0,0 V 3.5"
                 id="m3c2d25bd05"
                 style="stroke:#000000;stroke-width:0.8" />
            </defs>
            <g
               id="g2">
              <use
                 style="stroke:#000000;stroke-width:0.8"
                 x="85.272614"
                 xlink:href="#m3c2d25bd05"
                 y="304"
                 id="use2" />
            </g>
          </g>
          <g
             id="text_1">
            <text
               style="font-style:normal;font-weight:normal;font-size:15px;font-family:'DejaVu Sans';text-anchor:middle"
               x="85.272614"
               y="322.39764"
               id="text2">0</text>
          </g>
        </g>
        <g
           id="xtick_2">
          <g
             id="line2d_2">
            <g
               id="g3">
              <use
                 style="stroke:#000000;stroke-width:0.8"
                 x="178.07492"
                 xlink:href="#m3c2d25bd05"
                 y="304"
                 id="use3" />
            </g>
          </g>
          <g
             id="text_2">
            <text
               style="font-style:normal;font-weight:normal;font-size:15px;font-family:'DejaVu Sans';text-anchor:middle"
               x="178.07492"
               y="322.39764"
               id="text3">10000</text>
          </g>
        </g>
        <g
           id="xtick_3">
          <g
             id="line2d_3">
            <g
               id="g4">
              <use
                 style="stroke:#000000;stroke-width:0.8"
                 x="270.87723"
                 xlink:href="#m3c2d25bd05"
                 y="304"
                 id="use4" />
            </g>
          </g>
          <g
             id="text_3">
            <text
               style="font-style:normal;font-weight:normal;font-size:15px;font-family:'DejaVu Sans';text-anchor:middle"
               x="270.87723"
               y="322.39764"
               id="text4">20000</text>
          </g>
        </g>
        <g
           id="xtick_4">
          <g
             id="line2d_4">
            <g
               id="g5">
              <use
                 style="stroke:#000000;stroke-width:0.8"
                 x="363.67953"
                 xlink:href="#m3c2d25bd05"
                 y="304"
                 id="use5" />
            </g>
          </g>
          <g
             id="text_4">
            <text
               style="font-style:normal;font-weight:normal;font-size:15px;font-family:'DejaVu Sans';text-anchor:middle"
               x="363.67953"
               y="322.39764"
               id="text5">30000</text>
          </g>
        </g>
        <g
           id="xtick_5">
          <g
             id="line2d_5">
            <g
               id="g6">
              <use
                 style="stroke:#000000;stroke-width:0.8"
                 x="456.48184"
                 xlink:href="#m3c2d25bd05"
                 y="304"
                 id="use6" />
            </g>
          </g>
          <g
             id="text_5">
            <text
               style="font-style:normal;font-weight:normal;font-size:15px;font-family:'DejaVu Sans';text-anchor:middle"
               x="456.48184"
               y="322.39764"
               id="text6">40000</text>
          </g>
        </g>
        <g
           id="xtick_6">
          <g
             id="line2d_6">
            <g
               id="g7">
              <use
                 style="stroke:#000000;stroke-width:0.8"
                 x="549.28418"
                 xlink:href="#m3c2d25bd05"
                 y="304"
                 id="use7" />
            </g>
          </g>
          <g
             id="text_6">
            <text
               style="font-style:normal;font-weight:normal;font-size:15px;font-family:'DejaVu Sans';text-anchor:middle"
               x="549.28418"
               y="322.39764"
               id="text7">50000</text>
          </g>
        </g>
        <g
           id="xtick_7">
          <g
             id="line2d_7">
            <g
               id="g8">
              <use
                 style="stroke:#000000;stroke-width:0.8"
                 x="642.08649"
                 xlink:href="#m3c2d25bd05"
                 y="304"
                 id="use8" />
            </g>
          </g>
          <g
             id="text_7">
            <text
               style="font-style:normal;font-weight:normal;font-size:15px;font-family:'DejaVu Sans';text-anchor:middle"
               x="642.08649"
               y="322.39764"
               id="text8">60000</text>
          </g>
        </g>
        <g
           id="text_8">
          <text
             style="font-style:normal;font-weight:normal;font-size:15px;font-family:'DejaVu Sans';text-anchor:middle"
             x="382.23999"
             y="340.91486"
             id="text9">Episodes</text>
        </g>
      </g>
      <g
         id="matplotlib.axis_2">
        <g
           id="ytick_1">
          <g
             id="line2d_8">
            <defs
               id="defs9">
              <path
                 d="M 0,0 H -3.5"
                 id="ma8f5411c05"
                 style="stroke:#000000;stroke-width:0.8" />
            </defs>
            <g
               id="g9">
              <use
                 style="stroke:#000000;stroke-width:0.8"
                 x="60.68"
                 xlink:href="#ma8f5411c05"
                 y="290.98175"
                 id="use9" />
            </g>
          </g>
          <g
             id="text_9">
            <text
               style="font-style:normal;font-weight:normal;font-size:15px;font-family:'DejaVu Sans';text-anchor:end"
               x="53.68"
               y="296.68057"
               id="text10">0</text>
          </g>
        </g>
        <g
           id="ytick_2">
          <g
             id="line2d_9">
            <g
               id="g10">
              <use
                 style="stroke:#000000;stroke-width:0.8"
                 x="60.68"
                 xlink:href="#ma8f5411c05"
                 y="237.20636"
                 id="use10" />
            </g>
          </g>
          <g
             id="text_10">
            <text
               style="font-style:normal;font-weight:normal;font-size:15px;font-family:'DejaVu Sans';text-anchor:end"
               x="53.68"
               y="242.90518"
               id="text11">10</text>
          </g>
        </g>
        <g
           id="ytick_3">
          <g
             id="line2d_10">
            <g
               id="g11">
              <use
                 style="stroke:#000000;stroke-width:0.8"
                 x="60.68"
                 xlink:href="#ma8f5411c05"
                 y="183.43097"
                 id="use11" />
            </g>
          </g>
          <g
             id="text_11">
            <text
               style="font-style:normal;font-weight:normal;font-size:15px;font-family:'DejaVu Sans';text-anchor:end"
               x="53.68"
               y="189.12979"
               id="text12">20</text>
          </g>
        </g>
        <g
           id="ytick_4">
          <g
             id="line2d_11">
            <g
               id="g12">
              <use
                 style="stroke:#000000;stroke-width:0.8"
                 x="60.68"
                 xlink:href="#ma8f5411c05"
                 y="129.65556"
                 id="use12" />
            </g>
          </g>
          <g
             id="text_12">
            <text
               style="font-style:normal;font-weight:normal;font-size:15px;font-family:'DejaVu Sans';text-anchor:end"
               x="53.68"
               y="135.35439"
               id="text13">30</text>
          </g>
        </g>
        <g
           id="ytick_5">
          <g
             id="line2d_12">
            <g
               id="g13">
              <use
                 style="stroke:#000000;stroke-width:0.8"
                 x="60.68"
                 xlink:href="#ma8f5411c05"
                 y="75.880165"
                 id="use13" />
            </g>
          </g>
          <g
             id="text_13">
            <text
               style="font-style:normal;font-weight:normal;font-size:15px;font-family:'DejaVu Sans';text-anchor:end"
               x="53.68"
               y="81.578995"
               id="text14">40</text>
          </g>
        </g>
        <g
           id="ytick_6">
          <g
             id="line2d_13">
            <g
               id="g14">
              <use
                 style="stroke:#000000;stroke-width:0.8"
                 x="60.68"
                 xlink:href="#ma8f5411c05"
                 y="22.104771"
                 id="use14" />
            </g>
          </g>
          <g
             id="text_14">
            <text
               style="font-style:normal;font-weight:normal;font-size:15px;font-family:'DejaVu Sans';text-anchor:end"
               x="53.68"
               y="27.803598"
               id="text15">50</text>
          </g>
        </g>
        <g
           id="text_15">
          <text
             style="font-style:normal;font-weight:normal;font-size:15px;font-family:'DejaVu Sans';text-anchor:middle"
             transform="rotate(-90,27.472969,160.79932)"
             x="27.472969"
             y="160.79932"
             id="text16">Reward Components Mean (Max 50)</text>
        </g>
      </g>
      <g
         id="line2d_14">
        <path
           clip-path="url(#p9bc37bba78)"
           d="m 89.912727,88.243792 4.640116,-12.953711 4.640115,-18.675997 4.640112,2.007636 4.64012,-1.372559 4.64011,5.512383 4.64012,-7.022296 4.64012,-7.535768 4.64011,-3.865571 4.64012,-0.847552 4.64011,-0.380143 4.64012,2.540397 4.64011,-2.065083 4.64012,2.367244 4.64011,-3.475832 4.64012,-0.180056 4.64011,0.32432 4.64012,-0.285021 4.64011,-0.415623 4.64012,-1.970497 4.64012,-0.64307 4.64011,-1.551815 4.64012,0.331347 4.64011,0.326592 4.64012,1.03687 4.64011,-1.774937 4.64012,1.14646 4.64011,-0.730436 4.64012,-0.239876 4.64011,1.270858 4.64012,-2.05707 4.64012,0.498787 4.64011,-1.796319 4.64012,0.285383 4.64011,0.828225 4.64012,-1.253945 4.64011,-0.103288 4.64012,-0.717294 4.64011,1.157164 4.64012,-1.043645 4.64011,1.480197 4.64012,-0.6118 4.64012,-0.365571 4.64011,0.536581 4.64012,-1.235878 4.64011,1.120384 4.64012,0.777284 4.64011,-1.309564 4.64012,2.041448 4.64011,-0.78183 4.64012,-1.242099 4.64011,0.154866 4.64012,-1.206329 4.64012,0.541162 4.64011,-1.121426 4.64012,-0.211867 4.64011,0.103754 4.64012,-0.50756 4.64011,0.349695 4.64012,0.77053 4.64011,-1.37272 4.64012,0.286881 4.64011,0.740739 4.64012,0.361109 4.64011,-0.419304 4.64012,0.555792 4.64012,-1.031086 4.64011,-0.811769 4.64012,-0.517831 4.64011,1.431917 4.64012,-0.290316 4.64011,0.634515 4.64012,-1.482125 4.64011,0.36935 4.64012,0.772866 4.64011,-1.066105 4.64012,-0.181873 4.64012,0.739177 4.64011,0.219412 4.64012,-0.802384 4.64011,-0.345254 4.64012,-0.310008 4.64011,0.0895 4.64012,1.151267 4.64011,-0.773803 4.64012,-0.434681 4.64011,-0.642017 4.64012,1.313763 4.64012,-0.98408 4.64011,1.511737 4.64012,-0.438332 4.64011,-0.470604 4.64012,0.07727 4.64011,0.450154 4.64012,-0.581685 4.64011,0.226373 4.64012,-0.06728 4.64011,0.228915 4.64012,-0.757209 4.64012,1.054656 4.64011,0.09421 4.64012,-1.295157 4.64011,-0.02659 4.64012,0.651465 4.64011,-0.819629 4.64012,0.56387 4.64011,-0.529791 4.64012,0.04595 4.64012,1.123634 4.64011,-0.533312 4.64012,0.365865 4.64011,-0.381464 4.64012,-0.144088 4.64011,-0.356882 4.64012,-0.01085 4.64011,-0.222487 4.64012,-0.366977 4.64011,0.574992 4.64012,0.761775 4.64011,-0.790388 4.64012,0.257723 4.64012,0.80891 4.64011,0.07512 4.64012,-1.230266 4.64011,0.957646 4.64012,-1.593357 4.64011,1.860038"
           style="fill:none;stroke:#1f77b4;stroke-width:1.5;stroke-linecap:square"
           id="path16" />
      </g>
      <g
         id="line2d_15">
        <path
           clip-path="url(#p9bc37bba78)"
           d="m 89.912727,77.279283 4.640116,-1.99668 4.640115,-14.494791 4.640112,3.605205 4.64012,-12.783639 4.64011,0.670088 4.64012,-2.009665 4.64012,0.511257 4.64011,-2.170135 4.64012,-5.399905 4.64011,3.36817 4.64012,4.237058 4.64011,-3.997983 4.64012,0.841984 4.64011,-0.888528 4.64012,-1.010614 4.64011,-1.018251 4.64012,3.452776 4.64011,-5.89724 4.64012,2.036001 4.64012,-2.44762 4.64011,-1.602209 4.64012,1.283629 4.64011,-2.606862 4.64012,4.761316 4.64011,-0.934015 4.64012,1.004453 4.64011,-2.984334 4.64012,-0.202988 4.64011,3.936615 4.64012,-4.975586 4.64012,2.732348 4.64011,-0.440392 4.64012,-2.27868 4.64011,0.315293 4.64012,-0.904799 4.64011,0.942407 4.64012,-0.237925 4.64011,0.886541 4.64012,-0.730066 4.64011,-0.541937 4.64012,-0.23262 4.64012,1.412414 4.64011,-2.453844 4.64012,1.233234 4.64011,0.958166 4.64012,-1.279093 4.64011,1.134212 4.64012,-1.393759 4.64011,0.48175 4.64012,-1.348673 4.64011,0.440063 4.64012,1.364412 4.64012,-0.835776 4.64011,0.17929 4.64012,-0.371365 4.64011,-2.636826 4.64012,-1.146024 4.64011,3.74101 4.64012,-1.009507 4.64011,-0.829645 4.64012,2.278668 4.64011,0.650503 4.64012,-1.563609 4.64011,-0.43252 4.64012,1.767954 4.64012,-0.676994 4.64011,-0.580741 4.64012,-1.174484 4.64011,0.241463 4.64012,-0.782615 4.64011,1.164582 4.64012,0.402274 4.64011,-0.493192 4.64012,-0.719556 4.64011,-1.19315 4.64012,1.536401 4.64012,0.866366 4.64011,-0.266322 4.64012,0.192141 4.64011,0.532825 4.64012,-0.06749 4.64011,-0.163619 4.64012,1.145653 4.64011,0.328817 4.64012,-2.179536 4.64011,-2.741937 4.64012,1.673262 4.64012,0.893118 4.64011,-0.502615 4.64012,1.30504 4.64011,1.402488 4.64012,-1.740871 4.64011,-1.306428 4.64012,-0.601623 4.64011,0.594313 4.64012,-0.921732 4.64011,2.856326 4.64012,-2.505298 4.64012,0.31376 4.64011,2.16437 4.64012,1.256559 4.64011,-1.856545 4.64012,-0.211397 4.64011,-2.422302 4.64012,2.360062 4.64011,-3.097627 4.64012,3.176666 4.64012,-1.744833 4.64011,1.056637 4.64012,0.493057 4.64011,-0.715512 4.64012,-0.419411 4.64011,1.526736 4.64012,-0.550192 4.64011,-1.80591 4.64012,1.246041 4.64011,1.22382 4.64012,-1.215092 4.64011,-0.111525 4.64012,-0.920984 4.64012,0.141454 4.64011,3.296338 4.64012,-3.241022 4.64011,0.260946 4.64012,1.344135 4.64011,-2.733053"
           style="fill:none;stroke:#ff7f0e;stroke-width:1.5;stroke-linecap:square"
           id="path17" />
      </g>
      <g
         id="line2d_16">
        <path
           clip-path="url(#p9bc37bba78)"
           d="m 89.912727,290.98176 h 4.640116 4.640115 4.640112 l 4.64012,-0.96796 4.64011,0.96796 h 4.64012 l 4.64012,-1.93592 4.64011,1.66704 4.64012,-4.89356 4.64011,1.29061 4.64012,1.82836 4.64011,0.80663 4.64012,0.48398 4.64011,-1.82836 4.64012,-2.31234 4.64011,-2.47367 4.64012,2.90387 4.64011,-10.056 4.64012,12.31457 h 4.64012 l 4.64011,-23.44608 4.64012,6.39927 4.64011,7.74366 4.64012,6.39927 4.64011,-18.33741 4.64012,6.07662 4.64011,0.64531 4.64012,1.02173 4.64011,0.75286 4.64012,-7.85121 4.64012,2.63499 4.64011,-16.29394 4.64012,4.19448 4.64011,-6.88325 4.64012,-10.70131 4.64011,4.57091 4.64012,-11.07773 4.64011,10.86263 4.64012,-31.72748 4.64011,31.72748 4.64012,-12.58344 4.64012,-1.55949 4.64011,1.72081 4.64012,-10.4862 4.64011,13.5514 4.64012,11.45416 4.64011,-15.27221 4.64012,10.4862 4.64011,-20.05822 4.64012,-17.96099 4.64011,31.72749 4.64012,-35.00778 4.64012,22.90831 4.64011,-21.13373 4.64012,-25.59709 4.64011,-4.5709 4.64012,-8.49652 4.64011,26.29617 4.64012,-13.49762 4.64011,-7.58233 4.64012,-9.35692 4.64011,26.45749 4.64012,-6.61437 4.64011,-14.41181 4.64012,2.04347 4.64012,-14.94956 4.64011,-8.22764 4.64012,-2.31234 4.64011,1.55949 4.64012,-2.52745 4.64011,-15.43354 4.64012,17.42323 4.64011,-8.12008 4.64012,6.39927 4.64011,-13.92783 4.64012,-6.18417 4.64012,12.95987 4.64011,-2.8501 4.64012,5.32377 4.64011,-11.50793 4.64012,-4.08693 4.64011,4.3558 4.64012,3.4954 4.64011,0.32265 4.64012,-4.30203 4.64011,-15.43354 4.64012,-5.10866 4.64012,13.3363 4.64011,-7.421 4.64012,-0.16133 4.64011,11.77681 4.64012,-12.31456 4.64011,11.61548 4.64012,-3.97938 4.64011,-2.95765 4.64012,-8.28141 4.64011,12.79855 4.64012,-13.17497 4.64012,3.7105 4.64011,16.67037 4.64012,3.81805 4.64011,-12.69099 4.64012,7.421 4.64011,-15.32598 4.64012,5.10866 4.64011,-22.047913 4.64012,12.583443 4.64012,2.20479 4.64011,2.25857 4.64012,10.53998 4.64011,-18.66007 4.64012,4.03316 4.64011,1.82836 4.64012,-3.44162 4.64011,-3.54918 4.64012,-1.129284 4.64011,7.582334 4.64012,-3.4954 4.64011,5.00111 4.64012,-10.486204 4.64012,6.883254 4.64011,20.38087 4.64012,-20.70353 4.64011,20.38088 4.64012,-23.01587 4.64011,12.26079"
           style="fill:none;stroke:#2ca02c;stroke-width:1.5;stroke-linecap:square"
           id="path18" />
      </g>
      <g
         id="patch_3">
        <path
           d="M 60.68,304 V 17.598646"
           style="fill:none;stroke:#000000;stroke-width:0.8;stroke-linecap:square;stroke-linejoin:miter"
           id="path19" />
      </g>
      <g
         id="patch_4">
        <path
           d="M 703.8,304 V 17.598646"
           style="fill:none;stroke:#000000;stroke-width:0.8;stroke-linecap:square;stroke-linejoin:miter"
           id="path20" />
      </g>
      <g
         id="patch_5">
        <path
           d="M 60.68,304 H 703.8"
           style="fill:none;stroke:#000000;stroke-width:0.8;stroke-linecap:square;stroke-linejoin:miter"
           id="path21" />
      </g>
      <g
         id="patch_6">
        <path
           d="M 60.68,17.598646 H 703.8"
           style="fill:none;stroke:#000000;stroke-width:0.8;stroke-linecap:square;stroke-linejoin:miter"
           id="path22" />
      </g>
      <g
         id="legend_1">
        <g
           id="patch_7">
          <path
             d="M 505.94297,296.5 H 693.3 q 3,0 3,-3 v -64.55156 q 0,-3 -3,-3 H 505.94297 q -3,0 -3,3 V 293.5 q 0,3 3,3 z"
             style="opacity:0.8;fill:#ffffff;stroke:#cccccc;stroke-linejoin:miter"
             id="path23" />
        </g>
        <g
           id="line2d_17">
          <path
             d="m 508.94297,238.09609 h 30"
             style="fill:none;stroke:#1f77b4;stroke-width:1.5;stroke-linecap:square"
             id="path24" />
        </g>
        <g
           id="line2d_18" />
        <g
           id="text_16">
          <text
             style="font-style:normal;font-weight:normal;font-size:15px;font-family:'DejaVu Sans';text-anchor:start"
             x="550.94299"
             y="243.3461"
             id="text24">position reward</text>
        </g>
        <g
           id="line2d_19">
          <path
             d="m 508.94297,260.11328 h 30"
             style="fill:none;stroke:#ff7f0e;stroke-width:1.5;stroke-linecap:square"
             id="path25" />
        </g>
        <g
           id="line2d_20" />
        <g
           id="text_17">
          <text
             style="font-style:normal;font-weight:normal;font-size:15px;font-family:'DejaVu Sans';text-anchor:start"
             x="550.94299"
             y="265.36328"
             id="text25">orientation reward</text>
        </g>
        <g
           id="line2d_21">
          <path
             d="m 508.94297,282.13047 h 30"
             style="fill:none;stroke:#2ca02c;stroke-width:1.5;stroke-linecap:square"
             id="path26" />
        </g>
        <g
           id="line2d_22" />
        <g
           id="text_18">
          <text
             style="font-style:normal;font-weight:normal;font-size:15px;font-family:'DejaVu Sans';text-anchor:start"
             x="550.94299"
             y="287.38046"
             id="text26">bonus reward</text>
        </g>
      </g>
    </g>
  </g>
  <defs
     id="defs26">
    <clipPath
       id="p9bc37bba78">
      <rect
         height="286.40137"
         width="643.12"
         x="60.68"
         y="17.598646"
         id="rect26" />
    </clipPath>
  </defs>
</svg>
