<?xml version="1.0" encoding="UTF-8" standalone="no"?>
<svg
   width="685.32172pt"
   height="328.23499pt"
   viewBox="0 0 685.32172 328.23499"
   version="1.1"
   xmlns:xlink="http://www.w3.org/1999/xlink"
   xmlns="http://www.w3.org/2000/svg">
  <defs
     id="defs1">
    <style
       type="text/css"
       id="style1">*{stroke-linejoin: round; stroke-linecap: butt}</style>
  </defs>
  <g
     id="figure_1"
     transform="translate(-16.166491,-15.8)">
    <g
       id="axes_1">
      <g
         id="patch_2">
        <path
           d="M 60.77,304 H 690.28333 V 16.2 H 60.77 Z"
           style="fill:#ffffff"
           id="path2" />
      </g>
      <g
         id="matplotlib.axis_1">
        <g
           id="xtick_1">
          <g
             id="line2d_1">
            <defs
               id="defs2">
              <path
                 id="m0a65ef9fa1"
                 d="M 0,0 V 3.5"
                 style="stroke:#000000;stroke-width:0.8" />
            </defs>
            <g
               id="g2">
              <use
                 xlink:href="#m0a65ef9fa1"
                 x="85.145096"
                 y="304"
                 style="stroke:#000000;stroke-width:0.8"
                 id="use2" />
            </g>
          </g>
          <g
             id="text_1">
            <text
               style="font-style:normal;font-variant:normal;font-weight:normal;font-stretch:normal;font-size:15px;line-height:normal;font-family:'DejaVu Sans', 'Bitstream Vera Sans', 'Computer Modern Sans Serif', 'Lucida Grande', Verdana, Geneva, Lucid, Arial, Helvetica, 'Avant Garde', sans-serif;text-anchor:middle"
               x="85.145096"
               y="322.39764"
               id="text2">0</text>
          </g>
        </g>
        <g
           id="xtick_2">
          <g
             id="line2d_2">
            <g
               id="g3">
              <use
                 xlink:href="#m0a65ef9fa1"
                 x="169.92804"
                 y="304"
                 style="stroke:#000000;stroke-width:0.8"
                 id="use3" />
            </g>
          </g>
          <g
             id="text_2">
            <text
               style="font-style:normal;font-variant:normal;font-weight:normal;font-stretch:normal;font-size:15px;line-height:normal;font-family:'DejaVu Sans', 'Bitstream Vera Sans', 'Computer Modern Sans Serif', 'Lucida Grande', Verdana, Geneva, Lucid, Arial, Helvetica, 'Avant Garde', sans-serif;text-anchor:middle"
               x="169.92804"
               y="322.39764"
               id="text3">10000</text>
          </g>
        </g>
        <g
           id="xtick_3">
          <g
             id="line2d_3">
            <g
               id="g4">
              <use
                 xlink:href="#m0a65ef9fa1"
                 x="254.71098"
                 y="304"
                 style="stroke:#000000;stroke-width:0.8"
                 id="use4" />
            </g>
          </g>
          <g
             id="text_3">
            <text
               style="font-style:normal;font-variant:normal;font-weight:normal;font-stretch:normal;font-size:15px;line-height:normal;font-family:'DejaVu Sans', 'Bitstream Vera Sans', 'Computer Modern Sans Serif', 'Lucida Grande', Verdana, Geneva, Lucid, Arial, Helvetica, 'Avant Garde', sans-serif;text-anchor:middle"
               x="254.71098"
               y="322.39764"
               id="text4">20000</text>
          </g>
        </g>
        <g
           id="xtick_4">
          <g
             id="line2d_4">
            <g
               id="g5">
              <use
                 xlink:href="#m0a65ef9fa1"
                 x="339.49393"
                 y="304"
                 style="stroke:#000000;stroke-width:0.8"
                 id="use5" />
            </g>
          </g>
          <g
             id="text_4">
            <text
               style="font-style:normal;font-variant:normal;font-weight:normal;font-stretch:normal;font-size:15px;line-height:normal;font-family:'DejaVu Sans', 'Bitstream Vera Sans', 'Computer Modern Sans Serif', 'Lucida Grande', Verdana, Geneva, Lucid, Arial, Helvetica, 'Avant Garde', sans-serif;text-anchor:middle"
               x="339.49393"
               y="322.39764"
               id="text5">30000</text>
          </g>
        </g>
        <g
           id="xtick_5">
          <g
             id="line2d_5">
            <g
               id="g6">
              <use
                 xlink:href="#m0a65ef9fa1"
                 x="424.27686"
                 y="304"
                 style="stroke:#000000;stroke-width:0.8"
                 id="use6" />
            </g>
          </g>
          <g
             id="text_5">
            <text
               style="font-style:normal;font-variant:normal;font-weight:normal;font-stretch:normal;font-size:15px;line-height:normal;font-family:'DejaVu Sans', 'Bitstream Vera Sans', 'Computer Modern Sans Serif', 'Lucida Grande', Verdana, Geneva, Lucid, Arial, Helvetica, 'Avant Garde', sans-serif;text-anchor:middle"
               x="424.27686"
               y="322.39764"
               id="text6">40000</text>
          </g>
        </g>
        <g
           id="xtick_6">
          <g
             id="line2d_6">
            <g
               id="g7">
              <use
                 xlink:href="#m0a65ef9fa1"
                 x="509.05978"
                 y="304"
                 style="stroke:#000000;stroke-width:0.8"
                 id="use7" />
            </g>
          </g>
          <g
             id="text_6">
            <text
               style="font-style:normal;font-variant:normal;font-weight:normal;font-stretch:normal;font-size:15px;line-height:normal;font-family:'DejaVu Sans', 'Bitstream Vera Sans', 'Computer Modern Sans Serif', 'Lucida Grande', Verdana, Geneva, Lucid, Arial, Helvetica, 'Avant Garde', sans-serif;text-anchor:middle"
               x="509.05978"
               y="322.39764"
               id="text7">50000</text>
          </g>
        </g>
        <g
           id="xtick_7">
          <g
             id="line2d_7">
            <g
               id="g8">
              <use
                 xlink:href="#m0a65ef9fa1"
                 x="593.84271"
                 y="304"
                 style="stroke:#000000;stroke-width:0.8"
                 id="use8" />
            </g>
          </g>
          <g
             id="text_7">
            <text
               style="font-style:normal;font-variant:normal;font-weight:normal;font-stretch:normal;font-size:15px;line-height:normal;font-family:'DejaVu Sans', 'Bitstream Vera Sans', 'Computer Modern Sans Serif', 'Lucida Grande', Verdana, Geneva, Lucid, Arial, Helvetica, 'Avant Garde', sans-serif;text-anchor:middle"
               x="593.84271"
               y="322.39764"
               id="text8">60000</text>
          </g>
        </g>
        <g
           id="xtick_8">
          <g
             id="line2d_8">
            <g
               id="g9">
              <use
                 xlink:href="#m0a65ef9fa1"
                 x="678.62567"
                 y="304"
                 style="stroke:#000000;stroke-width:0.8"
                 id="use9" />
            </g>
          </g>
          <g
             id="text_8">
            <text
               style="font-style:normal;font-variant:normal;font-weight:normal;font-stretch:normal;font-size:15px;line-height:normal;font-family:'DejaVu Sans', 'Bitstream Vera Sans', 'Computer Modern Sans Serif', 'Lucida Grande', Verdana, Geneva, Lucid, Arial, Helvetica, 'Avant Garde', sans-serif;text-anchor:middle"
               x="678.62567"
               y="322.39764"
               id="text9">70000</text>
          </g>
        </g>
        <g
           id="text_9">
          <text
             style="font-style:normal;font-variant:normal;font-weight:normal;font-stretch:normal;font-size:15px;line-height:normal;font-family:'DejaVu Sans', 'Bitstream Vera Sans', 'Computer Modern Sans Serif', 'Lucida Grande', Verdana, Geneva, Lucid, Arial, Helvetica, 'Avant Garde', sans-serif;text-anchor:middle"
             x="375.52667"
             y="340.91486"
             id="text10">Episodes</text>
        </g>
      </g>
      <g
         id="matplotlib.axis_2">
        <g
           id="ytick_1">
          <g
             id="line2d_9">
            <defs
               id="defs10">
              <path
                 id="m9e43bf43b6"
                 d="M 0,0 H -3.5"
                 style="stroke:#000000;stroke-width:0.8" />
            </defs>
            <g
               id="g10">
              <use
                 xlink:href="#m9e43bf43b6"
                 x="60.77"
                 y="278.87183"
                 style="stroke:#000000;stroke-width:0.8"
                 id="use10" />
            </g>
          </g>
          <g
             id="text_10">
            <text
               style="font-style:normal;font-variant:normal;font-weight:normal;font-stretch:normal;font-size:15px;line-height:normal;font-family:'DejaVu Sans', 'Bitstream Vera Sans', 'Computer Modern Sans Serif', 'Lucida Grande', Verdana, Geneva, Lucid, Arial, Helvetica, 'Avant Garde', sans-serif;text-anchor:end"
               x="53.77"
               y="284.57065"
               id="text11">28</text>
          </g>
        </g>
        <g
           id="ytick_2">
          <g
             id="line2d_10">
            <g
               id="g11">
              <use
                 xlink:href="#m9e43bf43b6"
                 x="60.77"
                 y="245.99413"
                 style="stroke:#000000;stroke-width:0.8"
                 id="use11" />
            </g>
          </g>
          <g
             id="text_11">
            <text
               style="font-style:normal;font-variant:normal;font-weight:normal;font-stretch:normal;font-size:15px;line-height:normal;font-family:'DejaVu Sans', 'Bitstream Vera Sans', 'Computer Modern Sans Serif', 'Lucida Grande', Verdana, Geneva, Lucid, Arial, Helvetica, 'Avant Garde', sans-serif;text-anchor:end"
               x="53.77"
               y="251.69295"
               id="text12">30</text>
          </g>
        </g>
        <g
           id="ytick_3">
          <g
             id="line2d_11">
            <g
               id="g12">
              <use
                 xlink:href="#m9e43bf43b6"
                 x="60.77"
                 y="213.11644"
                 style="stroke:#000000;stroke-width:0.8"
                 id="use12" />
            </g>
          </g>
          <g
             id="text_12">
            <text
               style="font-style:normal;font-variant:normal;font-weight:normal;font-stretch:normal;font-size:15px;line-height:normal;font-family:'DejaVu Sans', 'Bitstream Vera Sans', 'Computer Modern Sans Serif', 'Lucida Grande', Verdana, Geneva, Lucid, Arial, Helvetica, 'Avant Garde', sans-serif;text-anchor:end"
               x="53.77"
               y="218.81526"
               id="text13">32</text>
          </g>
        </g>
        <g
           id="ytick_4">
          <g
             id="line2d_12">
            <g
               id="g13">
              <use
                 xlink:href="#m9e43bf43b6"
                 x="60.77"
                 y="180.23875"
                 style="stroke:#000000;stroke-width:0.8"
                 id="use13" />
            </g>
          </g>
          <g
             id="text_13">
            <text
               style="font-style:normal;font-variant:normal;font-weight:normal;font-stretch:normal;font-size:15px;line-height:normal;font-family:'DejaVu Sans', 'Bitstream Vera Sans', 'Computer Modern Sans Serif', 'Lucida Grande', Verdana, Geneva, Lucid, Arial, Helvetica, 'Avant Garde', sans-serif;text-anchor:end"
               x="53.77"
               y="185.93758"
               id="text14">34</text>
          </g>
        </g>
        <g
           id="ytick_5">
          <g
             id="line2d_13">
            <g
               id="g14">
              <use
                 xlink:href="#m9e43bf43b6"
                 x="60.77"
                 y="147.36107"
                 style="stroke:#000000;stroke-width:0.8"
                 id="use14" />
            </g>
          </g>
          <g
             id="text_14">
            <text
               style="font-style:normal;font-variant:normal;font-weight:normal;font-stretch:normal;font-size:15px;line-height:normal;font-family:'DejaVu Sans', 'Bitstream Vera Sans', 'Computer Modern Sans Serif', 'Lucida Grande', Verdana, Geneva, Lucid, Arial, Helvetica, 'Avant Garde', sans-serif;text-anchor:end"
               x="53.77"
               y="153.05989"
               id="text15">36</text>
          </g>
        </g>
        <g
           id="ytick_6">
          <g
             id="line2d_14">
            <g
               id="g15">
              <use
                 xlink:href="#m9e43bf43b6"
                 x="60.77"
                 y="114.48338"
                 style="stroke:#000000;stroke-width:0.8"
                 id="use15" />
            </g>
          </g>
          <g
             id="text_15">
            <text
               style="font-style:normal;font-variant:normal;font-weight:normal;font-stretch:normal;font-size:15px;line-height:normal;font-family:'DejaVu Sans', 'Bitstream Vera Sans', 'Computer Modern Sans Serif', 'Lucida Grande', Verdana, Geneva, Lucid, Arial, Helvetica, 'Avant Garde', sans-serif;text-anchor:end"
               x="53.77"
               y="120.18221"
               id="text16">38</text>
          </g>
        </g>
        <g
           id="ytick_7">
          <g
             id="line2d_15">
            <g
               id="g16">
              <use
                 xlink:href="#m9e43bf43b6"
                 x="60.77"
                 y="81.60569"
                 style="stroke:#000000;stroke-width:0.8"
                 id="use16" />
            </g>
          </g>
          <g
             id="text_16">
            <text
               style="font-style:normal;font-variant:normal;font-weight:normal;font-stretch:normal;font-size:15px;line-height:normal;font-family:'DejaVu Sans', 'Bitstream Vera Sans', 'Computer Modern Sans Serif', 'Lucida Grande', Verdana, Geneva, Lucid, Arial, Helvetica, 'Avant Garde', sans-serif;text-anchor:end"
               x="53.77"
               y="87.30452"
               id="text17">40</text>
          </g>
        </g>
        <g
           id="ytick_8">
          <g
             id="line2d_16">
            <g
               id="g17">
              <use
                 xlink:href="#m9e43bf43b6"
                 x="60.77"
                 y="48.728004"
                 style="stroke:#000000;stroke-width:0.8"
                 id="use17" />
            </g>
          </g>
          <g
             id="text_17">
            <text
               style="font-style:normal;font-variant:normal;font-weight:normal;font-stretch:normal;font-size:15px;line-height:normal;font-family:'DejaVu Sans', 'Bitstream Vera Sans', 'Computer Modern Sans Serif', 'Lucida Grande', Verdana, Geneva, Lucid, Arial, Helvetica, 'Avant Garde', sans-serif;text-anchor:end"
               x="53.77"
               y="54.42683"
               id="text18">42</text>
          </g>
        </g>
        <g
           id="text_18">
          <text
             style="font-style:normal;font-variant:normal;font-weight:normal;font-stretch:normal;font-size:15px;line-height:normal;font-family:'DejaVu Sans', 'Bitstream Vera Sans', 'Computer Modern Sans Serif', 'Lucida Grande', Verdana, Geneva, Lucid, Arial, Helvetica, 'Avant Garde', sans-serif;text-anchor:middle"
             x="27.562969"
             y="160.10001"
             transform="rotate(-90,27.562969,160.1)"
             id="text19">Episode Reward Mean (Max 50)</text>
        </g>
      </g>
      <g
         id="line2d_17">
        <path
           d="m 89.384242,281.61906 4.239147,-30.53947 4.239147,-0.73392 4.239144,-17.64345 4.23915,-11.87273 4.23915,3.42221 4.23915,-13.42261 4.23914,-3.16513 4.23915,-3.75954 4.23915,1.18006 4.23914,-15.90496 4.23915,1.72047 4.23915,-0.76784 4.23914,-10.43156 4.23915,6.79244 4.23915,-6.72183 4.23914,-0.96549 4.23915,-1.92444 4.23915,5.35441 8.47829,-5.6505 4.23915,2.27777 4.23915,-3.92897 4.23914,0.69578 4.23915,-2.24297 4.23915,1.26514 4.23914,3.36883 4.23915,-7.203 4.23915,-0.92105 4.23915,1.97986 4.23914,-7.51242 4.23915,-9.1e-4 4.23915,4.17669 8.47829,-4.4857 4.23915,0.29508 4.23914,-2.86529 4.23915,-4.51441 4.23915,3.10441 4.23915,-0.95546 4.23914,-1.45604 4.23915,-4.16545 4.23915,-0.71764 4.23915,3.4997 4.23914,-7.90352 4.23915,0.58577 4.23915,1.22953 4.23914,-4.91131 4.23915,3.30333 4.23915,-7.96235 4.23914,5.57495 4.23915,2.6111 4.23915,-1.1547 4.23914,-4.77929 4.23915,-6.78617 4.23915,5.12201 4.23915,-2.59559 4.23914,4.52296 4.23915,-0.99311 4.23915,-1.19809 4.23914,1.28281 4.23915,2.89748 4.23915,-1.91941 4.23915,-12.64816 4.23914,15.99339 4.23915,-14.60149 4.23915,3.74124 4.23914,-8.50994 4.23915,-0.73969 4.23915,-5.54742 4.23914,8.40475 4.23915,-8.84941 4.23915,-2.52267 4.23914,6.41166 4.23915,1.31007 4.23915,-5.74103 4.23915,4.66663 4.23914,-3.95748 4.23915,-2.17176 4.23915,-5.83482 4.23914,-7.41203 4.23915,18.33469 4.23915,-8.07461 4.23915,-9.77123 4.23914,2.06547 4.23915,2.67033 4.23915,-8.28624 4.23914,-5.900171 4.23915,-1.529987 8.47829,13.618988 4.23915,-8.397128 4.23915,7.935068 4.23915,-5.01818 4.23914,-3.49705 4.23915,-15.063775 4.23915,11.270145 4.23914,-2.579449 4.23915,-0.792136 4.23915,8.583585 4.23914,-7.79059 4.23915,-14.56252 4.23915,13.534651 4.23915,1.922946 4.23914,-10.144433 4.23915,0.34291 4.23915,8.105482 4.23914,-6.650864 4.23915,-9.60053 4.23915,3.668682 4.23915,3.124392 4.23914,17.434094 4.23915,-1.40133 4.23915,-16.266106 4.23914,8.744478 4.23915,-0.237335 4.23915,-13.968024 4.23914,10.649166 4.23915,-0.601607 4.23915,-16.005323 4.23915,0.225605 4.23914,22.702075 4.23915,0.889004 4.23915,-6.551773 4.23914,-1.694917 4.23915,6.387592 4.23915,-8.680187 4.23914,-2.004353 4.23915,-4.188463 4.23915,20.82079 4.23915,-12.839239 4.23914,-5.986997 4.23915,-3.756336 4.23915,-0.207815 4.23914,6.193027 4.23915,-8.783531 v 0"
           clip-path="url(#pc7af746523)"
           style="fill:none;stroke:#1f77b4;stroke-width:1.5;stroke-linecap:square"
           id="path19" />
      </g>
      <g
         id="line2d_18">
        <path
           d="m 89.384242,290.91818 4.239147,-26.86955 4.239147,-29.33163 4.239144,-2.48848 4.23915,0.69956 4.23915,-18.28581 4.23915,-6.13195 4.23914,-8.28831 4.23915,3.73054 4.23915,-4.47839 4.23914,-2.45811 4.23915,-5.03828 4.23915,-5.60345 4.23914,0.97367 4.23915,-0.20208 4.23915,-5.28035 4.23914,-3.18638 4.23915,-10.65855 4.23915,7.01356 4.23915,-3.39684 4.23914,0.10532 4.23915,5.42426 4.23915,-6.43834 8.47829,-1.56223 4.23915,-4.62143 4.23914,6.53569 4.23915,-2.57602 4.23915,-6.79803 4.23915,7.6789 4.23914,-5.97893 4.23915,-2.11911 4.23915,-0.41201 4.23914,-0.26638 4.23915,-2.38265 4.23915,-4.77952 4.23914,0.28504 4.23915,1.81718 8.4783,-11.17745 4.23914,6.68685 4.23915,-10.90259 4.23915,9.01208 4.23915,-15.54363 4.23914,4.82279 4.23915,2.70582 4.23915,-5.20021 4.23914,-7.04168 4.23915,-3.95161 4.23915,-0.0182 4.23914,-7.65704 4.23915,21.07238 4.23915,-18.94735 4.23914,-4.7507 4.23915,16.08559 4.23915,-2.71359 4.23915,-24.07513 4.23914,17.85423 4.23915,-14.45022 4.23915,8.17824 4.23914,-13.00832 4.23915,4.84063 4.23915,-2.95164 4.23915,6.38589 4.23914,-12.104973 4.23915,6.661073 4.23915,-20.669307 4.23914,-7.998408 4.23915,34.643895 4.23915,-9.84065 4.23914,-7.29196 4.23915,-14.477952 4.23915,-5.878926 4.23914,22.283264 4.23915,-23.873065 4.23915,9.310165 4.23915,-2.493721 4.23914,7.660799 4.23915,-2.448919 4.23915,-0.54235 4.23914,2.612723 4.23915,-4.341875 4.23915,-17.79683 4.23915,-1.231017 4.23914,-3.204129 4.23915,9.498417 4.23915,-9.295357 4.23914,4.452512 4.23915,9.419759 4.23915,-10.922831 4.23914,8.577955 4.23915,-4.140085 4.23915,-12.789628 4.23915,10.144842 4.23914,-12.212909 4.23915,5.943884 4.23915,-4.984065 4.23914,-6.727019 4.23915,4.369395 4.23915,1.851544 4.23914,-0.453089 4.23915,5.989653 4.23915,-13.158137 4.23915,2.615961 4.23914,-7.407792 4.23915,-2.000977 4.23915,11.212364 4.23914,13.589059 4.23915,-5.979234 4.23915,1.28918 4.23915,3.279553 4.23914,-25.479091 4.23915,14.127426 4.23915,-1.220211 4.23914,-14.243627 4.23915,4.011276 4.23915,10.001528 4.23914,7.232524 4.23915,-21.075208 4.23915,1.781026 4.23915,7.04781 4.23914,0.125665 4.23915,10.574099 4.23915,-17.928086 4.23914,9.203082 4.23915,-16.821377 4.23915,4.815681 4.23914,6.925289 4.23915,-0.975597 4.23915,2.51954 4.23915,-4.670078 4.23914,-6.00138 4.23915,9.52729 4.23915,12.582044 4.23914,3.161731 4.23915,-23.497067 v 0"
           clip-path="url(#pc7af746523)"
           style="fill:none;stroke:#ff7f0e;stroke-width:1.5;stroke-linecap:square"
           id="path20" />
      </g>
      <g
         id="patch_3">
        <path
           d="M 60.77,304 V 16.2"
           style="fill:none;stroke:#000000;stroke-width:0.8;stroke-linecap:square;stroke-linejoin:miter"
           id="path21" />
      </g>
      <g
         id="patch_4">
        <path
           d="M 690.28333,304 V 16.2"
           style="fill:none;stroke:#000000;stroke-width:0.8;stroke-linecap:square;stroke-linejoin:miter"
           id="path22" />
      </g>
      <g
         id="patch_5">
        <path
           d="M 60.77,304 H 690.28333"
           style="fill:none;stroke:#000000;stroke-width:0.8;stroke-linecap:square;stroke-linejoin:miter"
           id="path23" />
      </g>
      <g
         id="patch_6">
        <path
           d="M 60.77,16.2 H 690.28333"
           style="fill:none;stroke:#000000;stroke-width:0.8;stroke-linecap:square;stroke-linejoin:miter"
           id="path24" />
      </g>
      <g
         id="legend_1">
        <g
           id="patch_7">
          <path
             d="m 71.27,72.234375 h 225.86953 q 3,0 3,-3 V 26.7 q 0,-3 -3,-3 H 71.27 q -3,0 -3,3 v 42.534375 q 0,3 3,3 z"
             style="opacity:0.8;fill:#ffffff;stroke:#cccccc;stroke-linejoin:miter"
             id="path25" />
        </g>
        <g
           id="line2d_19">
          <path
             d="m 74.27,35.847656 h 15 15"
             style="fill:none;stroke:#1f77b4;stroke-width:1.5;stroke-linecap:square"
             id="path26" />
        </g>
        <g
           id="text_19">
          <text
             style="font-style:normal;font-variant:normal;font-weight:normal;font-stretch:normal;font-size:15px;line-height:normal;font-family:'DejaVu Sans', 'Bitstream Vera Sans', 'Computer Modern Sans Serif', 'Lucida Grande', Verdana, Geneva, Lucid, Arial, Helvetica, 'Avant Garde', sans-serif;text-anchor:start"
             x="116.27"
             y="41.097656"
             id="text26">training mean reward</text>
        </g>
        <g
           id="line2d_20">
          <path
             d="m 74.27,57.864844 h 15 15"
             style="fill:none;stroke:#ff7f0e;stroke-width:1.5;stroke-linecap:square"
             id="path27" />
        </g>
        <g
           id="text_20">
          <text
             style="font-style:normal;font-variant:normal;font-weight:normal;font-stretch:normal;font-size:15px;line-height:normal;font-family:'DejaVu Sans', 'Bitstream Vera Sans', 'Computer Modern Sans Serif', 'Lucida Grande', Verdana, Geneva, Lucid, Arial, Helvetica, 'Avant Garde', sans-serif;text-anchor:start"
             x="116.27"
             y="63.114845"
             id="text27">validation mean reward</text>
        </g>
      </g>
    </g>
  </g>
  <defs
     id="defs27">
    <clipPath
       id="pc7af746523">
      <rect
         x="60.77"
         y="16.200001"
         width="629.51331"
         height="287.79999"
         id="rect27" />
    </clipPath>
  </defs>
</svg>
