<?xml version="1.0" encoding="utf-8" standalone="no"?>
<!DOCTYPE svg PUBLIC "-//W3C//DTD SVG 1.1//EN"
  "http://www.w3.org/Graphics/SVG/1.1/DTD/svg11.dtd">
<!-- Created with matplotlib (https://matplotlib.org/) -->
<svg height="360pt" version="1.1" viewBox="0 0 720 360" width="720pt" xmlns="http://www.w3.org/2000/svg" xmlns:xlink="http://www.w3.org/1999/xlink">
 <defs>
  <style type="text/css">
*{stroke-linecap:butt;stroke-linejoin:round;}
  </style>
 </defs>
 <g id="figure_1">
  <g id="patch_1">
   <path d="M 0 360 
L 720 360 
L 720 0 
L 0 0 
z
" style="fill:#ffffff;"/>
  </g>
  <g id="axes_1">
   <g id="patch_2">
    <path d="M 74.99 304 
L 703.8 304 
L 703.8 16.2 
L 74.99 16.2 
z
" style="fill:#ffffff;"/>
   </g>
   <g id="matplotlib.axis_1">
    <g id="xtick_1">
     <g id="line2d_1">
      <defs>
       <path d="M 0 0 
L 0 3.5 
" id="m2306f7f335" style="stroke:#000000;stroke-width:0.8;"/>
      </defs>
      <g>
       <use style="stroke:#000000;stroke-width:0.8;" x="103.13888" xlink:href="#m2306f7f335" y="304"/>
      </g>
     </g>
     <g id="text_1">
      <text style="font-family:DejaVu Sans;font-size:15px;font-style:normal;font-weight:normal;text-anchor:middle;" transform="rotate(-0, 103.13888, 322.397656)" x="103.13888" y="322.397656">0</text>
     </g>
    </g>
    <g id="xtick_2">
     <g id="line2d_2">
      <g>
       <use style="stroke:#000000;stroke-width:0.8;" x="189.817493" xlink:href="#m2306f7f335" y="304"/>
      </g>
     </g>
     <g id="text_2">
      <text style="font-family:DejaVu Sans;font-size:15px;font-style:normal;font-weight:normal;text-anchor:middle;" transform="rotate(-0, 189.817493, 322.397656)" x="189.817493" y="322.397656">100000</text>
     </g>
    </g>
    <g id="xtick_3">
     <g id="line2d_3">
      <g>
       <use style="stroke:#000000;stroke-width:0.8;" x="276.496106" xlink:href="#m2306f7f335" y="304"/>
      </g>
     </g>
     <g id="text_3">
      <text style="font-family:DejaVu Sans;font-size:15px;font-style:normal;font-weight:normal;text-anchor:middle;" transform="rotate(-0, 276.496106, 322.397656)" x="276.496106" y="322.397656">200000</text>
     </g>
    </g>
    <g id="xtick_4">
     <g id="line2d_4">
      <g>
       <use style="stroke:#000000;stroke-width:0.8;" x="363.174719" xlink:href="#m2306f7f335" y="304"/>
      </g>
     </g>
     <g id="text_4">
      <text style="font-family:DejaVu Sans;font-size:15px;font-style:normal;font-weight:normal;text-anchor:middle;" transform="rotate(-0, 363.174719, 322.397656)" x="363.174719" y="322.397656">300000</text>
     </g>
    </g>
    <g id="xtick_5">
     <g id="line2d_5">
      <g>
       <use style="stroke:#000000;stroke-width:0.8;" x="449.853333" xlink:href="#m2306f7f335" y="304"/>
      </g>
     </g>
     <g id="text_5">
      <text style="font-family:DejaVu Sans;font-size:15px;font-style:normal;font-weight:normal;text-anchor:middle;" transform="rotate(-0, 449.853333, 322.397656)" x="449.853333" y="322.397656">400000</text>
     </g>
    </g>
    <g id="xtick_6">
     <g id="line2d_6">
      <g>
       <use style="stroke:#000000;stroke-width:0.8;" x="536.531946" xlink:href="#m2306f7f335" y="304"/>
      </g>
     </g>
     <g id="text_6">
      <text style="font-family:DejaVu Sans;font-size:15px;font-style:normal;font-weight:normal;text-anchor:middle;" transform="rotate(-0, 536.531946, 322.397656)" x="536.531946" y="322.397656">500000</text>
     </g>
    </g>
    <g id="xtick_7">
     <g id="line2d_7">
      <g>
       <use style="stroke:#000000;stroke-width:0.8;" x="623.210559" xlink:href="#m2306f7f335" y="304"/>
      </g>
     </g>
     <g id="text_7">
      <text style="font-family:DejaVu Sans;font-size:15px;font-style:normal;font-weight:normal;text-anchor:middle;" transform="rotate(-0, 623.210559, 322.397656)" x="623.210559" y="322.397656">600000</text>
     </g>
    </g>
    <g id="text_8">
     <text style="font-family:DejaVu Sans;font-size:15px;font-style:normal;font-weight:normal;text-anchor:middle;" transform="rotate(-0, 389.395, 340.914844)" x="389.395" y="340.914844">Episodes</text>
    </g>
   </g>
   <g id="matplotlib.axis_2">
    <g id="ytick_1">
     <g id="line2d_8">
      <defs>
       <path d="M 0 0 
L -3.5 0 
" id="me01765d727" style="stroke:#000000;stroke-width:0.8;"/>
      </defs>
      <g>
       <use style="stroke:#000000;stroke-width:0.8;" x="74.99" xlink:href="#me01765d727" y="288.377535"/>
      </g>
     </g>
     <g id="text_9">
      <text style="font-family:DejaVu Sans;font-size:15px;font-style:normal;font-weight:normal;text-anchor:end;" transform="rotate(-0, 67.99, 294.076363)" x="67.99" y="294.076363">17.5</text>
     </g>
    </g>
    <g id="ytick_2">
     <g id="line2d_9">
      <g>
       <use style="stroke:#000000;stroke-width:0.8;" x="74.99" xlink:href="#me01765d727" y="251.962386"/>
      </g>
     </g>
     <g id="text_10">
      <text style="font-family:DejaVu Sans;font-size:15px;font-style:normal;font-weight:normal;text-anchor:end;" transform="rotate(-0, 67.99, 257.661214)" x="67.99" y="257.661214">20.0</text>
     </g>
    </g>
    <g id="ytick_3">
     <g id="line2d_10">
      <g>
       <use style="stroke:#000000;stroke-width:0.8;" x="74.99" xlink:href="#me01765d727" y="215.547238"/>
      </g>
     </g>
     <g id="text_11">
      <text style="font-family:DejaVu Sans;font-size:15px;font-style:normal;font-weight:normal;text-anchor:end;" transform="rotate(-0, 67.99, 221.246066)" x="67.99" y="221.246066">22.5</text>
     </g>
    </g>
    <g id="ytick_4">
     <g id="line2d_11">
      <g>
       <use style="stroke:#000000;stroke-width:0.8;" x="74.99" xlink:href="#me01765d727" y="179.132089"/>
      </g>
     </g>
     <g id="text_12">
      <text style="font-family:DejaVu Sans;font-size:15px;font-style:normal;font-weight:normal;text-anchor:end;" transform="rotate(-0, 67.99, 184.830918)" x="67.99" y="184.830918">25.0</text>
     </g>
    </g>
    <g id="ytick_5">
     <g id="line2d_12">
      <g>
       <use style="stroke:#000000;stroke-width:0.8;" x="74.99" xlink:href="#me01765d727" y="142.716941"/>
      </g>
     </g>
     <g id="text_13">
      <text style="font-family:DejaVu Sans;font-size:15px;font-style:normal;font-weight:normal;text-anchor:end;" transform="rotate(-0, 67.99, 148.415769)" x="67.99" y="148.415769">27.5</text>
     </g>
    </g>
    <g id="ytick_6">
     <g id="line2d_13">
      <g>
       <use style="stroke:#000000;stroke-width:0.8;" x="74.99" xlink:href="#me01765d727" y="106.301793"/>
      </g>
     </g>
     <g id="text_14">
      <text style="font-family:DejaVu Sans;font-size:15px;font-style:normal;font-weight:normal;text-anchor:end;" transform="rotate(-0, 67.99, 112.000621)" x="67.99" y="112.000621">30.0</text>
     </g>
    </g>
    <g id="ytick_7">
     <g id="line2d_14">
      <g>
       <use style="stroke:#000000;stroke-width:0.8;" x="74.99" xlink:href="#me01765d727" y="69.886644"/>
      </g>
     </g>
     <g id="text_15">
      <text style="font-family:DejaVu Sans;font-size:15px;font-style:normal;font-weight:normal;text-anchor:end;" transform="rotate(-0, 67.99, 75.585472)" x="67.99" y="75.585472">32.5</text>
     </g>
    </g>
    <g id="ytick_8">
     <g id="line2d_15">
      <g>
       <use style="stroke:#000000;stroke-width:0.8;" x="74.99" xlink:href="#me01765d727" y="33.471496"/>
      </g>
     </g>
     <g id="text_16">
      <text style="font-family:DejaVu Sans;font-size:15px;font-style:normal;font-weight:normal;text-anchor:end;" transform="rotate(-0, 67.99, 39.170324)" x="67.99" y="39.170324">35.0</text>
     </g>
    </g>
    <g id="text_17">
     <text style="font-family:DejaVu Sans;font-size:15px;font-style:normal;font-weight:normal;text-anchor:middle;" transform="rotate(-90, 27.472031, 160.1)" x="27.472031" y="160.1">Episode Reward Mean (Max 50)</text>
    </g>
   </g>
   <g id="line2d_16">
    <path clip-path="url(#p9efb17a800)" d="M 103.572273 284.556055 
L 104.005666 207.448447 
L 104.439059 174.611901 
L 104.872452 172.916133 
L 105.305845 168.881177 
L 106.172631 144.781355 
L 106.606024 145.488337 
L 107.039417 142.855847 
L 107.47281 147.697118 
L 107.906203 134.509817 
L 108.339596 117.743857 
L 108.77299 119.00011 
L 109.206383 124.804679 
L 109.639776 123.539278 
L 110.073169 106.380544 
L 110.939955 116.926408 
L 111.373348 98.21462 
L 111.806741 102.402686 
L 112.240134 112.018193 
L 112.673527 96.024212 
L 113.10692 102.174229 
L 113.540313 101.181332 
L 113.973706 105.020028 
L 114.407099 97.757813 
L 114.840492 99.788996 
L 115.273886 106.064096 
L 115.707279 91.713324 
L 116.140672 86.246827 
L 117.007458 94.669612 
L 117.440851 89.403586 
L 117.874244 87.954627 
L 118.307637 89.576717 
L 118.74103 93.379623 
L 119.174423 87.026259 
L 119.607816 84.75987 
L 120.041209 89.70511 
L 120.474602 84.288586 
L 120.907995 84.836403 
L 121.341388 86.704622 
L 121.774782 84.067469 
L 122.208175 90.719896 
L 123.508354 75.251703 
L 123.941747 77.729046 
L 124.37514 85.730503 
L 124.808533 85.279555 
L 125.241926 82.797881 
L 125.675319 89.12807 
L 126.108712 84.309133 
L 126.542105 84.774148 
L 126.975498 82.809258 
L 127.408891 80.228604 
L 127.842284 86.772762 
L 128.709071 78.630185 
L 129.142464 94.72133 
L 129.575857 84.569888 
L 130.00925 82.477732 
L 130.442643 74.7465 
L 130.876036 73.659412 
L 131.309429 81.256543 
L 131.742822 78.398605 
L 132.176215 77.882851 
L 132.609608 68.210212 
L 133.043001 82.068536 
L 133.476394 81.284729 
L 133.909787 79.673935 
L 134.34318 79.649417 
L 134.776574 74.626245 
L 135.209967 78.709662 
L 135.64336 66.629086 
L 136.076753 75.291915 
L 136.510146 76.346966 
L 136.943539 74.407605 
L 137.376932 68.31975 
L 137.810325 72.12781 
L 138.243718 74.057638 
L 138.677111 77.307815 
L 139.110504 77.591444 
L 139.543897 85.753917 
L 140.410683 70.907236 
L 140.844076 71.149381 
L 141.27747 74.52649 
L 141.710863 66.061946 
L 142.144256 68.865424 
L 142.577649 76.353762 
L 143.011042 75.920755 
L 143.444435 81.661361 
L 143.877828 90.315708 
L 144.311221 74.717984 
L 144.744614 66.433986 
L 145.178007 69.927181 
L 145.6114 71.607792 
L 146.044793 74.55951 
L 146.478186 70.619679 
L 146.911579 68.709548 
L 147.344972 68.389957 
L 147.778365 61.446538 
L 148.211759 58.485505 
L 148.645152 71.0166 
L 149.078545 64.132584 
L 149.511938 69.723761 
L 149.945331 64.923777 
L 150.378724 71.212613 
L 150.812117 74.932313 
L 151.24551 65.986302 
L 151.678903 66.581167 
L 152.112296 60.641767 
L 152.979082 65.074251 
L 153.412475 60.287933 
L 153.845868 69.571977 
L 154.279261 61.622532 
L 154.712655 65.822548 
L 155.146048 62.591753 
L 155.579441 67.361915 
L 156.012834 65.295792 
L 156.446227 66.510399 
L 156.87962 56.349517 
L 157.313013 60.831461 
L 157.746406 56.766767 
L 158.179799 73.841641 
L 158.613192 64.968982 
L 159.046585 60.984237 
L 159.479978 60.841858 
L 159.913371 64.887911 
L 160.346764 62.076778 
L 160.780157 64.345593 
L 161.213551 74.13359 
L 161.646944 58.728341 
L 162.080337 55.031115 
L 162.51373 58.727086 
L 162.947123 64.865353 
L 163.380516 53.059647 
L 163.813909 59.768077 
L 164.247302 70.964358 
L 164.680695 50.504402 
L 165.114088 57.665143 
L 165.547481 51.751589 
L 165.980874 53.345749 
L 166.414267 55.950164 
L 166.84766 67.919303 
L 167.281053 59.568958 
L 167.714447 57.494967 
L 168.14784 53.10898 
L 168.581233 62.744335 
L 169.014626 54.074066 
L 169.448019 56.237624 
L 169.881412 52.115967 
L 170.314805 46.438959 
L 171.181591 51.535263 
L 171.614984 54.729353 
L 172.048377 53.026943 
L 172.48177 57.1519 
L 172.915163 47.07563 
L 173.348556 47.087452 
L 173.781949 39.811957 
L 174.215343 59.441627 
L 174.648736 55.600434 
L 175.082129 65.982863 
L 175.515522 55.864463 
L 175.948915 48.348686 
L 176.382308 65.121499 
L 176.815701 53.63154 
L 177.249094 57.141951 
L 177.682487 45.05515 
L 178.11588 64.07103 
L 178.549273 56.622886 
L 178.982666 58.854056 
L 179.416059 53.830809 
L 180.282845 66.031294 
L 180.716239 63.804186 
L 181.149632 71.819218 
L 181.583025 68.3522 
L 182.016418 62.279417 
L 182.449811 59.707818 
L 182.883204 53.813842 
L 183.74999 65.47296 
L 184.183383 63.40489 
L 185.050169 66.516883 
L 185.483562 60.862508 
L 185.916955 71.089 
L 186.350348 63.070078 
L 187.217135 53.125879 
L 187.650528 39.814718 
L 188.083921 58.886678 
L 188.950707 71.737938 
L 189.3841 67.492945 
L 189.817493 70.198323 
L 190.250886 58.107442 
L 190.684279 71.224103 
L 191.551065 62.124539 
L 191.984458 65.96759 
L 192.417851 64.299875 
L 192.851244 72.366639 
L 193.284637 60.273021 
L 193.718031 61.152886 
L 194.151424 56.569449 
L 194.584817 62.852901 
L 195.01821 62.636349 
L 195.451603 61.76927 
L 195.884996 62.808014 
L 196.318389 71.373773 
L 196.751782 76.82877 
L 197.185175 78.225407 
L 197.618568 64.691044 
L 198.051961 62.516408 
L 198.485354 65.426929 
L 198.918747 56.688047 
L 199.35214 56.522038 
L 199.785533 67.876149 
L 200.218927 56.528656 
L 200.65232 71.734901 
L 201.085713 56.796915 
L 201.519106 67.155912 
L 201.952499 66.310707 
L 202.385892 56.119624 
L 202.819285 71.165885 
L 203.252678 57.280526 
L 203.686071 62.044374 
L 204.119464 65.527304 
L 204.552857 67.475337 
L 204.98625 63.997129 
L 205.419643 69.143998 
L 205.853036 78.816088 
L 206.286429 69.308641 
L 206.719823 71.520143 
L 207.153216 73.072447 
L 208.020002 65.281661 
L 208.453395 63.762458 
L 208.886788 73.426037 
L 209.320181 63.403961 
L 209.753574 60.416215 
L 210.186967 59.008876 
L 210.62036 61.399604 
L 211.053753 71.725196 
L 211.487146 64.76108 
L 211.920539 80.155096 
L 212.353932 62.844362 
L 212.787325 54.641607 
L 213.220719 69.666447 
L 213.654112 65.282277 
L 214.087505 65.199179 
L 214.520898 73.860937 
L 214.954291 67.077904 
L 215.387684 68.137918 
L 215.821077 64.735228 
L 216.25447 59.193282 
L 216.687863 68.243597 
L 217.121256 62.895811 
L 217.554649 65.891055 
L 217.988042 63.43781 
L 218.421435 58.888584 
L 218.854828 68.027856 
L 219.288221 74.26105 
L 219.721615 65.079927 
L 220.155008 61.170366 
L 220.588401 54.728869 
L 221.021794 64.429278 
L 221.455187 63.356467 
L 221.88858 77.305282 
L 222.321973 67.655468 
L 222.755366 66.805238 
L 223.188759 79.303384 
L 223.622152 67.976696 
L 224.055545 72.861456 
L 224.488938 48.549875 
L 224.922331 57.011157 
L 225.355724 54.635077 
L 225.789117 71.802433 
L 226.222511 59.79491 
L 226.655904 55.433598 
L 227.089297 53.257143 
L 227.52269 54.279393 
L 227.956083 71.101356 
L 228.389476 65.213645 
L 228.822869 56.032811 
L 229.689655 85.215818 
L 230.123048 66.250739 
L 230.556441 61.360397 
L 230.989834 46.205561 
L 231.85662 76.9141 
L 232.290013 73.904863 
L 232.723407 63.206737 
L 233.1568 55.497189 
L 233.590193 66.059554 
L 234.023586 60.649612 
L 234.456979 63.41122 
L 235.323765 67.647052 
L 235.757158 64.170816 
L 236.190551 65.19075 
L 236.623944 77.273146 
L 237.057337 71.994781 
L 237.49073 65.210883 
L 238.357516 71.673989 
L 238.790909 70.43202 
L 239.224303 63.120437 
L 239.657696 64.6657 
L 240.091089 62.857004 
L 240.524482 80.288187 
L 240.957875 79.072203 
L 241.391268 58.533911 
L 241.824661 53.107067 
L 242.258054 81.968705 
L 242.691447 81.267626 
L 243.12484 70.340306 
L 243.558233 81.975724 
L 243.991626 80.841819 
L 244.425019 68.777814 
L 244.858412 74.689249 
L 245.291805 66.868732 
L 245.725198 68.575048 
L 246.158592 64.016254 
L 246.591985 72.288122 
L 247.025378 65.82284 
L 247.458771 80.189252 
L 247.892164 76.909062 
L 248.325557 79.548484 
L 248.75895 65.03202 
L 249.192343 63.355342 
L 249.625736 81.267991 
L 250.059129 78.568315 
L 250.492522 73.699221 
L 250.925915 86.324952 
L 251.359308 76.910241 
L 251.792701 90.093341 
L 252.226094 74.273201 
L 252.659488 77.273719 
L 253.092881 95.850393 
L 253.959667 66.850143 
L 254.39306 74.503933 
L 254.826453 68.899735 
L 255.259846 87.511634 
L 255.693239 78.448687 
L 256.126632 74.014582 
L 256.560025 68.365353 
L 256.993418 75.30985 
L 257.426811 76.898965 
L 257.860204 77.255719 
L 258.293597 95.624052 
L 258.72699 77.588998 
L 259.160384 75.429906 
L 259.593777 74.880873 
L 260.02717 79.709554 
L 260.460563 73.074249 
L 260.893956 74.243526 
L 261.327349 84.902162 
L 261.760742 83.614041 
L 262.194135 81.736674 
L 262.627528 95.608207 
L 263.060921 99.369562 
L 263.494314 92.052634 
L 263.927707 94.639354 
L 264.3611 87.528094 
L 264.794493 89.000474 
L 265.227886 88.287823 
L 265.66128 87.095015 
L 266.094673 88.489527 
L 266.528066 75.484538 
L 266.961459 82.635282 
L 267.394852 80.493867 
L 267.828245 88.195749 
L 268.261638 72.022619 
L 268.695031 72.296784 
L 269.128424 82.080182 
L 269.561817 84.543696 
L 269.99521 75.213535 
L 270.428603 83.756061 
L 270.861996 72.81583 
L 271.295389 71.030381 
L 271.728782 85.32732 
L 272.162176 71.455472 
L 272.595569 76.498071 
L 273.028962 96.091882 
L 273.462355 86.57646 
L 273.895748 92.408615 
L 274.329141 100.282566 
L 274.762534 83.857734 
L 275.62932 93.834367 
L 276.062713 74.377769 
L 276.496106 97.267077 
L 276.929499 76.079578 
L 277.362892 89.481647 
L 277.796285 76.716571 
L 278.229678 97.334639 
L 278.663072 101.218002 
L 279.096465 107.921629 
L 279.529858 87.221054 
L 279.963251 91.865519 
L 280.396644 102.338707 
L 280.830037 89.906118 
L 281.26343 88.813519 
L 281.696823 93.180265 
L 282.130216 93.842612 
L 282.563609 83.77347 
L 282.997002 80.08133 
L 283.430395 91.348264 
L 283.863788 93.179902 
L 284.297181 72.080136 
L 284.730574 74.094247 
L 285.163968 87.594273 
L 285.597361 93.389832 
L 286.030754 76.427617 
L 286.464147 70.241058 
L 286.89754 97.409778 
L 287.330933 83.350624 
L 287.764326 100.568073 
L 288.197719 93.416656 
L 288.631112 103.120235 
L 289.064505 95.938891 
L 289.497898 102.54427 
L 289.931291 91.549844 
L 290.364684 96.424597 
L 290.798077 99.15049 
L 291.23147 91.325723 
L 291.664864 92.177271 
L 292.098257 91.041056 
L 292.53165 112.642519 
L 292.965043 93.263145 
L 293.398436 87.352547 
L 293.831829 84.677546 
L 294.265222 87.892083 
L 294.698615 89.025094 
L 295.132008 93.36035 
L 295.565401 84.059057 
L 295.998794 91.540893 
L 296.432187 102.150101 
L 296.86558 94.420028 
L 297.298973 89.655114 
L 297.732366 98.661 
L 298.16576 102.684303 
L 298.599153 103.878585 
L 299.032546 83.345404 
L 299.899332 97.448506 
L 300.332725 87.803402 
L 301.199511 93.691866 
L 301.632904 92.399395 
L 302.066297 99.627489 
L 302.49969 94.25904 
L 302.933083 87.266558 
L 303.366476 99.740883 
L 303.799869 101.291188 
L 304.233262 102.043872 
L 304.666656 98.005875 
L 305.100049 101.063392 
L 305.533442 90.736783 
L 305.966835 86.966318 
L 306.400228 105.188072 
L 306.833621 93.600909 
L 307.267014 95.205379 
L 307.700407 95.611646 
L 308.1338 97.978967 
L 308.567193 96.180289 
L 309.000586 96.42086 
L 309.433979 97.665745 
L 309.867372 97.690032 
L 310.300765 92.708759 
L 310.734158 93.267271 
L 311.167552 88.578066 
L 311.600945 103.571509 
L 312.034338 88.959373 
L 312.467731 88.244788 
L 312.901124 82.34026 
L 313.334517 88.88964 
L 313.76791 103.519752 
L 314.201303 94.1271 
L 314.634696 102.376351 
L 315.068089 93.612317 
L 315.501482 102.693385 
L 315.934875 84.153408 
L 316.368268 100.837654 
L 316.801661 88.055503 
L 317.235054 109.684603 
L 317.668448 100.841941 
L 318.101841 110.077151 
L 318.535234 87.077637 
L 318.968627 98.881781 
L 319.40202 104.215653 
L 320.268806 102.071584 
L 320.702199 109.312945 
L 321.135592 97.234655 
L 321.568985 107.744156 
L 322.002378 101.45376 
L 322.435771 106.685235 
L 322.869164 113.856846 
L 323.302557 102.526626 
L 323.73595 98.414738 
L 324.169344 113.563641 
L 324.602737 108.877828 
L 325.03613 99.172335 
L 325.469523 106.062233 
L 325.902916 103.19364 
L 326.336309 104.131844 
L 326.769702 99.803946 
L 327.203095 90.873574 
L 327.636488 110.658502 
L 328.069881 117.485913 
L 328.503274 108.801847 
L 328.936667 106.107583 
L 329.37006 104.917774 
L 329.803453 110.627938 
L 330.236846 110.857397 
L 330.67024 115.445737 
L 331.103633 109.216897 
L 331.537026 89.20989 
L 331.970419 105.275696 
L 332.403812 103.771742 
L 332.837205 109.654834 
L 333.270598 102.498986 
L 333.703991 105.911642 
L 334.137384 115.822901 
L 334.570777 111.541619 
L 335.00417 89.489087 
L 335.437563 106.812238 
L 335.870956 93.691506 
L 336.304349 113.371711 
L 336.737742 100.743507 
L 337.171136 113.02343 
L 337.604529 104.524254 
L 338.037922 103.612423 
L 338.471315 103.581344 
L 338.904708 95.924269 
L 339.338101 103.651565 
L 339.771494 106.051058 
L 340.204887 109.125201 
L 340.63828 109.565043 
L 341.071673 121.285749 
L 341.505066 120.972859 
L 341.938459 111.676457 
L 342.371852 121.106312 
L 342.805245 110.062474 
L 343.238638 125.135275 
L 343.672031 114.306012 
L 344.105425 109.40426 
L 344.538818 112.067161 
L 344.972211 113.423541 
L 345.405604 118.508791 
L 345.838997 95.73252 
L 346.27239 116.609702 
L 346.705783 104.357922 
L 347.139176 114.967479 
L 347.572569 112.071028 
L 348.005962 112.503495 
L 348.439355 114.874953 
L 348.872748 115.675967 
L 349.306141 107.914007 
L 349.739534 122.655422 
L 350.172927 120.850867 
L 350.606321 99.877484 
L 351.039714 116.749571 
L 351.473107 111.132882 
L 351.9065 109.824962 
L 352.339893 118.347848 
L 353.206679 108.27601 
L 353.640072 111.994384 
L 354.073465 111.918022 
L 354.506858 120.501304 
L 354.940251 117.796277 
L 355.373644 125.075258 
L 355.807037 111.702193 
L 356.24043 116.233055 
L 356.673823 122.909418 
L 357.107217 121.906822 
L 357.54061 119.614999 
L 357.974003 107.127323 
L 358.407396 112.834371 
L 358.840789 112.430357 
L 359.707575 109.997116 
L 360.140968 116.598974 
L 360.574361 104.674478 
L 361.007754 103.917963 
L 361.441147 117.193501 
L 361.87454 115.561678 
L 362.307933 119.351486 
L 362.741326 129.569752 
L 363.174719 122.19425 
L 363.608113 123.408133 
L 364.041506 146.984858 
L 364.474899 118.713492 
L 364.908292 102.681013 
L 365.341685 107.951404 
L 365.775078 134.955671 
L 366.208471 104.936626 
L 366.641864 119.854447 
L 367.075257 117.078521 
L 367.50865 115.491682 
L 367.942043 129.383807 
L 368.375436 129.369725 
L 368.808829 131.316125 
L 369.242222 128.162226 
L 369.675615 126.700046 
L 370.109009 127.247572 
L 370.542402 131.432313 
L 370.975795 138.670871 
L 371.409188 122.642172 
L 371.842581 114.944442 
L 372.275974 114.934922 
L 372.709367 127.09451 
L 373.14276 132.07507 
L 373.576153 111.966387 
L 374.009546 114.841741 
L 374.442939 135.148796 
L 374.876332 129.969874 
L 375.309725 141.437382 
L 375.743118 123.094788 
L 376.176511 134.095874 
L 376.609905 129.622814 
L 377.043298 151.274464 
L 377.476691 146.930225 
L 377.910084 130.123541 
L 378.343477 121.924313 
L 378.77687 128.424503 
L 379.210263 118.455664 
L 379.643656 122.027849 
L 380.077049 128.757275 
L 380.510442 139.597707 
L 380.943835 139.852285 
L 381.377228 131.201885 
L 381.810621 114.462307 
L 382.244014 119.39321 
L 382.677407 132.810656 
L 383.110801 116.656006 
L 383.544194 128.125718 
L 383.977587 125.531456 
L 384.41098 107.549239 
L 384.844373 117.846381 
L 385.277766 121.65125 
L 386.144552 111.023108 
L 386.577945 105.309934 
L 387.011338 123.198811 
L 387.444731 126.760381 
L 387.878124 115.838972 
L 388.311517 127.32197 
L 388.74491 122.393229 
L 389.178303 119.981464 
L 389.611697 131.472893 
L 390.04509 114.229073 
L 390.478483 123.920663 
L 390.911876 121.553744 
L 391.345269 130.204988 
L 391.778662 135.503614 
L 392.212055 127.077891 
L 392.645448 122.687778 
L 393.512234 129.963581 
L 393.945627 132.535908 
L 394.37902 145.361331 
L 394.812413 142.024979 
L 395.245806 140.072964 
L 395.679199 130.788367 
L 396.112593 128.961221 
L 396.545986 138.832784 
L 396.979379 137.267706 
L 397.412772 147.851685 
L 397.846165 162.703667 
L 398.279558 150.045181 
L 399.146344 139.255759 
L 399.579737 146.7954 
L 400.01313 144.369472 
L 400.446523 140.610107 
L 400.879916 140.465254 
L 401.313309 141.151009 
L 401.746702 141.260625 
L 402.180095 131.725939 
L 402.613489 153.111672 
L 403.046882 147.044828 
L 403.480275 138.417707 
L 403.913668 147.122565 
L 404.347061 132.33001 
L 404.780454 151.126495 
L 405.213847 151.633498 
L 405.64724 144.367842 
L 406.080633 133.329984 
L 406.514026 130.873673 
L 406.947419 127.556615 
L 407.380812 141.426516 
L 407.814205 172.988515 
L 408.247598 152.644789 
L 408.680991 165.972228 
L 409.114385 158.726202 
L 409.981171 155.393768 
L 410.414564 169.152366 
L 410.847957 189.292787 
L 411.28135 166.331782 
L 411.714743 158.54084 
L 412.148136 172.248395 
L 412.581529 145.537015 
L 413.014922 170.030205 
L 413.448315 158.450763 
L 413.881708 169.426703 
L 414.315101 163.069987 
L 414.748494 154.282283 
L 415.181887 167.639098 
L 415.615281 185.886872 
L 416.048674 160.403892 
L 416.482067 150.049111 
L 416.91546 153.473024 
L 417.348853 145.843756 
L 417.782246 154.692804 
L 418.649032 138.92934 
L 419.082425 143.521764 
L 419.515818 127.610735 
L 419.949211 133.863681 
L 420.382604 138.381101 
L 420.815997 141.667417 
L 421.24939 161.088716 
L 421.682783 148.647773 
L 422.116177 156.269932 
L 422.54957 161.613905 
L 422.982963 155.687246 
L 423.416356 165.023802 
L 423.849749 168.332082 
L 424.283142 158.670023 
L 424.716535 160.584557 
L 425.149928 160.278847 
L 425.583321 163.219223 
L 426.016714 155.729271 
L 426.450107 156.659928 
L 426.8835 158.887274 
L 427.316893 153.783503 
L 427.750286 171.58005 
L 428.183679 164.039115 
L 428.617073 147.572938 
L 429.050466 149.607051 
L 429.483859 157.645742 
L 429.917252 162.718004 
L 430.350645 175.445624 
L 430.784038 156.588129 
L 431.217431 147.792493 
L 431.650824 157.87623 
L 432.084217 154.412908 
L 432.51761 143.009795 
L 432.951003 162.628617 
L 433.384396 142.71868 
L 433.817789 180.893288 
L 434.251182 155.394857 
L 434.684575 149.104146 
L 435.117969 152.992272 
L 435.551362 164.797394 
L 435.984755 165.07288 
L 436.418148 150.911121 
L 436.851541 156.777444 
L 437.284934 149.687844 
L 437.718327 171.14308 
L 438.15172 156.144871 
L 438.585113 163.721044 
L 439.018506 168.369235 
L 439.451899 160.999449 
L 439.885292 157.082471 
L 440.318685 154.555808 
L 440.752078 166.732976 
L 441.185471 147.101666 
L 441.618864 162.419135 
L 442.052258 155.345319 
L 442.485651 178.623879 
L 442.919044 160.414708 
L 443.352437 178.388263 
L 444.219223 148.318876 
L 444.652616 157.070209 
L 445.086009 133.886084 
L 445.519402 156.470628 
L 445.952795 143.930596 
L 446.386188 159.582998 
L 446.819581 145.488836 
L 447.252974 163.350491 
L 447.686367 169.980791 
L 448.11976 150.891744 
L 448.553154 165.34274 
L 448.986547 149.978485 
L 449.41994 145.868597 
L 449.853333 163.878404 
L 450.286726 162.767433 
L 450.720119 148.46793 
L 451.153512 152.479191 
L 452.020298 152.468688 
L 452.453691 195.949593 
L 452.887084 157.549654 
L 453.320477 152.522614 
L 453.75387 135.701658 
L 454.187263 152.259201 
L 454.620656 160.777991 
L 455.05405 153.460557 
L 455.487443 164.251586 
L 455.920836 149.982493 
L 456.354229 150.328871 
L 456.787622 152.663371 
L 457.221015 166.369286 
L 457.654408 176.366459 
L 458.087801 159.345946 
L 458.521194 154.585224 
L 458.954587 160.806645 
L 459.38798 161.055958 
L 459.821373 168.464792 
L 460.254766 159.508981 
L 460.688159 155.783366 
L 461.121552 157.180451 
L 461.554946 147.99036 
L 462.855125 165.217643 
L 463.288518 188.742837 
L 463.721911 182.162043 
L 464.155304 163.222321 
L 464.588697 157.423463 
L 465.02209 160.125217 
L 465.455483 176.620021 
L 465.888876 162.27849 
L 466.755662 160.038243 
L 467.189055 153.706852 
L 468.055842 173.875471 
L 468.489235 164.962343 
L 468.922628 172.397517 
L 469.356021 155.578571 
L 469.789414 152.697877 
L 470.222807 168.720413 
L 470.6562 146.041777 
L 471.089593 153.4746 
L 471.522986 146.878436 
L 471.956379 182.506878 
L 472.389772 165.264869 
L 473.256558 160.803599 
L 473.689951 175.761384 
L 474.123344 156.301313 
L 474.556738 156.665052 
L 475.423524 174.052147 
L 475.856917 168.976781 
L 476.29031 174.806742 
L 476.723703 187.29875 
L 477.157096 175.140322 
L 477.590489 189.112524 
L 478.023882 175.446052 
L 478.457275 195.030757 
L 478.890668 156.005613 
L 479.324061 155.96459 
L 479.757454 175.891608 
L 480.62424 201.50922 
L 481.057634 157.756072 
L 481.491027 169.717556 
L 481.92442 188.560479 
L 482.357813 176.477112 
L 482.791206 147.125579 
L 483.224599 139.907872 
L 483.657992 155.568323 
L 484.091385 157.908868 
L 484.958171 168.192483 
L 485.391564 166.763765 
L 486.25835 147.790671 
L 486.691743 165.86917 
L 487.125136 167.502401 
L 487.55853 170.801037 
L 487.991923 171.888433 
L 488.425316 164.265986 
L 488.858709 168.158768 
L 489.292102 161.23771 
L 489.725495 171.598207 
L 490.158888 166.741148 
L 490.592281 188.344793 
L 491.025674 183.154432 
L 491.459067 184.198103 
L 491.89246 164.782503 
L 492.325853 165.776963 
L 492.759246 148.272187 
L 493.192639 165.368609 
L 493.626032 168.298711 
L 494.059426 167.868587 
L 494.492819 176.956653 
L 494.926212 177.665393 
L 495.792998 168.692177 
L 496.226391 175.254821 
L 496.659784 185.148885 
L 497.093177 160.368935 
L 497.52657 177.991866 
L 498.393356 188.692523 
L 498.826749 181.570173 
L 499.260142 187.199843 
L 499.693535 172.064195 
L 500.126928 177.638869 
L 500.560322 186.746097 
L 500.993715 169.214031 
L 501.427108 158.262496 
L 501.860501 156.648388 
L 502.293894 175.205718 
L 502.727287 177.2855 
L 503.16068 162.085059 
L 503.594073 188.488788 
L 504.027466 153.876108 
L 504.460859 158.499707 
L 504.894252 147.327414 
L 505.327645 174.111796 
L 505.761038 182.30094 
L 506.194431 163.180027 
L 506.627824 160.611764 
L 507.061218 168.794309 
L 507.494611 173.317188 
L 507.928004 148.336947 
L 508.361397 188.737679 
L 508.79479 162.091819 
L 509.228183 175.736668 
L 509.661576 173.189353 
L 510.094969 168.847066 
L 510.528362 178.22809 
L 510.961755 172.206819 
L 511.395148 175.073943 
L 511.828541 170.490163 
L 512.261934 176.47787 
L 512.695327 184.719086 
L 513.12872 211.885385 
L 513.995507 196.161624 
L 514.4289 184.725504 
L 514.862293 189.191364 
L 515.295686 194.891327 
L 515.729079 172.038448 
L 516.162472 166.180134 
L 516.595865 167.607347 
L 517.029258 166.77377 
L 517.462651 162.595395 
L 517.896044 167.303632 
L 518.329437 163.212608 
L 518.76283 155.43924 
L 519.196223 159.186611 
L 519.629616 158.942205 
L 520.06301 184.132193 
L 520.496403 177.002461 
L 520.929796 189.577913 
L 521.363189 178.494649 
L 521.796582 198.560269 
L 522.229975 174.037159 
L 522.663368 164.745143 
L 523.096761 167.729574 
L 523.530154 178.109859 
L 523.963547 200.036709 
L 524.39694 183.610689 
L 524.830333 195.889583 
L 525.263726 191.965631 
L 525.697119 161.870458 
L 526.563906 179.699503 
L 526.997299 182.435837 
L 527.430692 178.540573 
L 527.864085 205.669113 
L 528.297478 186.909496 
L 528.730871 174.263745 
L 529.164264 175.88859 
L 529.597657 178.602093 
L 530.03105 178.779689 
L 530.464443 162.24084 
L 530.897836 195.688373 
L 531.331229 189.00939 
L 531.764622 196.089827 
L 532.198015 172.470168 
L 532.631408 172.22858 
L 533.064802 166.87618 
L 533.498195 218.036518 
L 533.931588 199.481147 
L 534.364981 201.877233 
L 534.798374 195.052715 
L 535.66516 220.810001 
L 536.531946 180.039182 
L 536.965339 205.925834 
L 537.398732 204.200856 
L 537.832125 188.65159 
L 538.265518 216.799051 
L 539.132304 183.605067 
L 539.565697 202.870971 
L 539.999091 186.714137 
L 540.432484 198.371091 
L 541.29927 179.906972 
L 541.732663 180.83208 
L 542.166056 204.184907 
L 542.599449 181.547539 
L 543.032842 190.152065 
L 543.466235 212.390851 
L 543.899628 198.757878 
L 544.333021 205.044881 
L 544.766414 187.315168 
L 545.199807 193.929007 
L 545.6332 190.045662 
L 546.066593 187.583954 
L 546.499987 176.609823 
L 546.93338 200.237028 
L 547.366773 187.135199 
L 547.800166 182.603113 
L 548.233559 182.154474 
L 548.666952 177.24042 
L 549.100345 192.906957 
L 549.533738 202.125731 
L 549.967131 183.787359 
L 550.400524 199.542868 
L 550.833917 202.163197 
L 551.26731 198.827362 
L 551.700703 212.563435 
L 552.134096 199.042431 
L 552.567489 199.777508 
L 553.000883 198.933915 
L 553.434276 195.444981 
L 553.867669 213.649578 
L 554.301062 205.407443 
L 554.734455 213.98071 
L 555.167848 236.713479 
L 555.601241 193.719953 
L 556.034634 205.747769 
L 556.468027 196.416866 
L 557.334813 202.149112 
L 557.768206 219.438906 
L 558.201599 209.620487 
L 558.634992 204.237755 
L 559.068385 212.928423 
L 559.501779 206.656947 
L 559.935172 186.380217 
L 560.368565 189.95749 
L 560.801958 187.084685 
L 561.235351 185.848847 
L 561.668744 170.499165 
L 562.102137 204.211119 
L 562.53553 214.681897 
L 562.968923 187.504149 
L 563.402316 192.835083 
L 563.835709 181.170604 
L 564.269102 189.631168 
L 564.702495 180.044866 
L 565.135888 188.745116 
L 565.569281 193.809752 
L 566.002675 212.587793 
L 566.436068 184.976941 
L 566.869461 189.79175 
L 567.302854 189.134492 
L 567.736247 184.071486 
L 568.16964 196.586048 
L 568.603033 190.111098 
L 569.036426 180.201865 
L 569.469819 214.664931 
L 569.903212 209.333933 
L 570.336605 194.229507 
L 570.769998 196.699691 
L 571.203391 197.792829 
L 571.636784 187.347885 
L 572.070177 188.000072 
L 572.503571 191.621619 
L 572.936964 200.435463 
L 573.370357 213.698293 
L 573.80375 206.205011 
L 574.237143 188.265217 
L 574.670536 186.04341 
L 575.103929 198.253316 
L 575.537322 186.869271 
L 575.970715 231.488259 
L 576.404108 200.305359 
L 576.837501 188.789264 
L 577.270894 199.567632 
L 577.704287 179.25472 
L 578.13768 197.426137 
L 578.571073 182.621853 
L 579.004467 197.294899 
L 579.43786 195.757189 
L 579.871253 206.026696 
L 580.304646 201.983229 
L 580.738039 204.225079 
L 581.171432 186.883187 
L 581.604825 206.63084 
L 582.038218 189.353155 
L 582.471611 219.777869 
L 582.905004 190.991834 
L 583.338397 212.96435 
L 583.77179 220.798302 
L 584.205183 221.187526 
L 584.638576 213.13663 
L 585.071969 185.317345 
L 585.505363 202.28574 
L 585.938756 202.718801 
L 586.372149 198.318777 
L 586.805542 247.872115 
L 587.238935 218.015751 
L 587.672328 213.683974 
L 588.105721 220.289291 
L 588.539114 211.815035 
L 588.972507 180.380066 
L 589.4059 170.149185 
L 589.839293 215.393718 
L 590.272686 214.905518 
L 590.706079 205.231683 
L 591.139472 204.488413 
L 591.572865 229.16432 
L 592.006259 190.619887 
L 592.439652 193.589963 
L 592.873045 190.285931 
L 593.306438 207.29162 
L 593.739831 199.48751 
L 594.173224 210.972579 
L 594.606617 207.48139 
L 595.04001 195.94593 
L 595.473403 232.022824 
L 596.340189 197.240131 
L 597.206975 213.840498 
L 597.640368 219.95363 
L 598.073761 211.882858 
L 598.507155 219.796261 
L 598.940548 206.163955 
L 599.373941 231.675504 
L 599.807334 224.372298 
L 600.240727 230.344418 
L 600.67412 228.672433 
L 601.107513 208.88668 
L 601.540906 209.034621 
L 601.974299 217.573975 
L 602.407692 217.479811 
L 602.841085 223.232022 
L 603.274478 211.109564 
L 603.707871 202.433893 
L 604.141264 204.661747 
L 604.574657 217.07012 
L 605.008051 214.531871 
L 605.441444 221.852587 
L 605.874837 195.886801 
L 606.30823 191.473975 
L 606.741623 190.064387 
L 607.175016 229.776997 
L 607.608409 205.489352 
L 608.041802 201.711248 
L 608.475195 210.110408 
L 608.908588 201.773708 
L 609.341981 209.067479 
L 609.775374 199.473261 
L 610.208767 207.824703 
L 610.64216 192.882698 
L 611.075553 225.566558 
L 611.508947 227.986806 
L 611.94234 208.141639 
L 612.375733 211.928051 
L 612.809126 226.454958 
L 613.242519 196.230703 
L 613.675912 208.535224 
L 614.109305 188.896864 
L 614.542698 187.233505 
L 614.976091 212.479173 
L 615.409484 212.858531 
L 615.842877 220.398485 
L 616.709663 228.7726 
L 617.143056 220.922267 
L 617.576449 231.935484 
L 618.009843 236.131323 
L 618.443236 222.336295 
L 618.876629 204.202033 
L 619.310022 229.677798 
L 619.743415 233.169259 
L 620.176808 228.05939 
L 620.610201 212.202133 
L 621.043594 212.932785 
L 621.476987 204.2172 
L 621.91038 223.657697 
L 622.343773 216.717062 
L 622.777166 214.365603 
L 623.210559 251.02583 
L 623.643952 226.724366 
L 624.077345 230.618194 
L 624.510739 230.571826 
L 624.944132 237.920094 
L 625.377525 227.819767 
L 625.810918 243.414803 
L 626.244311 238.644329 
L 626.677704 215.304322 
L 627.111097 198.040492 
L 627.54449 249.420485 
L 627.977883 235.124038 
L 628.411276 232.469282 
L 628.844669 228.525817 
L 629.278062 231.261536 
L 629.711455 220.430851 
L 630.144848 271.505442 
L 630.578241 227.644803 
L 631.011635 195.524338 
L 631.445028 210.90478 
L 631.878421 214.134011 
L 632.311814 215.633613 
L 632.745207 228.57104 
L 633.1786 217.981294 
L 633.611993 227.305486 
L 634.045386 217.94806 
L 634.478779 238.487045 
L 634.912172 244.109175 
L 635.345565 251.252624 
L 635.778958 234.038527 
L 636.212351 207.218864 
L 636.645744 202.036351 
L 637.079137 233.327891 
L 637.51253 235.741125 
L 637.945924 253.934382 
L 638.379317 217.38359 
L 638.81271 241.786924 
L 639.246103 226.401355 
L 639.679496 226.635181 
L 640.112889 217.532426 
L 640.546282 250.068605 
L 640.979675 204.012256 
L 641.413068 226.782107 
L 641.846461 195.880239 
L 642.713247 244.738844 
L 643.14664 233.580475 
L 643.580033 231.791915 
L 644.013426 239.091483 
L 644.44682 262.198575 
L 645.313606 202.295897 
L 645.746999 217.31319 
L 646.180392 240.014186 
L 646.613785 211.623251 
L 647.047178 238.32605 
L 647.480571 241.735675 
L 647.913964 241.345905 
L 648.347357 234.682482 
L 648.78075 247.446432 
L 649.214143 227.768054 
L 649.647536 267.184745 
L 650.080929 260.763293 
L 650.514322 258.997406 
L 650.947716 263.381652 
L 651.381109 245.851425 
L 651.814502 260.453291 
L 652.247895 227.209648 
L 652.681288 249.640653 
L 653.114681 236.301048 
L 653.548074 250.630805 
L 653.981467 248.932291 
L 654.41486 247.900306 
L 654.848253 254.627919 
L 655.281646 256.120407 
L 655.715039 236.825658 
L 656.148432 247.381884 
L 656.581825 224.485566 
L 657.015218 219.125666 
L 657.448612 224.294119 
L 657.882005 236.703414 
L 658.315398 233.971047 
L 658.748791 239.535947 
L 659.182184 234.72147 
L 659.615577 205.351652 
L 660.04897 217.593297 
L 660.482363 215.484196 
L 660.915756 235.648472 
L 661.349149 221.321614 
L 661.782542 202.563075 
L 662.215935 208.922046 
L 662.649328 225.828881 
L 663.082721 218.231632 
L 663.516114 234.357622 
L 663.949508 231.87179 
L 664.382901 225.544338 
L 664.816294 227.553896 
L 665.249687 208.197394 
L 665.68308 195.537304 
L 666.116473 216.487957 
L 666.983259 232.921651 
L 667.416652 226.235071 
L 668.283438 218.026066 
L 668.716831 205.146728 
L 669.150224 203.583373 
L 669.583617 204.154436 
L 670.01701 226.4415 
L 670.883797 204.89835 
L 671.31719 259.897724 
L 672.183976 210.757782 
L 672.617369 218.732377 
L 673.050762 229.001759 
L 673.484155 192.001623 
L 673.917548 209.783269 
L 674.350941 193.80886 
L 674.784334 197.071072 
L 675.217727 202.694721 
L 675.217727 202.694721 
" style="fill:none;stroke:#1f77b4;stroke-linecap:square;stroke-width:1.5;"/>
   </g>
   <g id="line2d_17">
    <path clip-path="url(#p9efb17a800)" d="M 103.572273 252.808759 
L 104.439059 174.295442 
L 104.872452 168.846011 
L 105.305845 169.419866 
L 105.739238 148.420881 
L 106.172631 148.301898 
L 106.606024 147.505193 
L 107.039417 149.249923 
L 107.47281 126.58917 
L 107.906203 124.469003 
L 108.339596 135.269555 
L 108.77299 117.35927 
L 109.206383 112.448033 
L 109.639776 116.901135 
L 110.073169 108.49663 
L 110.506562 107.231699 
L 110.939955 98.508276 
L 111.373348 108.731418 
L 111.806741 95.445016 
L 112.240134 99.57648 
L 112.673527 106.722437 
L 113.10692 104.098562 
L 113.540313 92.347722 
L 113.973706 100.005632 
L 114.407099 92.48482 
L 114.840492 96.559182 
L 115.273886 91.234442 
L 115.707279 92.329726 
L 116.140672 90.181917 
L 116.574065 92.935198 
L 117.007458 81.694276 
L 117.440851 97.012469 
L 117.874244 86.543725 
L 118.307637 90.194941 
L 118.74103 90.626926 
L 119.174423 77.292389 
L 119.607816 85.288703 
L 120.041209 85.687535 
L 120.474602 84.222444 
L 120.907995 75.182805 
L 121.341388 95.43085 
L 121.774782 81.870516 
L 122.641568 74.958291 
L 123.074961 83.995215 
L 123.508354 79.401946 
L 123.941747 88.371323 
L 124.37514 81.457848 
L 124.808533 80.151049 
L 125.675319 73.298049 
L 126.108712 76.723988 
L 126.542105 78.666399 
L 126.975498 78.765947 
L 127.408891 81.676568 
L 127.842284 82.880126 
L 128.275678 91.617391 
L 129.142464 65.080919 
L 129.575857 93.229149 
L 130.00925 81.509537 
L 130.442643 76.92195 
L 131.309429 70.597594 
L 131.742822 81.944284 
L 132.176215 80.640826 
L 132.609608 81.837228 
L 133.476394 75.382543 
L 133.909787 68.901602 
L 134.34318 79.821314 
L 134.776574 70.463207 
L 135.209967 72.930556 
L 135.64336 72.99395 
L 136.076753 67.64443 
L 136.510146 69.887639 
L 136.943539 64.608533 
L 137.376932 79.530748 
L 137.810325 71.726833 
L 138.243718 76.513918 
L 138.677111 73.904696 
L 139.110504 70.354735 
L 139.543897 73.275557 
L 139.97729 69.303894 
L 140.410683 72.836815 
L 141.27747 64.265355 
L 141.710863 65.566102 
L 142.144256 73.38033 
L 142.577649 59.759569 
L 143.011042 68.511185 
L 143.444435 66.638606 
L 143.877828 68.84227 
L 144.311221 63.504493 
L 144.744614 66.286719 
L 145.178007 70.630414 
L 145.6114 60.127081 
L 146.044793 69.585811 
L 146.478186 55.809715 
L 146.911579 62.83527 
L 147.344972 72.151383 
L 147.778365 66.64427 
L 148.211759 54.965357 
L 148.645152 66.580875 
L 149.078545 73.989363 
L 149.511938 68.184879 
L 149.945331 56.326579 
L 150.378724 48.926101 
L 151.24551 67.77366 
L 151.678903 65.828929 
L 152.112296 49.064029 
L 152.545689 57.03889 
L 152.979082 58.610804 
L 153.845868 63.269546 
L 154.279261 54.312816 
L 154.712655 54.616016 
L 155.579441 44.410151 
L 156.012834 39.714253 
L 156.446227 49.134153 
L 156.87962 52.515562 
L 157.313013 65.950858 
L 157.746406 54.384979 
L 158.179799 56.451279 
L 158.613192 49.914436 
L 159.046585 56.789299 
L 159.479978 61.273532 
L 159.913371 61.520153 
L 160.346764 48.73822 
L 160.780157 47.695428 
L 161.213551 53.996496 
L 161.646944 39.556833 
L 162.080337 40.194951 
L 162.51373 40.295649 
L 162.947123 41.252002 
L 163.380516 59.01741 
L 163.813909 49.245708 
L 164.247302 49.843092 
L 164.680695 51.195819 
L 165.114088 59.728066 
L 165.547481 51.157737 
L 165.980874 34.347783 
L 166.414267 46.258273 
L 166.84766 63.318277 
L 167.281053 55.479253 
L 167.714447 55.602462 
L 168.14784 50.127839 
L 168.581233 55.013057 
L 169.014626 47.197792 
L 169.448019 42.698606 
L 169.881412 52.741151 
L 170.314805 42.915346 
L 170.748198 47.689445 
L 171.181591 41.827708 
L 171.614984 46.845418 
L 172.048377 47.819669 
L 172.48177 31.328595 
L 172.915163 29.281818 
L 173.348556 34.421429 
L 173.781949 50.231941 
L 174.215343 50.64158 
L 174.648736 29.499343 
L 175.515522 50.476614 
L 175.948915 58.330494 
L 176.382308 45.519884 
L 176.815701 40.478518 
L 177.249094 51.930398 
L 177.682487 42.428065 
L 178.11588 50.106258 
L 178.549273 38.749498 
L 179.416059 50.845063 
L 179.849452 46.238481 
L 180.282845 39.627644 
L 180.716239 50.787709 
L 181.149632 54.482091 
L 181.583025 49.223263 
L 182.016418 45.356364 
L 182.449811 48.951748 
L 182.883204 47.431504 
L 183.316597 43.966055 
L 183.74999 43.298633 
L 184.183383 54.242017 
L 184.616776 59.162739 
L 185.050169 51.340777 
L 185.916955 45.706096 
L 186.350348 50.46419 
L 186.783741 42.083076 
L 187.217135 45.377092 
L 187.650528 55.762846 
L 188.083921 51.944582 
L 188.517314 49.117027 
L 188.950707 44.049415 
L 189.3841 53.187076 
L 189.817493 37.781916 
L 190.250886 44.956374 
L 190.684279 39.56693 
L 191.117672 51.406891 
L 191.551065 51.438872 
L 191.984458 55.105796 
L 192.417851 53.844669 
L 192.851244 49.54431 
L 193.284637 51.245216 
L 193.718031 51.63955 
L 194.151424 61.902568 
L 194.584817 59.475862 
L 195.01821 60.572639 
L 195.451603 58.498805 
L 195.884996 47.498814 
L 196.318389 49.722491 
L 196.751782 42.396666 
L 197.185175 52.168852 
L 198.051961 64.599554 
L 198.485354 53.555604 
L 198.918747 63.341643 
L 199.35214 65.867206 
L 199.785533 48.58396 
L 200.218927 56.299256 
L 200.65232 43.662029 
L 201.085713 39.162157 
L 201.519106 60.770036 
L 201.952499 43.934682 
L 202.385892 60.589613 
L 203.252678 42.98506 
L 203.686071 52.146014 
L 204.119464 46.299618 
L 204.98625 49.543816 
L 205.419643 79.835562 
L 205.853036 60.669503 
L 206.286429 52.56461 
L 206.719823 63.845588 
L 207.153216 53.245372 
L 207.586609 47.673803 
L 208.453395 53.602133 
L 208.886788 46.355364 
L 209.320181 52.749151 
L 209.753574 47.319575 
L 210.186967 58.596381 
L 210.62036 57.345156 
L 211.053753 58.555619 
L 211.487146 61.617877 
L 211.920539 54.847442 
L 212.353932 58.866464 
L 212.787325 55.841586 
L 213.220719 61.285652 
L 213.654112 45.26092 
L 214.087505 59.869863 
L 214.520898 50.90731 
L 214.954291 57.75895 
L 215.387684 44.355465 
L 215.821077 62.968683 
L 216.25447 42.999583 
L 216.687863 55.250955 
L 217.121256 45.871801 
L 217.554649 62.982191 
L 217.988042 42.502814 
L 218.854828 55.266503 
L 219.288221 46.545961 
L 219.721615 42.637235 
L 220.155008 43.52882 
L 220.588401 43.419293 
L 221.021794 51.155948 
L 221.455187 52.37356 
L 221.88858 44.74166 
L 222.321973 40.567667 
L 222.755366 38.873302 
L 223.188759 41.791092 
L 223.622152 48.301786 
L 224.055545 46.593456 
L 224.488938 42.422771 
L 224.922331 65.972788 
L 225.355724 47.650448 
L 225.789117 46.449929 
L 226.222511 50.956901 
L 226.655904 39.391482 
L 227.089297 57.15586 
L 227.52269 54.34826 
L 227.956083 50.081489 
L 228.389476 55.395835 
L 228.822869 51.91493 
L 229.256262 65.138926 
L 229.689655 52.693542 
L 230.123048 59.172413 
L 230.556441 49.51562 
L 230.989834 66.59178 
L 231.85662 30.928945 
L 232.290013 52.660126 
L 232.723407 81.723743 
L 233.1568 44.965464 
L 233.590193 45.424169 
L 234.456979 56.687805 
L 234.890372 51.708762 
L 235.323765 61.458232 
L 235.757158 44.103348 
L 236.190551 53.491318 
L 236.623944 57.730785 
L 237.057337 42.755649 
L 237.49073 60.87405 
L 237.924123 60.891264 
L 238.357516 61.244622 
L 238.790909 57.879862 
L 239.224303 60.843556 
L 239.657696 69.042945 
L 240.091089 53.395358 
L 240.524482 59.467073 
L 240.957875 67.108359 
L 241.391268 53.012365 
L 241.824661 58.983776 
L 242.258054 60.929227 
L 242.691447 56.856112 
L 243.558233 69.862807 
L 243.991626 53.231982 
L 244.425019 68.326657 
L 244.858412 49.306708 
L 245.291805 43.416914 
L 245.725198 56.832235 
L 246.158592 46.744008 
L 246.591985 49.833587 
L 247.025378 51.898518 
L 247.458771 56.573559 
L 247.892164 59.596026 
L 248.325557 68.808934 
L 248.75895 69.682531 
L 249.192343 65.844478 
L 249.625736 52.419296 
L 250.492522 62.295453 
L 250.925915 77.37741 
L 251.359308 73.872415 
L 251.792701 63.494191 
L 252.226094 56.977666 
L 252.659488 59.093572 
L 253.092881 68.150823 
L 253.959667 43.858783 
L 254.39306 38.668391 
L 255.259846 64.722615 
L 255.693239 56.019097 
L 256.126632 74.593445 
L 256.560025 55.086381 
L 256.993418 54.68009 
L 257.426811 56.008182 
L 257.860204 75.920458 
L 258.293597 52.179607 
L 258.72699 53.823297 
L 259.160384 56.492312 
L 259.593777 76.772573 
L 260.02717 48.412257 
L 260.460563 69.6657 
L 260.893956 65.890716 
L 261.327349 65.210959 
L 261.760742 58.901473 
L 262.194135 60.04992 
L 262.627528 78.73079 
L 263.060921 78.873252 
L 263.494314 53.562631 
L 264.3611 64.650781 
L 264.794493 73.350707 
L 265.227886 72.533525 
L 265.66128 61.971968 
L 266.094673 64.634572 
L 266.528066 79.596647 
L 267.394852 68.416261 
L 267.828245 56.823562 
L 268.261638 71.23511 
L 268.695031 58.752905 
L 269.128424 65.496537 
L 269.561817 68.266222 
L 269.99521 72.072313 
L 270.428603 55.499509 
L 270.861996 60.307445 
L 271.295389 74.213121 
L 272.595569 48.1921 
L 273.028962 68.826746 
L 273.462355 68.05487 
L 273.895748 60.621669 
L 274.329141 70.694887 
L 274.762534 84.544422 
L 275.195927 84.741511 
L 275.62932 70.378514 
L 276.062713 66.39092 
L 276.496106 68.478232 
L 276.929499 51.395218 
L 277.362892 80.888308 
L 277.796285 73.665451 
L 278.229678 72.100622 
L 278.663072 75.894861 
L 279.096465 101.236848 
L 279.529858 97.971384 
L 279.963251 91.541089 
L 280.396644 69.670075 
L 280.830037 87.34085 
L 281.26343 87.152933 
L 281.696823 93.860571 
L 282.130216 93.081136 
L 282.563609 90.510065 
L 282.997002 74.508108 
L 283.430395 79.343759 
L 283.863788 94.881543 
L 284.297181 77.939185 
L 284.730574 78.62965 
L 285.163968 75.510167 
L 285.597361 75.70293 
L 286.030754 77.457951 
L 286.464147 67.554651 
L 286.89754 68.745019 
L 287.330933 86.537093 
L 287.764326 79.667824 
L 288.631112 106.317633 
L 289.064505 99.426662 
L 289.497898 81.084071 
L 289.931291 83.943645 
L 290.364684 82.100123 
L 290.798077 87.893744 
L 291.23147 78.129078 
L 291.664864 80.151765 
L 292.098257 88.497172 
L 292.53165 78.639825 
L 292.965043 102.150039 
L 293.398436 88.708186 
L 293.831829 93.809117 
L 294.265222 94.739329 
L 294.698615 95.131589 
L 295.132008 106.243197 
L 295.565401 87.080381 
L 295.998794 80.618089 
L 296.432187 80.248515 
L 296.86558 81.543282 
L 297.298973 63.235849 
L 297.732366 90.60846 
L 298.16576 84.246754 
L 298.599153 83.400551 
L 299.032546 72.404465 
L 299.465939 72.022061 
L 299.899332 84.020312 
L 300.332725 79.116135 
L 300.766118 79.349339 
L 301.199511 80.329328 
L 301.632904 90.697217 
L 302.066297 84.384767 
L 302.49969 94.108844 
L 302.933083 88.586552 
L 303.366476 91.258699 
L 303.799869 81.381095 
L 304.233262 89.337584 
L 304.666656 73.83256 
L 305.100049 93.848848 
L 305.533442 91.62415 
L 305.966835 86.80138 
L 306.400228 90.902791 
L 306.833621 90.727759 
L 307.267014 71.727215 
L 307.700407 91.264529 
L 308.1338 98.108904 
L 309.000586 83.112756 
L 309.433979 95.397664 
L 309.867372 89.239518 
L 310.300765 89.655592 
L 310.734158 82.366927 
L 311.167552 92.601551 
L 311.600945 92.614452 
L 312.034338 77.376934 
L 312.467731 85.586083 
L 312.901124 85.607415 
L 313.334517 88.902537 
L 313.76791 82.549571 
L 314.201303 83.814253 
L 314.634696 100.461499 
L 315.068089 96.451521 
L 315.501482 82.268363 
L 315.934875 94.990093 
L 316.368268 101.896095 
L 316.801661 95.840738 
L 317.235054 107.239581 
L 317.668448 109.366229 
L 318.535234 92.474036 
L 319.40202 101.36951 
L 319.835413 93.521899 
L 320.268806 96.089802 
L 320.702199 107.166399 
L 321.135592 93.854063 
L 321.568985 98.185344 
L 322.002378 106.725034 
L 322.435771 106.870385 
L 322.869164 101.995602 
L 323.302557 99.832172 
L 323.73595 104.707633 
L 324.169344 103.679262 
L 324.602737 103.946445 
L 325.03613 96.810346 
L 325.469523 107.765745 
L 325.902916 105.971683 
L 326.336309 97.251594 
L 326.769702 96.122303 
L 327.203095 97.465228 
L 327.636488 114.416931 
L 328.069881 105.786395 
L 328.503274 106.792976 
L 328.936667 111.882743 
L 329.37006 109.522762 
L 329.803453 116.770297 
L 330.236846 113.225737 
L 330.67024 105.619632 
L 331.103633 101.383476 
L 331.537026 105.991487 
L 331.970419 103.960683 
L 332.403812 99.205275 
L 332.837205 105.647788 
L 333.270598 107.665631 
L 333.703991 115.254593 
L 334.570777 104.694401 
L 335.00417 101.746932 
L 335.437563 97.54725 
L 335.870956 98.442299 
L 336.304349 100.183354 
L 336.737742 109.397655 
L 337.171136 109.32844 
L 337.604529 115.845674 
L 338.037922 92.698945 
L 338.471315 102.400071 
L 338.904708 96.474264 
L 339.771494 104.591967 
L 340.204887 103.186747 
L 340.63828 119.160093 
L 341.071673 114.240072 
L 341.505066 115.103449 
L 341.938459 118.307104 
L 342.371852 111.668375 
L 342.805245 111.392455 
L 343.238638 117.928233 
L 343.672031 107.875203 
L 344.105425 109.506238 
L 344.538818 118.123668 
L 344.972211 118.468584 
L 345.838997 110.70954 
L 346.27239 99.900031 
L 346.705783 113.590311 
L 347.139176 102.187818 
L 347.572569 115.030039 
L 348.005962 102.257947 
L 348.439355 123.158255 
L 348.872748 104.879874 
L 349.739534 119.274788 
L 350.172927 129.391637 
L 350.606321 109.264333 
L 351.039714 108.631008 
L 351.473107 110.378202 
L 351.9065 116.89222 
L 352.339893 107.662514 
L 352.773286 108.103392 
L 353.206679 123.364083 
L 353.640072 105.114093 
L 354.073465 118.333764 
L 354.506858 111.69252 
L 354.940251 110.732783 
L 355.373644 119.51925 
L 355.807037 112.806418 
L 356.24043 111.148304 
L 356.673823 115.247763 
L 357.107217 125.950854 
L 357.54061 106.917792 
L 357.974003 120.512569 
L 358.407396 118.160415 
L 358.840789 111.873259 
L 359.274182 119.317282 
L 359.707575 109.724373 
L 360.140968 103.480441 
L 360.574361 100.188476 
L 361.007754 111.82008 
L 361.441147 117.199115 
L 361.87454 114.920094 
L 362.307933 106.543849 
L 362.741326 124.709721 
L 363.174719 110.527509 
L 363.608113 125.931968 
L 364.041506 127.770528 
L 364.474899 121.820882 
L 364.908292 110.221634 
L 365.341685 128.190862 
L 365.775078 111.542258 
L 366.208471 109.49337 
L 367.075257 112.67968 
L 367.50865 123.410956 
L 367.942043 124.398215 
L 368.375436 125.055842 
L 368.808829 134.489695 
L 369.242222 127.861255 
L 369.675615 111.580222 
L 370.542402 127.437099 
L 370.975795 130.863693 
L 371.409188 125.430629 
L 371.842581 118.1799 
L 372.275974 120.588217 
L 372.709367 130.933961 
L 373.14276 123.14997 
L 373.576153 124.107638 
L 374.442939 144.470198 
L 374.876332 127.10867 
L 375.309725 142.575126 
L 375.743118 121.36181 
L 376.609905 139.221633 
L 377.043298 136.714663 
L 377.910084 113.661556 
L 378.343477 123.55952 
L 378.77687 113.338637 
L 379.210263 130.442602 
L 379.643656 115.922079 
L 380.077049 117.050487 
L 380.510442 130.350917 
L 380.943835 125.476767 
L 381.377228 117.60871 
L 381.810621 115.694011 
L 382.244014 118.270316 
L 382.677407 129.8312 
L 383.110801 126.700649 
L 383.544194 116.772919 
L 383.977587 112.958692 
L 384.41098 111.921121 
L 384.844373 128.754806 
L 385.277766 120.874426 
L 385.711159 110.129823 
L 386.144552 109.804461 
L 386.577945 110.307037 
L 387.444731 122.45766 
L 387.878124 117.08194 
L 388.311517 126.863176 
L 388.74491 116.32356 
L 389.178303 122.012483 
L 389.611697 133.104758 
L 390.04509 124.52511 
L 390.478483 129.897168 
L 390.911876 111.603754 
L 391.345269 125.89305 
L 391.778662 125.226061 
L 392.212055 122.150899 
L 392.645448 114.181416 
L 393.078841 138.727442 
L 393.512234 125.737193 
L 393.945627 150.908751 
L 394.37902 140.143613 
L 394.812413 120.90515 
L 395.245806 136.686408 
L 395.679199 125.962697 
L 396.112593 133.320275 
L 396.545986 125.067123 
L 397.412772 150.833907 
L 397.846165 158.2192 
L 398.279558 147.263975 
L 398.712951 151.323965 
L 399.146344 126.036788 
L 400.01313 141.930978 
L 400.446523 138.264374 
L 400.879916 138.720678 
L 401.313309 133.339693 
L 401.746702 159.277598 
L 402.613489 126.111408 
L 403.046882 155.062904 
L 403.480275 125.505377 
L 404.347061 139.710567 
L 404.780454 133.065911 
L 405.213847 142.41378 
L 405.64724 148.700961 
L 406.514026 128.376447 
L 406.947419 144.599502 
L 407.380812 148.491331 
L 407.814205 144.389879 
L 408.247598 161.522418 
L 408.680991 149.616631 
L 409.114385 159.080207 
L 409.547778 149.910034 
L 409.981171 160.276834 
L 410.414564 180.6316 
L 410.847957 162.845608 
L 411.28135 163.890463 
L 411.714743 145.233347 
L 412.148136 169.698124 
L 412.581529 150.238934 
L 413.014922 155.704594 
L 413.448315 156.508154 
L 413.881708 169.722449 
L 414.315101 146.461809 
L 414.748494 155.355217 
L 415.181887 143.480532 
L 415.615281 165.629433 
L 416.048674 140.084506 
L 416.482067 130.950357 
L 416.91546 157.214321 
L 417.348853 171.805496 
L 417.782246 152.397322 
L 418.215639 154.370091 
L 418.649032 131.788315 
L 419.082425 134.204479 
L 419.515818 127.511127 
L 419.949211 130.655591 
L 420.382604 129.86277 
L 420.815997 143.007231 
L 421.24939 138.564639 
L 421.682783 146.931297 
L 422.116177 163.621104 
L 422.54957 171.778682 
L 422.982963 149.536336 
L 423.416356 179.598421 
L 424.283142 156.398319 
L 424.716535 165.792597 
L 425.149928 155.69393 
L 425.583321 136.785017 
L 426.016714 154.666192 
L 426.450107 144.455335 
L 426.8835 146.694384 
L 427.316893 165.214288 
L 427.750286 164.518845 
L 428.183679 159.778331 
L 428.617073 144.376115 
L 429.050466 160.98501 
L 429.483859 152.409663 
L 429.917252 162.198077 
L 430.350645 157.613204 
L 430.784038 158.51109 
L 431.217431 146.432951 
L 431.650824 143.516805 
L 432.084217 146.87401 
L 432.51761 167.998502 
L 432.951003 158.244026 
L 433.384396 160.679248 
L 433.817789 151.074287 
L 434.251182 152.36689 
L 434.684575 139.900952 
L 435.117969 174.436752 
L 435.984755 159.264951 
L 436.418148 165.531763 
L 436.851541 148.064132 
L 437.284934 146.012099 
L 437.718327 158.16105 
L 438.15172 141.019883 
L 438.585113 161.907694 
L 439.018506 148.392093 
L 439.451899 160.651676 
L 439.885292 154.669668 
L 440.318685 162.023997 
L 440.752078 136.580424 
L 441.185471 157.578817 
L 441.618864 157.152397 
L 442.052258 158.239602 
L 442.485651 168.555167 
L 442.919044 155.134078 
L 443.78583 167.739886 
L 444.219223 159.183156 
L 444.652616 127.219793 
L 445.086009 129.22607 
L 445.519402 156.799289 
L 445.952795 133.302776 
L 446.386188 140.786242 
L 446.819581 156.873898 
L 447.252974 163.519057 
L 447.686367 156.553247 
L 448.11976 162.178118 
L 448.553154 159.915326 
L 448.986547 135.131174 
L 449.41994 161.017934 
L 449.853333 167.362501 
L 450.286726 150.782285 
L 450.720119 150.304508 
L 451.153512 155.148323 
L 451.586905 155.645624 
L 452.020298 159.970489 
L 452.453691 185.004017 
L 452.887084 150.857319 
L 453.320477 145.015812 
L 453.75387 141.787858 
L 454.187263 150.024362 
L 454.620656 154.559661 
L 455.05405 146.337148 
L 455.487443 171.38697 
L 455.920836 149.30204 
L 456.354229 146.034919 
L 456.787622 148.909984 
L 457.221015 163.31464 
L 457.654408 151.896963 
L 458.087801 148.96611 
L 458.521194 150.755067 
L 458.954587 158.599982 
L 459.38798 141.246603 
L 459.821373 147.969685 
L 460.254766 149.894462 
L 460.688159 147.659578 
L 461.121552 140.874361 
L 461.554946 144.50748 
L 461.988339 164.368843 
L 462.421732 148.783166 
L 462.855125 159.129541 
L 463.288518 183.170693 
L 463.721911 171.51779 
L 464.588697 168.107806 
L 465.02209 149.338308 
L 465.455483 165.627728 
L 465.888876 164.716007 
L 466.322269 169.99948 
L 466.755662 170.785766 
L 467.189055 163.497831 
L 467.622448 162.071175 
L 468.055842 161.231802 
L 468.489235 159.193716 
L 468.922628 166.990032 
L 469.789414 149.641247 
L 470.222807 152.865843 
L 470.6562 137.937089 
L 471.089593 156.279737 
L 471.522986 142.332483 
L 471.956379 149.673549 
L 472.389772 143.740471 
L 472.823165 154.178109 
L 473.256558 148.575533 
L 473.689951 187.316806 
L 474.123344 150.251729 
L 474.556738 147.902228 
L 474.990131 163.611714 
L 475.423524 167.700622 
L 475.856917 154.794401 
L 476.29031 178.587796 
L 476.723703 168.33918 
L 477.157096 194.123628 
L 477.590489 190.104743 
L 478.023882 165.436733 
L 478.457275 165.928096 
L 478.890668 176.226889 
L 479.324061 171.048176 
L 479.757454 169.909169 
L 480.190847 205.742726 
L 481.057634 173.106194 
L 481.491027 193.735743 
L 481.92442 160.871237 
L 482.357813 159.402072 
L 482.791206 147.632198 
L 483.224599 152.253909 
L 483.657992 161.87282 
L 484.091385 186.11042 
L 484.524778 189.294245 
L 484.958171 166.356622 
L 485.391564 167.391448 
L 485.824957 148.142486 
L 486.25835 162.651062 
L 486.691743 170.850739 
L 487.125136 159.78628 
L 487.55853 171.362273 
L 487.991923 172.329769 
L 488.425316 168.146828 
L 488.858709 170.42554 
L 489.292102 151.489311 
L 490.158888 166.550169 
L 490.592281 198.582317 
L 491.025674 171.734303 
L 491.459067 156.749704 
L 491.89246 177.671503 
L 492.325853 149.147557 
L 493.192639 161.069941 
L 493.626032 176.16167 
L 494.059426 171.666964 
L 494.492819 185.307172 
L 494.926212 187.206765 
L 495.359605 176.55466 
L 495.792998 175.439005 
L 496.226391 155.366197 
L 496.659784 163.432786 
L 497.093177 153.862426 
L 497.52657 178.915846 
L 497.959963 179.482798 
L 498.393356 194.537448 
L 498.826749 178.837786 
L 499.260142 173.10775 
L 499.693535 181.965331 
L 500.126928 164.565623 
L 500.560322 176.111663 
L 500.993715 171.536624 
L 501.427108 172.448817 
L 501.860501 177.289605 
L 502.293894 156.261557 
L 502.727287 163.385155 
L 503.16068 151.787171 
L 503.594073 165.450146 
L 504.027466 162.601372 
L 504.460859 150.357823 
L 504.894252 166.41926 
L 505.327645 176.928801 
L 505.761038 181.548641 
L 506.194431 168.95254 
L 506.627824 165.935463 
L 507.061218 152.396144 
L 507.494611 164.776478 
L 507.928004 158.250278 
L 508.361397 177.387175 
L 508.79479 175.94451 
L 509.228183 184.971636 
L 510.094969 161.961392 
L 510.528362 174.820093 
L 511.395148 165.851042 
L 511.828541 171.823444 
L 512.261934 194.766543 
L 512.695327 176.35112 
L 513.12872 197.632583 
L 513.562114 182.156251 
L 513.995507 183.500111 
L 514.4289 180.915644 
L 514.862293 177.441472 
L 515.295686 184.121769 
L 515.729079 187.801596 
L 516.162472 163.560669 
L 516.595865 161.973146 
L 517.029258 149.877135 
L 517.462651 157.49053 
L 517.896044 192.640197 
L 518.329437 164.021646 
L 518.76283 155.890216 
L 519.196223 164.680194 
L 519.629616 164.289288 
L 520.06301 169.004562 
L 520.496403 178.072143 
L 520.929796 192.018277 
L 521.363189 171.906059 
L 521.796582 173.719388 
L 522.229975 177.648013 
L 522.663368 173.191387 
L 523.096761 191.701254 
L 523.530154 188.6047 
L 524.830333 203.055311 
L 525.263726 183.165326 
L 525.697119 154.750663 
L 526.130512 168.811429 
L 526.563906 168.955953 
L 526.997299 187.938653 
L 527.430692 191.708197 
L 527.864085 184.512239 
L 528.297478 199.070914 
L 528.730871 166.311619 
L 529.164264 171.926718 
L 529.597657 181.757609 
L 530.03105 165.590632 
L 530.464443 171.036365 
L 530.897836 209.188805 
L 531.331229 203.526223 
L 531.764622 200.943337 
L 532.631408 160.515341 
L 533.064802 193.290001 
L 533.498195 191.829018 
L 533.931588 201.377051 
L 534.364981 206.024899 
L 535.231767 201.521819 
L 535.66516 213.386051 
L 536.098553 183.256248 
L 536.531946 167.31694 
L 536.965339 175.207252 
L 537.398732 180.123188 
L 537.832125 202.119995 
L 538.265518 185.822385 
L 538.698911 182.709383 
L 539.132304 181.041092 
L 539.565697 198.555821 
L 539.999091 178.233715 
L 540.432484 181.243347 
L 540.865877 158.943158 
L 541.29927 171.806134 
L 541.732663 189.422483 
L 542.166056 196.051066 
L 542.599449 185.293891 
L 543.032842 227.389806 
L 543.466235 193.011536 
L 543.899628 180.278253 
L 544.333021 187.661235 
L 544.766414 175.936882 
L 545.6332 198.293281 
L 546.066593 184.837986 
L 546.499987 177.235156 
L 546.93338 187.09787 
L 547.366773 191.995325 
L 547.800166 177.919451 
L 548.233559 169.442894 
L 548.666952 186.603783 
L 549.100345 185.80961 
L 549.533738 204.181219 
L 549.967131 207.53678 
L 550.400524 211.921073 
L 550.833917 225.274137 
L 551.26731 197.773724 
L 551.700703 204.095212 
L 552.567489 187.005829 
L 553.000883 210.712787 
L 553.434276 185.608108 
L 553.867669 224.95755 
L 554.301062 205.028013 
L 554.734455 203.904013 
L 555.167848 254.518604 
L 555.601241 206.213926 
L 556.034634 207.939775 
L 556.468027 181.309491 
L 556.90142 204.502542 
L 557.334813 185.378716 
L 557.768206 210.671475 
L 558.201599 229.205474 
L 558.634992 187.526629 
L 559.068385 184.286456 
L 559.501779 208.148801 
L 559.935172 189.502446 
L 560.368565 190.948342 
L 560.801958 181.363102 
L 561.235351 194.797664 
L 561.668744 184.966952 
L 562.102137 184.945387 
L 562.53553 186.235795 
L 562.968923 196.316848 
L 563.402316 197.927599 
L 563.835709 201.339551 
L 564.269102 168.053981 
L 564.702495 166.99506 
L 565.135888 186.971882 
L 565.569281 178.483784 
L 566.002675 191.362593 
L 566.436068 174.992908 
L 566.869461 198.868323 
L 567.302854 171.517186 
L 567.736247 175.838639 
L 568.16964 187.632788 
L 568.603033 195.579276 
L 569.036426 188.73438 
L 569.903212 214.20302 
L 570.336605 183.975049 
L 570.769998 205.903907 
L 571.203391 187.931614 
L 571.636784 203.315856 
L 572.070177 188.212961 
L 572.503571 192.01642 
L 572.936964 202.387209 
L 573.370357 202.148053 
L 573.80375 193.471039 
L 574.237143 173.53096 
L 574.670536 175.049909 
L 575.103929 189.767811 
L 575.537322 185.268343 
L 575.970715 201.790531 
L 576.404108 207.679822 
L 576.837501 192.32292 
L 577.270894 182.510204 
L 577.704287 195.4783 
L 578.13768 201.403404 
L 578.571073 181.172295 
L 579.004467 179.608859 
L 579.43786 185.448217 
L 579.871253 194.32448 
L 580.304646 191.351343 
L 580.738039 205.498347 
L 581.171432 190.051611 
L 581.604825 181.212918 
L 582.038218 194.068233 
L 582.471611 201.903364 
L 582.905004 198.116071 
L 583.338397 210.083867 
L 584.205183 184.885416 
L 584.638576 180.348242 
L 585.071969 214.578616 
L 585.505363 181.768437 
L 585.938756 185.794383 
L 586.372149 226.16896 
L 586.805542 238.871572 
L 587.238935 187.877907 
L 588.105721 206.349874 
L 588.539114 215.516273 
L 588.972507 193.12173 
L 589.4059 203.247801 
L 589.839293 194.802953 
L 590.272686 221.697589 
L 590.706079 200.62199 
L 591.139472 227.193643 
L 591.572865 217.678446 
L 592.006259 178.587393 
L 592.439652 214.097018 
L 592.873045 193.666815 
L 593.306438 208.265743 
L 593.739831 182.937846 
L 594.173224 207.203911 
L 594.606617 190.202632 
L 595.04001 196.342161 
L 595.473403 248.461316 
L 596.340189 180.940275 
L 596.773582 210.319234 
L 597.206975 223.453551 
L 597.640368 221.608408 
L 598.073761 204.779685 
L 598.507155 232.399651 
L 598.940548 216.75101 
L 599.373941 234.974385 
L 599.807334 202.120809 
L 600.240727 223.098868 
L 600.67412 250.408683 
L 601.107513 212.968419 
L 601.540906 227.134084 
L 601.974299 223.602685 
L 602.841085 197.884352 
L 603.274478 209.064447 
L 603.707871 206.00741 
L 604.141264 204.239315 
L 604.574657 218.779546 
L 605.008051 210.372661 
L 605.441444 227.471831 
L 605.874837 202.981139 
L 606.30823 213.555748 
L 606.741623 221.258256 
L 607.175016 211.412754 
L 607.608409 198.93101 
L 608.041802 211.034508 
L 608.475195 185.800755 
L 608.908588 202.393668 
L 609.341981 185.58694 
L 609.775374 197.948011 
L 610.208767 229.392155 
L 610.64216 189.668814 
L 611.075553 191.589956 
L 611.508947 204.738855 
L 611.94234 196.568383 
L 612.375733 174.890282 
L 612.809126 241.643293 
L 613.242519 194.684703 
L 613.675912 205.210542 
L 614.109305 200.603628 
L 614.542698 201.179675 
L 614.976091 212.560476 
L 615.409484 217.418707 
L 615.842877 204.993094 
L 616.27627 226.462679 
L 616.709663 213.041535 
L 617.143056 227.790646 
L 617.576449 219.435204 
L 618.009843 254.236853 
L 618.443236 221.744978 
L 618.876629 225.427613 
L 619.310022 241.550547 
L 619.743415 216.121562 
L 620.176808 232.878093 
L 620.610201 201.620654 
L 621.043594 241.910791 
L 621.476987 221.083366 
L 621.91038 215.877734 
L 623.210559 234.802182 
L 623.643952 228.221665 
L 624.077345 234.323414 
L 624.510739 238.222556 
L 624.944132 212.238591 
L 625.377525 236.101669 
L 625.810918 220.254372 
L 626.244311 196.833749 
L 626.677704 211.484166 
L 627.111097 214.825172 
L 627.54449 240.177019 
L 627.977883 225.187271 
L 628.411276 229.136149 
L 628.844669 225.043064 
L 629.278062 210.982569 
L 629.711455 209.788501 
L 630.144848 245.106613 
L 630.578241 215.882313 
L 631.011635 202.253444 
L 631.445028 223.19682 
L 631.878421 220.168125 
L 632.311814 213.502153 
L 632.745207 222.680933 
L 633.1786 221.030373 
L 633.611993 232.187605 
L 634.045386 233.376139 
L 634.478779 233.883208 
L 634.912172 243.98886 
L 635.778958 227.008882 
L 636.212351 215.344596 
L 636.645744 207.67056 
L 637.079137 204.337807 
L 637.51253 203.597567 
L 637.945924 226.668226 
L 638.379317 217.067302 
L 638.81271 227.031926 
L 639.246103 212.384897 
L 639.679496 235.190924 
L 640.112889 229.188091 
L 640.546282 225.691095 
L 641.413068 216.040323 
L 641.846461 215.679085 
L 642.279854 208.985623 
L 642.713247 229.651624 
L 643.14664 227.409729 
L 643.580033 222.116774 
L 644.013426 243.59031 
L 644.44682 226.799254 
L 644.880213 223.135655 
L 645.313606 194.748517 
L 645.746999 239.630007 
L 646.180392 205.716111 
L 646.613785 236.503376 
L 647.047178 248.119595 
L 647.480571 244.733719 
L 647.913964 230.928129 
L 648.347357 238.045324 
L 648.78075 240.741738 
L 649.214143 263.195882 
L 649.647536 274.600049 
L 650.080929 290.918182 
L 650.514322 249.476874 
L 650.947716 254.529256 
L 651.381109 255.770642 
L 651.814502 247.491077 
L 652.247895 252.404307 
L 652.681288 253.368527 
L 653.114681 253.098507 
L 653.548074 249.760688 
L 653.981467 244.362653 
L 654.41486 208.451931 
L 654.848253 244.830208 
L 655.715039 234.371559 
L 656.148432 235.561681 
L 656.581825 225.353274 
L 657.015218 206.624101 
L 657.448612 216.225654 
L 657.882005 241.368564 
L 658.315398 229.92165 
L 658.748791 232.045476 
L 659.182184 218.086821 
L 659.615577 228.228576 
L 660.04897 212.030366 
L 660.482363 240.281516 
L 660.915756 236.664406 
L 661.349149 211.276722 
L 661.782542 215.554224 
L 662.649328 230.159386 
L 663.082721 210.257921 
L 663.516114 228.431294 
L 663.949508 253.220083 
L 664.382901 243.046063 
L 664.816294 208.225305 
L 665.249687 227.494487 
L 665.68308 213.020419 
L 666.116473 204.797088 
L 666.549866 218.357503 
L 666.983259 219.132677 
L 667.416652 209.237445 
L 667.850045 222.360765 
L 668.283438 190.114823 
L 668.716831 197.837379 
L 669.150224 189.679957 
L 669.583617 200.757454 
L 670.01701 229.81253 
L 670.450404 224.774739 
L 670.883797 208.088101 
L 671.31719 254.054878 
L 671.750583 213.051673 
L 672.183976 203.404133 
L 672.617369 191.265626 
L 673.050762 192.218238 
L 673.484155 189.780222 
L 673.917548 205.265762 
L 674.350941 209.677915 
L 674.784334 192.049749 
L 675.217727 222.60373 
L 675.217727 222.60373 
" style="fill:none;stroke:#ff7f0e;stroke-linecap:square;stroke-width:1.5;"/>
   </g>
   <g id="patch_3">
    <path d="M 74.99 304 
L 74.99 16.2 
" style="fill:none;stroke:#000000;stroke-linecap:square;stroke-linejoin:miter;stroke-width:0.8;"/>
   </g>
   <g id="patch_4">
    <path d="M 703.8 304 
L 703.8 16.2 
" style="fill:none;stroke:#000000;stroke-linecap:square;stroke-linejoin:miter;stroke-width:0.8;"/>
   </g>
   <g id="patch_5">
    <path d="M 74.99 304 
L 703.8 304 
" style="fill:none;stroke:#000000;stroke-linecap:square;stroke-linejoin:miter;stroke-width:0.8;"/>
   </g>
   <g id="patch_6">
    <path d="M 74.99 16.2 
L 703.8 16.2 
" style="fill:none;stroke:#000000;stroke-linecap:square;stroke-linejoin:miter;stroke-width:0.8;"/>
   </g>
   <g id="legend_1">
    <g id="patch_7">
     <path d="M 466.8375 72.234375 
L 693.3 72.234375 
Q 696.3 72.234375 696.3 69.234375 
L 696.3 26.7 
Q 696.3 23.7 693.3 23.7 
L 466.8375 23.7 
Q 463.8375 23.7 463.8375 26.7 
L 463.8375 69.234375 
Q 463.8375 72.234375 466.8375 72.234375 
z
" style="fill:#ffffff;opacity:0.8;stroke:#cccccc;stroke-linejoin:miter;"/>
    </g>
    <g id="line2d_18">
     <path d="M 469.8375 35.847656 
L 499.8375 35.847656 
" style="fill:none;stroke:#1f77b4;stroke-linecap:square;stroke-width:1.5;"/>
    </g>
    <g id="line2d_19"/>
    <g id="text_18">
     <text style="font-family:DejaVu Sans;font-size:15px;font-style:normal;font-weight:normal;text-anchor:start;" transform="rotate(-0, 511.8375, 41.097656)" x="511.8375" y="41.097656">training mean reward</text>
    </g>
    <g id="line2d_20">
     <path d="M 469.8375 57.864844 
L 499.8375 57.864844 
" style="fill:none;stroke:#ff7f0e;stroke-linecap:square;stroke-width:1.5;"/>
    </g>
    <g id="line2d_21"/>
    <g id="text_19">
     <text style="font-family:DejaVu Sans;font-size:15px;font-style:normal;font-weight:normal;text-anchor:start;" transform="rotate(-0, 511.8375, 63.114844)" x="511.8375" y="63.114844">validation mean reward</text>
    </g>
   </g>
  </g>
 </g>
 <defs>
  <clipPath id="p9efb17a800">
   <rect height="287.8" width="628.81" x="74.99" y="16.2"/>
  </clipPath>
 </defs>
</svg>
