<?xml version="1.0" encoding="utf-8" standalone="no"?>
<!DOCTYPE svg PUBLIC "-//W3C//DTD SVG 1.1//EN"
  "http://www.w3.org/Graphics/SVG/1.1/DTD/svg11.dtd">
<!-- Created with matplotlib (https://matplotlib.org/) -->
<svg height="360pt" version="1.1" viewBox="0 0 720 360" width="720pt" xmlns="http://www.w3.org/2000/svg" xmlns:xlink="http://www.w3.org/1999/xlink">
 <defs>
  <style type="text/css">
*{stroke-linecap:butt;stroke-linejoin:round;}
  </style>
 </defs>
 <g id="figure_1">
  <g id="patch_1">
   <path d="M 0 360 
L 720 360 
L 720 0 
L 0 0 
z
" style="fill:#ffffff;"/>
  </g>
  <g id="axes_1">
   <g id="patch_2">
    <path d="M 60.68 304 
L 703.8 304 
L 703.8 16.2 
L 60.68 16.2 
z
" style="fill:#ffffff;"/>
   </g>
   <g id="matplotlib.axis_1">
    <g id="xtick_1">
     <g id="line2d_1">
      <defs>
       <path d="M 0 0 
L 0 3.5 
" id="mb4582acb38" style="stroke:#000000;stroke-width:0.8;"/>
      </defs>
      <g>
       <use style="stroke:#000000;stroke-width:0.8;" x="89.469471" xlink:href="#mb4582acb38" y="304"/>
      </g>
     </g>
     <g id="text_1">
      <text style="font-family:DejaVu Sans;font-size:15px;font-style:normal;font-weight:normal;text-anchor:middle;" transform="rotate(-0, 89.469471, 322.397656)" x="89.469471" y="322.397656">0</text>
     </g>
    </g>
    <g id="xtick_2">
     <g id="line2d_2">
      <g>
       <use style="stroke:#000000;stroke-width:0.8;" x="178.120653" xlink:href="#mb4582acb38" y="304"/>
      </g>
     </g>
     <g id="text_2">
      <text style="font-family:DejaVu Sans;font-size:15px;font-style:normal;font-weight:normal;text-anchor:middle;" transform="rotate(-0, 178.120653, 322.397656)" x="178.120653" y="322.397656">100000</text>
     </g>
    </g>
    <g id="xtick_3">
     <g id="line2d_3">
      <g>
       <use style="stroke:#000000;stroke-width:0.8;" x="266.771835" xlink:href="#mb4582acb38" y="304"/>
      </g>
     </g>
     <g id="text_3">
      <text style="font-family:DejaVu Sans;font-size:15px;font-style:normal;font-weight:normal;text-anchor:middle;" transform="rotate(-0, 266.771835, 322.397656)" x="266.771835" y="322.397656">200000</text>
     </g>
    </g>
    <g id="xtick_4">
     <g id="line2d_4">
      <g>
       <use style="stroke:#000000;stroke-width:0.8;" x="355.423017" xlink:href="#mb4582acb38" y="304"/>
      </g>
     </g>
     <g id="text_4">
      <text style="font-family:DejaVu Sans;font-size:15px;font-style:normal;font-weight:normal;text-anchor:middle;" transform="rotate(-0, 355.423017, 322.397656)" x="355.423017" y="322.397656">300000</text>
     </g>
    </g>
    <g id="xtick_5">
     <g id="line2d_5">
      <g>
       <use style="stroke:#000000;stroke-width:0.8;" x="444.074199" xlink:href="#mb4582acb38" y="304"/>
      </g>
     </g>
     <g id="text_5">
      <text style="font-family:DejaVu Sans;font-size:15px;font-style:normal;font-weight:normal;text-anchor:middle;" transform="rotate(-0, 444.074199, 322.397656)" x="444.074199" y="322.397656">400000</text>
     </g>
    </g>
    <g id="xtick_6">
     <g id="line2d_6">
      <g>
       <use style="stroke:#000000;stroke-width:0.8;" x="532.725381" xlink:href="#mb4582acb38" y="304"/>
      </g>
     </g>
     <g id="text_6">
      <text style="font-family:DejaVu Sans;font-size:15px;font-style:normal;font-weight:normal;text-anchor:middle;" transform="rotate(-0, 532.725381, 322.397656)" x="532.725381" y="322.397656">500000</text>
     </g>
    </g>
    <g id="xtick_7">
     <g id="line2d_7">
      <g>
       <use style="stroke:#000000;stroke-width:0.8;" x="621.376564" xlink:href="#mb4582acb38" y="304"/>
      </g>
     </g>
     <g id="text_7">
      <text style="font-family:DejaVu Sans;font-size:15px;font-style:normal;font-weight:normal;text-anchor:middle;" transform="rotate(-0, 621.376564, 322.397656)" x="621.376564" y="322.397656">600000</text>
     </g>
    </g>
    <g id="text_8">
     <text style="font-family:DejaVu Sans;font-size:15px;font-style:normal;font-weight:normal;text-anchor:middle;" transform="rotate(-0, 382.24, 340.914844)" x="382.24" y="340.914844">Episodes</text>
    </g>
   </g>
   <g id="matplotlib.axis_2">
    <g id="ytick_1">
     <g id="line2d_8">
      <defs>
       <path d="M 0 0 
L -3.5 0 
" id="mce52674a0d" style="stroke:#000000;stroke-width:0.8;"/>
      </defs>
      <g>
       <use style="stroke:#000000;stroke-width:0.8;" x="60.68" xlink:href="#mce52674a0d" y="290.918182"/>
      </g>
     </g>
     <g id="text_9">
      <text style="font-family:DejaVu Sans;font-size:15px;font-style:normal;font-weight:normal;text-anchor:end;" transform="rotate(-0, 53.68, 296.61701)" x="53.68" y="296.61701">0</text>
     </g>
    </g>
    <g id="ytick_2">
     <g id="line2d_9">
      <g>
       <use style="stroke:#000000;stroke-width:0.8;" x="60.68" xlink:href="#mce52674a0d" y="233.225781"/>
      </g>
     </g>
     <g id="text_10">
      <text style="font-family:DejaVu Sans;font-size:15px;font-style:normal;font-weight:normal;text-anchor:end;" transform="rotate(-0, 53.68, 238.924609)" x="53.68" y="238.924609">10</text>
     </g>
    </g>
    <g id="ytick_3">
     <g id="line2d_10">
      <g>
       <use style="stroke:#000000;stroke-width:0.8;" x="60.68" xlink:href="#mce52674a0d" y="175.53338"/>
      </g>
     </g>
     <g id="text_11">
      <text style="font-family:DejaVu Sans;font-size:15px;font-style:normal;font-weight:normal;text-anchor:end;" transform="rotate(-0, 53.68, 181.232208)" x="53.68" y="181.232208">20</text>
     </g>
    </g>
    <g id="ytick_4">
     <g id="line2d_11">
      <g>
       <use style="stroke:#000000;stroke-width:0.8;" x="60.68" xlink:href="#mce52674a0d" y="117.840979"/>
      </g>
     </g>
     <g id="text_12">
      <text style="font-family:DejaVu Sans;font-size:15px;font-style:normal;font-weight:normal;text-anchor:end;" transform="rotate(-0, 53.68, 123.539807)" x="53.68" y="123.539807">30</text>
     </g>
    </g>
    <g id="ytick_5">
     <g id="line2d_12">
      <g>
       <use style="stroke:#000000;stroke-width:0.8;" x="60.68" xlink:href="#mce52674a0d" y="60.148577"/>
      </g>
     </g>
     <g id="text_13">
      <text style="font-family:DejaVu Sans;font-size:15px;font-style:normal;font-weight:normal;text-anchor:end;" transform="rotate(-0, 53.68, 65.847406)" x="53.68" y="65.847406">40</text>
     </g>
    </g>
    <g id="text_14">
     <text style="font-family:DejaVu Sans;font-size:15px;font-style:normal;font-weight:normal;text-anchor:middle;" transform="rotate(-90, 27.472969, 160.1)" x="27.472969" y="160.1">Reward Components Mean (Max 50)</text>
    </g>
   </g>
   <g id="line2d_13">
    <path clip-path="url(#p2897f8ef5f)" d="M 89.912727 152.681182 
L 90.799239 101.973149 
L 91.685751 96.683022 
L 92.129007 83.597878 
L 92.572263 86.318022 
L 93.015519 84.939348 
L 93.458775 82.620758 
L 93.90203 72.175415 
L 94.345286 69.666579 
L 94.788542 76.150619 
L 95.231798 65.943172 
L 95.675054 65.40463 
L 96.11831 65.503621 
L 96.561566 57.536143 
L 97.004822 61.357703 
L 97.448078 55.76549 
L 97.891334 58.608754 
L 98.33459 53.635215 
L 98.777845 56.212111 
L 99.221101 57.523666 
L 100.107613 52.641834 
L 100.550869 53.804727 
L 100.994125 48.699368 
L 101.437381 51.158427 
L 101.880637 49.021032 
L 102.323893 50.54681 
L 102.767149 48.838172 
L 103.210405 48.271992 
L 103.65366 46.071238 
L 104.096916 51.047207 
L 104.540172 45.725315 
L 104.983428 48.67942 
L 105.86994 42.782291 
L 106.313196 45.184808 
L 106.756452 46.471224 
L 107.642964 40.413134 
L 108.08622 49.518837 
L 109.415987 40.421175 
L 109.859243 45.68262 
L 110.302499 42.422735 
L 110.745755 49.259878 
L 111.189011 44.424278 
L 111.632267 42.75128 
L 112.075523 42.225737 
L 112.518779 39.293998 
L 112.962035 42.163294 
L 113.405291 42.707514 
L 113.848546 44.509867 
L 114.291802 44.088856 
L 114.735058 48.172735 
L 115.62157 42.486527 
L 116.064826 35.902422 
L 116.508082 50.632429 
L 116.951338 43.375518 
L 117.394594 41.121467 
L 118.281106 39.411212 
L 118.724361 45.401327 
L 119.167617 44.269511 
L 119.610873 44.63274 
L 120.054129 40.398684 
L 120.497385 41.01712 
L 120.940641 37.09831 
L 121.383897 43.335394 
L 121.827153 38.686537 
L 122.270409 38.866733 
L 122.713665 40.619297 
L 123.156921 37.907683 
L 123.600176 36.833194 
L 124.043432 36.065623 
L 124.486688 41.68564 
L 124.929944 40.593891 
L 125.3732 41.111316 
L 125.816456 42.065074 
L 126.259712 38.509933 
L 127.146224 39.76134 
L 127.58948 40.860153 
L 128.032736 35.570237 
L 128.475991 35.524633 
L 128.919247 38.569919 
L 129.362503 40.38636 
L 129.805759 34.911111 
L 130.249015 36.187706 
L 130.692271 37.83548 
L 131.135527 35.788931 
L 131.578783 36.860692 
L 132.465295 40.640511 
L 132.908551 34.440528 
L 133.351806 37.795648 
L 133.795062 32.120942 
L 134.238318 38.04704 
L 134.681574 37.866714 
L 135.12483 37.166478 
L 135.568086 32.000483 
L 136.011342 37.977476 
L 136.454598 38.648177 
L 136.897854 38.786407 
L 137.34111 31.753107 
L 137.784366 32.68183 
L 138.227621 34.628293 
L 138.670877 38.018809 
L 139.114133 37.072644 
L 139.557389 33.136665 
L 140.000645 33.092044 
L 140.443901 35.859045 
L 140.887157 36.507235 
L 141.330413 38.781917 
L 141.773669 29.940775 
L 142.216925 35.091875 
L 142.660181 32.766229 
L 143.103436 31.977523 
L 143.546692 30.263492 
L 143.989948 32.949663 
L 144.433204 33.838364 
L 144.87646 41.245267 
L 145.319716 36.31211 
L 145.762972 33.005192 
L 146.206228 36.751927 
L 146.649484 34.67313 
L 147.09274 35.832303 
L 147.535996 38.376538 
L 147.979251 34.120318 
L 148.422507 32.068588 
L 148.865763 34.782198 
L 149.309019 29.281818 
L 150.195531 32.434297 
L 150.638787 35.301532 
L 151.082043 34.216942 
L 151.525299 35.446855 
L 151.968555 34.306257 
L 152.411811 36.104196 
L 152.855067 35.303783 
L 153.298322 37.806449 
L 153.741578 31.947911 
L 154.184834 33.066719 
L 154.62809 37.050858 
L 155.071346 35.622919 
L 155.514602 38.820703 
L 155.957858 35.667402 
L 156.401114 38.110712 
L 156.84437 33.337607 
L 157.287626 32.6883 
L 157.730882 35.114017 
L 158.617393 33.967916 
L 159.060649 36.950321 
L 159.503905 38.518565 
L 159.947161 37.171245 
L 160.833673 30.752028 
L 161.276929 34.149713 
L 161.720185 35.149177 
L 162.163441 35.789854 
L 162.606697 33.463264 
L 163.049952 32.893507 
L 163.936464 44.253607 
L 164.37972 34.187335 
L 164.822976 35.675792 
L 165.266232 38.575472 
L 165.709488 37.02345 
L 166.152744 40.795481 
L 166.596 36.790174 
L 167.039256 37.509318 
L 167.482512 40.543181 
L 167.925767 37.714706 
L 168.369023 40.944444 
L 169.698791 37.127458 
L 170.142047 38.853672 
L 170.585303 36.724447 
L 171.028559 36.779024 
L 171.471815 38.993746 
L 171.915071 36.975506 
L 172.358327 42.006454 
L 172.801582 44.069558 
L 173.244838 42.632475 
L 173.688094 38.54083 
L 174.13135 39.540625 
L 174.574606 38.667051 
L 175.017862 40.153837 
L 175.461118 37.898921 
L 175.904374 44.87423 
L 176.34763 40.347464 
L 176.790886 43.265502 
L 177.234142 39.887906 
L 177.677397 40.414329 
L 178.120653 38.111545 
L 178.563909 39.360838 
L 179.007165 37.343472 
L 179.450421 42.595168 
L 179.893677 42.316972 
L 180.336933 40.812109 
L 180.780189 47.03482 
L 181.223445 45.490009 
L 181.666701 46.023778 
L 182.109957 45.305997 
L 182.553212 45.022907 
L 183.439724 49.613449 
L 183.88298 46.777119 
L 184.326236 42.888724 
L 184.769492 42.2006 
L 185.212748 40.265561 
L 185.656004 44.682831 
L 186.09926 46.266837 
L 186.542516 42.389276 
L 186.985772 44.08295 
L 187.872283 50.218217 
L 188.315539 44.216288 
L 188.758795 45.430395 
L 189.202051 37.622433 
L 189.645307 40.45234 
L 190.088563 50.246234 
L 190.531819 43.904447 
L 190.975075 47.228066 
L 191.418331 45.014917 
L 191.861587 40.502429 
L 192.304843 44.943561 
L 192.748098 46.719333 
L 193.191354 43.072452 
L 193.63461 44.464332 
L 194.077866 53.255993 
L 194.521122 44.712537 
L 194.964378 40.084565 
L 195.407634 45.351599 
L 195.85089 42.419607 
L 196.294146 37.599006 
L 196.737402 41.904752 
L 197.180658 44.360031 
L 197.623913 44.312999 
L 198.067169 42.955426 
L 198.510425 46.931189 
L 198.953681 45.35303 
L 199.396937 44.674791 
L 200.283449 45.483708 
L 200.726705 43.345664 
L 201.169961 42.877288 
L 201.613217 42.739462 
L 202.056473 47.161421 
L 202.499728 41.04495 
L 202.942984 45.779133 
L 203.38624 40.970044 
L 203.829496 46.460355 
L 204.272752 38.828558 
L 204.716008 51.270782 
L 205.159264 44.995303 
L 205.60252 45.154857 
L 206.045776 45.880374 
L 206.489032 50.482894 
L 206.932288 41.600077 
L 207.375543 46.081144 
L 207.818799 44.416461 
L 208.262055 42.141815 
L 208.705311 39.074994 
L 209.148567 43.050175 
L 209.591823 43.990285 
L 210.035079 44.3276 
L 210.478335 48.937348 
L 210.921591 49.025555 
L 211.364847 39.182734 
L 211.808103 42.225467 
L 212.251358 46.890706 
L 212.694614 45.118329 
L 213.13787 47.65716 
L 213.581126 43.200662 
L 214.024382 50.814003 
L 214.910894 46.317263 
L 215.35415 42.09376 
L 215.797406 45.550265 
L 216.240662 43.466549 
L 216.683918 45.381963 
L 217.127173 45.319161 
L 217.570429 47.704124 
L 218.013685 45.870999 
L 218.456941 52.978989 
L 218.900197 46.965317 
L 219.343453 47.878496 
L 219.786709 50.25835 
L 220.229965 57.139798 
L 220.673221 45.275464 
L 221.116477 45.360748 
L 221.559733 46.245182 
L 222.002988 55.496457 
L 222.446244 45.95252 
L 222.8895 47.242001 
L 223.332756 43.470755 
L 223.776012 51.183373 
L 224.219268 43.705191 
L 224.662524 50.089421 
L 225.10578 46.519473 
L 225.549036 47.46529 
L 225.992292 47.537524 
L 226.435548 41.77623 
L 226.878804 50.510957 
L 227.322059 54.474042 
L 227.765315 47.00815 
L 228.208571 47.614943 
L 228.651827 48.472704 
L 229.095083 54.562655 
L 229.538339 50.066777 
L 229.981595 53.871237 
L 230.424851 55.770688 
L 230.868107 49.36012 
L 231.311363 54.492193 
L 231.754619 51.98846 
L 232.197874 47.994139 
L 233.084386 56.218089 
L 233.527642 46.54445 
L 233.970898 53.606305 
L 234.414154 44.999259 
L 234.85741 43.852098 
L 235.300666 52.911713 
L 235.743922 49.993629 
L 236.187178 48.040653 
L 236.630434 50.423548 
L 237.073689 50.798515 
L 237.516945 52.745426 
L 237.960201 55.376193 
L 238.403457 51.12433 
L 238.846713 49.449028 
L 239.289969 50.10728 
L 239.733225 49.401869 
L 240.176481 50.340007 
L 240.619737 60.987732 
L 241.062993 52.157806 
L 241.506249 53.595291 
L 241.949504 51.190966 
L 242.39276 55.435064 
L 242.836016 52.173681 
L 243.279272 53.06415 
L 243.722528 46.269399 
L 244.165784 44.049783 
L 244.60904 50.108038 
L 245.052296 54.011081 
L 245.938808 50.701395 
L 246.382064 50.533031 
L 246.825319 49.751965 
L 247.711831 60.431284 
L 248.155087 50.145326 
L 248.598343 52.508917 
L 249.041599 49.112992 
L 249.484855 54.342748 
L 249.928111 48.130853 
L 250.371367 55.790253 
L 250.814623 56.969424 
L 251.257879 58.757343 
L 251.701134 52.844974 
L 252.14439 53.033337 
L 252.587646 58.179626 
L 253.030902 57.821799 
L 253.474158 49.212914 
L 253.917414 50.897721 
L 254.36067 51.29742 
L 254.803926 56.702801 
L 255.247182 53.101677 
L 255.690438 55.471297 
L 256.133694 51.374066 
L 256.576949 53.716781 
L 257.020205 57.350817 
L 257.463461 55.726216 
L 257.906717 45.798022 
L 258.349973 52.487601 
L 258.793229 49.69601 
L 259.236485 52.824694 
L 259.679741 49.750353 
L 260.122997 57.913503 
L 260.566253 47.607466 
L 261.009509 50.779207 
L 261.452764 60.963806 
L 261.89602 53.491716 
L 262.339276 54.706571 
L 262.782532 48.888608 
L 263.669044 55.888592 
L 264.1123 54.761499 
L 264.555556 55.033599 
L 264.998812 60.697359 
L 265.442068 62.073813 
L 265.885324 47.305298 
L 266.32858 54.214474 
L 266.771835 51.764178 
L 267.215091 46.788449 
L 267.658347 60.838678 
L 268.101603 49.020526 
L 268.988115 55.549787 
L 269.431371 61.610608 
L 269.874627 65.059355 
L 270.317883 57.605193 
L 270.761139 55.259747 
L 271.204395 60.395021 
L 271.64765 61.437982 
L 272.090906 58.470331 
L 272.534162 54.159895 
L 272.977418 57.2251 
L 273.420674 53.212158 
L 273.86393 57.344446 
L 274.307186 62.61739 
L 274.750442 58.210487 
L 275.193698 51.869274 
L 275.636954 48.524763 
L 276.08021 54.508904 
L 276.523465 50.627884 
L 276.966721 49.22906 
L 277.409977 50.466884 
L 277.853233 55.416021 
L 278.296489 54.363052 
L 278.739745 52.514036 
L 279.183001 62.37465 
L 279.626257 62.410223 
L 280.069513 49.713806 
L 280.512769 52.494379 
L 280.956025 50.300951 
L 281.39928 54.594686 
L 281.842536 53.204263 
L 282.285792 47.594776 
L 282.729048 55.154049 
L 283.172304 46.947202 
L 283.61556 59.229165 
L 284.058816 53.052864 
L 284.502072 59.303792 
L 284.945328 56.24833 
L 285.388584 56.407791 
L 285.83184 63.885285 
L 286.275095 50.416662 
L 286.718351 57.487328 
L 287.161607 48.039404 
L 287.604863 55.187996 
L 288.048119 46.670166 
L 288.491375 56.192778 
L 289.377887 52.373529 
L 289.821143 54.058142 
L 290.264399 48.417841 
L 290.707655 56.3521 
L 291.15091 51.831336 
L 291.594166 52.377854 
L 292.037422 48.275814 
L 292.480678 52.19169 
L 292.923934 50.764504 
L 293.36719 56.552554 
L 293.810446 54.927936 
L 294.253702 54.834128 
L 294.696958 48.860048 
L 295.140214 52.367146 
L 295.58347 50.0557 
L 296.026725 54.756034 
L 296.469981 55.77887 
L 296.913237 51.8402 
L 297.356493 52.105271 
L 297.799749 49.885437 
L 298.243005 42.674626 
L 298.686261 52.479692 
L 299.129517 55.813974 
L 300.016029 45.937212 
L 300.459285 53.713473 
L 300.90254 54.117383 
L 301.345796 56.654346 
L 301.789052 49.394725 
L 302.232308 50.509818 
L 302.675564 53.69725 
L 303.11882 50.568208 
L 303.562076 54.467944 
L 304.005332 53.68492 
L 304.448588 51.612898 
L 304.891844 46.909017 
L 305.3351 53.380719 
L 305.778356 57.561766 
L 306.221611 57.254371 
L 306.664867 50.801323 
L 307.108123 53.527014 
L 307.551379 57.657151 
L 307.994635 56.448086 
L 308.437891 53.429333 
L 308.881147 61.049651 
L 309.324403 58.772003 
L 309.767659 52.031255 
L 310.210915 55.26453 
L 310.654171 55.35584 
L 311.097426 53.507447 
L 311.540682 54.986689 
L 311.983938 58.848469 
L 312.427194 54.18161 
L 312.87045 51.845106 
L 313.313706 60.116927 
L 313.756962 56.487173 
L 314.200218 59.191486 
L 314.643474 53.460027 
L 315.08673 58.318763 
L 315.529986 57.614752 
L 315.973241 57.684169 
L 316.416497 56.74031 
L 316.859753 59.578878 
L 317.303009 57.319755 
L 317.746265 51.100428 
L 318.189521 51.110176 
L 319.076033 63.96186 
L 319.519289 57.263546 
L 319.962545 58.977526 
L 320.405801 59.248451 
L 320.849056 57.704213 
L 321.292312 62.068789 
L 321.735568 60.836791 
L 322.178824 57.107403 
L 322.62208 50.86869 
L 323.508592 58.875102 
L 323.951848 55.782295 
L 324.395104 57.531406 
L 324.83836 58.368211 
L 325.281616 59.918986 
L 325.724871 57.458813 
L 326.168127 56.812392 
L 326.611383 52.199797 
L 327.054639 51.916714 
L 327.497895 53.320103 
L 327.941151 49.056978 
L 328.384407 55.453435 
L 329.270919 61.966117 
L 329.714175 50.781067 
L 330.157431 50.873671 
L 330.600686 49.955918 
L 331.043942 51.363295 
L 331.930454 55.923171 
L 332.37371 66.158663 
L 332.816966 60.551523 
L 333.260222 58.570905 
L 333.703478 62.474967 
L 334.58999 55.560535 
L 335.033246 62.058678 
L 335.476501 54.646165 
L 335.919757 56.014848 
L 336.363013 60.377917 
L 336.806269 57.543739 
L 337.249525 58.791225 
L 338.136037 51.027124 
L 338.579293 58.302111 
L 339.022549 50.84118 
L 339.465805 59.45444 
L 339.909061 52.764772 
L 340.352316 63.689436 
L 340.795572 55.253024 
L 341.238828 59.342795 
L 341.682084 61.25447 
L 342.12534 66.193139 
L 342.568596 56.679615 
L 343.011852 58.290853 
L 343.455108 57.514884 
L 343.898364 63.430783 
L 344.34162 58.077569 
L 344.784876 56.71945 
L 345.228132 67.454158 
L 345.671387 57.446203 
L 346.114643 63.054251 
L 346.557899 58.713479 
L 347.001155 59.269892 
L 347.444411 63.116908 
L 347.887667 59.256022 
L 348.330923 57.22219 
L 348.774179 59.970817 
L 349.217435 61.970787 
L 349.660691 58.041358 
L 350.103947 63.08623 
L 350.547202 61.38032 
L 350.990458 57.959178 
L 351.433714 62.534658 
L 351.87697 56.92019 
L 352.320226 53.125929 
L 352.763482 52.406911 
L 353.206738 60.390024 
L 353.649994 62.754388 
L 354.09325 58.975819 
L 354.536506 56.516579 
L 354.979762 63.438583 
L 355.423017 55.868299 
L 355.866273 62.099549 
L 356.309529 65.890044 
L 356.752785 62.024493 
L 357.196041 56.369849 
L 357.639297 66.93282 
L 358.082553 54.843431 
L 358.969065 56.407465 
L 359.412321 59.840643 
L 359.855577 65.412192 
L 360.298832 66.521866 
L 360.742088 65.74759 
L 361.185344 70.490164 
L 361.6286 66.538673 
L 362.071856 56.129621 
L 362.515112 61.516115 
L 362.958368 65.251763 
L 363.401624 65.226105 
L 363.84488 63.52323 
L 364.288136 62.614833 
L 364.731392 58.006317 
L 365.174647 67.86183 
L 365.617903 62.545434 
L 366.061159 61.12421 
L 366.504415 68.168354 
L 366.947671 73.338579 
L 367.390927 64.144577 
L 367.834183 69.305415 
L 368.277439 57.42144 
L 368.720695 60.963564 
L 369.163951 68.19673 
L 369.607207 70.775988 
L 370.050462 57.349543 
L 370.493718 51.903724 
L 370.936974 61.79134 
L 371.38023 58.475831 
L 371.823486 65.486882 
L 372.266742 58.458617 
L 372.709998 57.64508 
L 373.153254 70.512519 
L 373.59651 68.308487 
L 374.039766 63.090357 
L 374.483022 61.424641 
L 374.926277 61.180556 
L 375.369533 68.436664 
L 375.812789 65.240289 
L 376.256045 59.396346 
L 376.699301 56.968432 
L 377.142557 56.45563 
L 377.585813 66.406394 
L 378.472325 59.306037 
L 378.915581 59.425272 
L 379.358837 59.838658 
L 379.802092 59.099908 
L 380.245348 64.023097 
L 380.688604 58.393998 
L 381.13186 66.542302 
L 381.575116 61.674422 
L 382.018372 64.718375 
L 382.461628 69.053167 
L 382.904884 63.91848 
L 383.34814 65.593148 
L 383.791396 59.800785 
L 384.234652 64.700776 
L 384.677908 67.631188 
L 385.121163 64.338925 
L 385.564419 57.571077 
L 386.007675 73.086792 
L 386.450931 67.461446 
L 386.894187 78.269728 
L 387.337443 71.663178 
L 387.780699 60.533519 
L 388.223955 67.558975 
L 388.667211 62.308883 
L 389.110467 67.187192 
L 389.553723 59.917801 
L 390.440234 80.550864 
L 391.326746 71.125101 
L 391.770002 81.732024 
L 392.213258 67.858251 
L 392.656514 73.188418 
L 393.09977 75.078694 
L 393.543026 70.751881 
L 393.986282 76.251657 
L 394.429538 67.17362 
L 394.872793 88.2588 
L 395.316049 72.430758 
L 395.759305 68.741945 
L 396.202561 80.237983 
L 396.645817 64.783928 
L 397.089073 68.544656 
L 397.532329 68.536653 
L 397.975585 67.829699 
L 398.418841 68.788453 
L 398.862097 76.808226 
L 399.748608 67.520058 
L 400.191864 77.923461 
L 400.63512 81.949437 
L 401.078376 71.684316 
L 401.521632 86.415848 
L 401.964888 75.272652 
L 402.408144 84.294584 
L 402.8514 81.508443 
L 403.737912 93.948645 
L 404.181168 87.411625 
L 404.624423 84.696347 
L 405.067679 78.36944 
L 405.510935 89.635464 
L 405.954191 76.215355 
L 406.397447 84.685126 
L 406.840703 82.240292 
L 407.283959 87.711945 
L 407.727215 78.30638 
L 408.170471 82.937959 
L 408.613727 76.946157 
L 409.056983 93.692577 
L 409.500238 73.216779 
L 409.943494 66.21684 
L 410.38675 84.827919 
L 410.830006 89.785437 
L 411.273262 77.685473 
L 411.716518 81.391639 
L 412.159774 67.882911 
L 412.60303 71.707137 
L 413.046286 67.165589 
L 413.489542 63.980808 
L 413.932798 67.166506 
L 414.376053 77.397763 
L 414.819309 70.038609 
L 415.262565 84.247903 
L 415.705821 88.636609 
L 416.149077 95.041848 
L 416.592333 83.856404 
L 417.035589 96.681173 
L 417.478845 92.030731 
L 417.922101 83.866415 
L 418.365357 82.923913 
L 418.808613 78.016662 
L 419.251868 71.408704 
L 419.695124 81.89015 
L 420.13838 71.5704 
L 420.581636 78.457298 
L 421.024892 89.693145 
L 421.911404 84.28446 
L 422.35466 73.478254 
L 422.797916 83.579195 
L 423.241172 81.091868 
L 423.684428 87.6928 
L 424.570939 79.877915 
L 425.014195 77.722187 
L 425.457451 69.32468 
L 425.900707 71.136359 
L 426.343963 87.630158 
L 426.787219 79.98987 
L 427.230475 85.296301 
L 427.673731 77.39597 
L 428.116987 81.924652 
L 428.560243 71.031823 
L 429.003499 91.621241 
L 429.446754 87.467467 
L 429.89001 85.241387 
L 430.333266 90.874213 
L 430.776522 78.93974 
L 431.219778 77.917065 
L 431.663034 82.324152 
L 432.10629 70.891427 
L 432.549546 81.892448 
L 432.992802 76.79168 
L 433.436058 83.567697 
L 433.879314 77.770712 
L 434.322569 82.496388 
L 434.765825 68.944267 
L 435.209081 86.948553 
L 435.652337 80.205041 
L 436.095593 81.270814 
L 436.538849 87.635117 
L 436.982105 75.547413 
L 437.425361 84.792065 
L 437.868617 87.349198 
L 438.311873 82.100256 
L 438.755129 63.890907 
L 439.198384 65.285348 
L 439.64164 84.530709 
L 440.084896 66.324969 
L 440.528152 75.731791 
L 440.971408 78.193362 
L 441.414664 89.875555 
L 441.85792 80.218032 
L 442.301176 82.574975 
L 442.744432 79.934951 
L 443.187688 68.790494 
L 443.630944 82.807371 
L 444.074199 90.20367 
L 444.517455 77.136786 
L 444.960711 83.28546 
L 445.403967 81.099547 
L 445.847223 76.044259 
L 446.290479 81.277363 
L 446.733735 104.063547 
L 447.176991 78.450563 
L 448.063503 73.299642 
L 448.506759 78.360305 
L 448.950014 79.67259 
L 449.39327 76.39225 
L 449.836526 88.72584 
L 450.279782 77.002736 
L 450.723038 80.607386 
L 451.166294 78.314102 
L 451.60955 88.037887 
L 452.052806 75.513605 
L 452.496062 78.38815 
L 452.939318 79.460852 
L 453.382574 84.000417 
L 453.825829 71.282667 
L 454.269085 76.570057 
L 454.712341 75.060778 
L 455.155597 78.558765 
L 455.598853 71.416116 
L 456.042109 72.618951 
L 456.485365 86.631026 
L 456.928621 76.688778 
L 457.371877 90.821985 
L 457.815133 98.603044 
L 458.258389 91.539963 
L 458.701644 91.906673 
L 459.1449 88.215177 
L 459.588156 76.597171 
L 460.031412 84.174129 
L 460.474668 82.130606 
L 460.917924 82.632184 
L 461.36118 83.445975 
L 461.804436 88.013868 
L 462.247692 82.963734 
L 462.690948 84.756889 
L 463.134204 76.767696 
L 463.57746 82.492262 
L 464.463971 73.973414 
L 464.907227 77.974522 
L 465.350483 67.908951 
L 465.793739 77.117615 
L 466.236995 70.044452 
L 466.680251 78.66609 
L 467.123507 73.949878 
L 467.566763 79.170984 
L 468.010019 75.596923 
L 468.453275 97.64814 
L 468.89653 75.91542 
L 469.339786 76.403799 
L 469.783042 88.370938 
L 470.226298 89.68784 
L 470.669554 82.713732 
L 471.11281 97.073217 
L 471.556066 86.912743 
L 471.999322 100.428501 
L 472.442578 99.809924 
L 472.885834 88.449615 
L 473.32909 84.671104 
L 473.772345 92.703216 
L 474.215601 85.516864 
L 474.658857 83.027046 
L 475.102113 112.759399 
L 475.545369 94.372421 
L 475.988625 89.959425 
L 476.431881 104.740489 
L 476.875137 84.660379 
L 477.318393 81.433991 
L 477.761649 79.823209 
L 478.204905 77.65596 
L 478.64816 83.113424 
L 479.534672 99.408062 
L 479.977928 82.397423 
L 480.421184 91.528862 
L 480.86444 76.721449 
L 481.750952 86.83256 
L 482.194208 82.536645 
L 482.637464 87.571173 
L 483.08072 86.584741 
L 483.523975 86.236191 
L 483.967231 88.641358 
L 484.410487 73.616091 
L 484.853743 81.065029 
L 485.296999 81.090312 
L 485.740255 103.697414 
L 486.183511 85.246355 
L 486.626767 76.310526 
L 487.070023 85.11256 
L 487.513279 75.521417 
L 487.956535 78.014572 
L 488.39979 83.196638 
L 488.843046 83.620049 
L 489.729558 96.590631 
L 490.172814 95.240758 
L 490.61607 89.052523 
L 491.059326 92.218503 
L 491.502582 78.499632 
L 491.945838 83.63908 
L 492.389094 79.419905 
L 492.83235 89.770432 
L 493.275605 96.803704 
L 493.718861 101.662231 
L 494.605373 90.818297 
L 495.048629 94.991714 
L 495.491885 86.030852 
L 496.378397 92.788387 
L 496.821653 93.392765 
L 497.264909 90.924579 
L 497.708165 80.986243 
L 498.15142 87.121056 
L 498.594676 80.312666 
L 499.037932 88.033939 
L 499.924444 78.031376 
L 500.3677 90.249353 
L 500.810956 95.912007 
L 501.254212 99.070477 
L 501.697468 83.946569 
L 502.140724 87.002333 
L 502.58398 80.682682 
L 503.027236 89.097094 
L 503.470491 84.732036 
L 503.913747 94.496855 
L 504.800259 97.680517 
L 505.686771 87.042806 
L 506.130027 91.850597 
L 506.573283 90.583723 
L 507.016539 89.762106 
L 507.459795 93.541191 
L 507.903051 107.120749 
L 508.346306 92.656387 
L 508.789562 105.722848 
L 509.232818 97.392281 
L 509.676074 99.471811 
L 510.11933 99.363843 
L 510.562586 98.216713 
L 511.005842 96.679657 
L 511.449098 101.900114 
L 511.892354 82.759742 
L 512.33561 82.908535 
L 512.778866 79.059568 
L 513.222121 84.85936 
L 513.665377 105.674521 
L 514.108633 83.993107 
L 514.551889 79.862918 
L 514.995145 86.603704 
L 515.438401 87.881614 
L 515.881657 91.79563 
L 516.324913 100.017503 
L 516.768169 101.666427 
L 517.211425 89.364992 
L 517.654681 93.844281 
L 518.097936 94.860242 
L 518.541192 87.072847 
L 518.984448 97.982571 
L 519.427704 102.782871 
L 519.87096 98.499976 
L 520.314216 104.192207 
L 520.757472 106.522221 
L 521.643984 82.41924 
L 522.08724 92.078921 
L 522.530496 89.429455 
L 522.973751 95.067193 
L 523.417007 103.966357 
L 523.860263 94.251855 
L 524.303519 103.203575 
L 524.746775 87.87234 
L 525.190031 90.022665 
L 525.633287 98.349091 
L 526.076543 86.607644 
L 526.519799 87.385929 
L 526.963055 113.672899 
L 527.406311 107.938691 
L 527.849566 105.468598 
L 528.736078 84.075043 
L 529.179334 103.460479 
L 529.62259 97.610574 
L 530.509102 113.121399 
L 530.952358 116.406324 
L 531.395614 107.546445 
L 531.83887 113.424554 
L 532.282126 95.641982 
L 532.725381 85.164556 
L 533.168637 95.03295 
L 533.611893 92.527938 
L 534.055149 100.334114 
L 534.498405 100.364519 
L 534.941661 97.111594 
L 535.384917 97.13759 
L 535.828173 118.339407 
L 536.271429 97.360499 
L 536.714685 103.8483 
L 537.157941 91.925558 
L 537.601196 92.734106 
L 538.044452 105.93145 
L 538.487708 111.415747 
L 538.930964 105.918442 
L 539.37422 132.25257 
L 539.817476 108.142617 
L 540.260732 100.527832 
L 540.703988 104.213193 
L 541.147244 95.983281 
L 541.5905 107.011863 
L 542.033756 111.902953 
L 542.477012 105.02884 
L 542.920267 94.462139 
L 543.363523 98.777292 
L 543.806779 106.044998 
L 544.250035 94.699281 
L 544.693291 93.19191 
L 545.136547 104.954758 
L 545.579803 97.760229 
L 546.466315 116.180853 
L 546.909571 124.29187 
L 547.352827 126.804565 
L 547.796082 109.683083 
L 548.239338 110.328207 
L 549.12585 98.04885 
L 549.569106 115.39553 
L 550.012362 101.304682 
L 550.455618 129.311033 
L 550.898874 113.722039 
L 551.34213 108.097881 
L 551.785386 147.61198 
L 552.228642 114.743324 
L 552.671897 116.16842 
L 553.115153 98.612828 
L 553.558409 108.588955 
L 554.001665 99.946423 
L 554.888177 129.894629 
L 555.331433 98.638339 
L 555.774689 101.979078 
L 556.217945 111.556531 
L 556.661201 105.621572 
L 557.104457 106.122159 
L 557.547712 103.032939 
L 557.990968 108.612356 
L 558.434224 104.422845 
L 558.87748 105.248514 
L 559.320736 95.122674 
L 559.763992 108.847723 
L 560.207248 105.624467 
L 560.650504 112.76657 
L 561.09376 97.196638 
L 561.537016 92.057932 
L 561.980272 103.026195 
L 562.423527 98.122308 
L 562.866783 102.151393 
L 563.310039 96.804273 
L 563.753295 112.35054 
L 564.196551 99.051502 
L 564.639807 100.815513 
L 565.083063 104.449231 
L 565.526319 109.161362 
L 565.969575 105.364194 
L 566.412831 106.247994 
L 566.856087 120.679056 
L 567.299342 104.255092 
L 567.742598 110.290826 
L 568.185854 100.934106 
L 568.62911 110.83218 
L 569.072366 105.788628 
L 569.515622 109.588369 
L 569.958878 115.021207 
L 570.402134 111.8452 
L 570.84539 105.851243 
L 571.288646 94.834402 
L 571.731902 93.476193 
L 572.175157 103.866348 
L 572.618413 103.140628 
L 573.061669 114.403236 
L 573.504925 112.356582 
L 573.948181 103.851259 
L 574.391437 98.764333 
L 574.834693 105.682268 
L 575.277949 109.89695 
L 575.721205 94.704468 
L 576.164461 96.089407 
L 576.607717 99.224661 
L 577.050972 107.098172 
L 577.494228 103.027209 
L 577.937484 117.0485 
L 578.38074 106.2541 
L 578.823996 98.97863 
L 579.267252 109.88951 
L 579.710508 117.747164 
L 580.153764 109.683497 
L 580.59702 124.529361 
L 581.040276 106.728885 
L 581.483532 98.558023 
L 581.926788 101.623314 
L 582.370043 126.08221 
L 582.813299 98.070821 
L 583.256555 100.221079 
L 583.699811 126.115074 
L 584.143067 123.332019 
L 584.586323 101.434902 
L 585.029579 107.59887 
L 585.472835 108.410229 
L 585.916091 117.77869 
L 586.359347 106.947979 
L 586.802603 114.496978 
L 587.245858 99.909832 
L 587.689114 121.347467 
L 588.13237 109.392473 
L 588.575626 128.367542 
L 589.018882 114.922338 
L 589.462138 95.056729 
L 589.905394 116.137429 
L 590.34865 106.81374 
L 590.791906 114.78936 
L 591.235162 99.17678 
L 591.678418 107.409185 
L 592.121673 99.282748 
L 592.564929 102.561034 
L 593.008185 132.624093 
L 593.451441 105.706556 
L 593.894697 90.601901 
L 594.337953 111.957689 
L 594.781209 125.551888 
L 595.224465 121.171157 
L 595.667721 107.82123 
L 596.110977 121.404448 
L 596.554233 117.648904 
L 596.997488 131.851224 
L 597.440744 112.975044 
L 597.884 119.48803 
L 598.327256 138.013039 
L 598.770512 114.842123 
L 599.213768 121.261923 
L 599.657024 122.93328 
L 600.543536 104.300976 
L 600.986792 113.918309 
L 601.430048 112.493368 
L 601.873303 109.843563 
L 602.316559 119.596083 
L 602.759815 115.659018 
L 603.203071 124.157659 
L 603.646327 109.078805 
L 604.089583 111.855782 
L 604.532839 126.407284 
L 604.976095 115.809602 
L 605.419351 111.656527 
L 605.862607 113.239036 
L 606.305863 98.715099 
L 606.749118 107.122523 
L 607.192374 98.392996 
L 607.63563 107.303402 
L 608.078886 128.341953 
L 608.522142 102.962794 
L 608.965398 99.677104 
L 609.408654 111.345722 
L 609.85191 106.607207 
L 610.295166 93.356059 
L 610.738422 138.664632 
L 611.181678 110.278353 
L 611.624933 112.790387 
L 612.068189 108.668291 
L 612.511445 111.166873 
L 612.954701 117.468636 
L 613.397957 118.984026 
L 613.841213 116.979509 
L 614.284469 130.959552 
L 614.727725 120.664231 
L 615.170981 129.953547 
L 615.614237 123.16646 
L 616.057493 148.166881 
L 616.500749 130.42647 
L 616.944004 125.562717 
L 617.38726 136.217493 
L 617.830516 120.444146 
L 618.273772 135.395353 
L 618.717028 108.602553 
L 619.160284 134.7402 
L 619.60354 122.229515 
L 620.490052 119.283618 
L 620.933308 127.067386 
L 621.376564 128.93058 
L 621.819819 128.89458 
L 622.706331 132.165392 
L 623.149587 112.558918 
L 623.592843 128.196746 
L 624.036099 118.632961 
L 624.479355 99.170974 
L 624.922611 110.376361 
L 625.365867 114.390433 
L 625.809123 128.083521 
L 626.252379 122.582792 
L 626.695634 123.068802 
L 627.13889 121.896955 
L 627.582146 113.985541 
L 628.025402 120.29349 
L 628.468658 139.904436 
L 628.911914 124.277666 
L 629.35517 117.243962 
L 629.798426 124.701919 
L 630.241682 125.506126 
L 630.684938 111.788629 
L 631.128194 124.489008 
L 631.571449 127.428046 
L 632.014705 133.03994 
L 632.457961 133.059924 
L 632.901217 124.536635 
L 633.787729 131.119336 
L 634.230985 128.483 
L 634.674241 115.568319 
L 635.117497 112.858823 
L 636.004009 113.198325 
L 636.447264 130.918484 
L 636.89052 120.404506 
L 637.333776 134.151854 
L 637.777032 118.654478 
L 638.220288 137.333899 
L 638.663544 131.817843 
L 639.550056 125.42808 
L 639.993312 125.361349 
L 640.436568 122.013928 
L 640.879824 111.497491 
L 641.323079 129.645471 
L 641.766335 135.706661 
L 642.209591 124.495731 
L 642.652847 136.323382 
L 643.096103 124.25242 
L 643.539359 126.726139 
L 643.982615 102.053929 
L 644.425871 131.564479 
L 644.869127 111.058559 
L 645.312383 132.706096 
L 645.755639 141.964424 
L 646.64215 127.390311 
L 647.085406 123.253522 
L 647.528662 127.612545 
L 648.415174 158.816896 
L 648.85843 168.375647 
L 649.301686 135.91763 
L 649.744942 147.697084 
L 650.188198 142.378562 
L 650.631454 129.031602 
L 651.074709 136.929711 
L 651.517965 131.826058 
L 651.961221 138.626541 
L 652.847733 129.847416 
L 653.290989 106.886859 
L 653.734245 132.259835 
L 654.177501 125.764483 
L 654.620757 123.612883 
L 655.064013 127.657641 
L 655.507269 123.018692 
L 655.950525 115.250406 
L 656.39378 115.818201 
L 656.837036 133.020732 
L 657.280292 122.346795 
L 657.723548 123.554133 
L 658.166804 119.152591 
L 658.61006 126.556142 
L 659.053316 117.558763 
L 659.496572 134.215505 
L 659.939828 133.876469 
L 660.383084 109.134563 
L 660.82634 109.777054 
L 661.269595 114.517572 
L 661.712851 126.175445 
L 662.156107 111.063937 
L 662.599363 118.147883 
L 663.042619 143.069231 
L 663.485875 138.922005 
L 663.929131 111.502678 
L 664.372387 124.47683 
L 665.258899 113.865632 
L 665.702155 124.139582 
L 666.14541 122.513072 
L 666.588666 114.175794 
L 667.031922 120.202982 
L 667.475178 108.461282 
L 667.918434 101.571434 
L 668.36169 97.747754 
L 668.804946 110.389923 
L 669.248202 129.667103 
L 669.691458 125.201791 
L 670.134714 116.941322 
L 670.57797 149.349125 
L 671.021225 119.764345 
L 671.464481 110.089254 
L 671.907737 103.084574 
L 672.350993 109.204477 
L 672.794249 102.909014 
L 673.237505 113.467136 
L 673.680761 113.632395 
L 674.124017 101.383111 
L 674.567273 124.728126 
L 674.567273 124.728126 
" style="fill:none;stroke:#1f77b4;stroke-linecap:square;stroke-width:1.5;"/>
   </g>
   <g id="line2d_14">
    <path clip-path="url(#p2897f8ef5f)" d="M 89.912727 107.193878 
L 90.355983 99.042817 
L 90.799239 84.336936 
L 91.242495 81.441359 
L 91.685751 87.077447 
L 92.572263 74.350319 
L 93.015519 75.903142 
L 93.458775 83.246798 
L 93.90203 68.236128 
L 94.345286 69.894827 
L 94.788542 74.038025 
L 95.675054 59.60471 
L 96.11831 66.230993 
L 96.561566 68.850721 
L 97.004822 59.376652 
L 97.448078 56.798278 
L 97.891334 67.308242 
L 98.33459 56.263408 
L 98.777845 59.270468 
L 99.221101 66.064825 
L 99.664357 67.602281 
L 100.107613 54.093138 
L 100.550869 62.861291 
L 100.994125 61.272195 
L 101.437381 63.501386 
L 102.323893 57.216213 
L 102.767149 57.230721 
L 103.210405 68.032796 
L 103.65366 51.798421 
L 104.096916 63.634273 
L 104.540172 58.096307 
L 104.983428 58.261167 
L 105.426684 64.217238 
L 105.86994 49.152416 
L 106.313196 57.188992 
L 106.756452 55.017259 
L 107.199708 58.636667 
L 107.642964 53.08699 
L 108.08622 64.185259 
L 108.529475 52.056563 
L 108.972731 53.419607 
L 109.415987 51.50367 
L 109.859243 57.432567 
L 110.302499 55.809849 
L 110.745755 57.038028 
L 111.189011 55.294694 
L 111.632267 54.493404 
L 112.075523 51.175476 
L 112.518779 51.243093 
L 112.962035 50.58605 
L 113.405291 52.632657 
L 113.848546 49.185666 
L 114.291802 55.908207 
L 114.735058 49.878014 
L 115.178314 65.914839 
L 115.62157 51.714739 
L 116.064826 49.623264 
L 116.508082 59.104544 
L 117.394594 53.214103 
L 117.83785 52.489714 
L 118.281106 46.845728 
L 118.724361 52.899713 
L 119.167617 52.463666 
L 119.610873 54.036509 
L 120.054129 57.369597 
L 120.497385 52.080076 
L 120.940641 50.457656 
L 121.383897 52.398931 
L 121.827153 50.101401 
L 122.270409 52.323097 
L 123.156921 46.674099 
L 123.600176 53.357757 
L 124.043432 48.606155 
L 124.486688 57.372717 
L 124.929944 48.519422 
L 125.3732 54.145657 
L 125.816456 52.777444 
L 126.259712 54.782765 
L 126.702968 53.126651 
L 127.146224 50.442031 
L 127.58948 55.399295 
L 128.032736 53.048798 
L 128.475991 48.048284 
L 128.919247 51.345417 
L 129.362503 49.419495 
L 129.805759 44.963753 
L 130.249015 54.198795 
L 130.692271 53.071148 
L 131.135527 52.867028 
L 131.578783 47.863049 
L 132.022039 50.006992 
L 132.465295 48.189132 
L 132.908551 49.775635 
L 133.351806 56.320056 
L 133.795062 49.420972 
L 134.238318 51.122424 
L 134.681574 57.646395 
L 135.12483 56.552744 
L 135.568086 51.381877 
L 136.011342 50.272611 
L 136.454598 57.20691 
L 136.897854 58.003671 
L 137.784366 46.162756 
L 138.227621 47.882499 
L 138.670877 54.329675 
L 139.114133 50.660201 
L 139.557389 48.760071 
L 140.000645 51.964615 
L 140.443901 50.420993 
L 140.887157 47.310927 
L 141.773669 55.044396 
L 142.660181 50.196348 
L 143.103436 43.416768 
L 143.546692 42.174371 
L 143.989948 51.379792 
L 144.433204 52.94031 
L 144.87646 50.700446 
L 145.319716 51.589146 
L 145.762972 46.47659 
L 146.206228 47.780697 
L 146.649484 51.868559 
L 147.09274 52.039177 
L 147.535996 56.05298 
L 147.979251 49.161208 
L 148.422507 50.170264 
L 148.865763 50.514262 
L 149.309019 50.003712 
L 149.752275 43.575416 
L 150.195531 48.215418 
L 150.638787 47.342255 
L 151.082043 55.618616 
L 151.525299 48.523685 
L 151.968555 48.75131 
L 152.855067 53.705438 
L 153.298322 51.795266 
L 153.741578 49.053481 
L 154.184834 51.435595 
L 154.62809 60.110791 
L 155.071346 55.508878 
L 155.514602 56.923906 
L 155.957858 51.383997 
L 156.401114 51.410085 
L 156.84437 48.863057 
L 157.287626 50.533639 
L 157.730882 57.092569 
L 158.174137 44.850847 
L 158.617393 47.919825 
L 159.060649 52.22601 
L 159.503905 49.769819 
L 159.947161 50.373342 
L 160.833673 40.303867 
L 161.276929 45.34348 
L 161.720185 52.931531 
L 162.163441 57.89533 
L 162.606697 44.745264 
L 163.049952 47.482014 
L 163.493208 52.44996 
L 163.936464 54.303193 
L 164.37972 54.659161 
L 164.822976 47.733696 
L 165.266232 53.789041 
L 165.709488 48.819348 
L 166.152744 55.920596 
L 166.596 47.55412 
L 167.039256 55.706541 
L 167.482512 49.461053 
L 167.925767 55.72367 
L 168.369023 48.079143 
L 168.812279 55.372937 
L 169.255535 54.514021 
L 169.698791 52.626932 
L 170.142047 51.2982 
L 170.585303 52.022023 
L 171.028559 54.177436 
L 171.471815 44.950003 
L 171.915071 47.063701 
L 172.358327 55.320143 
L 172.801582 53.797502 
L 173.244838 49.702445 
L 173.688094 49.1756 
L 174.13135 50.766837 
L 174.574606 56.244519 
L 175.017862 49.165868 
L 175.461118 53.64439 
L 175.904374 51.64788 
L 176.34763 56.959844 
L 176.790886 53.855633 
L 177.234142 51.659146 
L 177.677397 55.217666 
L 178.120653 48.85922 
L 178.563909 48.55401 
L 179.007165 48.781042 
L 179.450421 56.458737 
L 179.893677 56.373487 
L 180.336933 52.558073 
L 180.780189 54.210832 
L 181.223445 50.48741 
L 181.666701 55.345385 
L 182.109957 53.713377 
L 182.553212 54.789196 
L 182.996468 56.510907 
L 183.439724 55.03959 
L 183.88298 50.388208 
L 184.326236 48.699301 
L 184.769492 52.213896 
L 185.212748 48.112313 
L 185.656004 49.452115 
L 186.542516 57.810043 
L 186.985772 50.079669 
L 187.429028 56.404508 
L 187.872283 51.833588 
L 188.315539 51.22491 
L 188.758795 51.962307 
L 189.202051 55.403279 
L 189.645307 50.864348 
L 190.088563 51.952137 
L 190.531819 50.194303 
L 190.975075 53.779547 
L 191.418331 50.557188 
L 191.861587 50.936156 
L 192.304843 50.798322 
L 192.748098 52.465145 
L 193.191354 52.050368 
L 193.63461 53.922597 
L 194.077866 56.984194 
L 194.521122 56.225631 
L 194.964378 54.025637 
L 195.407634 52.82551 
L 195.85089 47.895617 
L 196.294146 50.729033 
L 196.737402 47.135445 
L 197.180658 50.522302 
L 197.623913 50.673812 
L 198.067169 55.903218 
L 198.510425 53.599655 
L 198.953681 57.198674 
L 199.396937 49.130523 
L 199.840193 54.986241 
L 200.283449 54.743485 
L 200.726705 52.908587 
L 201.169961 54.674192 
L 201.613217 54.196007 
L 202.056473 57.43865 
L 202.499728 47.745203 
L 202.942984 57.210195 
L 203.38624 52.513644 
L 203.829496 49.44574 
L 204.272752 50.224247 
L 204.716008 55.982508 
L 205.159264 52.761895 
L 205.60252 56.04488 
L 206.045776 50.638347 
L 206.489032 49.618134 
L 206.932288 46.707607 
L 207.375543 48.483409 
L 207.818799 56.161688 
L 208.262055 50.645059 
L 208.705311 51.682273 
L 209.148567 52.18292 
L 209.591823 48.109943 
L 210.035079 59.057856 
L 210.478335 51.709725 
L 210.921591 50.634442 
L 211.364847 54.880304 
L 212.251358 47.344945 
L 212.694614 55.954562 
L 213.13787 53.131945 
L 213.581126 52.668103 
L 214.024382 57.328532 
L 214.467638 52.261191 
L 214.910894 51.430495 
L 215.35415 55.306326 
L 215.797406 47.608751 
L 216.240662 54.650957 
L 216.683918 52.141296 
L 217.127173 59.6994 
L 217.570429 57.868197 
L 218.013685 57.69274 
L 218.456941 57.273635 
L 218.900197 54.429961 
L 219.343453 54.906504 
L 219.786709 54.809144 
L 220.229965 54.13839 
L 220.673221 54.808692 
L 221.116477 48.599866 
L 221.559733 50.624973 
L 222.002988 62.071638 
L 222.446244 47.154299 
L 222.8895 46.22514 
L 223.332756 51.249116 
L 223.776012 52.783486 
L 224.219268 57.197717 
L 224.662524 59.183002 
L 225.10578 48.577628 
L 225.549036 58.040088 
L 225.992292 60.400648 
L 226.435548 51.717413 
L 226.878804 52.106712 
L 227.322059 50.034745 
L 227.765315 57.449418 
L 228.208571 54.481983 
L 228.651827 54.750289 
L 229.981595 57.176337 
L 230.424851 59.021952 
L 230.868107 54.241625 
L 231.311363 54.764892 
L 231.754619 55.066054 
L 232.197874 54.063208 
L 232.64113 59.107109 
L 233.084386 57.471772 
L 233.527642 59.182441 
L 233.970898 59.569313 
L 234.85741 49.824858 
L 235.300666 52.959478 
L 235.743922 49.505217 
L 236.187178 54.440591 
L 237.073689 60.006827 
L 237.516945 51.613015 
L 237.960201 53.96668 
L 238.403457 59.815975 
L 238.846713 61.412894 
L 239.733225 49.646521 
L 240.619737 59.89554 
L 241.062993 59.944728 
L 241.506249 55.800672 
L 241.949504 56.169838 
L 242.39276 55.70695 
L 242.836016 58.175213 
L 243.279272 54.397089 
L 243.722528 54.921092 
L 244.165784 54.541055 
L 244.60904 52.87142 
L 245.052296 52.415273 
L 245.495552 56.768755 
L 245.938808 63.076798 
L 246.382064 47.912417 
L 246.825319 54.715489 
L 247.268575 53.48758 
L 247.711831 55.469416 
L 248.155087 54.294192 
L 248.598343 54.074951 
L 249.041599 55.69145 
L 249.484855 61.03494 
L 249.928111 49.239147 
L 250.371367 54.553624 
L 250.814623 57.695376 
L 251.257879 51.600289 
L 251.701134 54.005855 
L 252.14439 52.044756 
L 252.587646 54.098193 
L 253.030902 59.251095 
L 253.474158 55.927054 
L 253.917414 57.142935 
L 254.36067 58.998022 
L 254.803926 54.41282 
L 255.247182 64.589646 
L 255.690438 57.021635 
L 256.133694 61.415208 
L 256.576949 67.164894 
L 257.020205 54.320929 
L 257.463461 56.85607 
L 257.906717 62.326957 
L 258.349973 58.453024 
L 258.793229 56.145323 
L 259.236485 62.648794 
L 259.679741 64.99316 
L 260.122997 57.581456 
L 260.566253 63.41808 
L 261.009509 52.057159 
L 261.452764 57.180223 
L 261.89602 58.466897 
L 262.339276 50.333426 
L 262.782532 54.413316 
L 263.225788 61.26523 
L 263.669044 59.593387 
L 264.1123 53.359644 
L 264.555556 63.466708 
L 264.998812 62.023251 
L 265.442068 59.409512 
L 265.885324 64.806676 
L 266.32858 62.036206 
L 266.771835 63.378324 
L 267.215091 53.880615 
L 268.101603 61.795235 
L 268.544859 62.511861 
L 268.988115 57.980308 
L 269.431371 69.796328 
L 269.874627 62.283069 
L 270.317883 64.465433 
L 270.761139 57.063877 
L 271.204395 60.827521 
L 271.64765 62.020811 
L 272.090906 62.140667 
L 272.534162 72.180533 
L 272.977418 62.6114 
L 273.420674 64.208543 
L 273.86393 59.393528 
L 274.307186 63.656393 
L 274.750442 58.666958 
L 275.193698 63.097118 
L 275.636954 64.09395 
L 276.08021 59.007996 
L 276.523465 63.954349 
L 276.966721 54.062235 
L 277.409977 58.722491 
L 277.853233 61.665964 
L 278.296489 58.485104 
L 278.739745 68.465597 
L 279.183001 61.202305 
L 279.626257 66.309996 
L 280.069513 62.758108 
L 280.512769 62.938918 
L 280.956025 65.270474 
L 281.39928 65.746433 
L 281.842536 59.287929 
L 282.285792 65.057579 
L 282.729048 62.410635 
L 283.172304 62.457366 
L 283.61556 68.33289 
L 284.058816 61.58192 
L 284.502072 66.046083 
L 284.945328 66.303804 
L 285.388584 64.010179 
L 285.83184 73.640056 
L 286.275095 62.429241 
L 286.718351 61.068988 
L 287.161607 70.667769 
L 288.048119 57.126228 
L 288.491375 65.235778 
L 288.934631 68.236392 
L 289.377887 60.474038 
L 289.821143 59.010703 
L 290.264399 60.339296 
L 290.707655 66.998803 
L 291.15091 64.866807 
L 291.594166 61.835542 
L 292.037422 63.746046 
L 292.480678 67.667024 
L 292.923934 60.578294 
L 293.36719 64.061862 
L 293.810446 61.216002 
L 294.253702 61.252467 
L 294.696958 60.897731 
L 295.140214 63.546662 
L 295.58347 60.739639 
L 296.026725 66.4353 
L 296.469981 55.038113 
L 296.913237 62.832458 
L 297.356493 62.627081 
L 297.799749 68.462527 
L 298.243005 64.320127 
L 298.686261 65.624422 
L 299.129517 74.299385 
L 299.572773 60.883449 
L 300.016029 68.159943 
L 300.459285 65.493427 
L 300.90254 56.602357 
L 301.345796 59.110703 
L 302.232308 65.567015 
L 302.675564 67.520296 
L 303.11882 56.84918 
L 303.562076 62.747744 
L 304.005332 57.539884 
L 304.448588 67.885151 
L 304.891844 61.343306 
L 305.3351 57.672774 
L 305.778356 70.550236 
L 306.664867 61.074727 
L 307.108123 66.778325 
L 307.551379 65.709203 
L 307.994635 61.41847 
L 308.437891 79.572808 
L 308.881147 70.412958 
L 309.324403 65.645664 
L 309.767659 65.264431 
L 310.210915 64.4932 
L 310.654171 68.496787 
L 311.540682 58.793539 
L 311.983938 67.868592 
L 312.427194 60.727013 
L 312.87045 70.531283 
L 313.313706 66.767043 
L 313.756962 75.006831 
L 314.200218 60.894331 
L 314.643474 65.525881 
L 315.08673 65.609515 
L 315.529986 62.330593 
L 315.973241 64.230445 
L 316.416497 58.850932 
L 316.859753 66.088085 
L 317.303009 66.321693 
L 317.746265 69.098993 
L 318.189521 66.02113 
L 318.632777 64.707869 
L 319.076033 66.936494 
L 319.519289 71.563646 
L 319.962545 68.403484 
L 320.405801 73.733023 
L 320.849056 73.601821 
L 321.292312 74.970299 
L 321.735568 71.414813 
L 322.178824 65.323258 
L 322.62208 71.377819 
L 323.065336 73.068743 
L 323.508592 62.101906 
L 323.951848 59.311232 
L 325.281616 77.041655 
L 325.724871 73.739165 
L 326.168127 65.370519 
L 326.611383 69.983736 
L 327.054639 63.319436 
L 327.497895 65.507609 
L 327.941151 72.869124 
L 328.384407 74.78978 
L 328.827663 67.998341 
L 329.270919 73.076147 
L 329.714175 60.274962 
L 330.157431 72.805367 
L 330.600686 66.579562 
L 331.043942 68.05104 
L 331.487198 70.807558 
L 331.930454 64.010389 
L 332.37371 70.345927 
L 332.816966 72.95774 
L 333.260222 77.652204 
L 333.703478 75.611929 
L 334.146734 71.493039 
L 334.58999 77.389783 
L 335.033246 74.748107 
L 335.476501 73.646152 
L 335.919757 74.012061 
L 336.363013 78.419256 
L 336.806269 86.076372 
L 337.249525 76.751739 
L 337.692781 77.778059 
L 338.136037 68.883811 
L 338.579293 75.388687 
L 339.022549 73.861003 
L 339.465805 75.364985 
L 339.909061 68.509538 
L 340.352316 79.772498 
L 340.795572 67.686944 
L 341.238828 69.885498 
L 341.682084 78.489867 
L 342.12534 84.64062 
L 342.568596 71.780045 
L 343.011852 67.554195 
L 343.455108 71.874206 
L 343.898364 70.362546 
L 344.34162 66.446382 
L 345.228132 72.569147 
L 345.671387 63.671657 
L 346.114643 73.514828 
L 347.001155 69.214414 
L 347.444411 75.152291 
L 347.887667 72.238945 
L 348.330923 73.679666 
L 348.774179 74.677169 
L 349.217435 87.634103 
L 349.660691 65.338942 
L 350.103947 77.595053 
L 350.547202 77.857288 
L 350.990458 73.354232 
L 351.433714 76.977585 
L 351.87697 72.489274 
L 352.763482 67.158143 
L 353.206738 68.754444 
L 354.09325 76.263426 
L 354.536506 67.796064 
L 354.979762 82.732187 
L 355.423017 75.403923 
L 355.866273 87.346657 
L 356.309529 82.793878 
L 356.752785 82.483591 
L 357.196041 73.916228 
L 357.639297 81.316567 
L 358.082553 79.46517 
L 358.525809 74.127431 
L 358.969065 75.696752 
L 359.412321 70.984297 
L 359.855577 76.72734 
L 360.298832 76.649028 
L 360.742088 78.66253 
L 361.185344 84.123407 
L 361.6286 81.524972 
L 362.071856 76.54909 
L 362.515112 79.364709 
L 362.958368 83.484496 
L 363.401624 88.906861 
L 363.84488 83.705026 
L 364.288136 74.034512 
L 364.731392 87.067033 
L 365.174647 83.804429 
L 365.617903 82.047377 
L 366.061159 86.407054 
L 366.504415 87.305172 
L 366.947671 94.238654 
L 367.390927 85.120847 
L 367.834183 99.302626 
L 368.277439 89.462388 
L 368.720695 95.617883 
L 369.163951 96.207068 
L 369.607207 87.076768 
L 370.050462 96.751588 
L 370.493718 88.586796 
L 370.936974 84.204414 
L 371.38023 74.642521 
L 371.823486 87.83356 
L 372.266742 78.769885 
L 372.709998 82.415463 
L 373.153254 77.579336 
L 374.039766 73.274686 
L 374.483022 72.70728 
L 375.369533 80.849967 
L 375.812789 82.282997 
L 376.256045 78.588567 
L 376.699301 77.055372 
L 377.142557 76.437157 
L 377.585813 83.20518 
L 378.029069 78.559263 
L 378.472325 67.898394 
L 378.915581 67.144455 
L 379.358837 67.575451 
L 379.802092 77.991901 
L 380.245348 78.110612 
L 380.688604 80.794381 
L 381.13186 79.936462 
L 381.575116 73.14742 
L 382.018372 75.899379 
L 382.461628 84.803248 
L 382.904884 81.479916 
L 383.34814 86.641513 
L 383.791396 69.244043 
L 384.234652 82.082546 
L 384.677908 75.165011 
L 385.121163 76.935262 
L 385.564419 77.902625 
L 386.007675 85.644 
L 386.450931 76.314282 
L 386.894187 94.576934 
L 387.337443 90.734862 
L 387.780699 82.514747 
L 388.223955 93.754491 
L 388.667211 87.265135 
L 389.553723 90.339983 
L 389.996978 89.490989 
L 390.440234 89.896089 
L 390.88349 110.943775 
L 391.326746 103.207168 
L 392.213258 75.995319 
L 392.656514 78.450009 
L 393.09977 86.793239 
L 393.543026 89.580184 
L 393.986282 79.303552 
L 394.429538 88.93455 
L 394.872793 87.857529 
L 395.316049 90.5628 
L 395.759305 74.346151 
L 396.202561 97.221835 
L 396.645817 82.686669 
L 397.089073 86.164241 
L 397.532329 96.301838 
L 397.975585 87.18864 
L 398.418841 100.080929 
L 399.748608 80.37842 
L 400.191864 85.273747 
L 400.63512 83.445299 
L 401.078376 97.419931 
L 401.521632 95.099893 
L 401.964888 98.697062 
L 402.408144 95.530928 
L 402.8514 86.517241 
L 403.294656 90.919317 
L 403.737912 110.308914 
L 404.181168 95.204665 
L 404.624423 102.290581 
L 405.067679 85.385987 
L 405.510935 101.613406 
L 405.954191 97.624492 
L 406.397447 89.344178 
L 406.840703 95.506922 
L 407.283959 105.498982 
L 407.727215 87.804511 
L 408.170471 92.284996 
L 408.613727 85.455573 
L 409.056983 87.053166 
L 409.500238 87.534016 
L 409.943494 87.062694 
L 410.38675 91.508139 
L 410.830006 104.652162 
L 411.273262 98.103785 
L 411.716518 93.816903 
L 412.159774 85.058125 
L 412.60303 81.237594 
L 413.046286 79.716433 
L 413.489542 91.06776 
L 413.932798 83.4403 
L 414.376053 83.802512 
L 414.819309 91.482438 
L 415.262565 76.319119 
L 415.705821 93.983314 
L 416.149077 94.096858 
L 416.592333 81.229271 
L 417.035589 103.206996 
L 417.478845 94.980782 
L 417.922101 92.080665 
L 418.365357 108.848993 
L 418.808613 102.664211 
L 419.251868 85.922799 
L 419.695124 93.288992 
L 420.13838 97.751465 
L 420.581636 87.524987 
L 421.024892 94.394317 
L 421.468148 98.675674 
L 421.911404 96.599518 
L 422.35466 93.81025 
L 422.797916 99.921787 
L 423.241172 91.310544 
L 423.684428 93.616432 
L 424.127684 95.074837 
L 424.570939 103.404923 
L 425.014195 88.581021 
L 425.457451 100.755995 
L 425.900707 102.451447 
L 426.343963 102.931311 
L 426.787219 102.757903 
L 427.230475 96.291618 
L 427.673731 96.586711 
L 428.116987 89.577211 
L 428.560243 91.613126 
L 429.003499 105.149245 
L 429.446754 100.570585 
L 429.89001 93.872317 
L 430.333266 92.535155 
L 430.776522 88.730192 
L 431.219778 87.524511 
L 431.663034 97.957882 
L 432.10629 93.666636 
L 432.549546 104.757085 
L 432.992802 93.545899 
L 433.436058 99.416682 
L 434.322569 103.733462 
L 434.765825 90.527535 
L 435.209081 87.786649 
L 435.652337 100.598098 
L 436.095593 100.189007 
L 436.982105 106.715738 
L 437.425361 97.718665 
L 437.868617 103.083507 
L 438.311873 100.024992 
L 438.755129 85.804239 
L 439.198384 86.193894 
L 439.64164 91.387335 
L 440.084896 90.573364 
L 440.528152 83.61575 
L 440.971408 104.180229 
L 441.414664 91.343748 
L 441.85792 99.622884 
L 442.301176 103.820463 
L 442.744432 105.515578 
L 443.187688 89.058272 
L 443.630944 101.517595 
L 444.074199 96.776674 
L 444.517455 96.64246 
L 444.960711 83.58817 
L 445.847223 106.532487 
L 446.290479 102.918149 
L 446.733735 97.006316 
L 447.176991 94.13378 
L 447.620247 90.330143 
L 448.063503 90.64383 
L 448.506759 92.994647 
L 448.950014 97.555336 
L 449.39327 91.089114 
L 449.836526 106.108288 
L 450.723038 82.180024 
L 451.166294 91.321545 
L 451.60955 94.752919 
L 452.052806 101.654801 
L 452.496062 91.262371 
L 452.939318 91.951206 
L 453.382574 95.300749 
L 453.825829 93.243348 
L 454.269085 93.319925 
L 454.712341 99.387901 
L 455.155597 88.851207 
L 456.485365 99.179119 
L 456.928621 94.371278 
L 457.371877 82.49659 
L 457.815133 105.022793 
L 458.701644 97.315567 
L 459.1449 101.934444 
L 459.588156 95.434003 
L 460.031412 106.087361 
L 460.474668 108.72997 
L 460.917924 116.097404 
L 461.36118 115.715531 
L 461.804436 95.033494 
L 462.247692 102.873516 
L 462.690948 97.95739 
L 463.134204 110.706843 
L 463.57746 111.609389 
L 464.020715 105.18103 
L 464.463971 101.161462 
L 465.350483 94.747526 
L 465.793739 105.390395 
L 466.236995 97.440133 
L 466.680251 91.827286 
L 467.123507 91.859951 
L 467.566763 97.954056 
L 468.010019 96.226034 
L 468.453275 113.501275 
L 468.89653 98.244634 
L 469.339786 93.545569 
L 469.783042 94.499779 
L 470.226298 98.344017 
L 470.669554 91.844949 
L 471.11281 100.821778 
L 471.556066 104.905878 
L 471.999322 118.724577 
L 472.442578 113.594625 
L 472.885834 97.233797 
L 473.32909 105.569282 
L 473.772345 105.821403 
L 474.215601 111.989487 
L 474.658857 115.1646 
L 475.102113 112.470883 
L 475.545369 123.159434 
L 475.988625 106.364878 
L 476.431881 109.486077 
L 476.875137 97.579168 
L 477.318393 101.70435 
L 477.761649 86.27894 
L 478.204905 97.935601 
L 478.64816 102.317575 
L 479.091416 123.66997 
L 479.534672 113.11428 
L 479.977928 110.795558 
L 480.421184 94.17215 
L 480.86444 94.617833 
L 481.307696 106.731532 
L 481.750952 109.045298 
L 482.194208 100.107743 
L 482.637464 108.378495 
L 483.08072 111.884157 
L 483.523975 105.954238 
L 483.967231 104.75406 
L 484.410487 105.553991 
L 484.853743 101.399559 
L 485.296999 113.716415 
L 485.740255 119.250639 
L 486.626767 107.749142 
L 487.070023 123.291413 
L 487.513279 97.283303 
L 487.956535 102.517443 
L 488.39979 100.821455 
L 488.843046 123.88441 
L 489.286302 103.051473 
L 489.729558 112.432437 
L 490.172814 118.1417 
L 490.61607 113.642076 
L 491.059326 105.542587 
L 491.502582 101.179044 
L 491.945838 103.680019 
L 492.389094 96.956078 
L 492.83235 116.177848 
L 493.275605 102.778754 
L 493.718861 116.912732 
L 494.162117 102.270466 
L 494.605373 104.649598 
L 495.048629 110.335803 
L 495.491885 100.691224 
L 495.935141 111.259818 
L 496.378397 98.220289 
L 496.821653 98.456716 
L 497.264909 111.062334 
L 497.708165 97.624338 
L 498.15142 96.640605 
L 498.594676 91.882738 
L 499.481188 103.767678 
L 499.924444 94.180806 
L 500.3677 95.248628 
L 500.810956 100.515857 
L 501.254212 101.518115 
L 501.697468 111.809971 
L 502.58398 92.107499 
L 503.027236 94.892798 
L 503.470491 93.283478 
L 503.913747 104.072361 
L 504.357003 98.784256 
L 504.800259 109.721075 
L 505.243515 100.911396 
L 505.686771 94.541441 
L 506.130027 105.297859 
L 507.016539 95.265203 
L 507.459795 97.169089 
L 507.903051 106.35865 
L 508.346306 106.111879 
L 508.789562 113.69511 
L 509.232818 105.837141 
L 509.676074 103.807155 
L 510.562586 96.718669 
L 511.005842 110.376353 
L 511.449098 105.765377 
L 511.892354 105.6413 
L 512.33561 102.828608 
L 512.778866 91.36287 
L 513.222121 91.825162 
L 513.665377 105.882345 
L 514.108633 103.904896 
L 514.551889 99.282674 
L 514.995145 99.84242 
L 515.438401 96.551903 
L 515.881657 96.194267 
L 516.324913 94.116258 
L 516.768169 112.913226 
L 517.654681 99.566646 
L 518.097936 103.758832 
L 518.984448 119.77868 
L 519.427704 105.272219 
L 519.87096 121.042887 
L 520.314216 115.528695 
L 520.757472 120.687575 
L 521.200728 113.38537 
L 521.643984 92.36464 
L 522.08724 95.321703 
L 522.530496 100.849605 
L 522.973751 119.648359 
L 523.417007 107.822108 
L 523.860263 115.85058 
L 524.303519 121.012401 
L 524.746775 99.774423 
L 525.190031 104.369756 
L 525.633287 103.291953 
L 526.076543 101.16156 
L 526.963055 116.103492 
L 527.406311 118.600698 
L 527.849566 119.448828 
L 528.292822 107.146842 
L 528.736078 98.185994 
L 529.179334 111.339909 
L 529.62259 120.725088 
L 530.065846 120.709361 
L 530.952358 102.236842 
L 531.395614 116.209622 
L 531.83887 123.249867 
L 532.282126 111.080461 
L 532.725381 106.898105 
L 533.168637 99.546527 
L 533.611893 112.344852 
L 534.055149 131.581971 
L 534.498405 105.700909 
L 534.941661 107.274841 
L 535.384917 104.579781 
L 535.828173 89.924676 
L 536.271429 99.686245 
L 536.714685 91.478794 
L 537.157941 79.994161 
L 537.601196 98.755835 
L 538.044452 100.270672 
L 538.487708 99.80372 
L 538.930964 93.755773 
L 539.37422 107.779938 
L 540.260732 96.590733 
L 540.703988 100.916847 
L 541.147244 98.801816 
L 541.5905 93.129798 
L 542.033756 102.381643 
L 542.477012 94.812688 
L 543.363523 110.89611 
L 543.806779 104.119721 
L 544.250035 104.510793 
L 544.693291 94.096153 
L 545.136547 97.758398 
L 545.579803 110.88925 
L 546.023059 119.991029 
L 546.909571 99.194275 
L 547.352827 115.324099 
L 547.796082 105.998248 
L 548.239338 114.723114 
L 548.682594 112.240838 
L 549.12585 112.207174 
L 549.569106 115.07267 
L 550.012362 103.481105 
L 550.455618 109.809597 
L 550.898874 109.413284 
L 551.34213 118.880851 
L 551.785386 120.041184 
L 552.228642 109.249551 
L 552.671897 109.133618 
L 553.115153 102.054528 
L 553.558409 118.84695 
L 554.001665 105.834199 
L 554.444921 115.004039 
L 554.888177 115.372375 
L 555.331433 111.853299 
L 555.774689 100.038425 
L 556.217945 118.688555 
L 556.661201 101.017112 
L 557.104457 102.306667 
L 557.547712 93.299242 
L 557.990968 103.424741 
L 558.434224 96.228999 
L 558.87748 94.543494 
L 559.320736 116.839564 
L 559.763992 105.360846 
L 560.207248 114.359265 
L 560.650504 105.480604 
L 561.09376 83.94394 
L 561.980272 102.198701 
L 562.423527 98.55881 
L 562.866783 110.904494 
L 563.310039 95.664299 
L 563.753295 102.397504 
L 564.196551 85.663264 
L 564.639807 88.981705 
L 565.083063 100.399701 
L 565.526319 103.565036 
L 565.969575 100.315025 
L 566.412831 120.307835 
L 566.856087 110.035185 
L 567.299342 94.993035 
L 567.742598 117.663385 
L 568.185854 107.903381 
L 568.62911 112.480437 
L 569.072366 98.640075 
L 569.515622 97.066399 
L 570.402134 108.604251 
L 570.84539 106.845199 
L 571.288646 97.28788 
L 571.731902 102.410764 
L 572.175157 104.947977 
L 572.618413 99.270925 
L 573.061669 102.921758 
L 573.504925 116.345452 
L 573.948181 109.026205 
L 574.391437 103.653805 
L 574.834693 110.363247 
L 575.277949 111.321006 
L 575.721205 109.65389 
L 576.164461 104.407065 
L 576.607717 107.387832 
L 577.050972 105.703447 
L 577.494228 109.13504 
L 577.937484 103.505511 
L 578.38074 100.622096 
L 578.823996 101.169923 
L 579.267252 99.714798 
L 579.710508 96.412663 
L 580.153764 106.539801 
L 580.59702 95.808614 
L 581.040276 111.164193 
L 581.483532 107.829464 
L 581.926788 94.510653 
L 582.813299 103.86565 
L 583.256555 105.943426 
L 583.699811 118.120747 
L 584.143067 143.811563 
L 584.586323 106.816701 
L 585.029579 107.895141 
L 585.472835 122.131123 
L 585.916091 117.916498 
L 586.359347 104.098318 
L 586.802603 105.043022 
L 587.245858 120.83817 
L 587.689114 120.571982 
L 588.13237 111.091967 
L 588.575626 115.239214 
L 589.018882 127.054727 
L 589.462138 104.854117 
L 589.905394 118.950497 
L 590.34865 105.230372 
L 590.791906 112.408167 
L 591.235162 103.506423 
L 591.678418 125.486259 
L 592.121673 114.804063 
L 592.564929 117.974327 
L 593.008185 140.420415 
L 593.451441 133.165597 
L 593.894697 117.491434 
L 594.337953 121.440233 
L 594.781209 114.945106 
L 595.224465 120.783314 
L 595.667721 120.821478 
L 596.110977 137.413262 
L 596.554233 120.132261 
L 596.997488 120.598854 
L 597.440744 106.301399 
L 597.884 126.510897 
L 598.327256 132.727732 
L 598.770512 119.753076 
L 599.213768 129.356093 
L 599.657024 120.418593 
L 600.10028 121.544453 
L 600.543536 116.937732 
L 601.430048 113.768436 
L 601.873303 115.920704 
L 602.316559 119.451705 
L 602.759815 114.006835 
L 603.203071 124.099713 
L 603.646327 115.456896 
L 604.089583 126.656259 
L 604.532839 109.756316 
L 604.976095 115.353482 
L 605.419351 103.884847 
L 605.862607 119.895361 
L 606.305863 108.965481 
L 606.749118 118.438731 
L 607.192374 109.270941 
L 607.63563 111.033734 
L 608.078886 118.773487 
L 608.522142 106.598244 
L 608.965398 116.213283 
L 609.408654 113.707807 
L 609.85191 110.240383 
L 610.295166 102.398135 
L 610.738422 117.537566 
L 611.181678 99.913784 
L 611.624933 111.565769 
L 612.068189 112.511241 
L 612.511445 108.426706 
L 613.397957 118.519847 
L 613.841213 102.843022 
L 614.284469 108.897128 
L 614.727725 108.224697 
L 615.170981 113.013034 
L 615.614237 113.349709 
L 616.057493 118.485005 
L 616.500749 102.489056 
L 616.944004 118.050948 
L 617.38726 122.284907 
L 617.830516 113.544543 
L 618.273772 110.189448 
L 618.717028 114.253988 
L 619.160284 125.810227 
L 619.60354 117.834776 
L 620.046796 112.599983 
L 620.490052 126.252917 
L 620.933308 123.563713 
L 621.376564 126.167322 
L 621.819819 115.813829 
L 622.263075 122.111162 
L 622.706331 125.116586 
L 623.149587 123.16322 
L 623.592843 129.693762 
L 624.036099 123.714511 
L 624.479355 125.533268 
L 624.922611 126.333102 
L 625.365867 123.598103 
L 625.809123 136.376775 
L 626.252379 123.630025 
L 626.695634 128.914199 
L 627.13889 124.773231 
L 627.582146 118.320064 
L 628.025402 103.812408 
L 628.468658 120.544884 
L 628.911914 105.498461 
L 629.35517 97.973696 
L 629.798426 116.238305 
L 630.241682 109.831539 
L 630.684938 126.705656 
L 631.571449 107.353757 
L 632.014705 113.806335 
L 632.457961 115.649357 
L 632.901217 133.499285 
L 633.344473 143.153701 
L 633.787729 123.324803 
L 634.230985 114.71558 
L 634.674241 122.065254 
L 635.560753 109.61287 
L 636.004009 108.194462 
L 636.447264 109.304913 
L 636.89052 115.122156 
L 637.333776 103.414382 
L 637.777032 111.203895 
L 638.220288 109.976565 
L 639.1068 112.967171 
L 639.550056 111.695445 
L 639.993312 103.58143 
L 640.436568 109.703964 
L 640.879824 120.132409 
L 641.323079 116.577527 
L 641.766335 100.903321 
L 642.209591 114.939568 
L 642.652847 125.30472 
L 643.096103 122.844627 
L 643.539359 112.092962 
L 643.982615 116.463732 
L 644.425871 128.548229 
L 644.869127 115.830394 
L 645.312383 121.311486 
L 645.755639 121.198367 
L 646.198894 130.945228 
L 646.64215 123.110208 
L 647.085406 142.659536 
L 647.528662 138.213411 
L 647.971918 138.468535 
L 648.415174 129.44632 
L 648.85843 136.181583 
L 649.301686 135.442287 
L 649.744942 119.887853 
L 650.631454 146.068252 
L 651.074709 138.056048 
L 651.517965 149.790966 
L 651.961221 135.762207 
L 652.404477 140.144952 
L 652.847733 139.480272 
L 653.290989 128.508145 
L 653.734245 135.396181 
L 654.177501 139.526197 
L 654.620757 136.120481 
L 655.507269 123.021222 
L 655.950525 108.885227 
L 656.39378 122.961347 
L 656.837036 128.390114 
L 657.280292 131.60268 
L 657.723548 132.552775 
L 658.166804 119.241207 
L 658.61006 120.559347 
L 659.053316 112.833641 
L 659.496572 124.278363 
L 659.939828 119.225859 
L 660.383084 128.488045 
L 660.82634 133.979895 
L 661.269595 134.812553 
L 661.712851 124.322024 
L 662.156107 123.015213 
L 662.599363 137.639337 
L 663.042619 127.069439 
L 663.485875 119.245226 
L 663.929131 118.917465 
L 664.372387 123.497265 
L 664.815643 111.580931 
L 665.258899 108.760244 
L 665.702155 109.696064 
L 666.14541 114.177193 
L 666.588666 115.174764 
L 667.031922 123.91162 
L 667.475178 96.30788 
L 667.918434 122.322395 
L 668.36169 117.045979 
L 668.804946 109.311684 
L 669.248202 116.789186 
L 669.691458 117.738453 
L 670.134714 107.822806 
L 670.57797 115.832215 
L 671.021225 110.04053 
L 671.464481 114.16384 
L 671.907737 108.88451 
L 672.350993 98.153923 
L 672.794249 106.882309 
L 673.237505 110.299757 
L 673.680761 116.959397 
L 674.124017 113.529719 
L 674.567273 115.24626 
L 674.567273 115.24626 
" style="fill:none;stroke:#ff7f0e;stroke-linecap:square;stroke-width:1.5;"/>
   </g>
   <g id="line2d_15">
    <path clip-path="url(#p2897f8ef5f)" d="M 89.912727 290.918182 
L 90.355983 290.918182 
L 90.799239 290.802797 
L 91.242495 290.918182 
L 94.788542 290.918182 
L 95.231798 290.687412 
L 95.675054 290.687412 
L 96.11831 290.918182 
L 96.561566 290.918182 
L 97.448078 290.687412 
L 98.33459 290.62972 
L 98.777845 289.014333 
L 99.221101 290.918182 
L 99.664357 290.745105 
L 100.107613 289.879719 
L 100.550869 290.918182 
L 100.994125 290.802797 
L 101.880637 289.475872 
L 102.323893 290.918182 
L 102.767149 290.918182 
L 103.210405 285.610481 
L 104.096916 290.918182 
L 104.983428 290.225873 
L 105.426684 290.918182 
L 106.313196 290.514335 
L 107.199708 290.918182 
L 107.642964 288.148947 
L 108.08622 290.918182 
L 108.529475 287.7451 
L 108.972731 288.206639 
L 109.415987 289.360487 
L 109.859243 287.225868 
L 110.302499 288.091254 
L 110.745755 287.398945 
L 111.189011 287.860485 
L 111.632267 289.937411 
L 112.075523 288.783563 
L 112.962035 289.591257 
L 113.848546 289.533564 
L 114.291802 288.264331 
L 114.735058 288.033562 
L 115.178314 290.918182 
L 115.62157 289.418179 
L 116.064826 284.62971 
L 116.508082 290.283565 
L 116.951338 289.418179 
L 117.394594 289.360487 
L 117.83785 286.937406 
L 118.281106 289.129717 
L 118.724361 289.072025 
L 119.167617 289.706641 
L 119.610873 289.302795 
L 120.054129 289.764334 
L 120.497385 288.264331 
L 120.940641 287.456638 
L 121.383897 290.341258 
L 121.827153 287.110483 
L 122.270409 288.437409 
L 123.156921 287.629715 
L 123.600176 286.648944 
L 124.043432 284.572018 
L 124.486688 288.206639 
L 124.929944 286.879714 
L 125.3732 287.802792 
L 125.816456 283.129708 
L 126.259712 282.610476 
L 126.702968 287.51433 
L 127.146224 282.783553 
L 127.58948 281.225858 
L 128.032736 286.822021 
L 128.475991 285.668173 
L 128.919247 278.341238 
L 129.362503 289.014333 
L 129.805759 282.841246 
L 130.249015 284.918172 
L 130.692271 279.783548 
L 131.135527 287.572023 
L 131.578783 281.97586 
L 132.022039 280.07201 
L 132.465295 285.379711 
L 132.908551 279.552779 
L 133.351806 281.283551 
L 133.795062 277.706622 
L 134.238318 275.283541 
L 134.681574 283.879709 
L 135.12483 277.64893 
L 135.568086 274.648925 
L 136.011342 282.206629 
L 136.454598 285.668173 
L 136.897854 275.398926 
L 137.34111 277.014313 
L 137.784366 268.937377 
L 138.227621 277.764314 
L 139.114133 282.437399 
L 139.557389 265.64891 
L 140.000645 275.168156 
L 140.443901 273.668154 
L 140.887157 279.033547 
L 141.330413 274.648925 
L 141.773669 274.072001 
L 142.216925 266.745066 
L 142.660181 264.495062 
L 143.103436 265.937372 
L 143.546692 263.168137 
L 143.989948 263.514291 
L 144.433204 265.533525 
L 144.87646 274.245078 
L 145.319716 264.898909 
L 145.762972 279.898933 
L 146.206228 260.745056 
L 146.649484 271.706612 
L 147.09274 276.322004 
L 147.535996 267.610452 
L 147.979251 262.76429 
L 148.422507 264.2066 
L 148.865763 268.418145 
L 149.309019 257.052742 
L 149.752275 261.09121 
L 150.195531 253.706583 
L 150.638787 250.360424 
L 151.082043 272.398921 
L 151.525299 261.55275 
L 151.968555 264.552755 
L 152.411811 260.629671 
L 152.855067 273.264307 
L 153.298322 256.591203 
L 153.741578 244.418107 
L 154.184834 258.66813 
L 154.62809 269.052762 
L 155.071346 264.091215 
L 155.514602 256.475818 
L 156.401114 262.475828 
L 156.84437 262.187366 
L 157.287626 254.687354 
L 157.730882 259.187361 
L 158.174137 257.168127 
L 158.617393 262.648905 
L 159.060649 243.091181 
L 159.503905 250.360424 
L 159.947161 253.995045 
L 160.390417 239.802714 
L 160.833673 247.533496 
L 161.276929 243.841183 
L 161.720185 259.302746 
L 162.163441 253.706583 
L 162.606697 238.01425 
L 163.049952 253.764276 
L 163.493208 253.418121 
L 163.936464 252.552735 
L 164.37972 252.033503 
L 164.822976 247.995035 
L 165.266232 254.283507 
L 165.709488 247.302727 
L 166.152744 244.821953 
L 166.596 243.206566 
L 167.039256 244.360414 
L 167.482512 252.956582 
L 168.369023 235.764246 
L 168.812279 248.860421 
L 169.255535 258.148898 
L 169.698791 254.052738 
L 170.142047 245.802724 
L 170.585303 255.033508 
L 171.028559 250.360424 
L 171.471815 249.668115 
L 171.915071 250.533501 
L 172.358327 249.55273 
L 172.801582 254.745046 
L 173.244838 249.321961 
L 173.688094 253.418121 
L 174.13135 245.514262 
L 174.574606 249.321961 
L 175.017862 240.148869 
L 175.904374 249.898885 
L 176.34763 247.591189 
L 176.790886 240.379638 
L 177.234142 241.302717 
L 177.677397 251.168117 
L 178.120653 237.725788 
L 178.563909 246.89888 
L 179.007165 242.168103 
L 179.893677 243.437336 
L 180.336933 256.071972 
L 180.780189 239.975792 
L 181.223445 239.975792 
L 181.666701 236.745017 
L 182.109957 240.437331 
L 182.553212 256.187356 
L 182.996468 246.495033 
L 183.439724 244.648876 
L 183.88298 251.687349 
L 184.326236 243.725798 
L 184.769492 245.110415 
L 185.212748 241.475794 
L 185.656004 246.783495 
L 186.09926 248.052728 
L 186.542516 262.706598 
L 186.985772 249.55273 
L 187.429028 252.956582 
L 187.872283 255.033508 
L 188.315539 240.264254 
L 188.758795 249.321961 
L 189.645307 233.225781 
L 190.088563 246.783495 
L 190.531819 234.552706 
L 190.975075 250.706578 
L 191.418331 245.918109 
L 191.861587 239.110406 
L 192.304843 244.879646 
L 192.748098 230.398853 
L 193.191354 240.379638 
L 193.63461 238.591174 
L 194.077866 265.937372 
L 194.521122 253.418121 
L 194.964378 252.033503 
L 195.407634 260.571979 
L 195.85089 254.571969 
L 196.294146 252.552735 
L 196.737402 252.841197 
L 197.180658 248.629652 
L 197.623913 237.091172 
L 198.067169 244.706569 
L 198.510425 230.456545 
L 198.953681 247.879651 
L 199.396937 255.32197 
L 199.840193 250.475809 
L 200.283449 254.860431 
L 200.726705 250.245039 
L 201.169961 255.78351 
L 202.056473 248.283497 
L 202.499728 244.821953 
L 202.942984 249.033499 
L 203.38624 249.148883 
L 203.829496 252.091196 
L 204.272752 245.341185 
L 204.716008 244.187337 
L 205.159264 228.321927 
L 205.60252 244.129645 
L 206.045776 233.225781 
L 206.489032 252.148888 
L 206.932288 240.379638 
L 207.375543 240.725793 
L 207.818799 245.514262 
L 208.262055 241.764256 
L 208.705311 240.6681 
L 209.148567 233.629628 
L 209.591823 235.648862 
L 210.035079 236.283478 
L 210.478335 236.34117 
L 210.921591 225.148845 
L 211.364847 233.975782 
L 211.808103 228.725773 
L 212.251358 228.033465 
L 212.694614 233.283473 
L 213.13787 228.321927 
L 213.581126 231.091162 
L 214.024382 248.514267 
L 214.467638 229.475775 
L 214.910894 232.47578 
L 215.35415 244.187337 
L 215.797406 226.648847 
L 216.240662 251.918119 
L 216.683918 246.148879 
L 217.127173 231.956548 
L 217.570429 237.437326 
L 218.013685 235.764246 
L 218.456941 242.918104 
L 218.900197 238.071942 
L 219.343453 246.033494 
L 219.786709 226.071923 
L 220.229965 240.033484 
L 220.673221 236.975787 
L 221.116477 212.629594 
L 221.559733 243.264259 
L 222.002988 259.360438 
L 222.446244 235.12963 
L 222.8895 234.206552 
L 223.332756 246.206571 
L 223.776012 237.610403 
L 224.219268 240.264254 
L 224.662524 240.956562 
L 225.10578 231.206547 
L 225.992292 238.937328 
L 226.435548 235.418092 
L 226.878804 246.264263 
L 227.322059 240.437331 
L 227.765315 248.514267 
L 228.208571 244.937338 
L 228.651827 247.648881 
L 229.095083 247.706573 
L 229.538339 231.148854 
L 229.981595 232.24501 
L 230.424851 238.706559 
L 230.868107 233.975782 
L 231.311363 232.648857 
L 231.754619 240.437331 
L 232.197874 242.975797 
L 232.64113 238.879636 
L 233.084386 243.725798 
L 233.527642 235.014245 
L 233.970898 244.418107 
L 234.414154 236.975787 
L 234.85741 234.206552 
L 235.300666 234.206552 
L 235.743922 227.514233 
L 236.187178 231.379624 
L 236.630434 227.225771 
L 237.073689 230.975777 
L 237.960201 247.245034 
L 238.403457 251.283502 
L 238.846713 246.956572 
L 239.289969 230.341161 
L 239.733225 244.995031 
L 240.176481 245.687339 
L 240.619737 243.668105 
L 241.062993 255.725817 
L 241.506249 240.552716 
L 242.39276 229.995006 
L 242.836016 248.398882 
L 243.279272 230.918085 
L 243.722528 224.975767 
L 244.165784 221.571916 
L 245.052296 245.052723 
L 245.495552 230.398853 
L 245.938808 256.648896 
L 246.382064 241.245024 
L 246.825319 235.3604 
L 247.268575 226.591155 
L 247.711831 246.89888 
L 248.155087 231.033469 
L 248.598343 229.12962 
L 249.041599 238.533482 
L 249.484855 254.860431 
L 249.928111 234.148859 
L 250.371367 247.187342 
L 250.814623 235.706554 
L 251.257879 237.148864 
L 251.701134 236.57194 
L 252.14439 239.975792 
L 252.587646 257.22582 
L 253.030902 253.014274 
L 253.474158 233.45655 
L 253.917414 236.918094 
L 254.803926 251.341195 
L 255.247182 247.071957 
L 255.690438 233.168088 
L 256.133694 241.187332 
L 256.576949 254.456584 
L 257.020205 251.745041 
L 257.463461 243.033489 
L 257.906717 239.052713 
L 258.349973 252.379658 
L 258.793229 240.495023 
L 259.236485 238.418097 
L 259.679741 246.610418 
L 260.122997 243.725798 
L 260.566253 232.24501 
L 261.009509 244.879646 
L 261.452764 241.418102 
L 261.89602 240.495023 
L 262.339276 231.437316 
L 262.782532 227.110386 
L 263.225788 246.495033 
L 263.669044 239.398868 
L 264.1123 236.110401 
L 264.555556 241.418102 
L 264.998812 253.475814 
L 265.442068 253.648891 
L 265.885324 255.033508 
L 266.32858 237.668096 
L 266.771835 244.533491 
L 267.215091 236.918094 
L 267.658347 251.22581 
L 268.101603 259.821978 
L 268.544859 249.379653 
L 268.988115 254.11043 
L 269.431371 270.321995 
L 269.874627 265.764295 
L 270.317883 268.302761 
L 270.761139 245.745032 
L 271.204395 259.706593 
L 271.64765 256.129664 
L 272.090906 272.571998 
L 272.534162 269.918148 
L 272.977418 269.283531 
L 273.420674 250.360424 
L 273.86393 254.571969 
L 274.307186 264.379677 
L 274.750442 251.341195 
L 275.193698 260.687364 
L 275.636954 261.437365 
L 276.08021 254.860431 
L 276.523465 260.456594 
L 276.966721 257.456589 
L 277.409977 252.206581 
L 277.853233 267.552759 
L 278.296489 261.956596 
L 278.739745 278.572008 
L 279.183001 285.437404 
L 279.626257 269.341224 
L 280.069513 269.225839 
L 280.512769 268.014299 
L 280.956025 267.148913 
L 281.39928 267.264297 
L 281.842536 261.033518 
L 282.285792 269.687378 
L 283.172304 271.187381 
L 283.61556 277.995084 
L 284.058816 275.802773 
L 284.502072 266.918143 
L 284.945328 274.245078 
L 285.388584 276.841236 
L 285.83184 269.860455 
L 286.275095 277.64893 
L 286.718351 254.629662 
L 287.161607 263.341214 
L 288.048119 252.66812 
L 288.491375 268.879685 
L 288.934631 259.418131 
L 289.377887 269.860455 
L 289.821143 250.533501 
L 290.264399 259.87967 
L 290.707655 256.360434 
L 291.15091 259.764285 
L 291.594166 262.071981 
L 292.037422 269.918148 
L 292.480678 274.591232 
L 292.923934 274.53354 
L 293.36719 274.879694 
L 293.810446 272.225844 
L 294.253702 276.610466 
L 294.696958 273.264307 
L 295.140214 276.20662 
L 295.58347 259.071976 
L 296.026725 275.687388 
L 296.469981 281.51432 
L 296.913237 273.956616 
L 297.356493 280.129703 
L 297.799749 278.456623 
L 298.243005 266.918143 
L 298.686261 276.956621 
L 299.129517 272.456613 
L 299.572773 283.764324 
L 300.016029 274.591232 
L 300.459285 281.168166 
L 300.90254 279.495086 
L 301.345796 272.571998 
L 301.789052 272.283536 
L 302.232308 283.072015 
L 303.11882 267.552759 
L 303.562076 266.860451 
L 304.005332 273.668154 
L 304.448588 272.687383 
L 304.891844 278.572008 
L 305.3351 271.302765 
L 305.778356 276.437389 
L 306.221611 275.052772 
L 306.664867 270.610457 
L 307.108123 279.610471 
L 307.551379 283.360477 
L 307.994635 280.475857 
L 308.437891 286.418175 
L 308.881147 283.706632 
L 309.324403 278.225854 
L 309.767659 280.129703 
L 310.210915 280.764319 
L 310.654171 284.341248 
L 311.097426 280.187395 
L 311.540682 286.418175 
L 311.983938 287.168176 
L 312.427194 282.552784 
L 312.87045 284.283556 
L 313.313706 285.033557 
L 313.756962 284.283556 
L 314.200218 285.264327 
L 314.643474 288.668178 
L 315.08673 286.591252 
L 315.529986 289.648949 
L 315.973241 288.033562 
L 316.416497 283.995094 
L 316.859753 288.437409 
L 317.303009 289.879719 
L 317.746265 285.725866 
L 318.189521 286.995099 
L 318.632777 278.456623 
L 319.076033 289.360487 
L 319.519289 284.456633 
L 319.962545 285.783558 
L 320.405801 287.975869 
L 320.849056 287.456638 
L 321.292312 288.841255 
L 321.735568 289.245102 
L 322.178824 290.745105 
L 322.62208 290.456643 
L 323.065336 287.975869 
L 323.508592 287.802792 
L 323.951848 289.245102 
L 324.395104 289.937411 
L 324.83836 284.283556 
L 325.281616 288.668178 
L 325.724871 288.552793 
L 326.168127 289.822026 
L 326.611383 289.764334 
L 327.054639 290.341258 
L 327.497895 286.764329 
L 327.941151 290.687412 
L 328.384407 290.572027 
L 328.827663 290.802797 
L 329.714175 287.975869 
L 330.157431 290.62972 
L 330.600686 289.302795 
L 331.043942 290.745105 
L 331.487198 290.572027 
L 331.930454 290.572027 
L 332.37371 289.072025 
L 333.260222 290.514335 
L 333.703478 289.822026 
L 334.58999 290.918182 
L 335.476501 290.918182 
L 335.919757 290.39895 
L 336.363013 290.918182 
L 336.806269 289.475872 
L 337.249525 290.168181 
L 337.692781 290.39895 
L 338.136037 290.283565 
L 338.579293 290.918182 
L 339.022549 289.302795 
L 339.465805 290.918182 
L 345.671387 290.918182 
L 346.114643 290.802797 
L 346.557899 290.918182 
L 347.001155 290.62972 
L 347.444411 290.918182 
L 349.660691 290.918182 
L 350.547202 289.533564 
L 350.990458 290.918182 
L 351.433714 289.937411 
L 351.87697 290.456643 
L 352.320226 290.572027 
L 352.763482 289.706641 
L 353.206738 290.572027 
L 353.649994 290.918182 
L 354.09325 290.802797 
L 354.536506 290.918182 
L 355.866273 290.918182 
L 356.309529 290.802797 
L 356.752785 289.418179 
L 357.196041 290.918182 
L 357.639297 290.860489 
L 358.082553 290.514335 
L 358.525809 290.918182 
L 358.969065 290.687412 
L 359.855577 290.918182 
L 360.298832 290.341258 
L 360.742088 290.918182 
L 362.071856 290.918182 
L 362.515112 290.283565 
L 362.958368 290.860489 
L 363.84488 290.918182 
L 370.050462 290.918182 
L 370.493718 290.62972 
L 370.936974 290.918182 
L 371.38023 290.918182 
L 371.823486 290.802797 
L 372.266742 290.918182 
L 372.709998 290.687412 
L 373.153254 290.860489 
L 373.59651 289.764334 
L 374.039766 289.822026 
L 374.483022 290.687412 
L 375.369533 290.918182 
L 375.812789 290.918182 
L 376.256045 290.572027 
L 376.699301 290.918182 
L 378.915581 290.918182 
L 379.358837 290.456643 
L 379.802092 290.860489 
L 380.245348 290.802797 
L 381.13186 290.918182 
L 381.575116 290.745105 
L 382.018372 290.918182 
L 385.121163 290.860489 
L 385.564419 290.802797 
L 386.007675 290.918182 
L 387.780699 290.918182 
L 388.223955 290.62972 
L 388.667211 290.62972 
L 389.110467 290.918182 
L 390.88349 290.918182 
L 391.326746 290.802797 
L 391.770002 290.918182 
L 392.213258 290.918182 
L 392.656514 289.995103 
L 393.09977 290.860489 
L 393.986282 290.918182 
L 394.872793 290.918182 
L 395.316049 290.572027 
L 395.759305 290.918182 
L 396.202561 290.918182 
L 396.645817 289.533564 
L 397.089073 289.995103 
L 397.532329 290.918182 
L 401.521632 290.918182 
L 401.964888 290.745105 
L 402.8514 290.918182 
L 407.283959 290.918182 
L 407.727215 290.572027 
L 408.170471 290.918182 
L 426.787219 290.918182 
L 427.230475 290.62972 
L 427.673731 290.918182 
L 442.744432 290.918182 
L 443.187688 290.39895 
L 443.630944 290.918182 
L 447.620247 290.918182 
L 448.063503 290.341258 
L 448.506759 290.918182 
L 480.421184 290.918182 
L 480.86444 289.591257 
L 481.307696 290.918182 
L 483.967231 290.918182 
L 484.410487 290.168181 
L 484.853743 290.918182 
L 492.389094 290.918182 
L 492.83235 290.687412 
L 493.275605 290.918182 
L 514.551889 290.918182 
L 514.995145 290.802797 
L 515.438401 290.918182 
L 532.282126 290.918182 
L 532.725381 290.802797 
L 533.168637 290.918182 
L 593.894697 290.918182 
L 594.337953 290.802797 
L 594.781209 290.918182 
L 600.986792 290.918182 
L 601.430048 290.572027 
L 601.873303 290.918182 
L 674.567273 290.918182 
L 674.567273 290.918182 
" style="fill:none;stroke:#2ca02c;stroke-linecap:square;stroke-width:1.5;"/>
   </g>
   <g id="patch_3">
    <path d="M 60.68 304 
L 60.68 16.2 
" style="fill:none;stroke:#000000;stroke-linecap:square;stroke-linejoin:miter;stroke-width:0.8;"/>
   </g>
   <g id="patch_4">
    <path d="M 703.8 304 
L 703.8 16.2 
" style="fill:none;stroke:#000000;stroke-linecap:square;stroke-linejoin:miter;stroke-width:0.8;"/>
   </g>
   <g id="patch_5">
    <path d="M 60.68 304 
L 703.8 304 
" style="fill:none;stroke:#000000;stroke-linecap:square;stroke-linejoin:miter;stroke-width:0.8;"/>
   </g>
   <g id="patch_6">
    <path d="M 60.68 16.2 
L 703.8 16.2 
" style="fill:none;stroke:#000000;stroke-linecap:square;stroke-linejoin:miter;stroke-width:0.8;"/>
   </g>
   <g id="legend_1">
    <g id="patch_7">
     <path d="M 288.561484 195.375781 
L 475.918516 195.375781 
Q 478.918516 195.375781 478.918516 192.375781 
L 478.918516 127.824219 
Q 478.918516 124.824219 475.918516 124.824219 
L 288.561484 124.824219 
Q 285.561484 124.824219 285.561484 127.824219 
L 285.561484 192.375781 
Q 285.561484 195.375781 288.561484 195.375781 
z
" style="fill:#ffffff;opacity:0.8;stroke:#cccccc;stroke-linejoin:miter;"/>
    </g>
    <g id="line2d_16">
     <path d="M 291.561484 136.971875 
L 321.561484 136.971875 
" style="fill:none;stroke:#1f77b4;stroke-linecap:square;stroke-width:1.5;"/>
    </g>
    <g id="line2d_17"/>
    <g id="text_15">
     <text style="font-family:DejaVu Sans;font-size:15px;font-style:normal;font-weight:normal;text-anchor:start;" transform="rotate(-0, 333.561484, 142.221875)" x="333.561484" y="142.221875">position reward</text>
    </g>
    <g id="line2d_18">
     <path d="M 291.561484 158.989063 
L 321.561484 158.989063 
" style="fill:none;stroke:#ff7f0e;stroke-linecap:square;stroke-width:1.5;"/>
    </g>
    <g id="line2d_19"/>
    <g id="text_16">
     <text style="font-family:DejaVu Sans;font-size:15px;font-style:normal;font-weight:normal;text-anchor:start;" transform="rotate(-0, 333.561484, 164.239063)" x="333.561484" y="164.239063">orientation reward</text>
    </g>
    <g id="line2d_20">
     <path d="M 291.561484 181.00625 
L 321.561484 181.00625 
" style="fill:none;stroke:#2ca02c;stroke-linecap:square;stroke-width:1.5;"/>
    </g>
    <g id="line2d_21"/>
    <g id="text_17">
     <text style="font-family:DejaVu Sans;font-size:15px;font-style:normal;font-weight:normal;text-anchor:start;" transform="rotate(-0, 333.561484, 186.25625)" x="333.561484" y="186.25625">bonus reward</text>
    </g>
   </g>
  </g>
 </g>
 <defs>
  <clipPath id="p2897f8ef5f">
   <rect height="287.8" width="643.12" x="60.68" y="16.2"/>
  </clipPath>
 </defs>
</svg>
