<?xml version="1.0" encoding="UTF-8" standalone="no"?>
<!-- Created with matplotlib (https://matplotlib.org/) -->

<svg
   height="328.23499pt"
   version="1.1"
   viewBox="0 0 688.12445 328.23499"
   width="688.12445pt"
   xmlns:xlink="http://www.w3.org/1999/xlink"
   xmlns="http://www.w3.org/2000/svg">
  <defs
     id="defs1">
    <style
       type="text/css"
       id="style1">
*{stroke-linecap:butt;stroke-linejoin:round;}
  </style>
  </defs>
  <g
     id="figure_1"
     transform="translate(-16.075553,-15.8)">
    <g
       id="axes_1">
      <g
         id="patch_2">
        <path
           d="M 74.99,304 H 703.8 V 16.2 H 74.99 Z"
           style="fill:#ffffff"
           id="path2" />
      </g>
      <g
         id="matplotlib.axis_1">
        <g
           id="xtick_1">
          <g
             id="line2d_1">
            <defs
               id="defs2">
              <path
                 d="M 0,0 V 3.5"
                 id="m066cdc8857"
                 style="stroke:#000000;stroke-width:0.8" />
            </defs>
            <g
               id="g2">
              <use
                 style="stroke:#000000;stroke-width:0.8"
                 x="99.0354"
                 xlink:href="#m066cdc8857"
                 y="304"
                 id="use2" />
            </g>
          </g>
          <g
             id="text_1">
            <text
               style="font-style:normal;font-weight:normal;font-size:15px;font-family:'DejaVu Sans';text-anchor:middle"
               x="99.0354"
               y="322.39764"
               id="text2">0</text>
          </g>
        </g>
        <g
           id="xtick_2">
          <g
             id="line2d_2">
            <g
               id="g3">
              <use
                 style="stroke:#000000;stroke-width:0.8"
                 x="189.77278"
                 xlink:href="#m066cdc8857"
                 y="304"
                 id="use3" />
            </g>
          </g>
          <g
             id="text_2">
            <text
               style="font-style:normal;font-weight:normal;font-size:15px;font-family:'DejaVu Sans';text-anchor:middle"
               x="189.77278"
               y="322.39764"
               id="text3">10000</text>
          </g>
        </g>
        <g
           id="xtick_3">
          <g
             id="line2d_3">
            <g
               id="g4">
              <use
                 style="stroke:#000000;stroke-width:0.8"
                 x="280.51016"
                 xlink:href="#m066cdc8857"
                 y="304"
                 id="use4" />
            </g>
          </g>
          <g
             id="text_3">
            <text
               style="font-style:normal;font-weight:normal;font-size:15px;font-family:'DejaVu Sans';text-anchor:middle"
               x="280.51016"
               y="322.39764"
               id="text4">20000</text>
          </g>
        </g>
        <g
           id="xtick_4">
          <g
             id="line2d_4">
            <g
               id="g5">
              <use
                 style="stroke:#000000;stroke-width:0.8"
                 x="371.24753"
                 xlink:href="#m066cdc8857"
                 y="304"
                 id="use5" />
            </g>
          </g>
          <g
             id="text_4">
            <text
               style="font-style:normal;font-weight:normal;font-size:15px;font-family:'DejaVu Sans';text-anchor:middle"
               x="371.24753"
               y="322.39764"
               id="text5">30000</text>
          </g>
        </g>
        <g
           id="xtick_5">
          <g
             id="line2d_5">
            <g
               id="g6">
              <use
                 style="stroke:#000000;stroke-width:0.8"
                 x="461.98489"
                 xlink:href="#m066cdc8857"
                 y="304"
                 id="use6" />
            </g>
          </g>
          <g
             id="text_5">
            <text
               style="font-style:normal;font-weight:normal;font-size:15px;font-family:'DejaVu Sans';text-anchor:middle"
               x="461.98489"
               y="322.39764"
               id="text6">40000</text>
          </g>
        </g>
        <g
           id="xtick_6">
          <g
             id="line2d_6">
            <g
               id="g7">
              <use
                 style="stroke:#000000;stroke-width:0.8"
                 x="552.72229"
                 xlink:href="#m066cdc8857"
                 y="304"
                 id="use7" />
            </g>
          </g>
          <g
             id="text_6">
            <text
               style="font-style:normal;font-weight:normal;font-size:15px;font-family:'DejaVu Sans';text-anchor:middle"
               x="552.72229"
               y="322.39764"
               id="text7">50000</text>
          </g>
        </g>
        <g
           id="xtick_7">
          <g
             id="line2d_7">
            <g
               id="g8">
              <use
                 style="stroke:#000000;stroke-width:0.8"
                 x="643.45966"
                 xlink:href="#m066cdc8857"
                 y="304"
                 id="use8" />
            </g>
          </g>
          <g
             id="text_7">
            <text
               style="font-style:normal;font-weight:normal;font-size:15px;font-family:'DejaVu Sans';text-anchor:middle"
               x="643.45966"
               y="322.39764"
               id="text8">60000</text>
          </g>
        </g>
        <g
           id="text_8">
          <text
             style="font-style:normal;font-weight:normal;font-size:15px;font-family:'DejaVu Sans';text-anchor:middle"
             x="389.39499"
             y="340.91486"
             id="text9">Episodes</text>
        </g>
      </g>
      <g
         id="matplotlib.axis_2">
        <g
           id="ytick_1">
          <g
             id="line2d_8">
            <defs
               id="defs9">
              <path
                 d="M 0,0 H -3.5"
                 id="m8b215b4112"
                 style="stroke:#000000;stroke-width:0.8" />
            </defs>
            <g
               id="g9">
              <use
                 style="stroke:#000000;stroke-width:0.8"
                 x="74.989998"
                 xlink:href="#m8b215b4112"
                 y="267.29736"
                 id="use9" />
            </g>
          </g>
          <g
             id="text_9">
            <text
               style="font-style:normal;font-weight:normal;font-size:15px;font-family:'DejaVu Sans';text-anchor:end"
               x="67.989998"
               y="272.99619"
               id="text10">30.0</text>
          </g>
        </g>
        <g
           id="ytick_2">
          <g
             id="line2d_9">
            <g
               id="g10">
              <use
                 style="stroke:#000000;stroke-width:0.8"
                 x="74.989998"
                 xlink:href="#m8b215b4112"
                 y="228.38377"
                 id="use10" />
            </g>
          </g>
          <g
             id="text_10">
            <text
               style="font-style:normal;font-weight:normal;font-size:15px;font-family:'DejaVu Sans';text-anchor:end"
               x="67.989998"
               y="234.0826"
               id="text11">32.5</text>
          </g>
        </g>
        <g
           id="ytick_3">
          <g
             id="line2d_10">
            <g
               id="g11">
              <use
                 style="stroke:#000000;stroke-width:0.8"
                 x="74.989998"
                 xlink:href="#m8b215b4112"
                 y="189.47017"
                 id="use11" />
            </g>
          </g>
          <g
             id="text_11">
            <text
               style="font-style:normal;font-weight:normal;font-size:15px;font-family:'DejaVu Sans';text-anchor:end"
               x="67.989998"
               y="195.16901"
               id="text12">35.0</text>
          </g>
        </g>
        <g
           id="ytick_4">
          <g
             id="line2d_11">
            <g
               id="g12">
              <use
                 style="stroke:#000000;stroke-width:0.8"
                 x="74.989998"
                 xlink:href="#m8b215b4112"
                 y="150.55658"
                 id="use12" />
            </g>
          </g>
          <g
             id="text_12">
            <text
               style="font-style:normal;font-weight:normal;font-size:15px;font-family:'DejaVu Sans';text-anchor:end"
               x="67.989998"
               y="156.2554"
               id="text13">37.5</text>
          </g>
        </g>
        <g
           id="ytick_5">
          <g
             id="line2d_12">
            <g
               id="g13">
              <use
                 style="stroke:#000000;stroke-width:0.8"
                 x="74.989998"
                 xlink:href="#m8b215b4112"
                 y="111.64298"
                 id="use13" />
            </g>
          </g>
          <g
             id="text_13">
            <text
               style="font-style:normal;font-weight:normal;font-size:15px;font-family:'DejaVu Sans';text-anchor:end"
               x="67.989998"
               y="117.34181"
               id="text14">40.0</text>
          </g>
        </g>
        <g
           id="ytick_6">
          <g
             id="line2d_13">
            <g
               id="g14">
              <use
                 style="stroke:#000000;stroke-width:0.8"
                 x="74.989998"
                 xlink:href="#m8b215b4112"
                 y="72.729385"
                 id="use14" />
            </g>
          </g>
          <g
             id="text_14">
            <text
               style="font-style:normal;font-weight:normal;font-size:15px;font-family:'DejaVu Sans';text-anchor:end"
               x="67.989998"
               y="78.428215"
               id="text15">42.5</text>
          </g>
        </g>
        <g
           id="ytick_7">
          <g
             id="line2d_14">
            <g
               id="g15">
              <use
                 style="stroke:#000000;stroke-width:0.8"
                 x="74.989998"
                 xlink:href="#m8b215b4112"
                 y="33.815788"
                 id="use15" />
            </g>
          </g>
          <g
             id="text_15">
            <text
               style="font-style:normal;font-weight:normal;font-size:15px;font-family:'DejaVu Sans';text-anchor:end"
               x="67.989998"
               y="39.514614"
               id="text16">45.0</text>
          </g>
        </g>
        <g
           id="text_16">
          <text
             style="font-style:normal;font-weight:normal;font-size:15px;font-family:'DejaVu Sans';text-anchor:middle"
             transform="rotate(-90,27.472031,160.1)"
             x="27.472031"
             y="160.10001"
             id="text17">Episode Reward Mean (Max 50)</text>
        </g>
      </g>
      <g
         id="line2d_15">
        <path
           clip-path="url(#p2ed396fece)"
           d="m 103.57227,290.91818 4.53687,-31.36202 4.53687,-18.41214 4.53687,-10.17245 4.53687,-6.47159 4.53687,6.45111 4.53686,-6.58514 4.53687,-15.77474 4.53687,0.45962 4.53687,-1.30935 4.53687,-4.71566 4.53687,2.01471 4.53687,-2.92468 4.53687,-0.73442 4.53686,-3.41671 4.53687,2.92749 4.53687,-4.42566 4.53687,0.0272 4.53687,-3.00355 4.53687,4.38271 4.53687,-5.74471 4.53686,1.21233 4.53687,0.54363 4.53687,-5.61636 4.53687,-3.54618 4.53687,2.21996 4.53687,-1.16776 4.53687,0.0513 4.53687,-2.47619 4.53686,1.27784 4.53687,-0.65998 4.53687,-3.93457 4.53687,-5.80291 4.53687,1.13561 4.53687,-9.40273 4.53687,-4.98159 4.53686,9.80634 4.53687,-9.55315 4.53687,11.78054 4.53687,-6.55609 4.53687,-3.79111 4.53687,-4.45224 4.53687,4.82024 4.53687,3.23103 4.53687,-10.78712 4.53686,-2.80244 4.53687,8.49471 4.53687,-3.12351 4.53687,1.87495 4.53687,-7.55226 4.53687,-0.71373 4.53687,-3.59579 4.53686,1.9707 4.53687,-5.07874 4.53687,2.31606 4.53687,-12.5766 4.53687,4.86745 4.53687,-12.08334 4.53687,-3.41817 4.53686,8.81961 4.53687,-10.11371 4.53687,8.16144 4.53687,-3.40347 4.53687,-8.46163 4.53687,2.89087 4.53687,1.67848 4.53687,-23.20707 4.53687,6.24428 4.53686,-9.727655 4.53687,3.975865 4.53687,-0.55391 4.53687,-0.27101 4.53687,-0.743315 4.53687,-6.666471 4.53687,1.408114 4.53686,1.569005 4.53687,6.349717 4.53687,-10.936164 4.53687,4.29317 4.53687,-13.884908 4.53687,6.037347 4.53687,1.363781 4.53686,-3.785713 4.53687,10.590406 4.53687,-18.226616 4.53687,8.00057 4.53687,-3.572072 4.53687,-0.307339 4.53687,-3.223568 4.53687,-4.909458 4.53686,11.680912 4.53687,-10.945411 4.53687,7.222493 4.53687,4.11909 4.53687,-19.137153 4.53687,18.734591 4.53687,-12.546659 4.53687,-5.168531 4.53686,5.707112 4.53687,-2.409647 4.53687,2.679181 4.53687,5.80531 4.53687,-11.994904 4.53687,6.713941 4.53687,-9.762095 4.53686,3.220805 4.53687,-0.475124 4.53687,-1.352031 4.53687,-3.413087 4.53687,10.634098 4.53687,-2.413863 4.53687,-7.923695 4.53687,-4.194202 4.53686,6.802544 4.53687,5.669259 4.53687,-2.548923 4.53687,-3.705991 4.53687,-8.23216 4.53687,13.154596 4.53687,-2.766145 4.53687,-0.898135 4.53686,-9.492 4.53687,0.206461 4.53687,14.4413 4.53687,-12.35843 4.53687,0.223452 4.53687,-0.226399"
           style="fill:none;stroke:#1f77b4;stroke-width:1.5;stroke-linecap:square"
           id="path17" />
      </g>
      <g
         id="line2d_16">
        <path
           clip-path="url(#p2ed396fece)"
           d="m 103.57227,286.20324 4.53687,-20.1923 4.53687,-37.51799 4.53687,5.51442 4.53687,-11.93755 4.53687,9.16322 4.53686,-11.61738 4.53687,-11.93717 4.53687,-5.95856 4.53687,-8.67531 4.53687,2.82107 4.53687,8.06576 4.53687,-5.29809 4.53687,4.38554 4.53686,-6.99648 4.53687,-2.66518 4.53687,-2.05749 4.53687,4.18737 4.53687,-12.14579 4.53687,7.5327 4.53687,-2.70186 4.53686,-20.37163 4.53687,6.03914 4.53687,4.18981 4.53687,9.57679 4.53687,-16.51422 4.53687,6.78332 4.53687,-2.74973 4.53687,0.2453 4.53686,5.23272 4.53687,-12.259 4.53687,4.60586 4.53687,-14.70925 4.53687,1.79936 4.53687,-3.55413 4.53687,-10.21333 4.53686,3.84012 4.53687,-9.22648 4.53687,10.1768 4.53687,-24.99776 4.53687,24.7091 4.53687,-10.15955 4.53687,-0.6355 4.53687,0.24612 4.53687,-8.48438 4.53686,12.12108 4.53687,8.48794 4.53687,-12.126 4.53687,9.5341 4.53687,-15.29768 4.53687,-15.77073 4.53687,23.5016 4.53686,-26.0913 4.53687,16.75561 4.53687,-16.78631 4.53687,-19.098227 4.53687,-5.065588 4.53687,-7.712221 4.53687,22.241966 4.53686,-9.382666 4.53687,-8.073864 4.53687,-4.706856 4.53687,20.688256 4.53687,-5.395227 4.53687,-11.348672 4.53687,3.562443 4.53687,-12.800129 4.53687,-7.548866 4.53686,-3.272618 4.53687,3.375587 4.53687,-2.815428 4.53687,-9.407164 4.53687,10.754079 4.53687,-5.698296 4.53687,5.228565 4.53686,-12.484959 4.53687,-3.626493 4.53687,11.074892 4.53687,-1.937593 4.53687,2.830224 4.53687,-8.441614 4.53687,-3.454932 4.53686,3.163137 4.53687,5.024602 4.53687,-0.648473 4.53687,-5.319369 4.53687,-14.081523 4.53687,-0.584604 4.53687,8.872638 4.53687,-3.545903 4.53686,0.193246 4.53687,8.855874 4.53687,-10.05913 4.53687,8.111455 4.53687,-4.156812 4.53687,-1.382563 4.53687,-6.757055 4.53687,11.659666 4.53686,-12.442627 4.53687,4.43845 4.53687,13.765775 4.53687,1.797718 4.53687,-10.56555 4.53687,6.159944 4.53687,-14.02945 4.53686,6.220677 4.53687,-18.962864 4.53687,11.471025 4.53687,1.959033 4.53687,1.627145 4.53687,8.51336 4.53687,-14.572864 4.53687,2.406486 4.53686,1.911355 4.53687,-2.90431 4.53687,-4.197107 4.53687,-0.446624 4.53687,7.204579 4.53687,-2.306174 4.53687,2.39436 4.53687,-7.881611 4.53686,6.254007 4.53687,17.242306 4.53687,-19.107562 4.53687,16.323048 4.53687,-17.988369 4.53687,9.586542"
           style="fill:none;stroke:#ff7f0e;stroke-width:1.5;stroke-linecap:square"
           id="path18" />
      </g>
      <g
         id="patch_3">
        <path
           d="M 74.99,304 V 16.2"
           style="fill:none;stroke:#000000;stroke-width:0.8;stroke-linecap:square;stroke-linejoin:miter"
           id="path19" />
      </g>
      <g
         id="patch_4">
        <path
           d="M 703.8,304 V 16.2"
           style="fill:none;stroke:#000000;stroke-width:0.8;stroke-linecap:square;stroke-linejoin:miter"
           id="path20" />
      </g>
      <g
         id="patch_5">
        <path
           d="M 74.99,304 H 703.8"
           style="fill:none;stroke:#000000;stroke-width:0.8;stroke-linecap:square;stroke-linejoin:miter"
           id="path21" />
      </g>
      <g
         id="patch_6">
        <path
           d="M 74.99,16.2 H 703.8"
           style="fill:none;stroke:#000000;stroke-width:0.8;stroke-linecap:square;stroke-linejoin:miter"
           id="path22" />
      </g>
      <g
         id="legend_1">
        <g
           id="patch_7">
          <path
             d="m 85.49,72.234375 h 226.4625 q 3,0 3,-3 V 26.7 q 0,-3 -3,-3 H 85.49 q -3,0 -3,3 v 42.534375 q 0,3 3,3 z"
             style="opacity:0.8;fill:#ffffff;stroke:#cccccc;stroke-linejoin:miter"
             id="path23" />
        </g>
        <g
           id="line2d_17">
          <path
             d="m 88.49,35.847656 h 30"
             style="fill:none;stroke:#1f77b4;stroke-width:1.5;stroke-linecap:square"
             id="path24" />
        </g>
        <g
           id="line2d_18" />
        <g
           id="text_17">
          <text
             style="font-style:normal;font-weight:normal;font-size:15px;font-family:'DejaVu Sans';text-anchor:start"
             x="130.49001"
             y="41.097656"
             id="text24">training mean reward</text>
        </g>
        <g
           id="line2d_19">
          <path
             d="m 88.49,57.864844 h 30"
             style="fill:none;stroke:#ff7f0e;stroke-width:1.5;stroke-linecap:square"
             id="path25" />
        </g>
        <g
           id="line2d_20" />
        <g
           id="text_18">
          <text
             style="font-style:normal;font-weight:normal;font-size:15px;font-family:'DejaVu Sans';text-anchor:start"
             x="130.49001"
             y="63.114845"
             id="text25">validation mean reward</text>
        </g>
      </g>
    </g>
  </g>
  <defs
     id="defs25">
    <clipPath
       id="p2ed396fece">
      <rect
         height="287.79999"
         width="628.81"
         x="74.989998"
         y="16.200001"
         id="rect25" />
    </clipPath>
  </defs>
</svg>
