<?xml version="1.0" encoding="UTF-8" standalone="no"?>
<!-- Created with matplotlib (https://matplotlib.org/) -->

<svg
   height="327.45639pt"
   version="1.1"
   viewBox="0 0 687.85706 327.45639"
   width="687.85706pt"
   xmlns:xlink="http://www.w3.org/1999/xlink"
   xmlns="http://www.w3.org/2000/svg">
  <defs
     id="defs1">
    <style
       type="text/css"
       id="style1">
*{stroke-linecap:butt;stroke-linejoin:round;}
  </style>
  </defs>
  <g
     id="figure_1"
     transform="translate(-16.342961,-16.578592)">
    <g
       id="axes_1">
      <g
         id="patch_2">
        <path
           d="M 65.45,304 H 703.8 V 19.86 H 65.45 Z"
           style="fill:#ffffff"
           id="path2" />
      </g>
      <g
         id="matplotlib.axis_1">
        <g
           id="xtick_1">
          <g
             id="line2d_1">
            <defs
               id="defs2">
              <path
                 d="M 0,0 V 3.5"
                 id="m77adcbf743"
                 style="stroke:#000000;stroke-width:0.8" />
            </defs>
            <g
               id="g2">
              <use
                 style="stroke:#000000;stroke-width:0.8"
                 x="89.860207"
                 xlink:href="#m77adcbf743"
                 y="304"
                 id="use2" />
            </g>
          </g>
          <g
             id="text_1">
            <text
               style="font-style:normal;font-weight:normal;font-size:15px;font-family:'DejaVu Sans';text-anchor:middle"
               x="89.860207"
               y="322.39764"
               id="text2">0</text>
          </g>
        </g>
        <g
           id="xtick_2">
          <g
             id="line2d_2">
            <g
               id="g3">
              <use
                 style="stroke:#000000;stroke-width:0.8"
                 x="181.97421"
                 xlink:href="#m77adcbf743"
                 y="304"
                 id="use3" />
            </g>
          </g>
          <g
             id="text_2">
            <text
               style="font-style:normal;font-weight:normal;font-size:15px;font-family:'DejaVu Sans';text-anchor:middle"
               x="181.97421"
               y="322.39764"
               id="text3">10000</text>
          </g>
        </g>
        <g
           id="xtick_3">
          <g
             id="line2d_3">
            <g
               id="g4">
              <use
                 style="stroke:#000000;stroke-width:0.8"
                 x="274.0882"
                 xlink:href="#m77adcbf743"
                 y="304"
                 id="use4" />
            </g>
          </g>
          <g
             id="text_3">
            <text
               style="font-style:normal;font-weight:normal;font-size:15px;font-family:'DejaVu Sans';text-anchor:middle"
               x="274.0882"
               y="322.39764"
               id="text4">20000</text>
          </g>
        </g>
        <g
           id="xtick_4">
          <g
             id="line2d_4">
            <g
               id="g5">
              <use
                 style="stroke:#000000;stroke-width:0.8"
                 x="366.20221"
                 xlink:href="#m77adcbf743"
                 y="304"
                 id="use5" />
            </g>
          </g>
          <g
             id="text_4">
            <text
               style="font-style:normal;font-weight:normal;font-size:15px;font-family:'DejaVu Sans';text-anchor:middle"
               x="366.20221"
               y="322.39764"
               id="text5">30000</text>
          </g>
        </g>
        <g
           id="xtick_5">
          <g
             id="line2d_5">
            <g
               id="g6">
              <use
                 style="stroke:#000000;stroke-width:0.8"
                 x="458.31619"
                 xlink:href="#m77adcbf743"
                 y="304"
                 id="use6" />
            </g>
          </g>
          <g
             id="text_5">
            <text
               style="font-style:normal;font-weight:normal;font-size:15px;font-family:'DejaVu Sans';text-anchor:middle"
               x="458.31619"
               y="322.39764"
               id="text6">40000</text>
          </g>
        </g>
        <g
           id="xtick_6">
          <g
             id="line2d_6">
            <g
               id="g7">
              <use
                 style="stroke:#000000;stroke-width:0.8"
                 x="550.43018"
                 xlink:href="#m77adcbf743"
                 y="304"
                 id="use7" />
            </g>
          </g>
          <g
             id="text_6">
            <text
               style="font-style:normal;font-weight:normal;font-size:15px;font-family:'DejaVu Sans';text-anchor:middle"
               x="550.43018"
               y="322.39764"
               id="text7">50000</text>
          </g>
        </g>
        <g
           id="xtick_7">
          <g
             id="line2d_7">
            <g
               id="g8">
              <use
                 style="stroke:#000000;stroke-width:0.8"
                 x="642.54419"
                 xlink:href="#m77adcbf743"
                 y="304"
                 id="use8" />
            </g>
          </g>
          <g
             id="text_7">
            <text
               style="font-style:normal;font-weight:normal;font-size:15px;font-family:'DejaVu Sans';text-anchor:middle"
               x="642.54419"
               y="322.39764"
               id="text8">60000</text>
          </g>
        </g>
        <g
           id="text_8">
          <text
             style="font-style:normal;font-weight:normal;font-size:15px;font-family:'DejaVu Sans';text-anchor:middle"
             x="384.625"
             y="340.91486"
             id="text9">Episodes</text>
        </g>
      </g>
      <g
         id="matplotlib.axis_2">
        <g
           id="ytick_1">
          <g
             id="line2d_8">
            <defs
               id="defs9">
              <path
                 d="M 0,0 H -3.5"
                 id="m10be6240ff"
                 style="stroke:#000000;stroke-width:0.8" />
            </defs>
            <g
               id="g9">
              <use
                 style="stroke:#000000;stroke-width:0.8"
                 x="65.449997"
                 xlink:href="#m10be6240ff"
                 y="291.08453"
                 id="use9" />
            </g>
          </g>
          <g
             id="text_9">
            <text
               style="font-style:normal;font-weight:normal;font-size:15px;font-family:'DejaVu Sans';text-anchor:end"
               x="58.450001"
               y="296.78339"
               id="text10">0.0</text>
          </g>
        </g>
        <g
           id="ytick_2">
          <g
             id="line2d_9">
            <g
               id="g10">
              <use
                 style="stroke:#000000;stroke-width:0.8"
                 x="65.449997"
                 xlink:href="#m10be6240ff"
                 y="237.27016"
                 id="use10" />
            </g>
          </g>
          <g
             id="text_10">
            <text
               style="font-style:normal;font-weight:normal;font-size:15px;font-family:'DejaVu Sans';text-anchor:end"
               x="58.450001"
               y="242.96898"
               id="text11">0.2</text>
          </g>
        </g>
        <g
           id="ytick_3">
          <g
             id="line2d_10">
            <g
               id="g11">
              <use
                 style="stroke:#000000;stroke-width:0.8"
                 x="65.449997"
                 xlink:href="#m10be6240ff"
                 y="183.45576"
                 id="use11" />
            </g>
          </g>
          <g
             id="text_11">
            <text
               style="font-style:normal;font-weight:normal;font-size:15px;font-family:'DejaVu Sans';text-anchor:end"
               x="58.450001"
               y="189.15459"
               id="text12">0.4</text>
          </g>
        </g>
        <g
           id="ytick_4">
          <g
             id="line2d_11">
            <g
               id="g12">
              <use
                 style="stroke:#000000;stroke-width:0.8"
                 x="65.449997"
                 xlink:href="#m10be6240ff"
                 y="129.64136"
                 id="use12" />
            </g>
          </g>
          <g
             id="text_12">
            <text
               style="font-style:normal;font-weight:normal;font-size:15px;font-family:'DejaVu Sans';text-anchor:end"
               x="58.450001"
               y="135.34019"
               id="text13">0.6</text>
          </g>
        </g>
        <g
           id="ytick_5">
          <g
             id="line2d_12">
            <g
               id="g13">
              <use
                 style="stroke:#000000;stroke-width:0.8"
                 x="65.449997"
                 xlink:href="#m10be6240ff"
                 y="75.826973"
                 id="use13" />
            </g>
          </g>
          <g
             id="text_13">
            <text
               style="font-style:normal;font-weight:normal;font-size:15px;font-family:'DejaVu Sans';text-anchor:end"
               x="58.450001"
               y="81.525795"
               id="text14">0.8</text>
          </g>
        </g>
        <g
           id="ytick_6">
          <g
             id="line2d_13">
            <g
               id="g14">
              <use
                 style="stroke:#000000;stroke-width:0.8"
                 x="65.449997"
                 xlink:href="#m10be6240ff"
                 y="22.012575"
                 id="use14" />
            </g>
          </g>
          <g
             id="text_14">
            <text
               style="font-style:normal;font-weight:normal;font-size:15px;font-family:'DejaVu Sans';text-anchor:end"
               x="58.450001"
               y="27.711405"
               id="text15">1.0</text>
          </g>
        </g>
        <g
           id="text_15">
          <text
             style="font-style:normal;font-weight:normal;font-size:15px;font-family:'DejaVu Sans';text-anchor:middle"
             transform="rotate(-90,27.475781,161.93)"
             x="27.47578"
             y="161.92999"
             id="text16">Success Rate</text>
        </g>
      </g>
      <g
         id="line2d_14">
        <path
           clip-path="url(#pb4bcf33b52)"
           d="m 94.465909,291.08454 h 4.6057 4.605701 4.6057 4.6057 4.6057 4.6057 l 4.6057,-2.69071 4.6057,2.69071 h 4.6057 4.6057 4.6057 l 4.6057,-2.69071 4.6057,2.69071 h 4.6057 l 4.6057,-5.38143 4.6057,5.38143 4.6057,-8.07215 4.6057,2.69072 4.6057,-2.69072 h 4.6057 4.6057 4.6057 l 4.6057,5.38144 4.6057,-13.4536 4.60569,16.14431 4.6057,-16.14431 4.6057,5.38144 4.6057,-13.4536 4.6057,16.14432 4.60571,-10.76288 4.60569,10.76288 4.6057,-13.4536 4.6057,-10.76288 4.6057,10.76288 4.6057,-24.21648 4.6057,8.07216 4.6057,-13.4536 4.6057,29.59792 4.6057,-10.76288 4.6057,-16.14432 4.6057,16.14432 4.6057,5.38144 4.6057,-24.21648 4.6057,2.69072 4.6057,-5.38144 4.6057,16.14432 4.6057,-8.07216 h 4.6057 l 4.6057,-8.07216 4.6057,-5.38144 4.6057,-21.52576 4.6057,21.52576 4.6057,-21.52576 4.6057,24.21648 4.6057,-18.83504 4.6057,-5.38144 4.6057,-24.21647 4.6057,-8.07216 4.6057,32.28863 4.6057,-32.28863 4.6057,2.69072 4.6057,-5.38144 4.6057,10.76288 4.6057,-13.4536 4.6057,10.76288 4.6057,-32.28864 4.6057,16.14432 4.6057,-26.9072 4.6057,-5.38144 4.6057,5.38144 4.6057,2.69072 4.6057,-5.38144 4.6057,-21.52575 4.6057,16.14431 4.6057,-10.76288 4.6057,26.9072 h 4.6057 4.6057 l 4.6057,-48.43295 4.6057,29.59791 4.6057,2.69072 4.6057,-26.90719 4.6057,43.05151 4.6057,-32.28863 4.6057,10.76287 4.6057,-24.21647 4.6057,-8.072162 4.6057,-5.38144 4.6057,-8.072159 4.6057,26.907201 4.6057,-26.907201 4.6057,16.144318 4.6057,2.690723 4.6057,-29.59792 4.60569,18.835038 4.60571,5.38144 4.60569,-8.07216 4.6057,-10.762878 4.60571,10.762878 4.60569,10.762879 4.60571,8.072163 4.60569,-24.216481 4.6057,5.381439 4.6057,8.07216 4.6057,-13.453599 4.6057,-10.762879 4.6057,21.525758 4.6057,-18.835038 4.6057,18.835038 4.6057,-18.835038 4.6057,5.381439 4.6057,2.69072 4.6057,-13.453598 4.6057,16.144318 4.6057,-21.525758 4.6057,24.216477 4.6057,-21.525757 4.6057,18.835038 4.6057,13.453598 4.6057,-24.216477 4.6057,-18.835038 4.6057,8.072159 4.6057,32.288637 4.6057,-24.216478 4.6057,-5.381439 h 4.6057"
           style="fill:none;stroke:#1f77b4;stroke-width:1.5;stroke-linecap:square"
           id="path16" />
      </g>
      <g
         id="line2d_15">
        <path
           clip-path="url(#pb4bcf33b52)"
           d="m 94.465909,291.08454 h 4.6057 4.605701 4.6057 4.6057 4.6057 4.6057 l 4.6057,-2.69071 4.6057,2.69071 4.6057,-5.38143 h 4.6057 l 4.6057,2.69072 4.6057,2.69071 h 4.6057 l 4.6057,-2.69071 4.6057,-2.69072 4.6057,-2.69072 4.6057,2.69072 4.6057,-13.4536 4.6057,16.14432 h 4.6057 l 4.6057,-29.59792 4.6057,5.38144 4.6057,13.4536 4.6057,5.38144 4.60569,-21.52576 4.6057,5.38144 4.6057,2.69072 h 4.6057 l 4.6057,2.69072 4.60571,-8.07216 h 4.60569 l 4.6057,-18.83504 4.6057,2.69072 4.6057,-8.07216 4.6057,-13.4536 4.6057,2.69072 4.6057,-13.4536 4.6057,18.83504 4.6057,-43.05151 4.6057,32.28863 4.6057,-8.07216 4.6057,-5.38144 h 4.6057 l 4.6057,-5.38144 4.6057,16.14432 4.6057,16.14432 4.6057,-26.9072 4.6057,16.14432 4.6057,-24.21648 4.6057,-26.90719 4.6057,40.36079 4.6057,-43.05151 4.6057,18.83504 4.6057,-16.14432 4.6057,-37.67008 4.6057,-2.69072 4.6057,-10.76288 4.6057,24.21648 4.6057,-10.76288 4.6057,-8.07216 4.6057,-18.83503 4.6057,43.05151 4.6057,-10.76288 4.6057,-21.52576 4.6057,-2.69072 4.6057,-21.525753 4.6057,-5.381439 4.6057,-2.69072 h 4.6057 4.6057 l 4.6057,-18.835038 4.6057,16.144318 4.6057,-10.762878 4.6057,13.453598 4.6057,-13.453598 4.6057,-16.144318 4.6057,24.216477 4.6057,-10.762879 4.6057,16.144318 4.6057,-24.216477 4.6057,-2.69072 4.6057,5.38144 4.6057,2.690719 4.6057,-2.690719 h 4.6057 l 4.6057,-18.835038 4.6057,-10.762879 4.6057,16.144318 4.6057,-13.453598 4.6057,10.762878 4.6057,8.07216 4.6057,-16.144319 4.6057,21.525758 4.6057,-8.072159 4.60569,2.69072 4.60571,-16.144319 4.60569,16.144319 4.6057,-13.453599 4.60571,-2.69072 4.60569,24.216478 4.60571,2.690719 4.60569,-16.144318 4.6057,10.762879 4.6057,-13.453599 4.6057,2.69072 4.6057,-21.525757 4.6057,8.072159 4.6057,8.072159 4.6057,-5.38144 4.6057,21.525758 4.6057,-26.907197 4.6057,2.69072 h 4.6057 l 4.6057,-2.69072 h 4.6057 l 4.6057,-2.69072 4.6057,5.38144 h 4.6057 l 4.6057,5.381439 4.6057,-13.453598 4.6057,10.762878 4.6057,24.216478 4.6057,-26.907197 4.6057,32.288636 4.6057,-40.360795 4.6057,29.597916"
           style="fill:none;stroke:#ff7f0e;stroke-width:1.5;stroke-linecap:square"
           id="path17" />
      </g>
      <g
         id="patch_3">
        <path
           d="M 65.45,304 V 19.86"
           style="fill:none;stroke:#000000;stroke-width:0.8;stroke-linecap:square;stroke-linejoin:miter"
           id="path18" />
      </g>
      <g
         id="patch_4">
        <path
           d="M 703.8,304 V 19.86"
           style="fill:none;stroke:#000000;stroke-width:0.8;stroke-linecap:square;stroke-linejoin:miter"
           id="path19" />
      </g>
      <g
         id="patch_5">
        <path
           d="M 65.45,304 H 703.8"
           style="fill:none;stroke:#000000;stroke-width:0.8;stroke-linecap:square;stroke-linejoin:miter"
           id="path20" />
      </g>
      <g
         id="patch_6">
        <path
           d="M 65.45,19.86 H 703.8"
           style="fill:none;stroke:#000000;stroke-width:0.8;stroke-linecap:square;stroke-linejoin:miter"
           id="path21" />
      </g>
      <g
         id="legend_1">
        <g
           id="patch_7">
          <path
             d="m 75.95,75.894375 h 220.52812 q 3,0 3,-3 V 30.36 q 0,-3 -3,-3 H 75.95 q -3,0 -3,3 v 42.534375 q 0,3 3,3 z"
             style="opacity:0.8;fill:#ffffff;stroke:#cccccc;stroke-linejoin:miter"
             id="path22" />
        </g>
        <g
           id="line2d_16">
          <path
             d="m 78.95,39.507656 h 30"
             style="fill:none;stroke:#1f77b4;stroke-width:1.5;stroke-linecap:square"
             id="path23" />
        </g>
        <g
           id="line2d_17" />
        <g
           id="text_16">
          <text
             style="font-style:normal;font-weight:normal;font-size:15px;font-family:'DejaVu Sans';text-anchor:start"
             x="120.95"
             y="44.757656"
             id="text23">training success rate</text>
        </g>
        <g
           id="line2d_18">
          <path
             d="m 78.95,61.524844 h 30"
             style="fill:none;stroke:#ff7f0e;stroke-width:1.5;stroke-linecap:square"
             id="path24" />
        </g>
        <g
           id="line2d_19" />
        <g
           id="text_17">
          <text
             style="font-style:normal;font-weight:normal;font-size:15px;font-family:'DejaVu Sans';text-anchor:start"
             x="120.95"
             y="66.774841"
             id="text24">validation success rate</text>
        </g>
      </g>
    </g>
  </g>
  <defs
     id="defs24">
    <clipPath
       id="pb4bcf33b52">
      <rect
         height="284.14001"
         width="638.34998"
         x="65.449997"
         y="19.860001"
         id="rect24" />
    </clipPath>
  </defs>
</svg>
