<?xml version="1.0" encoding="utf-8" standalone="no"?>
<!DOCTYPE svg PUBLIC "-//W3C//DTD SVG 1.1//EN"
  "http://www.w3.org/Graphics/SVG/1.1/DTD/svg11.dtd">
<!-- Created with matplotlib (https://matplotlib.org/) -->
<svg height="360pt" version="1.1" viewBox="0 0 720 360" width="720pt" xmlns="http://www.w3.org/2000/svg" xmlns:xlink="http://www.w3.org/1999/xlink">
 <defs>
  <style type="text/css">
*{stroke-linecap:butt;stroke-linejoin:round;}
  </style>
 </defs>
 <g id="figure_1">
  <g id="patch_1">
   <path d="M 0 360 
L 720 360 
L 720 0 
L 0 0 
z
" style="fill:#ffffff;"/>
  </g>
  <g id="axes_1">
   <g id="patch_2">
    <path d="M 65.45 304 
L 703.8 304 
L 703.8 16.2 
L 65.45 16.2 
z
" style="fill:#ffffff;"/>
   </g>
   <g id="matplotlib.axis_1">
    <g id="xtick_1">
     <g id="line2d_1">
      <defs>
       <path d="M 0 0 
L 0 3.5 
" id="m776afd4b78" style="stroke:#000000;stroke-width:0.8;"/>
      </defs>
      <g>
       <use style="stroke:#000000;stroke-width:0.8;" x="94.025941" xlink:href="#m776afd4b78" y="304"/>
      </g>
     </g>
     <g id="text_1">
      <text style="font-family:DejaVu Sans;font-size:15px;font-style:normal;font-weight:normal;text-anchor:middle;" transform="rotate(-0, 94.025941, 322.397656)" x="94.025941" y="322.397656">0</text>
     </g>
    </g>
    <g id="xtick_2">
     <g id="line2d_2">
      <g>
       <use style="stroke:#000000;stroke-width:0.8;" x="182.0196" xlink:href="#m776afd4b78" y="304"/>
      </g>
     </g>
     <g id="text_2">
      <text style="font-family:DejaVu Sans;font-size:15px;font-style:normal;font-weight:normal;text-anchor:middle;" transform="rotate(-0, 182.0196, 322.397656)" x="182.0196" y="322.397656">100000</text>
     </g>
    </g>
    <g id="xtick_3">
     <g id="line2d_3">
      <g>
       <use style="stroke:#000000;stroke-width:0.8;" x="270.013259" xlink:href="#m776afd4b78" y="304"/>
      </g>
     </g>
     <g id="text_3">
      <text style="font-family:DejaVu Sans;font-size:15px;font-style:normal;font-weight:normal;text-anchor:middle;" transform="rotate(-0, 270.013259, 322.397656)" x="270.013259" y="322.397656">200000</text>
     </g>
    </g>
    <g id="xtick_4">
     <g id="line2d_4">
      <g>
       <use style="stroke:#000000;stroke-width:0.8;" x="358.006918" xlink:href="#m776afd4b78" y="304"/>
      </g>
     </g>
     <g id="text_4">
      <text style="font-family:DejaVu Sans;font-size:15px;font-style:normal;font-weight:normal;text-anchor:middle;" transform="rotate(-0, 358.006918, 322.397656)" x="358.006918" y="322.397656">300000</text>
     </g>
    </g>
    <g id="xtick_5">
     <g id="line2d_5">
      <g>
       <use style="stroke:#000000;stroke-width:0.8;" x="446.000577" xlink:href="#m776afd4b78" y="304"/>
      </g>
     </g>
     <g id="text_5">
      <text style="font-family:DejaVu Sans;font-size:15px;font-style:normal;font-weight:normal;text-anchor:middle;" transform="rotate(-0, 446.000577, 322.397656)" x="446.000577" y="322.397656">400000</text>
     </g>
    </g>
    <g id="xtick_6">
     <g id="line2d_6">
      <g>
       <use style="stroke:#000000;stroke-width:0.8;" x="533.994236" xlink:href="#m776afd4b78" y="304"/>
      </g>
     </g>
     <g id="text_6">
      <text style="font-family:DejaVu Sans;font-size:15px;font-style:normal;font-weight:normal;text-anchor:middle;" transform="rotate(-0, 533.994236, 322.397656)" x="533.994236" y="322.397656">500000</text>
     </g>
    </g>
    <g id="xtick_7">
     <g id="line2d_7">
      <g>
       <use style="stroke:#000000;stroke-width:0.8;" x="621.987895" xlink:href="#m776afd4b78" y="304"/>
      </g>
     </g>
     <g id="text_7">
      <text style="font-family:DejaVu Sans;font-size:15px;font-style:normal;font-weight:normal;text-anchor:middle;" transform="rotate(-0, 621.987895, 322.397656)" x="621.987895" y="322.397656">600000</text>
     </g>
    </g>
    <g id="text_8">
     <text style="font-family:DejaVu Sans;font-size:15px;font-style:normal;font-weight:normal;text-anchor:middle;" transform="rotate(-0, 384.625, 340.914844)" x="384.625" y="340.914844">Episodes</text>
    </g>
   </g>
   <g id="matplotlib.axis_2">
    <g id="ytick_1">
     <g id="line2d_8">
      <defs>
       <path d="M 0 0 
L -3.5 0 
" id="m7cf847ac61" style="stroke:#000000;stroke-width:0.8;"/>
      </defs>
      <g>
       <use style="stroke:#000000;stroke-width:0.8;" x="65.45" xlink:href="#m7cf847ac61" y="290.918182"/>
      </g>
     </g>
     <g id="text_9">
      <text style="font-family:DejaVu Sans;font-size:15px;font-style:normal;font-weight:normal;text-anchor:end;" transform="rotate(-0, 58.45, 296.61701)" x="58.45" y="296.61701">0.0</text>
     </g>
    </g>
    <g id="ytick_2">
     <g id="line2d_9">
      <g>
       <use style="stroke:#000000;stroke-width:0.8;" x="65.45" xlink:href="#m7cf847ac61" y="241.55283"/>
      </g>
     </g>
     <g id="text_10">
      <text style="font-family:DejaVu Sans;font-size:15px;font-style:normal;font-weight:normal;text-anchor:end;" transform="rotate(-0, 58.45, 247.251658)" x="58.45" y="247.251658">0.1</text>
     </g>
    </g>
    <g id="ytick_3">
     <g id="line2d_10">
      <g>
       <use style="stroke:#000000;stroke-width:0.8;" x="65.45" xlink:href="#m7cf847ac61" y="192.187479"/>
      </g>
     </g>
     <g id="text_11">
      <text style="font-family:DejaVu Sans;font-size:15px;font-style:normal;font-weight:normal;text-anchor:end;" transform="rotate(-0, 58.45, 197.886307)" x="58.45" y="197.886307">0.2</text>
     </g>
    </g>
    <g id="ytick_4">
     <g id="line2d_11">
      <g>
       <use style="stroke:#000000;stroke-width:0.8;" x="65.45" xlink:href="#m7cf847ac61" y="142.822127"/>
      </g>
     </g>
     <g id="text_12">
      <text style="font-family:DejaVu Sans;font-size:15px;font-style:normal;font-weight:normal;text-anchor:end;" transform="rotate(-0, 58.45, 148.520955)" x="58.45" y="148.520955">0.3</text>
     </g>
    </g>
    <g id="ytick_5">
     <g id="line2d_12">
      <g>
       <use style="stroke:#000000;stroke-width:0.8;" x="65.45" xlink:href="#m7cf847ac61" y="93.456775"/>
      </g>
     </g>
     <g id="text_13">
      <text style="font-family:DejaVu Sans;font-size:15px;font-style:normal;font-weight:normal;text-anchor:end;" transform="rotate(-0, 58.45, 99.155603)" x="58.45" y="99.155603">0.4</text>
     </g>
    </g>
    <g id="ytick_6">
     <g id="line2d_13">
      <g>
       <use style="stroke:#000000;stroke-width:0.8;" x="65.45" xlink:href="#m7cf847ac61" y="44.091424"/>
      </g>
     </g>
     <g id="text_14">
      <text style="font-family:DejaVu Sans;font-size:15px;font-style:normal;font-weight:normal;text-anchor:end;" transform="rotate(-0, 58.45, 49.790252)" x="58.45" y="49.790252">0.5</text>
     </g>
    </g>
    <g id="text_15">
     <text style="font-family:DejaVu Sans;font-size:15px;font-style:normal;font-weight:normal;text-anchor:middle;" transform="rotate(-90, 27.475781, 160.1)" x="27.475781" y="160.1">Success Rate</text>
    </g>
   </g>
   <g id="line2d_14">
    <path clip-path="url(#p75c1256c1f)" d="M 94.465909 290.918182 
L 98.865592 290.918182 
L 99.30556 285.981647 
L 99.745529 290.918182 
L 102.385338 290.918182 
L 102.825307 285.981647 
L 103.265275 290.918182 
L 103.705243 290.918182 
L 104.145212 285.981647 
L 104.58518 290.918182 
L 105.025148 285.981647 
L 105.465116 290.918182 
L 105.905085 290.918182 
L 106.345053 285.981647 
L 106.785021 290.918182 
L 107.22499 281.045111 
L 107.664958 290.918182 
L 110.744736 290.918182 
L 111.184704 285.981647 
L 111.624673 290.918182 
L 113.384546 290.918182 
L 113.824514 281.045111 
L 114.264482 290.918182 
L 115.144419 290.918182 
L 115.584387 285.981647 
L 116.024356 290.918182 
L 117.34426 290.918182 
L 118.224197 281.045111 
L 118.664165 290.918182 
L 119.104134 290.918182 
L 119.544102 285.981647 
L 119.98407 290.918182 
L 120.424039 281.045111 
L 121.303975 290.918182 
L 121.743943 281.045111 
L 122.183912 285.981647 
L 123.503817 285.981647 
L 123.943785 290.918182 
L 124.383753 281.045111 
L 125.26369 290.918182 
L 126.143626 281.045111 
L 127.023563 290.918182 
L 127.9035 290.918182 
L 128.343468 285.981647 
L 128.783436 290.918182 
L 129.223404 285.981647 
L 129.663373 290.918182 
L 130.103341 285.981647 
L 130.983278 285.981647 
L 131.423246 276.108576 
L 131.863214 285.981647 
L 132.303183 285.981647 
L 132.743151 271.172041 
L 133.183119 271.172041 
L 133.623087 281.045111 
L 134.063056 285.981647 
L 134.503024 285.981647 
L 134.942992 281.045111 
L 135.382961 290.918182 
L 135.822929 281.045111 
L 136.262897 290.918182 
L 136.702865 281.045111 
L 137.142834 285.981647 
L 137.582802 276.108576 
L 138.02277 290.918182 
L 139.342675 261.298971 
L 139.782644 276.108576 
L 140.222612 271.172041 
L 140.66258 271.172041 
L 141.102548 276.108576 
L 141.542517 271.172041 
L 141.982485 271.172041 
L 142.422453 266.235506 
L 142.862422 276.108576 
L 143.30239 281.045111 
L 143.742358 266.235506 
L 144.182326 266.235506 
L 144.622295 271.172041 
L 145.062263 261.298971 
L 145.502231 231.67976 
L 145.9422 261.298971 
L 146.382168 261.298971 
L 146.822136 271.172041 
L 147.262105 261.298971 
L 147.702073 276.108576 
L 148.582009 246.489365 
L 149.021978 256.362436 
L 149.461946 251.425901 
L 149.901914 290.918182 
L 150.341883 241.55283 
L 150.781851 271.172041 
L 151.221819 251.425901 
L 151.661788 261.298971 
L 152.101756 231.67976 
L 152.541724 276.108576 
L 152.981692 261.298971 
L 153.421661 241.55283 
L 153.861629 246.489365 
L 154.301597 246.489365 
L 154.741566 241.55283 
L 155.181534 221.80669 
L 155.621502 221.80669 
L 156.06147 246.489365 
L 156.941407 236.616295 
L 157.381375 241.55283 
L 157.821344 206.997084 
L 158.261312 236.616295 
L 158.70128 256.362436 
L 159.141249 246.489365 
L 159.581217 197.124014 
L 160.021185 241.55283 
L 160.461153 231.67976 
L 160.901122 216.870154 
L 161.34109 226.743225 
L 161.781058 221.80669 
L 162.221027 241.55283 
L 162.660995 177.377873 
L 163.100963 211.933619 
L 163.9809 211.933619 
L 164.420868 221.80669 
L 164.860836 192.187479 
L 165.300805 216.870154 
L 165.740773 162.568268 
L 166.180741 167.504803 
L 166.62071 197.124014 
L 167.060678 182.314408 
L 167.500646 206.997084 
L 167.940614 216.870154 
L 168.380583 187.250943 
L 168.820551 206.997084 
L 169.260519 167.504803 
L 169.700488 142.822127 
L 170.140456 231.67976 
L 170.580424 216.870154 
L 171.020393 206.997084 
L 171.460361 187.250943 
L 171.900329 211.933619 
L 172.340297 211.933619 
L 172.780266 197.124014 
L 173.220234 192.187479 
L 173.660202 211.933619 
L 174.100171 202.060549 
L 174.540139 211.933619 
L 174.980107 172.441338 
L 175.420075 202.060549 
L 175.860044 202.060549 
L 176.300012 231.67976 
L 176.73998 182.314408 
L 177.179949 206.997084 
L 177.619917 216.870154 
L 178.059885 192.187479 
L 178.499854 187.250943 
L 178.939822 192.187479 
L 179.37979 152.695197 
L 179.819758 142.822127 
L 180.259727 182.314408 
L 180.699695 177.377873 
L 181.139663 167.504803 
L 181.579632 172.441338 
L 182.0196 182.314408 
L 182.459568 157.631732 
L 182.899536 172.441338 
L 183.339505 197.124014 
L 183.779473 142.822127 
L 184.219441 137.885592 
L 185.099378 192.187479 
L 185.539346 152.695197 
L 185.979315 187.250943 
L 186.419283 177.377873 
L 187.299219 197.124014 
L 187.739188 182.314408 
L 188.179156 197.124014 
L 188.619124 202.060549 
L 189.059093 202.060549 
L 189.499061 221.80669 
L 189.939029 177.377873 
L 190.378998 177.377873 
L 190.818966 182.314408 
L 191.258934 162.568268 
L 192.138871 221.80669 
L 192.578839 172.441338 
L 193.018807 172.441338 
L 193.458776 192.187479 
L 193.898744 182.314408 
L 194.338712 182.314408 
L 195.218649 202.060549 
L 195.658617 182.314408 
L 196.098585 211.933619 
L 196.538554 157.631732 
L 196.978522 206.997084 
L 197.41849 187.250943 
L 197.858459 221.80669 
L 198.298427 241.55283 
L 198.738395 226.743225 
L 199.178363 202.060549 
L 199.618332 187.250943 
L 200.0583 216.870154 
L 200.498268 172.441338 
L 200.938237 167.504803 
L 201.378205 211.933619 
L 201.818173 152.695197 
L 202.258141 167.504803 
L 202.69811 177.377873 
L 203.138078 172.441338 
L 203.578046 202.060549 
L 204.018015 202.060549 
L 204.457983 216.870154 
L 204.897951 211.933619 
L 205.33792 187.250943 
L 205.777888 197.124014 
L 206.217856 162.568268 
L 206.657824 206.997084 
L 207.097793 202.060549 
L 207.537761 182.314408 
L 207.977729 187.250943 
L 208.417698 167.504803 
L 208.857666 192.187479 
L 209.297634 187.250943 
L 209.737603 216.870154 
L 210.177571 202.060549 
L 210.617539 202.060549 
L 211.057507 128.012521 
L 211.497476 211.933619 
L 211.937444 187.250943 
L 212.377412 177.377873 
L 212.817381 187.250943 
L 213.257349 167.504803 
L 213.697317 192.187479 
L 214.137285 172.441338 
L 214.577254 142.822127 
L 215.017222 152.695197 
L 215.45719 187.250943 
L 215.897159 167.504803 
L 216.337127 157.631732 
L 216.777095 192.187479 
L 217.217064 167.504803 
L 217.657032 132.949057 
L 218.097 132.949057 
L 218.536968 147.758662 
L 218.976937 142.822127 
L 219.416905 147.758662 
L 219.856873 123.075986 
L 220.73681 177.377873 
L 221.176778 142.822127 
L 221.616747 128.012521 
L 222.056715 182.314408 
L 222.496683 197.124014 
L 222.936651 182.314408 
L 223.37662 103.329846 
L 223.816588 103.329846 
L 224.256556 137.885592 
L 224.696525 187.250943 
L 225.136493 182.314408 
L 225.576461 142.822127 
L 226.016429 142.822127 
L 226.456398 192.187479 
L 226.896366 142.822127 
L 227.336334 152.695197 
L 227.776303 137.885592 
L 228.216271 142.822127 
L 228.656239 152.695197 
L 229.096208 118.139451 
L 229.536176 142.822127 
L 229.976144 177.377873 
L 230.416112 177.377873 
L 230.856081 167.504803 
L 231.296049 167.504803 
L 231.736017 182.314408 
L 232.175986 157.631732 
L 232.615954 177.377873 
L 233.055922 226.743225 
L 233.935859 182.314408 
L 234.375827 142.822127 
L 234.815795 142.822127 
L 235.255764 137.885592 
L 235.695732 152.695197 
L 236.1357 108.266381 
L 236.575669 167.504803 
L 237.015637 177.377873 
L 237.455605 162.568268 
L 237.895573 123.075986 
L 238.335542 142.822127 
L 238.77551 202.060549 
L 239.215478 118.139451 
L 239.655447 192.187479 
L 240.095415 157.631732 
L 240.535383 182.314408 
L 240.975352 182.314408 
L 241.41532 167.504803 
L 241.855288 197.124014 
L 242.295256 152.695197 
L 242.735225 202.060549 
L 243.175193 177.377873 
L 243.615161 172.441338 
L 244.05513 187.250943 
L 244.495098 172.441338 
L 244.935066 182.314408 
L 245.375034 123.075986 
L 246.254971 192.187479 
L 246.694939 172.441338 
L 247.134908 172.441338 
L 247.574876 147.758662 
L 248.014844 172.441338 
L 248.454813 182.314408 
L 248.894781 172.441338 
L 249.334749 216.870154 
L 249.774717 172.441338 
L 250.214686 167.504803 
L 250.654654 152.695197 
L 251.094622 197.124014 
L 251.534591 152.695197 
L 251.974559 167.504803 
L 252.414527 152.695197 
L 252.854495 197.124014 
L 253.294464 177.377873 
L 253.734432 177.377873 
L 254.1744 202.060549 
L 254.614369 206.997084 
L 255.054337 197.124014 
L 255.494305 211.933619 
L 256.374242 202.060549 
L 256.81421 187.250943 
L 257.254178 187.250943 
L 257.694147 197.124014 
L 258.134115 182.314408 
L 258.574083 206.997084 
L 259.014052 202.060549 
L 259.45402 147.758662 
L 259.893988 206.997084 
L 260.333957 221.80669 
L 260.773925 202.060549 
L 261.213893 202.060549 
L 261.653861 192.187479 
L 262.09383 197.124014 
L 262.533798 118.139451 
L 262.973766 197.124014 
L 263.413735 216.870154 
L 263.853703 206.997084 
L 264.293671 167.504803 
L 264.733639 197.124014 
L 265.173608 177.377873 
L 265.613576 192.187479 
L 266.053544 202.060549 
L 266.493513 147.758662 
L 266.933481 211.933619 
L 267.373449 192.187479 
L 267.813418 211.933619 
L 268.253386 172.441338 
L 268.693354 221.80669 
L 269.133322 216.870154 
L 269.573291 182.314408 
L 270.013259 231.67976 
L 270.453227 202.060549 
L 270.893196 197.124014 
L 271.333164 211.933619 
L 271.773132 221.80669 
L 272.2131 251.425901 
L 272.653069 246.489365 
L 273.093037 192.187479 
L 273.533005 241.55283 
L 273.972974 226.743225 
L 274.412942 192.187479 
L 274.85291 241.55283 
L 275.292879 246.489365 
L 275.732847 241.55283 
L 276.172815 221.80669 
L 277.052752 202.060549 
L 277.49272 231.67976 
L 278.372657 202.060549 
L 278.812625 206.997084 
L 279.252593 221.80669 
L 280.13253 192.187479 
L 280.572498 221.80669 
L 281.012466 216.870154 
L 281.452435 261.298971 
L 281.892403 221.80669 
L 282.332371 271.172041 
L 282.77234 256.362436 
L 283.212308 271.172041 
L 283.652276 231.67976 
L 284.972181 261.298971 
L 285.412149 256.362436 
L 285.852118 256.362436 
L 286.292086 261.298971 
L 286.732054 261.298971 
L 287.172023 246.489365 
L 287.611991 241.55283 
L 288.051959 276.108576 
L 288.931896 241.55283 
L 289.371864 261.298971 
L 289.811832 231.67976 
L 290.251801 261.298971 
L 290.691769 226.743225 
L 291.131737 246.489365 
L 291.571705 241.55283 
L 292.011674 241.55283 
L 292.451642 271.172041 
L 292.89161 256.362436 
L 293.331579 236.616295 
L 293.771547 266.235506 
L 294.211515 236.616295 
L 294.651484 266.235506 
L 295.091452 246.489365 
L 295.971388 276.108576 
L 296.411357 256.362436 
L 296.851325 256.362436 
L 297.291293 276.108576 
L 297.731262 261.298971 
L 298.17123 285.981647 
L 298.611198 271.172041 
L 299.051167 266.235506 
L 299.491135 271.172041 
L 299.931103 266.235506 
L 300.371071 290.918182 
L 300.81104 276.108576 
L 301.251008 236.616295 
L 301.690976 271.172041 
L 302.130945 266.235506 
L 302.570913 266.235506 
L 303.010881 271.172041 
L 303.450849 271.172041 
L 303.890818 266.235506 
L 304.330786 281.045111 
L 304.770754 256.362436 
L 305.210723 276.108576 
L 305.650691 261.298971 
L 306.530628 271.172041 
L 306.970596 241.55283 
L 307.410564 256.362436 
L 307.850532 241.55283 
L 308.290501 246.489365 
L 308.730469 261.298971 
L 309.170437 271.172041 
L 309.610406 271.172041 
L 310.050374 256.362436 
L 310.490342 256.362436 
L 310.93031 271.172041 
L 311.370279 256.362436 
L 312.250215 290.918182 
L 312.690184 251.425901 
L 313.130152 276.108576 
L 313.57012 261.298971 
L 314.010089 281.045111 
L 314.890025 290.918182 
L 315.329993 266.235506 
L 315.769962 290.918182 
L 316.20993 285.981647 
L 316.649898 276.108576 
L 317.089867 285.981647 
L 317.529835 271.172041 
L 317.969803 285.981647 
L 318.409772 281.045111 
L 318.84974 290.918182 
L 319.289708 271.172041 
L 319.729676 285.981647 
L 320.169645 285.981647 
L 320.609613 276.108576 
L 321.049581 276.108576 
L 322.369486 290.918182 
L 322.809454 285.981647 
L 323.249423 290.918182 
L 323.689391 285.981647 
L 324.129359 285.981647 
L 324.569328 290.918182 
L 325.889233 290.918182 
L 326.329201 281.045111 
L 326.769169 281.045111 
L 327.209137 290.918182 
L 328.529042 290.918182 
L 328.969011 285.981647 
L 329.408979 285.981647 
L 329.848947 281.045111 
L 330.728884 290.918182 
L 331.168852 285.981647 
L 331.60882 285.981647 
L 332.048789 290.918182 
L 332.488757 290.918182 
L 332.928725 285.981647 
L 333.368694 290.918182 
L 339.088281 290.918182 
L 339.52825 285.981647 
L 339.968218 290.918182 
L 341.288123 290.918182 
L 341.728091 285.981647 
L 342.168059 290.918182 
L 342.608028 285.981647 
L 343.047996 290.918182 
L 343.927933 290.918182 
L 344.367901 285.981647 
L 344.807869 290.918182 
L 348.327616 290.918182 
L 348.767584 285.981647 
L 349.207552 285.981647 
L 349.647521 290.918182 
L 356.687013 290.918182 
L 357.126982 281.045111 
L 358.006918 290.918182 
L 376.045618 290.918182 
L 376.485587 285.981647 
L 376.925555 290.918182 
L 378.24546 290.918182 
L 378.685428 285.981647 
L 379.125396 285.981647 
L 379.565365 290.918182 
L 402.003748 290.918182 
L 402.443716 285.981647 
L 402.883684 290.918182 
L 409.923177 290.918182 
L 410.363145 285.981647 
L 410.803114 290.918182 
L 414.762828 290.918182 
L 415.202797 285.981647 
L 415.642765 290.918182 
L 423.122226 290.918182 
L 423.562194 285.981647 
L 424.002162 290.918182 
L 577.551098 290.918182 
L 577.991066 285.981647 
L 578.431034 290.918182 
L 674.784091 290.918182 
L 674.784091 290.918182 
" style="fill:none;stroke:#1f77b4;stroke-linecap:square;stroke-width:1.5;"/>
   </g>
   <g id="line2d_15">
    <path clip-path="url(#p75c1256c1f)" d="M 94.465909 290.918182 
L 102.385338 290.918182 
L 102.825307 285.981647 
L 103.265275 285.981647 
L 103.705243 290.918182 
L 104.145212 290.918182 
L 104.58518 285.981647 
L 105.025148 290.918182 
L 105.905085 290.918182 
L 106.345053 285.981647 
L 106.785021 290.918182 
L 107.22499 290.918182 
L 107.664958 271.172041 
L 108.104926 285.981647 
L 108.544895 290.918182 
L 111.624673 290.918182 
L 112.064641 281.045111 
L 112.504609 290.918182 
L 112.944578 281.045111 
L 113.384546 281.045111 
L 113.824514 285.981647 
L 114.264482 276.108576 
L 114.704451 285.981647 
L 115.144419 281.045111 
L 115.584387 285.981647 
L 118.664165 285.981647 
L 119.104134 281.045111 
L 119.544102 290.918182 
L 119.98407 285.981647 
L 120.424039 271.172041 
L 120.864007 290.918182 
L 121.303975 285.981647 
L 121.743943 285.981647 
L 122.183912 281.045111 
L 122.62388 281.045111 
L 123.063848 285.981647 
L 123.503817 281.045111 
L 123.943785 285.981647 
L 124.383753 285.981647 
L 124.823721 281.045111 
L 125.26369 281.045111 
L 125.703658 285.981647 
L 126.143626 281.045111 
L 126.583595 285.981647 
L 127.023563 285.981647 
L 127.463531 281.045111 
L 127.9035 281.045111 
L 128.343468 276.108576 
L 128.783436 285.981647 
L 129.223404 281.045111 
L 129.663373 281.045111 
L 130.103341 271.172041 
L 130.543309 266.235506 
L 130.983278 271.172041 
L 131.423246 266.235506 
L 131.863214 266.235506 
L 132.303183 281.045111 
L 132.743151 271.172041 
L 133.183119 256.362436 
L 133.623087 281.045111 
L 134.063056 266.235506 
L 134.503024 276.108576 
L 134.942992 256.362436 
L 135.382961 285.981647 
L 135.822929 271.172041 
L 136.262897 261.298971 
L 136.702865 276.108576 
L 137.142834 256.362436 
L 137.582802 266.235506 
L 138.02277 251.425901 
L 138.462739 246.489365 
L 138.902707 271.172041 
L 139.342675 251.425901 
L 139.782644 241.55283 
L 140.222612 261.298971 
L 140.66258 271.172041 
L 141.102548 236.616295 
L 141.542517 256.362436 
L 141.982485 221.80669 
L 142.422453 256.362436 
L 142.862422 251.425901 
L 143.30239 266.235506 
L 143.742358 216.870154 
L 144.182326 241.55283 
L 144.622295 226.743225 
L 145.062263 261.298971 
L 145.502231 226.743225 
L 145.9422 236.616295 
L 146.822136 197.124014 
L 147.262105 226.743225 
L 147.702073 221.80669 
L 148.582009 202.060549 
L 149.021978 236.616295 
L 149.461946 211.933619 
L 149.901914 256.362436 
L 150.341883 206.997084 
L 150.781851 231.67976 
L 151.221819 246.489365 
L 151.661788 226.743225 
L 152.101756 197.124014 
L 152.541724 202.060549 
L 152.981692 216.870154 
L 153.421661 197.124014 
L 153.861629 197.124014 
L 154.301597 172.441338 
L 154.741566 162.568268 
L 155.181534 226.743225 
L 155.621502 206.997084 
L 156.06147 216.870154 
L 156.501439 197.124014 
L 156.941407 236.616295 
L 157.821344 147.758662 
L 158.70128 216.870154 
L 159.141249 211.933619 
L 159.581217 182.314408 
L 160.021185 182.314408 
L 160.461153 211.933619 
L 160.901122 192.187479 
L 161.34109 162.568268 
L 161.781058 187.250943 
L 162.221027 177.377873 
L 162.660995 192.187479 
L 163.100963 132.949057 
L 163.9809 177.377873 
L 164.420868 132.949057 
L 164.860836 152.695197 
L 165.300805 142.822127 
L 165.740773 187.250943 
L 166.180741 172.441338 
L 166.62071 142.822127 
L 167.060678 172.441338 
L 167.500646 177.377873 
L 167.940614 157.631732 
L 168.380583 172.441338 
L 168.820551 142.822127 
L 169.260519 177.377873 
L 169.700488 152.695197 
L 170.140456 137.885592 
L 171.020393 128.012521 
L 171.460361 152.695197 
L 171.900329 142.822127 
L 172.340297 118.139451 
L 173.220234 172.441338 
L 173.660202 152.695197 
L 174.100171 142.822127 
L 174.540139 162.568268 
L 174.980107 147.758662 
L 176.300012 132.949057 
L 176.73998 152.695197 
L 177.179949 147.758662 
L 177.619917 157.631732 
L 178.059885 137.885592 
L 178.499854 132.949057 
L 178.939822 118.139451 
L 179.37979 123.075986 
L 179.819758 137.885592 
L 180.259727 147.758662 
L 180.699695 142.822127 
L 181.139663 118.139451 
L 181.579632 157.631732 
L 182.0196 88.52024 
L 182.459568 137.885592 
L 182.899536 128.012521 
L 183.779473 118.139451 
L 184.219441 177.377873 
L 184.65941 113.202916 
L 185.099378 123.075986 
L 185.539346 108.266381 
L 185.979315 123.075986 
L 186.419283 152.695197 
L 186.859251 123.075986 
L 187.299219 128.012521 
L 187.739188 142.822127 
L 188.179156 132.949057 
L 188.619124 118.139451 
L 189.059093 118.139451 
L 189.499061 123.075986 
L 189.939029 137.885592 
L 190.378998 187.250943 
L 190.818966 152.695197 
L 191.258934 147.758662 
L 191.698902 157.631732 
L 192.138871 103.329846 
L 192.578839 128.012521 
L 193.018807 93.456775 
L 193.458776 83.583705 
L 193.898744 132.949057 
L 194.338712 88.52024 
L 194.77868 123.075986 
L 195.218649 123.075986 
L 195.658617 103.329846 
L 196.098585 128.012521 
L 196.538554 73.710635 
L 197.41849 128.012521 
L 197.858459 197.124014 
L 198.298427 167.504803 
L 198.738395 167.504803 
L 199.178363 152.695197 
L 199.618332 162.568268 
L 200.0583 147.758662 
L 200.938237 137.885592 
L 201.378205 78.64717 
L 201.818173 123.075986 
L 202.258141 88.52024 
L 202.69811 123.075986 
L 203.138078 167.504803 
L 203.578046 152.695197 
L 204.018015 152.695197 
L 204.457983 137.885592 
L 204.897951 162.568268 
L 205.33792 137.885592 
L 205.777888 132.949057 
L 206.217856 113.202916 
L 206.657824 142.822127 
L 207.097793 157.631732 
L 207.537761 147.758662 
L 207.977729 132.949057 
L 208.857666 83.583705 
L 209.297634 132.949057 
L 209.737603 63.837564 
L 210.177571 162.568268 
L 210.617539 123.075986 
L 211.057507 123.075986 
L 211.497476 118.139451 
L 211.937444 118.139451 
L 212.817381 88.52024 
L 213.697317 88.52024 
L 214.137285 93.456775 
L 214.577254 58.901029 
L 215.017222 88.52024 
L 215.45719 73.710635 
L 215.897159 83.583705 
L 216.337127 78.64717 
L 216.777095 53.964494 
L 217.217064 68.774099 
L 217.657032 137.885592 
L 218.097 68.774099 
L 218.536968 68.774099 
L 218.976937 132.949057 
L 219.416905 63.837564 
L 219.856873 147.758662 
L 220.296842 113.202916 
L 220.73681 98.39331 
L 221.176778 78.64717 
L 221.616747 83.583705 
L 222.056715 108.266381 
L 222.496683 103.329846 
L 222.936651 118.139451 
L 223.37662 39.154889 
L 223.816588 98.39331 
L 224.256556 88.52024 
L 224.696525 29.281818 
L 225.576461 167.504803 
L 226.016429 108.266381 
L 226.456398 78.64717 
L 226.896366 142.822127 
L 227.336334 93.456775 
L 227.776303 108.266381 
L 228.216271 98.39331 
L 228.656239 83.583705 
L 229.096208 73.710635 
L 229.536176 98.39331 
L 229.976144 98.39331 
L 230.416112 123.075986 
L 230.856081 88.52024 
L 231.296049 113.202916 
L 231.736017 113.202916 
L 232.175986 123.075986 
L 232.615954 128.012521 
L 233.055922 73.710635 
L 233.49589 73.710635 
L 233.935859 68.774099 
L 234.375827 78.64717 
L 234.815795 78.64717 
L 235.255764 103.329846 
L 235.695732 118.139451 
L 236.1357 93.456775 
L 236.575669 108.266381 
L 237.015637 73.710635 
L 237.455605 123.075986 
L 237.895573 93.456775 
L 238.335542 103.329846 
L 238.77551 93.456775 
L 239.215478 58.901029 
L 239.655447 73.710635 
L 240.095415 58.901029 
L 240.535383 88.52024 
L 240.975352 93.456775 
L 241.41532 132.949057 
L 241.855288 128.012521 
L 242.295256 118.139451 
L 242.735225 63.837564 
L 243.175193 123.075986 
L 243.615161 137.885592 
L 244.05513 88.52024 
L 244.495098 147.758662 
L 244.935066 108.266381 
L 245.375034 93.456775 
L 245.815003 73.710635 
L 246.254971 132.949057 
L 246.694939 58.901029 
L 247.134908 63.837564 
L 247.574876 49.027959 
L 248.014844 73.710635 
L 248.454813 113.202916 
L 248.894781 83.583705 
L 249.334749 137.885592 
L 250.654654 53.964494 
L 251.094622 118.139451 
L 251.534591 78.64717 
L 251.974559 53.964494 
L 252.414527 93.456775 
L 252.854495 152.695197 
L 253.294464 88.52024 
L 253.734432 137.885592 
L 254.1744 93.456775 
L 254.614369 83.583705 
L 255.054337 83.583705 
L 255.494305 108.266381 
L 255.934274 182.314408 
L 256.81421 83.583705 
L 258.134115 142.822127 
L 259.014052 78.64717 
L 259.893988 152.695197 
L 260.333957 162.568268 
L 260.773925 113.202916 
L 261.213893 93.456775 
L 261.653861 137.885592 
L 262.09383 108.266381 
L 262.533798 93.456775 
L 262.973766 108.266381 
L 263.413735 103.329846 
L 263.853703 44.091424 
L 264.293671 113.202916 
L 265.173608 78.64717 
L 265.613576 93.456775 
L 266.053544 63.837564 
L 266.493513 132.949057 
L 266.933481 88.52024 
L 267.373449 93.456775 
L 267.813418 103.329846 
L 268.253386 137.885592 
L 268.693354 142.822127 
L 269.133322 152.695197 
L 269.573291 73.710635 
L 270.013259 113.202916 
L 270.453227 108.266381 
L 271.333164 162.568268 
L 271.773132 142.822127 
L 272.2131 162.568268 
L 272.653069 221.80669 
L 273.093037 192.187479 
L 273.533005 197.124014 
L 273.972974 118.139451 
L 274.412942 167.504803 
L 274.85291 137.885592 
L 275.292879 216.870154 
L 275.732847 216.870154 
L 276.172815 206.997084 
L 276.612783 152.695197 
L 277.052752 152.695197 
L 277.49272 197.124014 
L 277.932688 128.012521 
L 278.372657 172.441338 
L 278.812625 182.314408 
L 279.252593 172.441338 
L 279.692562 192.187479 
L 280.13253 157.631732 
L 280.572498 157.631732 
L 281.012466 202.060549 
L 281.452435 197.124014 
L 281.892403 246.489365 
L 282.332371 266.235506 
L 282.77234 202.060549 
L 283.212308 236.616295 
L 283.652276 197.124014 
L 284.092244 197.124014 
L 284.972181 206.997084 
L 285.412149 216.870154 
L 285.852118 216.870154 
L 286.732054 236.616295 
L 287.172023 231.67976 
L 287.611991 187.250943 
L 288.051959 226.743225 
L 288.491927 231.67976 
L 288.931896 202.060549 
L 289.371864 236.616295 
L 289.811832 162.568268 
L 290.251801 192.187479 
L 290.691769 167.504803 
L 291.131737 152.695197 
L 291.571705 202.060549 
L 292.011674 177.377873 
L 292.451642 221.80669 
L 292.89161 152.695197 
L 293.331579 162.568268 
L 293.771547 152.695197 
L 294.211515 187.250943 
L 294.651484 182.314408 
L 295.53142 221.80669 
L 295.971388 221.80669 
L 296.411357 211.933619 
L 296.851325 211.933619 
L 297.291293 236.616295 
L 297.731262 236.616295 
L 298.17123 241.55283 
L 298.611198 177.377873 
L 299.051167 236.616295 
L 299.491135 241.55283 
L 299.931103 211.933619 
L 300.371071 256.362436 
L 300.81104 221.80669 
L 301.251008 202.060549 
L 301.690976 271.172041 
L 302.130945 216.870154 
L 302.570913 266.235506 
L 303.010881 241.55283 
L 303.450849 256.362436 
L 303.890818 251.425901 
L 304.330786 216.870154 
L 304.770754 206.997084 
L 305.210723 271.172041 
L 306.090659 202.060549 
L 306.530628 197.124014 
L 306.970596 231.67976 
L 307.410564 236.616295 
L 307.850532 236.616295 
L 308.290501 202.060549 
L 308.730469 246.489365 
L 309.170437 226.743225 
L 309.610406 216.870154 
L 310.490342 271.172041 
L 310.93031 251.425901 
L 311.370279 281.045111 
L 312.250215 246.489365 
L 312.690184 251.425901 
L 313.130152 261.298971 
L 313.57012 256.362436 
L 314.010089 261.298971 
L 314.450057 276.108576 
L 314.890025 276.108576 
L 315.329993 256.362436 
L 315.769962 251.425901 
L 316.20993 266.235506 
L 316.649898 266.235506 
L 317.089867 271.172041 
L 317.529835 285.981647 
L 317.969803 281.045111 
L 318.409772 290.918182 
L 318.84974 285.981647 
L 319.289708 261.298971 
L 319.729676 281.045111 
L 320.169645 281.045111 
L 320.609613 266.235506 
L 321.049581 281.045111 
L 321.48955 241.55283 
L 321.929518 276.108576 
L 322.369486 271.172041 
L 322.809454 276.108576 
L 323.689391 276.108576 
L 324.129359 285.981647 
L 324.569328 285.981647 
L 325.009296 290.918182 
L 325.449264 290.918182 
L 325.889233 285.981647 
L 326.329201 276.108576 
L 326.769169 285.981647 
L 327.209137 285.981647 
L 327.649106 266.235506 
L 328.089074 281.045111 
L 328.529042 276.108576 
L 328.969011 285.981647 
L 330.288916 285.981647 
L 330.728884 290.918182 
L 332.048789 290.918182 
L 332.488757 276.108576 
L 332.928725 290.918182 
L 333.368694 285.981647 
L 333.808662 290.918182 
L 334.688598 290.918182 
L 335.128567 285.981647 
L 336.008503 285.981647 
L 336.448472 290.918182 
L 338.208345 290.918182 
L 338.648313 285.981647 
L 339.088281 290.918182 
L 339.52825 285.981647 
L 339.968218 290.918182 
L 340.408186 290.918182 
L 340.848155 285.981647 
L 341.288123 290.918182 
L 341.728091 285.981647 
L 342.168059 290.918182 
L 349.207552 290.918182 
L 349.647521 285.981647 
L 350.087489 290.918182 
L 352.28733 290.918182 
L 352.727299 285.981647 
L 353.167267 285.981647 
L 353.607235 290.918182 
L 354.047203 285.981647 
L 354.487172 290.918182 
L 354.92714 285.981647 
L 355.367108 290.918182 
L 362.406601 290.918182 
L 362.846569 285.981647 
L 363.286538 290.918182 
L 364.606443 290.918182 
L 365.046411 285.981647 
L 365.486379 290.918182 
L 375.60565 290.918182 
L 376.045618 285.981647 
L 376.485587 285.981647 
L 376.925555 290.918182 
L 390.124604 290.918182 
L 390.564572 285.981647 
L 391.00454 285.981647 
L 391.444509 290.918182 
L 394.524287 290.918182 
L 394.964255 285.981647 
L 395.404223 290.918182 
L 397.164096 290.918182 
L 397.604065 285.981647 
L 398.044033 290.918182 
L 398.484001 290.918182 
L 398.92397 285.981647 
L 399.363938 285.981647 
L 399.803906 290.918182 
L 444.680672 290.918182 
L 445.120641 285.981647 
L 445.560609 290.918182 
L 482.077977 290.918182 
L 482.517946 285.981647 
L 482.957914 290.918182 
L 515.955536 290.918182 
L 516.395505 285.981647 
L 516.835473 290.918182 
L 674.784091 290.918182 
L 674.784091 290.918182 
" style="fill:none;stroke:#ff7f0e;stroke-linecap:square;stroke-width:1.5;"/>
   </g>
   <g id="patch_3">
    <path d="M 65.45 304 
L 65.45 16.2 
" style="fill:none;stroke:#000000;stroke-linecap:square;stroke-linejoin:miter;stroke-width:0.8;"/>
   </g>
   <g id="patch_4">
    <path d="M 703.8 304 
L 703.8 16.2 
" style="fill:none;stroke:#000000;stroke-linecap:square;stroke-linejoin:miter;stroke-width:0.8;"/>
   </g>
   <g id="patch_5">
    <path d="M 65.45 304 
L 703.8 304 
" style="fill:none;stroke:#000000;stroke-linecap:square;stroke-linejoin:miter;stroke-width:0.8;"/>
   </g>
   <g id="patch_6">
    <path d="M 65.45 16.2 
L 703.8 16.2 
" style="fill:none;stroke:#000000;stroke-linecap:square;stroke-linejoin:miter;stroke-width:0.8;"/>
   </g>
   <g id="legend_1">
    <g id="patch_7">
     <path d="M 472.771875 72.234375 
L 693.3 72.234375 
Q 696.3 72.234375 696.3 69.234375 
L 696.3 26.7 
Q 696.3 23.7 693.3 23.7 
L 472.771875 23.7 
Q 469.771875 23.7 469.771875 26.7 
L 469.771875 69.234375 
Q 469.771875 72.234375 472.771875 72.234375 
z
" style="fill:#ffffff;opacity:0.8;stroke:#cccccc;stroke-linejoin:miter;"/>
    </g>
    <g id="line2d_16">
     <path d="M 475.771875 35.847656 
L 505.771875 35.847656 
" style="fill:none;stroke:#1f77b4;stroke-linecap:square;stroke-width:1.5;"/>
    </g>
    <g id="line2d_17"/>
    <g id="text_16">
     <text style="font-family:DejaVu Sans;font-size:15px;font-style:normal;font-weight:normal;text-anchor:start;" transform="rotate(-0, 517.771875, 41.097656)" x="517.771875" y="41.097656">training success rate</text>
    </g>
    <g id="line2d_18">
     <path d="M 475.771875 57.864844 
L 505.771875 57.864844 
" style="fill:none;stroke:#ff7f0e;stroke-linecap:square;stroke-width:1.5;"/>
    </g>
    <g id="line2d_19"/>
    <g id="text_17">
     <text style="font-family:DejaVu Sans;font-size:15px;font-style:normal;font-weight:normal;text-anchor:start;" transform="rotate(-0, 517.771875, 63.114844)" x="517.771875" y="63.114844">validation success rate</text>
    </g>
   </g>
  </g>
 </g>
 <defs>
  <clipPath id="p75c1256c1f">
   <rect height="287.8" width="638.35" x="65.45" y="16.2"/>
  </clipPath>
 </defs>
</svg>
