<?xml version="1.0" encoding="utf-8" standalone="no"?>
<!DOCTYPE svg PUBLIC "-//W3C//DTD SVG 1.1//EN"
  "http://www.w3.org/Graphics/SVG/1.1/DTD/svg11.dtd">
<!-- Created with matplotlib (https://matplotlib.org/) -->
<svg height="360pt" version="1.1" viewBox="0 0 720 360" width="720pt" xmlns="http://www.w3.org/2000/svg" xmlns:xlink="http://www.w3.org/1999/xlink">
 <defs>
  <style type="text/css">
*{stroke-linecap:butt;stroke-linejoin:round;}
  </style>
 </defs>
 <g id="figure_1">
  <g id="patch_1">
   <path d="M 0 360 
L 720 360 
L 720 0 
L 0 0 
z
" style="fill:#ffffff;"/>
  </g>
  <g id="axes_1">
   <g id="patch_2">
    <path d="M 74.99 304 
L 703.8 304 
L 703.8 16.2 
L 74.99 16.2 
z
" style="fill:#ffffff;"/>
   </g>
   <g id="matplotlib.axis_1">
    <g id="xtick_1">
     <g id="line2d_1">
      <defs>
       <path d="M 0 0 
L 0 3.5 
" id="m64b07f16a3" style="stroke:#000000;stroke-width:0.8;"/>
      </defs>
      <g>
       <use style="stroke:#000000;stroke-width:0.8;" x="100.209652" xlink:href="#m64b07f16a3" y="304"/>
      </g>
     </g>
     <g id="text_1">
      <text style="font-family:DejaVu Sans;font-size:15px;font-style:normal;font-weight:normal;text-anchor:middle;" transform="rotate(-0, 100.209652, 322.397656)" x="100.209652" y="322.397656">0</text>
     </g>
    </g>
    <g id="xtick_2">
     <g id="line2d_2">
      <g>
       <use style="stroke:#000000;stroke-width:0.8;" x="234.714465" xlink:href="#m64b07f16a3" y="304"/>
      </g>
     </g>
     <g id="text_2">
      <text style="font-family:DejaVu Sans;font-size:15px;font-style:normal;font-weight:normal;text-anchor:middle;" transform="rotate(-0, 234.714465, 322.397656)" x="234.714465" y="322.397656">20000</text>
     </g>
    </g>
    <g id="xtick_3">
     <g id="line2d_3">
      <g>
       <use style="stroke:#000000;stroke-width:0.8;" x="369.219278" xlink:href="#m64b07f16a3" y="304"/>
      </g>
     </g>
     <g id="text_3">
      <text style="font-family:DejaVu Sans;font-size:15px;font-style:normal;font-weight:normal;text-anchor:middle;" transform="rotate(-0, 369.219278, 322.397656)" x="369.219278" y="322.397656">40000</text>
     </g>
    </g>
    <g id="xtick_4">
     <g id="line2d_4">
      <g>
       <use style="stroke:#000000;stroke-width:0.8;" x="503.724091" xlink:href="#m64b07f16a3" y="304"/>
      </g>
     </g>
     <g id="text_4">
      <text style="font-family:DejaVu Sans;font-size:15px;font-style:normal;font-weight:normal;text-anchor:middle;" transform="rotate(-0, 503.724091, 322.397656)" x="503.724091" y="322.397656">60000</text>
     </g>
    </g>
    <g id="xtick_5">
     <g id="line2d_5">
      <g>
       <use style="stroke:#000000;stroke-width:0.8;" x="638.228904" xlink:href="#m64b07f16a3" y="304"/>
      </g>
     </g>
     <g id="text_5">
      <text style="font-family:DejaVu Sans;font-size:15px;font-style:normal;font-weight:normal;text-anchor:middle;" transform="rotate(-0, 638.228904, 322.397656)" x="638.228904" y="322.397656">80000</text>
     </g>
    </g>
    <g id="text_6">
     <text style="font-family:DejaVu Sans;font-size:15px;font-style:normal;font-weight:normal;text-anchor:middle;" transform="rotate(-0, 389.395, 340.914844)" x="389.395" y="340.914844">Episodes</text>
    </g>
   </g>
   <g id="matplotlib.axis_2">
    <g id="ytick_1">
     <g id="line2d_6">
      <defs>
       <path d="M 0 0 
L -3.5 0 
" id="m0e82a8d522" style="stroke:#000000;stroke-width:0.8;"/>
      </defs>
      <g>
       <use style="stroke:#000000;stroke-width:0.8;" x="74.99" xlink:href="#m0e82a8d522" y="274.368669"/>
      </g>
     </g>
     <g id="text_7">
      <text style="font-family:DejaVu Sans;font-size:15px;font-style:normal;font-weight:normal;text-anchor:end;" transform="rotate(-0, 67.99, 280.067498)" x="67.99" y="280.067498">0.02</text>
     </g>
    </g>
    <g id="ytick_2">
     <g id="line2d_7">
      <g>
       <use style="stroke:#000000;stroke-width:0.8;" x="74.99" xlink:href="#m0e82a8d522" y="219.305896"/>
      </g>
     </g>
     <g id="text_8">
      <text style="font-family:DejaVu Sans;font-size:15px;font-style:normal;font-weight:normal;text-anchor:end;" transform="rotate(-0, 67.99, 225.004724)" x="67.99" y="225.004724">0.04</text>
     </g>
    </g>
    <g id="ytick_3">
     <g id="line2d_8">
      <g>
       <use style="stroke:#000000;stroke-width:0.8;" x="74.99" xlink:href="#m0e82a8d522" y="164.243123"/>
      </g>
     </g>
     <g id="text_9">
      <text style="font-family:DejaVu Sans;font-size:15px;font-style:normal;font-weight:normal;text-anchor:end;" transform="rotate(-0, 67.99, 169.941951)" x="67.99" y="169.941951">0.06</text>
     </g>
    </g>
    <g id="ytick_4">
     <g id="line2d_9">
      <g>
       <use style="stroke:#000000;stroke-width:0.8;" x="74.99" xlink:href="#m0e82a8d522" y="109.180349"/>
      </g>
     </g>
     <g id="text_10">
      <text style="font-family:DejaVu Sans;font-size:15px;font-style:normal;font-weight:normal;text-anchor:end;" transform="rotate(-0, 67.99, 114.879177)" x="67.99" y="114.879177">0.08</text>
     </g>
    </g>
    <g id="ytick_5">
     <g id="line2d_10">
      <g>
       <use style="stroke:#000000;stroke-width:0.8;" x="74.99" xlink:href="#m0e82a8d522" y="54.117576"/>
      </g>
     </g>
     <g id="text_11">
      <text style="font-family:DejaVu Sans;font-size:15px;font-style:normal;font-weight:normal;text-anchor:end;" transform="rotate(-0, 67.99, 59.816404)" x="67.99" y="59.816404">0.10</text>
     </g>
    </g>
    <g id="text_12">
     <text style="font-family:DejaVu Sans;font-size:15px;font-style:normal;font-weight:normal;text-anchor:middle;" transform="rotate(-90, 27.472031, 160.1)" x="27.472031" y="160.1">Critic Loss</text>
    </g>
   </g>
   <g id="line2d_11">
    <path clip-path="url(#p13cd114db1)" d="M 103.572273 163.425837 
L 106.934893 99.093875 
L 110.297513 29.281818 
L 113.660134 53.516207 
L 117.022754 93.499485 
L 120.385374 65.355971 
L 123.747995 81.547683 
L 127.110615 96.72817 
L 130.473235 108.382603 
L 133.835856 81.094931 
L 137.198476 66.138973 
L 140.561096 40.668051 
L 143.923717 70.060652 
L 147.286337 91.064879 
L 150.648957 76.768172 
L 154.011578 108.195058 
L 157.374198 138.571663 
L 160.736818 78.485969 
L 164.099439 116.636026 
L 167.462059 119.302772 
L 170.824679 151.188809 
L 174.187299 156.074984 
L 177.54992 112.136695 
L 180.91254 143.726204 
L 184.27516 149.725838 
L 187.637781 159.522681 
L 191.000401 162.649091 
L 194.363021 115.355145 
L 197.725642 189.069249 
L 201.088262 160.630571 
L 204.450882 215.148121 
L 207.813503 177.777282 
L 211.176123 195.88928 
L 214.538743 145.537148 
L 217.901364 146.95331 
L 221.263984 186.495179 
L 224.626604 154.185354 
L 227.989225 168.122416 
L 231.351845 179.190561 
L 234.714465 177.375248 
L 238.077086 146.387042 
L 241.439706 195.618946 
L 244.802326 178.616581 
L 254.890187 225.149925 
L 258.252807 213.825866 
L 261.615428 186.768826 
L 264.978048 232.324473 
L 268.340668 221.754709 
L 271.703289 214.415487 
L 275.065909 223.961893 
L 278.428529 230.227051 
L 281.79115 244.967782 
L 285.15377 236.847414 
L 288.51639 243.54676 
L 291.879011 255.815254 
L 295.241631 247.25035 
L 298.604251 257.854005 
L 301.966872 234.396634 
L 305.329492 244.446622 
L 308.692112 256.415475 
L 312.054733 251.306159 
L 315.417353 244.213923 
L 318.779973 260.400168 
L 322.142594 261.659199 
L 325.505214 266.78297 
L 328.867834 257.30805 
L 332.230455 259.897351 
L 335.593075 235.353644 
L 338.955695 255.320965 
L 342.318316 263.210199 
L 345.680936 263.773984 
L 349.043556 246.588468 
L 352.406176 242.403066 
L 355.768797 268.123302 
L 359.131417 272.766959 
L 362.494037 251.714973 
L 365.856658 273.188403 
L 369.219278 261.805514 
L 372.581898 259.980047 
L 375.944519 245.194425 
L 379.307139 249.814307 
L 382.669759 257.982326 
L 386.03238 265.652353 
L 389.395 277.303043 
L 392.75762 263.173686 
L 396.120241 272.496876 
L 399.482861 268.266823 
L 402.845481 267.294957 
L 406.208102 281.802291 
L 409.570722 266.147996 
L 412.933342 254.444056 
L 416.295963 252.89101 
L 419.658583 281.520132 
L 423.021203 279.852508 
L 426.383824 270.034373 
L 429.746444 267.281352 
L 433.109064 255.828777 
L 436.471684 283.526109 
L 439.834305 278.432573 
L 443.196925 272.452697 
L 446.559545 275.057352 
L 449.922166 274.181889 
L 453.284786 258.623926 
L 456.647406 285.378191 
L 460.010027 284.075115 
L 463.372647 277.601971 
L 466.735267 276.146246 
L 470.097888 279.017004 
L 473.460508 268.310545 
L 476.823128 260.695174 
L 480.185749 279.503232 
L 483.548369 282.620555 
L 486.910989 283.648876 
L 490.27361 290.918182 
L 493.63623 282.911258 
L 496.99885 271.182872 
L 500.361471 265.668097 
L 503.724091 273.347457 
L 507.086711 268.322822 
L 510.449332 280.125899 
L 513.811952 279.56961 
L 517.174572 286.081867 
L 520.537193 283.714742 
L 523.899813 287.406242 
L 527.262433 279.526514 
L 530.625053 274.956307 
L 533.987674 284.904886 
L 537.350294 276.6241 
L 540.712914 278.509007 
L 544.075535 281.340853 
L 547.438155 275.162463 
L 550.800775 276.884352 
L 554.163396 252.628794 
L 557.526016 287.250555 
L 560.888636 255.539597 
L 564.251257 262.447616 
L 567.613877 272.113303 
L 570.976497 257.473642 
L 574.339118 278.447773 
L 577.701738 278.287385 
L 581.064358 277.457517 
L 584.426979 275.337967 
L 587.789599 256.467038 
L 591.152219 263.764318 
L 594.51484 273.449342 
L 597.87746 273.053226 
L 601.24008 281.499076 
L 604.602701 277.920397 
L 607.965321 281.550839 
L 611.327941 284.711238 
L 614.690561 278.260032 
L 618.053182 242.932041 
L 621.415802 272.591156 
L 624.778422 277.795517 
L 628.141043 274.340733 
L 631.503663 275.071182 
L 634.866283 276.639884 
L 638.228904 275.6959 
L 641.591524 272.852327 
L 644.954144 262.650464 
L 648.316765 244.537389 
L 651.679385 264.27313 
L 655.042005 256.193545 
L 658.404626 255.499659 
L 661.767246 276.23206 
L 665.129866 262.386171 
L 668.492487 260.231263 
L 671.855107 251.437327 
L 675.217727 275.21357 
L 675.217727 275.21357 
" style="fill:none;stroke:#1f77b4;stroke-linecap:square;stroke-width:1.5;"/>
   </g>
   <g id="patch_3">
    <path d="M 74.99 304 
L 74.99 16.2 
" style="fill:none;stroke:#000000;stroke-linecap:square;stroke-linejoin:miter;stroke-width:0.8;"/>
   </g>
   <g id="patch_4">
    <path d="M 703.8 304 
L 703.8 16.2 
" style="fill:none;stroke:#000000;stroke-linecap:square;stroke-linejoin:miter;stroke-width:0.8;"/>
   </g>
   <g id="patch_5">
    <path d="M 74.99 304 
L 703.8 304 
" style="fill:none;stroke:#000000;stroke-linecap:square;stroke-linejoin:miter;stroke-width:0.8;"/>
   </g>
   <g id="patch_6">
    <path d="M 74.99 16.2 
L 703.8 16.2 
" style="fill:none;stroke:#000000;stroke-linecap:square;stroke-linejoin:miter;stroke-width:0.8;"/>
   </g>
  </g>
 </g>
 <defs>
  <clipPath id="p13cd114db1">
   <rect height="287.8" width="628.81" x="74.99" y="16.2"/>
  </clipPath>
 </defs>
</svg>
