<?xml version="1.0" encoding="utf-8" standalone="no"?>
<!DOCTYPE svg PUBLIC "-//W3C//DTD SVG 1.1//EN"
  "http://www.w3.org/Graphics/SVG/1.1/DTD/svg11.dtd">
<!-- Created with matplotlib (https://matplotlib.org/) -->
<svg height="360pt" version="1.1" viewBox="0 0 720 360" width="720pt" xmlns="http://www.w3.org/2000/svg" xmlns:xlink="http://www.w3.org/1999/xlink">
 <defs>
  <style type="text/css">
*{stroke-linecap:butt;stroke-linejoin:round;}
  </style>
 </defs>
 <g id="figure_1">
  <g id="patch_1">
   <path d="M 0 360 
L 720 360 
L 720 0 
L 0 0 
z
" style="fill:#ffffff;"/>
  </g>
  <g id="axes_1">
   <g id="patch_2">
    <path d="M 84.53 304 
L 703.8 304 
L 703.8 16.2 
L 84.53 16.2 
z
" style="fill:#ffffff;"/>
   </g>
   <g id="matplotlib.axis_1">
    <g id="xtick_1">
     <g id="line2d_1">
      <defs>
       <path d="M 0 0 
L 0 3.5 
" id="mb4a31b5a6a" style="stroke:#000000;stroke-width:0.8;"/>
      </defs>
      <g>
       <use style="stroke:#000000;stroke-width:0.8;" x="109.367032" xlink:href="#mb4a31b5a6a" y="304"/>
      </g>
     </g>
     <g id="text_1">
      <text style="font-family:DejaVu Sans;font-size:15px;font-style:normal;font-weight:normal;text-anchor:middle;" transform="rotate(-0, 109.367032, 322.397656)" x="109.367032" y="322.397656">0</text>
     </g>
    </g>
    <g id="xtick_2">
     <g id="line2d_2">
      <g>
       <use style="stroke:#000000;stroke-width:0.8;" x="241.831203" xlink:href="#mb4a31b5a6a" y="304"/>
      </g>
     </g>
     <g id="text_2">
      <text style="font-family:DejaVu Sans;font-size:15px;font-style:normal;font-weight:normal;text-anchor:middle;" transform="rotate(-0, 241.831203, 322.397656)" x="241.831203" y="322.397656">20000</text>
     </g>
    </g>
    <g id="xtick_3">
     <g id="line2d_3">
      <g>
       <use style="stroke:#000000;stroke-width:0.8;" x="374.295374" xlink:href="#mb4a31b5a6a" y="304"/>
      </g>
     </g>
     <g id="text_3">
      <text style="font-family:DejaVu Sans;font-size:15px;font-style:normal;font-weight:normal;text-anchor:middle;" transform="rotate(-0, 374.295374, 322.397656)" x="374.295374" y="322.397656">40000</text>
     </g>
    </g>
    <g id="xtick_4">
     <g id="line2d_4">
      <g>
       <use style="stroke:#000000;stroke-width:0.8;" x="506.759545" xlink:href="#mb4a31b5a6a" y="304"/>
      </g>
     </g>
     <g id="text_4">
      <text style="font-family:DejaVu Sans;font-size:15px;font-style:normal;font-weight:normal;text-anchor:middle;" transform="rotate(-0, 506.759545, 322.397656)" x="506.759545" y="322.397656">60000</text>
     </g>
    </g>
    <g id="xtick_5">
     <g id="line2d_5">
      <g>
       <use style="stroke:#000000;stroke-width:0.8;" x="639.223717" xlink:href="#mb4a31b5a6a" y="304"/>
      </g>
     </g>
     <g id="text_5">
      <text style="font-family:DejaVu Sans;font-size:15px;font-style:normal;font-weight:normal;text-anchor:middle;" transform="rotate(-0, 639.223717, 322.397656)" x="639.223717" y="322.397656">80000</text>
     </g>
    </g>
    <g id="text_6">
     <text style="font-family:DejaVu Sans;font-size:15px;font-style:normal;font-weight:normal;text-anchor:middle;" transform="rotate(-0, 394.165, 340.914844)" x="394.165" y="340.914844">Episodes</text>
    </g>
   </g>
   <g id="matplotlib.axis_2">
    <g id="ytick_1">
     <g id="line2d_6">
      <defs>
       <path d="M 0 0 
L -3.5 0 
" id="m298bc50409" style="stroke:#000000;stroke-width:0.8;"/>
      </defs>
      <g>
       <use style="stroke:#000000;stroke-width:0.8;" x="84.53" xlink:href="#m298bc50409" y="278.155231"/>
      </g>
     </g>
     <g id="text_7">
      <text style="font-family:DejaVu Sans;font-size:15px;font-style:normal;font-weight:normal;text-anchor:end;" transform="rotate(-0, 77.53, 283.854059)" x="77.53" y="283.854059">0.002</text>
     </g>
    </g>
    <g id="ytick_2">
     <g id="line2d_7">
      <g>
       <use style="stroke:#000000;stroke-width:0.8;" x="84.53" xlink:href="#m298bc50409" y="240.385438"/>
      </g>
     </g>
     <g id="text_8">
      <text style="font-family:DejaVu Sans;font-size:15px;font-style:normal;font-weight:normal;text-anchor:end;" transform="rotate(-0, 77.53, 246.084266)" x="77.53" y="246.084266">0.003</text>
     </g>
    </g>
    <g id="ytick_3">
     <g id="line2d_8">
      <g>
       <use style="stroke:#000000;stroke-width:0.8;" x="84.53" xlink:href="#m298bc50409" y="202.615645"/>
      </g>
     </g>
     <g id="text_9">
      <text style="font-family:DejaVu Sans;font-size:15px;font-style:normal;font-weight:normal;text-anchor:end;" transform="rotate(-0, 77.53, 208.314474)" x="77.53" y="208.314474">0.004</text>
     </g>
    </g>
    <g id="ytick_4">
     <g id="line2d_9">
      <g>
       <use style="stroke:#000000;stroke-width:0.8;" x="84.53" xlink:href="#m298bc50409" y="164.845853"/>
      </g>
     </g>
     <g id="text_10">
      <text style="font-family:DejaVu Sans;font-size:15px;font-style:normal;font-weight:normal;text-anchor:end;" transform="rotate(-0, 77.53, 170.544681)" x="77.53" y="170.544681">0.005</text>
     </g>
    </g>
    <g id="ytick_5">
     <g id="line2d_10">
      <g>
       <use style="stroke:#000000;stroke-width:0.8;" x="84.53" xlink:href="#m298bc50409" y="127.07606"/>
      </g>
     </g>
     <g id="text_11">
      <text style="font-family:DejaVu Sans;font-size:15px;font-style:normal;font-weight:normal;text-anchor:end;" transform="rotate(-0, 77.53, 132.774888)" x="77.53" y="132.774888">0.006</text>
     </g>
    </g>
    <g id="ytick_6">
     <g id="line2d_11">
      <g>
       <use style="stroke:#000000;stroke-width:0.8;" x="84.53" xlink:href="#m298bc50409" y="89.306267"/>
      </g>
     </g>
     <g id="text_12">
      <text style="font-family:DejaVu Sans;font-size:15px;font-style:normal;font-weight:normal;text-anchor:end;" transform="rotate(-0, 77.53, 95.005095)" x="77.53" y="95.005095">0.007</text>
     </g>
    </g>
    <g id="ytick_7">
     <g id="line2d_12">
      <g>
       <use style="stroke:#000000;stroke-width:0.8;" x="84.53" xlink:href="#m298bc50409" y="51.536474"/>
      </g>
     </g>
     <g id="text_13">
      <text style="font-family:DejaVu Sans;font-size:15px;font-style:normal;font-weight:normal;text-anchor:end;" transform="rotate(-0, 77.53, 57.235302)" x="77.53" y="57.235302">0.008</text>
     </g>
    </g>
    <g id="text_14">
     <text style="font-family:DejaVu Sans;font-size:15px;font-style:normal;font-weight:normal;text-anchor:middle;" transform="rotate(-90, 27.468281, 160.1)" x="27.468281" y="160.1">Entropy Coefficient</text>
    </g>
   </g>
   <g id="line2d_13">
    <path clip-path="url(#pc888191875)" d="M 112.678636 39.49717 
L 115.990241 29.281818 
L 119.301845 65.228118 
L 122.613449 86.469255 
L 129.236658 118.23056 
L 132.548262 128.179384 
L 135.859866 135.545913 
L 139.171471 140.659181 
L 142.483075 146.672846 
L 145.794679 157.539549 
L 149.106283 162.692461 
L 152.417888 168.874443 
L 155.729492 169.948608 
L 159.041096 179.64508 
L 162.352701 186.29877 
L 165.664305 189.826733 
L 168.975909 195.381441 
L 172.287513 195.706167 
L 175.599118 199.224545 
L 178.910722 202.480967 
L 182.222326 209.670324 
L 185.53393 209.696838 
L 188.845535 212.266839 
L 192.157139 215.119637 
L 195.468743 213.998617 
L 198.780348 217.213849 
L 202.091952 217.062004 
L 205.403556 221.668898 
L 208.71516 225.807892 
L 212.026765 228.326229 
L 215.338369 229.270059 
L 218.649973 229.768571 
L 221.961578 230.547602 
L 225.273182 234.149162 
L 228.584786 236.325862 
L 235.207995 233.877059 
L 238.519599 235.765255 
L 241.831203 237.901705 
L 245.142807 242.215479 
L 248.454412 248.414354 
L 251.766016 250.462328 
L 255.07762 255.917708 
L 258.389225 256.640308 
L 261.700829 260.080534 
L 265.012433 261.283926 
L 268.324037 262.654219 
L 271.635642 262.770397 
L 274.947246 267.648954 
L 278.25885 268.864403 
L 281.570455 269.711825 
L 284.882059 268.47804 
L 288.193663 271.317128 
L 291.505267 270.393516 
L 294.816872 272.058099 
L 298.128476 271.531587 
L 301.44008 273.167862 
L 304.751684 274.588167 
L 308.063289 274.189668 
L 311.374893 277.074907 
L 314.686497 276.21571 
L 317.998102 278.632151 
L 321.309706 280.685559 
L 324.62131 280.270137 
L 327.932914 278.569696 
L 331.244519 279.957902 
L 334.556123 280.774835 
L 337.867727 281.8237 
L 341.179332 283.381587 
L 344.490936 283.336109 
L 347.80254 282.301419 
L 351.114144 282.690891 
L 354.425749 282.899317 
L 357.737353 284.295895 
L 361.048957 284.403863 
L 364.360561 283.513496 
L 367.672166 283.482036 
L 370.98377 284.495813 
L 374.295374 282.687338 
L 377.606979 286.079118 
L 380.918583 283.589256 
L 384.230187 283.479015 
L 387.541791 283.224904 
L 390.853396 283.627017 
L 394.165 283.5831 
L 397.476604 284.550929 
L 400.788209 283.749728 
L 404.099813 286.102514 
L 407.411417 285.114327 
L 410.723021 287.888872 
L 414.034626 285.906048 
L 417.34623 284.770919 
L 420.657834 286.51102 
L 423.969439 286.836419 
L 427.281043 287.708006 
L 430.592647 287.741951 
L 433.904251 288.383044 
L 437.215856 287.755472 
L 440.52746 287.330174 
L 443.839064 286.308412 
L 447.150668 287.502953 
L 450.462273 288.329238 
L 453.773877 287.93752 
L 457.085481 288.89393 
L 460.397086 288.94789 
L 463.70869 289.198557 
L 467.020294 290.918182 
L 470.331898 287.654337 
L 473.643503 286.987363 
L 476.955107 289.015933 
L 480.266711 287.112826 
L 483.578316 289.232999 
L 486.88992 289.036682 
L 490.201524 287.253068 
L 493.513128 287.737515 
L 496.824733 287.219159 
L 500.136337 289.464588 
L 503.447941 288.966717 
L 506.759545 289.220331 
L 510.07115 289.617145 
L 513.382754 288.558581 
L 516.694358 288.360211 
L 520.005963 287.597194 
L 523.317567 288.623309 
L 526.629171 286.749491 
L 529.940775 288.360963 
L 533.25238 290.652076 
L 536.563984 289.674042 
L 539.875588 289.704078 
L 543.187193 288.362115 
L 546.498797 290.781691 
L 549.810401 288.516018 
L 553.122005 287.788761 
L 556.43361 288.584664 
L 559.745214 288.436868 
L 563.056818 289.23521 
L 566.368422 288.839434 
L 569.680027 286.937659 
L 572.991631 288.214002 
L 576.303235 288.358034 
L 579.61484 287.892513 
L 582.926444 287.183934 
L 586.238048 287.524441 
L 589.549652 284.920003 
L 592.861257 287.557027 
L 596.172861 286.968434 
L 599.484465 285.888557 
L 602.79607 289.847178 
L 606.107674 290.296413 
L 609.419278 286.945715 
L 612.730882 287.959685 
L 616.042487 286.439415 
L 619.354091 287.766759 
L 622.665695 287.743494 
L 625.977299 286.616337 
L 629.288904 285.011702 
L 632.600508 286.927599 
L 635.912112 284.472183 
L 639.223717 286.736722 
L 642.535321 285.393131 
L 645.846925 283.570063 
L 649.158529 284.699534 
L 652.470134 284.59365 
L 655.781738 285.407167 
L 659.093342 285.039825 
L 662.404947 285.206585 
L 665.716551 286.930114 
L 669.028155 283.897986 
L 672.339759 284.719698 
L 675.651364 284.358548 
L 675.651364 284.358548 
" style="fill:none;stroke:#1f77b4;stroke-linecap:square;stroke-width:1.5;"/>
   </g>
   <g id="patch_3">
    <path d="M 84.53 304 
L 84.53 16.2 
" style="fill:none;stroke:#000000;stroke-linecap:square;stroke-linejoin:miter;stroke-width:0.8;"/>
   </g>
   <g id="patch_4">
    <path d="M 703.8 304 
L 703.8 16.2 
" style="fill:none;stroke:#000000;stroke-linecap:square;stroke-linejoin:miter;stroke-width:0.8;"/>
   </g>
   <g id="patch_5">
    <path d="M 84.53 304 
L 703.8 304 
" style="fill:none;stroke:#000000;stroke-linecap:square;stroke-linejoin:miter;stroke-width:0.8;"/>
   </g>
   <g id="patch_6">
    <path d="M 84.53 16.2 
L 703.8 16.2 
" style="fill:none;stroke:#000000;stroke-linecap:square;stroke-linejoin:miter;stroke-width:0.8;"/>
   </g>
  </g>
 </g>
 <defs>
  <clipPath id="pc888191875">
   <rect height="287.8" width="619.27" x="84.53" y="16.2"/>
  </clipPath>
 </defs>
</svg>
