<?xml version="1.0" encoding="utf-8" standalone="no"?>
<!DOCTYPE svg PUBLIC "-//W3C//DTD SVG 1.1//EN"
  "http://www.w3.org/Graphics/SVG/1.1/DTD/svg11.dtd">
<!-- Created with matplotlib (https://matplotlib.org/) -->
<svg height="360pt" version="1.1" viewBox="0 0 720 360" width="720pt" xmlns="http://www.w3.org/2000/svg" xmlns:xlink="http://www.w3.org/1999/xlink">
 <defs>
  <style type="text/css">
*{stroke-linecap:butt;stroke-linejoin:round;}
  </style>
 </defs>
 <g id="figure_1">
  <g id="patch_1">
   <path d="M 0 360 
L 720 360 
L 720 0 
L 0 0 
z
" style="fill:#ffffff;"/>
  </g>
  <g id="axes_1">
   <g id="patch_2">
    <path d="M 60.68 304 
L 703.8 304 
L 703.8 16.2 
L 60.68 16.2 
z
" style="fill:#ffffff;"/>
   </g>
   <g id="matplotlib.axis_1">
    <g id="xtick_1">
     <g id="line2d_1">
      <defs>
       <path d="M 0 0 
L 0 3.5 
" id="ma66b95e68f" style="stroke:#000000;stroke-width:0.8;"/>
      </defs>
      <g>
       <use style="stroke:#000000;stroke-width:0.8;" x="86.473583" xlink:href="#ma66b95e68f" y="304"/>
      </g>
     </g>
     <g id="text_1">
      <text style="font-family:DejaVu Sans;font-size:15px;font-style:normal;font-weight:normal;text-anchor:middle;" transform="rotate(-0, 86.473583, 322.397656)" x="86.473583" y="322.397656">0</text>
     </g>
    </g>
    <g id="xtick_2">
     <g id="line2d_2">
      <g>
       <use style="stroke:#000000;stroke-width:0.8;" x="224.039358" xlink:href="#ma66b95e68f" y="304"/>
      </g>
     </g>
     <g id="text_2">
      <text style="font-family:DejaVu Sans;font-size:15px;font-style:normal;font-weight:normal;text-anchor:middle;" transform="rotate(-0, 224.039358, 322.397656)" x="224.039358" y="322.397656">20000</text>
     </g>
    </g>
    <g id="xtick_3">
     <g id="line2d_3">
      <g>
       <use style="stroke:#000000;stroke-width:0.8;" x="361.605134" xlink:href="#ma66b95e68f" y="304"/>
      </g>
     </g>
     <g id="text_3">
      <text style="font-family:DejaVu Sans;font-size:15px;font-style:normal;font-weight:normal;text-anchor:middle;" transform="rotate(-0, 361.605134, 322.397656)" x="361.605134" y="322.397656">40000</text>
     </g>
    </g>
    <g id="xtick_4">
     <g id="line2d_4">
      <g>
       <use style="stroke:#000000;stroke-width:0.8;" x="499.170909" xlink:href="#ma66b95e68f" y="304"/>
      </g>
     </g>
     <g id="text_4">
      <text style="font-family:DejaVu Sans;font-size:15px;font-style:normal;font-weight:normal;text-anchor:middle;" transform="rotate(-0, 499.170909, 322.397656)" x="499.170909" y="322.397656">60000</text>
     </g>
    </g>
    <g id="xtick_5">
     <g id="line2d_5">
      <g>
       <use style="stroke:#000000;stroke-width:0.8;" x="636.736684" xlink:href="#ma66b95e68f" y="304"/>
      </g>
     </g>
     <g id="text_5">
      <text style="font-family:DejaVu Sans;font-size:15px;font-style:normal;font-weight:normal;text-anchor:middle;" transform="rotate(-0, 636.736684, 322.397656)" x="636.736684" y="322.397656">80000</text>
     </g>
    </g>
    <g id="text_6">
     <text style="font-family:DejaVu Sans;font-size:15px;font-style:normal;font-weight:normal;text-anchor:middle;" transform="rotate(-0, 382.24, 340.914844)" x="382.24" y="340.914844">Episodes</text>
    </g>
   </g>
   <g id="matplotlib.axis_2">
    <g id="ytick_1">
     <g id="line2d_6">
      <defs>
       <path d="M 0 0 
L -3.5 0 
" id="ma4a1b48994" style="stroke:#000000;stroke-width:0.8;"/>
      </defs>
      <g>
       <use style="stroke:#000000;stroke-width:0.8;" x="60.68" xlink:href="#ma4a1b48994" y="290.918182"/>
      </g>
     </g>
     <g id="text_7">
      <text style="font-family:DejaVu Sans;font-size:15px;font-style:normal;font-weight:normal;text-anchor:end;" transform="rotate(-0, 53.68, 296.61701)" x="53.68" y="296.61701">0</text>
     </g>
    </g>
    <g id="ytick_2">
     <g id="line2d_7">
      <g>
       <use style="stroke:#000000;stroke-width:0.8;" x="60.68" xlink:href="#ma4a1b48994" y="232.805595"/>
      </g>
     </g>
     <g id="text_8">
      <text style="font-family:DejaVu Sans;font-size:15px;font-style:normal;font-weight:normal;text-anchor:end;" transform="rotate(-0, 53.68, 238.504423)" x="53.68" y="238.504423">10</text>
     </g>
    </g>
    <g id="ytick_3">
     <g id="line2d_8">
      <g>
       <use style="stroke:#000000;stroke-width:0.8;" x="60.68" xlink:href="#ma4a1b48994" y="174.693008"/>
      </g>
     </g>
     <g id="text_9">
      <text style="font-family:DejaVu Sans;font-size:15px;font-style:normal;font-weight:normal;text-anchor:end;" transform="rotate(-0, 53.68, 180.391836)" x="53.68" y="180.391836">20</text>
     </g>
    </g>
    <g id="ytick_4">
     <g id="line2d_9">
      <g>
       <use style="stroke:#000000;stroke-width:0.8;" x="60.68" xlink:href="#ma4a1b48994" y="116.580422"/>
      </g>
     </g>
     <g id="text_10">
      <text style="font-family:DejaVu Sans;font-size:15px;font-style:normal;font-weight:normal;text-anchor:end;" transform="rotate(-0, 53.68, 122.27925)" x="53.68" y="122.27925">30</text>
     </g>
    </g>
    <g id="ytick_5">
     <g id="line2d_10">
      <g>
       <use style="stroke:#000000;stroke-width:0.8;" x="60.68" xlink:href="#ma4a1b48994" y="58.467835"/>
      </g>
     </g>
     <g id="text_11">
      <text style="font-family:DejaVu Sans;font-size:15px;font-style:normal;font-weight:normal;text-anchor:end;" transform="rotate(-0, 53.68, 64.166663)" x="53.68" y="64.166663">40</text>
     </g>
    </g>
    <g id="text_12">
     <text style="font-family:DejaVu Sans;font-size:15px;font-style:normal;font-weight:normal;text-anchor:middle;" transform="rotate(-90, 27.472969, 160.1)" x="27.472969" y="160.1">Reward Components Mean (Max 50)</text>
    </g>
   </g>
   <g id="line2d_11">
    <path clip-path="url(#p2185f9bf78)" d="M 89.912727 175.581746 
L 93.351872 152.266686 
L 96.791016 122.404178 
L 100.23016 130.665096 
L 103.669305 124.846807 
L 107.108449 122.455323 
L 110.547594 112.890097 
L 113.986738 116.2965 
L 117.425882 103.233557 
L 120.865027 103.158805 
L 124.304171 110.014928 
L 127.743316 102.296575 
L 131.18246 96.176402 
L 134.621604 95.357191 
L 138.060749 93.177217 
L 141.499893 89.33443 
L 144.939037 88.230468 
L 148.378182 89.641489 
L 151.817326 86.767643 
L 155.256471 85.500218 
L 158.695615 81.25871 
L 162.134759 80.815784 
L 165.573904 83.253916 
L 169.013048 79.169542 
L 172.452193 81.897602 
L 175.891337 80.695197 
L 179.330481 79.022886 
L 182.769626 76.226421 
L 186.20877 77.92935 
L 189.647914 72.029559 
L 193.087059 71.763317 
L 196.526203 79.204351 
L 199.965348 77.399262 
L 203.404492 67.68057 
L 206.843636 68.608543 
L 210.282781 67.976796 
L 213.721925 69.005938 
L 217.16107 74.356363 
L 220.600214 70.225112 
L 224.039358 75.665343 
L 227.478503 76.928402 
L 230.917647 78.73236 
L 234.356791 77.814415 
L 237.795936 72.994832 
L 241.23508 65.298858 
L 244.674225 64.981903 
L 248.113369 69.046456 
L 251.552513 66.740184 
L 254.991658 63.53011 
L 258.430802 67.898433 
L 261.869947 70.381758 
L 265.309091 64.620371 
L 268.748235 61.187046 
L 272.18738 74.006388 
L 275.626524 66.074331 
L 279.065668 69.408272 
L 282.504813 73.504015 
L 285.943957 64.3412 
L 289.383102 62.97773 
L 292.822246 66.280526 
L 296.26139 68.226344 
L 299.700535 70.817222 
L 303.139679 63.909791 
L 306.578824 59.356876 
L 310.017968 62.603169 
L 313.457112 64.721608 
L 316.896257 75.907449 
L 320.335401 57.241743 
L 323.774545 72.247248 
L 327.21369 62.514987 
L 330.652834 61.114862 
L 334.091979 63.218421 
L 337.531123 62.346733 
L 340.970267 60.086608 
L 344.409412 58.573225 
L 347.848556 64.998953 
L 351.287701 61.408601 
L 358.165989 58.244639 
L 361.605134 64.772789 
L 365.044278 66.760673 
L 368.483422 59.704929 
L 371.922567 58.119335 
L 375.361711 63.379742 
L 378.800856 55.994497 
L 385.679144 66.554333 
L 389.118289 61.770735 
L 392.557433 57.460187 
L 395.996578 54.947306 
L 399.435722 65.616606 
L 402.874866 56.682429 
L 406.314011 54.972343 
L 409.753155 58.28005 
L 413.192299 53.275893 
L 416.631444 57.658117 
L 420.070588 55.926664 
L 423.509733 57.088516 
L 426.948877 59.78007 
L 430.388021 64.684307 
L 433.827166 55.256481 
L 437.26631 61.593266 
L 440.705455 60.530179 
L 444.144599 55.456238 
L 447.583743 56.908148 
L 451.022888 50.84529 
L 454.462032 57.327992 
L 457.901176 53.06032 
L 461.340321 53.595946 
L 464.779465 55.562138 
L 468.21861 55.175697 
L 471.657754 53.183129 
L 475.096898 59.213666 
L 478.536043 55.871063 
L 481.975187 56.035101 
L 485.414332 56.692526 
L 488.853476 52.253241 
L 492.29262 50.963926 
L 495.731765 53.7661 
L 499.170909 49.502385 
L 502.610053 55.771522 
L 506.049198 52.191454 
L 509.488342 59.016217 
L 512.927487 47.319593 
L 516.366631 57.525957 
L 519.805775 56.905326 
L 523.24492 53.480936 
L 526.684064 49.781573 
L 530.123209 58.177102 
L 533.562353 61.500131 
L 537.001497 54.529835 
L 540.440642 49.412884 
L 543.879786 53.545023 
L 547.31893 52.771441 
L 550.758075 48.361316 
L 554.197219 51.92651 
L 557.636364 58.032067 
L 561.075508 51.488306 
L 564.514652 51.156843 
L 567.953797 56.054967 
L 571.392941 51.873408 
L 574.832086 51.924572 
L 578.27123 55.00179 
L 581.710374 51.106565 
L 585.149519 58.980247 
L 588.588663 50.71547 
L 592.027807 61.337372 
L 595.466952 48.698748 
L 598.906096 52.115811 
L 602.345241 57.961599 
L 605.784385 48.567843 
L 609.223529 55.030044 
L 612.662674 55.910299 
L 616.101818 52.22252 
L 619.540963 54.347739 
L 622.980107 53.964807 
L 626.419251 59.286192 
L 629.858396 51.301093 
L 633.29754 53.60013 
L 636.736684 52.461335 
L 640.175829 54.308192 
L 643.614973 58.257857 
L 647.054118 55.564881 
L 650.493262 53.640715 
L 653.932406 47.395663 
L 657.371551 55.326505 
L 660.810695 49.960534 
L 664.24984 51.036568 
L 667.688984 63.225491 
L 671.128128 48.591528 
L 674.567273 50.558431 
L 674.567273 50.558431 
" style="fill:none;stroke:#1f77b4;stroke-linecap:square;stroke-width:1.5;"/>
   </g>
   <g id="line2d_12">
    <path clip-path="url(#p2185f9bf78)" d="M 89.912727 91.721656 
L 93.351872 86.428307 
L 96.791016 68.969785 
L 100.23016 69.53096 
L 103.669305 62.385823 
L 107.108449 63.515931 
L 110.547594 56.659853 
L 113.986738 51.875846 
L 117.425882 54.770741 
L 120.865027 54.954631 
L 124.304171 58.753602 
L 127.743316 56.173682 
L 131.18246 50.556428 
L 134.621604 52.125719 
L 138.060749 55.934566 
L 141.499893 49.309233 
L 144.939037 54.688427 
L 148.378182 49.159379 
L 151.817326 48.126781 
L 155.256471 44.321378 
L 158.695615 47.030122 
L 162.134759 52.03824 
L 165.573904 48.073597 
L 169.013048 49.062226 
L 172.452193 50.670448 
L 175.891337 45.106193 
L 179.330481 42.158643 
L 182.769626 44.598419 
L 186.20877 48.574976 
L 189.647914 46.115927 
L 193.087059 45.346397 
L 196.526203 47.303345 
L 199.965348 44.810266 
L 203.404492 40.005611 
L 206.843636 45.67906 
L 210.282781 47.003518 
L 213.721925 42.337318 
L 217.16107 42.358673 
L 220.600214 44.384382 
L 224.039358 39.746914 
L 227.478503 42.318202 
L 230.917647 46.013207 
L 234.356791 46.389457 
L 237.795936 45.91646 
L 241.23508 40.368278 
L 244.674225 36.211496 
L 248.113369 36.409906 
L 251.552513 37.183394 
L 254.991658 39.848707 
L 258.430802 44.672508 
L 261.869947 39.803858 
L 265.309091 38.793516 
L 268.748235 45.367503 
L 272.18738 38.288394 
L 275.626524 39.804764 
L 279.065668 40.324432 
L 282.504813 36.894278 
L 285.943957 40.147941 
L 289.383102 38.597065 
L 292.822246 41.968598 
L 296.26139 41.788975 
L 299.700535 41.831278 
L 303.139679 36.61704 
L 306.578824 38.266621 
L 310.017968 39.65382 
L 313.457112 40.525335 
L 316.896257 45.316737 
L 320.335401 41.574617 
L 323.774545 39.830158 
L 327.21369 37.940533 
L 330.652834 38.805651 
L 334.091979 34.17342 
L 337.531123 40.682558 
L 340.970267 35.388274 
L 344.409412 36.2807 
L 347.848556 51.795391 
L 351.287701 39.029841 
L 354.726845 38.01538 
L 358.165989 35.538813 
L 361.605134 38.080155 
L 365.044278 41.418449 
L 368.483422 35.215987 
L 371.922567 34.540263 
L 375.361711 40.381012 
L 378.800856 34.357706 
L 382.24 40.130266 
L 385.679144 42.557964 
L 389.118289 38.650586 
L 392.557433 32.329777 
L 395.996578 37.218703 
L 399.435722 39.858595 
L 402.874866 32.819864 
L 409.753155 41.018709 
L 413.192299 29.820772 
L 416.631444 35.871728 
L 420.070588 35.291988 
L 423.509733 46.228965 
L 426.948877 37.826867 
L 430.388021 38.054314 
L 433.827166 37.998056 
L 437.26631 36.500769 
L 440.705455 35.254832 
L 444.144599 35.001317 
L 447.583743 34.435255 
L 451.022888 30.019393 
L 454.462032 33.844505 
L 457.901176 37.404352 
L 461.340321 34.678622 
L 464.779465 40.427549 
L 468.21861 36.959506 
L 471.657754 38.435954 
L 475.096898 35.797631 
L 478.536043 40.472626 
L 481.975187 35.385355 
L 485.414332 38.691384 
L 488.853476 42.342914 
L 492.29262 32.806134 
L 495.731765 36.061436 
L 499.170909 32.634449 
L 502.610053 35.994581 
L 506.049198 35.481006 
L 509.488342 36.703016 
L 512.927487 32.068601 
L 516.366631 37.475738 
L 519.805775 40.186169 
L 523.24492 34.335594 
L 526.684064 36.144054 
L 530.123209 38.152682 
L 533.562353 37.580593 
L 537.001497 33.745856 
L 540.440642 34.780754 
L 543.879786 36.706181 
L 547.31893 39.065469 
L 550.758075 33.31778 
L 554.197219 34.716257 
L 557.636364 34.822535 
L 561.075508 32.155738 
L 564.514652 37.468427 
L 567.953797 34.694429 
L 571.392941 33.723318 
L 574.832086 32.970365 
L 578.27123 38.217246 
L 581.710374 32.355021 
L 585.149519 43.699764 
L 588.588663 37.140022 
L 592.027807 34.356774 
L 595.466952 35.595287 
L 598.906096 32.108784 
L 602.345241 29.281818 
L 605.784385 31.727494 
L 609.223529 39.431623 
L 612.662674 31.879304 
L 616.101818 36.581727 
L 619.540963 39.464182 
L 622.980107 35.928937 
L 626.419251 36.885636 
L 629.858396 36.270914 
L 633.29754 34.06943 
L 636.736684 41.114485 
L 640.175829 35.880057 
L 643.614973 41.875377 
L 647.054118 37.088008 
L 650.493262 32.539046 
L 653.932406 36.891107 
L 657.371551 39.296174 
L 660.810695 36.623261 
L 664.24984 40.38055 
L 667.688984 37.757039 
L 671.128128 37.114742 
L 674.567273 36.292374 
L 674.567273 36.292374 
" style="fill:none;stroke:#ff7f0e;stroke-linecap:square;stroke-width:1.5;"/>
   </g>
   <g id="line2d_13">
    <path clip-path="url(#p2185f9bf78)" d="M 89.912727 290.918182 
L 138.060749 290.918182 
L 141.499893 290.801957 
L 144.939037 290.918182 
L 148.378182 290.453281 
L 151.817326 290.860069 
L 158.695615 290.918182 
L 172.452193 290.918182 
L 175.891337 290.801957 
L 179.330481 289.814043 
L 182.769626 290.918182 
L 193.087059 290.860069 
L 196.526203 290.278943 
L 199.965348 289.52348 
L 203.404492 290.918182 
L 206.843636 290.801957 
L 213.721925 290.918182 
L 217.16107 290.860069 
L 224.039358 290.918182 
L 227.478503 290.918182 
L 230.917647 290.627619 
L 234.356791 289.291029 
L 237.795936 289.232917 
L 241.23508 290.918182 
L 251.552513 290.627619 
L 254.991658 287.780102 
L 258.430802 290.801957 
L 261.869947 290.918182 
L 265.309091 290.220831 
L 272.18738 288.18689 
L 275.626524 290.918182 
L 279.065668 290.860069 
L 285.943957 290.918182 
L 289.383102 290.860069 
L 296.26139 290.918182 
L 299.700535 290.860069 
L 303.139679 290.918182 
L 306.578824 290.860069 
L 310.017968 290.046493 
L 313.457112 290.918182 
L 316.896257 289.52348 
L 320.335401 290.220831 
L 323.774545 289.75593 
L 327.21369 290.918182 
L 330.652834 289.697817 
L 334.091979 290.918182 
L 337.531123 290.278943 
L 340.970267 289.349142 
L 344.409412 290.220831 
L 347.848556 290.918182 
L 351.287701 289.930268 
L 354.726845 290.918182 
L 358.165989 290.801957 
L 365.044278 290.801957 
L 368.483422 287.780102 
L 371.922567 290.860069 
L 375.361711 289.465367 
L 378.800856 290.918182 
L 382.24 289.98838 
L 385.679144 290.801957 
L 389.118289 290.453281 
L 392.557433 287.431427 
L 395.996578 290.685731 
L 399.435722 290.860069 
L 402.874866 289.581592 
L 406.314011 290.918182 
L 409.753155 288.942354 
L 413.192299 290.627619 
L 416.631444 290.801957 
L 420.070588 289.872155 
L 423.509733 290.743844 
L 426.948877 289.407255 
L 430.388021 290.685731 
L 433.827166 290.046493 
L 437.26631 290.918182 
L 440.705455 288.419341 
L 444.144599 290.685731 
L 447.583743 289.000466 
L 451.022888 290.860069 
L 454.462032 290.918182 
L 457.901176 290.627619 
L 461.340321 290.453281 
L 464.779465 288.18689 
L 468.21861 290.801957 
L 471.657754 289.116692 
L 475.096898 290.743844 
L 478.536043 287.896327 
L 481.975187 290.395169 
L 485.414332 289.639705 
L 488.853476 289.697817 
L 492.29262 286.327287 
L 495.731765 290.743844 
L 499.170909 290.801957 
L 502.610053 290.569506 
L 506.049198 288.826129 
L 509.488342 290.627619 
L 512.927487 289.930268 
L 516.366631 290.743844 
L 519.805775 290.569506 
L 523.24492 287.024639 
L 526.684064 288.303115 
L 530.123209 287.838215 
L 533.562353 284.758248 
L 537.001497 290.046493 
L 540.440642 286.675963 
L 543.879786 290.569506 
L 547.31893 290.918182 
L 550.758075 288.593678 
L 554.197219 288.419341 
L 557.636364 289.116692 
L 561.075508 288.651791 
L 564.514652 288.070665 
L 567.953797 290.046493 
L 571.392941 284.409572 
L 574.832086 290.220831 
L 578.27123 289.930268 
L 581.710374 289.058579 
L 585.149519 289.291029 
L 588.588663 290.453281 
L 595.466952 290.278943 
L 598.906096 287.547652 
L 602.345241 288.303115 
L 605.784385 287.489539 
L 609.223529 290.801957 
L 612.662674 290.569506 
L 616.101818 285.629936 
L 619.540963 290.860069 
L 622.980107 290.278943 
L 626.419251 288.012552 
L 629.858396 289.75593 
L 633.29754 290.685731 
L 636.736684 290.918182 
L 640.175829 289.814043 
L 643.614973 287.024639 
L 647.054118 289.52348 
L 650.493262 288.942354 
L 653.932406 289.75593 
L 657.371551 290.860069 
L 660.810695 289.697817 
L 664.24984 290.860069 
L 667.688984 288.419341 
L 671.128128 289.407255 
L 674.567273 289.291029 
L 674.567273 289.291029 
" style="fill:none;stroke:#2ca02c;stroke-linecap:square;stroke-width:1.5;"/>
   </g>
   <g id="patch_3">
    <path d="M 60.68 304 
L 60.68 16.2 
" style="fill:none;stroke:#000000;stroke-linecap:square;stroke-linejoin:miter;stroke-width:0.8;"/>
   </g>
   <g id="patch_4">
    <path d="M 703.8 304 
L 703.8 16.2 
" style="fill:none;stroke:#000000;stroke-linecap:square;stroke-linejoin:miter;stroke-width:0.8;"/>
   </g>
   <g id="patch_5">
    <path d="M 60.68 304 
L 703.8 304 
" style="fill:none;stroke:#000000;stroke-linecap:square;stroke-linejoin:miter;stroke-width:0.8;"/>
   </g>
   <g id="patch_6">
    <path d="M 60.68 16.2 
L 703.8 16.2 
" style="fill:none;stroke:#000000;stroke-linecap:square;stroke-linejoin:miter;stroke-width:0.8;"/>
   </g>
   <g id="legend_1">
    <g id="patch_7">
     <path d="M 505.942969 195.375781 
L 693.3 195.375781 
Q 696.3 195.375781 696.3 192.375781 
L 696.3 127.824219 
Q 696.3 124.824219 693.3 124.824219 
L 505.942969 124.824219 
Q 502.942969 124.824219 502.942969 127.824219 
L 502.942969 192.375781 
Q 502.942969 195.375781 505.942969 195.375781 
z
" style="fill:#ffffff;opacity:0.8;stroke:#cccccc;stroke-linejoin:miter;"/>
    </g>
    <g id="line2d_14">
     <path d="M 508.942969 136.971875 
L 538.942969 136.971875 
" style="fill:none;stroke:#1f77b4;stroke-linecap:square;stroke-width:1.5;"/>
    </g>
    <g id="line2d_15"/>
    <g id="text_13">
     <text style="font-family:DejaVu Sans;font-size:15px;font-style:normal;font-weight:normal;text-anchor:start;" transform="rotate(-0, 550.942969, 142.221875)" x="550.942969" y="142.221875">position reward</text>
    </g>
    <g id="line2d_16">
     <path d="M 508.942969 158.989063 
L 538.942969 158.989063 
" style="fill:none;stroke:#ff7f0e;stroke-linecap:square;stroke-width:1.5;"/>
    </g>
    <g id="line2d_17"/>
    <g id="text_14">
     <text style="font-family:DejaVu Sans;font-size:15px;font-style:normal;font-weight:normal;text-anchor:start;" transform="rotate(-0, 550.942969, 164.239063)" x="550.942969" y="164.239063">orientation reward</text>
    </g>
    <g id="line2d_18">
     <path d="M 508.942969 181.00625 
L 538.942969 181.00625 
" style="fill:none;stroke:#2ca02c;stroke-linecap:square;stroke-width:1.5;"/>
    </g>
    <g id="line2d_19"/>
    <g id="text_15">
     <text style="font-family:DejaVu Sans;font-size:15px;font-style:normal;font-weight:normal;text-anchor:start;" transform="rotate(-0, 550.942969, 186.25625)" x="550.942969" y="186.25625">bonus reward</text>
    </g>
   </g>
  </g>
 </g>
 <defs>
  <clipPath id="p2185f9bf78">
   <rect height="287.8" width="643.12" x="60.68" y="16.2"/>
  </clipPath>
 </defs>
</svg>
