<?xml version="1.0" encoding="utf-8" standalone="no"?>
<!DOCTYPE svg PUBLIC "-//W3C//DTD SVG 1.1//EN"
  "http://www.w3.org/Graphics/SVG/1.1/DTD/svg11.dtd">
<!-- Created with matplotlib (https://matplotlib.org/) -->
<svg height="360pt" version="1.1" viewBox="0 0 720 360" width="720pt" xmlns="http://www.w3.org/2000/svg" xmlns:xlink="http://www.w3.org/1999/xlink">
 <defs>
  <style type="text/css">
*{stroke-linecap:butt;stroke-linejoin:round;}
  </style>
 </defs>
 <g id="figure_1">
  <g id="patch_1">
   <path d="M 0 360 
L 720 360 
L 720 0 
L 0 0 
z
" style="fill:#ffffff;"/>
  </g>
  <g id="axes_1">
   <g id="patch_2">
    <path d="M 60.68 304 
L 703.8 304 
L 703.8 16.2 
L 60.68 16.2 
z
" style="fill:#ffffff;"/>
   </g>
   <g id="matplotlib.axis_1">
    <g id="xtick_1">
     <g id="line2d_1">
      <defs>
       <path d="M 0 0 
L 0 3.5 
" id="mc44a045222" style="stroke:#000000;stroke-width:0.8;"/>
      </defs>
      <g>
       <use style="stroke:#000000;stroke-width:0.8;" x="86.473583" xlink:href="#mc44a045222" y="304"/>
      </g>
     </g>
     <g id="text_1">
      <text style="font-family:DejaVu Sans;font-size:15px;font-style:normal;font-weight:normal;text-anchor:middle;" transform="rotate(-0, 86.473583, 322.397656)" x="86.473583" y="322.397656">0</text>
     </g>
    </g>
    <g id="xtick_2">
     <g id="line2d_2">
      <g>
       <use style="stroke:#000000;stroke-width:0.8;" x="224.039358" xlink:href="#mc44a045222" y="304"/>
      </g>
     </g>
     <g id="text_2">
      <text style="font-family:DejaVu Sans;font-size:15px;font-style:normal;font-weight:normal;text-anchor:middle;" transform="rotate(-0, 224.039358, 322.397656)" x="224.039358" y="322.397656">20000</text>
     </g>
    </g>
    <g id="xtick_3">
     <g id="line2d_3">
      <g>
       <use style="stroke:#000000;stroke-width:0.8;" x="361.605134" xlink:href="#mc44a045222" y="304"/>
      </g>
     </g>
     <g id="text_3">
      <text style="font-family:DejaVu Sans;font-size:15px;font-style:normal;font-weight:normal;text-anchor:middle;" transform="rotate(-0, 361.605134, 322.397656)" x="361.605134" y="322.397656">40000</text>
     </g>
    </g>
    <g id="xtick_4">
     <g id="line2d_4">
      <g>
       <use style="stroke:#000000;stroke-width:0.8;" x="499.170909" xlink:href="#mc44a045222" y="304"/>
      </g>
     </g>
     <g id="text_4">
      <text style="font-family:DejaVu Sans;font-size:15px;font-style:normal;font-weight:normal;text-anchor:middle;" transform="rotate(-0, 499.170909, 322.397656)" x="499.170909" y="322.397656">60000</text>
     </g>
    </g>
    <g id="xtick_5">
     <g id="line2d_5">
      <g>
       <use style="stroke:#000000;stroke-width:0.8;" x="636.736684" xlink:href="#mc44a045222" y="304"/>
      </g>
     </g>
     <g id="text_5">
      <text style="font-family:DejaVu Sans;font-size:15px;font-style:normal;font-weight:normal;text-anchor:middle;" transform="rotate(-0, 636.736684, 322.397656)" x="636.736684" y="322.397656">80000</text>
     </g>
    </g>
    <g id="text_6">
     <text style="font-family:DejaVu Sans;font-size:15px;font-style:normal;font-weight:normal;text-anchor:middle;" transform="rotate(-0, 382.24, 340.914844)" x="382.24" y="340.914844">Episodes</text>
    </g>
   </g>
   <g id="matplotlib.axis_2">
    <g id="ytick_1">
     <g id="line2d_6">
      <defs>
       <path d="M 0 0 
L -3.5 0 
" id="m46d3d39be5" style="stroke:#000000;stroke-width:0.8;"/>
      </defs>
      <g>
       <use style="stroke:#000000;stroke-width:0.8;" x="60.68" xlink:href="#m46d3d39be5" y="302.509765"/>
      </g>
     </g>
     <g id="text_7">
      <text style="font-family:DejaVu Sans;font-size:15px;font-style:normal;font-weight:normal;text-anchor:end;" transform="rotate(-0, 53.68, 308.208593)" x="53.68" y="308.208593">20</text>
     </g>
    </g>
    <g id="ytick_2">
     <g id="line2d_7">
      <g>
       <use style="stroke:#000000;stroke-width:0.8;" x="60.68" xlink:href="#m46d3d39be5" y="259.458063"/>
      </g>
     </g>
     <g id="text_8">
      <text style="font-family:DejaVu Sans;font-size:15px;font-style:normal;font-weight:normal;text-anchor:end;" transform="rotate(-0, 53.68, 265.156891)" x="53.68" y="265.156891">22</text>
     </g>
    </g>
    <g id="ytick_3">
     <g id="line2d_8">
      <g>
       <use style="stroke:#000000;stroke-width:0.8;" x="60.68" xlink:href="#m46d3d39be5" y="216.406362"/>
      </g>
     </g>
     <g id="text_9">
      <text style="font-family:DejaVu Sans;font-size:15px;font-style:normal;font-weight:normal;text-anchor:end;" transform="rotate(-0, 53.68, 222.10519)" x="53.68" y="222.10519">24</text>
     </g>
    </g>
    <g id="ytick_4">
     <g id="line2d_9">
      <g>
       <use style="stroke:#000000;stroke-width:0.8;" x="60.68" xlink:href="#m46d3d39be5" y="173.354661"/>
      </g>
     </g>
     <g id="text_10">
      <text style="font-family:DejaVu Sans;font-size:15px;font-style:normal;font-weight:normal;text-anchor:end;" transform="rotate(-0, 53.68, 179.053489)" x="53.68" y="179.053489">26</text>
     </g>
    </g>
    <g id="ytick_5">
     <g id="line2d_10">
      <g>
       <use style="stroke:#000000;stroke-width:0.8;" x="60.68" xlink:href="#m46d3d39be5" y="130.30296"/>
      </g>
     </g>
     <g id="text_11">
      <text style="font-family:DejaVu Sans;font-size:15px;font-style:normal;font-weight:normal;text-anchor:end;" transform="rotate(-0, 53.68, 136.001788)" x="53.68" y="136.001788">28</text>
     </g>
    </g>
    <g id="ytick_6">
     <g id="line2d_11">
      <g>
       <use style="stroke:#000000;stroke-width:0.8;" x="60.68" xlink:href="#m46d3d39be5" y="87.251259"/>
      </g>
     </g>
     <g id="text_12">
      <text style="font-family:DejaVu Sans;font-size:15px;font-style:normal;font-weight:normal;text-anchor:end;" transform="rotate(-0, 53.68, 92.950087)" x="53.68" y="92.950087">30</text>
     </g>
    </g>
    <g id="ytick_7">
     <g id="line2d_12">
      <g>
       <use style="stroke:#000000;stroke-width:0.8;" x="60.68" xlink:href="#m46d3d39be5" y="44.199557"/>
      </g>
     </g>
     <g id="text_13">
      <text style="font-family:DejaVu Sans;font-size:15px;font-style:normal;font-weight:normal;text-anchor:end;" transform="rotate(-0, 53.68, 49.898386)" x="53.68" y="49.898386">32</text>
     </g>
    </g>
    <g id="text_14">
     <text style="font-family:DejaVu Sans;font-size:15px;font-style:normal;font-weight:normal;text-anchor:middle;" transform="rotate(-90, 27.472969, 160.1)" x="27.472969" y="160.1">Episode Reward Mean (Max 50)</text>
    </g>
   </g>
   <g id="line2d_13">
    <path clip-path="url(#p9e47956c6b)" d="M 89.912727 290.918182 
L 93.351872 252.732374 
L 96.791016 222.215877 
L 100.23016 206.230103 
L 103.669305 181.206687 
L 107.108449 183.353695 
L 110.547594 175.814265 
L 113.986738 142.668952 
L 117.425882 127.894738 
L 120.865027 156.242897 
L 124.304171 141.419883 
L 127.743316 139.165031 
L 131.18246 159.854601 
L 134.621604 112.998558 
L 138.060749 138.667621 
L 141.499893 102.869597 
L 148.378182 110.623864 
L 151.817326 110.43251 
L 155.256471 122.120654 
L 158.695615 114.578887 
L 162.134759 96.78663 
L 165.573904 110.659615 
L 169.013048 101.908462 
L 172.452193 101.881184 
L 175.891337 96.50559 
L 179.330481 95.889273 
L 182.769626 88.114385 
L 186.20877 75.073059 
L 189.647914 82.512245 
L 193.087059 104.594588 
L 196.526203 88.514243 
L 199.965348 86.447286 
L 203.404492 97.635362 
L 206.843636 83.880927 
L 210.282781 102.891725 
L 213.721925 91.694794 
L 217.16107 72.185223 
L 220.600214 90.746855 
L 224.039358 79.661775 
L 227.478503 84.042546 
L 230.917647 66.218815 
L 234.356791 91.329313 
L 237.795936 82.578409 
L 241.23508 82.803609 
L 244.674225 78.969662 
L 248.113369 70.573496 
L 251.552513 75.710335 
L 254.991658 76.12566 
L 258.430802 75.381927 
L 261.869947 62.533926 
L 265.309091 66.897124 
L 268.748235 64.373429 
L 272.18738 58.226881 
L 275.626524 67.804284 
L 279.065668 73.000231 
L 282.504813 65.248629 
L 285.943957 55.426033 
L 289.383102 72.328574 
L 292.822246 65.956865 
L 296.26139 75.177833 
L 299.700535 72.022755 
L 303.139679 65.514874 
L 306.578824 62.552541 
L 310.017968 73.790358 
L 313.457112 73.557847 
L 316.896257 57.300353 
L 320.335401 69.710007 
L 323.774545 51.827355 
L 327.21369 54.475801 
L 330.652834 64.485931 
L 334.091979 63.754705 
L 337.531123 59.572018 
L 340.970267 60.532999 
L 344.409412 60.777625 
L 347.848556 61.213643 
L 351.287701 77.425743 
L 354.726845 74.216843 
L 358.165989 72.472347 
L 361.605134 52.588026 
L 365.044278 54.452349 
L 371.922567 61.699676 
L 375.361711 56.099337 
L 378.800856 61.849396 
L 382.24 67.200044 
L 385.679144 55.095077 
L 389.118289 46.319056 
L 392.557433 56.77988 
L 395.996578 49.976865 
L 399.435722 52.839755 
L 402.874866 56.341206 
L 406.314011 51.144007 
L 409.753155 57.218219 
L 413.192299 51.581773 
L 416.631444 52.829946 
L 420.070588 52.846441 
L 423.509733 51.68353 
L 426.948877 57.686061 
L 430.388021 44.534887 
L 433.827166 53.168993 
L 437.26631 58.504052 
L 440.705455 60.562822 
L 444.144599 59.325131 
L 447.583743 42.170845 
L 451.022888 53.750118 
L 454.462032 54.269102 
L 457.901176 51.088374 
L 461.340321 56.465621 
L 464.779465 44.151639 
L 468.21861 49.931975 
L 471.657754 48.807765 
L 475.096898 43.923171 
L 478.536043 59.127563 
L 481.975187 49.075598 
L 485.414332 52.648218 
L 488.853476 52.256302 
L 492.29262 36.011353 
L 495.731765 48.671226 
L 499.170909 42.630846 
L 509.488342 45.7897 
L 512.927487 50.44092 
L 516.366631 48.431029 
L 519.805775 49.865117 
L 523.24492 47.598677 
L 526.684064 40.652807 
L 530.123209 54.210222 
L 533.562353 46.667777 
L 537.001497 52.028798 
L 540.440642 46.843351 
L 543.879786 42.424904 
L 547.31893 44.570002 
L 550.758075 46.993551 
L 554.197219 50.61801 
L 557.636364 51.789194 
L 561.075508 48.477046 
L 564.514652 63.093705 
L 567.953797 59.853115 
L 571.392941 61.980679 
L 574.832086 40.29252 
L 578.27123 44.020185 
L 581.710374 43.892679 
L 585.149519 53.687637 
L 588.588663 47.372434 
L 592.027807 44.961121 
L 595.466952 38.304133 
L 598.906096 37.654372 
L 602.345241 40.004405 
L 605.784385 50.144056 
L 609.223529 61.087243 
L 612.662674 46.816878 
L 616.101818 51.943961 
L 619.540963 42.296304 
L 622.980107 52.644446 
L 626.419251 54.563493 
L 629.858396 52.522525 
L 633.29754 43.823402 
L 636.736684 40.922944 
L 640.175829 44.923049 
L 643.614973 62.828763 
L 647.054118 70.493508 
L 650.493262 56.84358 
L 653.932406 42.190725 
L 657.371551 43.696032 
L 660.810695 67.31104 
L 664.24984 44.806911 
L 667.688984 44.598145 
L 671.128128 57.467195 
L 674.567273 37.140964 
L 674.567273 37.140964 
" style="fill:none;stroke:#1f77b4;stroke-linecap:square;stroke-width:1.5;"/>
   </g>
   <g id="line2d_14">
    <path clip-path="url(#p9e47956c6b)" d="M 89.912727 276.706775 
L 93.351872 241.140154 
L 96.791016 178.279997 
L 100.23016 188.751854 
L 103.669305 170.437685 
L 107.108449 169.50084 
L 110.547594 147.317839 
L 113.986738 143.508099 
L 117.425882 133.078462 
L 120.865027 133.289939 
L 124.304171 147.382754 
L 127.743316 134.267421 
L 131.18246 118.026034 
L 134.621604 119.674718 
L 138.060749 123.323796 
L 141.499893 108.031119 
L 144.939037 115.578223 
L 148.378182 107.820818 
L 151.817326 103.197498 
L 155.256471 95.617278 
L 158.695615 95.097229 
L 162.134759 102.700532 
L 165.573904 99.043992 
L 169.013048 95.97208 
L 172.452193 101.736187 
L 175.891337 91.21944 
L 179.330481 83.592091 
L 182.769626 85.331348 
L 186.20877 93.746871 
L 189.647914 82.932497 
L 193.087059 81.323415 
L 196.526203 92.570019 
L 199.965348 85.740735 
L 203.404492 67.996116 
L 206.843636 78.156893 
L 210.282781 79.625807 
L 213.721925 73.308997 
L 217.16107 79.483178 
L 220.600214 78.037665 
L 224.039358 76.819662 
L 227.478503 82.448673 
L 230.917647 90.255793 
L 234.356791 88.565229 
L 237.795936 82.165975 
L 241.23508 65.826891 
L 244.674225 58.616009 
L 248.113369 63.58866 
L 251.552513 62.064895 
L 254.991658 60.031485 
L 258.430802 75.703717 
L 261.869947 70.795926 
L 265.309091 61.843718 
L 268.748235 67.554423 
L 272.18738 70.006414 
L 275.626524 65.811327 
L 279.065668 70.458878 
L 282.504813 69.694915 
L 285.943957 64.361282 
L 289.383102 60.215877 
L 292.822246 69.556655 
L 296.26139 71.517947 
L 299.700535 74.531762 
L 303.139679 58.139826 
L 306.578824 55.489044 
L 310.017968 60.741445 
L 313.457112 65.413216 
L 316.896257 84.834658 
L 320.335401 57.809554 
L 323.774545 71.921653 
L 327.21369 58.670086 
L 330.652834 57.321247 
L 334.091979 53.379469 
L 337.531123 62.327009 
L 340.970267 50.27 
L 344.409412 50.77164 
L 347.848556 83.998188 
L 351.287701 58.239841 
L 354.726845 55.6403 
L 358.165989 49.727152 
L 361.605134 61.402245 
L 365.044278 69.113266 
L 368.483422 48.095989 
L 371.922567 48.017698 
L 375.361711 62.280688 
L 378.800856 45.316058 
L 382.24 59.910796 
L 385.679144 70.721082 
L 389.118289 58.52875 
L 392.557433 40.497388 
L 395.996578 48.525073 
L 399.435722 65.314909 
L 402.874866 42.382456 
L 406.314011 48.312149 
L 409.753155 56.926636 
L 413.192299 34.547637 
L 416.631444 49.587735 
L 420.070588 45.782945 
L 423.509733 65.65922 
L 426.948877 53.920895 
L 430.388021 61.150315 
L 433.827166 49.553996 
L 437.26631 55.269905 
L 440.705455 49.70617 
L 444.144599 45.520755 
L 447.583743 44.723448 
L 451.022888 32.271228 
L 454.462032 46.027968 
L 457.901176 46.587832 
L 461.340321 42.629163 
L 464.779465 52.122908 
L 468.21861 48.477029 
L 471.657754 47.002595 
L 475.096898 51.214469 
L 478.536043 52.284481 
L 481.975187 46.544107 
L 485.414332 51.963175 
L 488.853476 52.795857 
L 492.29262 32.727127 
L 495.731765 45.336148 
L 499.170909 34.900817 
L 502.610053 47.387739 
L 506.049198 40.796904 
L 509.488342 52.345523 
L 512.927487 30.649908 
L 516.366631 51.980351 
L 519.805775 55.492942 
L 523.24492 38.765069 
L 526.684064 38.597528 
L 530.123209 51.140389 
L 533.562353 51.207678 
L 537.001497 41.821871 
L 540.440642 34.454616 
L 543.879786 45.963651 
L 547.31893 49.214473 
L 550.758075 32.642403 
L 554.197219 38.874184 
L 557.636364 46.759685 
L 561.075508 34.432696 
L 564.514652 42.120455 
L 567.953797 45.124519 
L 571.392941 33.490379 
L 574.832086 37.710853 
L 578.27123 49.506761 
L 581.710374 34.690466 
L 585.149519 62.404879 
L 588.588663 43.283741 
L 592.027807 50.961052 
L 595.466952 38.284484 
L 598.906096 34.060495 
L 602.345241 36.945582 
L 605.784385 29.281818 
L 609.223529 52.31467 
L 612.662674 40.87928 
L 616.101818 39.656856 
L 619.540963 51.631447 
L 622.980107 44.920921 
L 626.419251 50.532322 
L 629.858396 41.907401 
L 633.29754 41.862025 
L 636.736684 52.176088 
L 640.175829 44.808675 
L 643.614973 56.513355 
L 647.054118 47.951855 
L 650.493262 37.814471 
L 653.932406 38.391733 
L 657.371551 52.492148 
L 660.810695 40.872824 
L 664.24984 49.283636 
L 667.688984 56.881136 
L 671.128128 39.815538 
L 674.567273 40.651993 
L 674.567273 40.651993 
" style="fill:none;stroke:#ff7f0e;stroke-linecap:square;stroke-width:1.5;"/>
   </g>
   <g id="patch_3">
    <path d="M 60.68 304 
L 60.68 16.2 
" style="fill:none;stroke:#000000;stroke-linecap:square;stroke-linejoin:miter;stroke-width:0.8;"/>
   </g>
   <g id="patch_4">
    <path d="M 703.8 304 
L 703.8 16.2 
" style="fill:none;stroke:#000000;stroke-linecap:square;stroke-linejoin:miter;stroke-width:0.8;"/>
   </g>
   <g id="patch_5">
    <path d="M 60.68 304 
L 703.8 304 
" style="fill:none;stroke:#000000;stroke-linecap:square;stroke-linejoin:miter;stroke-width:0.8;"/>
   </g>
   <g id="patch_6">
    <path d="M 60.68 16.2 
L 703.8 16.2 
" style="fill:none;stroke:#000000;stroke-linecap:square;stroke-linejoin:miter;stroke-width:0.8;"/>
   </g>
   <g id="legend_1">
    <g id="patch_7">
     <path d="M 466.8375 296.5 
L 693.3 296.5 
Q 696.3 296.5 696.3 293.5 
L 696.3 250.965625 
Q 696.3 247.965625 693.3 247.965625 
L 466.8375 247.965625 
Q 463.8375 247.965625 463.8375 250.965625 
L 463.8375 293.5 
Q 463.8375 296.5 466.8375 296.5 
z
" style="fill:#ffffff;opacity:0.8;stroke:#cccccc;stroke-linejoin:miter;"/>
    </g>
    <g id="line2d_15">
     <path d="M 469.8375 260.113281 
L 499.8375 260.113281 
" style="fill:none;stroke:#1f77b4;stroke-linecap:square;stroke-width:1.5;"/>
    </g>
    <g id="line2d_16"/>
    <g id="text_15">
     <text style="font-family:DejaVu Sans;font-size:15px;font-style:normal;font-weight:normal;text-anchor:start;" transform="rotate(-0, 511.8375, 265.363281)" x="511.8375" y="265.363281">training mean reward</text>
    </g>
    <g id="line2d_17">
     <path d="M 469.8375 282.130469 
L 499.8375 282.130469 
" style="fill:none;stroke:#ff7f0e;stroke-linecap:square;stroke-width:1.5;"/>
    </g>
    <g id="line2d_18"/>
    <g id="text_16">
     <text style="font-family:DejaVu Sans;font-size:15px;font-style:normal;font-weight:normal;text-anchor:start;" transform="rotate(-0, 511.8375, 287.380469)" x="511.8375" y="287.380469">validation mean reward</text>
    </g>
   </g>
  </g>
 </g>
 <defs>
  <clipPath id="p9e47956c6b">
   <rect height="287.8" width="643.12" x="60.68" y="16.2"/>
  </clipPath>
 </defs>
</svg>
