<?xml version="1.0" encoding="utf-8" standalone="no"?>
<!DOCTYPE svg PUBLIC "-//W3C//DTD SVG 1.1//EN"
  "http://www.w3.org/Graphics/SVG/1.1/DTD/svg11.dtd">
<!-- Created with matplotlib (https://matplotlib.org/) -->
<svg height="360pt" version="1.1" viewBox="0 0 720 360" width="720pt" xmlns="http://www.w3.org/2000/svg" xmlns:xlink="http://www.w3.org/1999/xlink">
 <defs>
  <style type="text/css">
*{stroke-linecap:butt;stroke-linejoin:round;}
  </style>
 </defs>
 <g id="figure_1">
  <g id="patch_1">
   <path d="M 0 360 
L 720 360 
L 720 0 
L 0 0 
z
" style="fill:#ffffff;"/>
  </g>
  <g id="axes_1">
   <g id="patch_2">
    <path d="M 84.53 304 
L 703.8 304 
L 703.8 16.2 
L 84.53 16.2 
z
" style="fill:#ffffff;"/>
   </g>
   <g id="matplotlib.axis_1">
    <g id="xtick_1">
     <g id="line2d_1">
      <defs>
       <path d="M 0 0 
L 0 3.5 
" id="m0e5d415b3b" style="stroke:#000000;stroke-width:0.8;"/>
      </defs>
      <g>
       <use style="stroke:#000000;stroke-width:0.8;" x="109.367032" xlink:href="#m0e5d415b3b" y="304"/>
      </g>
     </g>
     <g id="text_1">
      <text style="font-family:DejaVu Sans;font-size:15px;font-style:normal;font-weight:normal;text-anchor:middle;" transform="rotate(-0, 109.367032, 322.397656)" x="109.367032" y="322.397656">0</text>
     </g>
    </g>
    <g id="xtick_2">
     <g id="line2d_2">
      <g>
       <use style="stroke:#000000;stroke-width:0.8;" x="241.831203" xlink:href="#m0e5d415b3b" y="304"/>
      </g>
     </g>
     <g id="text_2">
      <text style="font-family:DejaVu Sans;font-size:15px;font-style:normal;font-weight:normal;text-anchor:middle;" transform="rotate(-0, 241.831203, 322.397656)" x="241.831203" y="322.397656">20000</text>
     </g>
    </g>
    <g id="xtick_3">
     <g id="line2d_3">
      <g>
       <use style="stroke:#000000;stroke-width:0.8;" x="374.295374" xlink:href="#m0e5d415b3b" y="304"/>
      </g>
     </g>
     <g id="text_3">
      <text style="font-family:DejaVu Sans;font-size:15px;font-style:normal;font-weight:normal;text-anchor:middle;" transform="rotate(-0, 374.295374, 322.397656)" x="374.295374" y="322.397656">40000</text>
     </g>
    </g>
    <g id="xtick_4">
     <g id="line2d_4">
      <g>
       <use style="stroke:#000000;stroke-width:0.8;" x="506.759545" xlink:href="#m0e5d415b3b" y="304"/>
      </g>
     </g>
     <g id="text_4">
      <text style="font-family:DejaVu Sans;font-size:15px;font-style:normal;font-weight:normal;text-anchor:middle;" transform="rotate(-0, 506.759545, 322.397656)" x="506.759545" y="322.397656">60000</text>
     </g>
    </g>
    <g id="xtick_5">
     <g id="line2d_5">
      <g>
       <use style="stroke:#000000;stroke-width:0.8;" x="639.223717" xlink:href="#m0e5d415b3b" y="304"/>
      </g>
     </g>
     <g id="text_5">
      <text style="font-family:DejaVu Sans;font-size:15px;font-style:normal;font-weight:normal;text-anchor:middle;" transform="rotate(-0, 639.223717, 322.397656)" x="639.223717" y="322.397656">80000</text>
     </g>
    </g>
    <g id="text_6">
     <text style="font-family:DejaVu Sans;font-size:15px;font-style:normal;font-weight:normal;text-anchor:middle;" transform="rotate(-0, 394.165, 340.914844)" x="394.165" y="340.914844">Episodes</text>
    </g>
   </g>
   <g id="matplotlib.axis_2">
    <g id="ytick_1">
     <g id="line2d_6">
      <defs>
       <path d="M 0 0 
L -3.5 0 
" id="m38e6dd7261" style="stroke:#000000;stroke-width:0.8;"/>
      </defs>
      <g>
       <use style="stroke:#000000;stroke-width:0.8;" x="84.53" xlink:href="#m38e6dd7261" y="290.918182"/>
      </g>
     </g>
     <g id="text_7">
      <text style="font-family:DejaVu Sans;font-size:15px;font-style:normal;font-weight:normal;text-anchor:end;" transform="rotate(-0, 77.53, 296.61701)" x="77.53" y="296.61701">0.000</text>
     </g>
    </g>
    <g id="ytick_2">
     <g id="line2d_7">
      <g>
       <use style="stroke:#000000;stroke-width:0.8;" x="84.53" xlink:href="#m38e6dd7261" y="258.213636"/>
      </g>
     </g>
     <g id="text_8">
      <text style="font-family:DejaVu Sans;font-size:15px;font-style:normal;font-weight:normal;text-anchor:end;" transform="rotate(-0, 77.53, 263.912464)" x="77.53" y="263.912464">0.005</text>
     </g>
    </g>
    <g id="ytick_3">
     <g id="line2d_8">
      <g>
       <use style="stroke:#000000;stroke-width:0.8;" x="84.53" xlink:href="#m38e6dd7261" y="225.509091"/>
      </g>
     </g>
     <g id="text_9">
      <text style="font-family:DejaVu Sans;font-size:15px;font-style:normal;font-weight:normal;text-anchor:end;" transform="rotate(-0, 77.53, 231.207919)" x="77.53" y="231.207919">0.010</text>
     </g>
    </g>
    <g id="ytick_4">
     <g id="line2d_9">
      <g>
       <use style="stroke:#000000;stroke-width:0.8;" x="84.53" xlink:href="#m38e6dd7261" y="192.804545"/>
      </g>
     </g>
     <g id="text_10">
      <text style="font-family:DejaVu Sans;font-size:15px;font-style:normal;font-weight:normal;text-anchor:end;" transform="rotate(-0, 77.53, 198.503374)" x="77.53" y="198.503374">0.015</text>
     </g>
    </g>
    <g id="ytick_5">
     <g id="line2d_10">
      <g>
       <use style="stroke:#000000;stroke-width:0.8;" x="84.53" xlink:href="#m38e6dd7261" y="160.1"/>
      </g>
     </g>
     <g id="text_11">
      <text style="font-family:DejaVu Sans;font-size:15px;font-style:normal;font-weight:normal;text-anchor:end;" transform="rotate(-0, 77.53, 165.798828)" x="77.53" y="165.798828">0.020</text>
     </g>
    </g>
    <g id="ytick_6">
     <g id="line2d_11">
      <g>
       <use style="stroke:#000000;stroke-width:0.8;" x="84.53" xlink:href="#m38e6dd7261" y="127.395455"/>
      </g>
     </g>
     <g id="text_12">
      <text style="font-family:DejaVu Sans;font-size:15px;font-style:normal;font-weight:normal;text-anchor:end;" transform="rotate(-0, 77.53, 133.094283)" x="77.53" y="133.094283">0.025</text>
     </g>
    </g>
    <g id="ytick_7">
     <g id="line2d_12">
      <g>
       <use style="stroke:#000000;stroke-width:0.8;" x="84.53" xlink:href="#m38e6dd7261" y="94.690909"/>
      </g>
     </g>
     <g id="text_13">
      <text style="font-family:DejaVu Sans;font-size:15px;font-style:normal;font-weight:normal;text-anchor:end;" transform="rotate(-0, 77.53, 100.389737)" x="77.53" y="100.389737">0.030</text>
     </g>
    </g>
    <g id="ytick_8">
     <g id="line2d_13">
      <g>
       <use style="stroke:#000000;stroke-width:0.8;" x="84.53" xlink:href="#m38e6dd7261" y="61.986364"/>
      </g>
     </g>
     <g id="text_14">
      <text style="font-family:DejaVu Sans;font-size:15px;font-style:normal;font-weight:normal;text-anchor:end;" transform="rotate(-0, 77.53, 67.685192)" x="77.53" y="67.685192">0.035</text>
     </g>
    </g>
    <g id="ytick_9">
     <g id="line2d_14">
      <g>
       <use style="stroke:#000000;stroke-width:0.8;" x="84.53" xlink:href="#m38e6dd7261" y="29.281818"/>
      </g>
     </g>
     <g id="text_15">
      <text style="font-family:DejaVu Sans;font-size:15px;font-style:normal;font-weight:normal;text-anchor:end;" transform="rotate(-0, 77.53, 34.980646)" x="77.53" y="34.980646">0.040</text>
     </g>
    </g>
    <g id="text_16">
     <text style="font-family:DejaVu Sans;font-size:15px;font-style:normal;font-weight:normal;text-anchor:middle;" transform="rotate(-90, 27.468281, 160.1)" x="27.468281" y="160.1">Success Rate</text>
    </g>
   </g>
   <g id="line2d_15">
    <path clip-path="url(#p2655eae733)" d="M 112.678636 290.918182 
L 195.468743 290.918182 
L 198.780348 225.509091 
L 202.091952 290.918182 
L 261.700829 290.918182 
L 265.012433 225.509091 
L 268.324037 290.918182 
L 294.816872 290.918182 
L 298.128476 225.509091 
L 301.44008 290.918182 
L 321.309706 290.918182 
L 324.62131 225.509091 
L 331.244519 225.509091 
L 334.556123 290.918182 
L 341.179332 290.918182 
L 344.490936 225.509091 
L 347.80254 290.918182 
L 351.114144 225.509091 
L 354.425749 225.509091 
L 357.737353 290.918182 
L 377.606979 290.918182 
L 380.918583 225.509091 
L 384.230187 290.918182 
L 400.788209 290.918182 
L 404.099813 160.1 
L 410.723021 290.918182 
L 423.969439 290.918182 
L 427.281043 225.509091 
L 430.592647 290.918182 
L 447.150668 290.918182 
L 450.462273 225.509091 
L 453.773877 290.918182 
L 467.020294 290.918182 
L 470.331898 225.509091 
L 473.643503 290.918182 
L 476.955107 225.509091 
L 480.266711 290.918182 
L 490.201524 290.918182 
L 493.513128 225.509091 
L 496.824733 290.918182 
L 500.136337 225.509091 
L 503.447941 225.509091 
L 506.759545 290.918182 
L 510.07115 290.918182 
L 513.382754 225.509091 
L 516.694358 290.918182 
L 520.005963 225.509091 
L 526.629171 225.509091 
L 529.940775 290.918182 
L 533.25238 160.1 
L 536.563984 290.918182 
L 539.875588 290.918182 
L 543.187193 225.509091 
L 546.498797 290.918182 
L 556.43361 290.918182 
L 559.745214 225.509091 
L 563.056818 290.918182 
L 569.680027 290.918182 
L 572.991631 225.509091 
L 576.303235 290.918182 
L 586.238048 290.918182 
L 589.549652 225.509091 
L 592.861257 290.918182 
L 599.484465 290.918182 
L 602.79607 225.509091 
L 606.107674 290.918182 
L 619.354091 290.918182 
L 622.665695 94.690909 
L 625.977299 290.918182 
L 629.288904 290.918182 
L 632.600508 225.509091 
L 635.912112 290.918182 
L 649.158529 290.918182 
L 652.470134 225.509091 
L 659.093342 225.509091 
L 662.404947 290.918182 
L 672.339759 290.918182 
L 675.651364 225.509091 
L 675.651364 225.509091 
" style="fill:none;stroke:#1f77b4;stroke-linecap:square;stroke-width:1.5;"/>
   </g>
   <g id="line2d_16">
    <path clip-path="url(#p2655eae733)" d="M 112.678636 290.918182 
L 195.468743 290.918182 
L 198.780348 225.509091 
L 202.091952 290.918182 
L 212.026765 290.918182 
L 215.338369 225.509091 
L 218.649973 225.509091 
L 221.961578 290.918182 
L 248.454412 290.918182 
L 251.766016 225.509091 
L 255.07762 225.509091 
L 258.389225 290.918182 
L 268.324037 290.918182 
L 271.635642 160.1 
L 274.947246 290.918182 
L 281.570455 290.918182 
L 288.193663 160.1 
L 291.505267 290.918182 
L 321.309706 290.918182 
L 324.62131 225.509091 
L 327.932914 290.918182 
L 331.244519 290.918182 
L 334.556123 225.509091 
L 337.867727 225.509091 
L 341.179332 290.918182 
L 344.490936 225.509091 
L 347.80254 290.918182 
L 351.114144 225.509091 
L 357.737353 225.509091 
L 361.048957 290.918182 
L 377.606979 290.918182 
L 380.918583 29.281818 
L 384.230187 290.918182 
L 387.541791 225.509091 
L 390.853396 290.918182 
L 394.165 225.509091 
L 397.476604 290.918182 
L 404.099813 160.1 
L 407.411417 290.918182 
L 417.34623 290.918182 
L 420.657834 225.509091 
L 423.969439 290.918182 
L 427.281043 290.918182 
L 430.592647 225.509091 
L 433.904251 290.918182 
L 440.52746 290.918182 
L 443.839064 225.509091 
L 447.150668 290.918182 
L 450.462273 225.509091 
L 453.773877 290.918182 
L 457.085481 225.509091 
L 460.397086 290.918182 
L 470.331898 290.918182 
L 473.643503 94.690909 
L 476.955107 290.918182 
L 480.266711 225.509091 
L 483.578316 290.918182 
L 486.88992 225.509091 
L 490.201524 290.918182 
L 493.513128 290.918182 
L 496.824733 225.509091 
L 500.136337 94.690909 
L 503.447941 290.918182 
L 510.07115 290.918182 
L 513.382754 225.509091 
L 516.694358 290.918182 
L 526.629171 290.918182 
L 529.940775 160.1 
L 533.25238 225.509091 
L 539.875588 94.690909 
L 543.187193 290.918182 
L 546.498797 94.690909 
L 549.810401 290.918182 
L 556.43361 290.918182 
L 559.745214 160.1 
L 563.056818 225.509091 
L 566.368422 225.509091 
L 569.680027 160.1 
L 572.991631 225.509091 
L 576.303235 29.281818 
L 579.61484 225.509091 
L 589.549652 225.509091 
L 592.861257 290.918182 
L 599.484465 290.918182 
L 602.79607 160.1 
L 609.419278 160.1 
L 612.730882 290.918182 
L 616.042487 290.918182 
L 619.354091 94.690909 
L 622.665695 290.918182 
L 625.977299 225.509091 
L 632.600508 225.509091 
L 635.912112 290.918182 
L 639.223717 290.918182 
L 645.846925 160.1 
L 649.158529 225.509091 
L 655.781738 225.509091 
L 659.093342 290.918182 
L 665.716551 290.918182 
L 669.028155 225.509091 
L 675.651364 225.509091 
L 675.651364 225.509091 
" style="fill:none;stroke:#ff7f0e;stroke-linecap:square;stroke-width:1.5;"/>
   </g>
   <g id="patch_3">
    <path d="M 84.53 304 
L 84.53 16.2 
" style="fill:none;stroke:#000000;stroke-linecap:square;stroke-linejoin:miter;stroke-width:0.8;"/>
   </g>
   <g id="patch_4">
    <path d="M 703.8 304 
L 703.8 16.2 
" style="fill:none;stroke:#000000;stroke-linecap:square;stroke-linejoin:miter;stroke-width:0.8;"/>
   </g>
   <g id="patch_5">
    <path d="M 84.53 304 
L 703.8 304 
" style="fill:none;stroke:#000000;stroke-linecap:square;stroke-linejoin:miter;stroke-width:0.8;"/>
   </g>
   <g id="patch_6">
    <path d="M 84.53 16.2 
L 703.8 16.2 
" style="fill:none;stroke:#000000;stroke-linecap:square;stroke-linejoin:miter;stroke-width:0.8;"/>
   </g>
   <g id="legend_1">
    <g id="patch_7">
     <path d="M 95.03 72.234375 
L 315.558125 72.234375 
Q 318.558125 72.234375 318.558125 69.234375 
L 318.558125 26.7 
Q 318.558125 23.7 315.558125 23.7 
L 95.03 23.7 
Q 92.03 23.7 92.03 26.7 
L 92.03 69.234375 
Q 92.03 72.234375 95.03 72.234375 
z
" style="fill:#ffffff;opacity:0.8;stroke:#cccccc;stroke-linejoin:miter;"/>
    </g>
    <g id="line2d_17">
     <path d="M 98.03 35.847656 
L 128.03 35.847656 
" style="fill:none;stroke:#1f77b4;stroke-linecap:square;stroke-width:1.5;"/>
    </g>
    <g id="line2d_18"/>
    <g id="text_17">
     <text style="font-family:DejaVu Sans;font-size:15px;font-style:normal;font-weight:normal;text-anchor:start;" transform="rotate(-0, 140.03, 41.097656)" x="140.03" y="41.097656">training success rate</text>
    </g>
    <g id="line2d_19">
     <path d="M 98.03 57.864844 
L 128.03 57.864844 
" style="fill:none;stroke:#ff7f0e;stroke-linecap:square;stroke-width:1.5;"/>
    </g>
    <g id="line2d_20"/>
    <g id="text_18">
     <text style="font-family:DejaVu Sans;font-size:15px;font-style:normal;font-weight:normal;text-anchor:start;" transform="rotate(-0, 140.03, 63.114844)" x="140.03" y="63.114844">validation success rate</text>
    </g>
   </g>
  </g>
 </g>
 <defs>
  <clipPath id="p2655eae733">
   <rect height="287.8" width="619.27" x="84.53" y="16.2"/>
  </clipPath>
 </defs>
</svg>
