<?xml version="1.0" encoding="utf-8" standalone="no"?>
<!DOCTYPE svg PUBLIC "-//W3C//DTD SVG 1.1//EN"
  "http://www.w3.org/Graphics/SVG/1.1/DTD/svg11.dtd">
<!-- Created with matplotlib (https://matplotlib.org/) -->
<svg height="360pt" version="1.1" viewBox="0 0 720 360" width="720pt" xmlns="http://www.w3.org/2000/svg" xmlns:xlink="http://www.w3.org/1999/xlink">
 <defs>
  <style type="text/css">
*{stroke-linecap:butt;stroke-linejoin:round;}
  </style>
 </defs>
 <g id="figure_1">
  <g id="patch_1">
   <path d="M 0 360 
L 720 360 
L 720 0 
L 0 0 
z
" style="fill:#ffffff;"/>
  </g>
  <g id="axes_1">
   <g id="patch_2">
    <path d="M 73.28 304 
L 703.8 304 
L 703.8 16.2 
L 73.28 16.2 
z
" style="fill:#ffffff;"/>
   </g>
   <g id="matplotlib.axis_1">
    <g id="xtick_1">
     <g id="line2d_1">
      <defs>
       <path d="M 0 0 
L 0 3.5 
" id="m58fbc9147f" style="stroke:#000000;stroke-width:0.8;"/>
      </defs>
      <g>
       <use style="stroke:#000000;stroke-width:0.8;" x="98.85828" xlink:href="#m58fbc9147f" y="304"/>
      </g>
     </g>
     <g id="text_1">
      <text style="font-family:DejaVu Sans;font-size:15px;font-style:normal;font-weight:normal;text-anchor:middle;" transform="rotate(-0, 98.85828, 322.397656)" x="98.85828" y="322.397656">0</text>
     </g>
    </g>
    <g id="xtick_2">
     <g id="line2d_2">
      <g>
       <use style="stroke:#000000;stroke-width:0.8;" x="222.127097" xlink:href="#m58fbc9147f" y="304"/>
      </g>
     </g>
     <g id="text_2">
      <text style="font-family:DejaVu Sans;font-size:15px;font-style:normal;font-weight:normal;text-anchor:middle;" transform="rotate(-0, 222.127097, 322.397656)" x="222.127097" y="322.397656">20000</text>
     </g>
    </g>
    <g id="xtick_3">
     <g id="line2d_3">
      <g>
       <use style="stroke:#000000;stroke-width:0.8;" x="345.395914" xlink:href="#m58fbc9147f" y="304"/>
      </g>
     </g>
     <g id="text_3">
      <text style="font-family:DejaVu Sans;font-size:15px;font-style:normal;font-weight:normal;text-anchor:middle;" transform="rotate(-0, 345.395914, 322.397656)" x="345.395914" y="322.397656">40000</text>
     </g>
    </g>
    <g id="xtick_4">
     <g id="line2d_4">
      <g>
       <use style="stroke:#000000;stroke-width:0.8;" x="468.664731" xlink:href="#m58fbc9147f" y="304"/>
      </g>
     </g>
     <g id="text_4">
      <text style="font-family:DejaVu Sans;font-size:15px;font-style:normal;font-weight:normal;text-anchor:middle;" transform="rotate(-0, 468.664731, 322.397656)" x="468.664731" y="322.397656">60000</text>
     </g>
    </g>
    <g id="xtick_5">
     <g id="line2d_5">
      <g>
       <use style="stroke:#000000;stroke-width:0.8;" x="591.933548" xlink:href="#m58fbc9147f" y="304"/>
      </g>
     </g>
     <g id="text_5">
      <text style="font-family:DejaVu Sans;font-size:15px;font-style:normal;font-weight:normal;text-anchor:middle;" transform="rotate(-0, 591.933548, 322.397656)" x="591.933548" y="322.397656">80000</text>
     </g>
    </g>
    <g id="text_6">
     <text style="font-family:DejaVu Sans;font-size:15px;font-style:normal;font-weight:normal;text-anchor:middle;" transform="rotate(-0, 388.54, 340.914844)" x="388.54" y="340.914844">Episodes</text>
    </g>
   </g>
   <g id="matplotlib.axis_2">
    <g id="ytick_1">
     <g id="line2d_6">
      <defs>
       <path d="M 0 0 
L -3.5 0 
" id="m2c4fbdbbd0" style="stroke:#000000;stroke-width:0.8;"/>
      </defs>
      <g>
       <use style="stroke:#000000;stroke-width:0.8;" x="73.28" xlink:href="#m2c4fbdbbd0" y="272.816963"/>
      </g>
     </g>
     <g id="text_7">
      <text style="font-family:DejaVu Sans;font-size:15px;font-style:normal;font-weight:normal;text-anchor:end;" transform="rotate(-0, 66.28, 278.515791)" x="66.28" y="278.515791">−70</text>
     </g>
    </g>
    <g id="ytick_2">
     <g id="line2d_7">
      <g>
       <use style="stroke:#000000;stroke-width:0.8;" x="73.28" xlink:href="#m2c4fbdbbd0" y="226.715554"/>
      </g>
     </g>
     <g id="text_8">
      <text style="font-family:DejaVu Sans;font-size:15px;font-style:normal;font-weight:normal;text-anchor:end;" transform="rotate(-0, 66.28, 232.414383)" x="66.28" y="232.414383">−68</text>
     </g>
    </g>
    <g id="ytick_3">
     <g id="line2d_8">
      <g>
       <use style="stroke:#000000;stroke-width:0.8;" x="73.28" xlink:href="#m2c4fbdbbd0" y="180.614146"/>
      </g>
     </g>
     <g id="text_9">
      <text style="font-family:DejaVu Sans;font-size:15px;font-style:normal;font-weight:normal;text-anchor:end;" transform="rotate(-0, 66.28, 186.312974)" x="66.28" y="186.312974">−66</text>
     </g>
    </g>
    <g id="ytick_4">
     <g id="line2d_9">
      <g>
       <use style="stroke:#000000;stroke-width:0.8;" x="73.28" xlink:href="#m2c4fbdbbd0" y="134.512737"/>
      </g>
     </g>
     <g id="text_10">
      <text style="font-family:DejaVu Sans;font-size:15px;font-style:normal;font-weight:normal;text-anchor:end;" transform="rotate(-0, 66.28, 140.211565)" x="66.28" y="140.211565">−64</text>
     </g>
    </g>
    <g id="ytick_5">
     <g id="line2d_10">
      <g>
       <use style="stroke:#000000;stroke-width:0.8;" x="73.28" xlink:href="#m2c4fbdbbd0" y="88.411328"/>
      </g>
     </g>
     <g id="text_11">
      <text style="font-family:DejaVu Sans;font-size:15px;font-style:normal;font-weight:normal;text-anchor:end;" transform="rotate(-0, 66.28, 94.110156)" x="66.28" y="94.110156">−62</text>
     </g>
    </g>
    <g id="ytick_6">
     <g id="line2d_11">
      <g>
       <use style="stroke:#000000;stroke-width:0.8;" x="73.28" xlink:href="#m2c4fbdbbd0" y="42.309919"/>
      </g>
     </g>
     <g id="text_12">
      <text style="font-family:DejaVu Sans;font-size:15px;font-style:normal;font-weight:normal;text-anchor:end;" transform="rotate(-0, 66.28, 48.008747)" x="66.28" y="48.008747">−60</text>
     </g>
    </g>
    <g id="text_13">
     <text style="font-family:DejaVu Sans;font-size:15px;font-style:normal;font-weight:normal;text-anchor:middle;" transform="rotate(-90, 27.503438, 160.1)" x="27.503438" y="160.1">Actor Loss</text>
    </g>
   </g>
   <g id="line2d_12">
    <path clip-path="url(#paf5f632292)" d="M 101.94 65.421648 
L 105.02172 46.154722 
L 108.103441 29.281818 
L 111.185161 38.06494 
L 114.266882 40.98233 
L 117.348602 61.264512 
L 120.430323 78.618225 
L 123.512043 72.740007 
L 126.593763 93.356417 
L 129.675484 104.520459 
L 132.757204 76.984107 
L 135.838925 111.393094 
L 138.920645 117.865553 
L 142.002366 130.893302 
L 145.084086 114.252185 
L 148.165806 139.015355 
L 151.247527 140.611663 
L 154.329247 122.496727 
L 157.410968 133.062571 
L 160.492688 147.460644 
L 163.574409 145.552356 
L 166.656129 158.598922 
L 169.737849 160.448121 
L 172.81957 163.732537 
L 175.90129 159.527478 
L 182.064731 169.999587 
L 185.146452 151.828903 
L 188.228172 169.696048 
L 191.309892 173.215417 
L 194.391613 168.323438 
L 197.473333 175.744326 
L 200.555054 169.940322 
L 203.636774 160.123302 
L 206.718495 178.465277 
L 209.800215 177.110253 
L 215.963656 187.524679 
L 219.045376 181.454595 
L 222.127097 176.107658 
L 225.208817 191.644971 
L 228.290538 201.999428 
L 231.372258 199.118618 
L 234.453978 200.75256 
L 237.535699 217.413285 
L 240.617419 201.448274 
L 243.69914 206.824931 
L 246.78086 205.645242 
L 249.862581 211.099631 
L 252.944301 209.720866 
L 256.026022 229.276119 
L 259.107742 209.049069 
L 262.189462 216.517264 
L 265.271183 216.020275 
L 268.352903 220.397855 
L 271.434624 222.702539 
L 274.516344 226.850969 
L 277.598065 219.768793 
L 280.679785 225.003353 
L 283.761505 232.805687 
L 286.843226 223.300648 
L 289.924946 226.936087 
L 293.006667 232.344751 
L 296.088387 236.45625 
L 299.170108 234.803666 
L 302.251828 226.876997 
L 305.333548 227.895946 
L 308.415269 227.902805 
L 311.496989 228.671854 
L 314.57871 238.730333 
L 317.66043 226.688296 
L 320.742151 232.966426 
L 323.823871 232.615931 
L 326.905591 228.83013 
L 329.987312 229.982912 
L 333.069032 233.967438 
L 336.150753 244.684172 
L 339.232473 249.608334 
L 342.314194 246.843945 
L 345.395914 243.69125 
L 348.477634 234.967922 
L 351.559355 239.134642 
L 354.641075 248.438846 
L 357.722796 242.843591 
L 360.804516 241.114331 
L 363.886237 240.318551 
L 366.967957 238.131168 
L 370.049677 247.203409 
L 373.131398 238.767089 
L 376.213118 239.923915 
L 379.294839 241.210352 
L 382.376559 247.231723 
L 385.45828 237.28175 
L 388.54 242.139788 
L 391.62172 241.557857 
L 394.703441 239.826135 
L 397.785161 250.352938 
L 400.866882 256.027506 
L 403.948602 246.62183 
L 407.030323 254.697103 
L 410.112043 252.992992 
L 413.193763 254.83498 
L 416.275484 246.043769 
L 419.357204 251.446805 
L 422.438925 252.914557 
L 425.520645 254.6352 
L 428.602366 258.961427 
L 431.684086 258.104272 
L 434.765806 248.3124 
L 437.847527 249.517413 
L 440.929247 257.99295 
L 444.010968 255.289058 
L 447.092688 261.476971 
L 450.174409 251.638671 
L 453.256129 250.967754 
L 456.337849 251.554785 
L 459.41957 250.378965 
L 462.50129 255.618977 
L 465.583011 247.268654 
L 468.664731 251.413039 
L 471.746452 263.596295 
L 474.828172 251.91038 
L 477.909892 254.834452 
L 480.991613 253.398356 
L 484.073333 264.713552 
L 487.155054 253.178879 
L 490.236774 256.753644 
L 493.318495 258.933114 
L 496.400215 257.603766 
L 499.481935 256.854941 
L 502.563656 262.746525 
L 505.645376 267.876271 
L 508.727097 259.308581 
L 511.808817 253.752192 
L 514.890538 269.686955 
L 517.972258 258.782047 
L 521.053978 256.238718 
L 524.135699 262.089677 
L 527.217419 256.921418 
L 530.29914 259.739797 
L 533.38086 261.314473 
L 536.462581 274.045893 
L 539.544301 259.870287 
L 542.626022 256.473319 
L 545.707742 259.170528 
L 548.789462 260.66466 
L 551.871183 255.812954 
L 554.952903 261.254328 
L 558.034624 265.776116 
L 561.116344 273.111534 
L 564.198065 267.832832 
L 567.279785 266.888624 
L 570.361505 263.464573 
L 573.443226 275.346576 
L 576.524946 265.891833 
L 579.606667 260.963099 
L 582.688387 278.200303 
L 585.770108 264.632303 
L 588.851828 270.542352 
L 591.933548 273.022723 
L 595.015269 271.537912 
L 598.096989 258.946831 
L 601.17871 272.539276 
L 604.26043 269.912763 
L 607.342151 257.903964 
L 610.423871 273.074251 
L 613.505591 271.911973 
L 616.587312 275.126571 
L 619.669032 273.187155 
L 622.750753 269.183284 
L 625.832473 268.185438 
L 628.914194 277.098346 
L 631.995914 270.752157 
L 635.077634 256.823638 
L 638.159355 271.878911 
L 641.241075 275.786233 
L 644.322796 273.376207 
L 647.404516 276.378891 
L 650.486237 290.918182 
L 653.567957 275.69795 
L 656.649677 272.118436 
L 659.731398 274.47834 
L 662.813118 272.765963 
L 665.894839 282.212967 
L 668.976559 279.996391 
L 672.05828 279.15858 
L 675.14 272.784253 
L 675.14 272.784253 
" style="fill:none;stroke:#1f77b4;stroke-linecap:square;stroke-width:1.5;"/>
   </g>
   <g id="patch_3">
    <path d="M 73.28 304 
L 73.28 16.2 
" style="fill:none;stroke:#000000;stroke-linecap:square;stroke-linejoin:miter;stroke-width:0.8;"/>
   </g>
   <g id="patch_4">
    <path d="M 703.8 304 
L 703.8 16.2 
" style="fill:none;stroke:#000000;stroke-linecap:square;stroke-linejoin:miter;stroke-width:0.8;"/>
   </g>
   <g id="patch_5">
    <path d="M 73.28 304 
L 703.8 304 
" style="fill:none;stroke:#000000;stroke-linecap:square;stroke-linejoin:miter;stroke-width:0.8;"/>
   </g>
   <g id="patch_6">
    <path d="M 73.28 16.2 
L 703.8 16.2 
" style="fill:none;stroke:#000000;stroke-linecap:square;stroke-linejoin:miter;stroke-width:0.8;"/>
   </g>
  </g>
 </g>
 <defs>
  <clipPath id="paf5f632292">
   <rect height="287.8" width="630.52" x="73.28" y="16.2"/>
  </clipPath>
 </defs>
</svg>
