<?xml version="1.0" encoding="utf-8" standalone="no"?>
<!DOCTYPE svg PUBLIC "-//W3C//DTD SVG 1.1//EN"
  "http://www.w3.org/Graphics/SVG/1.1/DTD/svg11.dtd">
<!-- Created with matplotlib (https://matplotlib.org/) -->
<svg height="360pt" version="1.1" viewBox="0 0 720 360" width="720pt" xmlns="http://www.w3.org/2000/svg" xmlns:xlink="http://www.w3.org/1999/xlink">
 <defs>
  <style type="text/css">
*{stroke-linecap:butt;stroke-linejoin:round;}
  </style>
 </defs>
 <g id="figure_1">
  <g id="patch_1">
   <path d="M 0 360 
L 720 360 
L 720 0 
L 0 0 
z
" style="fill:#ffffff;"/>
  </g>
  <g id="axes_1">
   <g id="patch_2">
    <path d="M 74.99 304 
L 703.8 304 
L 703.8 16.2 
L 74.99 16.2 
z
" style="fill:#ffffff;"/>
   </g>
   <g id="matplotlib.axis_1">
    <g id="xtick_1">
     <g id="line2d_1">
      <defs>
       <path d="M 0 0 
L 0 3.5 
" id="m05114bc6be" style="stroke:#000000;stroke-width:0.8;"/>
      </defs>
      <g>
       <use style="stroke:#000000;stroke-width:0.8;" x="100.49891" xlink:href="#m05114bc6be" y="304"/>
      </g>
     </g>
     <g id="text_1">
      <text style="font-family:DejaVu Sans;font-size:15px;font-style:normal;font-weight:normal;text-anchor:middle;" transform="rotate(-0, 100.49891, 322.397656)" x="100.49891" y="322.397656">0</text>
     </g>
    </g>
    <g id="xtick_2">
     <g id="line2d_2">
      <g>
       <use style="stroke:#000000;stroke-width:0.8;" x="223.433416" xlink:href="#m05114bc6be" y="304"/>
      </g>
     </g>
     <g id="text_2">
      <text style="font-family:DejaVu Sans;font-size:15px;font-style:normal;font-weight:normal;text-anchor:middle;" transform="rotate(-0, 223.433416, 322.397656)" x="223.433416" y="322.397656">20000</text>
     </g>
    </g>
    <g id="xtick_3">
     <g id="line2d_3">
      <g>
       <use style="stroke:#000000;stroke-width:0.8;" x="346.367923" xlink:href="#m05114bc6be" y="304"/>
      </g>
     </g>
     <g id="text_3">
      <text style="font-family:DejaVu Sans;font-size:15px;font-style:normal;font-weight:normal;text-anchor:middle;" transform="rotate(-0, 346.367923, 322.397656)" x="346.367923" y="322.397656">40000</text>
     </g>
    </g>
    <g id="xtick_4">
     <g id="line2d_4">
      <g>
       <use style="stroke:#000000;stroke-width:0.8;" x="469.302429" xlink:href="#m05114bc6be" y="304"/>
      </g>
     </g>
     <g id="text_4">
      <text style="font-family:DejaVu Sans;font-size:15px;font-style:normal;font-weight:normal;text-anchor:middle;" transform="rotate(-0, 469.302429, 322.397656)" x="469.302429" y="322.397656">60000</text>
     </g>
    </g>
    <g id="xtick_5">
     <g id="line2d_5">
      <g>
       <use style="stroke:#000000;stroke-width:0.8;" x="592.236935" xlink:href="#m05114bc6be" y="304"/>
      </g>
     </g>
     <g id="text_5">
      <text style="font-family:DejaVu Sans;font-size:15px;font-style:normal;font-weight:normal;text-anchor:middle;" transform="rotate(-0, 592.236935, 322.397656)" x="592.236935" y="322.397656">80000</text>
     </g>
    </g>
    <g id="text_6">
     <text style="font-family:DejaVu Sans;font-size:15px;font-style:normal;font-weight:normal;text-anchor:middle;" transform="rotate(-0, 389.395, 340.914844)" x="389.395" y="340.914844">Episodes</text>
    </g>
   </g>
   <g id="matplotlib.axis_2">
    <g id="ytick_1">
     <g id="line2d_6">
      <defs>
       <path d="M 0 0 
L -3.5 0 
" id="md601b0d7ca" style="stroke:#000000;stroke-width:0.8;"/>
      </defs>
      <g>
       <use style="stroke:#000000;stroke-width:0.8;" x="74.99" xlink:href="#md601b0d7ca" y="268.6806"/>
      </g>
     </g>
     <g id="text_7">
      <text style="font-family:DejaVu Sans;font-size:15px;font-style:normal;font-weight:normal;text-anchor:end;" transform="rotate(-0, 67.99, 274.379428)" x="67.99" y="274.379428">0.02</text>
     </g>
    </g>
    <g id="ytick_2">
     <g id="line2d_7">
      <g>
       <use style="stroke:#000000;stroke-width:0.8;" x="74.99" xlink:href="#md601b0d7ca" y="207.702095"/>
      </g>
     </g>
     <g id="text_8">
      <text style="font-family:DejaVu Sans;font-size:15px;font-style:normal;font-weight:normal;text-anchor:end;" transform="rotate(-0, 67.99, 213.400923)" x="67.99" y="213.400923">0.04</text>
     </g>
    </g>
    <g id="ytick_3">
     <g id="line2d_8">
      <g>
       <use style="stroke:#000000;stroke-width:0.8;" x="74.99" xlink:href="#md601b0d7ca" y="146.72359"/>
      </g>
     </g>
     <g id="text_9">
      <text style="font-family:DejaVu Sans;font-size:15px;font-style:normal;font-weight:normal;text-anchor:end;" transform="rotate(-0, 67.99, 152.422418)" x="67.99" y="152.422418">0.06</text>
     </g>
    </g>
    <g id="ytick_4">
     <g id="line2d_9">
      <g>
       <use style="stroke:#000000;stroke-width:0.8;" x="74.99" xlink:href="#md601b0d7ca" y="85.745084"/>
      </g>
     </g>
     <g id="text_10">
      <text style="font-family:DejaVu Sans;font-size:15px;font-style:normal;font-weight:normal;text-anchor:end;" transform="rotate(-0, 67.99, 91.443912)" x="67.99" y="91.443912">0.08</text>
     </g>
    </g>
    <g id="ytick_5">
     <g id="line2d_10">
      <g>
       <use style="stroke:#000000;stroke-width:0.8;" x="74.99" xlink:href="#md601b0d7ca" y="24.766579"/>
      </g>
     </g>
     <g id="text_11">
      <text style="font-family:DejaVu Sans;font-size:15px;font-style:normal;font-weight:normal;text-anchor:end;" transform="rotate(-0, 67.99, 30.465407)" x="67.99" y="30.465407">0.10</text>
     </g>
    </g>
    <g id="text_12">
     <text style="font-family:DejaVu Sans;font-size:15px;font-style:normal;font-weight:normal;text-anchor:middle;" transform="rotate(-90, 27.472031, 160.1)" x="27.472031" y="160.1">Critic Loss</text>
    </g>
   </g>
   <g id="line2d_11">
    <path clip-path="url(#p9ea9e77af7)" d="M 103.572273 225.962464 
L 106.645635 159.529274 
L 109.718998 96.70396 
L 112.792361 62.053935 
L 115.865723 84.520774 
L 118.939086 57.786026 
L 122.012449 71.735402 
L 125.085811 74.438819 
L 128.159174 99.120153 
L 131.232537 106.404691 
L 134.305899 29.281818 
L 137.379262 65.089941 
L 140.452625 83.558604 
L 143.525987 145.338447 
L 146.59935 118.507348 
L 149.672713 130.173262 
L 152.746075 99.514689 
L 155.819438 143.193418 
L 158.892801 156.381424 
L 161.966163 159.643559 
L 165.039526 164.935892 
L 168.112889 168.874688 
L 171.186251 194.925267 
L 174.259614 127.641694 
L 177.332977 131.18116 
L 180.406339 146.232843 
L 183.479702 185.57916 
L 186.553065 114.72191 
L 189.626427 133.598216 
L 192.69979 184.097038 
L 195.773152 190.546582 
L 198.846515 195.517321 
L 201.919878 145.967176 
L 204.99324 179.157148 
L 208.066603 203.189182 
L 211.139966 196.569073 
L 214.213328 237.07744 
L 217.286691 218.460088 
L 220.360054 168.675557 
L 223.433416 199.322818 
L 226.506779 205.908739 
L 229.580142 213.769566 
L 232.653504 217.429179 
L 235.726867 248.169633 
L 238.80023 253.617617 
L 241.873592 210.885055 
L 244.946955 237.500531 
L 248.020318 237.250396 
L 251.09368 250.437119 
L 254.167043 262.701192 
L 257.240406 260.680808 
L 260.313768 234.882362 
L 263.387131 237.845954 
L 266.460494 231.991167 
L 269.533856 241.161177 
L 272.607219 254.51299 
L 275.680582 250.60602 
L 278.753944 240.003352 
L 281.827307 251.640155 
L 284.90067 281.101138 
L 287.974032 247.65277 
L 291.047395 264.000222 
L 294.120758 255.213191 
L 297.19412 268.69924 
L 300.267483 267.161565 
L 303.340846 273.456497 
L 306.414208 254.295062 
L 309.487571 230.739546 
L 312.560934 262.468521 
L 315.634296 273.789841 
L 318.707659 268.054694 
L 321.781022 261.835521 
L 324.854384 268.470504 
L 327.927747 265.281192 
L 331.001109 267.266548 
L 334.074472 264.886838 
L 337.147835 284.607453 
L 340.221197 285.889997 
L 343.29456 277.816412 
L 346.367923 283.893938 
L 349.441285 280.123856 
L 352.514648 286.601609 
L 355.588011 287.182543 
L 361.734736 267.009939 
L 364.808099 274.793786 
L 367.881461 276.353576 
L 370.954824 269.778898 
L 374.028187 274.69572 
L 377.101549 270.591499 
L 380.174912 251.495822 
L 383.248275 283.302833 
L 386.321637 272.73291 
L 389.395 275.880901 
L 392.468363 270.319568 
L 395.541725 282.041243 
L 398.615088 278.817314 
L 401.688451 263.520534 
L 404.761813 270.845518 
L 407.835176 279.380188 
L 410.908539 277.017856 
L 413.981901 273.04347 
L 417.055264 278.814258 
L 420.128627 275.976168 
L 423.201989 270.407554 
L 426.275352 278.18504 
L 429.348715 279.908762 
L 432.422077 279.020579 
L 435.49544 285.187488 
L 438.568803 271.831131 
L 441.642165 277.591226 
L 444.715528 257.782764 
L 447.788891 286.511849 
L 450.862253 277.382622 
L 453.935616 268.788265 
L 457.008978 275.402366 
L 460.082341 272.243022 
L 463.155704 274.947638 
L 466.229066 269.749435 
L 469.302429 280.570242 
L 472.375792 287.075504 
L 475.449154 271.015413 
L 478.522517 281.024005 
L 481.59588 268.782035 
L 484.669242 278.185273 
L 487.742605 279.023719 
L 490.815968 277.21208 
L 493.88933 279.571357 
L 496.962693 279.51401 
L 500.036056 268.281851 
L 503.109418 277.467774 
L 506.182781 285.409454 
L 509.256144 267.851867 
L 512.329506 277.203459 
L 515.402869 279.825109 
L 518.476232 274.389096 
L 521.549594 271.317823 
L 524.622957 268.085935 
L 527.69632 275.629813 
L 530.769682 267.941414 
L 533.843045 285.588725 
L 536.916408 290.918182 
L 539.98977 261.690455 
L 543.063133 266.96717 
L 546.136496 262.05178 
L 549.209858 278.026646 
L 552.283221 270.034207 
L 555.356584 276.480685 
L 558.429946 272.9138 
L 561.503309 286.944818 
L 564.576672 265.589361 
L 567.650034 262.505946 
L 570.723397 260.554165 
L 573.79676 270.742505 
L 576.870122 276.953007 
L 579.943485 255.567763 
L 583.016848 275.436622 
L 586.09021 279.466124 
L 589.163573 272.975031 
L 592.236935 275.952259 
L 595.310298 287.920549 
L 598.383661 263.993254 
L 601.457023 283.062872 
L 604.530386 269.713033 
L 607.603749 270.962473 
L 610.677111 273.726485 
L 613.750474 275.021119 
L 616.823837 268.75954 
L 619.897199 282.398637 
L 622.970562 271.248453 
L 626.043925 266.51598 
L 629.117287 274.905743 
L 632.19065 272.080817 
L 635.264013 255.814712 
L 638.337375 260.549082 
L 641.410738 283.111329 
L 644.484101 254.717198 
L 647.557463 268.645925 
L 650.630826 284.326791 
L 653.704189 255.508599 
L 656.777551 277.415493 
L 659.850914 263.911157 
L 662.924277 269.437802 
L 665.997639 263.344767 
L 669.071002 268.000902 
L 672.144365 268.831057 
L 675.217727 263.774399 
L 675.217727 263.774399 
" style="fill:none;stroke:#1f77b4;stroke-linecap:square;stroke-width:1.5;"/>
   </g>
   <g id="patch_3">
    <path d="M 74.99 304 
L 74.99 16.2 
" style="fill:none;stroke:#000000;stroke-linecap:square;stroke-linejoin:miter;stroke-width:0.8;"/>
   </g>
   <g id="patch_4">
    <path d="M 703.8 304 
L 703.8 16.2 
" style="fill:none;stroke:#000000;stroke-linecap:square;stroke-linejoin:miter;stroke-width:0.8;"/>
   </g>
   <g id="patch_5">
    <path d="M 74.99 304 
L 703.8 304 
" style="fill:none;stroke:#000000;stroke-linecap:square;stroke-linejoin:miter;stroke-width:0.8;"/>
   </g>
   <g id="patch_6">
    <path d="M 74.99 16.2 
L 703.8 16.2 
" style="fill:none;stroke:#000000;stroke-linecap:square;stroke-linejoin:miter;stroke-width:0.8;"/>
   </g>
  </g>
 </g>
 <defs>
  <clipPath id="p9ea9e77af7">
   <rect height="287.8" width="628.81" x="74.99" y="16.2"/>
  </clipPath>
 </defs>
</svg>
