<?xml version="1.0" encoding="utf-8" standalone="no"?>
<!DOCTYPE svg PUBLIC "-//W3C//DTD SVG 1.1//EN"
  "http://www.w3.org/Graphics/SVG/1.1/DTD/svg11.dtd">
<!-- Created with matplotlib (https://matplotlib.org/) -->
<svg height="360pt" version="1.1" viewBox="0 0 720 360" width="720pt" xmlns="http://www.w3.org/2000/svg" xmlns:xlink="http://www.w3.org/1999/xlink">
 <defs>
  <style type="text/css">
*{stroke-linecap:butt;stroke-linejoin:round;}
  </style>
 </defs>
 <g id="figure_1">
  <g id="patch_1">
   <path d="M 0 360 
L 720 360 
L 720 0 
L 0 0 
z
" style="fill:#ffffff;"/>
  </g>
  <g id="axes_1">
   <g id="patch_2">
    <path d="M 60.68 304 
L 703.8 304 
L 703.8 16.2 
L 60.68 16.2 
z
" style="fill:#ffffff;"/>
   </g>
   <g id="matplotlib.axis_1">
    <g id="xtick_1">
     <g id="line2d_1">
      <defs>
       <path d="M 0 0 
L 0 3.5 
" id="m3edaaae2c2" style="stroke:#000000;stroke-width:0.8;"/>
      </defs>
      <g>
       <use style="stroke:#000000;stroke-width:0.8;" x="86.769423" xlink:href="#m3edaaae2c2" y="304"/>
      </g>
     </g>
     <g id="text_1">
      <text style="font-family:DejaVu Sans;font-size:15px;font-style:normal;font-weight:normal;text-anchor:middle;" transform="rotate(-0, 86.769423, 322.397656)" x="86.769423" y="322.397656">0</text>
     </g>
    </g>
    <g id="xtick_2">
     <g id="line2d_2">
      <g>
       <use style="stroke:#000000;stroke-width:0.8;" x="212.501584" xlink:href="#m3edaaae2c2" y="304"/>
      </g>
     </g>
     <g id="text_2">
      <text style="font-family:DejaVu Sans;font-size:15px;font-style:normal;font-weight:normal;text-anchor:middle;" transform="rotate(-0, 212.501584, 322.397656)" x="212.501584" y="322.397656">20000</text>
     </g>
    </g>
    <g id="xtick_3">
     <g id="line2d_3">
      <g>
       <use style="stroke:#000000;stroke-width:0.8;" x="338.233744" xlink:href="#m3edaaae2c2" y="304"/>
      </g>
     </g>
     <g id="text_3">
      <text style="font-family:DejaVu Sans;font-size:15px;font-style:normal;font-weight:normal;text-anchor:middle;" transform="rotate(-0, 338.233744, 322.397656)" x="338.233744" y="322.397656">40000</text>
     </g>
    </g>
    <g id="xtick_4">
     <g id="line2d_4">
      <g>
       <use style="stroke:#000000;stroke-width:0.8;" x="463.965904" xlink:href="#m3edaaae2c2" y="304"/>
      </g>
     </g>
     <g id="text_4">
      <text style="font-family:DejaVu Sans;font-size:15px;font-style:normal;font-weight:normal;text-anchor:middle;" transform="rotate(-0, 463.965904, 322.397656)" x="463.965904" y="322.397656">60000</text>
     </g>
    </g>
    <g id="xtick_5">
     <g id="line2d_5">
      <g>
       <use style="stroke:#000000;stroke-width:0.8;" x="589.698065" xlink:href="#m3edaaae2c2" y="304"/>
      </g>
     </g>
     <g id="text_5">
      <text style="font-family:DejaVu Sans;font-size:15px;font-style:normal;font-weight:normal;text-anchor:middle;" transform="rotate(-0, 589.698065, 322.397656)" x="589.698065" y="322.397656">80000</text>
     </g>
    </g>
    <g id="text_6">
     <text style="font-family:DejaVu Sans;font-size:15px;font-style:normal;font-weight:normal;text-anchor:middle;" transform="rotate(-0, 382.24, 340.914844)" x="382.24" y="340.914844">Episodes</text>
    </g>
   </g>
   <g id="matplotlib.axis_2">
    <g id="ytick_1">
     <g id="line2d_6">
      <defs>
       <path d="M 0 0 
L -3.5 0 
" id="m6881e4f834" style="stroke:#000000;stroke-width:0.8;"/>
      </defs>
      <g>
       <use style="stroke:#000000;stroke-width:0.8;" x="60.68" xlink:href="#m6881e4f834" y="290.918182"/>
      </g>
     </g>
     <g id="text_7">
      <text style="font-family:DejaVu Sans;font-size:15px;font-style:normal;font-weight:normal;text-anchor:end;" transform="rotate(-0, 53.68, 296.61701)" x="53.68" y="296.61701">0</text>
     </g>
    </g>
    <g id="ytick_2">
     <g id="line2d_7">
      <g>
       <use style="stroke:#000000;stroke-width:0.8;" x="60.68" xlink:href="#m6881e4f834" y="231.721509"/>
      </g>
     </g>
     <g id="text_8">
      <text style="font-family:DejaVu Sans;font-size:15px;font-style:normal;font-weight:normal;text-anchor:end;" transform="rotate(-0, 53.68, 237.420337)" x="53.68" y="237.420337">10</text>
     </g>
    </g>
    <g id="ytick_3">
     <g id="line2d_8">
      <g>
       <use style="stroke:#000000;stroke-width:0.8;" x="60.68" xlink:href="#m6881e4f834" y="172.524835"/>
      </g>
     </g>
     <g id="text_9">
      <text style="font-family:DejaVu Sans;font-size:15px;font-style:normal;font-weight:normal;text-anchor:end;" transform="rotate(-0, 53.68, 178.223663)" x="53.68" y="178.223663">20</text>
     </g>
    </g>
    <g id="ytick_4">
     <g id="line2d_9">
      <g>
       <use style="stroke:#000000;stroke-width:0.8;" x="60.68" xlink:href="#m6881e4f834" y="113.328162"/>
      </g>
     </g>
     <g id="text_10">
      <text style="font-family:DejaVu Sans;font-size:15px;font-style:normal;font-weight:normal;text-anchor:end;" transform="rotate(-0, 53.68, 119.02699)" x="53.68" y="119.02699">30</text>
     </g>
    </g>
    <g id="ytick_5">
     <g id="line2d_10">
      <g>
       <use style="stroke:#000000;stroke-width:0.8;" x="60.68" xlink:href="#m6881e4f834" y="54.131489"/>
      </g>
     </g>
     <g id="text_11">
      <text style="font-family:DejaVu Sans;font-size:15px;font-style:normal;font-weight:normal;text-anchor:end;" transform="rotate(-0, 53.68, 59.830317)" x="53.68" y="59.830317">40</text>
     </g>
    </g>
    <g id="text_12">
     <text style="font-family:DejaVu Sans;font-size:15px;font-style:normal;font-weight:normal;text-anchor:middle;" transform="rotate(-90, 27.472969, 160.1)" x="27.472969" y="160.1">Reward Components Mean (Max 50)</text>
    </g>
   </g>
   <g id="line2d_11">
    <path clip-path="url(#pb00cc3b531)" d="M 89.912727 157.252732 
L 93.056031 132.967967 
L 96.199335 119.845248 
L 99.342639 109.450713 
L 102.485943 88.494961 
L 105.629247 77.177103 
L 108.772551 81.399621 
L 111.915855 72.331402 
L 115.059159 78.252772 
L 118.202463 76.527474 
L 121.345767 68.636908 
L 124.489071 65.965831 
L 127.632375 63.447413 
L 130.775679 68.244328 
L 133.918983 69.803702 
L 137.062287 64.975445 
L 140.205591 63.477463 
L 143.348895 67.237218 
L 146.492199 52.092917 
L 149.635503 57.965899 
L 152.778807 55.83004 
L 155.922111 50.393833 
L 159.065415 51.874032 
L 162.208719 60.275515 
L 165.352023 51.2551 
L 168.495327 52.666622 
L 171.638631 45.967069 
L 174.781935 44.761467 
L 177.925239 49.045504 
L 181.068543 46.721829 
L 184.211848 50.144295 
L 187.355152 49.724314 
L 190.498456 47.525915 
L 193.64176 40.733976 
L 196.785064 49.42932 
L 199.928368 40.47459 
L 203.071672 51.255084 
L 206.214976 51.492962 
L 209.35828 48.377625 
L 212.501584 51.577695 
L 215.644888 46.691294 
L 218.788192 45.978237 
L 221.931496 44.182702 
L 225.0748 46.015324 
L 228.218104 45.102924 
L 231.361408 41.21676 
L 234.504712 37.947031 
L 237.648016 42.454787 
L 243.934624 49.127029 
L 247.077928 42.124567 
L 250.221232 46.331568 
L 253.364536 39.513315 
L 256.50784 37.215325 
L 259.651144 40.431776 
L 262.794448 44.138415 
L 265.937752 48.837995 
L 269.081056 36.585868 
L 272.22436 47.645362 
L 275.367664 38.764696 
L 278.510968 41.818642 
L 281.654272 37.968183 
L 284.797576 44.018151 
L 287.94088 42.129856 
L 291.084184 36.19615 
L 294.227488 40.690708 
L 297.370792 42.178612 
L 300.514096 43.989951 
L 303.6574 44.040752 
L 306.800704 37.210046 
L 309.944008 38.693981 
L 313.087312 34.185642 
L 316.230616 41.442737 
L 319.37392 36.246459 
L 322.517224 36.834626 
L 325.660528 40.225041 
L 328.803832 41.489918 
L 331.947136 32.392006 
L 335.09044 37.198522 
L 338.233744 36.018664 
L 341.377048 33.682009 
L 344.520352 46.724793 
L 347.663656 35.505458 
L 350.80696 32.201849 
L 353.950264 39.629173 
L 357.093568 42.955658 
L 360.236872 34.672995 
L 363.380176 37.653644 
L 366.52348 37.669113 
L 369.666784 38.781057 
L 372.810088 35.727129 
L 375.953392 35.284117 
L 382.24 39.713973 
L 385.383304 36.408885 
L 388.526608 36.302424 
L 391.669912 36.535098 
L 394.813216 37.507505 
L 397.95652 36.653654 
L 401.099824 35.276141 
L 404.243128 35.503787 
L 407.386432 38.961449 
L 410.529736 31.941422 
L 413.67304 41.356953 
L 416.816344 35.873442 
L 419.959648 35.813699 
L 423.102952 38.387467 
L 426.246256 36.643664 
L 429.38956 36.805675 
L 432.532864 37.723613 
L 435.676168 37.846605 
L 438.819472 39.689306 
L 441.962776 38.232145 
L 445.10608 34.60582 
L 448.249384 37.051948 
L 451.392688 40.842598 
L 454.535992 39.51146 
L 457.679296 39.199712 
L 460.8226 31.431684 
L 463.965904 37.846264 
L 470.252512 35.534613 
L 473.395816 34.816781 
L 476.53912 31.169714 
L 479.682424 37.319929 
L 482.825728 41.656929 
L 485.969032 37.761995 
L 489.112336 31.254373 
L 492.25564 37.10099 
L 495.398944 37.654374 
L 498.542248 40.665513 
L 501.685552 34.016922 
L 504.828856 38.828129 
L 507.97216 32.412717 
L 511.115464 32.383445 
L 514.258768 32.724163 
L 517.402072 35.547471 
L 520.545376 35.238024 
L 523.68868 36.784612 
L 526.831984 39.817844 
L 529.975288 36.125746 
L 533.118592 34.363634 
L 536.261896 31.791298 
L 539.4052 35.338891 
L 542.548504 37.607189 
L 545.691808 31.88364 
L 548.835112 36.053 
L 551.978416 34.537484 
L 555.12172 37.547618 
L 558.265024 30.205877 
L 561.408328 39.330709 
L 564.551632 35.543786 
L 570.83824 33.273853 
L 573.981544 37.231132 
L 577.124848 30.659184 
L 580.268152 37.026303 
L 583.411457 31.431763 
L 586.554761 36.491307 
L 589.698065 31.070965 
L 592.841369 31.198301 
L 595.984673 34.560763 
L 599.127977 32.366912 
L 602.271281 29.281818 
L 605.414585 35.221091 
L 608.557889 32.502345 
L 611.701193 30.120293 
L 614.844497 36.453419 
L 617.987801 33.747305 
L 621.131105 32.00712 
L 624.274409 34.219014 
L 627.417713 32.650647 
L 630.561017 33.517627 
L 633.704321 34.565911 
L 636.847625 33.845766 
L 639.990929 37.114932 
L 643.134233 34.682473 
L 646.277537 36.576683 
L 649.420841 34.524263 
L 652.564145 40.551856 
L 655.707449 32.07327 
L 658.850753 38.954863 
L 661.994057 36.963187 
L 665.137361 34.420535 
L 668.280665 37.599695 
L 671.423969 35.627531 
L 674.567273 36.417393 
L 674.567273 36.417393 
" style="fill:none;stroke:#1f77b4;stroke-linecap:square;stroke-width:1.5;"/>
   </g>
   <g id="line2d_12">
    <path clip-path="url(#pb00cc3b531)" d="M 89.912727 98.249086 
L 93.056031 92.853894 
L 96.199335 69.718957 
L 99.342639 67.233933 
L 102.485943 67.271044 
L 105.629247 58.099355 
L 108.772551 54.88513 
L 111.915855 52.146106 
L 115.059159 59.385232 
L 118.202463 58.164297 
L 121.345767 63.517578 
L 124.489071 50.298179 
L 127.632375 53.89368 
L 130.775679 50.361466 
L 133.918983 56.743926 
L 140.205591 52.465538 
L 143.348895 56.093692 
L 146.492199 45.487729 
L 149.635503 55.538249 
L 152.778807 48.985499 
L 155.922111 50.915311 
L 159.065415 47.089678 
L 162.208719 52.635302 
L 165.352023 52.440812 
L 168.495327 46.898722 
L 171.638631 42.377996 
L 174.781935 42.210841 
L 177.925239 48.667658 
L 181.068543 51.487322 
L 184.211848 42.679694 
L 187.355152 49.594226 
L 190.498456 41.580094 
L 193.64176 48.303345 
L 196.785064 47.277214 
L 199.928368 41.38622 
L 203.071672 47.041678 
L 206.214976 51.737486 
L 209.35828 46.661149 
L 212.501584 47.524127 
L 215.644888 47.61078 
L 218.788192 47.092244 
L 221.931496 39.687661 
L 225.0748 49.190428 
L 231.361408 47.685338 
L 234.504712 43.425948 
L 237.648016 44.574901 
L 240.79132 49.070783 
L 243.934624 41.383936 
L 247.077928 48.071594 
L 250.221232 46.257767 
L 253.364536 46.983554 
L 256.50784 39.23216 
L 259.651144 41.016056 
L 262.794448 46.950054 
L 265.937752 48.745177 
L 269.081056 46.254148 
L 272.22436 50.118672 
L 275.367664 38.3721 
L 278.510968 38.015095 
L 281.654272 43.204582 
L 284.797576 38.476167 
L 287.94088 45.160241 
L 291.084184 42.766662 
L 294.227488 40.893645 
L 297.370792 39.631591 
L 300.514096 43.397454 
L 303.6574 47.657967 
L 306.800704 40.813874 
L 309.944008 41.963955 
L 313.087312 36.06073 
L 316.230616 49.082901 
L 319.37392 40.641199 
L 322.517224 42.386395 
L 325.660528 45.421318 
L 328.803832 41.395518 
L 331.947136 38.991555 
L 335.09044 40.399969 
L 338.233744 38.291832 
L 341.377048 36.78591 
L 344.520352 43.447753 
L 347.663656 42.355987 
L 350.80696 35.199687 
L 353.950264 46.312258 
L 357.093568 45.737346 
L 360.236872 37.14221 
L 363.380176 45.163568 
L 366.52348 41.946542 
L 369.666784 43.829726 
L 372.810088 37.705636 
L 375.953392 40.451818 
L 379.096696 38.199193 
L 382.24 44.38609 
L 385.383304 45.696058 
L 388.526608 42.035166 
L 391.669912 41.261125 
L 394.813216 48.694259 
L 397.95652 39.630203 
L 401.099824 37.221061 
L 404.243128 42.553394 
L 407.386432 44.721171 
L 410.529736 33.585084 
L 413.67304 45.074745 
L 416.816344 37.816099 
L 419.959648 40.895871 
L 423.102952 37.100557 
L 426.246256 37.647978 
L 429.38956 37.878752 
L 432.532864 43.368081 
L 435.676168 42.709847 
L 438.819472 41.440446 
L 441.962776 38.220486 
L 448.249384 40.565398 
L 451.392688 46.93513 
L 454.535992 44.949498 
L 457.679296 45.053874 
L 460.8226 37.757959 
L 463.965904 41.177261 
L 467.109208 40.027912 
L 470.252512 41.789779 
L 473.395816 42.34267 
L 476.53912 39.566639 
L 479.682424 36.275461 
L 482.825728 44.405993 
L 485.969032 42.463342 
L 489.112336 37.379297 
L 492.25564 35.161379 
L 495.398944 39.912789 
L 498.542248 40.938254 
L 501.685552 44.82681 
L 504.828856 38.047074 
L 507.97216 36.994876 
L 511.115464 45.440327 
L 514.258768 42.342717 
L 517.402072 40.40518 
L 520.545376 37.50071 
L 523.68868 38.704536 
L 526.831984 41.33552 
L 529.975288 44.171965 
L 533.118592 38.752936 
L 536.261896 39.220957 
L 539.4052 41.674377 
L 542.548504 42.361934 
L 545.691808 35.210428 
L 548.835112 41.692638 
L 555.12172 42.747284 
L 558.265024 44.082034 
L 561.408328 42.698418 
L 564.551632 38.132861 
L 567.694936 35.187181 
L 570.83824 34.78172 
L 573.981544 40.979872 
L 577.124848 39.358362 
L 580.268152 41.874967 
L 583.411457 39.438548 
L 586.554761 37.177329 
L 589.698065 37.644998 
L 592.841369 35.9334 
L 595.984673 43.999772 
L 599.127977 38.957149 
L 602.271281 38.267356 
L 605.414585 37.996271 
L 608.557889 38.328796 
L 611.701193 36.382296 
L 614.844497 39.405936 
L 617.987801 41.856069 
L 621.131105 38.273292 
L 624.274409 39.70902 
L 627.417713 32.88766 
L 630.561017 35.594503 
L 633.704321 37.449246 
L 636.847625 40.681888 
L 639.990929 40.986667 
L 643.134233 37.962068 
L 646.277537 42.074389 
L 649.420841 37.758448 
L 652.564145 42.599822 
L 655.707449 39.720362 
L 658.850753 36.994882 
L 661.994057 41.295885 
L 665.137361 37.054767 
L 668.280665 38.231961 
L 671.423969 40.613498 
L 674.567273 38.170383 
L 674.567273 38.170383 
" style="fill:none;stroke:#ff7f0e;stroke-linecap:square;stroke-width:1.5;"/>
   </g>
   <g id="line2d_13">
    <path clip-path="url(#pb00cc3b531)" d="M 89.912727 290.918182 
L 130.775679 290.918182 
L 133.918983 288.195135 
L 137.062287 290.918182 
L 140.205591 290.799788 
L 143.348895 290.918182 
L 146.492199 290.918182 
L 149.635503 290.799788 
L 152.778807 289.852642 
L 155.922111 290.918182 
L 162.208719 290.918182 
L 165.352023 290.681395 
L 168.495327 289.201478 
L 171.638631 288.787102 
L 174.781935 290.858985 
L 181.068543 290.918182 
L 184.211848 290.622198 
L 187.355152 290.148625 
L 190.498456 290.858985 
L 193.64176 290.681395 
L 196.785064 289.083085 
L 199.928368 290.858985 
L 203.071672 290.622198 
L 206.214976 288.787102 
L 209.35828 290.563002 
L 212.501584 290.799788 
L 215.644888 290.740592 
L 218.788192 290.799788 
L 225.0748 289.675052 
L 228.218104 290.740592 
L 231.361408 290.326215 
L 234.504712 290.444608 
L 237.648016 290.385412 
L 240.79132 289.793445 
L 243.934624 290.563002 
L 247.077928 288.787102 
L 250.221232 290.740592 
L 253.364536 290.740592 
L 256.50784 288.550315 
L 259.651144 290.503805 
L 262.794448 290.918182 
L 269.081056 290.918182 
L 272.22436 290.622198 
L 275.367664 290.799788 
L 278.510968 289.023888 
L 281.654272 289.438265 
L 284.797576 287.958348 
L 287.94088 289.319872 
L 291.084184 289.615855 
L 294.227488 289.497462 
L 297.370792 288.609512 
L 300.514096 289.083085 
L 303.6574 288.964692 
L 306.800704 284.820924 
L 309.944008 288.905495 
L 313.087312 290.207822 
L 316.230616 289.497462 
L 319.37392 287.070398 
L 322.517224 288.135938 
L 325.660528 290.444608 
L 328.803832 288.372725 
L 331.947136 288.491118 
L 335.09044 289.201478 
L 338.233744 289.319872 
L 341.377048 286.419235 
L 344.520352 284.761728 
L 347.663656 290.918182 
L 350.80696 289.734248 
L 353.950264 286.300841 
L 357.093568 290.799788 
L 360.236872 289.438265 
L 363.380176 290.385412 
L 366.52348 290.563002 
L 369.666784 287.425578 
L 372.810088 288.727905 
L 375.953392 287.129595 
L 379.096696 290.503805 
L 382.24 289.142282 
L 385.383304 288.076742 
L 388.526608 287.425578 
L 391.669912 285.057711 
L 394.813216 287.958348 
L 397.95652 289.734248 
L 401.099824 290.563002 
L 404.243128 289.734248 
L 407.386432 290.681395 
L 410.529736 287.307185 
L 413.67304 289.971035 
L 419.959648 287.011201 
L 423.102952 288.017545 
L 426.246256 290.207822 
L 432.532864 287.780758 
L 435.676168 288.254332 
L 438.819472 287.011201 
L 441.962776 289.734248 
L 445.10608 287.899151 
L 448.249384 288.846298 
L 451.392688 289.497462 
L 457.679296 288.846298 
L 460.8226 284.584138 
L 463.965904 290.799788 
L 467.109208 289.852642 
L 470.252512 287.011201 
L 473.395816 286.241645 
L 476.53912 288.787102 
L 479.682424 287.070398 
L 482.825728 286.952005 
L 485.969032 284.110564 
L 489.112336 282.571451 
L 492.25564 289.556658 
L 495.398944 285.768071 
L 498.542248 287.425578 
L 501.685552 289.319872 
L 504.828856 288.964692 
L 507.97216 290.799788 
L 511.115464 287.899151 
L 514.258768 288.905495 
L 520.545376 285.235301 
L 523.68868 287.899151 
L 526.831984 282.926631 
L 529.975288 287.839955 
L 533.118592 289.675052 
L 536.261896 283.518598 
L 539.4052 287.070398 
L 542.548504 284.465744 
L 545.691808 282.275468 
L 548.835112 284.939318 
L 551.978416 284.110564 
L 555.12172 287.721561 
L 558.265024 284.584138 
L 561.408328 281.801894 
L 564.551632 289.023888 
L 567.694936 282.216271 
L 570.83824 284.939318 
L 573.981544 288.254332 
L 577.124848 282.867434 
L 580.268152 287.839955 
L 583.411457 283.281811 
L 586.554761 286.715218 
L 589.698065 284.820924 
L 592.841369 281.150731 
L 595.984673 288.964692 
L 599.127977 287.839955 
L 602.271281 279.966797 
L 605.414585 280.617961 
L 608.557889 284.643334 
L 611.701193 279.01965 
L 614.844497 284.880121 
L 617.987801 281.150731 
L 621.131105 282.808238 
L 624.274409 282.749041 
L 627.417713 283.992171 
L 630.561017 284.347351 
L 633.704321 285.649678 
L 639.990929 287.484775 
L 643.134233 276.119014 
L 646.277537 287.543971 
L 649.420841 284.584138 
L 652.564145 287.780758 
L 655.707449 282.097878 
L 658.850753 288.135938 
L 661.994057 284.110564 
L 665.137361 285.057711 
L 668.280665 284.524941 
L 671.423969 285.768071 
L 674.567273 285.768071 
L 674.567273 285.768071 
" style="fill:none;stroke:#2ca02c;stroke-linecap:square;stroke-width:1.5;"/>
   </g>
   <g id="patch_3">
    <path d="M 60.68 304 
L 60.68 16.2 
" style="fill:none;stroke:#000000;stroke-linecap:square;stroke-linejoin:miter;stroke-width:0.8;"/>
   </g>
   <g id="patch_4">
    <path d="M 703.8 304 
L 703.8 16.2 
" style="fill:none;stroke:#000000;stroke-linecap:square;stroke-linejoin:miter;stroke-width:0.8;"/>
   </g>
   <g id="patch_5">
    <path d="M 60.68 304 
L 703.8 304 
" style="fill:none;stroke:#000000;stroke-linecap:square;stroke-linejoin:miter;stroke-width:0.8;"/>
   </g>
   <g id="patch_6">
    <path d="M 60.68 16.2 
L 703.8 16.2 
" style="fill:none;stroke:#000000;stroke-linecap:square;stroke-linejoin:miter;stroke-width:0.8;"/>
   </g>
   <g id="legend_1">
    <g id="patch_7">
     <path d="M 505.942969 195.375781 
L 693.3 195.375781 
Q 696.3 195.375781 696.3 192.375781 
L 696.3 127.824219 
Q 696.3 124.824219 693.3 124.824219 
L 505.942969 124.824219 
Q 502.942969 124.824219 502.942969 127.824219 
L 502.942969 192.375781 
Q 502.942969 195.375781 505.942969 195.375781 
z
" style="fill:#ffffff;opacity:0.8;stroke:#cccccc;stroke-linejoin:miter;"/>
    </g>
    <g id="line2d_14">
     <path d="M 508.942969 136.971875 
L 538.942969 136.971875 
" style="fill:none;stroke:#1f77b4;stroke-linecap:square;stroke-width:1.5;"/>
    </g>
    <g id="line2d_15"/>
    <g id="text_13">
     <text style="font-family:DejaVu Sans;font-size:15px;font-style:normal;font-weight:normal;text-anchor:start;" transform="rotate(-0, 550.942969, 142.221875)" x="550.942969" y="142.221875">position reward</text>
    </g>
    <g id="line2d_16">
     <path d="M 508.942969 158.989063 
L 538.942969 158.989063 
" style="fill:none;stroke:#ff7f0e;stroke-linecap:square;stroke-width:1.5;"/>
    </g>
    <g id="line2d_17"/>
    <g id="text_14">
     <text style="font-family:DejaVu Sans;font-size:15px;font-style:normal;font-weight:normal;text-anchor:start;" transform="rotate(-0, 550.942969, 164.239063)" x="550.942969" y="164.239063">orientation reward</text>
    </g>
    <g id="line2d_18">
     <path d="M 508.942969 181.00625 
L 538.942969 181.00625 
" style="fill:none;stroke:#2ca02c;stroke-linecap:square;stroke-width:1.5;"/>
    </g>
    <g id="line2d_19"/>
    <g id="text_15">
     <text style="font-family:DejaVu Sans;font-size:15px;font-style:normal;font-weight:normal;text-anchor:start;" transform="rotate(-0, 550.942969, 186.25625)" x="550.942969" y="186.25625">bonus reward</text>
    </g>
   </g>
  </g>
 </g>
 <defs>
  <clipPath id="pb00cc3b531">
   <rect height="287.8" width="643.12" x="60.68" y="16.2"/>
  </clipPath>
 </defs>
</svg>
