<?xml version="1.0" encoding="utf-8" standalone="no"?>
<!DOCTYPE svg PUBLIC "-//W3C//DTD SVG 1.1//EN"
  "http://www.w3.org/Graphics/SVG/1.1/DTD/svg11.dtd">
<!-- Created with matplotlib (https://matplotlib.org/) -->
<svg height="360pt" version="1.1" viewBox="0 0 720 360" width="720pt" xmlns="http://www.w3.org/2000/svg" xmlns:xlink="http://www.w3.org/1999/xlink">
 <defs>
  <style type="text/css">
*{stroke-linecap:butt;stroke-linejoin:round;}
  </style>
 </defs>
 <g id="figure_1">
  <g id="patch_1">
   <path d="M 0 360 
L 720 360 
L 720 0 
L 0 0 
z
" style="fill:#ffffff;"/>
  </g>
  <g id="axes_1">
   <g id="patch_2">
    <path d="M 60.68 304 
L 703.8 304 
L 703.8 16.2 
L 60.68 16.2 
z
" style="fill:#ffffff;"/>
   </g>
   <g id="matplotlib.axis_1">
    <g id="xtick_1">
     <g id="line2d_1">
      <defs>
       <path d="M 0 0 
L 0 3.5 
" id="m311017f529" style="stroke:#000000;stroke-width:0.8;"/>
      </defs>
      <g>
       <use style="stroke:#000000;stroke-width:0.8;" x="86.769423" xlink:href="#m311017f529" y="304"/>
      </g>
     </g>
     <g id="text_1">
      <text style="font-family:DejaVu Sans;font-size:15px;font-style:normal;font-weight:normal;text-anchor:middle;" transform="rotate(-0, 86.769423, 322.397656)" x="86.769423" y="322.397656">0</text>
     </g>
    </g>
    <g id="xtick_2">
     <g id="line2d_2">
      <g>
       <use style="stroke:#000000;stroke-width:0.8;" x="212.501584" xlink:href="#m311017f529" y="304"/>
      </g>
     </g>
     <g id="text_2">
      <text style="font-family:DejaVu Sans;font-size:15px;font-style:normal;font-weight:normal;text-anchor:middle;" transform="rotate(-0, 212.501584, 322.397656)" x="212.501584" y="322.397656">20000</text>
     </g>
    </g>
    <g id="xtick_3">
     <g id="line2d_3">
      <g>
       <use style="stroke:#000000;stroke-width:0.8;" x="338.233744" xlink:href="#m311017f529" y="304"/>
      </g>
     </g>
     <g id="text_3">
      <text style="font-family:DejaVu Sans;font-size:15px;font-style:normal;font-weight:normal;text-anchor:middle;" transform="rotate(-0, 338.233744, 322.397656)" x="338.233744" y="322.397656">40000</text>
     </g>
    </g>
    <g id="xtick_4">
     <g id="line2d_4">
      <g>
       <use style="stroke:#000000;stroke-width:0.8;" x="463.965904" xlink:href="#m311017f529" y="304"/>
      </g>
     </g>
     <g id="text_4">
      <text style="font-family:DejaVu Sans;font-size:15px;font-style:normal;font-weight:normal;text-anchor:middle;" transform="rotate(-0, 463.965904, 322.397656)" x="463.965904" y="322.397656">60000</text>
     </g>
    </g>
    <g id="xtick_5">
     <g id="line2d_5">
      <g>
       <use style="stroke:#000000;stroke-width:0.8;" x="589.698065" xlink:href="#m311017f529" y="304"/>
      </g>
     </g>
     <g id="text_5">
      <text style="font-family:DejaVu Sans;font-size:15px;font-style:normal;font-weight:normal;text-anchor:middle;" transform="rotate(-0, 589.698065, 322.397656)" x="589.698065" y="322.397656">80000</text>
     </g>
    </g>
    <g id="text_6">
     <text style="font-family:DejaVu Sans;font-size:15px;font-style:normal;font-weight:normal;text-anchor:middle;" transform="rotate(-0, 382.24, 340.914844)" x="382.24" y="340.914844">Episodes</text>
    </g>
   </g>
   <g id="matplotlib.axis_2">
    <g id="ytick_1">
     <g id="line2d_6">
      <defs>
       <path d="M 0 0 
L -3.5 0 
" id="mfaeaa3683d" style="stroke:#000000;stroke-width:0.8;"/>
      </defs>
      <g>
       <use style="stroke:#000000;stroke-width:0.8;" x="60.68" xlink:href="#mfaeaa3683d" y="291.906532"/>
      </g>
     </g>
     <g id="text_7">
      <text style="font-family:DejaVu Sans;font-size:15px;font-style:normal;font-weight:normal;text-anchor:end;" transform="rotate(-0, 53.68, 297.60536)" x="53.68" y="297.60536">20</text>
     </g>
    </g>
    <g id="ytick_2">
     <g id="line2d_7">
      <g>
       <use style="stroke:#000000;stroke-width:0.8;" x="60.68" xlink:href="#mfaeaa3683d" y="252.157241"/>
      </g>
     </g>
     <g id="text_8">
      <text style="font-family:DejaVu Sans;font-size:15px;font-style:normal;font-weight:normal;text-anchor:end;" transform="rotate(-0, 53.68, 257.85607)" x="53.68" y="257.85607">22</text>
     </g>
    </g>
    <g id="ytick_3">
     <g id="line2d_8">
      <g>
       <use style="stroke:#000000;stroke-width:0.8;" x="60.68" xlink:href="#mfaeaa3683d" y="212.407951"/>
      </g>
     </g>
     <g id="text_9">
      <text style="font-family:DejaVu Sans;font-size:15px;font-style:normal;font-weight:normal;text-anchor:end;" transform="rotate(-0, 53.68, 218.106779)" x="53.68" y="218.106779">24</text>
     </g>
    </g>
    <g id="ytick_4">
     <g id="line2d_9">
      <g>
       <use style="stroke:#000000;stroke-width:0.8;" x="60.68" xlink:href="#mfaeaa3683d" y="172.65866"/>
      </g>
     </g>
     <g id="text_10">
      <text style="font-family:DejaVu Sans;font-size:15px;font-style:normal;font-weight:normal;text-anchor:end;" transform="rotate(-0, 53.68, 178.357488)" x="53.68" y="178.357488">26</text>
     </g>
    </g>
    <g id="ytick_5">
     <g id="line2d_10">
      <g>
       <use style="stroke:#000000;stroke-width:0.8;" x="60.68" xlink:href="#mfaeaa3683d" y="132.909369"/>
      </g>
     </g>
     <g id="text_11">
      <text style="font-family:DejaVu Sans;font-size:15px;font-style:normal;font-weight:normal;text-anchor:end;" transform="rotate(-0, 53.68, 138.608197)" x="53.68" y="138.608197">28</text>
     </g>
    </g>
    <g id="ytick_6">
     <g id="line2d_11">
      <g>
       <use style="stroke:#000000;stroke-width:0.8;" x="60.68" xlink:href="#mfaeaa3683d" y="93.160079"/>
      </g>
     </g>
     <g id="text_12">
      <text style="font-family:DejaVu Sans;font-size:15px;font-style:normal;font-weight:normal;text-anchor:end;" transform="rotate(-0, 53.68, 98.858907)" x="53.68" y="98.858907">30</text>
     </g>
    </g>
    <g id="ytick_7">
     <g id="line2d_12">
      <g>
       <use style="stroke:#000000;stroke-width:0.8;" x="60.68" xlink:href="#mfaeaa3683d" y="53.410788"/>
      </g>
     </g>
     <g id="text_13">
      <text style="font-family:DejaVu Sans;font-size:15px;font-style:normal;font-weight:normal;text-anchor:end;" transform="rotate(-0, 53.68, 59.109616)" x="53.68" y="59.109616">32</text>
     </g>
    </g>
    <g id="text_14">
     <text style="font-family:DejaVu Sans;font-size:15px;font-style:normal;font-weight:normal;text-anchor:middle;" transform="rotate(-90, 27.472969, 160.1)" x="27.472969" y="160.1">Episode Reward Mean (Max 50)</text>
    </g>
   </g>
   <g id="line2d_13">
    <path clip-path="url(#pdf3d10c10c)" d="M 89.912727 290.127558 
L 93.056031 233.549271 
L 96.199335 213.059365 
L 99.342639 205.337377 
L 102.485943 167.794859 
L 105.629247 148.484881 
L 108.772551 152.489496 
L 111.915855 134.571256 
L 115.059159 130.788712 
L 118.202463 125.779198 
L 121.345767 121.507525 
L 124.489071 120.839817 
L 127.632375 107.753604 
L 130.775679 101.429882 
L 133.918983 105.512877 
L 137.062287 114.913453 
L 140.205591 120.653728 
L 143.348895 88.424292 
L 146.492199 92.178205 
L 149.635503 89.59699 
L 155.922111 89.041689 
L 159.065415 92.204233 
L 162.208719 100.241634 
L 165.352023 87.626955 
L 168.495327 88.940292 
L 171.638631 87.315004 
L 174.781935 87.462533 
L 177.925239 77.565648 
L 181.068543 85.112299 
L 184.211848 96.111769 
L 187.355152 93.576607 
L 190.498456 74.208485 
L 193.64176 83.520521 
L 196.785064 82.088033 
L 199.928368 79.285542 
L 203.071672 89.484003 
L 206.214976 72.40994 
L 209.35828 75.597774 
L 212.501584 80.959391 
L 215.644888 73.284046 
L 218.788192 90.003863 
L 221.931496 83.054028 
L 225.0748 89.907139 
L 228.218104 75.352962 
L 231.361408 72.854261 
L 234.504712 72.85821 
L 237.648016 67.994108 
L 240.79132 66.635634 
L 243.934624 69.998434 
L 247.077928 65.011858 
L 250.221232 72.882668 
L 253.364536 59.114901 
L 256.50784 63.236485 
L 259.651144 61.040737 
L 262.794448 64.376058 
L 265.937752 71.549097 
L 269.081056 59.602236 
L 272.22436 65.058701 
L 275.367664 75.996206 
L 278.510968 70.446793 
L 281.654272 70.783237 
L 284.797576 57.427279 
L 287.94088 76.869956 
L 294.227488 55.807248 
L 297.370792 66.032587 
L 300.514096 59.297549 
L 303.6574 65.822529 
L 306.800704 54.793206 
L 309.944008 63.776767 
L 313.087312 65.327124 
L 316.230616 57.884699 
L 319.37392 61.216558 
L 322.517224 61.592085 
L 325.660528 56.868028 
L 328.803832 52.758218 
L 331.947136 58.734212 
L 335.09044 53.779595 
L 338.233744 71.439801 
L 341.377048 68.108623 
L 344.520352 56.951464 
L 347.663656 57.360751 
L 350.80696 53.036482 
L 353.950264 53.37971 
L 357.093568 64.926502 
L 360.236872 69.780271 
L 363.380176 71.313724 
L 366.52348 60.576885 
L 369.666784 60.533135 
L 372.810088 62.026185 
L 375.953392 66.725693 
L 379.096696 50.389194 
L 382.24 53.966389 
L 385.383304 61.565511 
L 388.526608 55.045172 
L 391.669912 56.417206 
L 394.813216 71.033476 
L 397.95652 57.638202 
L 401.099824 51.09077 
L 404.243128 52.272644 
L 407.386432 54.138207 
L 410.529736 50.260203 
L 413.67304 46.792895 
L 416.816344 55.595577 
L 419.959648 49.724153 
L 423.102952 53.627766 
L 426.246256 54.960888 
L 429.38956 58.762003 
L 432.532864 61.269287 
L 435.676168 53.325707 
L 438.819472 62.106705 
L 441.962776 57.581406 
L 445.10608 60.377376 
L 448.249384 62.746039 
L 451.392688 58.430365 
L 454.535992 54.890968 
L 457.679296 51.828544 
L 460.8226 60.200038 
L 463.965904 47.134601 
L 467.109208 42.84015 
L 470.252512 48.894376 
L 473.395816 44.482165 
L 476.53912 68.944489 
L 479.682424 54.044904 
L 482.825728 57.42433 
L 485.969032 57.163121 
L 489.112336 43.85569 
L 492.25564 63.992946 
L 495.398944 50.902867 
L 498.542248 57.374811 
L 501.685552 48.384701 
L 504.828856 58.515624 
L 507.97216 63.823863 
L 511.115464 49.23565 
L 514.258768 52.093294 
L 517.402072 56.0008 
L 520.545376 58.183046 
L 523.68868 63.292757 
L 526.831984 48.528933 
L 529.975288 59.226459 
L 533.118592 41.89909 
L 536.261896 46.437774 
L 539.4052 47.012453 
L 542.548504 45.976468 
L 545.691808 56.031023 
L 548.835112 48.688922 
L 551.978416 56.18347 
L 555.12172 52.157529 
L 558.265024 64.850847 
L 561.408328 57.202546 
L 564.551632 54.681296 
L 567.694936 49.863343 
L 570.83824 45.852354 
L 573.981544 39.876516 
L 577.124848 51.207955 
L 580.268152 54.077353 
L 583.411457 51.591901 
L 586.554761 52.192753 
L 589.698065 44.821167 
L 592.841369 56.844019 
L 595.984673 38.488594 
L 599.127977 44.208744 
L 602.271281 44.934095 
L 605.414585 46.157714 
L 608.557889 48.579356 
L 611.701193 53.491904 
L 614.844497 45.339805 
L 617.987801 47.593909 
L 621.131105 51.352398 
L 624.274409 48.152637 
L 627.417713 46.824077 
L 630.561017 41.502363 
L 633.704321 49.746435 
L 636.847625 43.199557 
L 639.990929 57.035506 
L 643.134233 54.965467 
L 646.277537 52.051918 
L 649.420841 49.994727 
L 652.564145 50.202872 
L 655.707449 43.160434 
L 658.850753 51.040753 
L 661.994057 38.529062 
L 665.137361 53.503475 
L 668.280665 49.140087 
L 671.423969 56.912633 
L 674.567273 44.920059 
L 674.567273 44.920059 
" style="fill:none;stroke:#1f77b4;stroke-linecap:square;stroke-width:1.5;"/>
   </g>
   <g id="line2d_14">
    <path clip-path="url(#pdf3d10c10c)" d="M 89.912727 290.918182 
L 93.056031 249.586729 
L 96.199335 206.038472 
L 99.342639 188.163115 
L 102.485943 157.421003 
L 105.629247 131.173864 
L 108.772551 134.003833 
L 111.915855 117.810153 
L 115.059159 134.102994 
L 118.202463 130.238102 
L 121.345767 124.314241 
L 124.489071 106.521208 
L 127.632375 106.594354 
L 130.775679 109.934399 
L 133.918983 116.635699 
L 137.062287 109.527079 
L 140.205591 105.040734 
L 143.348895 114.469263 
L 146.492199 81.0968 
L 149.635503 100.168865 
L 152.778807 89.361556 
L 155.922111 84.295623 
L 159.065415 82.456031 
L 162.208719 100.61501 
L 165.352023 86.962491 
L 168.495327 81.978974 
L 171.638631 67.047388 
L 174.781935 66.840185 
L 177.925239 79.956913 
L 181.068543 79.502112 
L 184.211848 75.039968 
L 187.355152 81.280206 
L 190.498456 70.238998 
L 193.64176 67.167471 
L 196.785064 77.521567 
L 199.928368 59.678186 
L 203.071672 81.248089 
L 206.214976 84.983984 
L 209.35828 76.572574 
L 212.501584 82.377196 
L 215.644888 75.240991 
L 218.788192 73.699257 
L 221.931496 62.845911 
L 225.0748 75.011069 
L 228.218104 73.726787 
L 231.361408 66.93009 
L 234.504712 57.757803 
L 237.648016 65.534839 
L 240.79132 74.7372 
L 243.934624 72.13657 
L 247.077928 67.376932 
L 250.221232 73.293042 
L 253.364536 64.039475 
L 256.50784 50.692999 
L 259.651144 58.928808 
L 262.794448 70.947006 
L 265.937752 79.733444 
L 269.081056 59.123245 
L 272.22436 79.174252 
L 275.367664 53.954536 
L 278.510968 56.575189 
L 281.654272 56.711946 
L 284.797576 59.395349 
L 287.94088 64.777332 
L 291.084184 53.79868 
L 294.227488 58.336038 
L 297.370792 58.452133 
L 300.514096 65.461315 
L 303.6574 69.906627 
L 306.800704 49.214498 
L 309.944008 56.029215 
L 313.087312 44.306629 
L 316.230616 68.032708 
L 319.37392 49.506049 
L 322.517224 53.095375 
L 325.660528 63.197391 
L 328.803832 59.092477 
L 331.947136 43.306097 
L 335.09044 52.440118 
L 338.233744 48.59462 
L 341.377048 41.147769 
L 344.520352 65.904062 
L 347.663656 53.446382 
L 350.80696 40.091831 
L 353.950264 59.778843 
L 357.093568 67.837975 
L 360.236872 45.511229 
L 363.380176 59.100258 
L 366.52348 55.896784 
L 369.666784 56.872491 
L 372.810088 47.054502 
L 375.953392 47.943495 
L 379.096696 51.628368 
L 382.24 60.267454 
L 388.526608 51.348903 
L 391.669912 48.891091 
L 394.813216 60.552798 
L 397.95652 51.279336 
L 401.099824 47.423941 
L 404.243128 52.657312 
L 407.386432 60.805516 
L 410.529736 35.978132 
L 413.67304 64.098899 
L 416.816344 47.136879 
L 419.959648 49.087896 
L 423.102952 49.731084 
L 426.246256 49.582434 
L 429.38956 49.068798 
L 432.532864 55.133023 
L 435.676168 55.020565 
L 438.819472 55.351977 
L 441.962776 52.118864 
L 445.10608 46.526549 
L 448.249384 52.100267 
L 451.392688 64.897779 
L 454.535992 60.610797 
L 457.679296 59.964272 
L 460.8226 37.321933 
L 463.965904 55.548621 
L 467.109208 51.781119 
L 470.252512 49.615834 
L 473.395816 48.495599 
L 476.53912 42.362524 
L 479.682424 46.502358 
L 482.825728 61.30386 
L 485.969032 51.159593 
L 489.112336 34.974857 
L 492.25564 47.098727 
L 495.398944 49.716736 
L 498.542248 56.606802 
L 501.685552 52.510744 
L 504.828856 52.166412 
L 507.97216 43.17941 
L 511.115464 49.562611 
L 514.258768 47.657786 
L 517.402072 48.182019 
L 520.545376 43.189561 
L 523.68868 48.960214 
L 526.831984 52.002318 
L 529.975288 53.679092 
L 533.118592 46.945517 
L 536.261896 38.490751 
L 539.4052 49.256954 
L 542.548504 51.123927 
L 545.691808 33.375183 
L 548.835112 48.536321 
L 551.978416 46.218355 
L 555.12172 54.173493 
L 558.265024 42.15652 
L 561.408328 51.772673 
L 564.551632 47.481869 
L 567.694936 36.944119 
L 570.83824 37.203315 
L 573.981544 52.301459 
L 577.124848 36.425445 
L 580.268152 52.591906 
L 583.411457 37.992193 
L 586.554761 45.933335 
L 589.698065 36.872316 
L 592.841369 32.183002 
L 595.984673 52.143735 
L 599.127977 42.686586 
L 602.271281 30.822979 
L 605.414585 39.809068 
L 608.557889 39.543183 
L 611.701193 29.281818 
L 614.844497 46.67562 
L 617.987801 42.141106 
L 621.131105 37.217248 
L 624.274409 41.922867 
L 627.417713 33.505706 
L 633.704321 42.496132 
L 636.847625 45.624966 
L 639.990929 51.491979 
L 643.134233 35.205845 
L 646.277537 51.892275 
L 649.420841 41.865009 
L 652.564145 58.481267 
L 655.707449 38.236418 
L 658.850753 50.55301 
L 661.994057 48.761378 
L 665.137361 41.371848 
L 668.280665 46.829501 
L 671.423969 47.474761 
L 674.567273 46.071679 
L 674.567273 46.071679 
" style="fill:none;stroke:#ff7f0e;stroke-linecap:square;stroke-width:1.5;"/>
   </g>
   <g id="patch_3">
    <path d="M 60.68 304 
L 60.68 16.2 
" style="fill:none;stroke:#000000;stroke-linecap:square;stroke-linejoin:miter;stroke-width:0.8;"/>
   </g>
   <g id="patch_4">
    <path d="M 703.8 304 
L 703.8 16.2 
" style="fill:none;stroke:#000000;stroke-linecap:square;stroke-linejoin:miter;stroke-width:0.8;"/>
   </g>
   <g id="patch_5">
    <path d="M 60.68 304 
L 703.8 304 
" style="fill:none;stroke:#000000;stroke-linecap:square;stroke-linejoin:miter;stroke-width:0.8;"/>
   </g>
   <g id="patch_6">
    <path d="M 60.68 16.2 
L 703.8 16.2 
" style="fill:none;stroke:#000000;stroke-linecap:square;stroke-linejoin:miter;stroke-width:0.8;"/>
   </g>
   <g id="legend_1">
    <g id="patch_7">
     <path d="M 466.8375 296.5 
L 693.3 296.5 
Q 696.3 296.5 696.3 293.5 
L 696.3 250.965625 
Q 696.3 247.965625 693.3 247.965625 
L 466.8375 247.965625 
Q 463.8375 247.965625 463.8375 250.965625 
L 463.8375 293.5 
Q 463.8375 296.5 466.8375 296.5 
z
" style="fill:#ffffff;opacity:0.8;stroke:#cccccc;stroke-linejoin:miter;"/>
    </g>
    <g id="line2d_15">
     <path d="M 469.8375 260.113281 
L 499.8375 260.113281 
" style="fill:none;stroke:#1f77b4;stroke-linecap:square;stroke-width:1.5;"/>
    </g>
    <g id="line2d_16"/>
    <g id="text_15">
     <text style="font-family:DejaVu Sans;font-size:15px;font-style:normal;font-weight:normal;text-anchor:start;" transform="rotate(-0, 511.8375, 265.363281)" x="511.8375" y="265.363281">training mean reward</text>
    </g>
    <g id="line2d_17">
     <path d="M 469.8375 282.130469 
L 499.8375 282.130469 
" style="fill:none;stroke:#ff7f0e;stroke-linecap:square;stroke-width:1.5;"/>
    </g>
    <g id="line2d_18"/>
    <g id="text_16">
     <text style="font-family:DejaVu Sans;font-size:15px;font-style:normal;font-weight:normal;text-anchor:start;" transform="rotate(-0, 511.8375, 287.380469)" x="511.8375" y="287.380469">validation mean reward</text>
    </g>
   </g>
  </g>
 </g>
 <defs>
  <clipPath id="pdf3d10c10c">
   <rect height="287.8" width="643.12" x="60.68" y="16.2"/>
  </clipPath>
 </defs>
</svg>
