<?xml version="1.0" encoding="utf-8" standalone="no"?>
<!DOCTYPE svg PUBLIC "-//W3C//DTD SVG 1.1//EN"
  "http://www.w3.org/Graphics/SVG/1.1/DTD/svg11.dtd">
<!-- Created with matplotlib (https://matplotlib.org/) -->
<svg height="360pt" version="1.1" viewBox="0 0 720 360" width="720pt" xmlns="http://www.w3.org/2000/svg" xmlns:xlink="http://www.w3.org/1999/xlink">
 <defs>
  <style type="text/css">
*{stroke-linecap:butt;stroke-linejoin:round;}
  </style>
 </defs>
 <g id="figure_1">
  <g id="patch_1">
   <path d="M 0 360 
L 720 360 
L 720 0 
L 0 0 
z
" style="fill:#ffffff;"/>
  </g>
  <g id="axes_1">
   <g id="patch_2">
    <path d="M 74.99 304 
L 703.8 304 
L 703.8 16.2 
L 74.99 16.2 
z
" style="fill:#ffffff;"/>
   </g>
   <g id="matplotlib.axis_1">
    <g id="xtick_1">
     <g id="line2d_1">
      <defs>
       <path d="M 0 0 
L 0 3.5 
" id="m1b39c8c6f8" style="stroke:#000000;stroke-width:0.8;"/>
      </defs>
      <g>
       <use style="stroke:#000000;stroke-width:0.8;" x="100.49891" xlink:href="#m1b39c8c6f8" y="304"/>
      </g>
     </g>
     <g id="text_1">
      <text style="font-family:DejaVu Sans;font-size:15px;font-style:normal;font-weight:normal;text-anchor:middle;" transform="rotate(-0, 100.49891, 322.397656)" x="100.49891" y="322.397656">0</text>
     </g>
    </g>
    <g id="xtick_2">
     <g id="line2d_2">
      <g>
       <use style="stroke:#000000;stroke-width:0.8;" x="223.433416" xlink:href="#m1b39c8c6f8" y="304"/>
      </g>
     </g>
     <g id="text_2">
      <text style="font-family:DejaVu Sans;font-size:15px;font-style:normal;font-weight:normal;text-anchor:middle;" transform="rotate(-0, 223.433416, 322.397656)" x="223.433416" y="322.397656">20000</text>
     </g>
    </g>
    <g id="xtick_3">
     <g id="line2d_3">
      <g>
       <use style="stroke:#000000;stroke-width:0.8;" x="346.367923" xlink:href="#m1b39c8c6f8" y="304"/>
      </g>
     </g>
     <g id="text_3">
      <text style="font-family:DejaVu Sans;font-size:15px;font-style:normal;font-weight:normal;text-anchor:middle;" transform="rotate(-0, 346.367923, 322.397656)" x="346.367923" y="322.397656">40000</text>
     </g>
    </g>
    <g id="xtick_4">
     <g id="line2d_4">
      <g>
       <use style="stroke:#000000;stroke-width:0.8;" x="469.302429" xlink:href="#m1b39c8c6f8" y="304"/>
      </g>
     </g>
     <g id="text_4">
      <text style="font-family:DejaVu Sans;font-size:15px;font-style:normal;font-weight:normal;text-anchor:middle;" transform="rotate(-0, 469.302429, 322.397656)" x="469.302429" y="322.397656">60000</text>
     </g>
    </g>
    <g id="xtick_5">
     <g id="line2d_5">
      <g>
       <use style="stroke:#000000;stroke-width:0.8;" x="592.236935" xlink:href="#m1b39c8c6f8" y="304"/>
      </g>
     </g>
     <g id="text_5">
      <text style="font-family:DejaVu Sans;font-size:15px;font-style:normal;font-weight:normal;text-anchor:middle;" transform="rotate(-0, 592.236935, 322.397656)" x="592.236935" y="322.397656">80000</text>
     </g>
    </g>
    <g id="text_6">
     <text style="font-family:DejaVu Sans;font-size:15px;font-style:normal;font-weight:normal;text-anchor:middle;" transform="rotate(-0, 389.395, 340.914844)" x="389.395" y="340.914844">Episodes</text>
    </g>
   </g>
   <g id="matplotlib.axis_2">
    <g id="ytick_1">
     <g id="line2d_6">
      <defs>
       <path d="M 0 0 
L -3.5 0 
" id="m572f5e3bf5" style="stroke:#000000;stroke-width:0.8;"/>
      </defs>
      <g>
       <use style="stroke:#000000;stroke-width:0.8;" x="74.99" xlink:href="#m572f5e3bf5" y="290.918182"/>
      </g>
     </g>
     <g id="text_7">
      <text style="font-family:DejaVu Sans;font-size:15px;font-style:normal;font-weight:normal;text-anchor:end;" transform="rotate(-0, 67.99, 296.61701)" x="67.99" y="296.61701">0.00</text>
     </g>
    </g>
    <g id="ytick_2">
     <g id="line2d_7">
      <g>
       <use style="stroke:#000000;stroke-width:0.8;" x="74.99" xlink:href="#m572f5e3bf5" y="258.213636"/>
      </g>
     </g>
     <g id="text_8">
      <text style="font-family:DejaVu Sans;font-size:15px;font-style:normal;font-weight:normal;text-anchor:end;" transform="rotate(-0, 67.99, 263.912464)" x="67.99" y="263.912464">0.01</text>
     </g>
    </g>
    <g id="ytick_3">
     <g id="line2d_8">
      <g>
       <use style="stroke:#000000;stroke-width:0.8;" x="74.99" xlink:href="#m572f5e3bf5" y="225.509091"/>
      </g>
     </g>
     <g id="text_9">
      <text style="font-family:DejaVu Sans;font-size:15px;font-style:normal;font-weight:normal;text-anchor:end;" transform="rotate(-0, 67.99, 231.207919)" x="67.99" y="231.207919">0.02</text>
     </g>
    </g>
    <g id="ytick_4">
     <g id="line2d_9">
      <g>
       <use style="stroke:#000000;stroke-width:0.8;" x="74.99" xlink:href="#m572f5e3bf5" y="192.804545"/>
      </g>
     </g>
     <g id="text_10">
      <text style="font-family:DejaVu Sans;font-size:15px;font-style:normal;font-weight:normal;text-anchor:end;" transform="rotate(-0, 67.99, 198.503374)" x="67.99" y="198.503374">0.03</text>
     </g>
    </g>
    <g id="ytick_5">
     <g id="line2d_10">
      <g>
       <use style="stroke:#000000;stroke-width:0.8;" x="74.99" xlink:href="#m572f5e3bf5" y="160.1"/>
      </g>
     </g>
     <g id="text_11">
      <text style="font-family:DejaVu Sans;font-size:15px;font-style:normal;font-weight:normal;text-anchor:end;" transform="rotate(-0, 67.99, 165.798828)" x="67.99" y="165.798828">0.04</text>
     </g>
    </g>
    <g id="ytick_6">
     <g id="line2d_11">
      <g>
       <use style="stroke:#000000;stroke-width:0.8;" x="74.99" xlink:href="#m572f5e3bf5" y="127.395455"/>
      </g>
     </g>
     <g id="text_12">
      <text style="font-family:DejaVu Sans;font-size:15px;font-style:normal;font-weight:normal;text-anchor:end;" transform="rotate(-0, 67.99, 133.094283)" x="67.99" y="133.094283">0.05</text>
     </g>
    </g>
    <g id="ytick_7">
     <g id="line2d_12">
      <g>
       <use style="stroke:#000000;stroke-width:0.8;" x="74.99" xlink:href="#m572f5e3bf5" y="94.690909"/>
      </g>
     </g>
     <g id="text_13">
      <text style="font-family:DejaVu Sans;font-size:15px;font-style:normal;font-weight:normal;text-anchor:end;" transform="rotate(-0, 67.99, 100.389737)" x="67.99" y="100.389737">0.06</text>
     </g>
    </g>
    <g id="ytick_8">
     <g id="line2d_13">
      <g>
       <use style="stroke:#000000;stroke-width:0.8;" x="74.99" xlink:href="#m572f5e3bf5" y="61.986364"/>
      </g>
     </g>
     <g id="text_14">
      <text style="font-family:DejaVu Sans;font-size:15px;font-style:normal;font-weight:normal;text-anchor:end;" transform="rotate(-0, 67.99, 67.685192)" x="67.99" y="67.685192">0.07</text>
     </g>
    </g>
    <g id="ytick_9">
     <g id="line2d_14">
      <g>
       <use style="stroke:#000000;stroke-width:0.8;" x="74.99" xlink:href="#m572f5e3bf5" y="29.281818"/>
      </g>
     </g>
     <g id="text_15">
      <text style="font-family:DejaVu Sans;font-size:15px;font-style:normal;font-weight:normal;text-anchor:end;" transform="rotate(-0, 67.99, 34.980646)" x="67.99" y="34.980646">0.08</text>
     </g>
    </g>
    <g id="text_16">
     <text style="font-family:DejaVu Sans;font-size:15px;font-style:normal;font-weight:normal;text-anchor:middle;" transform="rotate(-90, 27.472031, 160.1)" x="27.472031" y="160.1">Success Rate</text>
    </g>
   </g>
   <g id="line2d_15">
    <path clip-path="url(#pd6a5685934)" d="M 103.572273 290.918182 
L 137.379262 290.918182 
L 140.452625 258.213636 
L 143.525987 290.918182 
L 177.332977 290.918182 
L 180.406339 258.213636 
L 186.553065 258.213636 
L 189.626427 290.918182 
L 211.139966 290.918182 
L 214.213328 258.213636 
L 217.286691 290.918182 
L 220.360054 258.213636 
L 223.433416 290.918182 
L 226.506779 290.918182 
L 229.580142 258.213636 
L 232.653504 290.918182 
L 238.80023 290.918182 
L 241.873592 258.213636 
L 244.946955 290.918182 
L 248.020318 258.213636 
L 254.167043 258.213636 
L 257.240406 290.918182 
L 260.313768 290.918182 
L 263.387131 258.213636 
L 266.460494 258.213636 
L 269.533856 290.918182 
L 315.634296 290.918182 
L 318.707659 225.509091 
L 321.781022 290.918182 
L 327.927747 290.918182 
L 331.001109 258.213636 
L 334.074472 290.918182 
L 340.221197 290.918182 
L 343.29456 225.509091 
L 346.367923 290.918182 
L 352.514648 290.918182 
L 355.588011 258.213636 
L 358.661373 258.213636 
L 361.734736 290.918182 
L 364.808099 290.918182 
L 367.881461 258.213636 
L 370.954824 258.213636 
L 374.028187 225.509091 
L 377.101549 258.213636 
L 380.174912 192.804545 
L 383.248275 225.509091 
L 386.321637 290.918182 
L 389.395 225.509091 
L 395.541725 290.918182 
L 398.615088 225.509091 
L 401.688451 290.918182 
L 404.761813 290.918182 
L 407.835176 258.213636 
L 410.908539 290.918182 
L 413.981901 290.918182 
L 417.055264 258.213636 
L 420.128627 290.918182 
L 423.201989 225.509091 
L 429.348715 290.918182 
L 435.49544 290.918182 
L 438.568803 192.804545 
L 441.642165 258.213636 
L 444.715528 290.918182 
L 447.788891 258.213636 
L 450.862253 290.918182 
L 453.935616 225.509091 
L 460.082341 290.918182 
L 466.229066 290.918182 
L 469.302429 258.213636 
L 472.375792 290.918182 
L 478.522517 225.509091 
L 484.669242 290.918182 
L 487.742605 225.509091 
L 490.815968 290.918182 
L 493.88933 127.395455 
L 496.962693 290.918182 
L 500.036056 258.213636 
L 503.109418 258.213636 
L 506.182781 290.918182 
L 509.256144 160.1 
L 512.329506 225.509091 
L 518.476232 290.918182 
L 521.549594 192.804545 
L 524.622957 258.213636 
L 527.69632 258.213636 
L 530.769682 225.509091 
L 533.843045 258.213636 
L 536.916408 258.213636 
L 539.98977 127.395455 
L 543.063133 225.509091 
L 546.136496 258.213636 
L 549.209858 258.213636 
L 552.283221 225.509091 
L 555.356584 225.509091 
L 558.429946 258.213636 
L 561.503309 258.213636 
L 564.576672 225.509091 
L 567.650034 258.213636 
L 570.723397 225.509091 
L 573.79676 258.213636 
L 576.870122 225.509091 
L 583.016848 290.918182 
L 586.09021 225.509091 
L 592.236935 225.509091 
L 595.310298 258.213636 
L 598.383661 127.395455 
L 601.457023 192.804545 
L 604.530386 225.509091 
L 610.677111 160.1 
L 613.750474 290.918182 
L 616.823837 290.918182 
L 619.897199 225.509091 
L 622.970562 290.918182 
L 626.043925 225.509091 
L 629.117287 192.804545 
L 632.19065 290.918182 
L 641.410738 192.804545 
L 647.557463 258.213636 
L 650.630826 160.1 
L 653.704189 258.213636 
L 656.777551 127.395455 
L 659.850914 225.509091 
L 662.924277 160.1 
L 669.071002 225.509091 
L 672.144365 290.918182 
L 675.217727 192.804545 
L 675.217727 192.804545 
" style="fill:none;stroke:#1f77b4;stroke-linecap:square;stroke-width:1.5;"/>
   </g>
   <g id="line2d_16">
    <path clip-path="url(#pd6a5685934)" d="M 103.572273 290.918182 
L 143.525987 290.918182 
L 146.59935 225.509091 
L 149.672713 290.918182 
L 161.966163 290.918182 
L 165.039526 258.213636 
L 168.112889 290.918182 
L 177.332977 290.918182 
L 180.406339 258.213636 
L 183.479702 258.213636 
L 186.553065 290.918182 
L 204.99324 290.918182 
L 208.066603 258.213636 
L 211.139966 290.918182 
L 214.213328 290.918182 
L 217.286691 225.509091 
L 220.360054 290.918182 
L 223.433416 290.918182 
L 226.506779 258.213636 
L 229.580142 290.918182 
L 232.653504 290.918182 
L 235.726867 225.509091 
L 238.80023 290.918182 
L 251.09368 290.918182 
L 254.167043 258.213636 
L 257.240406 258.213636 
L 260.313768 290.918182 
L 263.387131 290.918182 
L 266.460494 225.509091 
L 269.533856 290.918182 
L 284.90067 290.918182 
L 287.974032 258.213636 
L 291.047395 290.918182 
L 294.120758 225.509091 
L 297.19412 258.213636 
L 306.414208 258.213636 
L 309.487571 225.509091 
L 312.560934 225.509091 
L 315.634296 160.1 
L 318.707659 225.509091 
L 321.781022 258.213636 
L 324.854384 258.213636 
L 331.001109 192.804545 
L 334.074472 290.918182 
L 337.147835 258.213636 
L 340.221197 258.213636 
L 343.29456 290.918182 
L 346.367923 258.213636 
L 349.441285 160.1 
L 352.514648 160.1 
L 355.588011 290.918182 
L 361.734736 225.509091 
L 364.808099 290.918182 
L 367.881461 225.509091 
L 370.954824 290.918182 
L 374.028187 290.918182 
L 377.101549 225.509091 
L 380.174912 258.213636 
L 383.248275 192.804545 
L 386.321637 290.918182 
L 392.468363 225.509091 
L 395.541725 225.509091 
L 398.615088 160.1 
L 401.688451 225.509091 
L 407.835176 290.918182 
L 410.908539 258.213636 
L 413.981901 290.918182 
L 417.055264 225.509091 
L 420.128627 258.213636 
L 423.201989 225.509091 
L 426.275352 225.509091 
L 432.422077 290.918182 
L 435.49544 225.509091 
L 444.715528 225.509091 
L 447.788891 258.213636 
L 450.862253 225.509091 
L 453.935616 258.213636 
L 463.155704 258.213636 
L 466.229066 192.804545 
L 469.302429 290.918182 
L 472.375792 258.213636 
L 475.449154 258.213636 
L 478.522517 192.804545 
L 481.59588 258.213636 
L 493.88933 127.395455 
L 496.962693 290.918182 
L 500.036056 192.804545 
L 503.109418 258.213636 
L 509.256144 258.213636 
L 512.329506 290.918182 
L 515.402869 225.509091 
L 518.476232 258.213636 
L 524.622957 192.804545 
L 527.69632 225.509091 
L 530.769682 94.690909 
L 533.843045 225.509091 
L 536.916408 258.213636 
L 539.98977 160.1 
L 543.063133 192.804545 
L 546.136496 61.986364 
L 549.209858 94.690909 
L 552.283221 160.1 
L 555.356584 127.395455 
L 558.429946 225.509091 
L 561.503309 225.509091 
L 564.576672 94.690909 
L 567.650034 258.213636 
L 570.723397 94.690909 
L 573.79676 225.509091 
L 576.870122 225.509091 
L 579.943485 160.1 
L 583.016848 258.213636 
L 586.09021 160.1 
L 589.163573 225.509091 
L 592.236935 160.1 
L 595.310298 61.986364 
L 598.383661 225.509091 
L 601.457023 225.509091 
L 604.530386 127.395455 
L 607.603749 94.690909 
L 610.677111 160.1 
L 613.750474 61.986364 
L 616.823837 160.1 
L 619.897199 94.690909 
L 622.970562 160.1 
L 626.043925 61.986364 
L 629.117287 127.395455 
L 632.19065 94.690909 
L 635.264013 192.804545 
L 638.337375 225.509091 
L 641.410738 225.509091 
L 644.484101 29.281818 
L 647.557463 225.509091 
L 650.630826 127.395455 
L 653.704189 225.509091 
L 656.777551 127.395455 
L 659.850914 225.509091 
L 662.924277 127.395455 
L 665.997639 192.804545 
L 669.071002 192.804545 
L 672.144365 225.509091 
L 675.217727 192.804545 
L 675.217727 192.804545 
" style="fill:none;stroke:#ff7f0e;stroke-linecap:square;stroke-width:1.5;"/>
   </g>
   <g id="patch_3">
    <path d="M 74.99 304 
L 74.99 16.2 
" style="fill:none;stroke:#000000;stroke-linecap:square;stroke-linejoin:miter;stroke-width:0.8;"/>
   </g>
   <g id="patch_4">
    <path d="M 703.8 304 
L 703.8 16.2 
" style="fill:none;stroke:#000000;stroke-linecap:square;stroke-linejoin:miter;stroke-width:0.8;"/>
   </g>
   <g id="patch_5">
    <path d="M 74.99 304 
L 703.8 304 
" style="fill:none;stroke:#000000;stroke-linecap:square;stroke-linejoin:miter;stroke-width:0.8;"/>
   </g>
   <g id="patch_6">
    <path d="M 74.99 16.2 
L 703.8 16.2 
" style="fill:none;stroke:#000000;stroke-linecap:square;stroke-linejoin:miter;stroke-width:0.8;"/>
   </g>
   <g id="legend_1">
    <g id="patch_7">
     <path d="M 85.49 72.234375 
L 306.018125 72.234375 
Q 309.018125 72.234375 309.018125 69.234375 
L 309.018125 26.7 
Q 309.018125 23.7 306.018125 23.7 
L 85.49 23.7 
Q 82.49 23.7 82.49 26.7 
L 82.49 69.234375 
Q 82.49 72.234375 85.49 72.234375 
z
" style="fill:#ffffff;opacity:0.8;stroke:#cccccc;stroke-linejoin:miter;"/>
    </g>
    <g id="line2d_17">
     <path d="M 88.49 35.847656 
L 118.49 35.847656 
" style="fill:none;stroke:#1f77b4;stroke-linecap:square;stroke-width:1.5;"/>
    </g>
    <g id="line2d_18"/>
    <g id="text_17">
     <text style="font-family:DejaVu Sans;font-size:15px;font-style:normal;font-weight:normal;text-anchor:start;" transform="rotate(-0, 130.49, 41.097656)" x="130.49" y="41.097656">training success rate</text>
    </g>
    <g id="line2d_19">
     <path d="M 88.49 57.864844 
L 118.49 57.864844 
" style="fill:none;stroke:#ff7f0e;stroke-linecap:square;stroke-width:1.5;"/>
    </g>
    <g id="line2d_20"/>
    <g id="text_18">
     <text style="font-family:DejaVu Sans;font-size:15px;font-style:normal;font-weight:normal;text-anchor:start;" transform="rotate(-0, 130.49, 63.114844)" x="130.49" y="63.114844">validation success rate</text>
    </g>
   </g>
  </g>
 </g>
 <defs>
  <clipPath id="pd6a5685934">
   <rect height="287.8" width="628.81" x="74.99" y="16.2"/>
  </clipPath>
 </defs>
</svg>
