<?xml version="1.0" encoding="utf-8" standalone="no"?>
<!DOCTYPE svg PUBLIC "-//W3C//DTD SVG 1.1//EN"
  "http://www.w3.org/Graphics/SVG/1.1/DTD/svg11.dtd">
<!-- Created with matplotlib (https://matplotlib.org/) -->
<svg height="360pt" version="1.1" viewBox="0 0 720 360" width="720pt" xmlns="http://www.w3.org/2000/svg" xmlns:xlink="http://www.w3.org/1999/xlink">
 <defs>
  <style type="text/css">
*{stroke-linecap:butt;stroke-linejoin:round;}
  </style>
 </defs>
 <g id="figure_1">
  <g id="patch_1">
   <path d="M 0 360 
L 720 360 
L 720 0 
L 0 0 
z
" style="fill:#ffffff;"/>
  </g>
  <g id="axes_1">
   <g id="patch_2">
    <path d="M 60.68 304 
L 703.8 304 
L 703.8 16.2 
L 60.68 16.2 
z
" style="fill:#ffffff;"/>
   </g>
   <g id="matplotlib.axis_1">
    <g id="xtick_1">
     <g id="line2d_1">
      <defs>
       <path d="M 0 0 
L 0 3.5 
" id="m54cf46779d" style="stroke:#000000;stroke-width:0.8;"/>
      </defs>
      <g>
       <use style="stroke:#000000;stroke-width:0.8;" x="87.193404" xlink:href="#m54cf46779d" y="304"/>
      </g>
     </g>
     <g id="text_1">
      <text style="font-family:DejaVu Sans;font-size:15px;font-style:normal;font-weight:normal;text-anchor:middle;" transform="rotate(-0, 87.193404, 322.397656)" x="87.193404" y="322.397656">0</text>
     </g>
    </g>
    <g id="xtick_2">
     <g id="line2d_2">
      <g>
       <use style="stroke:#000000;stroke-width:0.8;" x="195.966342" xlink:href="#m54cf46779d" y="304"/>
      </g>
     </g>
     <g id="text_2">
      <text style="font-family:DejaVu Sans;font-size:15px;font-style:normal;font-weight:normal;text-anchor:middle;" transform="rotate(-0, 195.966342, 322.397656)" x="195.966342" y="322.397656">20000</text>
     </g>
    </g>
    <g id="xtick_3">
     <g id="line2d_3">
      <g>
       <use style="stroke:#000000;stroke-width:0.8;" x="304.739281" xlink:href="#m54cf46779d" y="304"/>
      </g>
     </g>
     <g id="text_3">
      <text style="font-family:DejaVu Sans;font-size:15px;font-style:normal;font-weight:normal;text-anchor:middle;" transform="rotate(-0, 304.739281, 322.397656)" x="304.739281" y="322.397656">40000</text>
     </g>
    </g>
    <g id="xtick_4">
     <g id="line2d_4">
      <g>
       <use style="stroke:#000000;stroke-width:0.8;" x="413.51222" xlink:href="#m54cf46779d" y="304"/>
      </g>
     </g>
     <g id="text_4">
      <text style="font-family:DejaVu Sans;font-size:15px;font-style:normal;font-weight:normal;text-anchor:middle;" transform="rotate(-0, 413.51222, 322.397656)" x="413.51222" y="322.397656">60000</text>
     </g>
    </g>
    <g id="xtick_5">
     <g id="line2d_5">
      <g>
       <use style="stroke:#000000;stroke-width:0.8;" x="522.285159" xlink:href="#m54cf46779d" y="304"/>
      </g>
     </g>
     <g id="text_5">
      <text style="font-family:DejaVu Sans;font-size:15px;font-style:normal;font-weight:normal;text-anchor:middle;" transform="rotate(-0, 522.285159, 322.397656)" x="522.285159" y="322.397656">80000</text>
     </g>
    </g>
    <g id="xtick_6">
     <g id="line2d_6">
      <g>
       <use style="stroke:#000000;stroke-width:0.8;" x="631.058097" xlink:href="#m54cf46779d" y="304"/>
      </g>
     </g>
     <g id="text_6">
      <text style="font-family:DejaVu Sans;font-size:15px;font-style:normal;font-weight:normal;text-anchor:middle;" transform="rotate(-0, 631.058097, 322.397656)" x="631.058097" y="322.397656">100000</text>
     </g>
    </g>
    <g id="text_7">
     <text style="font-family:DejaVu Sans;font-size:15px;font-style:normal;font-weight:normal;text-anchor:middle;" transform="rotate(-0, 382.24, 340.914844)" x="382.24" y="340.914844">Episodes</text>
    </g>
   </g>
   <g id="matplotlib.axis_2">
    <g id="ytick_1">
     <g id="line2d_7">
      <defs>
       <path d="M 0 0 
L -3.5 0 
" id="mba10658816" style="stroke:#000000;stroke-width:0.8;"/>
      </defs>
      <g>
       <use style="stroke:#000000;stroke-width:0.8;" x="60.68" xlink:href="#mba10658816" y="290.918182"/>
      </g>
     </g>
     <g id="text_8">
      <text style="font-family:DejaVu Sans;font-size:15px;font-style:normal;font-weight:normal;text-anchor:end;" transform="rotate(-0, 53.68, 296.61701)" x="53.68" y="296.61701">0</text>
     </g>
    </g>
    <g id="ytick_2">
     <g id="line2d_8">
      <g>
       <use style="stroke:#000000;stroke-width:0.8;" x="60.68" xlink:href="#mba10658816" y="232.465179"/>
      </g>
     </g>
     <g id="text_9">
      <text style="font-family:DejaVu Sans;font-size:15px;font-style:normal;font-weight:normal;text-anchor:end;" transform="rotate(-0, 53.68, 238.164007)" x="53.68" y="238.164007">10</text>
     </g>
    </g>
    <g id="ytick_3">
     <g id="line2d_9">
      <g>
       <use style="stroke:#000000;stroke-width:0.8;" x="60.68" xlink:href="#mba10658816" y="174.012175"/>
      </g>
     </g>
     <g id="text_10">
      <text style="font-family:DejaVu Sans;font-size:15px;font-style:normal;font-weight:normal;text-anchor:end;" transform="rotate(-0, 53.68, 179.711003)" x="53.68" y="179.711003">20</text>
     </g>
    </g>
    <g id="ytick_4">
     <g id="line2d_10">
      <g>
       <use style="stroke:#000000;stroke-width:0.8;" x="60.68" xlink:href="#mba10658816" y="115.559172"/>
      </g>
     </g>
     <g id="text_11">
      <text style="font-family:DejaVu Sans;font-size:15px;font-style:normal;font-weight:normal;text-anchor:end;" transform="rotate(-0, 53.68, 121.258)" x="53.68" y="121.258">30</text>
     </g>
    </g>
    <g id="ytick_5">
     <g id="line2d_11">
      <g>
       <use style="stroke:#000000;stroke-width:0.8;" x="60.68" xlink:href="#mba10658816" y="57.106169"/>
      </g>
     </g>
     <g id="text_12">
      <text style="font-family:DejaVu Sans;font-size:15px;font-style:normal;font-weight:normal;text-anchor:end;" transform="rotate(-0, 53.68, 62.804997)" x="53.68" y="62.804997">40</text>
     </g>
    </g>
    <g id="text_13">
     <text style="font-family:DejaVu Sans;font-size:15px;font-style:normal;font-weight:normal;text-anchor:middle;" transform="rotate(-90, 27.472969, 160.1)" x="27.472969" y="160.1">Reward Components Mean (Max 50)</text>
    </g>
   </g>
   <g id="line2d_12">
    <path clip-path="url(#pe7e69ae912)" d="M 89.912727 165.878301 
L 92.632051 124.772393 
L 95.351374 125.640223 
L 98.070698 114.279503 
L 100.790021 112.593864 
L 103.509345 105.499624 
L 106.228668 113.210494 
L 108.947992 106.510878 
L 111.667315 109.270666 
L 114.386638 100.954379 
L 117.105962 90.006988 
L 119.825285 86.49872 
L 122.544609 87.877752 
L 125.263932 82.655969 
L 127.983256 85.836373 
L 130.702579 75.830982 
L 133.421903 78.524355 
L 136.141226 80.040915 
L 138.86055 75.032228 
L 141.579873 77.309415 
L 144.299197 66.980814 
L 147.01852 72.723606 
L 149.737844 67.240496 
L 152.457167 70.558952 
L 155.17649 74.548029 
L 157.895814 70.311085 
L 160.615137 62.17579 
L 163.334461 66.519967 
L 166.053784 62.003394 
L 168.773108 65.54659 
L 171.492431 57.935449 
L 174.211755 61.73721 
L 176.931078 59.699742 
L 179.650402 63.710786 
L 182.369725 63.210381 
L 185.089049 56.10429 
L 187.808372 60.320136 
L 190.527696 55.838331 
L 195.966342 60.909121 
L 198.685666 60.077638 
L 201.404989 58.295245 
L 204.124313 59.006313 
L 206.843636 60.877433 
L 209.56296 56.978366 
L 212.282283 53.411777 
L 215.001607 59.474002 
L 217.72093 64.903858 
L 220.440254 51.178689 
L 223.159577 56.252091 
L 225.878901 62.047721 
L 228.598224 51.081572 
L 231.317548 57.278177 
L 234.036871 53.523331 
L 236.756195 56.116565 
L 239.475518 62.294132 
L 242.194841 60.788175 
L 244.914165 57.629609 
L 247.633488 52.894725 
L 250.352812 49.233378 
L 253.072135 56.351424 
L 255.791459 56.52428 
L 258.510782 51.745008 
L 261.230106 60.808152 
L 263.949429 49.618537 
L 266.668753 53.08714 
L 269.388076 53.232024 
L 272.1074 59.704257 
L 274.826723 52.231317 
L 277.546047 55.31027 
L 280.26537 62.119056 
L 282.984693 53.025578 
L 285.704017 49.905718 
L 288.42334 50.803042 
L 291.142664 52.732905 
L 293.861987 52.828259 
L 296.581311 59.622423 
L 299.300634 57.337751 
L 302.019958 50.133741 
L 304.739281 47.896067 
L 307.458605 49.496426 
L 310.177928 50.781078 
L 312.897252 49.251017 
L 315.616575 51.044149 
L 318.335899 45.83372 
L 321.055222 46.151475 
L 323.774545 55.408771 
L 326.493869 51.469612 
L 329.213192 51.771691 
L 331.932516 48.003969 
L 334.651839 46.018432 
L 337.371163 51.994618 
L 340.090486 51.832813 
L 342.80981 52.804901 
L 345.529133 46.298604 
L 348.248457 51.785833 
L 350.96778 45.637484 
L 353.687104 43.657473 
L 356.406427 54.980868 
L 359.125751 44.736555 
L 361.845074 53.763773 
L 364.564397 46.321437 
L 367.283721 49.207477 
L 370.003044 43.007407 
L 372.722368 49.901631 
L 375.441691 48.740582 
L 378.161015 46.280534 
L 380.880338 45.668605 
L 383.599662 52.189699 
L 386.318985 50.118728 
L 389.038309 46.454092 
L 391.757632 46.243752 
L 394.476956 48.329179 
L 397.196279 48.019792 
L 399.915603 45.536423 
L 402.634926 40.541596 
L 405.354249 49.384656 
L 408.073573 41.349246 
L 410.792896 45.475617 
L 413.51222 42.358526 
L 416.231543 44.812575 
L 418.950867 49.071762 
L 421.67019 48.525591 
L 424.389514 46.735754 
L 427.108837 43.885092 
L 429.828161 41.977031 
L 432.547484 41.758468 
L 435.266808 40.053302 
L 437.986131 42.965178 
L 440.705455 49.405774 
L 443.424778 48.067918 
L 446.144101 42.768212 
L 448.863425 36.328778 
L 451.582748 39.847219 
L 454.302072 45.957702 
L 457.021395 46.293861 
L 459.740719 39.047027 
L 462.460042 47.133716 
L 465.179366 38.743892 
L 467.898689 49.076105 
L 470.618013 38.182715 
L 473.337336 41.759365 
L 476.05666 42.65334 
L 478.775983 52.331489 
L 481.495307 45.003759 
L 484.21463 36.631575 
L 486.933953 39.992741 
L 489.653277 43.918741 
L 492.3726 36.398712 
L 495.091924 34.997223 
L 497.811247 38.653455 
L 500.530571 37.416002 
L 503.249894 35.041331 
L 505.969218 40.548855 
L 511.407865 35.99399 
L 514.127188 37.452997 
L 516.846512 34.694305 
L 519.565835 38.737931 
L 522.285159 38.078781 
L 525.004482 43.189846 
L 527.723805 36.793761 
L 530.443129 44.434727 
L 533.162452 44.298183 
L 535.881776 43.590917 
L 538.601099 44.935064 
L 541.320423 40.089413 
L 544.039746 41.139951 
L 546.75907 40.335098 
L 549.478393 35.350529 
L 552.197717 38.73143 
L 554.91704 42.984823 
L 557.636364 39.315926 
L 560.355687 39.548862 
L 563.075011 41.170453 
L 565.794334 42.412391 
L 568.513658 33.766889 
L 571.232981 41.482013 
L 573.952304 43.259721 
L 576.671628 40.104706 
L 579.390951 50.01542 
L 582.110275 40.190787 
L 584.829598 38.563863 
L 587.548922 40.16473 
L 590.268245 45.476345 
L 592.987569 43.313168 
L 595.706892 40.017818 
L 598.426216 40.73946 
L 601.145539 39.602633 
L 603.864863 41.130616 
L 606.584186 35.285912 
L 609.30351 48.433396 
L 612.022833 39.299955 
L 614.742156 46.123808 
L 617.46148 40.509543 
L 620.180803 32.129863 
L 622.900127 36.941097 
L 625.61945 36.945666 
L 628.338774 44.729139 
L 631.058097 39.573201 
L 633.777421 41.15652 
L 636.496744 37.868568 
L 639.216068 39.99281 
L 641.935391 40.576768 
L 644.654715 37.24816 
L 647.374038 45.167622 
L 650.093362 38.548799 
L 652.812685 41.142139 
L 655.532008 45.800549 
L 658.251332 39.625544 
L 660.970655 45.049556 
L 663.689979 38.707432 
L 666.409302 49.510353 
L 669.128626 39.713785 
L 671.847949 40.547421 
L 674.567273 36.733784 
L 674.567273 36.733784 
" style="fill:none;stroke:#1f77b4;stroke-linecap:square;stroke-width:1.5;"/>
   </g>
   <g id="line2d_13">
    <path clip-path="url(#pe7e69ae912)" d="M 89.912727 105.196497 
L 92.632051 73.19048 
L 95.351374 76.840024 
L 98.070698 75.965009 
L 100.790021 71.253528 
L 103.509345 68.69523 
L 106.228668 76.312841 
L 108.947992 66.757422 
L 111.667315 62.94695 
L 114.386638 59.911079 
L 117.105962 58.727891 
L 119.825285 62.653637 
L 122.544609 53.587926 
L 125.263932 50.88957 
L 127.983256 51.763038 
L 130.702579 56.618971 
L 133.421903 50.563561 
L 136.141226 54.823436 
L 138.86055 43.810052 
L 141.579873 54.645714 
L 144.299197 45.792576 
L 147.01852 61.296747 
L 149.737844 51.373135 
L 152.457167 48.14842 
L 155.17649 48.096422 
L 157.895814 53.451069 
L 160.615137 51.568148 
L 163.334461 45.785905 
L 166.053784 42.601731 
L 168.773108 51.240096 
L 171.492431 42.638654 
L 174.211755 46.640671 
L 176.931078 45.487431 
L 179.650402 45.120954 
L 182.369725 46.157056 
L 185.089049 50.743163 
L 187.808372 44.434875 
L 190.527696 42.779291 
L 193.247019 48.297698 
L 195.966342 47.160888 
L 198.685666 43.953604 
L 201.404989 43.477154 
L 204.124313 43.800447 
L 206.843636 40.328467 
L 209.56296 40.460183 
L 212.282283 38.542679 
L 215.001607 43.279618 
L 217.72093 47.318852 
L 220.440254 42.780251 
L 223.159577 42.036029 
L 225.878901 44.787251 
L 228.598224 43.112474 
L 231.317548 40.543578 
L 234.036871 40.99944 
L 236.756195 44.924002 
L 239.475518 42.695164 
L 242.194841 43.147436 
L 244.914165 43.251231 
L 247.633488 42.365846 
L 250.352812 36.637055 
L 253.072135 41.808684 
L 255.791459 39.207565 
L 258.510782 49.143072 
L 261.230106 41.144066 
L 263.949429 34.878782 
L 266.668753 40.551327 
L 269.388076 41.370647 
L 272.1074 42.460174 
L 274.826723 42.207126 
L 277.546047 42.184725 
L 280.26537 40.400277 
L 282.984693 42.74337 
L 285.704017 37.36422 
L 288.42334 41.244741 
L 291.142664 42.691328 
L 293.861987 41.806869 
L 296.581311 40.004339 
L 299.300634 41.706799 
L 302.019958 38.131659 
L 304.739281 39.091859 
L 307.458605 37.419666 
L 310.177928 42.922882 
L 312.897252 38.464205 
L 315.616575 39.571969 
L 318.335899 36.132475 
L 321.055222 34.211354 
L 323.774545 40.707841 
L 326.493869 39.045575 
L 329.213192 34.192629 
L 331.932516 38.287189 
L 334.651839 38.232472 
L 337.371163 41.789605 
L 340.090486 33.529507 
L 342.80981 38.814959 
L 345.529133 37.369988 
L 348.248457 37.242387 
L 350.96778 33.471174 
L 353.687104 39.194012 
L 356.406427 39.204329 
L 359.125751 40.728694 
L 361.845074 36.617938 
L 364.564397 38.043062 
L 367.283721 37.009295 
L 370.003044 36.697739 
L 372.722368 39.12464 
L 375.441691 41.999304 
L 378.161015 36.386052 
L 380.880338 36.285091 
L 383.599662 39.506837 
L 386.318985 37.401791 
L 389.038309 36.54626 
L 391.757632 40.486343 
L 394.476956 40.560993 
L 397.196279 41.189116 
L 399.915603 35.61709 
L 402.634926 41.858309 
L 405.354249 40.235366 
L 408.073573 33.653922 
L 410.792896 34.353205 
L 413.51222 35.216364 
L 416.231543 36.717772 
L 418.950867 39.533638 
L 421.67019 36.920922 
L 424.389514 38.104612 
L 427.108837 38.326009 
L 429.828161 32.857178 
L 432.547484 40.270258 
L 435.266808 38.453563 
L 437.986131 37.959041 
L 440.705455 41.658619 
L 443.424778 35.460829 
L 446.144101 32.450544 
L 448.863425 30.802392 
L 451.582748 36.00475 
L 454.302072 37.602874 
L 457.021395 39.04464 
L 459.740719 38.744738 
L 462.460042 42.69001 
L 465.179366 41.428962 
L 467.898689 37.111772 
L 470.618013 29.281818 
L 473.337336 42.014291 
L 476.05666 38.614356 
L 478.775983 40.720484 
L 481.495307 39.911636 
L 484.21463 39.457331 
L 486.933953 37.10401 
L 489.653277 39.006689 
L 492.3726 37.123185 
L 495.091924 35.620477 
L 497.811247 37.72436 
L 500.530571 35.923376 
L 503.249894 37.652673 
L 505.969218 42.049527 
L 508.688541 39.082588 
L 511.407865 39.068262 
L 514.127188 40.406562 
L 516.846512 32.111512 
L 519.565835 34.99951 
L 522.285159 37.27881 
L 525.004482 39.04442 
L 527.723805 38.659705 
L 530.443129 33.792229 
L 533.162452 39.464235 
L 535.881776 37.066772 
L 538.601099 35.135859 
L 541.320423 39.484577 
L 544.039746 38.837821 
L 546.75907 43.350642 
L 549.478393 36.201727 
L 552.197717 38.27088 
L 554.91704 40.07577 
L 557.636364 36.597825 
L 560.355687 40.716738 
L 563.075011 43.763137 
L 565.794334 41.980668 
L 568.513658 33.460527 
L 571.232981 38.517324 
L 573.952304 39.53509 
L 576.671628 38.023797 
L 579.390951 38.262674 
L 582.110275 32.564551 
L 584.829598 39.676975 
L 587.548922 37.782872 
L 590.268245 46.337627 
L 592.987569 37.354751 
L 595.706892 37.854125 
L 598.426216 36.836578 
L 601.145539 38.585223 
L 603.864863 37.281023 
L 606.584186 34.343772 
L 609.30351 39.992823 
L 612.022833 35.640515 
L 614.742156 41.052306 
L 617.46148 40.195562 
L 620.180803 43.55048 
L 622.900127 39.911473 
L 625.61945 36.951832 
L 628.338774 42.336527 
L 631.058097 34.088352 
L 633.777421 37.77533 
L 636.496744 40.307672 
L 639.216068 36.754347 
L 641.935391 38.38487 
L 644.654715 38.735603 
L 647.374038 43.855407 
L 650.093362 40.655652 
L 652.812685 35.897558 
L 655.532008 41.383768 
L 658.251332 39.163069 
L 660.970655 41.884569 
L 663.689979 38.616265 
L 666.409302 45.914794 
L 669.128626 43.12058 
L 671.847949 43.309307 
L 674.567273 42.358298 
L 674.567273 42.358298 
" style="fill:none;stroke:#ff7f0e;stroke-linecap:square;stroke-width:1.5;"/>
   </g>
   <g id="line2d_14">
    <path clip-path="url(#pe7e69ae912)" d="M 89.912727 290.918182 
L 125.263932 290.918182 
L 127.983256 289.339951 
L 130.702579 290.918182 
L 133.421903 290.333652 
L 136.141226 290.918182 
L 144.299197 290.859729 
L 147.01852 290.509011 
L 149.737844 290.918182 
L 152.457167 290.859729 
L 157.895814 290.918182 
L 160.615137 290.742823 
L 163.334461 289.632216 
L 166.053784 289.690669 
L 168.773108 288.112438 
L 171.492431 290.509011 
L 174.211755 290.392105 
L 176.931078 290.918182 
L 179.650402 290.509011 
L 182.369725 289.047686 
L 185.089049 290.859729 
L 187.808372 289.690669 
L 190.527696 288.696968 
L 193.247019 290.68437 
L 195.966342 290.918182 
L 198.685666 290.918182 
L 201.404989 288.112438 
L 204.124313 290.918182 
L 206.843636 290.509011 
L 209.56296 290.918182 
L 215.001607 290.742823 
L 217.72093 290.509011 
L 220.440254 290.801276 
L 223.159577 290.918182 
L 225.878901 290.859729 
L 228.598224 288.93078 
L 231.317548 290.859729 
L 236.756195 290.450558 
L 239.475518 290.567464 
L 242.194841 289.749122 
L 244.914165 290.450558 
L 247.633488 290.918182 
L 250.352812 290.275199 
L 253.072135 290.625917 
L 255.791459 285.657412 
L 258.510782 290.68437 
L 261.230106 286.943378 
L 263.949429 287.527908 
L 266.668753 290.859729 
L 269.388076 288.93078 
L 272.1074 290.158293 
L 274.826723 289.690669 
L 277.546047 289.690669 
L 280.26537 290.801276 
L 282.984693 288.696968 
L 285.704017 290.216746 
L 288.42334 290.742823 
L 291.142664 290.275199 
L 293.861987 290.68437 
L 296.581311 289.281498 
L 299.300634 290.275199 
L 302.019958 290.742823 
L 304.739281 289.398404 
L 307.458605 290.918182 
L 310.177928 285.365147 
L 312.897252 290.216746 
L 315.616575 285.306694 
L 318.335899 288.638515 
L 323.774545 290.742823 
L 326.493869 286.125036 
L 329.213192 289.573763 
L 331.932516 289.339951 
L 334.651839 290.392105 
L 337.371163 289.456857 
L 340.090486 286.59266 
L 342.80981 288.989233 
L 345.529133 288.170891 
L 348.248457 289.690669 
L 350.96778 286.709566 
L 353.687104 286.066583 
L 356.406427 290.742823 
L 359.125751 290.625917 
L 364.564397 290.918182 
L 367.283721 286.709566 
L 370.003044 285.832771 
L 372.722368 288.872327 
L 378.161015 290.68437 
L 383.599662 290.742823 
L 386.318985 289.106139 
L 389.038309 289.807575 
L 391.757632 289.456857 
L 394.476956 286.475754 
L 397.196279 286.475754 
L 399.915603 289.456857 
L 402.634926 284.020727 
L 405.354249 289.573763 
L 408.073573 287.937079 
L 410.792896 288.287797 
L 413.51222 281.507248 
L 416.231543 289.866028 
L 418.950867 287.995532 
L 421.67019 288.34625 
L 427.108837 285.482053 
L 429.828161 288.813874 
L 432.547484 283.143932 
L 435.266808 279.461393 
L 437.986131 282.793214 
L 440.705455 289.223045 
L 443.424778 287.411002 
L 446.144101 288.463156 
L 448.863425 287.235643 
L 451.582748 281.273436 
L 454.302072 281.974872 
L 457.021395 289.51531 
L 459.740719 280.922718 
L 462.460042 284.839069 
L 465.179366 286.943378 
L 467.898689 273.148469 
L 470.618013 286.417301 
L 473.337336 285.189787 
L 476.05666 280.338188 
L 478.775983 284.137633 
L 481.495307 281.974872 
L 484.21463 277.64935 
L 486.933953 279.753658 
L 489.653277 281.448795 
L 492.3726 282.091778 
L 495.091924 284.546804 
L 497.811247 279.40294 
L 500.530571 270.751896 
L 503.249894 281.916419 
L 505.969218 273.440734 
L 508.688541 277.532444 
L 511.407865 277.64935 
L 514.127188 281.390342 
L 516.846512 278.116974 
L 519.565835 266.251014 
L 522.285159 272.447033 
L 525.004482 286.884925 
L 527.723805 272.622392 
L 530.443129 266.543279 
L 533.162452 279.578299 
L 535.881776 281.15653 
L 538.601099 277.766256 
L 541.320423 268.706041 
L 544.039746 274.375982 
L 546.75907 275.954213 
L 549.478393 262.510022 
L 552.197717 266.075655 
L 554.91704 280.981171 
L 557.636364 267.595434 
L 560.355687 275.89576 
L 563.075011 271.277973 
L 565.794334 276.655649 
L 568.513658 270.927255 
L 571.232981 258.535218 
L 573.952304 263.153005 
L 576.671628 279.344487 
L 579.390951 274.902059 
L 582.110275 270.985708 
L 584.829598 267.946152 
L 587.548922 267.303168 
L 590.268245 259.470466 
L 592.987569 265.78339 
L 595.706892 277.473991 
L 598.426216 283.728462 
L 601.145539 264.146706 
L 603.864863 278.935316 
L 606.584186 261.867039 
L 609.30351 285.24824 
L 612.022833 273.440734 
L 614.742156 276.012666 
L 617.46148 253.625166 
L 620.180803 247.662959 
L 622.900127 260.52262 
L 625.61945 251.403952 
L 628.338774 251.696217 
L 631.058097 259.295107 
L 633.777421 257.424611 
L 636.496744 262.510022 
L 639.216068 263.153005 
L 641.935391 263.269911 
L 644.654715 259.412013 
L 647.374038 256.956987 
L 650.093362 256.956987 
L 652.812685 264.497424 
L 655.532008 266.777091 
L 658.251332 260.054996 
L 660.970655 260.873338 
L 663.689979 262.451569 
L 666.409302 265.78339 
L 669.128626 238.13512 
L 671.847949 246.376993 
L 674.567273 249.708814 
L 674.567273 249.708814 
" style="fill:none;stroke:#2ca02c;stroke-linecap:square;stroke-width:1.5;"/>
   </g>
   <g id="patch_3">
    <path d="M 60.68 304 
L 60.68 16.2 
" style="fill:none;stroke:#000000;stroke-linecap:square;stroke-linejoin:miter;stroke-width:0.8;"/>
   </g>
   <g id="patch_4">
    <path d="M 703.8 304 
L 703.8 16.2 
" style="fill:none;stroke:#000000;stroke-linecap:square;stroke-linejoin:miter;stroke-width:0.8;"/>
   </g>
   <g id="patch_5">
    <path d="M 60.68 304 
L 703.8 304 
" style="fill:none;stroke:#000000;stroke-linecap:square;stroke-linejoin:miter;stroke-width:0.8;"/>
   </g>
   <g id="patch_6">
    <path d="M 60.68 16.2 
L 703.8 16.2 
" style="fill:none;stroke:#000000;stroke-linecap:square;stroke-linejoin:miter;stroke-width:0.8;"/>
   </g>
   <g id="legend_1">
    <g id="patch_7">
     <path d="M 505.942969 195.375781 
L 693.3 195.375781 
Q 696.3 195.375781 696.3 192.375781 
L 696.3 127.824219 
Q 696.3 124.824219 693.3 124.824219 
L 505.942969 124.824219 
Q 502.942969 124.824219 502.942969 127.824219 
L 502.942969 192.375781 
Q 502.942969 195.375781 505.942969 195.375781 
z
" style="fill:#ffffff;opacity:0.8;stroke:#cccccc;stroke-linejoin:miter;"/>
    </g>
    <g id="line2d_15">
     <path d="M 508.942969 136.971875 
L 538.942969 136.971875 
" style="fill:none;stroke:#1f77b4;stroke-linecap:square;stroke-width:1.5;"/>
    </g>
    <g id="line2d_16"/>
    <g id="text_14">
     <text style="font-family:DejaVu Sans;font-size:15px;font-style:normal;font-weight:normal;text-anchor:start;" transform="rotate(-0, 550.942969, 142.221875)" x="550.942969" y="142.221875">position reward</text>
    </g>
    <g id="line2d_17">
     <path d="M 508.942969 158.989063 
L 538.942969 158.989063 
" style="fill:none;stroke:#ff7f0e;stroke-linecap:square;stroke-width:1.5;"/>
    </g>
    <g id="line2d_18"/>
    <g id="text_15">
     <text style="font-family:DejaVu Sans;font-size:15px;font-style:normal;font-weight:normal;text-anchor:start;" transform="rotate(-0, 550.942969, 164.239063)" x="550.942969" y="164.239063">orientation reward</text>
    </g>
    <g id="line2d_19">
     <path d="M 508.942969 181.00625 
L 538.942969 181.00625 
" style="fill:none;stroke:#2ca02c;stroke-linecap:square;stroke-width:1.5;"/>
    </g>
    <g id="line2d_20"/>
    <g id="text_16">
     <text style="font-family:DejaVu Sans;font-size:15px;font-style:normal;font-weight:normal;text-anchor:start;" transform="rotate(-0, 550.942969, 186.25625)" x="550.942969" y="186.25625">bonus reward</text>
    </g>
   </g>
  </g>
 </g>
 <defs>
  <clipPath id="pe7e69ae912">
   <rect height="287.8" width="643.12" x="60.68" y="16.2"/>
  </clipPath>
 </defs>
</svg>
