<?xml version="1.0" encoding="utf-8" standalone="no"?>
<!DOCTYPE svg PUBLIC "-//W3C//DTD SVG 1.1//EN"
  "http://www.w3.org/Graphics/SVG/1.1/DTD/svg11.dtd">
<!-- Created with matplotlib (https://matplotlib.org/) -->
<svg height="360pt" version="1.1" viewBox="0 0 720 360" width="720pt" xmlns="http://www.w3.org/2000/svg" xmlns:xlink="http://www.w3.org/1999/xlink">
 <defs>
  <style type="text/css">
*{stroke-linecap:butt;stroke-linejoin:round;}
  </style>
 </defs>
 <g id="figure_1">
  <g id="patch_1">
   <path d="M 0 360 
L 720 360 
L 720 0 
L 0 0 
z
" style="fill:#ffffff;"/>
  </g>
  <g id="axes_1">
   <g id="patch_2">
    <path d="M 60.68 304 
L 703.8 304 
L 703.8 16.2 
L 60.68 16.2 
z
" style="fill:#ffffff;"/>
   </g>
   <g id="matplotlib.axis_1">
    <g id="xtick_1">
     <g id="line2d_1">
      <defs>
       <path d="M 0 0 
L 0 3.5 
" id="m05a3c4905d" style="stroke:#000000;stroke-width:0.8;"/>
      </defs>
      <g>
       <use style="stroke:#000000;stroke-width:0.8;" x="87.193404" xlink:href="#m05a3c4905d" y="304"/>
      </g>
     </g>
     <g id="text_1">
      <text style="font-family:DejaVu Sans;font-size:15px;font-style:normal;font-weight:normal;text-anchor:middle;" transform="rotate(-0, 87.193404, 322.397656)" x="87.193404" y="322.397656">0</text>
     </g>
    </g>
    <g id="xtick_2">
     <g id="line2d_2">
      <g>
       <use style="stroke:#000000;stroke-width:0.8;" x="195.966342" xlink:href="#m05a3c4905d" y="304"/>
      </g>
     </g>
     <g id="text_2">
      <text style="font-family:DejaVu Sans;font-size:15px;font-style:normal;font-weight:normal;text-anchor:middle;" transform="rotate(-0, 195.966342, 322.397656)" x="195.966342" y="322.397656">20000</text>
     </g>
    </g>
    <g id="xtick_3">
     <g id="line2d_3">
      <g>
       <use style="stroke:#000000;stroke-width:0.8;" x="304.739281" xlink:href="#m05a3c4905d" y="304"/>
      </g>
     </g>
     <g id="text_3">
      <text style="font-family:DejaVu Sans;font-size:15px;font-style:normal;font-weight:normal;text-anchor:middle;" transform="rotate(-0, 304.739281, 322.397656)" x="304.739281" y="322.397656">40000</text>
     </g>
    </g>
    <g id="xtick_4">
     <g id="line2d_4">
      <g>
       <use style="stroke:#000000;stroke-width:0.8;" x="413.51222" xlink:href="#m05a3c4905d" y="304"/>
      </g>
     </g>
     <g id="text_4">
      <text style="font-family:DejaVu Sans;font-size:15px;font-style:normal;font-weight:normal;text-anchor:middle;" transform="rotate(-0, 413.51222, 322.397656)" x="413.51222" y="322.397656">60000</text>
     </g>
    </g>
    <g id="xtick_5">
     <g id="line2d_5">
      <g>
       <use style="stroke:#000000;stroke-width:0.8;" x="522.285159" xlink:href="#m05a3c4905d" y="304"/>
      </g>
     </g>
     <g id="text_5">
      <text style="font-family:DejaVu Sans;font-size:15px;font-style:normal;font-weight:normal;text-anchor:middle;" transform="rotate(-0, 522.285159, 322.397656)" x="522.285159" y="322.397656">80000</text>
     </g>
    </g>
    <g id="xtick_6">
     <g id="line2d_6">
      <g>
       <use style="stroke:#000000;stroke-width:0.8;" x="631.058097" xlink:href="#m05a3c4905d" y="304"/>
      </g>
     </g>
     <g id="text_6">
      <text style="font-family:DejaVu Sans;font-size:15px;font-style:normal;font-weight:normal;text-anchor:middle;" transform="rotate(-0, 631.058097, 322.397656)" x="631.058097" y="322.397656">100000</text>
     </g>
    </g>
    <g id="text_7">
     <text style="font-family:DejaVu Sans;font-size:15px;font-style:normal;font-weight:normal;text-anchor:middle;" transform="rotate(-0, 382.24, 340.914844)" x="382.24" y="340.914844">Episodes</text>
    </g>
   </g>
   <g id="matplotlib.axis_2">
    <g id="ytick_1">
     <g id="line2d_7">
      <defs>
       <path d="M 0 0 
L -3.5 0 
" id="m91d01c2c89" style="stroke:#000000;stroke-width:0.8;"/>
      </defs>
      <g>
       <use style="stroke:#000000;stroke-width:0.8;" x="60.68" xlink:href="#m91d01c2c89" y="303.859916"/>
      </g>
     </g>
     <g id="text_8">
      <text style="font-family:DejaVu Sans;font-size:15px;font-style:normal;font-weight:normal;text-anchor:end;" transform="rotate(-0, 53.68, 309.558745)" x="53.68" y="309.558745">18</text>
     </g>
    </g>
    <g id="ytick_2">
     <g id="line2d_8">
      <g>
       <use style="stroke:#000000;stroke-width:0.8;" x="60.68" xlink:href="#m91d01c2c89" y="270.214733"/>
      </g>
     </g>
     <g id="text_9">
      <text style="font-family:DejaVu Sans;font-size:15px;font-style:normal;font-weight:normal;text-anchor:end;" transform="rotate(-0, 53.68, 275.913561)" x="53.68" y="275.913561">20</text>
     </g>
    </g>
    <g id="ytick_3">
     <g id="line2d_9">
      <g>
       <use style="stroke:#000000;stroke-width:0.8;" x="60.68" xlink:href="#m91d01c2c89" y="236.56955"/>
      </g>
     </g>
     <g id="text_10">
      <text style="font-family:DejaVu Sans;font-size:15px;font-style:normal;font-weight:normal;text-anchor:end;" transform="rotate(-0, 53.68, 242.268378)" x="53.68" y="242.268378">22</text>
     </g>
    </g>
    <g id="ytick_4">
     <g id="line2d_10">
      <g>
       <use style="stroke:#000000;stroke-width:0.8;" x="60.68" xlink:href="#m91d01c2c89" y="202.924367"/>
      </g>
     </g>
     <g id="text_11">
      <text style="font-family:DejaVu Sans;font-size:15px;font-style:normal;font-weight:normal;text-anchor:end;" transform="rotate(-0, 53.68, 208.623195)" x="53.68" y="208.623195">24</text>
     </g>
    </g>
    <g id="ytick_5">
     <g id="line2d_11">
      <g>
       <use style="stroke:#000000;stroke-width:0.8;" x="60.68" xlink:href="#m91d01c2c89" y="169.279183"/>
      </g>
     </g>
     <g id="text_12">
      <text style="font-family:DejaVu Sans;font-size:15px;font-style:normal;font-weight:normal;text-anchor:end;" transform="rotate(-0, 53.68, 174.978011)" x="53.68" y="174.978011">26</text>
     </g>
    </g>
    <g id="ytick_6">
     <g id="line2d_12">
      <g>
       <use style="stroke:#000000;stroke-width:0.8;" x="60.68" xlink:href="#m91d01c2c89" y="135.634"/>
      </g>
     </g>
     <g id="text_13">
      <text style="font-family:DejaVu Sans;font-size:15px;font-style:normal;font-weight:normal;text-anchor:end;" transform="rotate(-0, 53.68, 141.332828)" x="53.68" y="141.332828">28</text>
     </g>
    </g>
    <g id="ytick_7">
     <g id="line2d_13">
      <g>
       <use style="stroke:#000000;stroke-width:0.8;" x="60.68" xlink:href="#m91d01c2c89" y="101.988817"/>
      </g>
     </g>
     <g id="text_14">
      <text style="font-family:DejaVu Sans;font-size:15px;font-style:normal;font-weight:normal;text-anchor:end;" transform="rotate(-0, 53.68, 107.687645)" x="53.68" y="107.687645">30</text>
     </g>
    </g>
    <g id="ytick_8">
     <g id="line2d_14">
      <g>
       <use style="stroke:#000000;stroke-width:0.8;" x="60.68" xlink:href="#m91d01c2c89" y="68.343633"/>
      </g>
     </g>
     <g id="text_15">
      <text style="font-family:DejaVu Sans;font-size:15px;font-style:normal;font-weight:normal;text-anchor:end;" transform="rotate(-0, 53.68, 74.042461)" x="53.68" y="74.042461">32</text>
     </g>
    </g>
    <g id="ytick_9">
     <g id="line2d_15">
      <g>
       <use style="stroke:#000000;stroke-width:0.8;" x="60.68" xlink:href="#m91d01c2c89" y="34.69845"/>
      </g>
     </g>
     <g id="text_16">
      <text style="font-family:DejaVu Sans;font-size:15px;font-style:normal;font-weight:normal;text-anchor:end;" transform="rotate(-0, 53.68, 40.397278)" x="53.68" y="40.397278">34</text>
     </g>
    </g>
    <g id="text_17">
     <text style="font-family:DejaVu Sans;font-size:15px;font-style:normal;font-weight:normal;text-anchor:middle;" transform="rotate(-90, 27.472969, 160.1)" x="27.472969" y="160.1">Episode Reward Mean (Max 50)</text>
    </g>
   </g>
   <g id="line2d_16">
    <path clip-path="url(#pbb1382c498)" d="M 89.912727 290.918182 
L 92.632051 205.496409 
L 95.351374 221.654779 
L 98.070698 186.418466 
L 100.790021 178.959067 
L 103.509345 184.778285 
L 106.228668 164.338855 
L 108.947992 161.684008 
L 111.667315 152.266688 
L 114.386638 157.285262 
L 117.105962 143.443429 
L 119.825285 136.857742 
L 122.544609 135.055462 
L 125.263932 145.159577 
L 127.983256 127.797914 
L 130.702579 126.862524 
L 133.421903 122.242068 
L 136.141226 134.344621 
L 138.86055 124.341884 
L 141.579873 128.322857 
L 144.299197 117.211177 
L 147.01852 115.658449 
L 149.737844 119.816591 
L 152.457167 103.752381 
L 155.17649 115.067549 
L 157.895814 96.602772 
L 160.615137 118.937129 
L 163.334461 108.218699 
L 166.053784 96.43751 
L 168.773108 88.217577 
L 171.492431 103.823572 
L 174.211755 104.823538 
L 176.931078 94.11632 
L 179.650402 97.102254 
L 182.369725 108.581961 
L 185.089049 98.105919 
L 187.808372 96.113528 
L 190.527696 107.252596 
L 193.247019 96.215324 
L 195.966342 86.092926 
L 198.685666 92.006941 
L 201.404989 98.334407 
L 204.124313 94.038718 
L 206.843636 85.185217 
L 209.56296 91.334126 
L 212.282283 82.690702 
L 215.001607 84.330733 
L 217.72093 80.944277 
L 220.440254 94.115504 
L 223.159577 91.299014 
L 225.878901 79.142917 
L 228.598224 89.676039 
L 231.317548 82.858372 
L 234.036871 72.806765 
L 236.756195 79.035498 
L 239.475518 104.058728 
L 242.194841 89.714885 
L 244.914165 93.19349 
L 247.633488 85.769705 
L 250.352812 90.245819 
L 253.072135 70.920571 
L 255.791459 95.507307 
L 258.510782 81.163775 
L 261.230106 82.435805 
L 263.949429 87.73336 
L 266.668753 102.509656 
L 269.388076 83.38471 
L 272.1074 75.337983 
L 274.826723 81.966555 
L 277.546047 80.708293 
L 280.26537 85.888745 
L 282.984693 78.685839 
L 285.704017 69.458706 
L 288.42334 72.24133 
L 291.142664 83.671428 
L 293.861987 75.789581 
L 296.581311 95.638504 
L 299.300634 76.341721 
L 302.019958 68.192766 
L 304.739281 83.802669 
L 307.458605 87.188794 
L 310.177928 92.157235 
L 312.897252 69.072287 
L 315.616575 88.545751 
L 318.335899 74.546687 
L 321.055222 73.831983 
L 323.774545 77.608964 
L 326.493869 68.740937 
L 329.213192 79.821329 
L 331.932516 81.392546 
L 334.651839 75.598938 
L 337.371163 79.517632 
L 340.090486 76.354955 
L 342.80981 66.195135 
L 348.248457 81.894066 
L 350.96778 69.233458 
L 353.687104 78.690902 
L 356.406427 69.166898 
L 359.125751 72.623377 
L 361.845074 72.170327 
L 364.564397 74.454884 
L 367.283721 69.041983 
L 370.003044 77.186845 
L 372.722368 73.639847 
L 375.441691 82.365421 
L 378.161015 63.100004 
L 380.880338 60.787831 
L 383.599662 76.432636 
L 386.318985 73.406098 
L 389.038309 58.003633 
L 391.757632 69.250608 
L 394.476956 75.459463 
L 397.196279 73.74233 
L 399.915603 71.326762 
L 402.634926 72.278162 
L 405.354249 69.129484 
L 408.073573 66.58311 
L 410.792896 63.237059 
L 413.51222 66.190492 
L 416.231543 72.116413 
L 418.950867 60.980678 
L 421.67019 64.184424 
L 424.389514 68.025966 
L 427.108837 65.744057 
L 429.828161 66.396408 
L 432.547484 59.829039 
L 435.266808 73.73588 
L 437.986131 61.369742 
L 440.705455 64.928853 
L 443.424778 73.424951 
L 446.144101 73.889935 
L 448.863425 68.870935 
L 451.582748 70.775396 
L 454.302072 65.156011 
L 457.021395 67.056155 
L 459.740719 63.603286 
L 462.460042 65.241329 
L 465.179366 62.105524 
L 467.898689 58.638209 
L 470.618013 64.062504 
L 473.337336 64.792293 
L 476.05666 68.568147 
L 478.775983 50.713903 
L 481.495307 63.488062 
L 484.21463 70.33143 
L 486.933953 72.763149 
L 489.653277 61.409427 
L 492.3726 52.78097 
L 495.091924 61.893798 
L 497.811247 56.114131 
L 500.530571 60.912415 
L 503.249894 60.828412 
L 505.969218 61.973496 
L 508.688541 65.636068 
L 511.407865 67.123644 
L 514.127188 56.282756 
L 516.846512 64.237391 
L 519.565835 61.92127 
L 522.285159 68.397679 
L 525.004482 52.530002 
L 527.723805 54.174747 
L 530.443129 56.289192 
L 533.162452 47.113682 
L 535.881776 63.8263 
L 538.601099 54.608141 
L 541.320423 56.172127 
L 544.039746 54.877971 
L 546.75907 74.841953 
L 549.478393 62.719047 
L 552.197717 47.488615 
L 554.91704 65.377579 
L 557.636364 48.614994 
L 560.355687 62.50038 
L 563.075011 64.766899 
L 565.794334 54.189035 
L 568.513658 69.943867 
L 571.232981 55.645711 
L 573.952304 54.025771 
L 576.671628 57.41032 
L 579.390951 68.210907 
L 582.110275 59.317984 
L 584.829598 60.604646 
L 587.548922 62.908672 
L 590.268245 76.954159 
L 592.987569 60.160753 
L 595.706892 61.997608 
L 598.426216 56.794403 
L 601.145539 48.240233 
L 603.864863 54.995533 
L 606.584186 67.569206 
L 609.30351 59.744727 
L 612.022833 59.612091 
L 614.742156 58.633078 
L 617.46148 45.559854 
L 620.180803 54.024054 
L 622.900127 59.95026 
L 625.61945 72.419623 
L 628.338774 64.053922 
L 631.058097 57.649913 
L 633.777421 49.32942 
L 636.496744 55.514555 
L 639.216068 56.568807 
L 641.935391 56.827531 
L 644.654715 43.743139 
L 647.374038 55.086759 
L 650.093362 56.808445 
L 652.812685 54.873584 
L 655.532008 64.489541 
L 658.251332 61.724864 
L 660.970655 55.76891 
L 663.689979 51.630779 
L 666.409302 52.784745 
L 669.128626 54.975345 
L 671.847949 60.949522 
L 674.567273 49.058159 
L 674.567273 49.058159 
" style="fill:none;stroke:#1f77b4;stroke-linecap:square;stroke-width:1.5;"/>
   </g>
   <g id="line2d_17">
    <path clip-path="url(#pbb1382c498)" d="M 89.912727 271.280789 
L 92.632051 192.375601 
L 95.351374 197.250923 
L 98.070698 184.045649 
L 100.790021 177.141634 
L 103.509345 166.724245 
L 106.228668 183.267327 
L 108.947992 165.724272 
L 111.667315 164.590334 
L 114.386638 152.338651 
L 117.105962 139.246865 
L 119.825285 139.697424 
L 125.263932 122.853948 
L 127.983256 126.093516 
L 130.702579 121.67155 
L 133.421903 117.622546 
L 136.141226 124.27726 
L 138.86055 106.985628 
L 141.579873 121.137516 
L 144.299197 100.393793 
L 147.01852 123.071989 
L 149.737844 106.738861 
L 152.457167 106.797973 
L 155.17649 111.089077 
L 157.895814 112.295345 
L 160.615137 101.357133 
L 163.334461 99.006044 
L 166.053784 90.737159 
L 168.773108 102.748441 
L 171.492431 86.975517 
L 174.211755 95.313539 
L 176.931078 92.248514 
L 179.650402 95.887475 
L 182.369725 95.414207 
L 185.089049 93.998295 
L 187.808372 90.898922 
L 190.527696 83.560256 
L 193.247019 93.714994 
L 195.966342 95.359781 
L 201.404989 86.544448 
L 204.124313 89.679481 
L 206.843636 87.657376 
L 209.56296 83.885903 
L 212.282283 77.925203 
L 215.001607 89.495961 
L 217.72093 99.547139 
L 220.440254 80.046462 
L 223.159577 84.802792 
L 225.878901 93.984825 
L 228.598224 78.95439 
L 231.317548 84.257415 
L 234.036871 80.570857 
L 236.756195 87.436886 
L 239.475518 91.782618 
L 242.194841 90.05665 
L 244.914165 87.264503 
L 247.633488 81.535345 
L 250.352812 70.938528 
L 253.072135 84.454354 
L 255.791459 78.25888 
L 258.510782 87.440542 
L 261.230106 85.897386 
L 263.949429 67.479955 
L 266.668753 79.742652 
L 269.388076 79.395394 
L 272.1074 88.439521 
L 274.826723 79.764888 
L 277.546047 83.063635 
L 280.26537 89.285166 
L 282.984693 80.485859 
L 285.704017 72.40687 
L 288.42334 77.941812 
L 291.142664 81.249353 
L 293.861987 80.692118 
L 296.581311 85.069923 
L 299.300634 85.156539 
L 302.019958 73.859719 
L 304.739281 71.513722 
L 307.458605 72.529663 
L 310.177928 75.860025 
L 312.897252 72.887438 
L 315.616575 72.485452 
L 318.335899 65.547342 
L 321.055222 64.531889 
L 323.774545 82.333048 
L 326.493869 72.965313 
L 329.213192 70.535176 
L 331.932516 70.719687 
L 334.651839 69.274783 
L 337.371163 78.890602 
L 340.090486 67.740593 
L 342.80981 76.218286 
L 345.529133 67.048184 
L 348.248457 73.925967 
L 350.96778 61.075515 
L 353.687104 64.652297 
L 356.406427 80.24859 
L 359.125751 70.753576 
L 361.845074 76.143723 
L 364.564397 69.775887 
L 367.283721 68.746864 
L 370.003044 61.088421 
L 372.722368 73.335073 
L 375.441691 75.815318 
L 378.161015 67.775209 
L 380.880338 67.00583 
L 383.599662 77.562732 
L 386.318985 71.878234 
L 389.038309 67.504574 
L 391.757632 71.277517 
L 394.476956 71.463874 
L 397.196279 71.807866 
L 399.915603 65.259056 
L 402.634926 62.692957 
L 405.354249 74.48055 
L 408.073573 57.5279 
L 410.792896 62.988269 
L 413.51222 55.677187 
L 416.231543 65.960145 
L 418.950867 72.250006 
L 421.67019 69.093153 
L 424.389514 67.42962 
L 427.108837 63.540604 
L 429.828161 57.9764 
L 432.547484 61.66152 
L 435.266808 55.211035 
L 437.986131 60.217154 
L 440.705455 75.787032 
L 443.424778 66.350523 
L 446.144101 58.139079 
L 448.863425 48.527461 
L 451.582748 53.64952 
L 454.302072 62.473621 
L 457.021395 69.817711 
L 459.740719 55.490684 
L 462.460042 71.293821 
L 465.179366 62.392262 
L 467.898689 58.958576 
L 470.618013 48.298448 
L 473.337336 65.016691 
L 476.05666 58.821476 
L 478.775983 74.27319 
L 481.495307 63.935794 
L 484.21463 51.297729 
L 486.933953 53.899467 
L 489.653277 61.409639 
L 492.3726 51.723608 
L 495.091924 50.355659 
L 497.811247 52.871226 
L 500.530571 43.36767 
L 503.249894 50.703945 
L 505.969218 55.294938 
L 508.688541 52.644823 
L 511.407865 50.189726 
L 514.127188 55.9003 
L 516.846512 41.615516 
L 519.565835 40.558925 
L 522.285159 46.765439 
L 525.004482 64.574962 
L 527.723805 46.995081 
L 530.443129 45.614463 
L 533.162452 60.967142 
L 535.881776 58.751923 
L 538.601099 55.679387 
L 541.320423 48.624324 
L 544.039746 53.139579 
L 546.75907 58.276885 
L 549.478393 35.508975 
L 552.197717 43.956327 
L 554.91704 61.21906 
L 557.636364 43.874981 
L 560.355687 54.543683 
L 563.075011 56.259095 
L 565.794334 59.544929 
L 568.513658 36.897577 
L 571.232981 41.765548 
L 576.671628 54.718578 
L 579.390951 62.476114 
L 582.110275 42.905577 
L 584.829598 46.638801 
L 587.548922 45.859708 
L 590.268245 55.189258 
L 592.987569 47.70211 
L 595.706892 53.095882 
L 598.426216 57.276573 
L 601.145539 43.84795 
L 603.864863 54.729755 
L 606.584186 32.971441 
L 609.30351 70.079972 
L 612.022833 47.030227 
L 614.742156 62.085887 
L 617.46148 38.994496 
L 620.180803 29.281818 
L 622.900127 39.799356 
L 625.61945 30.049319 
L 628.338774 44.471193 
L 631.058097 35.472303 
L 633.777421 39.814402 
L 636.496744 42.657832 
L 639.216068 41.578132 
L 641.935391 44.052198 
L 644.654715 38.062635 
L 647.374038 50.368736 
L 650.093362 39.772151 
L 652.812685 42.861152 
L 655.532008 55.449816 
L 658.251332 41.552357 
L 660.970655 50.932096 
L 663.689979 41.695679 
L 666.409302 63.628675 
L 669.128626 30.147507 
L 671.847949 37.180844 
L 674.567273 34.435874 
L 674.567273 34.435874 
" style="fill:none;stroke:#ff7f0e;stroke-linecap:square;stroke-width:1.5;"/>
   </g>
   <g id="patch_3">
    <path d="M 60.68 304 
L 60.68 16.2 
" style="fill:none;stroke:#000000;stroke-linecap:square;stroke-linejoin:miter;stroke-width:0.8;"/>
   </g>
   <g id="patch_4">
    <path d="M 703.8 304 
L 703.8 16.2 
" style="fill:none;stroke:#000000;stroke-linecap:square;stroke-linejoin:miter;stroke-width:0.8;"/>
   </g>
   <g id="patch_5">
    <path d="M 60.68 304 
L 703.8 304 
" style="fill:none;stroke:#000000;stroke-linecap:square;stroke-linejoin:miter;stroke-width:0.8;"/>
   </g>
   <g id="patch_6">
    <path d="M 60.68 16.2 
L 703.8 16.2 
" style="fill:none;stroke:#000000;stroke-linecap:square;stroke-linejoin:miter;stroke-width:0.8;"/>
   </g>
   <g id="legend_1">
    <g id="patch_7">
     <path d="M 466.8375 296.5 
L 693.3 296.5 
Q 696.3 296.5 696.3 293.5 
L 696.3 250.965625 
Q 696.3 247.965625 693.3 247.965625 
L 466.8375 247.965625 
Q 463.8375 247.965625 463.8375 250.965625 
L 463.8375 293.5 
Q 463.8375 296.5 466.8375 296.5 
z
" style="fill:#ffffff;opacity:0.8;stroke:#cccccc;stroke-linejoin:miter;"/>
    </g>
    <g id="line2d_18">
     <path d="M 469.8375 260.113281 
L 499.8375 260.113281 
" style="fill:none;stroke:#1f77b4;stroke-linecap:square;stroke-width:1.5;"/>
    </g>
    <g id="line2d_19"/>
    <g id="text_18">
     <text style="font-family:DejaVu Sans;font-size:15px;font-style:normal;font-weight:normal;text-anchor:start;" transform="rotate(-0, 511.8375, 265.363281)" x="511.8375" y="265.363281">training mean reward</text>
    </g>
    <g id="line2d_20">
     <path d="M 469.8375 282.130469 
L 499.8375 282.130469 
" style="fill:none;stroke:#ff7f0e;stroke-linecap:square;stroke-width:1.5;"/>
    </g>
    <g id="line2d_21"/>
    <g id="text_19">
     <text style="font-family:DejaVu Sans;font-size:15px;font-style:normal;font-weight:normal;text-anchor:start;" transform="rotate(-0, 511.8375, 287.380469)" x="511.8375" y="287.380469">validation mean reward</text>
    </g>
   </g>
  </g>
 </g>
 <defs>
  <clipPath id="pbb1382c498">
   <rect height="287.8" width="643.12" x="60.68" y="16.2"/>
  </clipPath>
 </defs>
</svg>
