<?xml version="1.0" encoding="utf-8" standalone="no"?>
<!DOCTYPE svg PUBLIC "-//W3C//DTD SVG 1.1//EN"
  "http://www.w3.org/Graphics/SVG/1.1/DTD/svg11.dtd">
<!-- Created with matplotlib (https://matplotlib.org/) -->
<svg height="360pt" version="1.1" viewBox="0 0 720 360" width="720pt" xmlns="http://www.w3.org/2000/svg" xmlns:xlink="http://www.w3.org/1999/xlink">
 <defs>
  <style type="text/css">
*{stroke-linecap:butt;stroke-linejoin:round;}
  </style>
 </defs>
 <g id="figure_1">
  <g id="patch_1">
   <path d="M 0 360 
L 720 360 
L 720 0 
L 0 0 
z
" style="fill:#ffffff;"/>
  </g>
  <g id="axes_1">
   <g id="patch_2">
    <path d="M 74.99 304 
L 703.8 304 
L 703.8 16.2 
L 74.99 16.2 
z
" style="fill:#ffffff;"/>
   </g>
   <g id="matplotlib.axis_1">
    <g id="xtick_1">
     <g id="line2d_1">
      <defs>
       <path d="M 0 0 
L 0 3.5 
" id="mb61e8fccc6" style="stroke:#000000;stroke-width:0.8;"/>
      </defs>
      <g>
       <use style="stroke:#000000;stroke-width:0.8;" x="100.913457" xlink:href="#mb61e8fccc6" y="304"/>
      </g>
     </g>
     <g id="text_1">
      <text style="font-family:DejaVu Sans;font-size:15px;font-style:normal;font-weight:normal;text-anchor:middle;" transform="rotate(-0, 100.913457, 322.397656)" x="100.913457" y="322.397656">0</text>
     </g>
    </g>
    <g id="xtick_2">
     <g id="line2d_2">
      <g>
       <use style="stroke:#000000;stroke-width:0.8;" x="207.266099" xlink:href="#mb61e8fccc6" y="304"/>
      </g>
     </g>
     <g id="text_2">
      <text style="font-family:DejaVu Sans;font-size:15px;font-style:normal;font-weight:normal;text-anchor:middle;" transform="rotate(-0, 207.266099, 322.397656)" x="207.266099" y="322.397656">20000</text>
     </g>
    </g>
    <g id="xtick_3">
     <g id="line2d_3">
      <g>
       <use style="stroke:#000000;stroke-width:0.8;" x="313.618742" xlink:href="#mb61e8fccc6" y="304"/>
      </g>
     </g>
     <g id="text_3">
      <text style="font-family:DejaVu Sans;font-size:15px;font-style:normal;font-weight:normal;text-anchor:middle;" transform="rotate(-0, 313.618742, 322.397656)" x="313.618742" y="322.397656">40000</text>
     </g>
    </g>
    <g id="xtick_4">
     <g id="line2d_4">
      <g>
       <use style="stroke:#000000;stroke-width:0.8;" x="419.971385" xlink:href="#mb61e8fccc6" y="304"/>
      </g>
     </g>
     <g id="text_4">
      <text style="font-family:DejaVu Sans;font-size:15px;font-style:normal;font-weight:normal;text-anchor:middle;" transform="rotate(-0, 419.971385, 322.397656)" x="419.971385" y="322.397656">60000</text>
     </g>
    </g>
    <g id="xtick_5">
     <g id="line2d_5">
      <g>
       <use style="stroke:#000000;stroke-width:0.8;" x="526.324027" xlink:href="#mb61e8fccc6" y="304"/>
      </g>
     </g>
     <g id="text_5">
      <text style="font-family:DejaVu Sans;font-size:15px;font-style:normal;font-weight:normal;text-anchor:middle;" transform="rotate(-0, 526.324027, 322.397656)" x="526.324027" y="322.397656">80000</text>
     </g>
    </g>
    <g id="xtick_6">
     <g id="line2d_6">
      <g>
       <use style="stroke:#000000;stroke-width:0.8;" x="632.67667" xlink:href="#mb61e8fccc6" y="304"/>
      </g>
     </g>
     <g id="text_6">
      <text style="font-family:DejaVu Sans;font-size:15px;font-style:normal;font-weight:normal;text-anchor:middle;" transform="rotate(-0, 632.67667, 322.397656)" x="632.67667" y="322.397656">100000</text>
     </g>
    </g>
    <g id="text_7">
     <text style="font-family:DejaVu Sans;font-size:15px;font-style:normal;font-weight:normal;text-anchor:middle;" transform="rotate(-0, 389.395, 340.914844)" x="389.395" y="340.914844">Episodes</text>
    </g>
   </g>
   <g id="matplotlib.axis_2">
    <g id="ytick_1">
     <g id="line2d_7">
      <defs>
       <path d="M 0 0 
L -3.5 0 
" id="m331b686ac3" style="stroke:#000000;stroke-width:0.8;"/>
      </defs>
      <g>
       <use style="stroke:#000000;stroke-width:0.8;" x="74.99" xlink:href="#m331b686ac3" y="290.918182"/>
      </g>
     </g>
     <g id="text_8">
      <text style="font-family:DejaVu Sans;font-size:15px;font-style:normal;font-weight:normal;text-anchor:end;" transform="rotate(-0, 67.99, 296.61701)" x="67.99" y="296.61701">0.00</text>
     </g>
    </g>
    <g id="ytick_2">
     <g id="line2d_8">
      <g>
       <use style="stroke:#000000;stroke-width:0.8;" x="74.99" xlink:href="#m331b686ac3" y="255.561916"/>
      </g>
     </g>
     <g id="text_9">
      <text style="font-family:DejaVu Sans;font-size:15px;font-style:normal;font-weight:normal;text-anchor:end;" transform="rotate(-0, 67.99, 261.260745)" x="67.99" y="261.260745">0.05</text>
     </g>
    </g>
    <g id="ytick_3">
     <g id="line2d_9">
      <g>
       <use style="stroke:#000000;stroke-width:0.8;" x="74.99" xlink:href="#m331b686ac3" y="220.205651"/>
      </g>
     </g>
     <g id="text_10">
      <text style="font-family:DejaVu Sans;font-size:15px;font-style:normal;font-weight:normal;text-anchor:end;" transform="rotate(-0, 67.99, 225.904479)" x="67.99" y="225.904479">0.10</text>
     </g>
    </g>
    <g id="ytick_4">
     <g id="line2d_10">
      <g>
       <use style="stroke:#000000;stroke-width:0.8;" x="74.99" xlink:href="#m331b686ac3" y="184.849386"/>
      </g>
     </g>
     <g id="text_11">
      <text style="font-family:DejaVu Sans;font-size:15px;font-style:normal;font-weight:normal;text-anchor:end;" transform="rotate(-0, 67.99, 190.548214)" x="67.99" y="190.548214">0.15</text>
     </g>
    </g>
    <g id="ytick_5">
     <g id="line2d_11">
      <g>
       <use style="stroke:#000000;stroke-width:0.8;" x="74.99" xlink:href="#m331b686ac3" y="149.49312"/>
      </g>
     </g>
     <g id="text_12">
      <text style="font-family:DejaVu Sans;font-size:15px;font-style:normal;font-weight:normal;text-anchor:end;" transform="rotate(-0, 67.99, 155.191949)" x="67.99" y="155.191949">0.20</text>
     </g>
    </g>
    <g id="ytick_6">
     <g id="line2d_12">
      <g>
       <use style="stroke:#000000;stroke-width:0.8;" x="74.99" xlink:href="#m331b686ac3" y="114.136855"/>
      </g>
     </g>
     <g id="text_13">
      <text style="font-family:DejaVu Sans;font-size:15px;font-style:normal;font-weight:normal;text-anchor:end;" transform="rotate(-0, 67.99, 119.835683)" x="67.99" y="119.835683">0.25</text>
     </g>
    </g>
    <g id="ytick_7">
     <g id="line2d_13">
      <g>
       <use style="stroke:#000000;stroke-width:0.8;" x="74.99" xlink:href="#m331b686ac3" y="78.78059"/>
      </g>
     </g>
     <g id="text_14">
      <text style="font-family:DejaVu Sans;font-size:15px;font-style:normal;font-weight:normal;text-anchor:end;" transform="rotate(-0, 67.99, 84.479418)" x="67.99" y="84.479418">0.30</text>
     </g>
    </g>
    <g id="ytick_8">
     <g id="line2d_14">
      <g>
       <use style="stroke:#000000;stroke-width:0.8;" x="74.99" xlink:href="#m331b686ac3" y="43.424324"/>
      </g>
     </g>
     <g id="text_15">
      <text style="font-family:DejaVu Sans;font-size:15px;font-style:normal;font-weight:normal;text-anchor:end;" transform="rotate(-0, 67.99, 49.123152)" x="67.99" y="49.123152">0.35</text>
     </g>
    </g>
    <g id="text_16">
     <text style="font-family:DejaVu Sans;font-size:15px;font-style:normal;font-weight:normal;text-anchor:middle;" transform="rotate(-90, 27.472031, 160.1)" x="27.472031" y="160.1">Success Rate</text>
    </g>
   </g>
   <g id="line2d_15">
    <path clip-path="url(#p9210f1a37e)" d="M 103.572273 290.918182 
L 167.383858 290.918182 
L 170.042674 283.846929 
L 172.70149 290.918182 
L 175.360307 283.846929 
L 178.019123 290.918182 
L 180.677939 290.918182 
L 183.336755 283.846929 
L 185.995571 283.846929 
L 188.654387 290.918182 
L 212.583732 290.918182 
L 215.242548 283.846929 
L 217.901364 290.918182 
L 220.56018 283.846929 
L 223.218996 290.918182 
L 225.877812 290.918182 
L 228.536628 283.846929 
L 231.195444 283.846929 
L 233.85426 290.918182 
L 236.513076 290.918182 
L 239.171892 276.775676 
L 241.830708 283.846929 
L 244.489524 283.846929 
L 247.14834 290.918182 
L 255.124789 290.918182 
L 257.783605 283.846929 
L 260.442421 283.846929 
L 263.101237 290.918182 
L 268.418869 290.918182 
L 271.077685 283.846929 
L 273.736501 290.918182 
L 284.371765 290.918182 
L 287.030581 283.846929 
L 289.689397 283.846929 
L 292.348214 290.918182 
L 295.00703 290.918182 
L 297.665846 283.846929 
L 300.324662 290.918182 
L 302.983478 276.775676 
L 305.642294 290.918182 
L 308.30111 290.918182 
L 310.959926 276.775676 
L 313.618742 290.918182 
L 316.277558 290.918182 
L 318.936374 283.846929 
L 321.59519 290.918182 
L 324.254006 283.846929 
L 326.912822 290.918182 
L 329.571638 283.846929 
L 332.230455 290.918182 
L 334.889271 283.846929 
L 337.548087 283.846929 
L 340.206903 290.918182 
L 342.865719 283.846929 
L 345.524535 290.918182 
L 348.183351 290.918182 
L 350.842167 276.775676 
L 353.500983 290.918182 
L 356.159799 276.775676 
L 361.477431 290.918182 
L 366.795063 290.918182 
L 369.453879 276.775676 
L 374.771512 290.918182 
L 377.430328 283.846929 
L 385.406776 283.846929 
L 388.065592 290.918182 
L 390.724408 290.918182 
L 393.383224 276.775676 
L 396.04204 269.704423 
L 398.700856 283.846929 
L 401.359672 276.775676 
L 409.336121 276.775676 
L 411.994937 283.846929 
L 417.312569 283.846929 
L 419.971385 276.775676 
L 422.630201 290.918182 
L 425.289017 276.775676 
L 427.947833 283.846929 
L 430.606649 276.775676 
L 433.265465 283.846929 
L 441.241913 283.846929 
L 443.900729 276.775676 
L 446.559545 290.918182 
L 451.877178 276.775676 
L 457.19481 276.775676 
L 459.853626 283.846929 
L 462.512442 283.846929 
L 465.171258 276.775676 
L 467.830074 283.846929 
L 470.48889 269.704423 
L 473.147706 276.775676 
L 475.806522 276.775676 
L 478.465338 283.846929 
L 481.124154 283.846929 
L 483.78297 269.704423 
L 486.441786 283.846929 
L 489.100603 262.63317 
L 491.759419 276.775676 
L 494.418235 269.704423 
L 497.077051 276.775676 
L 499.735867 269.704423 
L 502.394683 248.490663 
L 505.053499 262.63317 
L 507.712315 248.490663 
L 510.371131 269.704423 
L 513.029947 262.63317 
L 515.688763 276.775676 
L 518.347579 262.63317 
L 521.006395 269.704423 
L 523.665211 262.63317 
L 526.324027 276.775676 
L 528.982844 234.348157 
L 531.64166 248.490663 
L 534.300476 276.775676 
L 536.959292 283.846929 
L 539.618108 269.704423 
L 542.276924 276.775676 
L 544.93574 269.704423 
L 547.594556 255.561916 
L 550.253372 269.704423 
L 552.912188 234.348157 
L 555.571004 241.41941 
L 558.22982 276.775676 
L 560.888636 262.63317 
L 563.547452 241.41941 
L 566.206268 262.63317 
L 568.865085 255.561916 
L 571.523901 255.561916 
L 574.182717 220.205651 
L 576.841533 227.276904 
L 579.500349 283.846929 
L 582.159165 276.775676 
L 584.817981 255.561916 
L 587.476797 269.704423 
L 590.135613 248.490663 
L 592.794429 248.490663 
L 595.453245 255.561916 
L 598.112061 234.348157 
L 600.770877 255.561916 
L 603.429693 213.134398 
L 606.08851 255.561916 
L 608.747326 227.276904 
L 611.406142 241.41941 
L 614.064958 206.063145 
L 616.723774 213.134398 
L 619.38259 227.276904 
L 622.041406 191.920639 
L 624.700222 276.775676 
L 627.359038 198.991892 
L 630.017854 241.41941 
L 632.67667 241.41941 
L 635.335486 198.991892 
L 637.994302 241.41941 
L 640.653118 213.134398 
L 643.311934 206.063145 
L 645.970751 206.063145 
L 648.629567 191.920639 
L 651.288383 163.635627 
L 653.947199 213.134398 
L 656.606015 220.205651 
L 659.264831 177.778133 
L 661.923647 220.205651 
L 664.582463 227.276904 
L 667.241279 191.920639 
L 669.900095 206.063145 
L 672.558911 206.063145 
L 675.217727 177.778133 
L 675.217727 177.778133 
" style="fill:none;stroke:#1f77b4;stroke-linecap:square;stroke-width:1.5;"/>
   </g>
   <g id="line2d_16">
    <path clip-path="url(#p9210f1a37e)" d="M 103.572273 290.918182 
L 138.136882 290.918182 
L 140.795698 276.775676 
L 143.454514 290.918182 
L 175.360307 290.918182 
L 180.677939 276.775676 
L 183.336755 290.918182 
L 191.313203 290.918182 
L 193.972019 283.846929 
L 196.630835 290.918182 
L 199.289651 283.846929 
L 201.948467 283.846929 
L 204.607283 290.918182 
L 209.924915 290.918182 
L 212.583732 269.704423 
L 215.242548 290.918182 
L 236.513076 290.918182 
L 239.171892 283.846929 
L 241.830708 290.918182 
L 249.807156 290.918182 
L 252.465973 283.846929 
L 255.124789 290.918182 
L 257.783605 290.918182 
L 260.442421 283.846929 
L 263.101237 290.918182 
L 265.760053 269.704423 
L 268.418869 283.846929 
L 271.077685 269.704423 
L 273.736501 276.775676 
L 276.395317 290.918182 
L 279.054133 283.846929 
L 284.371765 283.846929 
L 287.030581 290.918182 
L 289.689397 290.918182 
L 292.348214 283.846929 
L 295.00703 290.918182 
L 316.277558 290.918182 
L 318.936374 269.704423 
L 321.59519 290.918182 
L 324.254006 269.704423 
L 332.230455 290.918182 
L 334.889271 276.775676 
L 337.548087 283.846929 
L 342.865719 283.846929 
L 345.524535 269.704423 
L 348.183351 276.775676 
L 350.842167 276.775676 
L 353.500983 269.704423 
L 356.159799 283.846929 
L 361.477431 269.704423 
L 364.136247 290.918182 
L 372.112696 290.918182 
L 374.771512 276.775676 
L 377.430328 269.704423 
L 380.089144 283.846929 
L 382.74796 283.846929 
L 385.406776 290.918182 
L 388.065592 290.918182 
L 390.724408 283.846929 
L 398.700856 283.846929 
L 404.018488 269.704423 
L 406.677304 283.846929 
L 409.336121 255.561916 
L 411.994937 283.846929 
L 414.653753 276.775676 
L 417.312569 276.775676 
L 419.971385 248.490663 
L 422.630201 283.846929 
L 425.289017 276.775676 
L 427.947833 276.775676 
L 430.606649 262.63317 
L 433.265465 262.63317 
L 435.924281 283.846929 
L 438.583097 269.704423 
L 441.241913 241.41941 
L 443.900729 248.490663 
L 446.559545 283.846929 
L 449.218362 276.775676 
L 451.877178 283.846929 
L 454.535994 255.561916 
L 457.19481 248.490663 
L 459.853626 248.490663 
L 462.512442 290.918182 
L 465.171258 248.490663 
L 467.830074 255.561916 
L 470.48889 276.775676 
L 473.147706 206.063145 
L 475.806522 269.704423 
L 478.465338 262.63317 
L 481.124154 248.490663 
L 483.78297 262.63317 
L 486.441786 255.561916 
L 489.100603 234.348157 
L 491.759419 241.41941 
L 494.418235 262.63317 
L 497.077051 248.490663 
L 499.735867 276.775676 
L 502.394683 248.490663 
L 505.053499 227.276904 
L 507.712315 262.63317 
L 510.371131 220.205651 
L 515.688763 248.490663 
L 518.347579 255.561916 
L 521.006395 234.348157 
L 523.665211 184.849386 
L 526.324027 220.205651 
L 528.982844 283.846929 
L 531.64166 206.063145 
L 534.300476 184.849386 
L 536.959292 241.41941 
L 539.618108 248.490663 
L 542.276924 213.134398 
L 544.93574 198.991892 
L 547.594556 213.134398 
L 550.253372 220.205651 
L 552.912188 177.778133 
L 555.571004 198.991892 
L 558.22982 248.490663 
L 560.888636 191.920639 
L 563.547452 220.205651 
L 566.206268 206.063145 
L 568.865085 213.134398 
L 571.523901 206.063145 
L 574.182717 149.49312 
L 576.841533 156.564373 
L 579.500349 241.41941 
L 584.817981 198.991892 
L 587.476797 191.920639 
L 590.135613 163.635627 
L 592.794429 142.421867 
L 595.453245 170.70688 
L 598.112061 234.348157 
L 600.770877 262.63317 
L 603.429693 184.849386 
L 606.08851 234.348157 
L 608.747326 163.635627 
L 611.406142 262.63317 
L 614.064958 191.920639 
L 616.723774 213.134398 
L 619.38259 142.421867 
L 622.041406 92.923096 
L 624.700222 149.49312 
L 627.359038 99.994349 
L 632.67667 142.421867 
L 640.653118 163.635627 
L 643.311934 184.849386 
L 648.629567 114.136855 
L 651.288383 121.208108 
L 653.947199 170.70688 
L 656.606015 184.849386 
L 659.264831 163.635627 
L 664.582463 163.635627 
L 667.241279 142.421867 
L 669.900095 29.281818 
L 672.558911 64.638084 
L 675.217727 85.851843 
L 675.217727 85.851843 
" style="fill:none;stroke:#ff7f0e;stroke-linecap:square;stroke-width:1.5;"/>
   </g>
   <g id="patch_3">
    <path d="M 74.99 304 
L 74.99 16.2 
" style="fill:none;stroke:#000000;stroke-linecap:square;stroke-linejoin:miter;stroke-width:0.8;"/>
   </g>
   <g id="patch_4">
    <path d="M 703.8 304 
L 703.8 16.2 
" style="fill:none;stroke:#000000;stroke-linecap:square;stroke-linejoin:miter;stroke-width:0.8;"/>
   </g>
   <g id="patch_5">
    <path d="M 74.99 304 
L 703.8 304 
" style="fill:none;stroke:#000000;stroke-linecap:square;stroke-linejoin:miter;stroke-width:0.8;"/>
   </g>
   <g id="patch_6">
    <path d="M 74.99 16.2 
L 703.8 16.2 
" style="fill:none;stroke:#000000;stroke-linecap:square;stroke-linejoin:miter;stroke-width:0.8;"/>
   </g>
   <g id="legend_1">
    <g id="patch_7">
     <path d="M 85.49 72.234375 
L 306.018125 72.234375 
Q 309.018125 72.234375 309.018125 69.234375 
L 309.018125 26.7 
Q 309.018125 23.7 306.018125 23.7 
L 85.49 23.7 
Q 82.49 23.7 82.49 26.7 
L 82.49 69.234375 
Q 82.49 72.234375 85.49 72.234375 
z
" style="fill:#ffffff;opacity:0.8;stroke:#cccccc;stroke-linejoin:miter;"/>
    </g>
    <g id="line2d_17">
     <path d="M 88.49 35.847656 
L 118.49 35.847656 
" style="fill:none;stroke:#1f77b4;stroke-linecap:square;stroke-width:1.5;"/>
    </g>
    <g id="line2d_18"/>
    <g id="text_17">
     <text style="font-family:DejaVu Sans;font-size:15px;font-style:normal;font-weight:normal;text-anchor:start;" transform="rotate(-0, 130.49, 41.097656)" x="130.49" y="41.097656">training success rate</text>
    </g>
    <g id="line2d_19">
     <path d="M 88.49 57.864844 
L 118.49 57.864844 
" style="fill:none;stroke:#ff7f0e;stroke-linecap:square;stroke-width:1.5;"/>
    </g>
    <g id="line2d_20"/>
    <g id="text_18">
     <text style="font-family:DejaVu Sans;font-size:15px;font-style:normal;font-weight:normal;text-anchor:start;" transform="rotate(-0, 130.49, 63.114844)" x="130.49" y="63.114844">validation success rate</text>
    </g>
   </g>
  </g>
 </g>
 <defs>
  <clipPath id="p9210f1a37e">
   <rect height="287.8" width="628.81" x="74.99" y="16.2"/>
  </clipPath>
 </defs>
</svg>
