<?xml version="1.0" encoding="UTF-8" standalone="no"?>
<svg
   width="687.76703pt"
   height="328.23499pt"
   viewBox="0 0 687.76703 328.23499"
   version="1.1"
   xmlns:xlink="http://www.w3.org/1999/xlink"
   xmlns="http://www.w3.org/2000/svg">
  <defs
     id="defs1">
    <style
       type="text/css"
       id="style1">*{stroke-linejoin: round; stroke-linecap: butt}</style>
  </defs>
  <g
     id="figure_1"
     transform="translate(-16.432975,-15.8)">
    <g
       id="axes_1">
      <g
         id="patch_2">
        <path
           d="M 65.54,304 H 703.8 V 16.2 H 65.54 Z"
           style="fill:#ffffff"
           id="path2" />
      </g>
      <g
         id="matplotlib.axis_1">
        <g
           id="xtick_1">
          <g
             id="line2d_1">
            <defs
               id="defs2">
              <path
                 id="m4d99587ce5"
                 d="M 0,0 V 3.5"
                 style="stroke:#000000;stroke-width:0.8" />
            </defs>
            <g
               id="g2">
              <use
                 xlink:href="#m4d99587ce5"
                 x="88.244904"
                 y="304"
                 style="stroke:#000000;stroke-width:0.8"
                 id="use2" />
            </g>
          </g>
          <g
             id="text_1">
            <text
               style="font-style:normal;font-variant:normal;font-weight:normal;font-stretch:normal;font-size:15px;line-height:normal;font-family:'DejaVu Sans', 'Bitstream Vera Sans', 'Computer Modern Sans Serif', 'Lucida Grande', Verdana, Geneva, Lucid, Arial, Helvetica, 'Avant Garde', sans-serif;text-anchor:middle"
               x="88.244904"
               y="322.39764"
               id="text2">0</text>
          </g>
        </g>
        <g
           id="xtick_2">
          <g
             id="line2d_2">
            <g
               id="g3">
              <use
                 xlink:href="#m4d99587ce5"
                 x="214.38324"
                 y="304"
                 style="stroke:#000000;stroke-width:0.8"
                 id="use3" />
            </g>
          </g>
          <g
             id="text_2">
            <text
               style="font-style:normal;font-variant:normal;font-weight:normal;font-stretch:normal;font-size:15px;line-height:normal;font-family:'DejaVu Sans', 'Bitstream Vera Sans', 'Computer Modern Sans Serif', 'Lucida Grande', Verdana, Geneva, Lucid, Arial, Helvetica, 'Avant Garde', sans-serif;text-anchor:middle"
               x="214.38324"
               y="322.39764"
               id="text3">10000</text>
          </g>
        </g>
        <g
           id="xtick_3">
          <g
             id="line2d_3">
            <g
               id="g4">
              <use
                 xlink:href="#m4d99587ce5"
                 x="340.52158"
                 y="304"
                 style="stroke:#000000;stroke-width:0.8"
                 id="use4" />
            </g>
          </g>
          <g
             id="text_3">
            <text
               style="font-style:normal;font-variant:normal;font-weight:normal;font-stretch:normal;font-size:15px;line-height:normal;font-family:'DejaVu Sans', 'Bitstream Vera Sans', 'Computer Modern Sans Serif', 'Lucida Grande', Verdana, Geneva, Lucid, Arial, Helvetica, 'Avant Garde', sans-serif;text-anchor:middle"
               x="340.52158"
               y="322.39764"
               id="text4">20000</text>
          </g>
        </g>
        <g
           id="xtick_4">
          <g
             id="line2d_4">
            <g
               id="g5">
              <use
                 xlink:href="#m4d99587ce5"
                 x="466.65991"
                 y="304"
                 style="stroke:#000000;stroke-width:0.8"
                 id="use5" />
            </g>
          </g>
          <g
             id="text_4">
            <text
               style="font-style:normal;font-variant:normal;font-weight:normal;font-stretch:normal;font-size:15px;line-height:normal;font-family:'DejaVu Sans', 'Bitstream Vera Sans', 'Computer Modern Sans Serif', 'Lucida Grande', Verdana, Geneva, Lucid, Arial, Helvetica, 'Avant Garde', sans-serif;text-anchor:middle"
               x="466.65991"
               y="322.39764"
               id="text5">30000</text>
          </g>
        </g>
        <g
           id="xtick_5">
          <g
             id="line2d_5">
            <g
               id="g6">
              <use
                 xlink:href="#m4d99587ce5"
                 x="592.79828"
                 y="304"
                 style="stroke:#000000;stroke-width:0.8"
                 id="use6" />
            </g>
          </g>
          <g
             id="text_5">
            <text
               style="font-style:normal;font-variant:normal;font-weight:normal;font-stretch:normal;font-size:15px;line-height:normal;font-family:'DejaVu Sans', 'Bitstream Vera Sans', 'Computer Modern Sans Serif', 'Lucida Grande', Verdana, Geneva, Lucid, Arial, Helvetica, 'Avant Garde', sans-serif;text-anchor:middle"
               x="592.79828"
               y="322.39764"
               id="text6">40000</text>
          </g>
        </g>
        <g
           id="text_6">
          <text
             style="font-style:normal;font-variant:normal;font-weight:normal;font-stretch:normal;font-size:15px;line-height:normal;font-family:'DejaVu Sans', 'Bitstream Vera Sans', 'Computer Modern Sans Serif', 'Lucida Grande', Verdana, Geneva, Lucid, Arial, Helvetica, 'Avant Garde', sans-serif;text-anchor:middle"
             x="384.67001"
             y="340.91486"
             id="text7">Episodes</text>
        </g>
      </g>
      <g
         id="matplotlib.axis_2">
        <g
           id="ytick_1">
          <g
             id="line2d_6">
            <defs
               id="defs7">
              <path
                 id="m233546b6f9"
                 d="M 0,0 H -3.5"
                 style="stroke:#000000;stroke-width:0.8" />
            </defs>
            <g
               id="g7">
              <use
                 xlink:href="#m233546b6f9"
                 x="65.540001"
                 y="290.91818"
                 style="stroke:#000000;stroke-width:0.8"
                 id="use7" />
            </g>
          </g>
          <g
             id="text_7">
            <text
               style="font-style:normal;font-variant:normal;font-weight:normal;font-stretch:normal;font-size:15px;line-height:normal;font-family:'DejaVu Sans', 'Bitstream Vera Sans', 'Computer Modern Sans Serif', 'Lucida Grande', Verdana, Geneva, Lucid, Arial, Helvetica, 'Avant Garde', sans-serif;text-anchor:end"
               x="58.540001"
               y="296.617"
               id="text8">0.0</text>
          </g>
        </g>
        <g
           id="ytick_2">
          <g
             id="line2d_7">
            <g
               id="g8">
              <use
                 xlink:href="#m233546b6f9"
                 x="65.540001"
                 y="232.12349"
                 style="stroke:#000000;stroke-width:0.8"
                 id="use8" />
            </g>
          </g>
          <g
             id="text_8">
            <text
               style="font-style:normal;font-variant:normal;font-weight:normal;font-stretch:normal;font-size:15px;line-height:normal;font-family:'DejaVu Sans', 'Bitstream Vera Sans', 'Computer Modern Sans Serif', 'Lucida Grande', Verdana, Geneva, Lucid, Arial, Helvetica, 'Avant Garde', sans-serif;text-anchor:end"
               x="58.540001"
               y="237.82233"
               id="text9">0.2</text>
          </g>
        </g>
        <g
           id="ytick_3">
          <g
             id="line2d_8">
            <g
               id="g9">
              <use
                 xlink:href="#m233546b6f9"
                 x="65.540001"
                 y="173.32881"
                 style="stroke:#000000;stroke-width:0.8"
                 id="use9" />
            </g>
          </g>
          <g
             id="text_9">
            <text
               style="font-style:normal;font-variant:normal;font-weight:normal;font-stretch:normal;font-size:15px;line-height:normal;font-family:'DejaVu Sans', 'Bitstream Vera Sans', 'Computer Modern Sans Serif', 'Lucida Grande', Verdana, Geneva, Lucid, Arial, Helvetica, 'Avant Garde', sans-serif;text-anchor:end"
               x="58.540001"
               y="179.02763"
               id="text10">0.4</text>
          </g>
        </g>
        <g
           id="ytick_4">
          <g
             id="line2d_9">
            <g
               id="g10">
              <use
                 xlink:href="#m233546b6f9"
                 x="65.540001"
                 y="114.53412"
                 style="stroke:#000000;stroke-width:0.8"
                 id="use10" />
            </g>
          </g>
          <g
             id="text_10">
            <text
               style="font-style:normal;font-variant:normal;font-weight:normal;font-stretch:normal;font-size:15px;line-height:normal;font-family:'DejaVu Sans', 'Bitstream Vera Sans', 'Computer Modern Sans Serif', 'Lucida Grande', Verdana, Geneva, Lucid, Arial, Helvetica, 'Avant Garde', sans-serif;text-anchor:end"
               x="58.540001"
               y="120.23295"
               id="text11">0.6</text>
          </g>
        </g>
        <g
           id="ytick_5">
          <g
             id="line2d_10">
            <g
               id="g11">
              <use
                 xlink:href="#m233546b6f9"
                 x="65.540001"
                 y="55.739429"
                 style="stroke:#000000;stroke-width:0.8"
                 id="use11" />
            </g>
          </g>
          <g
             id="text_11">
            <text
               style="font-style:normal;font-variant:normal;font-weight:normal;font-stretch:normal;font-size:15px;line-height:normal;font-family:'DejaVu Sans', 'Bitstream Vera Sans', 'Computer Modern Sans Serif', 'Lucida Grande', Verdana, Geneva, Lucid, Arial, Helvetica, 'Avant Garde', sans-serif;text-anchor:end"
               x="58.540001"
               y="61.438255"
               id="text12">0.8</text>
          </g>
        </g>
        <g
           id="text_12">
          <text
             style="font-style:normal;font-variant:normal;font-weight:normal;font-stretch:normal;font-size:15px;line-height:normal;font-family:'DejaVu Sans', 'Bitstream Vera Sans', 'Computer Modern Sans Serif', 'Lucida Grande', Verdana, Geneva, Lucid, Arial, Helvetica, 'Avant Garde', sans-serif;text-anchor:middle"
             x="27.565781"
             y="160.10001"
             transform="rotate(-90,27.565781,160.1)"
             id="text13">Success Rate</text>
        </g>
      </g>
      <g
         id="line2d_11">
        <path
           d="m 94.551818,290.91818 h 6.306912 l 6.30692,-2.93973 6.30692,2.93973 h 6.30692 6.30691 6.30692 6.30692 l 6.30691,-2.93973 6.30692,2.93973 6.30692,-2.93973 6.30691,2.93973 6.30692,-2.93973 h 6.30692 6.30692 6.30691 l 6.30692,2.93973 6.30692,-2.93973 h 6.30691 l 6.30692,2.93973 6.30692,-2.93973 6.30691,2.93973 6.30692,-8.8192 6.30692,5.87947 h 6.30692 l 6.30691,-8.81921 6.30692,5.87947 6.30692,-2.93973 6.30691,5.87947 6.30692,-2.93974 6.30692,-5.87947 6.30691,-8.8192 6.30692,-11.75894 6.30692,20.57814 6.30692,-14.69867 6.30691,-11.75893 6.30692,5.87946 6.30692,17.63841 6.30691,-17.63841 6.30692,8.81921 6.30692,-5.87947 6.30692,-14.69868 6.30691,17.63841 h 6.30692 l 6.30692,-26.45761 6.30691,5.87947 6.30692,-11.75894 6.30692,14.69867 6.30691,-5.87946 6.30692,2.93973 6.30692,-14.69867 6.30691,-8.8192 h 6.30692 l 6.30692,-5.87947 6.30692,-2.93974 6.30691,-5.87946 6.30692,-11.75895 6.30692,-35.2768 6.30691,2.93973 6.30692,-5.87947 6.30692,-23.51788 6.30691,5.87948 6.30692,-49.975493 6.30692,44.096013 6.30692,-41.156281 6.30691,8.819212 6.30692,-14.698675 6.30692,20.578144 6.30691,-8.819218 6.30692,2.939749 6.30692,29.397329 6.30692,-49.975485 6.30691,5.879481 6.30692,2.939731 6.30692,5.879464 6.30691,-2.939732 h 6.30692 l 6.30692,-20.578139 6.30691,11.758944 6.30692,-20.578139 6.30692,29.397334 6.30692,-2.939732 6.30691,-20.578139 6.30692,20.578139 6.30692,-20.578139 6.30691,-2.939731 6.30692,26.457602 6.30692,-14.698676 6.30691,14.698676 6.30692,-23.517871 6.30692,-14.698675 6.30691,35.276814 h 6.30692"
           clip-path="url(#pef922ccc8c)"
           style="fill:none;stroke:#1f77b4;stroke-width:1.5;stroke-linecap:square"
           id="path13" />
      </g>
      <g
         id="line2d_12">
        <path
           d="m 94.551818,290.91818 6.306912,-2.93973 6.30692,2.93973 h 6.30692 6.30692 6.30691 6.30692 l 6.30692,-2.93973 6.30691,2.93973 h 6.30692 6.30692 6.30691 6.30692 6.30692 l 6.30692,-2.93973 h 6.30691 l 6.30692,2.93973 h 6.30692 6.30691 6.30692 l 6.30692,-5.87947 6.30691,-2.93973 6.30692,5.87947 6.30692,-2.93974 6.30692,2.93974 6.30691,-11.75894 h 6.30692 l 6.30692,8.8192 6.30691,-23.51787 6.30692,8.8192 6.30692,2.93973 6.30691,-2.93973 6.30692,8.8192 6.30692,-5.87947 6.30692,-23.51787 6.30691,5.87947 6.30692,-17.63841 6.30692,-8.8192 6.30691,41.15628 6.30692,-20.57814 6.30692,5.87947 6.30692,-23.51788 6.30691,-2.93973 6.30692,5.87947 6.30692,2.93973 6.30691,-5.87947 6.30692,8.81921 6.30692,-14.69868 6.30691,-5.87946 6.30692,8.8192 6.30692,-23.51788 6.30691,-5.87947 6.30692,-8.8192 h 6.30692 l 6.30692,-20.57814 6.30691,-17.63841 6.30692,-5.87947 6.30692,-14.69867 6.30691,-14.69867 6.30692,20.57814 6.30692,-38.216546 6.30691,2.939736 6.30692,-26.457611 6.30692,32.337081 6.30692,-55.854956 6.30691,5.879468 6.30692,8.819204 6.30692,-14.698672 6.30691,23.517875 6.30692,-35.276813 6.30692,23.517875 6.30692,-20.578141 6.30691,11.758938 6.30692,-14.698672 6.30692,17.638406 6.30691,-2.939734 6.30692,-20.578141 6.30692,14.698672 6.30691,-11.758938 h 6.30692 l 6.30692,11.758938 6.30692,-5.879469 6.30691,8.819204 h 6.30692 l 6.30692,8.819203 6.30691,-26.45761 6.30692,-2.939734 6.30692,-2.939735 6.30691,26.45761 6.30692,5.879469 6.30692,-5.879469 6.30691,-17.638407 6.30692,-5.879468"
           clip-path="url(#pef922ccc8c)"
           style="fill:none;stroke:#ff7f0e;stroke-width:1.5;stroke-linecap:square"
           id="path14" />
      </g>
      <g
         id="patch_3">
        <path
           d="M 65.54,304 V 16.2"
           style="fill:none;stroke:#000000;stroke-width:0.8;stroke-linecap:square;stroke-linejoin:miter"
           id="path15" />
      </g>
      <g
         id="patch_4">
        <path
           d="M 703.8,304 V 16.2"
           style="fill:none;stroke:#000000;stroke-width:0.8;stroke-linecap:square;stroke-linejoin:miter"
           id="path16" />
      </g>
      <g
         id="patch_5">
        <path
           d="M 65.54,304 H 703.8"
           style="fill:none;stroke:#000000;stroke-width:0.8;stroke-linecap:square;stroke-linejoin:miter"
           id="path17" />
      </g>
      <g
         id="patch_6">
        <path
           d="M 65.54,16.2 H 703.8"
           style="fill:none;stroke:#000000;stroke-width:0.8;stroke-linecap:square;stroke-linejoin:miter"
           id="path18" />
      </g>
      <g
         id="legend_1">
        <g
           id="patch_7">
          <path
             d="m 76.04,72.234375 h 220.52812 q 3,0 3,-3 V 26.7 q 0,-3 -3,-3 H 76.04 q -3,0 -3,3 v 42.534375 q 0,3 3,3 z"
             style="opacity:0.8;fill:#ffffff;stroke:#cccccc;stroke-linejoin:miter"
             id="path19" />
        </g>
        <g
           id="line2d_13">
          <path
             d="m 79.04,35.847656 h 15 15"
             style="fill:none;stroke:#1f77b4;stroke-width:1.5;stroke-linecap:square"
             id="path20" />
        </g>
        <g
           id="text_13">
          <text
             style="font-style:normal;font-variant:normal;font-weight:normal;font-stretch:normal;font-size:15px;line-height:normal;font-family:'DejaVu Sans', 'Bitstream Vera Sans', 'Computer Modern Sans Serif', 'Lucida Grande', Verdana, Geneva, Lucid, Arial, Helvetica, 'Avant Garde', sans-serif;text-anchor:start"
             x="121.04"
             y="41.097656"
             id="text20">training success rate</text>
        </g>
        <g
           id="line2d_14">
          <path
             d="m 79.04,57.864844 h 15 15"
             style="fill:none;stroke:#ff7f0e;stroke-width:1.5;stroke-linecap:square"
             id="path21" />
        </g>
        <g
           id="text_14">
          <text
             style="font-style:normal;font-variant:normal;font-weight:normal;font-stretch:normal;font-size:15px;line-height:normal;font-family:'DejaVu Sans', 'Bitstream Vera Sans', 'Computer Modern Sans Serif', 'Lucida Grande', Verdana, Geneva, Lucid, Arial, Helvetica, 'Avant Garde', sans-serif;text-anchor:start"
             x="121.04"
             y="63.114845"
             id="text21">validation success rate</text>
        </g>
      </g>
    </g>
  </g>
  <defs
     id="defs21">
    <clipPath
       id="pef922ccc8c">
      <rect
         x="65.540001"
         y="16.200001"
         width="638.26001"
         height="287.79999"
         id="rect21" />
    </clipPath>
  </defs>
</svg>
