<?xml version="1.0" encoding="UTF-8" standalone="no"?>
<svg
   width="688.08929pt"
   height="327.09241pt"
   viewBox="0 0 688.08929 327.09241"
   version="1.1"
   xmlns:xlink="http://www.w3.org/1999/xlink"
   xmlns="http://www.w3.org/2000/svg">
  <defs
     id="defs1">
    <style
       type="text/css"
       id="style1">*{stroke-linejoin: round; stroke-linecap: butt}</style>
  </defs>
  <g
     id="figure_1"
     transform="translate(-16.11071,-15.8)">
    <g
       id="axes_1">
      <g
         id="patch_2">
        <path
           d="M 63.74,304 H 703.8 V 16.2 H 63.74 Z"
           style="fill:#ffffff"
           id="path2" />
      </g>
      <g
         id="matplotlib.axis_1">
        <g
           id="xtick_1">
          <g
             id="line2d_1">
            <defs
               id="defs2">
              <path
                 id="ma716d580ed"
                 d="M 0,0 V 3.5"
                 style="stroke:#000000;stroke-width:0.8" />
            </defs>
            <g
               id="g2">
              <use
                 xlink:href="#ma716d580ed"
                 x="92.833633"
                 y="304"
                 style="stroke:#000000;stroke-width:0.8"
                 id="use2" />
            </g>
          </g>
          <g
             id="text_1">
            <text
               style="font-style:normal;font-variant:normal;font-weight:normal;font-stretch:normal;font-size:15px;line-height:normal;font-family:'DejaVu Sans', 'Bitstream Vera Sans', 'Computer Modern Sans Serif', 'Lucida Grande', Verdana, Geneva, Lucid, Arial, Helvetica, 'Avant Garde', sans-serif;text-anchor:middle"
               x="92.833633"
               y="322.39764"
               id="text2">0.0</text>
          </g>
        </g>
        <g
           id="xtick_2">
          <g
             id="line2d_2">
            <g
               id="g3">
              <use
                 xlink:href="#ma716d580ed"
                 x="166.30241"
                 y="304"
                 style="stroke:#000000;stroke-width:0.8"
                 id="use3" />
            </g>
          </g>
          <g
             id="text_2">
            <text
               style="font-style:normal;font-variant:normal;font-weight:normal;font-stretch:normal;font-size:15px;line-height:normal;font-family:'DejaVu Sans', 'Bitstream Vera Sans', 'Computer Modern Sans Serif', 'Lucida Grande', Verdana, Geneva, Lucid, Arial, Helvetica, 'Avant Garde', sans-serif;text-anchor:middle"
               x="166.30241"
               y="322.39764"
               id="text3">0.5</text>
          </g>
        </g>
        <g
           id="xtick_3">
          <g
             id="line2d_3">
            <g
               id="g4">
              <use
                 xlink:href="#ma716d580ed"
                 x="239.77119"
                 y="304"
                 style="stroke:#000000;stroke-width:0.8"
                 id="use4" />
            </g>
          </g>
          <g
             id="text_3">
            <text
               style="font-style:normal;font-variant:normal;font-weight:normal;font-stretch:normal;font-size:15px;line-height:normal;font-family:'DejaVu Sans', 'Bitstream Vera Sans', 'Computer Modern Sans Serif', 'Lucida Grande', Verdana, Geneva, Lucid, Arial, Helvetica, 'Avant Garde', sans-serif;text-anchor:middle"
               x="239.77119"
               y="322.39764"
               id="text4">1.0</text>
          </g>
        </g>
        <g
           id="xtick_4">
          <g
             id="line2d_4">
            <g
               id="g5">
              <use
                 xlink:href="#ma716d580ed"
                 x="313.23996"
                 y="304"
                 style="stroke:#000000;stroke-width:0.8"
                 id="use5" />
            </g>
          </g>
          <g
             id="text_4">
            <text
               style="font-style:normal;font-variant:normal;font-weight:normal;font-stretch:normal;font-size:15px;line-height:normal;font-family:'DejaVu Sans', 'Bitstream Vera Sans', 'Computer Modern Sans Serif', 'Lucida Grande', Verdana, Geneva, Lucid, Arial, Helvetica, 'Avant Garde', sans-serif;text-anchor:middle"
               x="313.23996"
               y="322.39764"
               id="text5">1.5</text>
          </g>
        </g>
        <g
           id="xtick_5">
          <g
             id="line2d_5">
            <g
               id="g6">
              <use
                 xlink:href="#ma716d580ed"
                 x="386.70874"
                 y="304"
                 style="stroke:#000000;stroke-width:0.8"
                 id="use6" />
            </g>
          </g>
          <g
             id="text_5">
            <text
               style="font-style:normal;font-variant:normal;font-weight:normal;font-stretch:normal;font-size:15px;line-height:normal;font-family:'DejaVu Sans', 'Bitstream Vera Sans', 'Computer Modern Sans Serif', 'Lucida Grande', Verdana, Geneva, Lucid, Arial, Helvetica, 'Avant Garde', sans-serif;text-anchor:middle"
               x="386.70874"
               y="322.39764"
               id="text6">2.0</text>
          </g>
        </g>
        <g
           id="xtick_6">
          <g
             id="line2d_6">
            <g
               id="g7">
              <use
                 xlink:href="#ma716d580ed"
                 x="460.17752"
                 y="304"
                 style="stroke:#000000;stroke-width:0.8"
                 id="use7" />
            </g>
          </g>
          <g
             id="text_6">
            <text
               style="font-style:normal;font-variant:normal;font-weight:normal;font-stretch:normal;font-size:15px;line-height:normal;font-family:'DejaVu Sans', 'Bitstream Vera Sans', 'Computer Modern Sans Serif', 'Lucida Grande', Verdana, Geneva, Lucid, Arial, Helvetica, 'Avant Garde', sans-serif;text-anchor:middle"
               x="460.17752"
               y="322.39764"
               id="text7">2.5</text>
          </g>
        </g>
        <g
           id="xtick_7">
          <g
             id="line2d_7">
            <g
               id="g8">
              <use
                 xlink:href="#ma716d580ed"
                 x="533.6463"
                 y="304"
                 style="stroke:#000000;stroke-width:0.8"
                 id="use8" />
            </g>
          </g>
          <g
             id="text_7">
            <text
               style="font-style:normal;font-variant:normal;font-weight:normal;font-stretch:normal;font-size:15px;line-height:normal;font-family:'DejaVu Sans', 'Bitstream Vera Sans', 'Computer Modern Sans Serif', 'Lucida Grande', Verdana, Geneva, Lucid, Arial, Helvetica, 'Avant Garde', sans-serif;text-anchor:middle"
               x="533.6463"
               y="322.39764"
               id="text8">3.0</text>
          </g>
        </g>
        <g
           id="xtick_8">
          <g
             id="line2d_8">
            <g
               id="g9">
              <use
                 xlink:href="#ma716d580ed"
                 x="607.11511"
                 y="304"
                 style="stroke:#000000;stroke-width:0.8"
                 id="use9" />
            </g>
          </g>
          <g
             id="text_8">
            <text
               style="font-style:normal;font-variant:normal;font-weight:normal;font-stretch:normal;font-size:15px;line-height:normal;font-family:'DejaVu Sans', 'Bitstream Vera Sans', 'Computer Modern Sans Serif', 'Lucida Grande', Verdana, Geneva, Lucid, Arial, Helvetica, 'Avant Garde', sans-serif;text-anchor:middle"
               x="607.11511"
               y="322.39764"
               id="text9">3.5</text>
          </g>
        </g>
        <g
           id="xtick_9">
          <g
             id="line2d_9">
            <g
               id="g10">
              <use
                 xlink:href="#ma716d580ed"
                 x="680.58386"
                 y="304"
                 style="stroke:#000000;stroke-width:0.8"
                 id="use10" />
            </g>
          </g>
          <g
             id="text_9">
            <text
               style="font-style:normal;font-variant:normal;font-weight:normal;font-stretch:normal;font-size:15px;line-height:normal;font-family:'DejaVu Sans', 'Bitstream Vera Sans', 'Computer Modern Sans Serif', 'Lucida Grande', Verdana, Geneva, Lucid, Arial, Helvetica, 'Avant Garde', sans-serif;text-anchor:middle"
               x="680.58386"
               y="322.39764"
               id="text10">4.0</text>
          </g>
        </g>
        <g
           id="text_10">
          <text
             style="font-style:normal;font-variant:normal;font-weight:normal;font-stretch:normal;font-size:15px;line-height:normal;font-family:'DejaVu Sans', 'Bitstream Vera Sans', 'Computer Modern Sans Serif', 'Lucida Grande', Verdana, Geneva, Lucid, Arial, Helvetica, 'Avant Garde', sans-serif;text-anchor:middle"
             x="383.76999"
             y="340.91486"
             id="text11">Time (s)</text>
        </g>
      </g>
      <g
         id="matplotlib.axis_2">
        <g
           id="ytick_1">
          <g
             id="line2d_10">
            <defs
               id="defs11">
              <path
                 id="m0fa46b90e2"
                 d="M 0,0 H -3.5"
                 style="stroke:#000000;stroke-width:0.8" />
            </defs>
            <g
               id="g11">
              <use
                 xlink:href="#m0fa46b90e2"
                 x="63.740002"
                 y="269.00113"
                 style="stroke:#000000;stroke-width:0.8"
                 id="use11" />
            </g>
          </g>
          <g
             id="text_11">
            <text
               style="font-style:normal;font-variant:normal;font-weight:normal;font-stretch:normal;font-size:15px;line-height:normal;font-family:'DejaVu Sans', 'Bitstream Vera Sans', 'Computer Modern Sans Serif', 'Lucida Grande', Verdana, Geneva, Lucid, Arial, Helvetica, 'Avant Garde', sans-serif;text-anchor:end"
               x="56.740002"
               y="274.69998"
               id="text12">−3</text>
          </g>
        </g>
        <g
           id="ytick_2">
          <g
             id="line2d_11">
            <g
               id="g12">
              <use
                 xlink:href="#m0fa46b90e2"
                 x="63.740002"
                 y="226.40779"
                 style="stroke:#000000;stroke-width:0.8"
                 id="use12" />
            </g>
          </g>
          <g
             id="text_12">
            <text
               style="font-style:normal;font-variant:normal;font-weight:normal;font-stretch:normal;font-size:15px;line-height:normal;font-family:'DejaVu Sans', 'Bitstream Vera Sans', 'Computer Modern Sans Serif', 'Lucida Grande', Verdana, Geneva, Lucid, Arial, Helvetica, 'Avant Garde', sans-serif;text-anchor:end"
               x="56.740002"
               y="232.10661"
               id="text13">−2</text>
          </g>
        </g>
        <g
           id="ytick_3">
          <g
             id="line2d_12">
            <g
               id="g13">
              <use
                 xlink:href="#m0fa46b90e2"
                 x="63.740002"
                 y="183.81444"
                 style="stroke:#000000;stroke-width:0.8"
                 id="use13" />
            </g>
          </g>
          <g
             id="text_13">
            <text
               style="font-style:normal;font-variant:normal;font-weight:normal;font-stretch:normal;font-size:15px;line-height:normal;font-family:'DejaVu Sans', 'Bitstream Vera Sans', 'Computer Modern Sans Serif', 'Lucida Grande', Verdana, Geneva, Lucid, Arial, Helvetica, 'Avant Garde', sans-serif;text-anchor:end"
               x="56.740002"
               y="189.51328"
               id="text14">−1</text>
          </g>
        </g>
        <g
           id="ytick_4">
          <g
             id="line2d_13">
            <g
               id="g14">
              <use
                 xlink:href="#m0fa46b90e2"
                 x="63.740002"
                 y="141.22108"
                 style="stroke:#000000;stroke-width:0.8"
                 id="use14" />
            </g>
          </g>
          <g
             id="text_14">
            <text
               style="font-style:normal;font-variant:normal;font-weight:normal;font-stretch:normal;font-size:15px;line-height:normal;font-family:'DejaVu Sans', 'Bitstream Vera Sans', 'Computer Modern Sans Serif', 'Lucida Grande', Verdana, Geneva, Lucid, Arial, Helvetica, 'Avant Garde', sans-serif;text-anchor:end"
               x="56.740002"
               y="146.91992"
               id="text15">0</text>
          </g>
        </g>
        <g
           id="ytick_5">
          <g
             id="line2d_14">
            <g
               id="g15">
              <use
                 xlink:href="#m0fa46b90e2"
                 x="63.740002"
                 y="98.627739"
                 style="stroke:#000000;stroke-width:0.8"
                 id="use15" />
            </g>
          </g>
          <g
             id="text_15">
            <text
               style="font-style:normal;font-variant:normal;font-weight:normal;font-stretch:normal;font-size:15px;line-height:normal;font-family:'DejaVu Sans', 'Bitstream Vera Sans', 'Computer Modern Sans Serif', 'Lucida Grande', Verdana, Geneva, Lucid, Arial, Helvetica, 'Avant Garde', sans-serif;text-anchor:end"
               x="56.740002"
               y="104.32657"
               id="text16">1</text>
          </g>
        </g>
        <g
           id="ytick_6">
          <g
             id="line2d_15">
            <g
               id="g16">
              <use
                 xlink:href="#m0fa46b90e2"
                 x="63.740002"
                 y="56.034393"
                 style="stroke:#000000;stroke-width:0.8"
                 id="use16" />
            </g>
          </g>
          <g
             id="text_16">
            <text
               style="font-style:normal;font-variant:normal;font-weight:normal;font-stretch:normal;font-size:15px;line-height:normal;font-family:'DejaVu Sans', 'Bitstream Vera Sans', 'Computer Modern Sans Serif', 'Lucida Grande', Verdana, Geneva, Lucid, Arial, Helvetica, 'Avant Garde', sans-serif;text-anchor:end"
               x="56.740002"
               y="61.733219"
               id="text17">2</text>
          </g>
        </g>
        <g
           id="text_17">
          <text
             style="font-style:normal;font-variant:normal;font-weight:normal;font-stretch:normal;font-size:15px;line-height:normal;font-family:'DejaVu Sans', 'Bitstream Vera Sans', 'Computer Modern Sans Serif', 'Lucida Grande', Verdana, Geneva, Lucid, Arial, Helvetica, 'Avant Garde', sans-serif;text-anchor:middle"
             x="27.507189"
             y="160.10001"
             transform="rotate(-90,27.507188,160.1)"
             id="text18">Joint Velocities (rad/s)</text>
        </g>
      </g>
      <g
         id="line2d_16">
        <path
           d="m 92.833636,174.43131 5.877503,-3.02386 5.877501,0.17341 5.8775,-0.56262 5.87751,-0.63882 5.8775,-37.22731 5.8775,-17.56698 5.8775,3.73227 5.8775,0.90778 5.87751,22.48292 5.8775,31.72321 5.8775,-3.02386 5.8775,0.17341 5.87751,-0.56262 5.8775,-55.03634 5.8775,-0.39677 5.8775,3.73227 5.8775,-20.637439 5.87751,42.221419 5.8775,-29.98755 5.8775,0.31671 5.8775,32.51531 5.87751,-2.23812 5.8775,0.0357 5.8775,0.1633 5.8775,-29.33055 5.87751,0.70744 5.8775,5.30172 5.8775,27.97987 5.8775,-36.14487 5.8775,38.35646 5.87751,-38.6424 5.8775,31.72951 5.8775,30.99152 5.8775,-34.11535 5.87751,27.10522 5.8775,-26.41718 5.8775,32.951 5.8775,-2.80643 5.87751,-0.65543 5.8775,2.07971 5.8775,1.43015 5.8775,1.26148 5.8775,-57.90343 5.87751,3.73227 5.8775,0.90778 5.8775,1.35264 5.8775,-7.42818 5.87751,26.75174 5.8775,-34.64 5.8775,34.64 5.8775,-0.0161 5.87751,-0.005 5.8775,33.55097 5.8775,-36.84033 5.8775,35.89626 5.87751,0.94407 5.8775,-3.02386 5.8775,-34.48249 5.8775,4.63169 5.8775,-0.0522 5.87751,-0.28263 5.8775,0.0364 5.8775,47.48799 5.8775,-51.54986 5.87751,2.84276 5.8775,29.97544 5.8775,-33.52997 5.8775,-26.19236 5.87751,61.9681 5.8775,-37.10525 5.8775,9.08863 5.8775,-5.4188 5.8775,4.80384 5.87751,-4.83232 5.8775,4.78672 5.8775,-4.80148 5.8775,4.79029 5.8775,-4.7908 5.87751,4.78653 5.8775,-4.78362 5.8775,4.78104 5.8775,-4.77738 5.87751,4.77528 5.8775,-4.77152 5.8775,4.76961 5.8775,-4.76591 5.87751,4.76413 5.8775,-4.76051 5.8775,4.75884 5.8775,-4.75533 5.8775,4.75376 5.87751,-4.75034 5.8775,4.74887 5.8775,-4.74556 5.8775,4.74419 5.87751,-4.74097 5.8775,4.73969 5.8775,-4.73657 5.8775,4.7354"
           clip-path="url(#pc123632c03)"
           style="fill:none;stroke:#1f77b4;stroke-width:1.5;stroke-linecap:square"
           id="path18" />
      </g>
      <g
         id="line2d_17">
        <path
           d="m 92.833636,170.86446 5.877503,-7.97476 5.877501,-4.06734 5.8775,-4.86208 5.87751,-5.13846 5.8775,-53.90435 5.8775,-20.875944 5.8775,5.373945 5.8775,-3.690131 5.87751,20.880076 5.8775,74.259044 5.8775,-7.97476 5.8775,-4.06734 5.87751,-4.86208 5.8775,51.85309 5.8775,-131.771844 5.8775,5.373945 5.8775,61.229349 5.87751,8.23313 5.8775,-8.92605 5.8775,-5.64469 5.8775,-57.855885 5.87751,44.015345 5.8775,-6.78518 5.8775,-55.823521 5.8775,146.631731 5.87751,-8.91382 5.8775,-81.30038 5.8775,1.61956 5.8775,83.92501 5.8775,-103.245385 5.87751,70.843365 5.8775,-96.471258 5.8775,105.331378 5.8775,-82.758686 5.87751,30.952646 5.8775,-25.314059 5.8775,71.791309 5.8775,34.20093 5.87751,-8.93144 5.8775,-0.63469 5.8775,-1.77499 5.8775,-1.96323 5.8775,-117.804434 5.87751,5.373945 5.8775,-3.690131 5.8775,-3.745289 5.8775,141.079299 5.87751,-64.1814 5.8775,-48.964709 5.8775,48.964709 5.8775,-8.77019 5.87751,-7.56728 5.8775,38.32398 5.8775,-58.12996 5.8775,51.96967 5.87751,6.16029 5.8775,-7.97476 5.8775,-53.85953 5.8775,-48.732352 5.8775,7.284069 5.87751,30.171411 5.8775,-6.881735 5.8775,53.877097 5.8775,-58.738529 5.87751,-1.617586 5.8775,63.450295 5.8775,-16.20776 5.8775,-25.62566 5.87751,103.7631 5.8775,-143.092661 5.8775,88.698981 5.8775,-26.51441 5.8775,19.16555 5.87751,-18.17119 5.8775,17.95097 5.8775,-17.79647 5.8775,17.66637 5.8775,-17.5272 5.87751,17.39694 5.8775,-17.26016 5.8775,17.13013 5.8775,-16.99497 5.87751,16.86572 5.8775,-16.73196 5.8775,16.60372 5.8775,-16.47126 5.87751,16.3441 5.8775,-16.2129 5.8775,16.08684 5.8775,-15.95687 5.8775,15.83193 5.87751,-15.70317 5.8775,15.57934 5.8775,-15.45176 5.8775,15.32903 5.87751,-15.20263 5.8775,15.08099 5.8775,-14.95575 5.8775,14.83519"
           clip-path="url(#pc123632c03)"
           style="fill:none;stroke:#ff7f0e;stroke-width:1.5;stroke-linecap:square"
           id="path19" />
      </g>
      <g
         id="line2d_18">
        <path
           d="m 92.833636,138.84443 5.877503,-1.214 5.877501,0.0956 5.8775,0.49198 5.87751,0.58008 5.8775,0.94008 5.8775,3.47971 5.8775,1.10407 5.8775,0.44245 5.87751,-1.99006 5.8775,-3.92995 5.8775,-1.214 5.8775,0.0956 5.87751,0.49198 5.8775,1.20669 5.8775,3.79318 5.8775,1.10407 5.8775,2.45794 5.87751,-5.58603 5.8775,2.94633 5.8775,1.58714 5.8775,-3.57741 5.87751,-0.83254 5.8775,-0.12968 5.8775,-0.0784 5.8775,2.39721 5.87751,1.15716 5.8775,-0.49202 5.8775,-1.61162 5.8775,-0.12752 5.8775,-0.13898 5.87751,-0.58418 5.8775,-0.45722 5.8775,-2.2018 5.8775,0.68344 5.87751,-0.75298 5.8775,0.90069 5.8775,-1.59343 5.8775,0.95762 5.87751,-1.1336 5.8775,0.0274 5.8775,0.62221 5.8775,1.04254 5.8775,3.41367 5.87751,1.10407 5.8775,0.44245 5.8775,0.18992 5.8775,1.1263 5.87751,-4.88676 5.8775,3.43912 5.8775,-3.43912 5.8775,0.0802 5.87751,-0.025 5.8775,-2.40468 5.8775,0.81107 5.8775,-0.41263 5.87751,-0.39844 5.8775,-1.214 5.8775,1.69204 5.8775,1.86609 5.8775,0.0174 5.87751,-0.0527 5.8775,-0.006 5.8775,-4.38689 5.8775,2.53657 5.87751,1.37646 5.8775,-2.53613 5.8775,1.73086 5.8775,4.06974 5.87751,-4.62905 5.8775,1.44283 5.8775,0.15741 5.8775,0.23802 5.8775,0.14287 5.87751,0.0146 5.8775,0.0581 5.8775,-0.0153 5.8775,0.0245 5.8775,-0.009 5.87751,0.004 5.8775,0.005 5.8775,-0.0141 5.8775,0.0219 5.87751,-0.0313 5.8775,0.0389 5.8775,-0.0485 5.8775,0.0561 5.87751,-0.0658 5.8775,0.0734 5.8775,-0.0832 5.8775,0.0908 5.8775,-0.10074 5.87751,0.10841 5.8775,-0.11836 5.8775,0.12609 5.8775,-0.1361 5.87751,0.1439 5.8775,-0.15397 5.8775,0.16182 5.8775,-0.17196"
           clip-path="url(#pc123632c03)"
           style="fill:none;stroke:#2ca02c;stroke-width:1.5;stroke-linecap:square"
           id="path20" />
      </g>
      <g
         id="line2d_19">
        <path
           d="m 92.833636,158.80948 5.877503,5.54868 5.877501,7.12129 5.8775,7.15512 5.87751,7.5114 5.8775,88.68949 5.8775,-64.11888 5.8775,1.27243 5.8775,10.79591 5.87751,-87.41655 5.8775,23.44111 5.8775,5.54868 5.8775,7.12129 5.87751,7.15512 5.8775,-96.475601 5.8775,128.557611 5.8775,1.27243 5.8775,-64.13001 5.87751,-102.634762 5.8775,36.051251 5.8775,3.358893 5.8775,66.082238 5.87751,100.27002 5.8775,0.22684 5.8775,39.7047 5.8775,-206.032414 5.87751,13.951983 5.8775,140.630381 5.8775,6.60003 5.8775,-155.809899 5.8775,183.706919 5.87751,-237.368575 5.8775,239.447975 5.8775,-131.71697 5.8775,-21.3474 5.87751,119.53301 5.8775,-127.03891 5.8775,49.09641 5.8775,-80.856973 5.87751,14.099899 5.8775,6.001104 5.8775,6.78655 5.8775,6.64773 5.8775,93.46755 5.87751,1.27243 5.8775,10.79591 5.8775,11.77091 5.8775,-179.600627 5.87751,-9.730965 5.8775,103.882932 5.8775,-103.882932 5.8775,18.571089 5.87751,5.524519 5.8775,89.489634 5.8775,94.86368 5.8775,-94.6817 5.87751,-0.18198 5.8775,5.54868 5.8775,93.70058 5.8775,-33.24244 5.8775,0.90853 5.87751,-93.78849 5.8775,-2.74106 5.8775,16.96646 5.8775,-8.90419 5.87751,138.07988 5.8775,-218.953861 5.8775,191.622211 5.8775,-121.11575 5.87751,-57.257091 5.8775,221.020841 5.8775,-261.371962 5.8775,224.521842 5.8775,-219.888916 5.87751,219.114856 5.8775,-218.888493 5.8775,218.674513 5.8775,-218.500302 5.8775,218.302922 5.87751,-218.126717 5.8775,217.933917 5.8775,-217.758017 5.8775,217.568307 5.87751,-217.393816 5.8775,217.206686 5.8775,-217.034008 5.8775,216.849248 5.87751,-216.67853 5.8775,216.49602 5.8775,-216.327311 5.8775,216.147011 5.8775,-215.980316 5.87751,215.802166 5.8775,-215.637475 5.8775,215.461455 5.8775,-215.29875 5.87751,215.12481 5.8775,-214.964069 5.8775,214.792189 5.8775,-214.633389"
           clip-path="url(#pc123632c03)"
           style="fill:none;stroke:#d62728;stroke-width:1.5;stroke-linecap:square"
           id="path21" />
      </g>
      <g
         id="line2d_20">
        <path
           d="m 92.833636,142.74536 5.877503,0.68715 5.877501,-0.3156 5.8775,-0.46999 5.87751,-0.41906 5.8775,0.21603 5.8775,-2.68902 5.8775,-1.28223 5.8775,-0.68006 5.87751,0.97774 5.8775,3.97504 5.8775,0.68715 5.8775,-0.3156 5.87751,-0.46999 5.8775,-0.58855 5.8775,-2.3035 5.8775,-1.28223 5.8775,-1.88278 5.87751,4.48291 5.8775,-2.39908 5.8775,-2.21974 5.8775,2.00812 5.87751,2.76643 5.8775,0.0446 5.8775,-0.0925 5.8775,-1.16838 5.87751,-0.51973 5.8775,0.22594 5.8775,0.59252 5.8775,1.07935 5.8775,-1.15757 5.87751,1.04307 5.8775,-0.15629 5.8775,1.55881 5.8775,-0.19863 5.87751,0.27313 5.8775,-0.13826 5.8775,0.61773 5.8775,-0.62984 5.87751,0.52579 5.8775,-0.43616 5.8775,-0.71087 5.8775,-0.7133 5.8775,-1.51301 5.87751,-1.28223 5.8775,-0.68006 5.8775,-0.37175 5.8775,-0.30806 5.87751,3.96 5.8775,-2.78956 5.8775,2.78956 5.8775,-0.13678 5.87751,-0.0993 5.8775,1.90863 5.8775,-0.28404 5.8775,-0.26908 5.87751,0.55312 5.8775,0.68715 5.8775,-0.81786 5.8775,-1.57236 5.8775,0.0493 5.87751,-0.01 5.8775,-0.0675 5.8775,3.6061 5.8775,-1.21965 5.87751,-1.59183 5.8775,2.61074 5.8775,-2.10832 5.8775,-3.03235 5.87751,3.20957 5.8775,-0.70587 5.8775,0.26762 5.8775,-1.22583 5.8775,0.91263 5.87751,-1.08025 5.8775,0.99962 5.8775,-1.0306 5.8775,1.00654 5.8775,-1.00734 5.87751,0.9959 5.8775,-0.99001 5.8775,0.98128 5.8775,-0.97392 5.87751,0.96572 5.8775,-0.95803 5.8775,0.94988 5.8775,-0.94209 5.87751,0.9339 5.8775,-0.92605 5.8775,0.91781 5.8775,-0.90992 5.8775,0.90162 5.87751,-0.89368 5.8775,0.88533 5.8775,-0.87734 5.8775,0.86893 5.87751,-0.8609 5.8775,0.85244 5.8775,-0.84435 5.8775,0.83583"
           clip-path="url(#pc123632c03)"
           style="fill:none;stroke:#9467bd;stroke-width:1.5;stroke-linecap:square"
           id="path22" />
      </g>
      <g
         id="line2d_21">
        <path
           d="m 92.833636,93.338595 5.877503,2.411656 5.877501,-3.156593 5.8775,-2.38354 5.87751,-2.464007 5.8775,-35.687862 5.8775,86.602961 5.8775,-6.92494 5.8775,-7.22156 5.87751,67.6938 5.8775,-98.869915 5.8775,2.411656 5.8775,-3.156593 5.87751,-2.38354 5.8775,46.020882 5.8775,2.43021 5.8775,-6.92494 5.8775,3.09864 5.87751,96.70456 5.8775,-27.65143 5.8775,2.24129 5.8775,-8.67245 5.87751,-147.007771 5.8775,6.561482 5.8775,16.428077 5.8775,61.289372 5.87751,-5.06752 5.8775,-61.239742 5.8775,-8.519958 5.8775,73.97322 5.8775,-82.600271 5.87751,170.202591 5.8775,-146.237936 5.8775,27.051466 5.8775,106.01188 5.87751,-153.196821 5.8775,154.898231 5.8775,-122.653231 5.8775,47.916911 5.87751,-5.19357 5.8775,-5.45954 5.8775,-5.10996 5.8775,-4.78657 5.8775,23.94399 5.87751,-6.92494 5.8775,-7.22156 5.8775,-8.13361 5.8775,39.39031 5.87751,75.76806 5.8775,-56.23587 5.8775,56.23587 5.8775,-9.97594 5.87751,2.01578 5.8775,-130.240715 5.8775,-37.794418 5.8775,43.654793 5.87751,-5.860375 5.8775,2.411656 5.8775,-40.935272 5.8775,83.448971 5.8775,-8.49568 5.87751,64.80743 5.8775,10.12301 5.8775,-72.03951 5.8775,68.73569 5.87751,-139.103712 5.8775,158.460222 5.8775,-178.414342 5.8775,149.163022 5.87751,-46.78587 5.8775,-79.630589 5.8775,175.598709 5.8775,-201.24673 5.8775,204.14164 5.87751,-204.356747 5.8775,204.368247 5.8775,-204.305067 5.8775,204.266987 5.8775,-204.209804 5.87751,204.166974 5.8775,-204.113644 5.8775,204.069894 5.8775,-204.018616 5.87751,203.975086 5.8775,-203.925197 5.8775,203.882327 5.8775,-203.833568 5.87751,203.791498 5.8775,-203.743758 5.8775,203.702558 5.8775,-203.655779 5.8775,203.615459 5.87751,-203.56961 5.8775,203.53017 5.8775,-203.485228 5.8775,203.446668 5.87751,-203.402616 5.8775,203.364916 5.8775,-203.321737 5.8775,203.284907"
           clip-path="url(#pc123632c03)"
           style="fill:none;stroke:#8c564b;stroke-width:1.5;stroke-linecap:square"
           id="path23" />
      </g>
      <g
         id="line2d_22">
        <path
           d="m 92.833636,172.61662 5.877503,-4.46134 5.877501,0.48331 5.8775,0.11641 5.87751,0.0738 5.8775,-36.95947 5.8775,-14.86538 5.8775,5.12675 5.8775,1.10509 5.87751,21.91088 5.8775,27.46999 5.8775,-4.46134 5.8775,0.48331 5.87751,0.11641 5.8775,-55.65386 5.8775,3.90277 5.8775,5.12675 5.8775,-18.38435 5.87751,37.41997 5.8775,-26.80895 5.8775,3.58031 5.8775,28.85436 5.87751,-5.46336 5.8775,-0.0943 5.8775,0.041 5.8775,-27.00952 5.87751,2.18557 5.8775,4.17582 5.8775,26.79708 5.8775,-36.73924 5.8775,38.48391 5.87751,-38.96592 5.8775,31.23406 5.8775,29.79143 5.8775,-34.53308 5.87751,27.33995 5.8775,-26.53767 5.8775,32.65051 5.8775,-2.3038 5.87751,-2.16986 5.8775,2.22184 5.8775,2.2925 5.8775,2.57106 5.8775,-55.75613 5.87751,5.12675 5.8775,1.10509 5.8775,1.01538 5.8775,-4.80369 5.87751,21.71884 5.8775,-31.25926 5.8775,31.25926 5.8775,0.11247 5.87751,0.0616 5.8775,31.27632 5.8775,-37.0812 5.8775,36.90348 5.87751,0.17772 5.8775,-4.46134 5.8775,-33.39997 5.8775,6.7038 5.8775,-0.0877 5.87751,-0.0801 5.8775,0.0733 5.8775,43.26148 5.8775,-50.45846 5.87751,5.35347 5.8775,26.89574 5.8775,-31.16978 5.8775,-22.97459 5.87751,58.55756 5.8775,-35.75751 5.8775,7.93367 5.8775,-3.39846 5.8775,3.18144 5.87751,-3.01776 5.8775,3.07562 5.8775,-3.06421 5.8775,3.09182 5.8775,-3.10381 5.87751,3.12373 5.8775,-3.14054 5.8775,3.15883 5.8775,-3.17656 5.87751,3.1945 5.8775,-3.21235 5.8775,3.23021 5.8775,-3.24804 5.87751,3.26586 5.8775,-3.28363 5.8775,3.30143 5.8775,-3.31917 5.8775,3.33694 5.87751,-3.35464 5.8775,3.37238 5.8775,-3.39004 5.8775,3.40775 5.87751,-3.42537 5.8775,3.44305 5.8775,-3.46064 5.8775,3.47831"
           clip-path="url(#pc123632c03)"
           style="fill:none;stroke:#e377c2;stroke-width:1.5;stroke-linecap:square"
           id="path24" />
      </g>
      <g
         id="patch_3">
        <path
           d="M 63.74,304 V 16.2"
           style="fill:none;stroke:#000000;stroke-width:0.8;stroke-linecap:square;stroke-linejoin:miter"
           id="path25" />
      </g>
      <g
         id="patch_4">
        <path
           d="M 703.8,304 V 16.2"
           style="fill:none;stroke:#000000;stroke-width:0.8;stroke-linecap:square;stroke-linejoin:miter"
           id="path26" />
      </g>
      <g
         id="patch_5">
        <path
           d="M 63.74,304 H 703.8"
           style="fill:none;stroke:#000000;stroke-width:0.8;stroke-linecap:square;stroke-linejoin:miter"
           id="path27" />
      </g>
      <g
         id="patch_6">
        <path
           d="M 63.74,16.2 H 703.8"
           style="fill:none;stroke:#000000;stroke-width:0.8;stroke-linecap:square;stroke-linejoin:miter"
           id="path28" />
      </g>
      <g
         id="legend_1">
        <g
           id="patch_7">
          <path
             d="m 74.24,296.5 h 192.89531 q 3,0 3,-3 V 137.95937 q 0,-3 -3,-3 H 74.24 q -3,0 -3,3 V 293.5 q 0,3 3,3 z"
             style="opacity:0.8;fill:#ffffff;stroke:#cccccc;stroke-linejoin:miter"
             id="path29" />
        </g>
        <g
           id="line2d_23">
          <path
             d="m 77.24,147.10703 h 15 15"
             style="fill:none;stroke:#1f77b4;stroke-width:1.5;stroke-linecap:square"
             id="path30" />
        </g>
        <g
           id="text_18">
          <text
             style="font-style:normal;font-variant:normal;font-weight:normal;font-stretch:normal;font-size:15px;line-height:normal;font-family:'DejaVu Sans', 'Bitstream Vera Sans', 'Computer Modern Sans Serif', 'Lucida Grande', Verdana, Geneva, Lucid, Arial, Helvetica, 'Avant Garde', sans-serif;text-anchor:start"
             x="119.24"
             y="152.35703"
             id="text30">shoulder_pan_joint</text>
        </g>
        <g
           id="line2d_24">
          <path
             d="m 77.24,169.54141 h 15 15"
             style="fill:none;stroke:#ff7f0e;stroke-width:1.5;stroke-linecap:square"
             id="path31" />
        </g>
        <g
           id="text_19">
          <text
             style="font-style:normal;font-variant:normal;font-weight:normal;font-stretch:normal;font-size:15px;line-height:normal;font-family:'DejaVu Sans', 'Bitstream Vera Sans', 'Computer Modern Sans Serif', 'Lucida Grande', Verdana, Geneva, Lucid, Arial, Helvetica, 'Avant Garde', sans-serif;text-anchor:start"
             x="119.24"
             y="174.79141"
             id="text31">shoulder_lift_joint</text>
        </g>
        <g
           id="line2d_25">
          <path
             d="m 77.24,191.97578 h 15 15"
             style="fill:none;stroke:#2ca02c;stroke-width:1.5;stroke-linecap:square"
             id="path32" />
        </g>
        <g
           id="text_20">
          <text
             style="font-style:normal;font-variant:normal;font-weight:normal;font-stretch:normal;font-size:15px;line-height:normal;font-family:'DejaVu Sans', 'Bitstream Vera Sans', 'Computer Modern Sans Serif', 'Lucida Grande', Verdana, Geneva, Lucid, Arial, Helvetica, 'Avant Garde', sans-serif;text-anchor:start"
             x="119.24"
             y="197.22578"
             id="text32">upperarm_roll_joint</text>
        </g>
        <g
           id="line2d_26">
          <path
             d="m 77.24,214.41016 h 15 15"
             style="fill:none;stroke:#d62728;stroke-width:1.5;stroke-linecap:square"
             id="path33" />
        </g>
        <g
           id="text_21">
          <text
             style="font-style:normal;font-variant:normal;font-weight:normal;font-stretch:normal;font-size:15px;line-height:normal;font-family:'DejaVu Sans', 'Bitstream Vera Sans', 'Computer Modern Sans Serif', 'Lucida Grande', Verdana, Geneva, Lucid, Arial, Helvetica, 'Avant Garde', sans-serif;text-anchor:start"
             x="119.24"
             y="219.66016"
             id="text33">elbow_flex_joint</text>
        </g>
        <g
           id="line2d_27">
          <path
             d="m 77.24,236.84453 h 15 15"
             style="fill:none;stroke:#9467bd;stroke-width:1.5;stroke-linecap:square"
             id="path34" />
        </g>
        <g
           id="text_22">
          <text
             style="font-style:normal;font-variant:normal;font-weight:normal;font-stretch:normal;font-size:15px;line-height:normal;font-family:'DejaVu Sans', 'Bitstream Vera Sans', 'Computer Modern Sans Serif', 'Lucida Grande', Verdana, Geneva, Lucid, Arial, Helvetica, 'Avant Garde', sans-serif;text-anchor:start"
             x="119.24"
             y="242.09453"
             id="text34">forearm_roll_joint</text>
        </g>
        <g
           id="line2d_28">
          <path
             d="m 77.24,259.27891 h 15 15"
             style="fill:none;stroke:#8c564b;stroke-width:1.5;stroke-linecap:square"
             id="path35" />
        </g>
        <g
           id="text_23">
          <text
             style="font-style:normal;font-variant:normal;font-weight:normal;font-stretch:normal;font-size:15px;line-height:normal;font-family:'DejaVu Sans', 'Bitstream Vera Sans', 'Computer Modern Sans Serif', 'Lucida Grande', Verdana, Geneva, Lucid, Arial, Helvetica, 'Avant Garde', sans-serif;text-anchor:start"
             x="119.24"
             y="264.5289"
             id="text35">wrist_flex_joint</text>
        </g>
        <g
           id="line2d_29">
          <path
             d="m 77.24,281.71328 h 15 15"
             style="fill:none;stroke:#e377c2;stroke-width:1.5;stroke-linecap:square"
             id="path36" />
        </g>
        <g
           id="text_24">
          <text
             style="font-style:normal;font-variant:normal;font-weight:normal;font-stretch:normal;font-size:15px;line-height:normal;font-family:'DejaVu Sans', 'Bitstream Vera Sans', 'Computer Modern Sans Serif', 'Lucida Grande', Verdana, Geneva, Lucid, Arial, Helvetica, 'Avant Garde', sans-serif;text-anchor:start"
             x="119.24"
             y="286.96329"
             id="text36">wrist_roll_joint</text>
        </g>
      </g>
    </g>
  </g>
  <defs
     id="defs36">
    <clipPath
       id="pc123632c03">
      <rect
         x="63.740002"
         y="16.200001"
         width="640.06"
         height="287.79999"
         id="rect36" />
    </clipPath>
  </defs>
</svg>
