<?xml version="1.0" encoding="utf-8" standalone="no"?>
<!DOCTYPE svg PUBLIC "-//W3C//DTD SVG 1.1//EN"
  "http://www.w3.org/Graphics/SVG/1.1/DTD/svg11.dtd">
<svg xmlns:xlink="http://www.w3.org/1999/xlink" width="720pt" height="360pt" viewBox="0 0 720 360" xmlns="http://www.w3.org/2000/svg" version="1.1">
 <metadata>
  <rdf:RDF xmlns:dc="http://purl.org/dc/elements/1.1/" xmlns:cc="http://creativecommons.org/ns#" xmlns:rdf="http://www.w3.org/1999/02/22-rdf-syntax-ns#">
   <cc:Work>
    <dc:type rdf:resource="http://purl.org/dc/dcmitype/StillImage"/>
    <dc:date>2024-04-28T15:21:54.920842</dc:date>
    <dc:format>image/svg+xml</dc:format>
    <dc:creator>
     <cc:Agent>
      <dc:title>Matplotlib v3.7.5, https://matplotlib.org/</dc:title>
     </cc:Agent>
    </dc:creator>
   </cc:Work>
  </rdf:RDF>
 </metadata>
 <defs>
  <style type="text/css">*{stroke-linejoin: round; stroke-linecap: butt}</style>
 </defs>
 <g id="figure_1">
  <g id="patch_1">
   <path d="M 0 360 
L 720 360 
L 720 0 
L 0 0 
z
" style="fill: #ffffff"/>
  </g>
  <g id="axes_1">
   <g id="patch_2">
    <path d="M 84.53 304 
L 703.8 304 
L 703.8 20.642208 
L 84.53 20.642208 
z
" style="fill: #ffffff"/>
   </g>
   <g id="matplotlib.axis_1">
    <g id="xtick_1">
     <g id="line2d_1">
      <defs>
       <path id="m39143bb547" d="M 0 0 
L 0 3.5 
" style="stroke: #000000; stroke-width: 0.8"/>
      </defs>
      <g>
       <use xlink:href="#m39143bb547" x="112.1151" y="304" style="stroke: #000000; stroke-width: 0.8"/>
      </g>
     </g>
     <g id="text_1">
      <text style="font: 15px 'DejaVu Sans', 'Bitstream Vera Sans', 'Computer Modern Sans Serif', 'Lucida Grande', 'Verdana', 'Geneva', 'Lucid', 'Arial', 'Helvetica', 'Avant Garde', sans-serif; text-anchor: middle" x="112.1151" y="322.397656" transform="rotate(-0 112.1151 322.397656)">0</text>
     </g>
    </g>
    <g id="xtick_2">
     <g id="line2d_2">
      <g>
       <use xlink:href="#m39143bb547" x="182.557133" y="304" style="stroke: #000000; stroke-width: 0.8"/>
      </g>
     </g>
     <g id="text_2">
      <text style="font: 15px 'DejaVu Sans', 'Bitstream Vera Sans', 'Computer Modern Sans Serif', 'Lucida Grande', 'Verdana', 'Geneva', 'Lucid', 'Arial', 'Helvetica', 'Avant Garde', sans-serif; text-anchor: middle" x="182.557133" y="322.397656" transform="rotate(-0 182.557133 322.397656)">2500</text>
     </g>
    </g>
    <g id="xtick_3">
     <g id="line2d_3">
      <g>
       <use xlink:href="#m39143bb547" x="252.999166" y="304" style="stroke: #000000; stroke-width: 0.8"/>
      </g>
     </g>
     <g id="text_3">
      <text style="font: 15px 'DejaVu Sans', 'Bitstream Vera Sans', 'Computer Modern Sans Serif', 'Lucida Grande', 'Verdana', 'Geneva', 'Lucid', 'Arial', 'Helvetica', 'Avant Garde', sans-serif; text-anchor: middle" x="252.999166" y="322.397656" transform="rotate(-0 252.999166 322.397656)">5000</text>
     </g>
    </g>
    <g id="xtick_4">
     <g id="line2d_4">
      <g>
       <use xlink:href="#m39143bb547" x="323.441199" y="304" style="stroke: #000000; stroke-width: 0.8"/>
      </g>
     </g>
     <g id="text_4">
      <text style="font: 15px 'DejaVu Sans', 'Bitstream Vera Sans', 'Computer Modern Sans Serif', 'Lucida Grande', 'Verdana', 'Geneva', 'Lucid', 'Arial', 'Helvetica', 'Avant Garde', sans-serif; text-anchor: middle" x="323.441199" y="322.397656" transform="rotate(-0 323.441199 322.397656)">7500</text>
     </g>
    </g>
    <g id="xtick_5">
     <g id="line2d_5">
      <g>
       <use xlink:href="#m39143bb547" x="393.883232" y="304" style="stroke: #000000; stroke-width: 0.8"/>
      </g>
     </g>
     <g id="text_5">
      <text style="font: 15px 'DejaVu Sans', 'Bitstream Vera Sans', 'Computer Modern Sans Serif', 'Lucida Grande', 'Verdana', 'Geneva', 'Lucid', 'Arial', 'Helvetica', 'Avant Garde', sans-serif; text-anchor: middle" x="393.883232" y="322.397656" transform="rotate(-0 393.883232 322.397656)">10000</text>
     </g>
    </g>
    <g id="xtick_6">
     <g id="line2d_6">
      <g>
       <use xlink:href="#m39143bb547" x="464.325265" y="304" style="stroke: #000000; stroke-width: 0.8"/>
      </g>
     </g>
     <g id="text_6">
      <text style="font: 15px 'DejaVu Sans', 'Bitstream Vera Sans', 'Computer Modern Sans Serif', 'Lucida Grande', 'Verdana', 'Geneva', 'Lucid', 'Arial', 'Helvetica', 'Avant Garde', sans-serif; text-anchor: middle" x="464.325265" y="322.397656" transform="rotate(-0 464.325265 322.397656)">12500</text>
     </g>
    </g>
    <g id="xtick_7">
     <g id="line2d_7">
      <g>
       <use xlink:href="#m39143bb547" x="534.767298" y="304" style="stroke: #000000; stroke-width: 0.8"/>
      </g>
     </g>
     <g id="text_7">
      <text style="font: 15px 'DejaVu Sans', 'Bitstream Vera Sans', 'Computer Modern Sans Serif', 'Lucida Grande', 'Verdana', 'Geneva', 'Lucid', 'Arial', 'Helvetica', 'Avant Garde', sans-serif; text-anchor: middle" x="534.767298" y="322.397656" transform="rotate(-0 534.767298 322.397656)">15000</text>
     </g>
    </g>
    <g id="xtick_8">
     <g id="line2d_8">
      <g>
       <use xlink:href="#m39143bb547" x="605.209331" y="304" style="stroke: #000000; stroke-width: 0.8"/>
      </g>
     </g>
     <g id="text_8">
      <text style="font: 15px 'DejaVu Sans', 'Bitstream Vera Sans', 'Computer Modern Sans Serif', 'Lucida Grande', 'Verdana', 'Geneva', 'Lucid', 'Arial', 'Helvetica', 'Avant Garde', sans-serif; text-anchor: middle" x="605.209331" y="322.397656" transform="rotate(-0 605.209331 322.397656)">17500</text>
     </g>
    </g>
    <g id="xtick_9">
     <g id="line2d_9">
      <g>
       <use xlink:href="#m39143bb547" x="675.651364" y="304" style="stroke: #000000; stroke-width: 0.8"/>
      </g>
     </g>
     <g id="text_9">
      <text style="font: 15px 'DejaVu Sans', 'Bitstream Vera Sans', 'Computer Modern Sans Serif', 'Lucida Grande', 'Verdana', 'Geneva', 'Lucid', 'Arial', 'Helvetica', 'Avant Garde', sans-serif; text-anchor: middle" x="675.651364" y="322.397656" transform="rotate(-0 675.651364 322.397656)">20000</text>
     </g>
    </g>
    <g id="text_10">
     <text style="font: 15px 'DejaVu Sans', 'Bitstream Vera Sans', 'Computer Modern Sans Serif', 'Lucida Grande', 'Verdana', 'Geneva', 'Lucid', 'Arial', 'Helvetica', 'Avant Garde', sans-serif; text-anchor: middle" x="394.165" y="340.914844" transform="rotate(-0 394.165 340.914844)">Episodes</text>
    </g>
   </g>
   <g id="matplotlib.axis_2">
    <g id="ytick_1">
     <g id="line2d_10">
      <defs>
       <path id="m41dc010b16" d="M 0 0 
L -3.5 0 
" style="stroke: #000000; stroke-width: 0.8"/>
      </defs>
      <g>
       <use xlink:href="#m41dc010b16" x="84.53" y="252.832172" style="stroke: #000000; stroke-width: 0.8"/>
      </g>
     </g>
     <g id="text_11">
      <text style="font: 15px 'DejaVu Sans', 'Bitstream Vera Sans', 'Computer Modern Sans Serif', 'Lucida Grande', 'Verdana', 'Geneva', 'Lucid', 'Arial', 'Helvetica', 'Avant Garde', sans-serif; text-anchor: end" x="77.53" y="258.531" transform="rotate(-0 77.53 258.531)">0.001</text>
     </g>
    </g>
    <g id="ytick_2">
     <g id="line2d_11">
      <g>
       <use xlink:href="#m41dc010b16" x="84.53" y="195.121448" style="stroke: #000000; stroke-width: 0.8"/>
      </g>
     </g>
     <g id="text_12">
      <text style="font: 15px 'DejaVu Sans', 'Bitstream Vera Sans', 'Computer Modern Sans Serif', 'Lucida Grande', 'Verdana', 'Geneva', 'Lucid', 'Arial', 'Helvetica', 'Avant Garde', sans-serif; text-anchor: end" x="77.53" y="200.820276" transform="rotate(-0 77.53 200.820276)">0.002</text>
     </g>
    </g>
    <g id="ytick_3">
     <g id="line2d_12">
      <g>
       <use xlink:href="#m41dc010b16" x="84.53" y="137.410723" style="stroke: #000000; stroke-width: 0.8"/>
      </g>
     </g>
     <g id="text_13">
      <text style="font: 15px 'DejaVu Sans', 'Bitstream Vera Sans', 'Computer Modern Sans Serif', 'Lucida Grande', 'Verdana', 'Geneva', 'Lucid', 'Arial', 'Helvetica', 'Avant Garde', sans-serif; text-anchor: end" x="77.53" y="143.109551" transform="rotate(-0 77.53 143.109551)">0.003</text>
     </g>
    </g>
    <g id="ytick_4">
     <g id="line2d_13">
      <g>
       <use xlink:href="#m41dc010b16" x="84.53" y="79.699998" style="stroke: #000000; stroke-width: 0.8"/>
      </g>
     </g>
     <g id="text_14">
      <text style="font: 15px 'DejaVu Sans', 'Bitstream Vera Sans', 'Computer Modern Sans Serif', 'Lucida Grande', 'Verdana', 'Geneva', 'Lucid', 'Arial', 'Helvetica', 'Avant Garde', sans-serif; text-anchor: end" x="77.53" y="85.398826" transform="rotate(-0 77.53 85.398826)">0.004</text>
     </g>
    </g>
    <g id="ytick_5">
     <g id="line2d_14">
      <g>
       <use xlink:href="#m41dc010b16" x="84.53" y="21.989274" style="stroke: #000000; stroke-width: 0.8"/>
      </g>
     </g>
     <g id="text_15">
      <text style="font: 15px 'DejaVu Sans', 'Bitstream Vera Sans', 'Computer Modern Sans Serif', 'Lucida Grande', 'Verdana', 'Geneva', 'Lucid', 'Arial', 'Helvetica', 'Avant Garde', sans-serif; text-anchor: end" x="77.53" y="27.688102" transform="rotate(-0 77.53 27.688102)">0.005</text>
     </g>
    </g>
    <g id="text_16">
     <text style="font: 15px 'DejaVu Sans', 'Bitstream Vera Sans', 'Computer Modern Sans Serif', 'Lucida Grande', 'Verdana', 'Geneva', 'Lucid', 'Arial', 'Helvetica', 'Avant Garde', sans-serif; text-anchor: middle" x="27.468281" y="162.321104" transform="rotate(-90 27.468281 162.321104)">Loss</text>
    </g>
   </g>
   <g id="line2d_15">
    <path d="M 112.678636 252.932549 
L 113.242173 244.78335 
L 113.805709 177.766909 
L 114.932781 249.559899 
L 115.496318 194.227262 
L 116.059854 233.07784 
L 116.62339 202.114839 
L 117.186926 198.014579 
L 117.750463 242.269542 
L 118.313999 217.7938 
L 118.877535 167.264686 
L 119.441072 217.287017 
L 120.004608 186.560908 
L 120.568144 191.688602 
L 121.13168 240.24218 
L 121.695217 188.301353 
L 122.258753 201.005938 
L 122.822289 238.531968 
L 123.385825 203.520224 
L 123.949362 198.779053 
L 124.512898 199.969099 
L 125.076434 241.633389 
L 125.63997 264.73117 
L 126.203507 240.674046 
L 126.767043 234.277896 
L 127.330579 200.046737 
L 127.894115 214.857411 
L 128.457652 222.660793 
L 129.021188 251.07775 
L 129.584724 204.2901 
L 130.148261 207.677389 
L 130.711797 204.020389 
L 131.275333 256.504978 
L 131.838869 204.123349 
L 132.402406 175.223452 
L 132.965942 233.454783 
L 133.529478 192.756897 
L 134.093014 219.19211 
L 134.656551 212.071446 
L 135.220087 198.08316 
L 135.783623 218.76152 
L 136.347159 180.643088 
L 136.910696 218.946451 
L 137.474232 231.607515 
L 138.037768 239.490457 
L 138.601304 224.264821 
L 139.164841 227.875558 
L 139.728377 190.211022 
L 140.291913 242.262696 
L 140.85545 201.140367 
L 141.418986 173.996643 
L 142.546058 224.568218 
L 143.109595 195.268562 
L 143.673131 256.089457 
L 144.236667 225.44358 
L 144.800203 179.382083 
L 145.36374 235.581523 
L 145.927276 197.28254 
L 146.490812 232.727763 
L 147.054348 228.919048 
L 147.617885 230.532871 
L 148.181421 241.696797 
L 148.744957 228.060005 
L 149.308493 232.041034 
L 149.87203 222.492268 
L 150.435566 205.230261 
L 150.999102 268.434369 
L 151.562639 160.379241 
L 152.126175 235.072644 
L 152.689711 213.11405 
L 153.253247 221.818828 
L 153.816784 241.811514 
L 154.38032 220.192784 
L 154.943856 191.499721 
L 155.507392 243.766162 
L 156.070929 215.991734 
L 156.634465 236.73277 
L 157.198001 225.119235 
L 157.761537 202.592922 
L 158.325074 227.716721 
L 158.88861 221.731327 
L 159.452146 224.55855 
L 160.015683 212.803867 
L 160.579219 248.599368 
L 161.142755 218.092266 
L 161.706291 138.793304 
L 162.269828 255.960941 
L 162.833364 227.185644 
L 163.3969 33.522107 
L 163.960436 239.556445 
L 164.523973 188.821493 
L 165.087509 208.856874 
L 165.651045 192.966122 
L 166.214581 234.87529 
L 166.778118 229.168839 
L 167.341654 200.185687 
L 167.90519 246.423496 
L 168.468726 172.732426 
L 169.032263 235.216915 
L 169.595799 199.345584 
L 170.159335 243.192463 
L 170.722872 267.217426 
L 171.286408 217.930352 
L 171.849944 230.574398 
L 172.41348 222.172076 
L 172.977017 44.434207 
L 173.540553 218.400789 
L 174.104089 238.581758 
L 174.667625 193.919048 
L 175.231162 246.16133 
L 175.794698 189.85598 
L 176.358234 185.927456 
L 176.92177 207.158029 
L 177.485307 199.608683 
L 178.048843 215.952512 
L 178.612379 224.820333 
L 179.175915 187.934461 
L 179.739452 227.550138 
L 180.302988 254.868789 
L 180.866524 207.672673 
L 181.430061 227.284566 
L 182.557133 246.601782 
L 183.120669 199.109129 
L 183.684206 247.223269 
L 184.247742 213.47464 
L 184.811278 204.141952 
L 185.374814 221.438035 
L 185.938351 224.514692 
L 186.501887 214.006544 
L 187.065423 249.422488 
L 187.628959 257.728881 
L 188.192496 216.270837 
L 188.756032 201.183358 
L 189.319568 249.812814 
L 189.883104 238.695071 
L 190.446641 220.687864 
L 191.010177 251.268775 
L 191.573713 180.399008 
L 192.700786 230.540698 
L 193.264322 232.899177 
L 193.827858 241.955751 
L 194.391395 230.757461 
L 194.954931 243.83817 
L 195.518467 209.230854 
L 196.082003 258.9505 
L 196.64554 216.150597 
L 197.209076 239.22477 
L 197.772612 210.756465 
L 198.336148 223.423474 
L 198.899685 206.200696 
L 199.463221 222.355945 
L 200.026757 249.022581 
L 200.590293 221.248395 
L 201.15383 236.477538 
L 201.717366 234.168023 
L 202.280902 224.285426 
L 202.844439 220.40432 
L 203.407975 252.622595 
L 203.971511 212.13988 
L 204.535047 200.409007 
L 205.098584 215.048361 
L 205.66212 253.315687 
L 206.225656 228.822363 
L 206.789192 237.871682 
L 207.352729 220.23288 
L 207.916265 222.925485 
L 208.479801 208.202655 
L 209.043337 253.8506 
L 209.606874 165.501721 
L 210.17041 239.457308 
L 210.733946 196.833226 
L 211.297482 246.623852 
L 211.861019 194.890208 
L 212.424555 239.736431 
L 213.551628 236.986316 
L 214.115164 233.540819 
L 214.6787 215.43768 
L 215.242236 230.168122 
L 215.805773 236.213282 
L 216.369309 215.279589 
L 216.932845 246.627292 
L 217.496381 241.413428 
L 218.059918 233.877633 
L 218.623454 237.965229 
L 219.18699 253.142728 
L 219.750526 249.777529 
L 220.314063 63.56443 
L 221.441135 248.257105 
L 222.004671 257.130428 
L 222.568208 221.864325 
L 223.131744 197.263097 
L 223.69528 143.550383 
L 224.258817 216.072731 
L 224.822353 236.930359 
L 225.385889 228.480336 
L 225.949425 161.591659 
L 226.512962 238.842318 
L 227.076498 235.121406 
L 227.640034 212.609672 
L 228.20357 271.061635 
L 228.767107 221.604726 
L 229.330643 242.16716 
L 229.894179 244.330576 
L 230.457715 227.297129 
L 231.021252 232.033691 
L 231.584788 252.597489 
L 232.148324 230.002271 
L 232.71186 224.062455 
L 233.275397 204.527757 
L 233.838933 240.333806 
L 234.402469 248.871047 
L 234.966006 232.119733 
L 235.529542 237.319442 
L 236.093078 227.919133 
L 236.656614 228.432393 
L 237.220151 192.949205 
L 237.783687 255.28267 
L 238.347223 150.974175 
L 238.910759 234.406231 
L 239.474296 249.591496 
L 240.037832 273.464052 
L 240.601368 234.170522 
L 241.164904 257.217771 
L 241.728441 261.168077 
L 242.855513 190.464091 
L 243.41905 260.682181 
L 243.982586 243.926356 
L 244.546122 259.323614 
L 245.109658 233.931125 
L 245.673195 232.03576 
L 246.236731 249.439398 
L 246.800267 232.099088 
L 247.363803 258.969191 
L 247.92734 220.649126 
L 248.490876 214.132306 
L 249.054412 217.924379 
L 249.617948 240.956213 
L 250.181485 238.309904 
L 250.745021 259.730975 
L 251.308557 258.107793 
L 251.872093 240.785579 
L 252.43563 254.306676 
L 252.999166 272.311558 
L 253.562702 142.254912 
L 254.126239 208.999573 
L 254.689775 215.461638 
L 255.253311 254.569349 
L 255.816847 267.494362 
L 256.380384 217.144372 
L 256.94392 244.122312 
L 257.507456 219.854405 
L 258.070992 254.371549 
L 258.634529 187.50596 
L 259.198065 216.906526 
L 259.761601 204.978778 
L 260.325137 260.048934 
L 260.888674 187.50858 
L 261.45221 260.603216 
L 262.015746 233.098841 
L 262.579282 276.76167 
L 263.142819 238.083057 
L 263.706355 262.789163 
L 264.269891 252.823724 
L 264.833428 226.868535 
L 265.396964 247.772405 
L 266.524036 256.113912 
L 267.087573 243.290922 
L 267.651109 258.535228 
L 268.214645 219.352096 
L 268.778181 259.297667 
L 269.341718 253.481141 
L 269.905254 262.9987 
L 270.46879 252.54147 
L 271.032326 239.56487 
L 271.595863 242.704102 
L 272.159399 240.789119 
L 272.722935 235.503663 
L 273.286471 239.777017 
L 273.850008 241.303138 
L 274.413544 242.101931 
L 274.97708 268.65518 
L 275.540617 237.957302 
L 276.104153 275.859918 
L 276.667689 236.785019 
L 277.231225 224.750716 
L 277.794762 238.853148 
L 278.358298 236.045913 
L 278.921834 257.05969 
L 279.48537 256.613712 
L 280.048907 257.95336 
L 280.612443 273.037382 
L 281.175979 255.307092 
L 281.739515 241.419327 
L 282.303052 266.217552 
L 282.866588 224.067588 
L 283.430124 242.401988 
L 283.99366 252.162243 
L 284.557197 265.739446 
L 285.120733 267.663603 
L 285.684269 234.436598 
L 286.247806 274.571421 
L 286.811342 249.078048 
L 287.374878 232.181859 
L 287.938414 232.630387 
L 288.501951 269.866765 
L 289.065487 192.469967 
L 289.629023 266.36969 
L 290.192559 226.124551 
L 290.756096 250.194285 
L 291.883168 241.220394 
L 292.446704 255.865264 
L 293.010241 261.512056 
L 293.573777 265.648724 
L 294.137313 263.07496 
L 294.700849 267.176753 
L 295.264386 261.471275 
L 295.827922 242.644469 
L 296.391458 275.203442 
L 296.954995 206.758499 
L 297.518531 270.012716 
L 298.082067 279.244675 
L 298.645603 235.399636 
L 299.772676 259.676898 
L 300.336212 211.037523 
L 300.899748 250.382529 
L 301.463285 267.476068 
L 302.026821 259.604931 
L 302.590357 232.568382 
L 303.153893 256.382279 
L 303.71743 254.715485 
L 304.280966 261.872069 
L 304.844502 243.07602 
L 305.408038 272.376354 
L 305.971575 254.836638 
L 306.535111 254.939601 
L 307.098647 249.788594 
L 307.662184 249.970992 
L 308.22572 265.072506 
L 308.789256 283.187241 
L 309.916329 242.407081 
L 310.479865 266.085824 
L 311.043401 246.725011 
L 311.606937 248.896328 
L 312.170474 212.604975 
L 312.73401 263.247029 
L 313.297546 261.149934 
L 313.861082 265.55257 
L 314.424619 268.22324 
L 314.988155 250.621906 
L 315.551691 253.683171 
L 316.115228 224.786781 
L 316.678764 250.955804 
L 317.2423 269.203617 
L 317.805836 270.580344 
L 318.369373 275.214625 
L 318.932909 249.017341 
L 319.496445 245.118767 
L 320.059981 257.147648 
L 320.623518 252.048507 
L 321.187054 243.493166 
L 321.75059 267.105417 
L 322.314126 265.088438 
L 322.877663 257.59066 
L 323.441199 253.145509 
L 324.004735 276.983895 
L 324.568271 252.364198 
L 325.131808 261.522117 
L 325.695344 213.955437 
L 326.25888 259.322405 
L 326.822417 253.910098 
L 327.385953 266.549025 
L 327.949489 271.896142 
L 328.513025 259.041622 
L 329.076562 269.774061 
L 329.640098 252.865405 
L 330.203634 252.273742 
L 330.76717 268.815004 
L 331.330707 241.810661 
L 331.894243 275.281423 
L 332.457779 258.019825 
L 333.021315 280.167113 
L 333.584852 178.997937 
L 334.148388 219.057923 
L 335.27546 263.932653 
L 335.838997 253.845017 
L 336.402533 252.05321 
L 336.966069 261.004493 
L 337.529606 275.764057 
L 338.093142 249.337312 
L 338.656678 257.183947 
L 339.220214 241.736946 
L 340.347287 246.169332 
L 340.910823 258.61901 
L 341.474359 258.172105 
L 342.037896 229.219072 
L 342.601432 264.987246 
L 343.164968 286.247202 
L 343.728504 242.735396 
L 344.292041 260.879696 
L 344.855577 290.26922 
L 345.419113 238.127734 
L 345.982649 281.103243 
L 346.546186 217.751447 
L 347.109722 280.891824 
L 347.673258 256.493603 
L 348.236795 251.167313 
L 348.800331 276.293666 
L 349.363867 205.636309 
L 349.927403 261.173928 
L 350.49094 242.241653 
L 351.054476 264.419792 
L 351.618012 256.409005 
L 352.181548 270.207805 
L 352.745085 277.478011 
L 353.308621 280.890659 
L 353.872157 241.058319 
L 354.435693 270.901955 
L 354.99923 247.477091 
L 355.562766 241.822062 
L 356.126302 260.431762 
L 356.689838 258.155524 
L 357.253375 271.391035 
L 357.816911 265.230523 
L 358.380447 255.776893 
L 358.943984 222.388979 
L 359.50752 234.870151 
L 360.071056 274.689732 
L 360.634592 256.138381 
L 361.198129 255.803414 
L 361.761665 250.629343 
L 362.325201 255.765223 
L 362.888737 248.51741 
L 363.452274 268.380941 
L 364.01581 276.80238 
L 364.579346 244.194481 
L 365.142882 271.22544 
L 365.706419 284.409427 
L 366.269955 208.094226 
L 366.833491 276.243059 
L 367.397027 226.358769 
L 367.960564 281.712539 
L 368.5241 278.058875 
L 369.087636 269.648907 
L 369.651173 266.857951 
L 370.214709 266.589527 
L 370.778245 277.405586 
L 371.341781 273.923987 
L 371.905318 172.713507 
L 372.468854 240.340101 
L 373.595926 266.387964 
L 374.159463 240.669102 
L 374.722999 278.657727 
L 375.286535 256.392129 
L 375.850071 268.515205 
L 376.413608 254.248522 
L 376.977144 276.981799 
L 377.54068 229.125895 
L 378.104216 247.462458 
L 378.667753 241.44534 
L 379.231289 267.448896 
L 379.794825 252.277638 
L 380.358362 266.342313 
L 380.921898 248.341972 
L 381.485434 274.289321 
L 382.04897 192.768614 
L 382.612507 289.228074 
L 383.176043 246.714914 
L 383.739579 250.522762 
L 384.303115 273.808266 
L 384.866652 251.149986 
L 385.430188 256.69694 
L 385.993724 218.258298 
L 386.55726 275.578175 
L 387.120797 256.743068 
L 387.684333 261.734751 
L 388.247869 281.839762 
L 388.811405 233.572133 
L 389.374942 274.007504 
L 389.938478 257.500223 
L 390.502014 263.046763 
L 391.065551 274.038711 
L 391.629087 256.131004 
L 392.192623 267.231474 
L 392.756159 238.079496 
L 393.319696 268.727564 
L 393.883232 277.536844 
L 394.446768 246.538219 
L 395.010304 253.501088 
L 395.573841 276.027731 
L 396.137377 270.363964 
L 396.700913 267.764983 
L 397.264449 276.129582 
L 397.827986 266.4701 
L 398.391522 230.713012 
L 398.955058 265.980472 
L 399.518595 252.388976 
L 400.082131 260.087195 
L 400.645667 246.358771 
L 401.209203 263.903106 
L 401.77274 222.919156 
L 402.336276 263.115137 
L 402.899812 273.586713 
L 403.463348 277.003264 
L 404.026885 257.618598 
L 404.590421 248.768598 
L 405.153957 270.951876 
L 405.717493 263.664924 
L 406.28103 273.339701 
L 406.844566 268.333556 
L 407.408102 255.541799 
L 407.971638 250.987495 
L 408.535175 282.725239 
L 409.098711 264.143917 
L 409.662247 265.204331 
L 410.225784 252.107555 
L 410.78932 257.914823 
L 411.352856 256.468221 
L 411.916392 262.046069 
L 412.479929 252.466278 
L 413.043465 255.267466 
L 413.607001 261.696107 
L 414.170537 246.825458 
L 414.734074 267.356608 
L 415.29761 273.793049 
L 415.861146 277.642945 
L 416.424682 250.976739 
L 416.988219 268.859057 
L 418.115291 235.208335 
L 418.678827 238.70185 
L 419.242364 245.200792 
L 419.8059 259.83288 
L 420.369436 239.880682 
L 420.932973 267.109918 
L 421.496509 258.773319 
L 422.060045 277.886732 
L 422.623581 269.499694 
L 423.187118 239.146729 
L 423.750654 251.596761 
L 424.31419 274.35837 
L 424.877726 255.44761 
L 425.441263 265.247191 
L 426.004799 265.855846 
L 426.568335 272.806893 
L 427.131871 251.695931 
L 427.695408 241.067591 
L 428.82248 213.486344 
L 429.386016 277.857463 
L 429.949553 247.172431 
L 430.513089 261.324391 
L 431.076625 264.930653 
L 431.640162 261.232698 
L 432.767234 255.744232 
L 433.33077 260.503918 
L 433.894307 280.334515 
L 434.457843 279.979068 
L 435.021379 276.682625 
L 435.584915 270.153413 
L 436.148452 255.752005 
L 436.711988 259.218545 
L 437.275524 261.739286 
L 437.83906 244.07095 
L 438.402597 277.301609 
L 438.966133 244.17612 
L 439.529669 267.098638 
L 440.093205 237.980346 
L 440.656742 240.011611 
L 441.220278 244.212587 
L 441.783814 209.322991 
L 442.347351 190.725652 
L 442.910887 253.815268 
L 443.474423 243.001983 
L 444.037959 276.894749 
L 444.601496 254.962887 
L 445.165032 266.638675 
L 446.292104 252.480897 
L 446.855641 283.172487 
L 447.982713 234.80646 
L 449.109786 263.147005 
L 449.673322 253.962831 
L 450.236858 281.268422 
L 450.800394 267.107479 
L 451.363931 245.311263 
L 451.927467 247.013218 
L 452.491003 242.50644 
L 453.05454 241.379916 
L 453.618076 259.837428 
L 454.181612 246.661616 
L 454.745148 282.299103 
L 455.308685 264.102438 
L 455.872221 223.753066 
L 456.435757 262.871036 
L 456.999293 250.473436 
L 457.56283 284.320887 
L 458.126366 246.331749 
L 458.689902 223.825605 
L 459.253438 277.627939 
L 459.816975 262.074115 
L 460.380511 253.726632 
L 460.944047 261.955552 
L 461.507583 278.98095 
L 462.07112 264.133729 
L 462.634656 241.959944 
L 463.198192 249.755701 
L 463.761729 275.428858 
L 464.325265 264.251052 
L 464.888801 265.609461 
L 465.452337 239.367671 
L 466.015874 250.305865 
L 466.57941 253.025519 
L 467.142946 278.923696 
L 467.706482 259.531784 
L 468.270019 252.300548 
L 468.833555 213.955255 
L 469.397091 271.11991 
L 469.960627 272.217155 
L 470.524164 259.813531 
L 471.0877 281.462678 
L 471.651236 267.558456 
L 472.214772 264.045365 
L 472.778309 263.518429 
L 473.341845 240.651721 
L 473.905381 270.480223 
L 474.468918 247.04118 
L 475.032454 258.382243 
L 475.59599 279.55401 
L 476.159526 259.357448 
L 476.723063 264.031864 
L 477.286599 267.766263 
L 477.850135 234.157052 
L 478.413671 286.318676 
L 478.977208 283.018229 
L 479.540744 272.227138 
L 480.10428 257.209124 
L 480.667816 257.555778 
L 481.231353 241.346929 
L 481.794889 270.943011 
L 482.358425 273.093293 
L 482.921962 272.778176 
L 483.485498 277.572821 
L 484.049034 253.801139 
L 484.61257 272.522574 
L 485.176107 281.854143 
L 485.739643 271.813613 
L 486.303179 259.432163 
L 486.866715 267.892375 
L 487.430252 264.085074 
L 487.993788 271.167282 
L 488.557324 266.054402 
L 489.12086 271.048379 
L 489.684397 272.480453 
L 490.247933 271.881022 
L 490.811469 201.306749 
L 491.375005 244.878315 
L 491.938542 266.797922 
L 492.502078 249.644773 
L 493.629151 268.404083 
L 494.192687 258.06328 
L 494.756223 276.797244 
L 495.319759 278.746168 
L 495.883296 281.924596 
L 496.446832 265.141044 
L 497.573904 276.728404 
L 498.137441 287.296074 
L 498.700977 280.118431 
L 499.264513 196.179874 
L 499.828049 257.611457 
L 500.391586 272.433437 
L 500.955122 268.436643 
L 501.518658 261.040413 
L 502.082194 278.844042 
L 502.645731 266.445853 
L 503.209267 275.038465 
L 503.772803 260.478449 
L 504.33634 276.550477 
L 504.899876 237.591014 
L 505.463412 250.517011 
L 506.026948 253.362427 
L 506.590485 263.595207 
L 507.154021 243.463148 
L 507.717557 271.149904 
L 508.281093 258.737298 
L 508.84463 264.975075 
L 509.408166 251.744613 
L 509.971702 246.175009 
L 510.535238 234.79477 
L 511.098775 263.92402 
L 511.662311 268.571737 
L 512.225847 243.502397 
L 512.789383 263.011183 
L 513.35292 269.396476 
L 513.916456 281.62961 
L 514.479992 233.562318 
L 515.043529 250.373949 
L 515.607065 195.733906 
L 516.170601 223.816877 
L 516.734137 265.172771 
L 517.297674 282.373431 
L 517.86121 251.479316 
L 518.424746 280.03085 
L 518.988282 271.821561 
L 519.551819 246.787755 
L 520.115355 267.062815 
L 520.678891 234.528345 
L 521.242427 269.334082 
L 521.805964 254.61702 
L 522.3695 249.985948 
L 522.933036 250.375051 
L 523.496572 233.059256 
L 524.060109 251.967503 
L 524.623645 242.135032 
L 525.187181 271.06928 
L 525.750718 266.821671 
L 526.314254 270.434504 
L 526.87779 253.479341 
L 527.441326 265.271522 
L 528.004863 267.601988 
L 528.568399 281.000028 
L 529.131935 266.532326 
L 529.695471 275.147719 
L 530.259008 259.920162 
L 530.822544 272.572095 
L 531.38608 259.376064 
L 531.949616 259.929201 
L 532.513153 255.836583 
L 533.076689 249.261756 
L 533.640225 247.429921 
L 534.203761 267.426328 
L 534.767298 259.455197 
L 535.330834 277.487202 
L 535.89437 270.893184 
L 536.457907 277.060976 
L 537.021443 256.358523 
L 537.584979 273.254054 
L 538.148515 274.950678 
L 538.712052 264.449158 
L 539.275588 263.813482 
L 540.40266 258.324233 
L 540.966197 266.014091 
L 541.529733 240.222488 
L 542.093269 270.617662 
L 542.656805 252.645129 
L 543.220342 280.57094 
L 543.783878 207.965206 
L 544.347414 261.245849 
L 544.91095 251.647021 
L 545.474487 237.49314 
L 546.038023 240.515693 
L 546.601559 267.936686 
L 547.165096 258.069928 
L 547.728632 281.16735 
L 548.292168 252.648011 
L 548.855704 259.302968 
L 549.419241 263.484646 
L 549.982777 270.02231 
L 550.546313 257.590337 
L 551.673386 280.790074 
L 552.236922 254.31668 
L 552.800458 269.556226 
L 553.363994 281.767751 
L 553.927531 257.201969 
L 554.491067 282.140666 
L 555.054603 286.803893 
L 555.61814 239.171937 
L 556.181676 251.747502 
L 556.745212 279.555489 
L 557.308748 269.882002 
L 557.872285 272.581864 
L 558.435821 258.263529 
L 558.999357 225.864945 
L 559.562893 280.648218 
L 560.12643 255.624678 
L 560.689966 266.923106 
L 561.253502 257.975034 
L 561.817038 256.451516 
L 562.944111 281.345381 
L 563.507647 248.129737 
L 564.071183 264.299499 
L 564.63472 245.828742 
L 565.198256 252.50425 
L 565.761792 274.536129 
L 566.325329 276.703509 
L 567.452401 253.791606 
L 568.015937 271.827974 
L 568.579474 275.982657 
L 569.14301 251.054645 
L 569.706546 274.701187 
L 570.270082 267.250155 
L 570.833619 280.93889 
L 571.397155 241.903872 
L 571.960691 281.225844 
L 572.524227 274.348054 
L 573.087764 282.200578 
L 573.6513 278.533342 
L 574.214836 276.95506 
L 574.778372 254.027832 
L 575.341909 278.774312 
L 575.905445 263.67564 
L 576.468981 266.028344 
L 577.032518 285.757566 
L 577.596054 274.164423 
L 578.15959 268.984268 
L 578.723126 266.299493 
L 579.286663 270.50355 
L 579.850199 258.265101 
L 580.413735 278.040782 
L 580.977271 268.720033 
L 581.540808 277.412728 
L 582.104344 251.812025 
L 582.66788 272.342466 
L 583.231416 260.647605 
L 583.794953 268.459002 
L 584.358489 267.201725 
L 584.922025 271.903338 
L 585.485561 247.296997 
L 586.049098 279.297307 
L 586.612634 268.102826 
L 587.17617 264.901294 
L 587.739707 260.53788 
L 588.303243 274.934611 
L 588.866779 250.220628 
L 589.430315 265.896264 
L 589.993852 253.521337 
L 590.557388 267.266931 
L 591.120924 274.68302 
L 591.68446 269.193244 
L 592.247997 271.143082 
L 592.811533 279.591321 
L 593.375069 281.851093 
L 593.938605 263.914581 
L 594.502142 280.495556 
L 595.065678 259.067501 
L 595.629214 290.243159 
L 596.19275 261.504021 
L 596.756287 281.859467 
L 597.319823 259.659665 
L 597.883359 269.484622 
L 598.446896 245.70253 
L 599.010432 264.508189 
L 599.573968 273.231971 
L 600.137504 270.670596 
L 600.701041 246.612821 
L 601.264577 255.632269 
L 601.828113 246.280521 
L 602.391649 270.064048 
L 602.955186 281.687372 
L 603.518722 267.227618 
L 604.082258 283.295271 
L 604.645794 250.308109 
L 605.209331 265.822193 
L 605.772867 272.484897 
L 606.336403 264.777917 
L 606.899939 282.620801 
L 607.463476 268.216296 
L 608.027012 268.111731 
L 608.590548 249.708934 
L 609.154085 270.939779 
L 609.717621 236.975117 
L 610.281157 268.610717 
L 610.844693 264.569673 
L 611.40823 271.700572 
L 611.971766 257.075001 
L 612.535302 235.496287 
L 613.098838 252.650651 
L 614.225911 265.256573 
L 614.789447 246.051235 
L 615.352983 268.432434 
L 615.91652 236.186724 
L 616.480056 266.70288 
L 617.043592 267.201154 
L 617.607128 258.776688 
L 618.170665 245.682542 
L 618.734201 280.532608 
L 619.297737 274.924131 
L 619.861274 243.138515 
L 620.42481 274.531836 
L 620.988346 254.123482 
L 621.551882 276.707883 
L 622.115419 270.397577 
L 622.678955 281.478396 
L 623.242491 273.741757 
L 623.806027 236.162377 
L 624.369564 262.190965 
L 624.9331 249.47952 
L 625.496636 263.501593 
L 626.060172 265.816667 
L 626.623709 251.969371 
L 627.187245 276.249136 
L 627.750781 256.73593 
L 628.314317 247.41592 
L 628.877854 248.534267 
L 629.44139 270.375967 
L 630.004926 241.437587 
L 630.568463 260.869843 
L 631.131999 275.744271 
L 631.695535 234.596886 
L 632.259071 266.128553 
L 632.822608 245.932608 
L 633.386144 265.260591 
L 633.94968 280.195881 
L 634.513216 263.703088 
L 635.076753 267.039207 
L 635.640289 245.245301 
L 636.203825 272.706376 
L 636.767361 291.1201 
L 637.330898 276.036592 
L 637.894434 274.706743 
L 638.45797 282.091672 
L 639.021507 276.291704 
L 639.585043 282.966949 
L 640.148579 248.719198 
L 640.712115 283.160985 
L 641.275652 282.59205 
L 641.839188 264.481537 
L 642.402724 280.187241 
L 642.96626 285.159625 
L 643.529797 285.156397 
L 644.093333 263.43111 
L 644.656869 277.167113 
L 645.220405 270.129321 
L 645.783942 265.993257 
L 646.347478 243.99694 
L 646.911014 265.10075 
L 647.47455 266.77481 
L 648.038087 275.957661 
L 648.601623 241.083856 
L 649.165159 271.209705 
L 649.728696 279.013652 
L 650.292232 269.164768 
L 650.855768 254.032723 
L 651.419304 279.32885 
L 651.982841 273.543453 
L 652.546377 281.472752 
L 653.109913 278.638929 
L 654.236986 234.650909 
L 654.800522 273.919436 
L 655.364058 276.495786 
L 655.927594 244.591506 
L 656.491131 245.090899 
L 657.054667 260.618769 
L 657.618203 259.507752 
L 658.181739 267.278204 
L 658.745276 238.133129 
L 659.308812 275.380929 
L 659.872348 249.550991 
L 660.435885 262.030845 
L 660.999421 277.058493 
L 661.562957 263.657769 
L 662.126493 276.136166 
L 662.69003 281.892831 
L 663.253566 274.299281 
L 663.817102 271.471747 
L 664.380638 285.934611 
L 664.944175 281.86106 
L 665.507711 243.533792 
L 666.071247 268.53703 
L 666.634783 252.209446 
L 667.19832 259.758026 
L 667.761856 275.889368 
L 668.325392 209.443647 
L 668.888928 273.558979 
L 669.452465 284.898793 
L 670.016001 263.989652 
L 670.579537 264.328704 
L 671.143074 252.41335 
L 671.70661 275.533638 
L 672.270146 268.541236 
L 672.833682 267.729665 
L 673.397219 280.546212 
L 673.960755 274.422951 
L 674.524291 257.209081 
L 675.087827 199.87828 
L 675.651364 281.561119 
L 675.651364 281.561119 
" clip-path="url(#pd44522614d)" style="fill: none; stroke: #1f77b4; stroke-width: 1.5; stroke-linecap: square"/>
   </g>
   <g id="line2d_16">
    <path d="M 118.313999 213.137021 
L 129.584724 218.901112 
L 140.85545 212.987012 
L 152.126175 224.781655 
L 163.3969 206.257184 
L 174.667625 209.797697 
L 185.938351 229.083397 
L 197.209076 225.828274 
L 208.479801 224.205581 
L 219.750526 217.044663 
L 231.021252 230.644672 
L 242.291977 236.226891 
L 253.562702 231.449647 
L 264.833428 243.677172 
L 276.104153 247.658187 
L 287.374878 246.505418 
L 298.645603 253.387438 
L 309.916329 256.246581 
L 321.187054 254.916392 
L 332.457779 254.805514 
L 343.728504 256.567158 
L 354.99923 255.132559 
L 366.269955 261.837993 
L 377.54068 250.823881 
L 388.811405 259.145932 
L 400.082131 259.509527 
L 411.352856 261.925114 
L 422.623581 256.435537 
L 433.894307 258.929891 
L 445.165032 251.032369 
L 456.435757 256.107993 
L 467.706482 259.41423 
L 478.977208 263.364316 
L 490.247933 263.668947 
L 501.518658 264.03567 
L 512.789383 253.17939 
L 524.060109 259.695794 
L 535.330834 264.211306 
L 546.601559 258.473494 
L 557.872285 264.870501 
L 569.14301 266.942205 
L 580.413735 267.515861 
L 591.68446 269.911256 
L 602.955186 265.319972 
L 614.225911 258.79753 
L 625.496636 260.242929 
L 636.767361 268.936015 
L 648.038087 270.327146 
L 659.308812 263.625138 
L 670.579537 261.792201 
" clip-path="url(#pd44522614d)" style="fill: none; stroke: #ff0000; stroke-width: 1.5; stroke-linecap: square"/>
   </g>
   <g id="patch_3">
    <path d="M 84.53 304 
L 84.53 20.642208 
" style="fill: none; stroke: #000000; stroke-width: 0.8; stroke-linejoin: miter; stroke-linecap: square"/>
   </g>
   <g id="patch_4">
    <path d="M 703.8 304 
L 703.8 20.642208 
" style="fill: none; stroke: #000000; stroke-width: 0.8; stroke-linejoin: miter; stroke-linecap: square"/>
   </g>
   <g id="patch_5">
    <path d="M 84.53 304 
L 703.8 304 
" style="fill: none; stroke: #000000; stroke-width: 0.8; stroke-linejoin: miter; stroke-linecap: square"/>
   </g>
   <g id="patch_6">
    <path d="M 84.53 20.642208 
L 703.8 20.642208 
" style="fill: none; stroke: #000000; stroke-width: 0.8; stroke-linejoin: miter; stroke-linecap: square"/>
   </g>
  </g>
 </g>
 <defs>
  <clipPath id="pd44522614d">
   <rect x="84.53" y="20.642208" width="619.27" height="283.357792"/>
  </clipPath>
 </defs>
</svg>
