<?xml version="1.0" encoding="utf-8" standalone="no"?>
<!DOCTYPE svg PUBLIC "-//W3C//DTD SVG 1.1//EN"
  "http://www.w3.org/Graphics/SVG/1.1/DTD/svg11.dtd">
<svg xmlns:xlink="http://www.w3.org/1999/xlink" width="720pt" height="360pt" viewBox="0 0 720 360" xmlns="http://www.w3.org/2000/svg" version="1.1">
 <metadata>
  <rdf:RDF xmlns:dc="http://purl.org/dc/elements/1.1/" xmlns:cc="http://creativecommons.org/ns#" xmlns:rdf="http://www.w3.org/1999/02/22-rdf-syntax-ns#">
   <cc:Work>
    <dc:type rdf:resource="http://purl.org/dc/dcmitype/StillImage"/>
    <dc:date>2024-04-23T19:54:45.318363</dc:date>
    <dc:format>image/svg+xml</dc:format>
    <dc:creator>
     <cc:Agent>
      <dc:title>Matplotlib v3.7.5, https://matplotlib.org/</dc:title>
     </cc:Agent>
    </dc:creator>
   </cc:Work>
  </rdf:RDF>
 </metadata>
 <defs>
  <style type="text/css">*{stroke-linejoin: round; stroke-linecap: butt}</style>
 </defs>
 <g id="figure_1">
  <g id="patch_1">
   <path d="M 0 360 
L 720 360 
L 720 0 
L 0 0 
z
" style="fill: #ffffff"/>
  </g>
  <g id="axes_1">
   <g id="patch_2">
    <path d="M 94.07 304 
L 703.8 304 
L 703.8 16.2 
L 94.07 16.2 
z
" style="fill: #ffffff"/>
   </g>
   <g id="matplotlib.axis_1">
    <g id="xtick_1">
     <g id="line2d_1">
      <defs>
       <path id="m5fa277a388" d="M 0 0 
L 0 3.5 
" style="stroke: #000000; stroke-width: 0.8"/>
      </defs>
      <g>
       <use xlink:href="#m5fa277a388" x="121.230145" y="304" style="stroke: #000000; stroke-width: 0.8"/>
      </g>
     </g>
     <g id="text_1">
      <text style="font: 15px 'DejaVu Sans', 'Bitstream Vera Sans', 'Computer Modern Sans Serif', 'Lucida Grande', 'Verdana', 'Geneva', 'Lucid', 'Arial', 'Helvetica', 'Avant Garde', sans-serif; text-anchor: middle" x="121.230145" y="322.397656" transform="rotate(-0 121.230145 322.397656)">0</text>
     </g>
    </g>
    <g id="xtick_2">
     <g id="line2d_2">
      <g>
       <use xlink:href="#m5fa277a388" x="190.587002" y="304" style="stroke: #000000; stroke-width: 0.8"/>
      </g>
     </g>
     <g id="text_2">
      <text style="font: 15px 'DejaVu Sans', 'Bitstream Vera Sans', 'Computer Modern Sans Serif', 'Lucida Grande', 'Verdana', 'Geneva', 'Lucid', 'Arial', 'Helvetica', 'Avant Garde', sans-serif; text-anchor: middle" x="190.587002" y="322.397656" transform="rotate(-0 190.587002 322.397656)">2500</text>
     </g>
    </g>
    <g id="xtick_3">
     <g id="line2d_3">
      <g>
       <use xlink:href="#m5fa277a388" x="259.943859" y="304" style="stroke: #000000; stroke-width: 0.8"/>
      </g>
     </g>
     <g id="text_3">
      <text style="font: 15px 'DejaVu Sans', 'Bitstream Vera Sans', 'Computer Modern Sans Serif', 'Lucida Grande', 'Verdana', 'Geneva', 'Lucid', 'Arial', 'Helvetica', 'Avant Garde', sans-serif; text-anchor: middle" x="259.943859" y="322.397656" transform="rotate(-0 259.943859 322.397656)">5000</text>
     </g>
    </g>
    <g id="xtick_4">
     <g id="line2d_4">
      <g>
       <use xlink:href="#m5fa277a388" x="329.300716" y="304" style="stroke: #000000; stroke-width: 0.8"/>
      </g>
     </g>
     <g id="text_4">
      <text style="font: 15px 'DejaVu Sans', 'Bitstream Vera Sans', 'Computer Modern Sans Serif', 'Lucida Grande', 'Verdana', 'Geneva', 'Lucid', 'Arial', 'Helvetica', 'Avant Garde', sans-serif; text-anchor: middle" x="329.300716" y="322.397656" transform="rotate(-0 329.300716 322.397656)">7500</text>
     </g>
    </g>
    <g id="xtick_5">
     <g id="line2d_5">
      <g>
       <use xlink:href="#m5fa277a388" x="398.657573" y="304" style="stroke: #000000; stroke-width: 0.8"/>
      </g>
     </g>
     <g id="text_5">
      <text style="font: 15px 'DejaVu Sans', 'Bitstream Vera Sans', 'Computer Modern Sans Serif', 'Lucida Grande', 'Verdana', 'Geneva', 'Lucid', 'Arial', 'Helvetica', 'Avant Garde', sans-serif; text-anchor: middle" x="398.657573" y="322.397656" transform="rotate(-0 398.657573 322.397656)">10000</text>
     </g>
    </g>
    <g id="xtick_6">
     <g id="line2d_6">
      <g>
       <use xlink:href="#m5fa277a388" x="468.014429" y="304" style="stroke: #000000; stroke-width: 0.8"/>
      </g>
     </g>
     <g id="text_6">
      <text style="font: 15px 'DejaVu Sans', 'Bitstream Vera Sans', 'Computer Modern Sans Serif', 'Lucida Grande', 'Verdana', 'Geneva', 'Lucid', 'Arial', 'Helvetica', 'Avant Garde', sans-serif; text-anchor: middle" x="468.014429" y="322.397656" transform="rotate(-0 468.014429 322.397656)">12500</text>
     </g>
    </g>
    <g id="xtick_7">
     <g id="line2d_7">
      <g>
       <use xlink:href="#m5fa277a388" x="537.371286" y="304" style="stroke: #000000; stroke-width: 0.8"/>
      </g>
     </g>
     <g id="text_7">
      <text style="font: 15px 'DejaVu Sans', 'Bitstream Vera Sans', 'Computer Modern Sans Serif', 'Lucida Grande', 'Verdana', 'Geneva', 'Lucid', 'Arial', 'Helvetica', 'Avant Garde', sans-serif; text-anchor: middle" x="537.371286" y="322.397656" transform="rotate(-0 537.371286 322.397656)">15000</text>
     </g>
    </g>
    <g id="xtick_8">
     <g id="line2d_8">
      <g>
       <use xlink:href="#m5fa277a388" x="606.728143" y="304" style="stroke: #000000; stroke-width: 0.8"/>
      </g>
     </g>
     <g id="text_8">
      <text style="font: 15px 'DejaVu Sans', 'Bitstream Vera Sans', 'Computer Modern Sans Serif', 'Lucida Grande', 'Verdana', 'Geneva', 'Lucid', 'Arial', 'Helvetica', 'Avant Garde', sans-serif; text-anchor: middle" x="606.728143" y="322.397656" transform="rotate(-0 606.728143 322.397656)">17500</text>
     </g>
    </g>
    <g id="xtick_9">
     <g id="line2d_9">
      <g>
       <use xlink:href="#m5fa277a388" x="676.085" y="304" style="stroke: #000000; stroke-width: 0.8"/>
      </g>
     </g>
     <g id="text_9">
      <text style="font: 15px 'DejaVu Sans', 'Bitstream Vera Sans', 'Computer Modern Sans Serif', 'Lucida Grande', 'Verdana', 'Geneva', 'Lucid', 'Arial', 'Helvetica', 'Avant Garde', sans-serif; text-anchor: middle" x="676.085" y="322.397656" transform="rotate(-0 676.085 322.397656)">20000</text>
     </g>
    </g>
    <g id="text_10">
     <text style="font: 15px 'DejaVu Sans', 'Bitstream Vera Sans', 'Computer Modern Sans Serif', 'Lucida Grande', 'Verdana', 'Geneva', 'Lucid', 'Arial', 'Helvetica', 'Avant Garde', sans-serif; text-anchor: middle" x="398.935" y="340.914844" transform="rotate(-0 398.935 340.914844)">Episodes</text>
    </g>
   </g>
   <g id="matplotlib.axis_2">
    <g id="ytick_1">
     <g id="line2d_10">
      <defs>
       <path id="m8c69044b94" d="M 0 0 
L -3.5 0 
" style="stroke: #000000; stroke-width: 0.8"/>
      </defs>
      <g>
       <use xlink:href="#m8c69044b94" x="94.07" y="302.230185" style="stroke: #000000; stroke-width: 0.8"/>
      </g>
     </g>
     <g id="text_11">
      <text style="font: 15px 'DejaVu Sans', 'Bitstream Vera Sans', 'Computer Modern Sans Serif', 'Lucida Grande', 'Verdana', 'Geneva', 'Lucid', 'Arial', 'Helvetica', 'Avant Garde', sans-serif; text-anchor: end" x="87.07" y="307.929013" transform="rotate(-0 87.07 307.929013)">0.0000</text>
     </g>
    </g>
    <g id="ytick_2">
     <g id="line2d_11">
      <g>
       <use xlink:href="#m8c69044b94" x="94.07" y="261.10133" style="stroke: #000000; stroke-width: 0.8"/>
      </g>
     </g>
     <g id="text_12">
      <text style="font: 15px 'DejaVu Sans', 'Bitstream Vera Sans', 'Computer Modern Sans Serif', 'Lucida Grande', 'Verdana', 'Geneva', 'Lucid', 'Arial', 'Helvetica', 'Avant Garde', sans-serif; text-anchor: end" x="87.07" y="266.800158" transform="rotate(-0 87.07 266.800158)">0.0005</text>
     </g>
    </g>
    <g id="ytick_3">
     <g id="line2d_12">
      <g>
       <use xlink:href="#m8c69044b94" x="94.07" y="219.972475" style="stroke: #000000; stroke-width: 0.8"/>
      </g>
     </g>
     <g id="text_13">
      <text style="font: 15px 'DejaVu Sans', 'Bitstream Vera Sans', 'Computer Modern Sans Serif', 'Lucida Grande', 'Verdana', 'Geneva', 'Lucid', 'Arial', 'Helvetica', 'Avant Garde', sans-serif; text-anchor: end" x="87.07" y="225.671303" transform="rotate(-0 87.07 225.671303)">0.0010</text>
     </g>
    </g>
    <g id="ytick_4">
     <g id="line2d_13">
      <g>
       <use xlink:href="#m8c69044b94" x="94.07" y="178.84362" style="stroke: #000000; stroke-width: 0.8"/>
      </g>
     </g>
     <g id="text_14">
      <text style="font: 15px 'DejaVu Sans', 'Bitstream Vera Sans', 'Computer Modern Sans Serif', 'Lucida Grande', 'Verdana', 'Geneva', 'Lucid', 'Arial', 'Helvetica', 'Avant Garde', sans-serif; text-anchor: end" x="87.07" y="184.542448" transform="rotate(-0 87.07 184.542448)">0.0015</text>
     </g>
    </g>
    <g id="ytick_5">
     <g id="line2d_14">
      <g>
       <use xlink:href="#m8c69044b94" x="94.07" y="137.714765" style="stroke: #000000; stroke-width: 0.8"/>
      </g>
     </g>
     <g id="text_15">
      <text style="font: 15px 'DejaVu Sans', 'Bitstream Vera Sans', 'Computer Modern Sans Serif', 'Lucida Grande', 'Verdana', 'Geneva', 'Lucid', 'Arial', 'Helvetica', 'Avant Garde', sans-serif; text-anchor: end" x="87.07" y="143.413593" transform="rotate(-0 87.07 143.413593)">0.0020</text>
     </g>
    </g>
    <g id="ytick_6">
     <g id="line2d_15">
      <g>
       <use xlink:href="#m8c69044b94" x="94.07" y="96.58591" style="stroke: #000000; stroke-width: 0.8"/>
      </g>
     </g>
     <g id="text_16">
      <text style="font: 15px 'DejaVu Sans', 'Bitstream Vera Sans', 'Computer Modern Sans Serif', 'Lucida Grande', 'Verdana', 'Geneva', 'Lucid', 'Arial', 'Helvetica', 'Avant Garde', sans-serif; text-anchor: end" x="87.07" y="102.284738" transform="rotate(-0 87.07 102.284738)">0.0025</text>
     </g>
    </g>
    <g id="ytick_7">
     <g id="line2d_16">
      <g>
       <use xlink:href="#m8c69044b94" x="94.07" y="55.457055" style="stroke: #000000; stroke-width: 0.8"/>
      </g>
     </g>
     <g id="text_17">
      <text style="font: 15px 'DejaVu Sans', 'Bitstream Vera Sans', 'Computer Modern Sans Serif', 'Lucida Grande', 'Verdana', 'Geneva', 'Lucid', 'Arial', 'Helvetica', 'Avant Garde', sans-serif; text-anchor: end" x="87.07" y="61.155883" transform="rotate(-0 87.07 61.155883)">0.0030</text>
     </g>
    </g>
    <g id="text_18">
     <text style="font: 15px 'DejaVu Sans', 'Bitstream Vera Sans', 'Computer Modern Sans Serif', 'Lucida Grande', 'Verdana', 'Geneva', 'Lucid', 'Arial', 'Helvetica', 'Avant Garde', sans-serif; text-anchor: middle" x="27.464531" y="160.1" transform="rotate(-90 27.464531 160.1)">Loss</text>
    </g>
   </g>
   <g id="line2d_17">
    <path d="M 121.785 202.420745 
L 122.339855 184.401975 
L 122.89471 201.730684 
L 123.449565 226.219455 
L 124.004419 208.525577 
L 124.559274 177.945231 
L 125.114129 237.028517 
L 126.223839 171.272577 
L 126.778694 194.760482 
L 127.333549 204.187364 
L 127.888403 182.427497 
L 128.443258 167.256646 
L 129.552968 191.993375 
L 130.107823 188.482323 
L 130.662678 207.918197 
L 131.217533 185.464448 
L 131.772387 222.246119 
L 132.327242 201.48954 
L 132.882097 144.120556 
L 133.436952 193.185049 
L 133.991807 205.590113 
L 134.546662 210.448737 
L 135.101517 175.207245 
L 135.656371 223.282028 
L 136.211226 224.264039 
L 136.766081 195.184482 
L 137.320936 105.126303 
L 137.875791 170.758563 
L 138.430646 161.199694 
L 138.985501 221.886553 
L 139.540355 165.350599 
L 140.09521 176.626532 
L 140.650065 191.591832 
L 141.20492 185.288076 
L 141.759775 180.686033 
L 142.31463 210.985542 
L 142.869484 161.281359 
L 143.424339 198.80855 
L 144.534049 175.820515 
L 145.088904 172.349232 
L 145.643759 167.845153 
L 146.198614 179.161678 
L 146.753468 124.625512 
L 147.308323 241.854903 
L 147.863178 229.808251 
L 148.418033 154.728376 
L 148.972888 192.242592 
L 149.527743 189.948073 
L 150.082598 130.457695 
L 150.637452 206.896604 
L 151.192307 157.736609 
L 151.747162 203.405269 
L 152.302017 199.810072 
L 152.856872 183.362896 
L 153.411727 156.288345 
L 153.966582 185.53533 
L 154.521436 173.782347 
L 155.076291 164.55999 
L 155.631146 171.383889 
L 156.186001 195.964586 
L 156.740856 176.014421 
L 157.295711 185.270916 
L 157.850566 201.466988 
L 158.40542 208.077293 
L 158.960275 188.989203 
L 159.51513 192.811678 
L 160.069985 259.231191 
L 160.62484 236.827156 
L 161.179695 148.35077 
L 161.73455 169.196813 
L 162.289404 204.516608 
L 162.844259 218.10219 
L 163.399114 174.179102 
L 163.953969 174.016692 
L 164.508824 187.902933 
L 165.063679 191.520385 
L 165.618534 119.085973 
L 166.173388 174.433595 
L 166.728243 194.329139 
L 167.837953 206.600646 
L 168.947663 138.133959 
L 169.502518 191.330913 
L 170.057372 199.724424 
L 170.612227 191.634062 
L 171.167082 172.232108 
L 171.721937 215.165664 
L 172.276792 184.085783 
L 172.831647 217.023706 
L 173.386502 146.834267 
L 173.941356 203.483448 
L 174.496211 152.222992 
L 175.051066 199.281033 
L 175.605921 152.803771 
L 176.160776 192.179352 
L 176.715631 198.848329 
L 177.270485 159.082303 
L 177.82534 201.464614 
L 178.380195 227.808492 
L 178.93505 204.373073 
L 179.489905 236.763509 
L 180.04476 199.997782 
L 180.599615 208.566189 
L 181.154469 180.528814 
L 181.709324 209.408298 
L 182.264179 179.33353 
L 182.819034 99.189702 
L 183.373889 213.916036 
L 183.928744 204.066534 
L 184.483599 178.743176 
L 185.038453 242.475048 
L 185.593308 217.696893 
L 186.148163 114.9549 
L 186.703018 245.771544 
L 187.257873 220.579813 
L 187.812728 230.298928 
L 188.367583 226.757702 
L 188.922437 207.852294 
L 189.477292 194.673647 
L 190.032147 208.854946 
L 190.587002 219.826235 
L 191.141857 192.431011 
L 191.696712 200.52435 
L 192.251567 192.461903 
L 192.806421 220.05832 
L 193.361276 219.888824 
L 193.916131 218.022738 
L 194.470986 215.264287 
L 195.025841 220.606004 
L 195.580696 215.3076 
L 196.135551 239.756606 
L 196.690405 202.613922 
L 197.24526 207.460844 
L 197.800115 171.177468 
L 198.35497 229.122299 
L 199.46468 164.656029 
L 200.019535 168.98637 
L 200.574389 225.018378 
L 201.129244 188.805362 
L 201.684099 220.582303 
L 202.238954 209.125872 
L 202.793809 242.482709 
L 203.348664 135.755285 
L 203.903519 210.853479 
L 204.458373 195.051106 
L 205.013228 149.582634 
L 205.568083 243.268611 
L 206.122938 164.199145 
L 206.677793 239.512561 
L 207.232648 204.163903 
L 207.787503 217.471827 
L 208.342357 209.352671 
L 208.897212 237.620657 
L 209.452067 220.54194 
L 210.006922 241.937118 
L 210.561777 201.130026 
L 211.116632 234.786163 
L 211.671486 224.43296 
L 212.226341 238.673272 
L 212.781196 215.101648 
L 213.336051 197.466159 
L 215.000616 224.535659 
L 215.55547 232.196821 
L 216.110325 184.046732 
L 216.66518 226.30429 
L 217.220035 204.259922 
L 217.77489 192.916258 
L 218.329745 235.588881 
L 218.8846 239.467295 
L 219.439454 211.9659 
L 219.994309 194.729083 
L 220.549164 218.435638 
L 221.104019 228.100471 
L 221.658874 201.593996 
L 222.213729 165.08585 
L 222.768584 256.318283 
L 223.323438 232.632623 
L 223.878293 242.375065 
L 224.433148 246.10628 
L 224.988003 204.571154 
L 225.542858 236.695371 
L 226.097713 250.960048 
L 226.652568 250.885278 
L 227.207422 219.756301 
L 227.762277 232.66362 
L 228.317132 249.253595 
L 228.871987 231.246235 
L 229.426842 244.190494 
L 229.981697 224.174862 
L 230.536552 235.903555 
L 231.091406 236.443444 
L 231.646261 251.977978 
L 232.201116 256.701872 
L 232.755971 217.936592 
L 233.310826 244.792267 
L 233.865681 221.711991 
L 234.420536 204.652263 
L 234.97539 230.174047 
L 235.530245 241.085328 
L 236.639955 206.985316 
L 237.19481 238.128566 
L 237.749665 257.644433 
L 238.30452 228.593312 
L 238.859374 224.696331 
L 239.414229 238.011083 
L 239.969084 243.426736 
L 240.523939 244.046968 
L 241.078794 259.693317 
L 241.633649 235.210416 
L 242.188504 240.140788 
L 242.743358 277.403398 
L 243.298213 247.475335 
L 243.853068 226.548771 
L 244.407923 246.39099 
L 244.962778 236.282197 
L 245.517633 212.04497 
L 246.072487 237.230509 
L 246.627342 222.060219 
L 247.182197 248.524703 
L 247.737052 267.344915 
L 248.291907 251.513975 
L 248.846762 254.918656 
L 249.401617 223.155155 
L 249.956471 219.736565 
L 250.511326 242.056364 
L 251.066181 236.451741 
L 251.621036 252.89693 
L 252.175891 265.21797 
L 252.730746 187.908717 
L 253.285601 251.228513 
L 253.840455 257.16644 
L 254.39531 258.854287 
L 254.950165 249.291755 
L 255.50502 234.284761 
L 256.059875 254.968821 
L 256.61473 268.8995 
L 257.169585 270.421681 
L 257.724439 254.696607 
L 258.279294 250.588942 
L 258.834149 247.897213 
L 259.389004 261.780879 
L 259.943859 248.332699 
L 260.498714 207.973786 
L 261.053569 244.352252 
L 261.608423 245.780349 
L 262.163278 245.733742 
L 262.718133 251.675045 
L 263.272988 269.714384 
L 263.827843 248.303669 
L 264.382698 264.345007 
L 264.937553 224.918701 
L 265.492407 259.015907 
L 266.047262 233.08637 
L 266.602117 165.489107 
L 267.156972 253.385142 
L 267.711827 242.406598 
L 268.266682 247.719458 
L 268.821537 255.545318 
L 269.376391 246.676151 
L 269.931246 278.973158 
L 270.486101 244.236454 
L 271.040956 267.418644 
L 271.595811 243.028994 
L 272.150666 231.62277 
L 272.705521 268.627966 
L 273.260375 239.789802 
L 273.81523 230.535375 
L 274.370085 263.914527 
L 274.92494 256.651746 
L 275.479795 269.36012 
L 276.03465 262.416202 
L 276.589505 265.85033 
L 277.144359 228.98763 
L 277.699214 267.970682 
L 278.254069 271.90998 
L 278.808924 284.067836 
L 279.363779 271.184768 
L 279.918634 248.264642 
L 280.473488 260.369162 
L 281.028343 255.414974 
L 282.138053 277.093584 
L 282.692908 243.850285 
L 283.247763 270.844747 
L 283.802618 250.597331 
L 284.357472 272.782268 
L 284.912327 252.764719 
L 285.467182 274.250258 
L 286.576892 239.581082 
L 287.131747 290.918182 
L 287.686602 272.612982 
L 288.241456 268.281408 
L 288.796311 179.701289 
L 289.351166 268.110097 
L 289.906021 266.468936 
L 290.460876 275.706727 
L 291.015731 246.82413 
L 291.570586 267.778967 
L 292.12544 252.253424 
L 292.680295 263.632941 
L 293.23515 266.188274 
L 294.34486 217.717721 
L 295.45457 284.047275 
L 296.009424 272.761241 
L 296.564279 277.59287 
L 297.119134 269.8736 
L 297.673989 269.291783 
L 298.228844 289.493475 
L 298.783699 289.51772 
L 299.338554 260.015413 
L 299.893408 275.463112 
L 300.448263 219.214631 
L 301.003118 226.983994 
L 301.557973 264.26339 
L 302.112828 280.131629 
L 302.667683 282.135046 
L 303.777392 268.490305 
L 304.332247 257.524283 
L 304.887102 241.204856 
L 305.441957 254.543486 
L 306.551667 228.56706 
L 307.106522 198.675376 
L 307.661376 263.067384 
L 308.216231 209.944644 
L 308.771086 250.125648 
L 309.325941 264.576781 
L 309.880796 245.767986 
L 310.435651 253.36327 
L 310.990506 228.016513 
L 311.54536 248.224288 
L 312.100215 228.378708 
L 312.65507 245.895185 
L 313.209925 226.15283 
L 313.76478 215.482554 
L 314.319635 217.73468 
L 314.874489 278.124413 
L 315.429344 249.829949 
L 315.984199 249.500509 
L 316.539054 250.721442 
L 317.093909 232.365202 
L 317.648764 256.517303 
L 318.203619 217.243247 
L 318.758473 272.469622 
L 319.313328 248.833234 
L 319.868183 231.147079 
L 320.977893 271.938079 
L 321.532748 257.12883 
L 322.087603 231.337442 
L 322.642457 262.044019 
L 323.197312 257.096013 
L 323.752167 258.949947 
L 324.307022 256.43458 
L 324.861877 235.086737 
L 325.416732 257.841308 
L 325.971587 257.038441 
L 326.526441 231.008978 
L 327.081296 253.65036 
L 327.636151 231.900107 
L 328.191006 256.736762 
L 328.745861 231.412011 
L 329.300716 265.641308 
L 329.855571 278.1142 
L 330.410425 253.708142 
L 330.96528 276.439084 
L 331.520135 271.622916 
L 332.07499 242.341266 
L 332.629845 255.391704 
L 333.1847 250.564322 
L 333.739555 256.429313 
L 334.294409 268.017111 
L 334.849264 257.668316 
L 335.404119 269.961635 
L 335.958974 274.874898 
L 336.513829 286.221673 
L 337.068684 276.842605 
L 337.623539 231.89293 
L 338.178393 143.541693 
L 338.733248 264.349718 
L 339.288103 181.133867 
L 339.842958 258.726059 
L 340.397813 226.066531 
L 340.952668 264.128277 
L 341.507523 272.595224 
L 342.062377 239.720342 
L 342.617232 274.135453 
L 343.172087 257.411189 
L 343.726942 217.273622 
L 344.836652 282.828545 
L 345.391507 153.079465 
L 345.946361 281.256205 
L 346.501216 259.909296 
L 347.056071 257.015727 
L 347.610926 266.82122 
L 348.165781 227.623645 
L 348.720636 280.697064 
L 349.27549 205.413301 
L 349.830345 256.193431 
L 350.3852 263.784202 
L 350.940055 236.216137 
L 351.49491 258.789534 
L 352.049765 236.904464 
L 352.60462 280.161901 
L 353.159474 255.335732 
L 353.714329 274.947479 
L 354.269184 192.843911 
L 354.824039 267.015386 
L 355.378894 233.581505 
L 356.488604 265.471211 
L 357.043458 262.114247 
L 357.598313 252.454765 
L 358.153168 250.299932 
L 358.708023 215.267677 
L 359.262878 253.443005 
L 359.817733 282.798731 
L 360.372588 262.253562 
L 360.927442 197.951493 
L 361.482297 256.607653 
L 362.037152 264.294826 
L 362.592007 237.883276 
L 363.146862 249.031085 
L 363.701717 285.393749 
L 364.256572 240.123465 
L 364.811426 211.437187 
L 365.366281 251.914044 
L 365.921136 270.009654 
L 367.030846 257.091981 
L 367.585701 251.936442 
L 368.140556 264.681495 
L 368.69541 228.220373 
L 369.250265 261.701704 
L 369.80512 247.612115 
L 370.359975 246.265884 
L 370.91483 239.985283 
L 371.469685 244.530884 
L 372.02454 232.651354 
L 372.579394 237.941857 
L 373.134249 233.527453 
L 373.689104 252.515181 
L 374.243959 258.50151 
L 374.798814 267.252944 
L 375.353669 266.818043 
L 375.908524 274.515489 
L 376.463378 284.71196 
L 377.018233 266.584023 
L 377.573088 254.057357 
L 378.127943 253.86676 
L 378.682798 240.963324 
L 379.237653 253.408881 
L 379.792508 240.017918 
L 380.347362 251.047516 
L 380.902217 239.257502 
L 381.457072 230.408899 
L 382.011927 243.859286 
L 382.566782 217.810915 
L 383.121637 257.939089 
L 383.676491 259.436688 
L 384.231346 206.808006 
L 384.786201 290.466744 
L 385.341056 248.329572 
L 385.895911 261.725759 
L 386.450766 248.486754 
L 387.005621 205.26696 
L 387.560475 261.828299 
L 388.11533 275.651106 
L 388.670185 242.81655 
L 389.22504 257.280658 
L 389.779895 263.12931 
L 390.33475 238.254559 
L 390.889605 269.528359 
L 391.444459 245.162032 
L 391.999314 250.188615 
L 392.554169 279.830232 
L 393.109024 245.658187 
L 393.663879 243.195019 
L 394.218734 232.101693 
L 394.773589 246.701944 
L 395.328443 270.319897 
L 395.883298 230.958852 
L 396.438153 269.933249 
L 396.993008 268.35631 
L 397.547863 241.849497 
L 398.102718 269.672053 
L 398.657573 277.958661 
L 399.212427 227.660729 
L 399.767282 282.336461 
L 400.322137 274.430152 
L 400.876992 223.582133 
L 401.431847 264.497628 
L 401.986702 267.059678 
L 402.541557 247.509584 
L 403.096411 255.973483 
L 403.651266 242.037858 
L 404.206121 247.433042 
L 404.760976 226.915036 
L 405.870686 244.984794 
L 406.425541 240.454768 
L 406.980395 234.308155 
L 407.53525 252.370563 
L 408.090105 241.9041 
L 408.64496 253.622183 
L 409.199815 260.993961 
L 409.75467 209.152522 
L 410.309525 216.785885 
L 410.864379 199.530882 
L 411.419234 270.583536 
L 411.974089 276.634795 
L 412.528944 228.033443 
L 413.638654 242.823621 
L 414.193509 226.733695 
L 414.748363 265.992295 
L 415.303218 189.863057 
L 415.858073 245.171982 
L 416.412928 212.311022 
L 416.967783 165.651297 
L 417.522638 261.566341 
L 418.077492 230.762869 
L 418.632347 221.214993 
L 419.187202 254.239302 
L 419.742057 246.688925 
L 420.296912 250.852945 
L 420.851767 237.632589 
L 421.406622 200.212965 
L 421.961476 207.670004 
L 422.516331 218.241321 
L 423.071186 221.165763 
L 423.626041 205.835433 
L 424.180896 255.227494 
L 424.735751 260.16602 
L 425.290606 284.138298 
L 425.84546 220.468118 
L 426.400315 243.380096 
L 426.95517 243.000281 
L 427.510025 205.787706 
L 428.06488 235.943286 
L 428.619735 223.289301 
L 429.17459 258.558875 
L 429.729444 270.378163 
L 430.284299 246.546726 
L 430.839154 196.959998 
L 431.394009 257.827063 
L 431.948864 217.861534 
L 432.503719 243.674085 
L 433.058574 254.975787 
L 433.613428 237.119025 
L 434.168283 240.660395 
L 434.723138 197.637571 
L 435.277993 207.321053 
L 436.942558 281.446982 
L 437.497412 228.223068 
L 438.052267 219.669121 
L 438.607122 276.091078 
L 439.161977 214.842203 
L 439.716832 244.499321 
L 440.826542 260.936026 
L 441.381396 225.388364 
L 441.936251 215.088662 
L 442.491106 276.92455 
L 443.045961 258.176221 
L 443.600816 228.666143 
L 444.155671 209.265213 
L 444.710526 224.056023 
L 445.26538 156.300162 
L 445.820235 203.913269 
L 446.37509 212.557777 
L 446.929945 237.478683 
L 447.4848 234.207166 
L 448.039655 256.08321 
L 448.59451 228.650611 
L 449.149364 235.732139 
L 449.704219 246.527875 
L 450.259074 221.964708 
L 450.813929 273.167137 
L 451.368784 165.51343 
L 451.923639 196.188828 
L 452.478493 241.585777 
L 453.033348 247.77678 
L 453.588203 200.859455 
L 454.143058 226.852323 
L 454.697913 217.039545 
L 455.252768 203.420236 
L 455.807623 236.553506 
L 456.362477 237.973999 
L 456.917332 229.742885 
L 457.472187 244.285981 
L 458.027042 231.575498 
L 458.581897 251.78674 
L 459.136752 230.745957 
L 459.691607 255.367118 
L 460.801316 142.452052 
L 461.356171 250.097954 
L 461.911026 238.739347 
L 462.465881 234.972173 
L 463.020736 109.159968 
L 463.575591 253.671404 
L 464.130445 240.157628 
L 464.6853 260.586557 
L 465.240155 251.750767 
L 465.79501 225.795533 
L 466.349865 140.228568 
L 466.90472 258.572823 
L 467.459575 212.541316 
L 468.014429 233.610051 
L 468.569284 230.266379 
L 469.124139 191.338019 
L 469.678994 202.251651 
L 470.233849 201.260557 
L 470.788704 240.883646 
L 471.898413 202.091673 
L 472.453268 230.780608 
L 473.008123 266.231878 
L 473.562978 238.905755 
L 474.117833 248.74512 
L 474.672688 239.292713 
L 475.227543 219.4794 
L 475.782397 240.274106 
L 476.337252 250.411043 
L 476.892107 209.202087 
L 477.446962 220.464977 
L 478.001817 220.224005 
L 478.556672 226.851897 
L 479.111527 274.041864 
L 479.666381 224.043282 
L 480.221236 243.729545 
L 480.776091 228.440421 
L 481.330946 167.990192 
L 481.885801 262.871237 
L 482.440656 227.266554 
L 482.995511 244.861354 
L 483.550365 270.365795 
L 484.10522 206.126669 
L 484.660075 242.920895 
L 485.21493 219.599014 
L 485.769785 260.337628 
L 486.32464 209.488641 
L 486.879494 199.518672 
L 487.434349 169.918398 
L 487.989204 234.445763 
L 488.544059 237.011907 
L 489.098914 217.739306 
L 489.653769 209.324345 
L 490.208624 278.223214 
L 490.763478 193.05355 
L 491.318333 254.324338 
L 491.873188 262.381199 
L 492.428043 279.391443 
L 492.982898 257.629289 
L 493.537753 245.3726 
L 494.092608 202.014614 
L 494.647462 213.254321 
L 495.202317 206.759225 
L 495.757172 239.486887 
L 496.312027 198.400227 
L 497.421737 254.598658 
L 497.976592 243.850438 
L 498.531446 252.892066 
L 499.086301 255.199489 
L 499.641156 253.777794 
L 500.196011 248.113508 
L 500.750866 184.311557 
L 501.305721 203.962748 
L 501.860576 205.738695 
L 502.41543 247.476867 
L 502.970285 222.296887 
L 503.52514 222.782249 
L 504.079995 225.86021 
L 504.63485 264.357848 
L 505.189705 255.42614 
L 505.74456 221.723961 
L 506.299414 225.662861 
L 506.854269 248.423068 
L 507.409124 242.764188 
L 507.963979 220.257531 
L 508.518834 226.791333 
L 509.073689 275.013102 
L 509.628544 230.318702 
L 510.183398 262.794454 
L 510.738253 185.859317 
L 511.293108 249.746719 
L 511.847963 265.113205 
L 512.402818 199.039822 
L 512.957673 185.862716 
L 513.512528 251.27669 
L 514.067382 213.912272 
L 514.622237 199.911387 
L 515.177092 231.414572 
L 515.731947 184.223276 
L 516.286802 227.263528 
L 516.841657 247.516804 
L 517.396512 228.3999 
L 517.951366 240.303754 
L 518.506221 212.512243 
L 519.061076 248.821896 
L 520.170786 216.57072 
L 520.725641 265.244654 
L 521.280495 159.733111 
L 521.83535 256.314171 
L 522.390205 196.182201 
L 522.94506 228.880963 
L 523.499915 152.141375 
L 524.05477 230.793876 
L 524.609625 173.851773 
L 525.164479 193.279526 
L 525.719334 198.509509 
L 526.274189 249.684848 
L 526.829044 195.862725 
L 527.383899 221.415698 
L 527.938754 229.207554 
L 528.493609 259.486876 
L 529.048463 234.947343 
L 529.603318 228.106724 
L 530.158173 251.360825 
L 530.713028 243.253266 
L 531.267883 239.089079 
L 531.822738 132.243266 
L 532.377593 209.039926 
L 532.932447 193.908558 
L 533.487302 238.790358 
L 534.042157 147.446292 
L 534.597012 182.137314 
L 535.151867 263.416472 
L 535.706722 255.103225 
L 536.261577 232.533223 
L 536.816431 242.639732 
L 537.371286 220.711513 
L 537.926141 227.946038 
L 538.480996 198.480589 
L 539.035851 214.223044 
L 539.590706 243.303765 
L 540.145561 206.018077 
L 540.700415 213.682821 
L 541.25527 248.241358 
L 541.810125 235.912317 
L 542.36498 210.126368 
L 542.919835 273.143063 
L 543.47469 220.563343 
L 544.029545 240.612491 
L 544.584399 276.304359 
L 545.139254 205.341241 
L 545.694109 199.677932 
L 546.248964 199.323034 
L 546.803819 29.281818 
L 547.358674 236.87734 
L 547.913529 271.018332 
L 548.468383 256.210256 
L 549.023238 251.101453 
L 549.578093 227.601984 
L 550.132948 145.237746 
L 550.687803 199.19119 
L 551.242658 227.027306 
L 552.352367 245.972651 
L 552.907222 203.129785 
L 553.462077 219.996172 
L 554.016932 222.08426 
L 554.571787 234.899668 
L 555.126642 170.945947 
L 555.681496 266.115673 
L 556.236351 247.841921 
L 556.791206 179.301316 
L 557.346061 223.867715 
L 557.900916 233.683241 
L 558.455771 128.737605 
L 559.56548 248.156705 
L 560.120335 194.951458 
L 560.67519 272.605166 
L 561.230045 162.618579 
L 561.7849 275.86035 
L 562.339755 246.773444 
L 562.89461 193.585625 
L 563.449464 179.221969 
L 564.004319 246.108894 
L 564.559174 258.298708 
L 565.114029 255.550849 
L 565.668884 228.30164 
L 566.223739 171.963087 
L 566.778594 191.199903 
L 567.333448 30.832967 
L 567.888303 193.012028 
L 568.443158 110.808697 
L 568.998013 259.520527 
L 570.107723 176.799772 
L 570.662578 191.376735 
L 571.217432 258.887592 
L 572.327142 205.885219 
L 572.881997 158.137328 
L 573.436852 253.718149 
L 573.991707 247.944318 
L 574.546562 238.254152 
L 575.101416 193.954897 
L 575.656271 233.0012 
L 576.211126 211.569432 
L 576.765981 256.902638 
L 577.320836 219.341993 
L 577.875691 218.709868 
L 578.430546 222.903607 
L 578.9854 212.638954 
L 579.540255 187.750128 
L 580.09511 245.899015 
L 580.649965 241.528043 
L 581.20482 182.094058 
L 581.759675 230.493825 
L 582.869384 135.711005 
L 583.424239 270.245587 
L 583.979094 147.069292 
L 584.533949 263.732163 
L 585.088804 207.218024 
L 585.643659 207.188961 
L 586.198514 214.372048 
L 586.753368 176.294223 
L 587.308223 238.767869 
L 587.863078 149.777085 
L 588.417933 159.45553 
L 588.972788 243.636432 
L 589.527643 263.411648 
L 590.082497 186.677083 
L 590.637352 205.137443 
L 591.192207 243.977761 
L 591.747062 207.346257 
L 592.301917 218.290714 
L 592.856772 226.612773 
L 593.411627 223.906967 
L 593.966481 186.690911 
L 594.521336 256.116013 
L 595.076191 183.14933 
L 595.631046 201.347585 
L 596.185901 244.074786 
L 596.740756 188.224488 
L 597.295611 258.990214 
L 597.850465 253.008166 
L 598.40532 201.220865 
L 598.960175 241.21526 
L 599.51503 169.801206 
L 600.069885 230.285512 
L 600.62474 250.65598 
L 601.734449 198.019023 
L 602.289304 183.216602 
L 602.844159 227.017931 
L 603.399014 259.710181 
L 603.953869 111.017398 
L 604.508724 232.428452 
L 605.063579 264.250075 
L 605.618433 218.329334 
L 606.173288 259.103829 
L 606.728143 208.09725 
L 607.282998 190.231783 
L 607.837853 210.28941 
L 608.392708 198.194955 
L 608.947563 261.338695 
L 609.502417 253.123672 
L 610.057272 211.305162 
L 611.166982 253.274735 
L 611.721837 209.187656 
L 612.276692 223.719568 
L 612.831547 196.754275 
L 613.386401 225.31211 
L 613.941256 211.999072 
L 614.496111 201.495171 
L 615.050966 201.25531 
L 615.605821 59.435752 
L 616.160676 233.95002 
L 616.715531 223.054554 
L 617.270385 214.543316 
L 617.82524 246.804642 
L 618.380095 256.287228 
L 618.93495 228.342434 
L 619.489805 266.579767 
L 620.04466 224.297986 
L 620.599515 218.224448 
L 621.154369 251.061315 
L 621.709224 169.686025 
L 622.264079 269.055249 
L 622.818934 228.035052 
L 623.373789 215.663963 
L 623.928644 206.613957 
L 624.483498 270.978984 
L 625.038353 223.592757 
L 625.593208 195.272208 
L 626.148063 261.496364 
L 626.702918 198.341334 
L 627.257773 229.434416 
L 627.812628 269.745985 
L 628.367482 215.52783 
L 628.922337 275.59844 
L 629.477192 236.87021 
L 630.032047 206.293925 
L 630.586902 237.738783 
L 631.141757 275.48297 
L 631.696612 225.969453 
L 632.251466 206.875555 
L 632.806321 238.502109 
L 633.361176 212.936415 
L 633.916031 170.919422 
L 634.470886 219.223623 
L 635.025741 216.224354 
L 635.580596 247.002838 
L 636.13545 269.294787 
L 636.690305 246.783882 
L 637.24516 255.06213 
L 637.800015 248.628431 
L 638.35487 234.890475 
L 639.46458 262.94471 
L 640.019434 261.038619 
L 640.574289 199.148194 
L 641.129144 221.686231 
L 641.683999 231.486675 
L 642.238854 251.361505 
L 642.793709 204.236854 
L 643.348564 248.38294 
L 643.903418 232.949791 
L 644.458273 259.816963 
L 645.013128 259.494494 
L 645.567983 197.29786 
L 646.122838 242.281076 
L 646.677693 241.431497 
L 647.232548 239.596887 
L 647.787402 147.540022 
L 648.342257 240.304673 
L 648.897112 248.558201 
L 649.451967 265.287782 
L 650.006822 131.861947 
L 650.561677 200.575946 
L 651.116532 236.743926 
L 651.671386 222.65958 
L 652.226241 256.754593 
L 652.781096 227.144182 
L 653.335951 253.588959 
L 653.890806 286.404305 
L 654.445661 179.28226 
L 655.000516 246.881184 
L 655.55537 243.362308 
L 656.110225 194.214954 
L 656.66508 242.296886 
L 657.219935 272.005808 
L 657.77479 230.727581 
L 658.329645 256.624143 
L 658.884499 201.734381 
L 659.439354 254.933538 
L 659.994209 226.850125 
L 660.549064 263.021907 
L 661.658774 209.323062 
L 662.213629 249.802241 
L 662.768483 233.806839 
L 663.323338 246.011055 
L 663.878193 204.695413 
L 664.433048 284.449736 
L 664.987903 272.766618 
L 665.542758 237.294679 
L 666.097613 247.878645 
L 666.652467 230.287111 
L 667.207322 239.192668 
L 667.762177 214.499486 
L 668.317032 207.682242 
L 668.871887 260.545107 
L 669.426742 228.70935 
L 669.981597 248.443288 
L 670.536451 207.933087 
L 671.091306 207.030822 
L 671.646161 177.614484 
L 672.201016 252.611813 
L 672.755871 265.267684 
L 673.310726 248.909508 
L 673.865581 175.905388 
L 674.420435 242.907024 
L 674.97529 236.505736 
L 675.530145 266.508971 
L 676.085 261.002599 
L 676.085 261.002599 
" clip-path="url(#pe8a7c6f50a)" style="fill: none; stroke: #1f77b4; stroke-width: 1.5; stroke-linecap: square"/>
   </g>
   <g id="line2d_18">
    <path d="M 127.333549 197.035642 
L 138.430646 185.043594 
L 149.527743 180.603224 
L 160.62484 188.373439 
L 171.721937 185.028622 
L 182.819034 198.750959 
L 193.916131 209.841594 
L 205.013228 204.448398 
L 216.110325 216.400642 
L 227.207422 233.476795 
L 238.30452 236.333404 
L 249.401617 239.87663 
L 260.498714 250.148785 
L 271.595811 248.336712 
L 282.692908 262.722753 
L 293.790005 261.163803 
L 304.887102 250.413554 
L 315.984199 243.751084 
L 327.081296 253.276623 
L 338.178393 250.483643 
L 349.27549 246.709106 
L 360.372588 249.526132 
L 371.469685 254.1698 
L 382.566782 246.578513 
L 393.663879 255.927339 
L 404.760976 246.63491 
L 415.858073 233.925128 
L 426.95517 233.632922 
L 438.052267 240.968865 
L 449.149364 222.367335 
L 460.246461 225.678715 
L 471.343559 224.807573 
L 482.440656 226.413156 
L 493.537753 235.456338 
L 504.63485 234.012937 
L 515.731947 227.477832 
L 526.829044 213.717235 
L 537.926141 222.840203 
L 549.023238 215.621962 
L 560.120335 220.195727 
L 571.217432 200.516227 
L 582.31453 212.992964 
L 593.411627 215.052603 
L 604.508724 219.403142 
L 615.605821 216.881463 
L 626.702918 233.122961 
L 637.800015 232.421622 
L 648.897112 231.933781 
L 659.994209 237.354951 
L 671.091306 232.836485 
" clip-path="url(#pe8a7c6f50a)" style="fill: none; stroke: #ff0000; stroke-width: 1.5; stroke-linecap: square"/>
   </g>
   <g id="patch_3">
    <path d="M 94.07 304 
L 94.07 16.2 
" style="fill: none; stroke: #000000; stroke-width: 0.8; stroke-linejoin: miter; stroke-linecap: square"/>
   </g>
   <g id="patch_4">
    <path d="M 703.8 304 
L 703.8 16.2 
" style="fill: none; stroke: #000000; stroke-width: 0.8; stroke-linejoin: miter; stroke-linecap: square"/>
   </g>
   <g id="patch_5">
    <path d="M 94.07 304 
L 703.8 304 
" style="fill: none; stroke: #000000; stroke-width: 0.8; stroke-linejoin: miter; stroke-linecap: square"/>
   </g>
   <g id="patch_6">
    <path d="M 94.07 16.2 
L 703.8 16.2 
" style="fill: none; stroke: #000000; stroke-width: 0.8; stroke-linejoin: miter; stroke-linecap: square"/>
   </g>
  </g>
 </g>
 <defs>
  <clipPath id="pe8a7c6f50a">
   <rect x="94.07" y="16.2" width="609.73" height="287.8"/>
  </clipPath>
 </defs>
</svg>
