<?xml version="1.0" encoding="utf-8" standalone="no"?>
<!DOCTYPE svg PUBLIC "-//W3C//DTD SVG 1.1//EN"
  "http://www.w3.org/Graphics/SVG/1.1/DTD/svg11.dtd">
<svg xmlns:xlink="http://www.w3.org/1999/xlink" width="720pt" height="360pt" viewBox="0 0 720 360" xmlns="http://www.w3.org/2000/svg" version="1.1">
 <metadata>
  <rdf:RDF xmlns:dc="http://purl.org/dc/elements/1.1/" xmlns:cc="http://creativecommons.org/ns#" xmlns:rdf="http://www.w3.org/1999/02/22-rdf-syntax-ns#">
   <cc:Work>
    <dc:type rdf:resource="http://purl.org/dc/dcmitype/StillImage"/>
    <dc:date>2024-04-28T15:21:55.017192</dc:date>
    <dc:format>image/svg+xml</dc:format>
    <dc:creator>
     <cc:Agent>
      <dc:title>Matplotlib v3.7.5, https://matplotlib.org/</dc:title>
     </cc:Agent>
    </dc:creator>
   </cc:Work>
  </rdf:RDF>
 </metadata>
 <defs>
  <style type="text/css">*{stroke-linejoin: round; stroke-linecap: butt}</style>
 </defs>
 <g id="figure_1">
  <g id="patch_1">
   <path d="M 0 360 
L 720 360 
L 720 0 
L 0 0 
z
" style="fill: #ffffff"/>
  </g>
  <g id="axes_1">
   <g id="patch_2">
    <path d="M 63.83 304 
L 703.8 304 
L 703.8 21.302193 
L 63.83 21.302193 
z
" style="fill: #ffffff"/>
   </g>
   <g id="matplotlib.axis_1">
    <g id="xtick_1">
     <g id="line2d_1">
      <defs>
       <path id="m05f66edddb" d="M 0 0 
L 0 3.5 
" style="stroke: #000000; stroke-width: 0.8"/>
      </defs>
      <g>
       <use xlink:href="#m05f66edddb" x="92.337172" y="304" style="stroke: #000000; stroke-width: 0.8"/>
      </g>
     </g>
     <g id="text_1">
      <text style="font: 15px 'DejaVu Sans', 'Bitstream Vera Sans', 'Computer Modern Sans Serif', 'Lucida Grande', 'Verdana', 'Geneva', 'Lucid', 'Arial', 'Helvetica', 'Avant Garde', sans-serif; text-anchor: middle" x="92.337172" y="322.397656" transform="rotate(-0 92.337172 322.397656)">0</text>
     </g>
    </g>
    <g id="xtick_2">
     <g id="line2d_2">
      <g>
       <use xlink:href="#m05f66edddb" x="165.133832" y="304" style="stroke: #000000; stroke-width: 0.8"/>
      </g>
     </g>
     <g id="text_2">
      <text style="font: 15px 'DejaVu Sans', 'Bitstream Vera Sans', 'Computer Modern Sans Serif', 'Lucida Grande', 'Verdana', 'Geneva', 'Lucid', 'Arial', 'Helvetica', 'Avant Garde', sans-serif; text-anchor: middle" x="165.133832" y="322.397656" transform="rotate(-0 165.133832 322.397656)">2500</text>
     </g>
    </g>
    <g id="xtick_3">
     <g id="line2d_3">
      <g>
       <use xlink:href="#m05f66edddb" x="237.930493" y="304" style="stroke: #000000; stroke-width: 0.8"/>
      </g>
     </g>
     <g id="text_3">
      <text style="font: 15px 'DejaVu Sans', 'Bitstream Vera Sans', 'Computer Modern Sans Serif', 'Lucida Grande', 'Verdana', 'Geneva', 'Lucid', 'Arial', 'Helvetica', 'Avant Garde', sans-serif; text-anchor: middle" x="237.930493" y="322.397656" transform="rotate(-0 237.930493 322.397656)">5000</text>
     </g>
    </g>
    <g id="xtick_4">
     <g id="line2d_4">
      <g>
       <use xlink:href="#m05f66edddb" x="310.727153" y="304" style="stroke: #000000; stroke-width: 0.8"/>
      </g>
     </g>
     <g id="text_4">
      <text style="font: 15px 'DejaVu Sans', 'Bitstream Vera Sans', 'Computer Modern Sans Serif', 'Lucida Grande', 'Verdana', 'Geneva', 'Lucid', 'Arial', 'Helvetica', 'Avant Garde', sans-serif; text-anchor: middle" x="310.727153" y="322.397656" transform="rotate(-0 310.727153 322.397656)">7500</text>
     </g>
    </g>
    <g id="xtick_5">
     <g id="line2d_5">
      <g>
       <use xlink:href="#m05f66edddb" x="383.523813" y="304" style="stroke: #000000; stroke-width: 0.8"/>
      </g>
     </g>
     <g id="text_5">
      <text style="font: 15px 'DejaVu Sans', 'Bitstream Vera Sans', 'Computer Modern Sans Serif', 'Lucida Grande', 'Verdana', 'Geneva', 'Lucid', 'Arial', 'Helvetica', 'Avant Garde', sans-serif; text-anchor: middle" x="383.523813" y="322.397656" transform="rotate(-0 383.523813 322.397656)">10000</text>
     </g>
    </g>
    <g id="xtick_6">
     <g id="line2d_6">
      <g>
       <use xlink:href="#m05f66edddb" x="456.320474" y="304" style="stroke: #000000; stroke-width: 0.8"/>
      </g>
     </g>
     <g id="text_6">
      <text style="font: 15px 'DejaVu Sans', 'Bitstream Vera Sans', 'Computer Modern Sans Serif', 'Lucida Grande', 'Verdana', 'Geneva', 'Lucid', 'Arial', 'Helvetica', 'Avant Garde', sans-serif; text-anchor: middle" x="456.320474" y="322.397656" transform="rotate(-0 456.320474 322.397656)">12500</text>
     </g>
    </g>
    <g id="xtick_7">
     <g id="line2d_7">
      <g>
       <use xlink:href="#m05f66edddb" x="529.117134" y="304" style="stroke: #000000; stroke-width: 0.8"/>
      </g>
     </g>
     <g id="text_7">
      <text style="font: 15px 'DejaVu Sans', 'Bitstream Vera Sans', 'Computer Modern Sans Serif', 'Lucida Grande', 'Verdana', 'Geneva', 'Lucid', 'Arial', 'Helvetica', 'Avant Garde', sans-serif; text-anchor: middle" x="529.117134" y="322.397656" transform="rotate(-0 529.117134 322.397656)">15000</text>
     </g>
    </g>
    <g id="xtick_8">
     <g id="line2d_8">
      <g>
       <use xlink:href="#m05f66edddb" x="601.913794" y="304" style="stroke: #000000; stroke-width: 0.8"/>
      </g>
     </g>
     <g id="text_8">
      <text style="font: 15px 'DejaVu Sans', 'Bitstream Vera Sans', 'Computer Modern Sans Serif', 'Lucida Grande', 'Verdana', 'Geneva', 'Lucid', 'Arial', 'Helvetica', 'Avant Garde', sans-serif; text-anchor: middle" x="601.913794" y="322.397656" transform="rotate(-0 601.913794 322.397656)">17500</text>
     </g>
    </g>
    <g id="xtick_9">
     <g id="line2d_9">
      <g>
       <use xlink:href="#m05f66edddb" x="674.710455" y="304" style="stroke: #000000; stroke-width: 0.8"/>
      </g>
     </g>
     <g id="text_9">
      <text style="font: 15px 'DejaVu Sans', 'Bitstream Vera Sans', 'Computer Modern Sans Serif', 'Lucida Grande', 'Verdana', 'Geneva', 'Lucid', 'Arial', 'Helvetica', 'Avant Garde', sans-serif; text-anchor: middle" x="674.710455" y="322.397656" transform="rotate(-0 674.710455 322.397656)">20000</text>
     </g>
    </g>
    <g id="text_10">
     <text style="font: 15px 'DejaVu Sans', 'Bitstream Vera Sans', 'Computer Modern Sans Serif', 'Lucida Grande', 'Verdana', 'Geneva', 'Lucid', 'Arial', 'Helvetica', 'Avant Garde', sans-serif; text-anchor: middle" x="383.815" y="340.914844" transform="rotate(-0 383.815 340.914844)">Episodes</text>
    </g>
   </g>
   <g id="matplotlib.axis_2">
    <g id="ytick_1">
     <g id="line2d_10">
      <defs>
       <path id="m1b06c1c036" d="M 0 0 
L -3.5 0 
" style="stroke: #000000; stroke-width: 0.8"/>
      </defs>
      <g>
       <use xlink:href="#m1b06c1c036" x="63.83" y="284.306533" style="stroke: #000000; stroke-width: 0.8"/>
      </g>
     </g>
     <g id="text_11">
      <text style="font: 15px 'DejaVu Sans', 'Bitstream Vera Sans', 'Computer Modern Sans Serif', 'Lucida Grande', 'Verdana', 'Geneva', 'Lucid', 'Arial', 'Helvetica', 'Avant Garde', sans-serif; text-anchor: end" x="56.83" y="290.005362" transform="rotate(-0 56.83 290.005362)">−8</text>
     </g>
    </g>
    <g id="ytick_2">
     <g id="line2d_11">
      <g>
       <use xlink:href="#m1b06c1c036" x="63.83" y="240.584286" style="stroke: #000000; stroke-width: 0.8"/>
      </g>
     </g>
     <g id="text_12">
      <text style="font: 15px 'DejaVu Sans', 'Bitstream Vera Sans', 'Computer Modern Sans Serif', 'Lucida Grande', 'Verdana', 'Geneva', 'Lucid', 'Arial', 'Helvetica', 'Avant Garde', sans-serif; text-anchor: end" x="56.83" y="246.283114" transform="rotate(-0 56.83 246.283114)">−7</text>
     </g>
    </g>
    <g id="ytick_3">
     <g id="line2d_12">
      <g>
       <use xlink:href="#m1b06c1c036" x="63.83" y="196.862038" style="stroke: #000000; stroke-width: 0.8"/>
      </g>
     </g>
     <g id="text_13">
      <text style="font: 15px 'DejaVu Sans', 'Bitstream Vera Sans', 'Computer Modern Sans Serif', 'Lucida Grande', 'Verdana', 'Geneva', 'Lucid', 'Arial', 'Helvetica', 'Avant Garde', sans-serif; text-anchor: end" x="56.83" y="202.560866" transform="rotate(-0 56.83 202.560866)">−6</text>
     </g>
    </g>
    <g id="ytick_4">
     <g id="line2d_13">
      <g>
       <use xlink:href="#m1b06c1c036" x="63.83" y="153.13979" style="stroke: #000000; stroke-width: 0.8"/>
      </g>
     </g>
     <g id="text_14">
      <text style="font: 15px 'DejaVu Sans', 'Bitstream Vera Sans', 'Computer Modern Sans Serif', 'Lucida Grande', 'Verdana', 'Geneva', 'Lucid', 'Arial', 'Helvetica', 'Avant Garde', sans-serif; text-anchor: end" x="56.83" y="158.838618" transform="rotate(-0 56.83 158.838618)">−5</text>
     </g>
    </g>
    <g id="ytick_5">
     <g id="line2d_14">
      <g>
       <use xlink:href="#m1b06c1c036" x="63.83" y="109.417542" style="stroke: #000000; stroke-width: 0.8"/>
      </g>
     </g>
     <g id="text_15">
      <text style="font: 15px 'DejaVu Sans', 'Bitstream Vera Sans', 'Computer Modern Sans Serif', 'Lucida Grande', 'Verdana', 'Geneva', 'Lucid', 'Arial', 'Helvetica', 'Avant Garde', sans-serif; text-anchor: end" x="56.83" y="115.11637" transform="rotate(-0 56.83 115.11637)">−4</text>
     </g>
    </g>
    <g id="ytick_6">
     <g id="line2d_15">
      <g>
       <use xlink:href="#m1b06c1c036" x="63.83" y="65.695294" style="stroke: #000000; stroke-width: 0.8"/>
      </g>
     </g>
     <g id="text_16">
      <text style="font: 15px 'DejaVu Sans', 'Bitstream Vera Sans', 'Computer Modern Sans Serif', 'Lucida Grande', 'Verdana', 'Geneva', 'Lucid', 'Arial', 'Helvetica', 'Avant Garde', sans-serif; text-anchor: end" x="56.83" y="71.394122" transform="rotate(-0 56.83 71.394122)">−3</text>
     </g>
    </g>
    <g id="ytick_7">
     <g id="line2d_16">
      <g>
       <use xlink:href="#m1b06c1c036" x="63.83" y="21.973047" style="stroke: #000000; stroke-width: 0.8"/>
      </g>
     </g>
     <g id="text_17">
      <text style="font: 15px 'DejaVu Sans', 'Bitstream Vera Sans', 'Computer Modern Sans Serif', 'Lucida Grande', 'Verdana', 'Geneva', 'Lucid', 'Arial', 'Helvetica', 'Avant Garde', sans-serif; text-anchor: end" x="56.83" y="27.671875" transform="rotate(-0 56.83 27.671875)">−2</text>
     </g>
    </g>
    <g id="text_18">
     <text style="font: 15px 'DejaVu Sans', 'Bitstream Vera Sans', 'Computer Modern Sans Serif', 'Lucida Grande', 'Verdana', 'Geneva', 'Lucid', 'Arial', 'Helvetica', 'Avant Garde', sans-serif; text-anchor: middle" x="27.597188" y="162.651097" transform="rotate(-90 27.597188 162.651097)">Episode Reward Mean</text>
    </g>
   </g>
   <g id="line2d_17">
    <path d="M 92.919545 254.4367 
L 93.501919 254.706729 
L 94.084292 268.42013 
L 94.666665 278.603605 
L 95.249039 284.278577 
L 95.831412 276.616015 
L 96.413785 282.216341 
L 96.996158 283.32957 
L 97.578532 278.773757 
L 98.160905 273.096178 
L 98.743278 290.750582 
L 99.325652 289.008929 
L 99.908025 286.770259 
L 100.490398 290.025026 
L 101.072771 288.45643 
L 101.655145 283.780063 
L 102.237518 291.1501 
L 102.819891 280.864412 
L 103.402265 277.527435 
L 103.984638 288.381917 
L 104.567011 284.954761 
L 105.149384 272.161366 
L 106.314131 279.453333 
L 106.896504 263.568013 
L 107.478878 266.883937 
L 108.061251 278.205868 
L 108.643624 278.437369 
L 109.225997 275.493401 
L 109.808371 279.232417 
L 110.390744 274.677324 
L 110.973117 264.383568 
L 111.55549 270.593854 
L 112.137864 264.386455 
L 112.720237 271.974973 
L 113.30261 273.441751 
L 113.884984 271.331962 
L 114.467357 260.659046 
L 115.04973 265.63878 
L 116.214477 244.222132 
L 116.79685 259.283461 
L 117.379223 264.527317 
L 117.961597 263.094594 
L 118.54397 259.989655 
L 119.126343 266.013876 
L 119.708716 250.745594 
L 120.29109 246.893752 
L 120.873463 243.804967 
L 121.455836 248.365559 
L 122.03821 255.507819 
L 122.620583 256.675622 
L 123.202956 262.174063 
L 123.785329 274.057752 
L 124.367703 265.798511 
L 124.950076 264.53906 
L 125.532449 260.811701 
L 126.114823 258.832158 
L 126.697196 248.51571 
L 127.279569 260.91977 
L 127.861942 261.858747 
L 128.444316 261.353955 
L 129.026689 263.247699 
L 129.609062 256.18784 
L 130.191436 254.904647 
L 130.773809 243.854599 
L 131.356182 247.847431 
L 131.938555 243.494022 
L 132.520929 244.761939 
L 133.103302 233.402062 
L 133.685675 238.17457 
L 134.268049 238.526 
L 134.850422 244.254273 
L 135.432795 253.17923 
L 136.015168 259.813665 
L 136.597542 256.461574 
L 137.179915 250.293166 
L 137.762288 249.373004 
L 138.344661 242.611374 
L 138.927035 242.525393 
L 139.509408 236.312788 
L 140.091781 244.775644 
L 140.674155 247.426484 
L 142.421274 266.764518 
L 143.003648 264.677463 
L 143.586021 249.658407 
L 144.750768 233.205779 
L 145.333141 232.120183 
L 145.915514 231.625208 
L 146.497887 241.646107 
L 147.080261 237.151018 
L 147.662634 240.288199 
L 148.245007 251.785743 
L 148.827381 254.914375 
L 149.409754 258.948476 
L 149.992127 264.874005 
L 150.5745 258.870726 
L 151.156874 249.728699 
L 151.739247 234.432028 
L 152.32162 213.772997 
L 152.903994 202.514888 
L 153.486367 213.588116 
L 154.06874 202.420613 
L 154.651113 205.964532 
L 155.233487 212.770627 
L 155.81586 229.738706 
L 156.398233 214.636461 
L 156.980607 224.277327 
L 157.56298 225.683583 
L 158.145353 230.214272 
L 158.727726 220.947601 
L 159.3101 228.493699 
L 159.892473 222.676306 
L 160.474846 227.908476 
L 161.057219 227.43156 
L 162.221966 221.48311 
L 162.804339 224.157444 
L 163.386713 237.201986 
L 163.969086 242.181615 
L 164.551459 239.699545 
L 165.133832 236.273665 
L 165.716206 240.847667 
L 166.880952 224.397684 
L 167.463326 221.424765 
L 168.045699 222.766081 
L 168.628072 218.35568 
L 169.210445 217.087794 
L 169.792819 217.505501 
L 170.375192 221.759077 
L 170.957565 227.447922 
L 171.539939 216.704429 
L 172.122312 201.511888 
L 172.704685 205.459365 
L 173.287058 203.652229 
L 173.869432 192.845915 
L 174.451805 212.268713 
L 175.034178 218.275234 
L 175.616552 211.293651 
L 176.198925 211.340077 
L 176.781298 213.788819 
L 177.363671 200.830284 
L 177.946045 199.082796 
L 178.528418 197.982211 
L 179.110791 201.913544 
L 180.275538 226.410241 
L 181.440284 223.405429 
L 182.022658 215.531777 
L 182.605031 210.001651 
L 183.187404 199.058799 
L 183.769778 202.025796 
L 184.352151 206.427907 
L 184.934524 206.593492 
L 185.516897 195.587996 
L 186.099271 188.82697 
L 186.681644 188.829594 
L 187.264017 185.078913 
L 187.84639 190.172845 
L 188.428764 190.742969 
L 189.011137 195.171984 
L 189.59351 197.206378 
L 190.175884 198.351806 
L 190.758257 194.24316 
L 191.34063 197.863074 
L 191.923003 204.443494 
L 193.08775 193.504839 
L 193.670123 193.543901 
L 194.252497 193.190887 
L 194.83487 194.0744 
L 195.417243 191.540958 
L 196.58199 201.278209 
L 197.164363 202.57717 
L 197.746736 192.652629 
L 198.32911 198.006849 
L 198.911483 201.720056 
L 199.493856 198.056335 
L 200.076229 195.134543 
L 200.658603 202.734971 
L 201.240976 205.823901 
L 201.823349 199.367699 
L 202.405723 197.356555 
L 202.988096 196.608646 
L 204.152842 183.89037 
L 204.735216 185.402438 
L 205.317589 185.721364 
L 205.899962 178.307306 
L 206.482336 180.514744 
L 208.229455 172.365053 
L 209.394202 182.550414 
L 209.976575 174.314676 
L 210.558948 177.441711 
L 211.723695 192.881405 
L 212.306068 193.102907 
L 212.888442 202.879413 
L 213.470815 204.539261 
L 214.053188 200.745556 
L 214.635561 193.187356 
L 215.217935 178.847056 
L 215.800308 183.829772 
L 216.382681 184.639888 
L 216.965055 184.05716 
L 218.129801 196.11188 
L 218.712174 181.340507 
L 219.876921 174.66262 
L 220.459294 168.746868 
L 221.041668 164.344076 
L 221.624041 174.907901 
L 222.206414 178.753072 
L 222.788787 184.980026 
L 223.371161 180.400328 
L 223.953534 184.913281 
L 224.535907 182.90469 
L 225.118281 181.668885 
L 225.700654 171.432665 
L 226.283027 167.991613 
L 226.8654 168.761527 
L 227.447774 169.338669 
L 228.030147 171.109463 
L 228.61252 179.156389 
L 229.194894 196.102811 
L 229.777267 199.263251 
L 230.35964 204.616738 
L 230.942013 207.927262 
L 231.524387 207.670156 
L 232.10676 201.975119 
L 232.689133 194.936366 
L 233.271507 194.20048 
L 235.018626 175.570505 
L 235.601 180.175016 
L 236.765746 170.97439 
L 237.348119 170.641696 
L 237.930493 176.427995 
L 238.512866 167.688116 
L 239.095239 161.266795 
L 239.677613 162.818624 
L 240.259986 160.183354 
L 240.842359 159.01417 
L 241.424732 166.591502 
L 242.007106 170.386818 
L 242.589479 171.127814 
L 243.171852 173.125428 
L 244.336599 166.338252 
L 244.918972 172.513225 
L 245.501345 173.435807 
L 246.083719 174.066589 
L 246.666092 176.370563 
L 247.248465 185.151337 
L 247.830839 178.343527 
L 248.413212 182.096181 
L 248.995585 189.233773 
L 249.577958 198.170367 
L 250.160332 185.509395 
L 250.742705 183.64157 
L 251.325078 170.635959 
L 252.489825 154.428867 
L 253.654571 163.779649 
L 254.236945 172.508787 
L 255.401691 166.187178 
L 255.984065 168.059994 
L 256.566438 166.503213 
L 257.148811 162.926985 
L 258.313558 182.551361 
L 258.895931 183.599563 
L 260.060677 192.126434 
L 261.225424 177.52375 
L 262.390171 165.573459 
L 262.972544 159.250342 
L 263.554917 165.686231 
L 264.13729 158.463562 
L 264.719664 158.182738 
L 265.302037 160.668643 
L 265.88441 156.540634 
L 266.466784 146.996526 
L 267.049157 151.712008 
L 267.63153 153.896181 
L 268.213903 149.277884 
L 269.37865 156.287593 
L 269.961023 146.019085 
L 270.543397 141.993189 
L 271.12577 141.946567 
L 271.708143 137.651883 
L 272.290516 129.301682 
L 273.455263 138.651939 
L 274.037636 137.515951 
L 274.62001 138.43968 
L 275.202383 136.092527 
L 275.784756 141.835738 
L 276.367129 137.708205 
L 276.949503 137.497666 
L 277.531876 132.841823 
L 278.114249 137.271022 
L 278.696623 130.227643 
L 279.861369 124.107134 
L 280.443742 129.107278 
L 281.026116 127.321228 
L 282.190862 130.464505 
L 282.773236 135.674562 
L 283.355609 129.260915 
L 283.937982 127.770713 
L 284.520355 124.929166 
L 285.102729 129.693199 
L 285.685102 128.883917 
L 286.267475 141.32953 
L 286.849848 146.399799 
L 287.432222 154.943498 
L 288.014595 155.353608 
L 289.179342 149.094502 
L 289.761715 150.772243 
L 290.344088 151.440938 
L 290.926461 144.561857 
L 291.508835 147.096232 
L 292.091208 144.254222 
L 293.255955 130.566753 
L 293.838328 132.569698 
L 294.420701 127.570497 
L 295.003074 129.509342 
L 295.585448 132.272858 
L 296.167821 131.055975 
L 296.750194 128.408814 
L 297.332568 130.893115 
L 297.914941 126.991201 
L 298.497314 133.186965 
L 299.079687 133.955938 
L 299.662061 132.183833 
L 300.244434 136.489522 
L 300.826807 138.668924 
L 301.409181 126.394467 
L 301.991554 124.168139 
L 302.573927 126.88959 
L 303.738674 110.100135 
L 304.90342 115.1709 
L 305.485794 113.158523 
L 306.068167 116.344054 
L 306.65054 118.445506 
L 307.232913 116.352657 
L 307.815287 118.389985 
L 308.39766 117.50777 
L 309.562406 112.855743 
L 310.14478 117.381089 
L 310.727153 116.788405 
L 311.309526 113.762121 
L 311.8919 113.146441 
L 312.474273 116.793985 
L 313.056646 115.439017 
L 313.639019 110.498213 
L 314.221393 112.22728 
L 314.803766 117.397053 
L 315.386139 116.631882 
L 315.968513 117.707735 
L 316.550886 119.317602 
L 317.133259 124.884762 
L 317.715632 121.460288 
L 318.880379 123.130446 
L 319.462752 122.308741 
L 320.045126 120.571627 
L 320.627499 123.837403 
L 321.209872 124.213755 
L 321.792245 118.780218 
L 322.956992 116.020023 
L 323.539365 111.664034 
L 324.121739 113.764348 
L 324.704112 111.22823 
L 325.286485 103.397692 
L 325.868858 105.088559 
L 326.451232 100.830747 
L 327.033605 97.988617 
L 327.615978 100.637629 
L 328.198352 104.626386 
L 328.780725 105.467954 
L 329.363098 114.983869 
L 329.945471 112.162134 
L 330.527845 112.34115 
L 331.110218 117.128511 
L 331.692591 115.28201 
L 332.274965 111.714259 
L 332.857338 116.649835 
L 334.022084 110.217888 
L 334.604458 109.660395 
L 335.186831 109.766628 
L 335.769204 105.63509 
L 336.351577 106.490204 
L 336.933951 113.031254 
L 337.516324 114.523452 
L 338.098697 108.309507 
L 338.681071 110.644351 
L 339.263444 111.086448 
L 339.845817 108.920463 
L 340.42819 101.194687 
L 341.010564 109.384857 
L 341.592937 104.818601 
L 342.17531 107.291549 
L 342.757684 107.882833 
L 343.340057 114.239584 
L 343.92243 101.96635 
L 344.504803 102.596144 
L 345.087177 97.224505 
L 345.66955 90.392934 
L 346.251923 86.59881 
L 346.834297 87.824424 
L 347.41667 87.55299 
L 347.999043 89.495298 
L 348.581416 87.886538 
L 349.16379 94.228657 
L 350.328536 100.189508 
L 350.91091 111.42024 
L 351.493283 119.187507 
L 352.075656 116.290638 
L 352.658029 122.109168 
L 353.240403 120.970113 
L 354.987523 113.883097 
L 355.569896 107.055074 
L 356.152269 104.856487 
L 356.734642 96.026953 
L 357.317016 89.165222 
L 357.899389 85.624644 
L 358.481762 91.15605 
L 359.064135 91.955197 
L 359.646509 92.330058 
L 360.228882 95.440091 
L 360.811255 97.089908 
L 361.393629 92.828269 
L 361.976002 93.368661 
L 362.558375 92.536977 
L 363.140748 92.040327 
L 363.723122 93.874106 
L 364.305495 96.231579 
L 364.887868 97.19983 
L 365.470242 97.490698 
L 366.634988 105.405863 
L 367.217361 107.701917 
L 367.799735 107.722313 
L 368.382108 109.338924 
L 368.964481 110.091846 
L 369.546855 103.712202 
L 370.129228 99.023406 
L 370.711601 101.673766 
L 371.293974 102.098277 
L 371.876348 99.134324 
L 372.458721 102.858496 
L 373.041094 104.227914 
L 373.623468 100.160656 
L 374.205841 97.987931 
L 374.788214 102.858881 
L 375.370587 97.921263 
L 375.952961 100.365169 
L 376.535334 101.854607 
L 377.117707 105.01698 
L 377.700081 98.915022 
L 378.282454 102.880021 
L 378.864827 102.464766 
L 379.4472 107.731821 
L 380.029574 103.282237 
L 380.611947 102.872432 
L 381.19432 101.974126 
L 381.776694 93.715732 
L 382.359067 91.967669 
L 382.94144 94.582258 
L 383.523813 103.030377 
L 384.106187 101.986588 
L 384.68856 106.59469 
L 385.270933 99.72088 
L 385.853306 99.561029 
L 386.43568 89.692688 
L 387.600426 83.98684 
L 388.1828 83.521632 
L 388.765173 84.990872 
L 389.347546 84.388228 
L 389.929919 91.933095 
L 390.512293 95.859989 
L 391.094666 98.186749 
L 391.677039 98.090192 
L 392.259413 103.792233 
L 392.841786 96.377721 
L 393.424159 95.102905 
L 394.006532 97.495929 
L 394.588906 95.161318 
L 395.171279 91.132788 
L 395.753652 93.464705 
L 396.336026 90.638996 
L 396.918399 86.385515 
L 397.500772 85.405821 
L 398.083145 84.798757 
L 398.665519 80.44723 
L 399.247892 90.177586 
L 400.412639 93.713375 
L 400.995012 93.025459 
L 401.577385 100.059786 
L 402.159758 93.387727 
L 402.742132 96.113979 
L 403.906878 108.521084 
L 404.489252 107.956447 
L 405.071625 106.92563 
L 405.653998 109.594101 
L 406.818745 116.549066 
L 407.401118 117.210186 
L 407.983491 124.448601 
L 408.565865 122.562905 
L 409.730611 109.87335 
L 410.312984 104.057302 
L 410.895358 95.486935 
L 411.477731 92.231036 
L 412.060104 93.467104 
L 413.807224 116.472722 
L 414.389597 112.678555 
L 414.971971 110.7008 
L 415.554344 107.126466 
L 416.136717 108.66085 
L 416.71909 105.3704 
L 417.301464 109.276218 
L 417.883837 105.653994 
L 419.048584 101.238264 
L 419.630957 99.143148 
L 420.21333 94.218626 
L 420.795703 97.647015 
L 421.378077 94.200619 
L 421.96045 86.01893 
L 422.542823 81.892463 
L 423.125197 85.603291 
L 423.70757 80.266677 
L 424.289943 79.138314 
L 424.872316 82.018071 
L 425.45469 87.525086 
L 426.037063 86.960853 
L 426.619436 87.986117 
L 427.20181 91.460021 
L 427.784183 91.12719 
L 428.366556 88.104006 
L 428.948929 86.907155 
L 429.531303 89.245723 
L 430.113676 85.186475 
L 430.696049 87.186242 
L 431.278423 82.1745 
L 431.860796 79.38407 
L 432.443169 77.959833 
L 433.607916 73.160743 
L 434.190289 81.02246 
L 434.772662 84.401993 
L 435.355035 84.568376 
L 435.937409 87.105832 
L 436.519782 87.26022 
L 437.684529 88.717969 
L 438.266902 92.149276 
L 438.849275 91.957456 
L 439.431648 91.09496 
L 440.014022 89.038205 
L 440.596395 89.444157 
L 441.178768 86.086872 
L 441.761142 90.419066 
L 442.925888 76.134642 
L 443.508261 73.323324 
L 444.673008 60.229854 
L 445.255381 65.745296 
L 445.837755 69.495182 
L 446.420128 67.362508 
L 447.002501 68.751713 
L 447.584874 68.197833 
L 448.167248 70.418613 
L 448.749621 70.521463 
L 449.331994 69.984885 
L 449.914368 74.32975 
L 450.496741 77.226843 
L 451.079114 71.017411 
L 452.243861 74.771447 
L 452.826234 71.042905 
L 453.408607 70.023987 
L 453.990981 76.530391 
L 454.573354 74.665608 
L 455.155727 71.059068 
L 455.7381 69.700133 
L 456.902847 62.113693 
L 457.48522 66.098104 
L 458.067594 65.391043 
L 458.649967 66.827217 
L 459.23234 67.189251 
L 459.814713 65.494563 
L 460.397087 61.721439 
L 460.97946 67.432083 
L 461.561833 70.723794 
L 462.144206 76.239125 
L 462.72658 78.150812 
L 463.308953 78.720165 
L 463.891326 78.080381 
L 465.056073 72.179046 
L 465.638446 71.89339 
L 466.220819 73.364855 
L 467.385566 77.879667 
L 467.967939 79.938151 
L 468.550313 86.170595 
L 469.132686 85.686085 
L 469.715059 83.495586 
L 470.879806 75.326853 
L 471.462179 71.002907 
L 472.044552 68.666521 
L 472.626926 64.965373 
L 473.209299 69.628234 
L 473.791672 75.221428 
L 474.374045 73.942803 
L 474.956419 73.71484 
L 475.538792 77.343546 
L 476.121165 75.65782 
L 476.703539 73.179076 
L 477.285912 75.499686 
L 478.450658 81.427971 
L 479.615405 88.212657 
L 480.197778 90.66644 
L 480.780152 91.623277 
L 481.362525 84.774289 
L 481.944898 84.41068 
L 482.527271 81.421445 
L 483.109645 73.518071 
L 483.692018 68.880765 
L 484.274391 68.871271 
L 485.439138 57.892152 
L 486.021511 54.88569 
L 486.603884 55.669145 
L 487.186258 54.741724 
L 487.768631 50.323085 
L 488.351004 48.983613 
L 488.933377 52.978836 
L 489.515751 50.662098 
L 490.098124 52.352615 
L 491.262871 61.728088 
L 491.845244 61.207653 
L 492.427617 62.107888 
L 493.00999 62.359286 
L 493.592364 66.21659 
L 494.174737 66.502115 
L 494.75711 64.915349 
L 495.339484 65.788239 
L 495.921857 70.070024 
L 496.50423 65.239747 
L 497.086603 62.025501 
L 497.668977 62.016076 
L 498.25135 58.761122 
L 498.833723 53.437883 
L 499.416097 54.674578 
L 499.99847 57.79649 
L 500.580843 62.748802 
L 501.163216 64.937656 
L 501.74559 64.583524 
L 502.327963 64.821803 
L 502.910336 67.20741 
L 503.49271 68.942745 
L 504.075083 66.901808 
L 505.239829 71.105045 
L 505.822203 65.837345 
L 506.404576 64.443962 
L 506.986949 65.327235 
L 507.569323 65.883967 
L 508.151696 63.124556 
L 508.734069 67.102973 
L 509.316442 63.333758 
L 509.898816 66.121841 
L 510.481189 62.078764 
L 511.063562 64.802955 
L 511.645935 65.145398 
L 512.228309 62.571938 
L 512.810682 58.212713 
L 513.393055 60.524025 
L 513.975429 58.530032 
L 514.557802 53.750255 
L 515.140175 53.184975 
L 515.722548 55.080698 
L 516.304922 54.477236 
L 516.887295 56.988931 
L 517.469668 58.251584 
L 518.052042 60.922052 
L 518.634415 62.736079 
L 519.216788 64.161008 
L 519.799161 64.01096 
L 520.381535 66.189872 
L 520.963908 69.143556 
L 521.546281 68.766694 
L 522.128655 64.215261 
L 522.711028 63.146739 
L 523.293401 66.185221 
L 523.875774 64.028701 
L 524.458148 60.892664 
L 525.040521 63.363115 
L 526.205268 52.067753 
L 526.787641 54.364235 
L 527.370014 56.154291 
L 527.952387 55.418862 
L 528.534761 57.066797 
L 529.117134 58.023876 
L 529.699507 51.945368 
L 530.281881 51.432189 
L 530.864254 46.539317 
L 531.446627 47.41079 
L 532.029 45.137422 
L 532.611374 46.969548 
L 533.193747 45.602444 
L 533.77612 47.591812 
L 534.358493 44.032448 
L 534.940867 43.63236 
L 535.52324 44.808898 
L 536.105613 44.546746 
L 536.687987 47.003789 
L 537.27036 52.592677 
L 537.852733 53.181625 
L 538.435106 55.671154 
L 539.01748 59.311555 
L 539.599853 61.172539 
L 540.182226 60.687954 
L 540.7646 62.876214 
L 541.346973 59.19251 
L 541.929346 54.779763 
L 543.094093 50.87268 
L 543.676466 49.389465 
L 544.258839 50.476661 
L 544.841213 55.814686 
L 545.423586 54.810458 
L 546.005959 55.094922 
L 546.588332 56.402772 
L 547.170706 55.554326 
L 547.753079 51.314596 
L 548.335452 55.083645 
L 549.500199 55.172183 
L 550.082572 55.945969 
L 550.664945 55.983846 
L 551.247319 51.582072 
L 551.829692 51.522966 
L 552.412065 51.297335 
L 552.994439 51.808575 
L 554.159185 61.748643 
L 554.741558 60.259072 
L 555.323932 61.522886 
L 555.906305 59.246085 
L 556.488678 60.887042 
L 557.653425 55.329635 
L 558.235798 51.050625 
L 558.818171 54.349925 
L 559.400545 47.4224 
L 559.982918 51.995081 
L 560.565291 57.795255 
L 561.147664 60.375304 
L 561.730038 55.618349 
L 562.312411 55.276393 
L 563.477158 46.933129 
L 564.059531 49.224665 
L 564.641904 49.110404 
L 565.224277 47.929866 
L 565.806651 46.038076 
L 566.389024 49.267251 
L 566.971397 43.727787 
L 567.553771 44.036266 
L 568.136144 46.230878 
L 568.718517 49.929066 
L 569.30089 47.531382 
L 569.883264 49.62288 
L 570.465637 53.962116 
L 571.04801 55.396326 
L 571.630384 54.903903 
L 572.79513 58.920073 
L 573.377503 52.77185 
L 573.959877 50.654938 
L 574.54225 47.366173 
L 575.124623 48.966086 
L 575.706997 47.555561 
L 576.871743 52.468692 
L 577.454116 59.703989 
L 578.03649 56.886968 
L 578.618863 57.653913 
L 579.201236 60.564457 
L 579.78361 58.967171 
L 580.365983 55.156561 
L 580.948356 57.065056 
L 581.530729 56.892227 
L 582.695476 51.088553 
L 583.277849 50.183085 
L 583.860222 49.967799 
L 584.442596 49.628342 
L 585.024969 48.181646 
L 585.607342 47.261759 
L 586.772089 39.335094 
L 587.354462 40.13745 
L 587.936835 44.574977 
L 589.101582 51.482308 
L 589.683955 52.457013 
L 590.266329 51.429781 
L 590.848702 49.783604 
L 591.431075 49.244426 
L 592.013448 47.369204 
L 593.178195 45.077204 
L 594.342942 45.287777 
L 594.925315 47.053711 
L 595.507688 45.23124 
L 596.090061 47.587444 
L 596.672435 45.32931 
L 597.254808 38.701301 
L 597.837181 37.114025 
L 598.419555 42.697213 
L 599.001928 38.610063 
L 599.584301 41.862587 
L 600.166674 48.950588 
L 600.749048 46.809163 
L 601.331421 45.549248 
L 601.913794 47.501288 
L 602.496168 44.801268 
L 603.078541 43.987374 
L 603.660914 45.869533 
L 604.243287 46.16852 
L 604.825661 44.769092 
L 605.408034 45.647941 
L 605.990407 43.844786 
L 606.572781 43.967355 
L 607.155154 38.326001 
L 607.737527 42.187905 
L 608.3199 38.067724 
L 609.484647 37.083214 
L 610.06702 41.422457 
L 610.649393 39.277988 
L 611.231767 42.690854 
L 611.81414 43.82324 
L 612.396513 43.774745 
L 612.978887 40.572173 
L 613.56126 40.453807 
L 614.143633 39.054083 
L 614.726006 39.560628 
L 615.30838 43.610862 
L 615.890753 50.936165 
L 616.473126 50.124683 
L 617.0555 50.496698 
L 617.637873 54.591765 
L 618.220246 54.795504 
L 618.802619 51.668351 
L 619.384993 53.437624 
L 619.967366 56.406954 
L 620.549739 54.65032 
L 621.714486 60.946809 
L 622.296859 60.935744 
L 622.879232 58.399468 
L 624.043979 55.69739 
L 624.626352 48.676161 
L 625.208726 44.624433 
L 625.791099 46.604975 
L 626.373472 47.003597 
L 626.955845 43.317866 
L 628.120592 51.76709 
L 628.702965 50.889823 
L 629.285339 46.98289 
L 629.867712 46.279961 
L 630.450085 47.330779 
L 631.032458 47.031367 
L 631.614832 44.758067 
L 632.197205 44.064682 
L 632.779578 44.242601 
L 633.361951 38.348723 
L 633.944325 37.283107 
L 634.526698 38.542858 
L 635.691445 36.285559 
L 636.273818 35.152419 
L 636.856191 35.397652 
L 637.438564 36.896203 
L 638.020938 41.553311 
L 638.603311 40.123589 
L 639.185684 42.296704 
L 639.768058 38.22984 
L 640.932804 42.047552 
L 641.515177 46.248928 
L 642.097551 48.709136 
L 642.679924 52.084906 
L 643.262297 49.764677 
L 643.844671 50.05345 
L 644.427044 49.063843 
L 645.009417 48.847254 
L 645.59179 48.931509 
L 646.174164 48.08221 
L 646.756537 45.912092 
L 647.33891 47.087004 
L 647.921284 39.82405 
L 648.503657 38.397572 
L 649.08603 39.975002 
L 649.668403 38.759268 
L 650.250777 34.152094 
L 650.83315 42.984613 
L 651.415523 43.820816 
L 651.997897 44.088901 
L 652.58027 43.499328 
L 653.162643 46.350489 
L 653.745016 40.25246 
L 654.32739 41.18914 
L 654.909763 38.512153 
L 655.492136 40.069147 
L 656.07451 36.992561 
L 657.239256 40.806522 
L 657.821629 40.128991 
L 658.404003 43.861227 
L 658.986376 43.684651 
L 659.568749 44.602588 
L 660.151122 42.480883 
L 660.733496 41.783551 
L 661.315869 36.184654 
L 661.898242 41.285349 
L 662.480616 41.035056 
L 663.062989 38.525413 
L 663.645362 40.275491 
L 664.227735 39.589876 
L 664.810109 37.876096 
L 665.392482 36.716787 
L 665.974855 38.659892 
L 666.557229 36.180385 
L 667.139602 36.759375 
L 667.721975 35.972552 
L 668.304348 38.637432 
L 668.886722 39.401697 
L 669.469095 39.867178 
L 670.051468 41.248323 
L 670.633842 42.966302 
L 671.216215 42.481886 
L 671.798588 43.841952 
L 672.380961 48.041913 
L 672.963335 47.483807 
L 673.545708 44.027866 
L 674.128081 44.955501 
L 674.710455 42.931405 
L 674.710455 42.931405 
" clip-path="url(#p8194c1918b)" style="fill: none; stroke: #1f77b4; stroke-width: 1.5; stroke-linecap: square"/>
   </g>
   <g id="line2d_18">
    <path d="M 98.743278 280.059638 
L 110.390744 271.298146 
L 122.03821 257.738654 
L 133.685675 249.306259 
L 145.333141 248.541971 
L 156.980607 221.665851 
L 168.628072 222.152554 
L 180.275538 209.601155 
L 191.923003 194.805062 
L 203.570469 189.656116 
L 215.217935 186.403975 
L 226.8654 183.910896 
L 238.512866 173.542582 
L 250.160332 174.169397 
L 261.807797 168.727068 
L 273.455263 140.575084 
L 285.102729 137.236123 
L 296.750194 133.388486 
L 308.39766 115.778488 
L 320.045126 117.912209 
L 331.692591 109.145753 
L 343.340057 101.491716 
L 354.987523 104.19775 
L 366.634988 99.985405 
L 378.282454 100.833418 
L 389.929919 94.228183 
L 401.577385 97.206245 
L 413.224851 108.199603 
L 424.872316 88.794402 
L 436.519782 85.32552 
L 448.167248 71.122758 
L 459.814713 70.47342 
L 471.462179 75.597282 
L 483.109645 71.918583 
L 494.75711 60.416758 
L 506.404576 65.675779 
L 518.052042 61.052491 
L 529.699507 52.479828 
L 541.346973 54.065327 
L 552.994439 55.783543 
L 564.641904 50.156785 
L 576.28937 54.632334 
L 587.936835 47.949109 
L 599.584301 44.450842 
L 611.231767 42.096247 
L 622.879232 52.831311 
L 634.526698 41.460127 
L 646.174164 44.750493 
L 657.821629 41.206444 
L 669.469095 40.895786 
" clip-path="url(#p8194c1918b)" style="fill: none; stroke: #ff0000; stroke-width: 1.5; stroke-linecap: square"/>
   </g>
   <g id="patch_3">
    <path d="M 63.83 304 
L 63.83 21.302193 
" style="fill: none; stroke: #000000; stroke-width: 0.8; stroke-linejoin: miter; stroke-linecap: square"/>
   </g>
   <g id="patch_4">
    <path d="M 703.8 304 
L 703.8 21.302193 
" style="fill: none; stroke: #000000; stroke-width: 0.8; stroke-linejoin: miter; stroke-linecap: square"/>
   </g>
   <g id="patch_5">
    <path d="M 63.83 304 
L 703.8 304 
" style="fill: none; stroke: #000000; stroke-width: 0.8; stroke-linejoin: miter; stroke-linecap: square"/>
   </g>
   <g id="patch_6">
    <path d="M 63.83 21.302193 
L 703.8 21.302193 
" style="fill: none; stroke: #000000; stroke-width: 0.8; stroke-linejoin: miter; stroke-linecap: square"/>
   </g>
  </g>
 </g>
 <defs>
  <clipPath id="p8194c1918b">
   <rect x="63.83" y="21.302193" width="639.97" height="282.697807"/>
  </clipPath>
 </defs>
</svg>
