<?xml version="1.0" encoding="utf-8" standalone="no"?>
<!DOCTYPE svg PUBLIC "-//W3C//DTD SVG 1.1//EN"
  "http://www.w3.org/Graphics/SVG/1.1/DTD/svg11.dtd">
<svg xmlns:xlink="http://www.w3.org/1999/xlink" width="720pt" height="360pt" viewBox="0 0 720 360" xmlns="http://www.w3.org/2000/svg" version="1.1">
 <metadata>
  <rdf:RDF xmlns:dc="http://purl.org/dc/elements/1.1/" xmlns:cc="http://creativecommons.org/ns#" xmlns:rdf="http://www.w3.org/1999/02/22-rdf-syntax-ns#">
   <cc:Work>
    <dc:type rdf:resource="http://purl.org/dc/dcmitype/StillImage"/>
    <dc:date>2024-04-23T19:54:45.410894</dc:date>
    <dc:format>image/svg+xml</dc:format>
    <dc:creator>
     <cc:Agent>
      <dc:title>Matplotlib v3.7.5, https://matplotlib.org/</dc:title>
     </cc:Agent>
    </dc:creator>
   </cc:Work>
  </rdf:RDF>
 </metadata>
 <defs>
  <style type="text/css">*{stroke-linejoin: round; stroke-linecap: butt}</style>
 </defs>
 <g id="figure_1">
  <g id="patch_1">
   <path d="M 0 360 
L 720 360 
L 720 0 
L 0 0 
z
" style="fill: #ffffff"/>
  </g>
  <g id="axes_1">
   <g id="patch_2">
    <path d="M 63.83 304 
L 703.8 304 
L 703.8 18.916314 
L 63.83 18.916314 
z
" style="fill: #ffffff"/>
   </g>
   <g id="matplotlib.axis_1">
    <g id="xtick_1">
     <g id="line2d_1">
      <defs>
       <path id="m87a6368d77" d="M 0 0 
L 0 3.5 
" style="stroke: #000000; stroke-width: 0.8"/>
      </defs>
      <g>
       <use xlink:href="#m87a6368d77" x="92.337172" y="304" style="stroke: #000000; stroke-width: 0.8"/>
      </g>
     </g>
     <g id="text_1">
      <text style="font: 15px 'DejaVu Sans', 'Bitstream Vera Sans', 'Computer Modern Sans Serif', 'Lucida Grande', 'Verdana', 'Geneva', 'Lucid', 'Arial', 'Helvetica', 'Avant Garde', sans-serif; text-anchor: middle" x="92.337172" y="322.397656" transform="rotate(-0 92.337172 322.397656)">0</text>
     </g>
    </g>
    <g id="xtick_2">
     <g id="line2d_2">
      <g>
       <use xlink:href="#m87a6368d77" x="165.133832" y="304" style="stroke: #000000; stroke-width: 0.8"/>
      </g>
     </g>
     <g id="text_2">
      <text style="font: 15px 'DejaVu Sans', 'Bitstream Vera Sans', 'Computer Modern Sans Serif', 'Lucida Grande', 'Verdana', 'Geneva', 'Lucid', 'Arial', 'Helvetica', 'Avant Garde', sans-serif; text-anchor: middle" x="165.133832" y="322.397656" transform="rotate(-0 165.133832 322.397656)">2500</text>
     </g>
    </g>
    <g id="xtick_3">
     <g id="line2d_3">
      <g>
       <use xlink:href="#m87a6368d77" x="237.930493" y="304" style="stroke: #000000; stroke-width: 0.8"/>
      </g>
     </g>
     <g id="text_3">
      <text style="font: 15px 'DejaVu Sans', 'Bitstream Vera Sans', 'Computer Modern Sans Serif', 'Lucida Grande', 'Verdana', 'Geneva', 'Lucid', 'Arial', 'Helvetica', 'Avant Garde', sans-serif; text-anchor: middle" x="237.930493" y="322.397656" transform="rotate(-0 237.930493 322.397656)">5000</text>
     </g>
    </g>
    <g id="xtick_4">
     <g id="line2d_4">
      <g>
       <use xlink:href="#m87a6368d77" x="310.727153" y="304" style="stroke: #000000; stroke-width: 0.8"/>
      </g>
     </g>
     <g id="text_4">
      <text style="font: 15px 'DejaVu Sans', 'Bitstream Vera Sans', 'Computer Modern Sans Serif', 'Lucida Grande', 'Verdana', 'Geneva', 'Lucid', 'Arial', 'Helvetica', 'Avant Garde', sans-serif; text-anchor: middle" x="310.727153" y="322.397656" transform="rotate(-0 310.727153 322.397656)">7500</text>
     </g>
    </g>
    <g id="xtick_5">
     <g id="line2d_5">
      <g>
       <use xlink:href="#m87a6368d77" x="383.523813" y="304" style="stroke: #000000; stroke-width: 0.8"/>
      </g>
     </g>
     <g id="text_5">
      <text style="font: 15px 'DejaVu Sans', 'Bitstream Vera Sans', 'Computer Modern Sans Serif', 'Lucida Grande', 'Verdana', 'Geneva', 'Lucid', 'Arial', 'Helvetica', 'Avant Garde', sans-serif; text-anchor: middle" x="383.523813" y="322.397656" transform="rotate(-0 383.523813 322.397656)">10000</text>
     </g>
    </g>
    <g id="xtick_6">
     <g id="line2d_6">
      <g>
       <use xlink:href="#m87a6368d77" x="456.320474" y="304" style="stroke: #000000; stroke-width: 0.8"/>
      </g>
     </g>
     <g id="text_6">
      <text style="font: 15px 'DejaVu Sans', 'Bitstream Vera Sans', 'Computer Modern Sans Serif', 'Lucida Grande', 'Verdana', 'Geneva', 'Lucid', 'Arial', 'Helvetica', 'Avant Garde', sans-serif; text-anchor: middle" x="456.320474" y="322.397656" transform="rotate(-0 456.320474 322.397656)">12500</text>
     </g>
    </g>
    <g id="xtick_7">
     <g id="line2d_7">
      <g>
       <use xlink:href="#m87a6368d77" x="529.117134" y="304" style="stroke: #000000; stroke-width: 0.8"/>
      </g>
     </g>
     <g id="text_7">
      <text style="font: 15px 'DejaVu Sans', 'Bitstream Vera Sans', 'Computer Modern Sans Serif', 'Lucida Grande', 'Verdana', 'Geneva', 'Lucid', 'Arial', 'Helvetica', 'Avant Garde', sans-serif; text-anchor: middle" x="529.117134" y="322.397656" transform="rotate(-0 529.117134 322.397656)">15000</text>
     </g>
    </g>
    <g id="xtick_8">
     <g id="line2d_8">
      <g>
       <use xlink:href="#m87a6368d77" x="601.913794" y="304" style="stroke: #000000; stroke-width: 0.8"/>
      </g>
     </g>
     <g id="text_8">
      <text style="font: 15px 'DejaVu Sans', 'Bitstream Vera Sans', 'Computer Modern Sans Serif', 'Lucida Grande', 'Verdana', 'Geneva', 'Lucid', 'Arial', 'Helvetica', 'Avant Garde', sans-serif; text-anchor: middle" x="601.913794" y="322.397656" transform="rotate(-0 601.913794 322.397656)">17500</text>
     </g>
    </g>
    <g id="xtick_9">
     <g id="line2d_9">
      <g>
       <use xlink:href="#m87a6368d77" x="674.710455" y="304" style="stroke: #000000; stroke-width: 0.8"/>
      </g>
     </g>
     <g id="text_9">
      <text style="font: 15px 'DejaVu Sans', 'Bitstream Vera Sans', 'Computer Modern Sans Serif', 'Lucida Grande', 'Verdana', 'Geneva', 'Lucid', 'Arial', 'Helvetica', 'Avant Garde', sans-serif; text-anchor: middle" x="674.710455" y="322.397656" transform="rotate(-0 674.710455 322.397656)">20000</text>
     </g>
    </g>
    <g id="text_10">
     <text style="font: 15px 'DejaVu Sans', 'Bitstream Vera Sans', 'Computer Modern Sans Serif', 'Lucida Grande', 'Verdana', 'Geneva', 'Lucid', 'Arial', 'Helvetica', 'Avant Garde', sans-serif; text-anchor: middle" x="383.815" y="340.914844" transform="rotate(-0 383.815 340.914844)">Episodes</text>
    </g>
   </g>
   <g id="matplotlib.axis_2">
    <g id="ytick_1">
     <g id="line2d_10">
      <defs>
       <path id="md113caad94" d="M 0 0 
L -3.5 0 
" style="stroke: #000000; stroke-width: 0.8"/>
      </defs>
      <g>
       <use xlink:href="#md113caad94" x="63.83" y="287.53055" style="stroke: #000000; stroke-width: 0.8"/>
      </g>
     </g>
     <g id="text_11">
      <text style="font: 15px 'DejaVu Sans', 'Bitstream Vera Sans', 'Computer Modern Sans Serif', 'Lucida Grande', 'Verdana', 'Geneva', 'Lucid', 'Arial', 'Helvetica', 'Avant Garde', sans-serif; text-anchor: end" x="56.83" y="293.229378" transform="rotate(-0 56.83 293.229378)">−8</text>
     </g>
    </g>
    <g id="ytick_2">
     <g id="line2d_11">
      <g>
       <use xlink:href="#md113caad94" x="63.83" y="243.283219" style="stroke: #000000; stroke-width: 0.8"/>
      </g>
     </g>
     <g id="text_12">
      <text style="font: 15px 'DejaVu Sans', 'Bitstream Vera Sans', 'Computer Modern Sans Serif', 'Lucida Grande', 'Verdana', 'Geneva', 'Lucid', 'Arial', 'Helvetica', 'Avant Garde', sans-serif; text-anchor: end" x="56.83" y="248.982047" transform="rotate(-0 56.83 248.982047)">−7</text>
     </g>
    </g>
    <g id="ytick_3">
     <g id="line2d_12">
      <g>
       <use xlink:href="#md113caad94" x="63.83" y="199.035888" style="stroke: #000000; stroke-width: 0.8"/>
      </g>
     </g>
     <g id="text_13">
      <text style="font: 15px 'DejaVu Sans', 'Bitstream Vera Sans', 'Computer Modern Sans Serif', 'Lucida Grande', 'Verdana', 'Geneva', 'Lucid', 'Arial', 'Helvetica', 'Avant Garde', sans-serif; text-anchor: end" x="56.83" y="204.734716" transform="rotate(-0 56.83 204.734716)">−6</text>
     </g>
    </g>
    <g id="ytick_4">
     <g id="line2d_13">
      <g>
       <use xlink:href="#md113caad94" x="63.83" y="154.788557" style="stroke: #000000; stroke-width: 0.8"/>
      </g>
     </g>
     <g id="text_14">
      <text style="font: 15px 'DejaVu Sans', 'Bitstream Vera Sans', 'Computer Modern Sans Serif', 'Lucida Grande', 'Verdana', 'Geneva', 'Lucid', 'Arial', 'Helvetica', 'Avant Garde', sans-serif; text-anchor: end" x="56.83" y="160.487385" transform="rotate(-0 56.83 160.487385)">−5</text>
     </g>
    </g>
    <g id="ytick_5">
     <g id="line2d_14">
      <g>
       <use xlink:href="#md113caad94" x="63.83" y="110.541226" style="stroke: #000000; stroke-width: 0.8"/>
      </g>
     </g>
     <g id="text_15">
      <text style="font: 15px 'DejaVu Sans', 'Bitstream Vera Sans', 'Computer Modern Sans Serif', 'Lucida Grande', 'Verdana', 'Geneva', 'Lucid', 'Arial', 'Helvetica', 'Avant Garde', sans-serif; text-anchor: end" x="56.83" y="116.240054" transform="rotate(-0 56.83 116.240054)">−4</text>
     </g>
    </g>
    <g id="ytick_6">
     <g id="line2d_15">
      <g>
       <use xlink:href="#md113caad94" x="63.83" y="66.293895" style="stroke: #000000; stroke-width: 0.8"/>
      </g>
     </g>
     <g id="text_16">
      <text style="font: 15px 'DejaVu Sans', 'Bitstream Vera Sans', 'Computer Modern Sans Serif', 'Lucida Grande', 'Verdana', 'Geneva', 'Lucid', 'Arial', 'Helvetica', 'Avant Garde', sans-serif; text-anchor: end" x="56.83" y="71.992723" transform="rotate(-0 56.83 71.992723)">−3</text>
     </g>
    </g>
    <g id="ytick_7">
     <g id="line2d_16">
      <g>
       <use xlink:href="#md113caad94" x="63.83" y="22.046564" style="stroke: #000000; stroke-width: 0.8"/>
      </g>
     </g>
     <g id="text_17">
      <text style="font: 15px 'DejaVu Sans', 'Bitstream Vera Sans', 'Computer Modern Sans Serif', 'Lucida Grande', 'Verdana', 'Geneva', 'Lucid', 'Arial', 'Helvetica', 'Avant Garde', sans-serif; text-anchor: end" x="56.83" y="27.745392" transform="rotate(-0 56.83 27.745392)">−2</text>
     </g>
    </g>
    <g id="text_18">
     <text style="font: 15px 'DejaVu Sans', 'Bitstream Vera Sans', 'Computer Modern Sans Serif', 'Lucida Grande', 'Verdana', 'Geneva', 'Lucid', 'Arial', 'Helvetica', 'Avant Garde', sans-serif; text-anchor: middle" x="27.597188" y="161.458157" transform="rotate(-90 27.597188 161.458157)">Episode Reward Mean</text>
    </g>
   </g>
   <g id="line2d_17">
    <path d="M 92.919545 250.28254 
L 93.501919 248.826921 
L 94.084292 273.470416 
L 94.666665 275.723617 
L 95.249039 274.403799 
L 95.831412 274.023553 
L 96.413785 282.219674 
L 96.996158 277.38908 
L 97.578532 276.823079 
L 98.160905 279.354293 
L 98.743278 291.041651 
L 99.325652 290.161477 
L 99.908025 289.538267 
L 100.490398 287.290917 
L 101.072771 289.235844 
L 101.655145 282.606184 
L 102.237518 285.282557 
L 102.819891 272.438247 
L 103.402265 275.469179 
L 103.984638 269.583293 
L 104.567011 270.826926 
L 105.149384 261.575792 
L 106.314131 271.71366 
L 106.896504 272.619869 
L 107.478878 272.430862 
L 108.061251 277.049589 
L 108.643624 278.936208 
L 109.225997 270.150545 
L 110.390744 258.153281 
L 110.973117 258.34915 
L 112.137864 266.077159 
L 112.720237 276.111605 
L 113.30261 281.679435 
L 113.884984 277.197555 
L 114.467357 268.735657 
L 115.04973 266.150202 
L 115.632103 260.430449 
L 116.214477 259.461874 
L 117.379223 254.995986 
L 117.961597 250.861402 
L 119.126343 236.481741 
L 119.708716 234.763945 
L 120.873463 232.41059 
L 121.455836 240.206238 
L 122.03821 242.024865 
L 122.620583 246.183736 
L 123.202956 260.34729 
L 123.785329 268.974428 
L 124.367703 273.497817 
L 124.950076 273.74367 
L 125.532449 283.940527 
L 126.114823 282.975177 
L 126.697196 276.138389 
L 127.279569 264.823951 
L 127.861942 274.899388 
L 128.444316 263.489355 
L 129.026689 254.634816 
L 129.609062 254.934976 
L 130.191436 259.735787 
L 130.773809 239.024759 
L 131.356182 241.631485 
L 131.938555 241.856202 
L 132.520929 235.313648 
L 133.103302 226.343449 
L 133.685675 239.487037 
L 134.268049 242.981734 
L 134.850422 239.957695 
L 135.432795 241.402778 
L 136.015168 250.383137 
L 136.597542 245.956869 
L 137.179915 238.798074 
L 137.762288 242.054159 
L 138.344661 241.232877 
L 138.927035 241.191085 
L 139.509408 244.29917 
L 140.091781 242.450371 
L 140.674155 243.040449 
L 141.256528 243.39546 
L 143.003648 225.311309 
L 143.586021 225.504909 
L 144.168394 222.511375 
L 144.750768 221.2594 
L 145.915514 237.052278 
L 146.497887 232.300806 
L 147.080261 233.808913 
L 147.662634 241.475935 
L 148.245007 243.161094 
L 148.827381 240.488717 
L 149.409754 238.594243 
L 149.992127 247.894032 
L 150.5745 242.549585 
L 151.156874 242.703855 
L 151.739247 245.565191 
L 152.32162 236.752582 
L 152.903994 220.57284 
L 153.486367 223.72783 
L 154.06874 205.866788 
L 154.651113 206.195419 
L 155.233487 209.126927 
L 155.81586 221.341254 
L 156.398233 221.350242 
L 156.980607 233.190118 
L 157.56298 236.833718 
L 158.145353 238.427778 
L 158.727726 229.906038 
L 159.3101 229.943106 
L 159.892473 227.636971 
L 160.474846 230.853174 
L 161.057219 241.25483 
L 161.639593 245.486597 
L 162.221966 244.545346 
L 162.804339 246.586379 
L 163.386713 234.153567 
L 163.969086 229.254546 
L 164.551459 237.744641 
L 165.133832 233.125626 
L 165.716206 235.288799 
L 166.298579 241.967173 
L 166.880952 252.679897 
L 167.463326 230.684472 
L 168.045699 229.134287 
L 168.628072 224.299596 
L 169.210445 225.932815 
L 169.792819 219.106557 
L 170.375192 234.509054 
L 170.957565 242.862533 
L 171.539939 237.904552 
L 172.122312 237.442182 
L 172.704685 241.146462 
L 173.287058 239.557327 
L 173.869432 236.072536 
L 174.451805 249.901383 
L 175.034178 248.421032 
L 175.616552 239.410876 
L 176.198925 233.868846 
L 176.781298 230.218886 
L 177.363671 218.720248 
L 177.946045 219.914883 
L 178.528418 224.949663 
L 179.110791 230.956648 
L 179.693165 230.076068 
L 180.275538 239.960783 
L 180.857911 223.37497 
L 181.440284 211.242916 
L 182.022658 211.405069 
L 182.605031 225.416117 
L 183.187404 208.115674 
L 183.769778 215.870237 
L 184.352151 219.88184 
L 184.934524 211.112942 
L 185.516897 191.030858 
L 186.099271 202.053674 
L 186.681644 203.139307 
L 187.264017 207.207921 
L 188.428764 219.245901 
L 189.011137 208.446953 
L 189.59351 211.048034 
L 190.175884 209.380988 
L 190.758257 208.410174 
L 191.34063 211.979435 
L 191.923003 218.254394 
L 193.08775 213.365461 
L 193.670123 215.520841 
L 194.252497 220.067501 
L 194.83487 218.38468 
L 195.999616 207.739768 
L 196.58199 205.33528 
L 197.164363 199.375576 
L 197.746736 196.149038 
L 198.32911 199.804834 
L 198.911483 210.302148 
L 199.493856 212.190696 
L 200.076229 208.593683 
L 200.658603 213.756101 
L 201.240976 212.002386 
L 201.823349 205.195675 
L 202.405723 196.107784 
L 202.988096 191.18054 
L 203.570469 190.00858 
L 204.152842 192.575631 
L 204.735216 189.976935 
L 205.317589 199.920585 
L 205.899962 195.410865 
L 206.482336 192.459498 
L 207.064709 186.262006 
L 207.647082 189.48252 
L 208.229455 179.681511 
L 208.811829 184.347239 
L 209.394202 184.301871 
L 209.976575 181.872884 
L 210.558948 182.260417 
L 211.141322 185.776063 
L 211.723695 188.271449 
L 212.306068 183.936585 
L 212.888442 193.246774 
L 213.470815 193.326696 
L 214.635561 184.358572 
L 215.217935 186.852805 
L 215.800308 181.983142 
L 216.382681 182.573167 
L 216.965055 190.559389 
L 217.547428 195.281604 
L 218.129801 194.516491 
L 218.712174 187.958183 
L 219.294548 186.061976 
L 219.876921 179.706792 
L 220.459294 180.380697 
L 221.041668 180.3992 
L 221.624041 180.550494 
L 222.206414 179.637116 
L 222.788787 178.355305 
L 223.371161 174.987665 
L 223.953534 176.514306 
L 224.535907 178.534439 
L 225.700654 176.133883 
L 226.283027 173.019327 
L 226.8654 170.685411 
L 227.447774 173.262613 
L 228.61252 169.874175 
L 229.194894 173.038257 
L 229.777267 174.970719 
L 230.35964 175.645182 
L 230.942013 178.733496 
L 231.524387 179.197542 
L 232.10676 174.64761 
L 233.271507 172.654567 
L 233.85388 173.799612 
L 234.436253 178.257828 
L 235.018626 177.243958 
L 235.601 172.093151 
L 236.183373 169.477771 
L 236.765746 161.451257 
L 237.348119 159.40315 
L 237.930493 163.619392 
L 238.512866 166.168703 
L 239.095239 166.046325 
L 239.677613 170.988778 
L 240.259986 169.124203 
L 240.842359 175.781079 
L 241.424732 175.488509 
L 242.007106 174.588486 
L 242.589479 171.425848 
L 243.171852 170.322891 
L 243.754226 165.144631 
L 244.336599 164.355073 
L 244.918972 171.313027 
L 245.501345 170.323747 
L 246.083719 166.539181 
L 246.666092 165.022331 
L 247.248465 163.961744 
L 247.830839 156.451496 
L 248.413212 154.095938 
L 248.995585 156.991463 
L 249.577958 151.269179 
L 250.160332 159.341409 
L 250.742705 159.319385 
L 251.907452 157.335261 
L 252.489825 162.127415 
L 253.072198 150.624491 
L 253.654571 146.531994 
L 254.236945 145.599666 
L 254.819318 144.444632 
L 255.401691 132.125565 
L 255.984065 131.984476 
L 256.566438 133.873261 
L 257.148811 139.605238 
L 257.731184 141.329763 
L 258.313558 150.097017 
L 258.895931 154.039403 
L 259.478304 154.099861 
L 260.060677 148.690475 
L 260.643051 146.528277 
L 261.225424 146.928972 
L 261.807797 145.28456 
L 262.390171 142.784507 
L 262.972544 143.981062 
L 263.554917 146.19019 
L 264.13729 141.933864 
L 264.719664 142.850511 
L 265.302037 141.273685 
L 265.88441 137.398586 
L 266.466784 132.463468 
L 267.63153 139.35445 
L 268.213903 138.585112 
L 268.796277 140.263515 
L 269.37865 142.647028 
L 269.961023 139.689688 
L 270.543397 133.838438 
L 271.12577 137.688406 
L 272.290516 132.81266 
L 272.87289 129.875188 
L 273.455263 129.324092 
L 274.037636 126.930199 
L 274.62001 131.769884 
L 275.202383 131.233534 
L 275.784756 133.773682 
L 276.367129 131.5614 
L 276.949503 128.083027 
L 277.531876 123.713531 
L 278.114249 127.363618 
L 278.696623 127.346694 
L 279.278996 129.002047 
L 280.443742 134.33127 
L 281.608489 130.151507 
L 282.190862 130.869064 
L 282.773236 131.167839 
L 283.355609 130.019231 
L 283.937982 122.992395 
L 284.520355 125.117795 
L 285.102729 120.614621 
L 285.685102 121.625146 
L 286.849848 124.37494 
L 287.432222 125.191982 
L 288.014595 126.876011 
L 288.596968 123.842855 
L 289.179342 125.753054 
L 289.761715 129.249284 
L 290.344088 135.139946 
L 290.926461 132.860133 
L 291.508835 135.647074 
L 292.091208 128.264901 
L 292.673581 130.319146 
L 293.255955 122.481368 
L 293.838328 127.725017 
L 294.420701 127.106715 
L 295.003074 129.272871 
L 295.585448 120.529758 
L 296.167821 120.250187 
L 296.750194 112.695338 
L 297.332568 108.64102 
L 297.914941 109.575094 
L 298.497314 113.302545 
L 299.079687 112.333982 
L 299.662061 114.758357 
L 300.244434 115.823607 
L 300.826807 117.669706 
L 301.409181 117.168204 
L 301.991554 113.392067 
L 302.573927 110.820287 
L 303.738674 99.227 
L 304.321047 101.342814 
L 304.90342 109.161813 
L 305.485794 114.011998 
L 306.65054 126.921876 
L 307.232913 124.736206 
L 307.815287 123.571839 
L 308.39766 119.007484 
L 308.980033 113.361894 
L 309.562406 105.385013 
L 310.14478 107.61982 
L 310.727153 107.931961 
L 311.309526 103.568526 
L 311.8919 107.472388 
L 312.474273 105.997255 
L 313.056646 103.369755 
L 313.639019 97.681931 
L 314.221393 104.163302 
L 314.803766 103.461721 
L 315.386139 106.751126 
L 315.968513 109.163397 
L 316.550886 105.87955 
L 317.133259 105.588067 
L 317.715632 104.401875 
L 318.298006 104.608324 
L 318.880379 106.417601 
L 319.462752 110.257297 
L 320.045126 107.994966 
L 321.209872 113.793883 
L 321.792245 108.869961 
L 322.374619 105.117618 
L 322.956992 107.397985 
L 323.539365 107.012074 
L 324.121739 106.031588 
L 324.704112 101.4231 
L 325.286485 102.687022 
L 327.033605 93.216976 
L 327.615978 98.155293 
L 328.198352 97.927668 
L 328.780725 97.934596 
L 329.363098 100.999968 
L 329.945471 98.473814 
L 330.527845 97.059162 
L 331.110218 99.136857 
L 331.692591 98.963887 
L 332.274965 97.304328 
L 332.857338 101.017225 
L 334.022084 97.90921 
L 334.604458 99.304074 
L 335.186831 94.355428 
L 335.769204 93.058153 
L 336.351577 88.349225 
L 336.933951 87.996743 
L 337.516324 86.369694 
L 338.098697 91.330319 
L 338.681071 95.070851 
L 339.263444 100.630329 
L 339.845817 102.402369 
L 340.42819 99.467438 
L 341.010564 98.320835 
L 341.592937 90.392546 
L 342.17531 89.992894 
L 342.757684 90.688575 
L 343.340057 92.167464 
L 343.92243 89.34499 
L 344.504803 93.927749 
L 345.087177 92.048961 
L 345.66955 83.308672 
L 346.251923 85.31813 
L 346.834297 83.468625 
L 347.41667 82.595376 
L 347.999043 82.983592 
L 348.581416 88.809745 
L 349.16379 87.59427 
L 349.746163 90.387001 
L 350.328536 85.549454 
L 350.91091 89.05049 
L 352.658029 81.774594 
L 353.240403 82.8059 
L 354.405149 78.345985 
L 354.987523 81.541316 
L 355.569896 80.722479 
L 356.152269 80.292175 
L 356.734642 77.688037 
L 357.317016 76.134324 
L 357.899389 71.843214 
L 358.481762 76.751055 
L 359.064135 77.690908 
L 359.646509 76.155108 
L 360.228882 79.281842 
L 360.811255 77.620629 
L 361.393629 69.85004 
L 361.976002 68.672221 
L 362.558375 70.600079 
L 363.140748 68.502436 
L 363.723122 72.138414 
L 364.305495 78.015515 
L 364.887868 77.725386 
L 365.470242 76.175679 
L 366.052615 77.710349 
L 366.634988 79.758445 
L 367.217361 78.031717 
L 367.799735 75.553871 
L 368.964481 71.534853 
L 369.546855 65.37384 
L 370.129228 65.099817 
L 371.293974 73.495817 
L 371.876348 70.601587 
L 372.458721 75.156189 
L 373.041094 76.577849 
L 373.623468 76.167677 
L 374.205841 70.163193 
L 374.788214 75.651815 
L 375.370587 73.286574 
L 375.952961 73.607947 
L 376.535334 71.887181 
L 377.117707 76.225809 
L 377.700081 72.007198 
L 378.282454 70.008733 
L 378.864827 66.205306 
L 379.4472 67.321026 
L 380.029574 65.876818 
L 380.611947 67.286606 
L 381.19432 66.645434 
L 381.776694 62.993039 
L 382.359067 63.128071 
L 382.94144 63.919065 
L 383.523813 69.26917 
L 384.106187 70.027208 
L 384.68856 74.470946 
L 385.270933 70.85983 
L 385.853306 66.369043 
L 386.43568 63.839716 
L 387.018053 64.147798 
L 387.600426 64.982103 
L 388.1828 64.620607 
L 388.765173 67.525335 
L 389.347546 63.486543 
L 389.929919 65.38462 
L 390.512293 63.350085 
L 391.094666 68.23539 
L 391.677039 67.492518 
L 392.259413 68.377252 
L 392.841786 65.682262 
L 393.424159 65.151193 
L 394.006532 65.534135 
L 395.171279 65.964954 
L 395.753652 65.684081 
L 396.918399 59.486513 
L 397.500772 57.872562 
L 398.083145 56.830573 
L 398.665519 54.570307 
L 399.247892 65.464789 
L 400.412639 70.904994 
L 400.995012 67.886384 
L 401.577385 69.399786 
L 402.159758 58.424495 
L 402.742132 52.739954 
L 403.324505 49.203782 
L 403.906878 52.407752 
L 404.489252 51.368019 
L 405.071625 52.004523 
L 405.653998 55.891811 
L 406.236371 64.043267 
L 406.818745 66.415017 
L 407.401118 66.613394 
L 407.983491 67.755938 
L 408.565865 64.128926 
L 409.148238 57.725226 
L 409.730611 52.659944 
L 410.895358 46.094358 
L 411.477731 45.394143 
L 412.060104 45.311083 
L 412.642477 52.306708 
L 413.224851 54.471669 
L 413.807224 60.918594 
L 414.389597 61.491331 
L 414.971971 60.663094 
L 415.554344 57.182038 
L 416.71909 65.542575 
L 417.301464 65.379379 
L 417.883837 66.858911 
L 419.048584 63.454673 
L 419.630957 56.064573 
L 420.21333 55.297241 
L 421.378077 59.532024 
L 422.542823 57.464828 
L 423.125197 60.791913 
L 424.289943 54.920986 
L 424.872316 52.317164 
L 425.45469 53.591497 
L 426.037063 52.760783 
L 426.619436 52.955253 
L 427.784183 59.349723 
L 428.366556 61.412167 
L 428.948929 57.536647 
L 429.531303 58.633682 
L 430.113676 53.305824 
L 430.696049 53.362293 
L 431.278423 47.03148 
L 431.860796 45.933771 
L 432.443169 44.386042 
L 433.025542 44.946981 
L 433.607916 44.865975 
L 434.190289 53.575488 
L 434.772662 56.620576 
L 435.355035 57.477918 
L 435.937409 57.693755 
L 436.519782 55.873462 
L 437.102155 52.885582 
L 437.684529 51.858141 
L 438.266902 54.590984 
L 438.849275 53.950867 
L 439.431648 54.231955 
L 440.014022 53.944412 
L 440.596395 56.372602 
L 441.178768 51.970616 
L 441.761142 56.903457 
L 442.343515 55.498108 
L 442.925888 55.33019 
L 443.508261 56.089106 
L 444.090635 54.496314 
L 444.673008 49.568613 
L 445.255381 51.924244 
L 445.837755 50.250145 
L 446.420128 47.198558 
L 447.002501 48.264791 
L 447.584874 48.105616 
L 448.167248 50.924786 
L 448.749621 54.571666 
L 449.331994 55.051769 
L 449.914368 55.80782 
L 450.496741 61.254266 
L 451.079114 56.006464 
L 451.661487 53.968839 
L 452.243861 58.109904 
L 452.826234 59.850456 
L 453.408607 54.795289 
L 453.990981 59.166184 
L 454.573354 56.3494 
L 455.155727 50.609277 
L 455.7381 47.529746 
L 456.320474 46.776148 
L 456.902847 45.5039 
L 457.48522 50.496243 
L 458.067594 50.269845 
L 458.649967 52.036176 
L 459.23234 54.177383 
L 459.814713 51.888527 
L 460.397087 51.987261 
L 460.97946 57.585564 
L 461.561833 57.759266 
L 462.72658 58.920937 
L 463.308953 56.745925 
L 463.891326 52.037425 
L 464.4737 49.619897 
L 465.056073 49.231947 
L 465.638446 49.822885 
L 466.220819 53.551554 
L 466.803193 55.778067 
L 467.385566 58.844996 
L 468.550313 62.593207 
L 469.132686 58.799339 
L 469.715059 57.145899 
L 470.297432 57.488398 
L 470.879806 53.874238 
L 471.462179 53.052123 
L 472.044552 52.723509 
L 472.626926 54.897498 
L 473.209299 54.027831 
L 473.791672 56.34024 
L 474.374045 54.879639 
L 474.956419 55.110091 
L 476.121165 46.285742 
L 476.703539 44.625459 
L 477.285912 44.363772 
L 477.868285 45.046257 
L 478.450658 49.05663 
L 479.033032 56.25839 
L 479.615405 56.502891 
L 480.197778 56.165591 
L 480.780152 54.133914 
L 481.944898 47.483016 
L 482.527271 48.753612 
L 483.109645 50.38594 
L 483.692018 52.917954 
L 484.274391 56.635041 
L 484.856764 58.723126 
L 485.439138 57.780981 
L 486.021511 51.139244 
L 486.603884 50.9006 
L 487.186258 50.881894 
L 487.768631 45.50178 
L 488.351004 43.818269 
L 488.933377 49.536316 
L 489.515751 47.687308 
L 490.098124 44.716384 
L 490.680497 48.589566 
L 491.262871 47.456728 
L 491.845244 45.791631 
L 492.427617 47.094483 
L 493.00999 50.780319 
L 493.592364 50.834676 
L 494.174737 57.549573 
L 494.75711 57.079396 
L 495.339484 55.233024 
L 495.921857 56.823046 
L 496.50423 55.081088 
L 497.086603 47.89867 
L 497.668977 47.656813 
L 498.25135 44.67443 
L 498.833723 39.087216 
L 499.416097 41.561812 
L 499.99847 47.68956 
L 501.163216 57.492051 
L 501.74559 59.203857 
L 502.327963 55.817761 
L 502.910336 54.71535 
L 503.49271 55.73414 
L 504.075083 49.852033 
L 505.239829 53.927936 
L 505.822203 49.296811 
L 506.404576 50.645311 
L 506.986949 50.976873 
L 507.569323 49.570116 
L 508.151696 47.69537 
L 508.734069 51.064925 
L 509.316442 47.125654 
L 509.898816 49.178475 
L 510.481189 46.087279 
L 511.063562 48.225729 
L 511.645935 48.037749 
L 512.228309 43.0662 
L 512.810682 43.787976 
L 513.393055 47.553979 
L 513.975429 48.613508 
L 514.557802 45.984634 
L 515.140175 48.384616 
L 515.722548 50.152395 
L 516.304922 49.030699 
L 517.469668 56.457693 
L 518.052042 56.898094 
L 518.634415 53.33504 
L 519.216788 52.364737 
L 519.799161 51.141193 
L 520.381535 51.187547 
L 521.546281 55.003822 
L 522.128655 50.402746 
L 522.711028 47.626849 
L 523.293401 49.940164 
L 523.875774 50.775118 
L 524.458148 50.975927 
L 525.040521 56.459824 
L 526.205268 46.173074 
L 526.787641 48.164287 
L 527.370014 49.379645 
L 527.952387 47.825917 
L 528.534761 54.417241 
L 529.117134 54.316345 
L 529.699507 49.00187 
L 530.281881 49.429544 
L 530.864254 44.569014 
L 531.446627 41.119933 
L 532.029 43.951439 
L 532.611374 44.085236 
L 533.193747 39.918156 
L 533.77612 43.261489 
L 534.358493 40.405841 
L 534.940867 36.161408 
L 535.52324 34.933707 
L 536.105613 35.314244 
L 536.687987 37.329965 
L 537.27036 41.74072 
L 537.852733 42.237154 
L 538.435106 43.800465 
L 539.01748 45.726013 
L 539.599853 45.53467 
L 540.7646 48.819536 
L 541.346973 49.788257 
L 541.929346 46.13112 
L 542.511719 46.717983 
L 543.094093 44.238274 
L 543.676466 47.003149 
L 544.258839 45.510027 
L 544.841213 53.696957 
L 545.423586 53.729347 
L 546.005959 54.493464 
L 546.588332 53.400059 
L 547.170706 52.803577 
L 547.753079 47.774518 
L 548.335452 47.216389 
L 548.917826 44.571048 
L 549.500199 44.654976 
L 550.082572 46.260593 
L 550.664945 44.647783 
L 551.247319 41.681059 
L 551.829692 41.214028 
L 552.412065 39.540444 
L 552.994439 40.245008 
L 554.159185 48.469348 
L 554.741558 49.258872 
L 555.323932 52.217687 
L 555.906305 51.3959 
L 556.488678 53.678685 
L 557.653425 50.713095 
L 558.235798 47.233717 
L 558.818171 45.201199 
L 559.400545 37.303979 
L 559.982918 38.97648 
L 560.565291 40.209861 
L 561.147664 38.685492 
L 561.730038 39.789867 
L 562.312411 42.798562 
L 562.894784 40.630355 
L 563.477158 42.456277 
L 564.059531 47.907709 
L 564.641904 45.391496 
L 565.806651 48.258354 
L 566.389024 50.64068 
L 566.971397 45.049975 
L 567.553771 46.813972 
L 568.136144 45.885064 
L 568.718517 46.69855 
L 569.30089 44.401589 
L 569.883264 46.323737 
L 570.465637 51.461596 
L 571.04801 53.622075 
L 571.630384 54.201678 
L 572.212757 53.736938 
L 572.79513 56.148441 
L 573.377503 49.618152 
L 573.959877 45.100296 
L 574.54225 42.378117 
L 575.124623 43.088174 
L 575.706997 41.219328 
L 576.28937 43.146317 
L 576.871743 46.372247 
L 577.454116 52.331719 
L 578.03649 51.796258 
L 578.618863 48.017851 
L 579.201236 50.04973 
L 579.78361 49.628997 
L 580.365983 44.96312 
L 580.948356 45.481243 
L 581.530729 49.680816 
L 582.113103 49.733436 
L 582.695476 47.697422 
L 583.277849 47.015192 
L 583.860222 48.136383 
L 584.442596 49.529763 
L 585.024969 46.588273 
L 585.607342 46.235455 
L 586.189716 44.251185 
L 586.772089 41.349284 
L 587.354462 42.431644 
L 587.936835 46.115318 
L 588.519209 47.181697 
L 589.101582 49.248077 
L 589.683955 50.021288 
L 590.266329 46.001499 
L 590.848702 44.28955 
L 591.431075 44.537896 
L 592.013448 44.435963 
L 592.595822 44.56874 
L 593.760568 47.743744 
L 594.342942 49.975581 
L 594.925315 50.66848 
L 595.507688 46.673366 
L 596.090061 46.082758 
L 596.672435 43.308258 
L 597.254808 33.725522 
L 597.837181 31.874664 
L 598.419555 37.531062 
L 599.001928 34.722857 
L 599.584301 35.881422 
L 600.166674 46.255242 
L 600.749048 43.55595 
L 601.331421 41.61322 
L 601.913794 44.287847 
L 602.496168 43.294712 
L 603.078541 40.850691 
L 603.660914 42.53913 
L 604.243287 42.587951 
L 604.825661 41.281655 
L 605.408034 40.495461 
L 605.990407 38.315305 
L 606.572781 42.173316 
L 607.155154 38.512083 
L 607.737527 43.583383 
L 608.3199 41.689885 
L 608.902274 43.338053 
L 609.484647 40.574574 
L 610.06702 44.19239 
L 610.649393 41.701343 
L 611.231767 44.853739 
L 611.81414 43.582308 
L 612.396513 43.038022 
L 613.56126 36.413165 
L 614.143633 37.122218 
L 614.726006 39.397198 
L 615.30838 43.747178 
L 615.890753 51.354352 
L 616.473126 52.400946 
L 617.0555 47.614529 
L 617.637873 49.159164 
L 618.220246 47.037493 
L 618.802619 41.600931 
L 619.384993 41.897861 
L 619.967366 46.622378 
L 620.549739 45.049635 
L 621.132113 47.963219 
L 621.714486 50.195117 
L 622.296859 51.834374 
L 622.879232 50.599949 
L 624.043979 54.346845 
L 625.208726 47.116702 
L 625.791099 47.637401 
L 626.373472 45.677813 
L 626.955845 41.35875 
L 628.120592 51.355101 
L 628.702965 51.197743 
L 629.285339 46.867731 
L 629.867712 43.605884 
L 630.450085 43.366307 
L 631.032458 43.495843 
L 631.614832 42.045638 
L 632.197205 42.333693 
L 632.779578 43.476792 
L 633.361951 38.500211 
L 633.944325 37.325866 
L 634.526698 40.084141 
L 635.109071 39.630749 
L 635.691445 43.069087 
L 636.273818 44.964189 
L 636.856191 41.847168 
L 637.438564 41.754413 
L 638.020938 46.315135 
L 638.603311 42.516456 
L 639.185684 42.369282 
L 639.768058 40.694031 
L 640.350431 40.826766 
L 640.932804 38.799396 
L 641.515177 39.938993 
L 642.097551 39.665254 
L 642.679924 40.404483 
L 643.262297 40.316415 
L 643.844671 41.241968 
L 645.009417 46.026914 
L 645.59179 45.495879 
L 646.174164 44.471629 
L 647.33891 45.745161 
L 647.921284 39.150938 
L 648.503657 40.441342 
L 649.08603 41.420958 
L 649.668403 40.445915 
L 650.250777 36.35362 
L 650.83315 44.964418 
L 651.997897 47.446954 
L 652.58027 47.46064 
L 653.162643 49.786454 
L 653.745016 45.272055 
L 654.32739 45.921211 
L 654.909763 42.875872 
L 655.492136 45.84156 
L 656.07451 43.163575 
L 656.656883 44.442195 
L 657.239256 46.107559 
L 657.821629 43.894036 
L 658.404003 43.208594 
L 658.986376 42.819022 
L 659.568749 41.587205 
L 660.151122 37.296311 
L 660.733496 39.367789 
L 661.315869 34.90176 
L 661.898242 40.186456 
L 662.480616 41.516701 
L 663.062989 41.399078 
L 663.645362 42.34075 
L 664.227735 43.716406 
L 664.810109 43.27413 
L 665.392482 42.239257 
L 665.974855 44.567984 
L 666.557229 41.420913 
L 667.139602 41.495181 
L 667.721975 39.134152 
L 668.304348 42.553961 
L 668.886722 44.600273 
L 669.469095 45.367585 
L 670.051468 44.342249 
L 670.633842 46.667836 
L 671.216215 46.561473 
L 671.798588 46.985287 
L 672.380961 50.39632 
L 672.963335 50.277013 
L 673.545708 45.422518 
L 674.128081 45.437492 
L 674.710455 43.938702 
L 674.710455 43.938702 
" clip-path="url(#pf53d56a512)" style="fill: none; stroke: #1f77b4; stroke-width: 1.5; stroke-linecap: square"/>
   </g>
   <g id="line2d_18">
    <path d="M 98.743278 277.258229 
L 110.390744 269.053058 
L 122.03821 255.82946 
L 133.685675 245.765465 
L 145.333141 236.210005 
L 156.980607 229.56403 
L 168.628072 235.47265 
L 180.275538 224.192497 
L 191.923003 211.102914 
L 203.570469 197.270413 
L 215.217935 186.591024 
L 226.8654 175.855217 
L 238.512866 170.337416 
L 250.160332 156.802595 
L 261.807797 142.864646 
L 273.455263 133.058774 
L 285.102729 127.680925 
L 296.750194 120.490854 
L 308.39766 110.337526 
L 320.045126 106.605598 
L 331.692591 96.854559 
L 343.340057 90.931958 
L 354.987523 81.290351 
L 366.634988 72.981468 
L 378.282454 70.169235 
L 389.929919 66.560394 
L 401.577385 60.062336 
L 413.224851 58.320859 
L 424.872316 56.973962 
L 436.519782 52.423818 
L 448.167248 53.853347 
L 459.814713 52.848959 
L 471.462179 54.563336 
L 483.109645 51.358674 
L 494.75711 49.141102 
L 506.404576 51.444299 
L 518.052042 50.333165 
L 529.699507 47.105142 
L 541.346973 45.866532 
L 552.994439 47.025078 
L 564.641904 44.009377 
L 576.28937 48.602155 
L 587.936835 46.277864 
L 599.584301 42.222706 
L 611.231767 42.316103 
L 622.879232 47.805065 
L 634.526698 42.773018 
L 646.174164 42.039898 
L 657.821629 43.224751 
L 669.469095 44.536974 
" clip-path="url(#pf53d56a512)" style="fill: none; stroke: #ff0000; stroke-width: 1.5; stroke-linecap: square"/>
   </g>
   <g id="patch_3">
    <path d="M 63.83 304 
L 63.83 18.916314 
" style="fill: none; stroke: #000000; stroke-width: 0.8; stroke-linejoin: miter; stroke-linecap: square"/>
   </g>
   <g id="patch_4">
    <path d="M 703.8 304 
L 703.8 18.916314 
" style="fill: none; stroke: #000000; stroke-width: 0.8; stroke-linejoin: miter; stroke-linecap: square"/>
   </g>
   <g id="patch_5">
    <path d="M 63.83 304 
L 703.8 304 
" style="fill: none; stroke: #000000; stroke-width: 0.8; stroke-linejoin: miter; stroke-linecap: square"/>
   </g>
   <g id="patch_6">
    <path d="M 63.83 18.916314 
L 703.8 18.916314 
" style="fill: none; stroke: #000000; stroke-width: 0.8; stroke-linejoin: miter; stroke-linecap: square"/>
   </g>
  </g>
 </g>
 <defs>
  <clipPath id="pf53d56a512">
   <rect x="63.83" y="18.916314" width="639.97" height="285.083686"/>
  </clipPath>
 </defs>
</svg>
