<?xml version="1.0" encoding="utf-8" standalone="no"?>
<!DOCTYPE svg PUBLIC "-//W3C//DTD SVG 1.1//EN"
  "http://www.w3.org/Graphics/SVG/1.1/DTD/svg11.dtd">
<svg xmlns:xlink="http://www.w3.org/1999/xlink" width="720pt" height="360pt" viewBox="0 0 720 360" xmlns="http://www.w3.org/2000/svg" version="1.1">
 <metadata>
  <rdf:RDF xmlns:dc="http://purl.org/dc/elements/1.1/" xmlns:cc="http://creativecommons.org/ns#" xmlns:rdf="http://www.w3.org/1999/02/22-rdf-syntax-ns#">
   <cc:Work>
    <dc:type rdf:resource="http://purl.org/dc/dcmitype/StillImage"/>
    <dc:date>2024-04-23T19:54:45.587403</dc:date>
    <dc:format>image/svg+xml</dc:format>
    <dc:creator>
     <cc:Agent>
      <dc:title>Matplotlib v3.7.5, https://matplotlib.org/</dc:title>
     </cc:Agent>
    </dc:creator>
   </cc:Work>
  </rdf:RDF>
 </metadata>
 <defs>
  <style type="text/css">*{stroke-linejoin: round; stroke-linecap: butt}</style>
 </defs>
 <g id="figure_1">
  <g id="patch_1">
   <path d="M 0 360 
L 720 360 
L 720 0 
L 0 0 
z
" style="fill: #ffffff"/>
  </g>
  <g id="axes_1">
   <g id="patch_2">
    <path d="M 65.54 304 
L 703.8 304 
L 703.8 16.2 
L 65.54 16.2 
z
" style="fill: #ffffff"/>
   </g>
   <g id="matplotlib.axis_1">
    <g id="xtick_1">
     <g id="line2d_1">
      <defs>
       <path id="m966c7d2da6" d="M 0 0 
L 0 3.5 
" style="stroke: #000000; stroke-width: 0.8"/>
      </defs>
      <g>
       <use xlink:href="#m966c7d2da6" x="93.971001" y="304" style="stroke: #000000; stroke-width: 0.8"/>
      </g>
     </g>
     <g id="text_1">
      <text style="font: 15px 'DejaVu Sans', 'Bitstream Vera Sans', 'Computer Modern Sans Serif', 'Lucida Grande', 'Verdana', 'Geneva', 'Lucid', 'Arial', 'Helvetica', 'Avant Garde', sans-serif; text-anchor: middle" x="93.971001" y="322.397656" transform="rotate(-0 93.971001 322.397656)">0</text>
     </g>
    </g>
    <g id="xtick_2">
     <g id="line2d_2">
      <g>
       <use xlink:href="#m966c7d2da6" x="166.573149" y="304" style="stroke: #000000; stroke-width: 0.8"/>
      </g>
     </g>
     <g id="text_2">
      <text style="font: 15px 'DejaVu Sans', 'Bitstream Vera Sans', 'Computer Modern Sans Serif', 'Lucida Grande', 'Verdana', 'Geneva', 'Lucid', 'Arial', 'Helvetica', 'Avant Garde', sans-serif; text-anchor: middle" x="166.573149" y="322.397656" transform="rotate(-0 166.573149 322.397656)">2500</text>
     </g>
    </g>
    <g id="xtick_3">
     <g id="line2d_3">
      <g>
       <use xlink:href="#m966c7d2da6" x="239.175296" y="304" style="stroke: #000000; stroke-width: 0.8"/>
      </g>
     </g>
     <g id="text_3">
      <text style="font: 15px 'DejaVu Sans', 'Bitstream Vera Sans', 'Computer Modern Sans Serif', 'Lucida Grande', 'Verdana', 'Geneva', 'Lucid', 'Arial', 'Helvetica', 'Avant Garde', sans-serif; text-anchor: middle" x="239.175296" y="322.397656" transform="rotate(-0 239.175296 322.397656)">5000</text>
     </g>
    </g>
    <g id="xtick_4">
     <g id="line2d_4">
      <g>
       <use xlink:href="#m966c7d2da6" x="311.777444" y="304" style="stroke: #000000; stroke-width: 0.8"/>
      </g>
     </g>
     <g id="text_4">
      <text style="font: 15px 'DejaVu Sans', 'Bitstream Vera Sans', 'Computer Modern Sans Serif', 'Lucida Grande', 'Verdana', 'Geneva', 'Lucid', 'Arial', 'Helvetica', 'Avant Garde', sans-serif; text-anchor: middle" x="311.777444" y="322.397656" transform="rotate(-0 311.777444 322.397656)">7500</text>
     </g>
    </g>
    <g id="xtick_5">
     <g id="line2d_5">
      <g>
       <use xlink:href="#m966c7d2da6" x="384.379591" y="304" style="stroke: #000000; stroke-width: 0.8"/>
      </g>
     </g>
     <g id="text_5">
      <text style="font: 15px 'DejaVu Sans', 'Bitstream Vera Sans', 'Computer Modern Sans Serif', 'Lucida Grande', 'Verdana', 'Geneva', 'Lucid', 'Arial', 'Helvetica', 'Avant Garde', sans-serif; text-anchor: middle" x="384.379591" y="322.397656" transform="rotate(-0 384.379591 322.397656)">10000</text>
     </g>
    </g>
    <g id="xtick_6">
     <g id="line2d_6">
      <g>
       <use xlink:href="#m966c7d2da6" x="456.981739" y="304" style="stroke: #000000; stroke-width: 0.8"/>
      </g>
     </g>
     <g id="text_6">
      <text style="font: 15px 'DejaVu Sans', 'Bitstream Vera Sans', 'Computer Modern Sans Serif', 'Lucida Grande', 'Verdana', 'Geneva', 'Lucid', 'Arial', 'Helvetica', 'Avant Garde', sans-serif; text-anchor: middle" x="456.981739" y="322.397656" transform="rotate(-0 456.981739 322.397656)">12500</text>
     </g>
    </g>
    <g id="xtick_7">
     <g id="line2d_7">
      <g>
       <use xlink:href="#m966c7d2da6" x="529.583887" y="304" style="stroke: #000000; stroke-width: 0.8"/>
      </g>
     </g>
     <g id="text_7">
      <text style="font: 15px 'DejaVu Sans', 'Bitstream Vera Sans', 'Computer Modern Sans Serif', 'Lucida Grande', 'Verdana', 'Geneva', 'Lucid', 'Arial', 'Helvetica', 'Avant Garde', sans-serif; text-anchor: middle" x="529.583887" y="322.397656" transform="rotate(-0 529.583887 322.397656)">15000</text>
     </g>
    </g>
    <g id="xtick_8">
     <g id="line2d_8">
      <g>
       <use xlink:href="#m966c7d2da6" x="602.186034" y="304" style="stroke: #000000; stroke-width: 0.8"/>
      </g>
     </g>
     <g id="text_8">
      <text style="font: 15px 'DejaVu Sans', 'Bitstream Vera Sans', 'Computer Modern Sans Serif', 'Lucida Grande', 'Verdana', 'Geneva', 'Lucid', 'Arial', 'Helvetica', 'Avant Garde', sans-serif; text-anchor: middle" x="602.186034" y="322.397656" transform="rotate(-0 602.186034 322.397656)">17500</text>
     </g>
    </g>
    <g id="xtick_9">
     <g id="line2d_9">
      <g>
       <use xlink:href="#m966c7d2da6" x="674.788182" y="304" style="stroke: #000000; stroke-width: 0.8"/>
      </g>
     </g>
     <g id="text_9">
      <text style="font: 15px 'DejaVu Sans', 'Bitstream Vera Sans', 'Computer Modern Sans Serif', 'Lucida Grande', 'Verdana', 'Geneva', 'Lucid', 'Arial', 'Helvetica', 'Avant Garde', sans-serif; text-anchor: middle" x="674.788182" y="322.397656" transform="rotate(-0 674.788182 322.397656)">20000</text>
     </g>
    </g>
    <g id="text_10">
     <text style="font: 15px 'DejaVu Sans', 'Bitstream Vera Sans', 'Computer Modern Sans Serif', 'Lucida Grande', 'Verdana', 'Geneva', 'Lucid', 'Arial', 'Helvetica', 'Avant Garde', sans-serif; text-anchor: middle" x="384.67" y="340.914844" transform="rotate(-0 384.67 340.914844)">Episodes</text>
    </g>
   </g>
   <g id="matplotlib.axis_2">
    <g id="ytick_1">
     <g id="line2d_10">
      <defs>
       <path id="m656cedb8d7" d="M 0 0 
L -3.5 0 
" style="stroke: #000000; stroke-width: 0.8"/>
      </defs>
      <g>
       <use xlink:href="#m656cedb8d7" x="65.54" y="290.918182" style="stroke: #000000; stroke-width: 0.8"/>
      </g>
     </g>
     <g id="text_11">
      <text style="font: 15px 'DejaVu Sans', 'Bitstream Vera Sans', 'Computer Modern Sans Serif', 'Lucida Grande', 'Verdana', 'Geneva', 'Lucid', 'Arial', 'Helvetica', 'Avant Garde', sans-serif; text-anchor: end" x="58.54" y="296.61701" transform="rotate(-0 58.54 296.61701)">0.0</text>
     </g>
    </g>
    <g id="ytick_2">
     <g id="line2d_11">
      <g>
       <use xlink:href="#m656cedb8d7" x="65.54" y="235.25087" style="stroke: #000000; stroke-width: 0.8"/>
      </g>
     </g>
     <g id="text_12">
      <text style="font: 15px 'DejaVu Sans', 'Bitstream Vera Sans', 'Computer Modern Sans Serif', 'Lucida Grande', 'Verdana', 'Geneva', 'Lucid', 'Arial', 'Helvetica', 'Avant Garde', sans-serif; text-anchor: end" x="58.54" y="240.949698" transform="rotate(-0 58.54 240.949698)">0.2</text>
     </g>
    </g>
    <g id="ytick_3">
     <g id="line2d_12">
      <g>
       <use xlink:href="#m656cedb8d7" x="65.54" y="179.583559" style="stroke: #000000; stroke-width: 0.8"/>
      </g>
     </g>
     <g id="text_13">
      <text style="font: 15px 'DejaVu Sans', 'Bitstream Vera Sans', 'Computer Modern Sans Serif', 'Lucida Grande', 'Verdana', 'Geneva', 'Lucid', 'Arial', 'Helvetica', 'Avant Garde', sans-serif; text-anchor: end" x="58.54" y="185.282387" transform="rotate(-0 58.54 185.282387)">0.4</text>
     </g>
    </g>
    <g id="ytick_4">
     <g id="line2d_13">
      <g>
       <use xlink:href="#m656cedb8d7" x="65.54" y="123.916247" style="stroke: #000000; stroke-width: 0.8"/>
      </g>
     </g>
     <g id="text_14">
      <text style="font: 15px 'DejaVu Sans', 'Bitstream Vera Sans', 'Computer Modern Sans Serif', 'Lucida Grande', 'Verdana', 'Geneva', 'Lucid', 'Arial', 'Helvetica', 'Avant Garde', sans-serif; text-anchor: end" x="58.54" y="129.615075" transform="rotate(-0 58.54 129.615075)">0.6</text>
     </g>
    </g>
    <g id="ytick_5">
     <g id="line2d_14">
      <g>
       <use xlink:href="#m656cedb8d7" x="65.54" y="68.248936" style="stroke: #000000; stroke-width: 0.8"/>
      </g>
     </g>
     <g id="text_15">
      <text style="font: 15px 'DejaVu Sans', 'Bitstream Vera Sans', 'Computer Modern Sans Serif', 'Lucida Grande', 'Verdana', 'Geneva', 'Lucid', 'Arial', 'Helvetica', 'Avant Garde', sans-serif; text-anchor: end" x="58.54" y="73.947764" transform="rotate(-0 58.54 73.947764)">0.8</text>
     </g>
    </g>
    <g id="text_16">
     <text style="font: 15px 'DejaVu Sans', 'Bitstream Vera Sans', 'Computer Modern Sans Serif', 'Lucida Grande', 'Verdana', 'Geneva', 'Lucid', 'Arial', 'Helvetica', 'Avant Garde', sans-serif; text-anchor: middle" x="27.565781" y="160.1" transform="rotate(-90 27.565781 160.1)">Success Rate</text>
    </g>
   </g>
   <g id="line2d_15">
    <path d="M 94.551818 290.918182 
L 96.875087 290.918182 
L 97.455904 285.351451 
L 98.617538 285.351451 
L 99.198356 279.78472 
L 99.779173 279.78472 
L 100.35999 285.351451 
L 101.521624 285.351451 
L 102.102442 288.134816 
L 103.844893 288.134816 
L 104.42571 285.351451 
L 105.006527 288.134816 
L 106.748979 279.78472 
L 107.329796 282.568085 
L 108.491431 282.568085 
L 109.072248 285.351451 
L 109.653065 285.351451 
L 110.814699 279.78472 
L 111.395516 282.568085 
L 111.976334 282.568085 
L 113.137968 288.134816 
L 113.718785 288.134816 
L 114.299602 285.351451 
L 115.461237 285.351451 
L 116.042054 279.78472 
L 116.622871 282.568085 
L 117.203688 282.568085 
L 118.365323 277.001354 
L 118.94614 282.568085 
L 119.526957 279.78472 
L 120.688591 279.78472 
L 121.269408 282.568085 
L 121.850226 282.568085 
L 122.431043 279.78472 
L 123.01186 279.78472 
L 123.592677 282.568085 
L 124.173494 282.568085 
L 124.754312 279.78472 
L 125.915946 285.351451 
L 126.496763 279.78472 
L 127.07758 279.78472 
L 128.239215 285.351451 
L 128.820032 282.568085 
L 129.400849 288.134816 
L 129.981666 288.134816 
L 131.143301 282.568085 
L 131.724118 282.568085 
L 132.304935 277.001354 
L 134.628204 277.001354 
L 135.209021 282.568085 
L 135.789838 279.78472 
L 136.370655 279.78472 
L 137.53229 285.351451 
L 138.693924 279.78472 
L 139.855558 279.78472 
L 140.436375 274.217989 
L 141.017193 274.217989 
L 142.178827 279.78472 
L 142.759644 279.78472 
L 143.340461 282.568085 
L 144.502096 277.001354 
L 145.082913 277.001354 
L 145.66373 274.217989 
L 146.244547 274.217989 
L 146.825364 279.78472 
L 147.406182 282.568085 
L 147.986999 279.78472 
L 149.72945 279.78472 
L 150.310268 282.568085 
L 150.891085 282.568085 
L 151.471902 285.351451 
L 152.633536 279.78472 
L 153.214353 279.78472 
L 154.375988 274.217989 
L 154.956805 279.78472 
L 156.118439 279.78472 
L 156.699257 277.001354 
L 157.280074 277.001354 
L 157.860891 271.434623 
L 158.441708 274.217989 
L 159.022525 274.217989 
L 159.603342 277.001354 
L 161.345794 277.001354 
L 161.926611 274.217989 
L 163.088246 279.78472 
L 163.669063 285.351451 
L 165.992331 285.351451 
L 167.153966 279.78472 
L 168.3156 285.351451 
L 169.477235 279.78472 
L 170.058052 282.568085 
L 170.638869 279.78472 
L 172.962138 279.78472 
L 173.542955 282.568085 
L 174.123772 279.78472 
L 175.285406 285.351451 
L 175.866223 285.351451 
L 176.447041 282.568085 
L 177.027858 285.351451 
L 177.608675 279.78472 
L 178.189492 279.78472 
L 178.770309 277.001354 
L 179.351127 277.001354 
L 179.931944 274.217989 
L 181.674395 282.568085 
L 182.255212 277.001354 
L 182.83603 279.78472 
L 183.997664 279.78472 
L 184.578481 277.001354 
L 185.159298 285.351451 
L 185.740116 279.78472 
L 187.482567 279.78472 
L 188.063384 268.651258 
L 188.644201 274.217989 
L 189.805836 274.217989 
L 190.386653 271.434623 
L 190.96747 282.568085 
L 191.548287 279.78472 
L 192.129105 282.568085 
L 192.709922 279.78472 
L 193.290739 285.351451 
L 194.452373 285.351451 
L 195.03319 282.568085 
L 195.614008 285.351451 
L 196.194825 279.78472 
L 198.518094 268.651258 
L 199.098911 271.434623 
L 199.679728 271.434623 
L 200.841362 277.001354 
L 202.002997 277.001354 
L 202.583814 274.217989 
L 203.745448 279.78472 
L 204.326265 279.78472 
L 205.4879 285.351451 
L 206.649534 285.351451 
L 207.230351 282.568085 
L 207.811168 282.568085 
L 208.391986 285.351451 
L 208.972803 285.351451 
L 209.55362 282.568085 
L 210.134437 288.134816 
L 211.876889 279.78472 
L 212.457706 282.568085 
L 213.038523 277.001354 
L 213.61934 274.217989 
L 214.780975 279.78472 
L 215.361792 274.217989 
L 215.942609 277.001354 
L 218.846695 277.001354 
L 219.427512 279.78472 
L 220.008329 274.217989 
L 220.589146 271.434623 
L 221.169964 277.001354 
L 221.750781 277.001354 
L 222.331598 279.78472 
L 222.912415 279.78472 
L 223.493232 282.568085 
L 224.07405 279.78472 
L 224.654867 282.568085 
L 225.235684 282.568085 
L 225.816501 288.134816 
L 226.978135 288.134816 
L 227.558953 282.568085 
L 228.720587 282.568085 
L 229.301404 279.78472 
L 231.043856 279.78472 
L 231.624673 277.001354 
L 232.20549 277.001354 
L 232.786307 279.78472 
L 233.367124 279.78472 
L 233.947942 277.001354 
L 235.109576 282.568085 
L 235.690393 282.568085 
L 236.27121 277.001354 
L 238.013662 268.651258 
L 238.594479 268.651258 
L 239.175296 277.001354 
L 240.336931 277.001354 
L 240.917748 279.78472 
L 241.498565 279.78472 
L 242.079382 282.568085 
L 242.660199 288.134816 
L 243.241016 288.134816 
L 243.821834 282.568085 
L 244.983468 277.001354 
L 245.564285 277.001354 
L 246.145102 279.78472 
L 246.72592 279.78472 
L 247.887554 274.217989 
L 248.468371 263.084526 
L 249.630005 263.084526 
L 250.210823 268.651258 
L 250.79164 265.867891 
L 251.372457 274.217989 
L 251.953274 271.434623 
L 253.114909 260.301161 
L 253.695726 263.084526 
L 254.85736 263.084526 
L 255.438177 268.651258 
L 256.018994 268.651258 
L 256.599812 260.301161 
L 257.180629 254.734431 
L 257.761446 254.734431 
L 258.92308 249.167696 
L 260.084715 265.867891 
L 260.665532 263.084526 
L 261.246349 263.084526 
L 262.407983 274.217989 
L 262.988801 271.434623 
L 263.569618 260.301161 
L 264.150435 265.867891 
L 264.731252 268.651258 
L 265.312069 260.301161 
L 265.892887 260.301161 
L 266.473704 265.867891 
L 267.054521 260.301161 
L 267.635338 257.517796 
L 268.796972 257.517796 
L 269.37779 263.084526 
L 269.958607 265.867891 
L 270.539424 257.517796 
L 271.120241 265.867891 
L 272.281876 271.434623 
L 272.862693 271.434623 
L 273.44351 274.217989 
L 274.024327 260.301161 
L 274.605144 257.517796 
L 275.185961 251.951064 
L 275.766779 257.517796 
L 276.347596 254.734431 
L 276.928413 260.301161 
L 277.50923 260.301161 
L 278.090047 257.517796 
L 278.670865 257.517796 
L 279.251682 263.084526 
L 279.832499 263.084526 
L 280.413316 254.734431 
L 280.994133 263.084526 
L 281.57495 251.951064 
L 283.898219 240.817599 
L 284.479036 240.817599 
L 285.059853 229.684139 
L 285.640671 235.250869 
L 286.221488 238.034237 
L 287.963939 238.034237 
L 288.544757 232.467507 
L 289.125574 240.817599 
L 289.706391 235.250869 
L 290.287208 235.250869 
L 290.868025 249.167696 
L 291.448842 254.734431 
L 292.02966 238.034237 
L 292.610477 246.384334 
L 293.191294 243.600967 
L 294.352928 232.467507 
L 294.933746 249.167696 
L 295.514563 238.034237 
L 296.09538 243.600967 
L 296.676197 235.250869 
L 297.257014 232.467507 
L 297.837831 218.550679 
L 298.418649 218.550679 
L 298.999466 221.334042 
L 299.580283 226.900772 
L 300.741917 226.900772 
L 301.322735 221.334042 
L 301.903552 218.550679 
L 302.484369 224.117409 
L 303.065186 218.550679 
L 303.646003 226.900772 
L 304.22682 226.900772 
L 304.807638 210.200582 
L 305.388455 207.417211 
L 305.969272 226.900772 
L 306.550089 224.117409 
L 307.130906 235.250869 
L 307.711724 249.167696 
L 308.292541 251.951064 
L 308.873358 249.167696 
L 309.454175 251.951064 
L 310.034992 235.250869 
L 311.196627 212.983945 
L 311.777444 207.417211 
L 312.358261 190.717017 
L 312.939078 196.283751 
L 314.100713 201.850485 
L 314.68153 199.067114 
L 315.262347 212.983945 
L 315.843164 218.550679 
L 316.423981 226.900772 
L 317.004798 226.900772 
L 317.585616 212.983945 
L 318.74725 207.417211 
L 319.328067 199.067114 
L 319.908884 201.850485 
L 320.489702 210.200582 
L 321.070519 201.850485 
L 321.651336 204.633848 
L 322.232153 210.200582 
L 322.81297 204.633848 
L 323.393787 204.633848 
L 323.974605 212.983945 
L 324.555422 212.983945 
L 325.136239 218.550679 
L 325.717056 212.983945 
L 326.297873 212.983945 
L 326.878691 207.417211 
L 327.459508 199.067114 
L 328.040325 193.500388 
L 328.621142 199.067114 
L 329.201959 199.067114 
L 329.782776 193.500388 
L 330.363594 201.850485 
L 330.944411 187.933654 
L 331.525228 201.850485 
L 332.106045 199.067114 
L 332.686862 207.417211 
L 333.267679 201.850485 
L 333.848497 221.334042 
L 334.429314 212.983945 
L 335.010131 218.550679 
L 335.590948 221.334042 
L 336.171765 212.983945 
L 337.3334 201.850485 
L 337.914217 187.933654 
L 338.495034 185.150291 
L 339.075851 204.633848 
L 339.656668 193.500388 
L 340.237486 201.850485 
L 340.818303 201.850485 
L 341.39912 193.500388 
L 341.979937 174.016831 
L 342.560754 174.016831 
L 343.141572 165.666734 
L 343.722389 176.800194 
L 344.303206 182.366928 
L 344.884023 190.717017 
L 345.46484 190.717017 
L 346.045657 187.933654 
L 346.626475 168.450097 
L 347.207292 171.23346 
L 347.788109 179.583557 
L 348.368926 190.717017 
L 348.949743 187.933654 
L 349.530561 210.200582 
L 350.692195 187.933654 
L 351.273012 174.016831 
L 351.853829 182.366928 
L 352.434646 171.23346 
L 353.015464 176.800194 
L 353.596281 176.800194 
L 354.177098 179.583557 
L 354.757915 171.23346 
L 355.338732 171.23346 
L 355.91955 182.366928 
L 357.081184 182.366928 
L 357.662001 187.933654 
L 358.242818 190.717017 
L 358.823635 182.366928 
L 359.98527 171.23346 
L 360.566087 160.1 
L 361.146904 165.666734 
L 361.727721 160.1 
L 362.308539 151.749903 
L 362.889356 146.183177 
L 363.470173 148.96654 
L 364.05099 140.616435 
L 364.631807 146.183177 
L 365.212624 162.883363 
L 366.374259 174.016831 
L 366.955076 160.1 
L 367.535893 165.666734 
L 368.697528 154.533266 
L 369.278345 143.399814 
L 369.859162 157.316637 
L 370.439979 140.616435 
L 371.020796 140.616435 
L 372.182431 162.883363 
L 372.763248 148.96654 
L 373.344065 151.749903 
L 373.924882 151.749903 
L 374.505699 148.96654 
L 375.086517 132.266346 
L 376.248151 137.833072 
L 376.828968 132.266346 
L 377.990602 132.266346 
L 378.57142 135.049709 
L 379.152237 121.132878 
L 379.733054 115.566152 
L 380.313871 112.782789 
L 380.894688 132.266346 
L 381.475506 132.266346 
L 382.056323 143.399814 
L 383.217957 148.96654 
L 383.798774 135.049709 
L 384.379591 140.616435 
L 384.960409 137.833072 
L 385.541226 143.399814 
L 386.122043 137.833072 
L 386.70286 126.69962 
L 387.283677 123.916241 
L 388.445312 123.916241 
L 389.026129 109.999426 
L 389.606946 123.916241 
L 390.187763 115.566152 
L 390.76858 112.782789 
L 391.349398 112.782789 
L 391.930215 137.833072 
L 392.511032 129.482983 
L 393.091849 135.049709 
L 394.253483 140.616435 
L 394.834301 126.69962 
L 395.415118 135.049709 
L 395.995935 140.616435 
L 396.576752 137.833072 
L 397.157569 115.566152 
L 397.738387 129.482983 
L 398.319204 123.916241 
L 398.900021 115.566152 
L 399.480838 115.566152 
L 400.061655 140.616435 
L 400.642472 132.266346 
L 401.22329 135.049709 
L 401.804107 126.69962 
L 402.384924 121.132878 
L 402.965741 98.865958 
L 403.546558 96.082595 
L 404.127376 87.732489 
L 404.708193 104.432683 
L 405.28901 107.216046 
L 405.869827 118.349515 
L 406.450644 115.566152 
L 407.031461 132.266346 
L 407.612279 126.69962 
L 408.193096 126.69962 
L 408.773913 118.349515 
L 409.35473 118.349515 
L 410.516365 82.165763 
L 411.097182 76.599038 
L 411.677999 76.599038 
L 412.258816 71.032295 
L 412.839633 76.599038 
L 413.42045 101.649321 
L 414.001268 93.299232 
L 414.582085 107.216046 
L 415.162902 118.349515 
L 415.743719 118.349515 
L 416.324536 104.432683 
L 416.905354 112.782789 
L 417.486171 135.049709 
L 418.066988 129.482983 
L 418.647805 135.049709 
L 419.809439 151.749903 
L 420.390257 121.132878 
L 420.971074 126.69962 
L 421.551891 135.049709 
L 422.132708 137.833072 
L 423.294343 137.833072 
L 423.87516 132.266346 
L 424.455977 123.916241 
L 425.036794 121.132878 
L 426.198428 121.132878 
L 426.779246 118.349515 
L 427.360063 109.999426 
L 427.94088 112.782789 
L 428.521697 107.216046 
L 429.102514 112.782789 
L 429.683332 109.999426 
L 430.264149 126.69962 
L 430.844966 109.999426 
L 431.425783 107.216046 
L 432.0066 90.515852 
L 432.587417 96.082595 
L 433.168235 84.949126 
L 433.749052 96.082595 
L 434.329869 98.865958 
L 434.910686 118.349515 
L 436.072321 123.916241 
L 436.653138 112.782789 
L 437.814772 101.649321 
L 438.395589 98.865958 
L 440.718858 121.132878 
L 441.299675 137.833072 
L 441.880492 129.482983 
L 442.461309 143.399814 
L 443.042127 143.399814 
L 443.622944 137.833072 
L 444.203761 121.132878 
L 444.784578 123.916241 
L 445.365395 109.999426 
L 446.52703 121.132878 
L 447.688664 104.432683 
L 448.269481 107.216046 
L 448.850298 123.916241 
L 449.431116 121.132878 
L 450.011933 121.132878 
L 451.173567 126.69962 
L 451.754384 101.649321 
L 452.335202 101.649321 
L 452.916019 121.132878 
L 453.496836 123.916241 
L 454.077653 118.349515 
L 454.65847 129.482983 
L 455.239287 126.69962 
L 455.820105 115.566152 
L 456.400922 112.782789 
L 458.143373 112.782789 
L 458.724191 115.566152 
L 459.305008 126.69962 
L 459.885825 135.049709 
L 460.466642 129.482983 
L 461.047459 129.482983 
L 461.628276 135.049709 
L 462.209094 126.69962 
L 462.789911 123.916241 
L 463.370728 126.69962 
L 463.951545 126.69962 
L 464.532362 112.782789 
L 465.11318 109.999426 
L 466.274814 115.566152 
L 466.855631 123.916241 
L 468.017265 146.183177 
L 468.598083 151.749903 
L 469.1789 146.183177 
L 469.759717 137.833072 
L 470.340534 137.833072 
L 471.502169 126.69962 
L 472.082986 132.266346 
L 472.663803 129.482983 
L 473.24462 135.049709 
L 473.825437 129.482983 
L 474.406254 121.132878 
L 474.987072 115.566152 
L 475.567889 118.349515 
L 476.148706 104.432683 
L 477.31034 104.432683 
L 477.891158 107.216046 
L 478.471975 115.566152 
L 479.052792 118.349515 
L 479.633609 126.69962 
L 480.214426 126.69962 
L 480.795243 123.916241 
L 481.376061 112.782789 
L 481.956878 107.216046 
L 482.537695 107.216046 
L 483.118512 115.566152 
L 483.699329 126.69962 
L 484.280147 132.266346 
L 484.860964 146.183177 
L 485.441781 154.533266 
L 486.022598 151.749903 
L 486.603415 129.482983 
L 487.184232 126.69962 
L 487.76505 129.482983 
L 488.345867 109.999426 
L 488.926684 107.216046 
L 489.507501 118.349515 
L 490.088318 121.132878 
L 490.669135 107.216046 
L 491.249953 109.999426 
L 491.83077 96.082595 
L 492.992404 101.649321 
L 493.573221 109.999426 
L 494.154039 104.432683 
L 494.734856 123.916241 
L 495.315673 118.349515 
L 495.89649 109.999426 
L 497.058124 126.69962 
L 497.638942 118.349515 
L 498.219759 121.132878 
L 498.800576 129.482983 
L 499.381393 115.566152 
L 499.96221 123.916241 
L 500.543028 135.049709 
L 501.123845 140.616435 
L 501.704662 135.049709 
L 502.285479 143.399814 
L 502.866296 132.266346 
L 503.447113 129.482983 
L 504.027931 135.049709 
L 504.608748 129.482983 
L 505.189565 115.566152 
L 505.770382 115.566152 
L 506.351199 96.082595 
L 507.512834 96.082595 
L 508.093651 101.649321 
L 508.674468 101.649321 
L 509.255285 118.349515 
L 509.836102 109.999426 
L 510.41692 104.432683 
L 512.740188 93.299232 
L 513.321006 98.865958 
L 513.901823 109.999426 
L 514.48264 118.349515 
L 515.063457 115.566152 
L 515.644274 115.566152 
L 516.225091 129.482983 
L 516.805909 115.566152 
L 517.386726 109.999426 
L 517.967543 121.132878 
L 518.54836 126.69962 
L 519.129177 112.782789 
L 520.290812 129.482983 
L 520.871629 121.132878 
L 521.452446 109.999426 
L 522.033263 112.782789 
L 522.61408 98.865958 
L 523.194898 93.299232 
L 524.937349 109.999426 
L 525.518166 123.916241 
L 526.679801 123.916241 
L 527.260618 132.266346 
L 527.841435 135.049709 
L 528.422252 132.266346 
L 529.003069 132.266346 
L 529.583887 126.69962 
L 530.164704 112.782789 
L 530.745521 107.216046 
L 531.326338 104.432683 
L 531.907155 93.299232 
L 532.487973 96.082595 
L 533.06879 96.082595 
L 533.649607 82.165763 
L 534.230424 76.599038 
L 534.811241 76.599038 
L 535.392058 68.248932 
L 535.972876 65.465569 
L 536.553693 76.599038 
L 537.13451 76.599038 
L 537.715327 87.732489 
L 538.876962 98.865958 
L 539.457779 98.865958 
L 540.038596 101.649321 
L 540.619413 98.865958 
L 541.20023 98.865958 
L 541.781047 104.432683 
L 542.361865 96.082595 
L 542.942682 96.082595 
L 543.523499 104.432683 
L 544.104316 107.216046 
L 544.685133 104.432683 
L 545.26595 112.782789 
L 545.846768 115.566152 
L 546.427585 107.216046 
L 547.008402 109.999426 
L 547.589219 96.082595 
L 548.170036 98.865958 
L 549.331671 98.865958 
L 549.912488 93.299232 
L 550.493305 112.782789 
L 551.074122 96.082595 
L 551.654939 90.515852 
L 552.235757 82.165763 
L 552.816574 84.949126 
L 553.397391 79.382401 
L 553.978208 90.515852 
L 555.139843 101.649321 
L 555.72066 93.299232 
L 556.301477 90.515852 
L 556.882294 82.165763 
L 557.463111 76.599038 
L 558.043928 76.599038 
L 559.205563 71.032295 
L 559.78638 82.165763 
L 560.367197 84.949126 
L 560.948014 82.165763 
L 561.528832 84.949126 
L 562.109649 90.515852 
L 562.690466 84.949126 
L 563.271283 87.732489 
L 564.432917 109.999426 
L 565.013735 101.649321 
L 565.594552 112.782789 
L 566.175369 107.216046 
L 566.756186 104.432683 
L 567.337003 87.732489 
L 567.917821 84.949126 
L 568.498638 76.599038 
L 569.079455 82.165763 
L 570.241089 71.032295 
L 570.821906 84.949126 
L 571.983541 79.382401 
L 572.564358 84.949126 
L 573.145175 93.299232 
L 573.725992 73.815675 
L 574.30681 68.248932 
L 574.887627 65.465569 
L 575.468444 54.332101 
L 576.049261 48.765375 
L 576.630078 62.682206 
L 577.210895 65.465569 
L 577.791713 76.599038 
L 578.37253 84.949126 
L 578.953347 82.165763 
L 579.534164 76.599038 
L 580.114981 73.815675 
L 580.695799 59.898844 
L 581.276616 48.765375 
L 581.857433 59.898844 
L 582.43825 65.465569 
L 583.599884 71.032295 
L 584.180702 84.949126 
L 584.761519 90.515852 
L 585.342336 82.165763 
L 585.923153 79.382401 
L 586.50397 84.949126 
L 587.084788 84.949126 
L 587.665605 87.732489 
L 588.246422 93.299232 
L 588.827239 93.299232 
L 589.988873 76.599038 
L 590.569691 62.682206 
L 591.150508 51.548738 
L 591.731325 59.898844 
L 592.312142 65.465569 
L 592.892959 62.682206 
L 594.054594 68.248932 
L 594.635411 62.682206 
L 595.216228 59.898844 
L 595.797045 54.332101 
L 596.377862 51.548738 
L 596.95868 59.898844 
L 597.539497 51.548738 
L 598.120314 40.415286 
L 598.701131 48.765375 
L 599.281948 43.198649 
L 599.862765 32.065181 
L 600.443583 45.982012 
L 601.0244 51.548738 
L 601.605217 45.982012 
L 602.766851 57.115481 
L 603.347669 54.332101 
L 604.509303 54.332101 
L 605.670937 59.898844 
L 606.251754 54.332101 
L 606.832572 62.682206 
L 607.413389 59.898844 
L 607.994206 62.682206 
L 608.575023 57.115481 
L 609.15584 62.682206 
L 609.736658 54.332101 
L 610.317475 57.115481 
L 610.898292 51.548738 
L 611.479109 51.548738 
L 612.059926 45.982012 
L 612.640743 43.198649 
L 613.221561 43.198649 
L 613.802378 37.631907 
L 614.383195 37.631907 
L 614.964012 40.415286 
L 615.544829 51.548738 
L 616.125647 54.332101 
L 616.706464 59.898844 
L 617.287281 54.332101 
L 617.868098 62.682206 
L 618.448915 65.465569 
L 619.029732 71.032295 
L 619.61055 65.465569 
L 620.191367 76.599038 
L 620.772184 59.898844 
L 621.353001 48.765375 
L 621.933818 40.415286 
L 622.514636 45.982012 
L 623.095453 40.415286 
L 623.67627 40.415286 
L 624.257087 48.765375 
L 624.837904 48.765375 
L 625.418721 45.982012 
L 625.999539 51.548738 
L 626.580356 54.332101 
L 627.161173 48.765375 
L 627.74199 54.332101 
L 628.322807 62.682206 
L 628.903625 59.898844 
L 629.484442 59.898844 
L 630.065259 54.332101 
L 630.646076 45.982012 
L 631.226893 40.415286 
L 632.388528 40.415286 
L 632.969345 48.765375 
L 633.550162 48.765375 
L 634.130979 43.198649 
L 635.873431 43.198649 
L 636.454248 48.765375 
L 637.035065 57.115481 
L 637.615882 57.115481 
L 638.196699 62.682206 
L 638.777517 51.548738 
L 639.358334 48.765375 
L 639.939151 43.198649 
L 640.519968 43.198649 
L 641.100785 40.415286 
L 641.681603 45.982012 
L 642.843237 45.982012 
L 644.004871 40.415286 
L 644.585688 51.548738 
L 645.166506 59.898844 
L 645.747323 57.115481 
L 646.32814 62.682206 
L 646.908957 73.815675 
L 647.489774 65.465569 
L 648.070592 54.332101 
L 648.651409 57.115481 
L 649.232226 54.332101 
L 649.813043 40.415286 
L 650.39386 32.065181 
L 650.974677 40.415286 
L 651.555495 37.631907 
L 652.136312 40.415286 
L 653.297946 62.682206 
L 653.878763 62.682206 
L 654.45958 68.248932 
L 655.040398 62.682206 
L 655.621215 59.898844 
L 656.202032 54.332101 
L 656.782849 57.115481 
L 657.363666 62.682206 
L 657.944484 59.898844 
L 658.525301 54.332101 
L 659.686935 48.765375 
L 660.267752 37.631907 
L 660.848569 43.198649 
L 661.429387 37.631907 
L 662.010204 40.415286 
L 662.591021 34.848544 
L 663.171838 40.415286 
L 663.752655 43.198649 
L 664.333473 51.548738 
L 664.91429 51.548738 
L 665.495107 48.765375 
L 666.075924 43.198649 
L 666.656741 32.065181 
L 667.237558 32.065181 
L 667.818376 29.281818 
L 668.399193 37.631907 
L 668.98001 40.415286 
L 669.560827 45.982012 
L 670.141644 43.198649 
L 670.722462 45.982012 
L 671.303279 43.198649 
L 671.884096 51.548738 
L 672.464913 57.115481 
L 673.04573 57.115481 
L 673.626547 51.548738 
L 674.207365 48.765375 
L 674.788182 54.332101 
L 674.788182 54.332101 
" clip-path="url(#p52345d6a2a)" style="fill: none; stroke: #1f77b4; stroke-width: 1.5; stroke-linecap: square"/>
   </g>
   <g id="line2d_16">
    <path d="M 100.35999 286.882302 
L 111.976334 283.542263 
L 123.592677 281.315571 
L 135.209021 280.898066 
L 146.825364 279.506383 
L 158.441708 277.418859 
L 170.058052 282.289749 
L 181.674395 279.923888 
L 193.290739 278.1147 
L 204.907083 280.202224 
L 216.523426 277.697195 
L 228.13977 281.593907 
L 239.756113 278.532205 
L 251.372457 268.512089 
L 262.988801 261.553675 
L 274.605144 261.97118 
L 286.221488 242.765957 
L 297.837831 230.936654 
L 309.454175 221.334041 
L 321.070519 211.174758 
L 332.686862 203.798839 
L 344.303206 186.541973 
L 355.91955 178.609381 
L 367.535893 154.254932 
L 379.152237 135.88472 
L 390.76858 128.787136 
L 402.384924 119.045357 
L 414.001268 107.216055 
L 425.617611 123.777079 
L 437.233955 110.973596 
L 448.850298 119.045355 
L 460.466642 121.689558 
L 472.082986 127.395454 
L 483.699329 123.77708 
L 495.315673 115.426982 
L 506.932017 114.87031 
L 518.54836 112.643619 
L 530.164704 107.911895 
L 541.781047 97.752611 
L 553.397391 90.65503 
L 565.013735 89.124176 
L 576.630078 71.310639 
L 588.246422 75.764022 
L 599.862765 52.244583 
L 611.479109 52.383752 
L 623.095453 54.332108 
L 634.711796 49.043716 
L 646.32814 49.600388 
L 657.944484 51.548742 
L 669.560827 45.425338 
" clip-path="url(#p52345d6a2a)" style="fill: none; stroke: #ff0000; stroke-width: 1.5; stroke-linecap: square"/>
   </g>
   <g id="patch_3">
    <path d="M 65.54 304 
L 65.54 16.2 
" style="fill: none; stroke: #000000; stroke-width: 0.8; stroke-linejoin: miter; stroke-linecap: square"/>
   </g>
   <g id="patch_4">
    <path d="M 703.8 304 
L 703.8 16.2 
" style="fill: none; stroke: #000000; stroke-width: 0.8; stroke-linejoin: miter; stroke-linecap: square"/>
   </g>
   <g id="patch_5">
    <path d="M 65.54 304 
L 703.8 304 
" style="fill: none; stroke: #000000; stroke-width: 0.8; stroke-linejoin: miter; stroke-linecap: square"/>
   </g>
   <g id="patch_6">
    <path d="M 65.54 16.2 
L 703.8 16.2 
" style="fill: none; stroke: #000000; stroke-width: 0.8; stroke-linejoin: miter; stroke-linecap: square"/>
   </g>
  </g>
 </g>
 <defs>
  <clipPath id="p52345d6a2a">
   <rect x="65.54" y="16.2" width="638.26" height="287.8"/>
  </clipPath>
 </defs>
</svg>
