<?xml version="1.0" encoding="utf-8" standalone="no"?>
<!DOCTYPE svg PUBLIC "-//W3C//DTD SVG 1.1//EN"
  "http://www.w3.org/Graphics/SVG/1.1/DTD/svg11.dtd">
<svg xmlns:xlink="http://www.w3.org/1999/xlink" width="720pt" height="360pt" viewBox="0 0 720 360" xmlns="http://www.w3.org/2000/svg" version="1.1">
 <metadata>
  <rdf:RDF xmlns:dc="http://purl.org/dc/elements/1.1/" xmlns:cc="http://creativecommons.org/ns#" xmlns:rdf="http://www.w3.org/1999/02/22-rdf-syntax-ns#">
   <cc:Work>
    <dc:type rdf:resource="http://purl.org/dc/dcmitype/StillImage"/>
    <dc:date>2024-04-28T15:21:55.181132</dc:date>
    <dc:format>image/svg+xml</dc:format>
    <dc:creator>
     <cc:Agent>
      <dc:title>Matplotlib v3.7.5, https://matplotlib.org/</dc:title>
     </cc:Agent>
    </dc:creator>
   </cc:Work>
  </rdf:RDF>
 </metadata>
 <defs>
  <style type="text/css">*{stroke-linejoin: round; stroke-linecap: butt}</style>
 </defs>
 <g id="figure_1">
  <g id="patch_1">
   <path d="M 0 360 
L 720 360 
L 720 0 
L 0 0 
z
" style="fill: #ffffff"/>
  </g>
  <g id="axes_1">
   <g id="patch_2">
    <path d="M 65.54 304 
L 703.8 304 
L 703.8 16.2 
L 65.54 16.2 
z
" style="fill: #ffffff"/>
   </g>
   <g id="matplotlib.axis_1">
    <g id="xtick_1">
     <g id="line2d_1">
      <defs>
       <path id="m317e110a06" d="M 0 0 
L 0 3.5 
" style="stroke: #000000; stroke-width: 0.8"/>
      </defs>
      <g>
       <use xlink:href="#m317e110a06" x="93.971001" y="304" style="stroke: #000000; stroke-width: 0.8"/>
      </g>
     </g>
     <g id="text_1">
      <text style="font: 15px 'DejaVu Sans', 'Bitstream Vera Sans', 'Computer Modern Sans Serif', 'Lucida Grande', 'Verdana', 'Geneva', 'Lucid', 'Arial', 'Helvetica', 'Avant Garde', sans-serif; text-anchor: middle" x="93.971001" y="322.397656" transform="rotate(-0 93.971001 322.397656)">0</text>
     </g>
    </g>
    <g id="xtick_2">
     <g id="line2d_2">
      <g>
       <use xlink:href="#m317e110a06" x="166.573149" y="304" style="stroke: #000000; stroke-width: 0.8"/>
      </g>
     </g>
     <g id="text_2">
      <text style="font: 15px 'DejaVu Sans', 'Bitstream Vera Sans', 'Computer Modern Sans Serif', 'Lucida Grande', 'Verdana', 'Geneva', 'Lucid', 'Arial', 'Helvetica', 'Avant Garde', sans-serif; text-anchor: middle" x="166.573149" y="322.397656" transform="rotate(-0 166.573149 322.397656)">2500</text>
     </g>
    </g>
    <g id="xtick_3">
     <g id="line2d_3">
      <g>
       <use xlink:href="#m317e110a06" x="239.175296" y="304" style="stroke: #000000; stroke-width: 0.8"/>
      </g>
     </g>
     <g id="text_3">
      <text style="font: 15px 'DejaVu Sans', 'Bitstream Vera Sans', 'Computer Modern Sans Serif', 'Lucida Grande', 'Verdana', 'Geneva', 'Lucid', 'Arial', 'Helvetica', 'Avant Garde', sans-serif; text-anchor: middle" x="239.175296" y="322.397656" transform="rotate(-0 239.175296 322.397656)">5000</text>
     </g>
    </g>
    <g id="xtick_4">
     <g id="line2d_4">
      <g>
       <use xlink:href="#m317e110a06" x="311.777444" y="304" style="stroke: #000000; stroke-width: 0.8"/>
      </g>
     </g>
     <g id="text_4">
      <text style="font: 15px 'DejaVu Sans', 'Bitstream Vera Sans', 'Computer Modern Sans Serif', 'Lucida Grande', 'Verdana', 'Geneva', 'Lucid', 'Arial', 'Helvetica', 'Avant Garde', sans-serif; text-anchor: middle" x="311.777444" y="322.397656" transform="rotate(-0 311.777444 322.397656)">7500</text>
     </g>
    </g>
    <g id="xtick_5">
     <g id="line2d_5">
      <g>
       <use xlink:href="#m317e110a06" x="384.379591" y="304" style="stroke: #000000; stroke-width: 0.8"/>
      </g>
     </g>
     <g id="text_5">
      <text style="font: 15px 'DejaVu Sans', 'Bitstream Vera Sans', 'Computer Modern Sans Serif', 'Lucida Grande', 'Verdana', 'Geneva', 'Lucid', 'Arial', 'Helvetica', 'Avant Garde', sans-serif; text-anchor: middle" x="384.379591" y="322.397656" transform="rotate(-0 384.379591 322.397656)">10000</text>
     </g>
    </g>
    <g id="xtick_6">
     <g id="line2d_6">
      <g>
       <use xlink:href="#m317e110a06" x="456.981739" y="304" style="stroke: #000000; stroke-width: 0.8"/>
      </g>
     </g>
     <g id="text_6">
      <text style="font: 15px 'DejaVu Sans', 'Bitstream Vera Sans', 'Computer Modern Sans Serif', 'Lucida Grande', 'Verdana', 'Geneva', 'Lucid', 'Arial', 'Helvetica', 'Avant Garde', sans-serif; text-anchor: middle" x="456.981739" y="322.397656" transform="rotate(-0 456.981739 322.397656)">12500</text>
     </g>
    </g>
    <g id="xtick_7">
     <g id="line2d_7">
      <g>
       <use xlink:href="#m317e110a06" x="529.583887" y="304" style="stroke: #000000; stroke-width: 0.8"/>
      </g>
     </g>
     <g id="text_7">
      <text style="font: 15px 'DejaVu Sans', 'Bitstream Vera Sans', 'Computer Modern Sans Serif', 'Lucida Grande', 'Verdana', 'Geneva', 'Lucid', 'Arial', 'Helvetica', 'Avant Garde', sans-serif; text-anchor: middle" x="529.583887" y="322.397656" transform="rotate(-0 529.583887 322.397656)">15000</text>
     </g>
    </g>
    <g id="xtick_8">
     <g id="line2d_8">
      <g>
       <use xlink:href="#m317e110a06" x="602.186034" y="304" style="stroke: #000000; stroke-width: 0.8"/>
      </g>
     </g>
     <g id="text_8">
      <text style="font: 15px 'DejaVu Sans', 'Bitstream Vera Sans', 'Computer Modern Sans Serif', 'Lucida Grande', 'Verdana', 'Geneva', 'Lucid', 'Arial', 'Helvetica', 'Avant Garde', sans-serif; text-anchor: middle" x="602.186034" y="322.397656" transform="rotate(-0 602.186034 322.397656)">17500</text>
     </g>
    </g>
    <g id="xtick_9">
     <g id="line2d_9">
      <g>
       <use xlink:href="#m317e110a06" x="674.788182" y="304" style="stroke: #000000; stroke-width: 0.8"/>
      </g>
     </g>
     <g id="text_9">
      <text style="font: 15px 'DejaVu Sans', 'Bitstream Vera Sans', 'Computer Modern Sans Serif', 'Lucida Grande', 'Verdana', 'Geneva', 'Lucid', 'Arial', 'Helvetica', 'Avant Garde', sans-serif; text-anchor: middle" x="674.788182" y="322.397656" transform="rotate(-0 674.788182 322.397656)">20000</text>
     </g>
    </g>
    <g id="text_10">
     <text style="font: 15px 'DejaVu Sans', 'Bitstream Vera Sans', 'Computer Modern Sans Serif', 'Lucida Grande', 'Verdana', 'Geneva', 'Lucid', 'Arial', 'Helvetica', 'Avant Garde', sans-serif; text-anchor: middle" x="384.67" y="340.914844" transform="rotate(-0 384.67 340.914844)">Episodes</text>
    </g>
   </g>
   <g id="matplotlib.axis_2">
    <g id="ytick_1">
     <g id="line2d_10">
      <defs>
       <path id="m4f514d04df" d="M 0 0 
L -3.5 0 
" style="stroke: #000000; stroke-width: 0.8"/>
      </defs>
      <g>
       <use xlink:href="#m4f514d04df" x="65.54" y="290.918182" style="stroke: #000000; stroke-width: 0.8"/>
      </g>
     </g>
     <g id="text_11">
      <text style="font: 15px 'DejaVu Sans', 'Bitstream Vera Sans', 'Computer Modern Sans Serif', 'Lucida Grande', 'Verdana', 'Geneva', 'Lucid', 'Arial', 'Helvetica', 'Avant Garde', sans-serif; text-anchor: end" x="58.54" y="296.61701" transform="rotate(-0 58.54 296.61701)">0.0</text>
     </g>
    </g>
    <g id="ytick_2">
     <g id="line2d_11">
      <g>
       <use xlink:href="#m4f514d04df" x="65.54" y="235.836841" style="stroke: #000000; stroke-width: 0.8"/>
      </g>
     </g>
     <g id="text_12">
      <text style="font: 15px 'DejaVu Sans', 'Bitstream Vera Sans', 'Computer Modern Sans Serif', 'Lucida Grande', 'Verdana', 'Geneva', 'Lucid', 'Arial', 'Helvetica', 'Avant Garde', sans-serif; text-anchor: end" x="58.54" y="241.53567" transform="rotate(-0 58.54 241.53567)">0.2</text>
     </g>
    </g>
    <g id="ytick_3">
     <g id="line2d_12">
      <g>
       <use xlink:href="#m4f514d04df" x="65.54" y="180.755501" style="stroke: #000000; stroke-width: 0.8"/>
      </g>
     </g>
     <g id="text_13">
      <text style="font: 15px 'DejaVu Sans', 'Bitstream Vera Sans', 'Computer Modern Sans Serif', 'Lucida Grande', 'Verdana', 'Geneva', 'Lucid', 'Arial', 'Helvetica', 'Avant Garde', sans-serif; text-anchor: end" x="58.54" y="186.454329" transform="rotate(-0 58.54 186.454329)">0.4</text>
     </g>
    </g>
    <g id="ytick_4">
     <g id="line2d_13">
      <g>
       <use xlink:href="#m4f514d04df" x="65.54" y="125.674161" style="stroke: #000000; stroke-width: 0.8"/>
      </g>
     </g>
     <g id="text_14">
      <text style="font: 15px 'DejaVu Sans', 'Bitstream Vera Sans', 'Computer Modern Sans Serif', 'Lucida Grande', 'Verdana', 'Geneva', 'Lucid', 'Arial', 'Helvetica', 'Avant Garde', sans-serif; text-anchor: end" x="58.54" y="131.372989" transform="rotate(-0 58.54 131.372989)">0.6</text>
     </g>
    </g>
    <g id="ytick_5">
     <g id="line2d_14">
      <g>
       <use xlink:href="#m4f514d04df" x="65.54" y="70.59282" style="stroke: #000000; stroke-width: 0.8"/>
      </g>
     </g>
     <g id="text_15">
      <text style="font: 15px 'DejaVu Sans', 'Bitstream Vera Sans', 'Computer Modern Sans Serif', 'Lucida Grande', 'Verdana', 'Geneva', 'Lucid', 'Arial', 'Helvetica', 'Avant Garde', sans-serif; text-anchor: end" x="58.54" y="76.291648" transform="rotate(-0 58.54 76.291648)">0.8</text>
     </g>
    </g>
    <g id="text_16">
     <text style="font: 15px 'DejaVu Sans', 'Bitstream Vera Sans', 'Computer Modern Sans Serif', 'Lucida Grande', 'Verdana', 'Geneva', 'Lucid', 'Arial', 'Helvetica', 'Avant Garde', sans-serif; text-anchor: middle" x="27.565781" y="160.1" transform="rotate(-90 27.565781 160.1)">Success Rate</text>
    </g>
   </g>
   <g id="line2d_15">
    <path d="M 94.551818 290.918182 
L 95.132635 290.918182 
L 95.713453 286.32807 
L 96.29427 287.475598 
L 96.875087 288.164115 
L 98.036721 288.164115 
L 98.617538 290.918182 
L 99.198356 288.164115 
L 99.779173 288.164115 
L 101.521624 279.901914 
L 102.102442 282.655981 
L 102.683259 282.655981 
L 103.844893 288.164115 
L 104.42571 288.164115 
L 105.006527 285.410048 
L 106.748979 285.410048 
L 107.910613 290.918182 
L 108.491431 282.655981 
L 109.653065 282.655981 
L 110.233882 279.901914 
L 110.814699 279.901914 
L 111.395516 288.164115 
L 111.976334 282.655981 
L 112.557151 279.901914 
L 113.718785 279.901914 
L 114.299602 277.147847 
L 114.88042 282.655981 
L 116.042054 288.164115 
L 116.622871 288.164115 
L 117.203688 290.918182 
L 117.784505 290.918182 
L 118.365323 288.164115 
L 118.94614 288.164115 
L 120.688591 279.901914 
L 121.850226 279.901914 
L 123.01186 285.410048 
L 123.592677 285.410048 
L 124.173494 288.164115 
L 124.754312 285.410048 
L 125.915946 285.410048 
L 126.496763 279.901914 
L 127.07758 277.147847 
L 127.658397 279.901914 
L 128.239215 279.901914 
L 128.820032 277.147847 
L 129.400849 285.410048 
L 130.562483 285.410048 
L 131.143301 279.901914 
L 131.724118 279.901914 
L 132.304935 277.147847 
L 132.885752 277.147847 
L 133.466569 274.39378 
L 134.047386 279.901914 
L 134.628204 282.655981 
L 135.209021 282.655981 
L 136.370655 288.164115 
L 137.53229 288.164115 
L 138.113107 285.410048 
L 140.436375 285.410048 
L 141.017193 288.164115 
L 143.340461 277.147847 
L 143.921279 279.901914 
L 144.502096 279.901914 
L 145.082913 277.147847 
L 145.66373 279.901914 
L 146.244547 279.901914 
L 146.825364 277.147847 
L 147.406182 277.147847 
L 147.986999 282.655981 
L 148.567816 282.655981 
L 150.310268 290.918182 
L 150.891085 290.918182 
L 151.471902 288.164115 
L 152.052719 279.901914 
L 152.633536 277.147847 
L 153.214353 277.147847 
L 153.795171 271.639713 
L 154.375988 271.639713 
L 154.956805 277.147847 
L 155.537622 277.147847 
L 156.118439 274.39378 
L 156.699257 279.901914 
L 157.280074 282.655981 
L 160.18416 282.655981 
L 160.764977 279.901914 
L 162.507428 279.901914 
L 163.088246 274.39378 
L 163.669063 274.39378 
L 164.830697 279.901914 
L 165.411514 277.147847 
L 165.992331 277.147847 
L 166.573149 282.655981 
L 167.734783 282.655981 
L 168.896417 288.164115 
L 169.477235 288.164115 
L 170.058052 277.147847 
L 170.638869 274.39378 
L 171.219686 274.39378 
L 171.800503 277.147847 
L 172.38132 274.39378 
L 172.962138 285.410048 
L 174.123772 285.410048 
L 174.704589 282.655981 
L 175.285406 277.147847 
L 175.866223 274.39378 
L 177.608675 274.39378 
L 178.189492 279.901914 
L 179.351127 274.39378 
L 179.931944 268.885646 
L 180.512761 271.639713 
L 181.093578 271.639713 
L 182.255212 282.655981 
L 182.83603 285.410048 
L 183.416847 282.655981 
L 183.997664 285.410048 
L 184.578481 277.147847 
L 185.159298 271.639713 
L 185.740116 271.639713 
L 186.320933 266.131578 
L 186.90175 263.377511 
L 187.482567 266.131578 
L 188.063384 271.639713 
L 188.644201 268.885646 
L 189.225019 277.147847 
L 189.805836 274.39378 
L 190.386653 277.147847 
L 190.96747 277.147847 
L 191.548287 282.655981 
L 192.709922 282.655981 
L 193.290739 285.410048 
L 193.871556 279.901914 
L 194.452373 271.639713 
L 195.03319 266.131578 
L 195.614008 268.885646 
L 196.194825 268.885646 
L 196.775642 266.131578 
L 197.356459 274.39378 
L 198.518094 274.39378 
L 199.098911 268.885646 
L 199.679728 271.639713 
L 200.260545 268.885646 
L 200.841362 274.39378 
L 202.583814 282.655981 
L 203.164631 279.901914 
L 203.745448 279.901914 
L 204.326265 274.39378 
L 204.907083 263.377511 
L 205.4879 257.869378 
L 206.068717 260.623445 
L 206.649534 257.869378 
L 207.230351 257.869378 
L 207.811168 268.885646 
L 208.391986 266.131578 
L 208.972803 266.131578 
L 210.134437 260.623445 
L 210.715254 255.115312 
L 211.296072 263.377511 
L 211.876889 255.115312 
L 212.457706 257.869378 
L 213.038523 266.131578 
L 213.61934 271.639713 
L 214.200157 271.639713 
L 214.780975 279.901914 
L 215.361792 274.39378 
L 215.942609 271.639713 
L 216.523426 274.39378 
L 217.104243 271.639713 
L 217.685061 271.639713 
L 218.265878 274.39378 
L 221.169964 260.623445 
L 221.750781 263.377511 
L 222.331598 263.377511 
L 222.912415 266.131578 
L 223.493232 271.639713 
L 224.07405 279.901914 
L 224.654867 274.39378 
L 225.235684 274.39378 
L 225.816501 279.901914 
L 226.397318 268.885646 
L 227.558953 257.869378 
L 228.720587 257.869378 
L 229.301404 268.885646 
L 229.882221 274.39378 
L 230.463038 285.410048 
L 233.367124 285.410048 
L 233.947942 277.147847 
L 234.528759 271.639713 
L 235.109576 271.639713 
L 236.27121 260.623445 
L 236.852027 268.885646 
L 237.432845 271.639713 
L 238.013662 268.885646 
L 238.594479 271.639713 
L 239.175296 279.901914 
L 239.756113 274.39378 
L 240.336931 266.131578 
L 240.917748 260.623445 
L 241.498565 249.607175 
L 242.079382 241.344973 
L 242.660199 241.344973 
L 243.241016 246.85311 
L 243.821834 244.099042 
L 244.402651 249.607175 
L 244.983468 252.361243 
L 245.564285 252.361243 
L 247.306737 268.885646 
L 247.887554 266.131578 
L 248.468371 274.39378 
L 249.049188 268.885646 
L 249.630005 274.39378 
L 250.210823 271.639713 
L 250.79164 279.901914 
L 251.372457 271.639713 
L 251.953274 271.639713 
L 253.114909 260.623445 
L 254.276543 255.115312 
L 255.438177 260.623445 
L 256.018994 268.885646 
L 257.761446 268.885646 
L 258.342263 263.377511 
L 258.92308 260.623445 
L 260.665532 260.623445 
L 261.246349 266.131578 
L 262.407983 260.623445 
L 262.988801 263.377511 
L 264.150435 252.361243 
L 264.731252 255.115312 
L 265.312069 255.115312 
L 265.892887 260.623445 
L 266.473704 260.623445 
L 267.635338 249.607175 
L 268.216155 252.361243 
L 268.796972 244.099042 
L 269.37779 244.099042 
L 269.958607 252.361243 
L 270.539424 255.115312 
L 271.120241 246.85311 
L 271.701058 244.099042 
L 272.281876 244.099042 
L 272.862693 241.344973 
L 273.44351 241.344973 
L 274.024327 235.836841 
L 274.605144 241.344973 
L 275.766779 246.85311 
L 276.347596 241.344973 
L 276.928413 252.361243 
L 277.50923 241.344973 
L 278.090047 241.344973 
L 278.670865 238.590909 
L 279.251682 241.344973 
L 279.832499 230.328708 
L 280.413316 235.836841 
L 280.994133 230.328708 
L 282.155768 224.820575 
L 282.736585 227.574639 
L 283.317402 227.574639 
L 283.898219 235.836841 
L 284.479036 233.082776 
L 285.059853 233.082776 
L 285.640671 235.836841 
L 286.221488 241.344973 
L 286.802305 227.574639 
L 287.383122 235.836841 
L 287.963939 246.85311 
L 289.125574 252.361243 
L 289.706391 260.623445 
L 290.868025 255.115312 
L 291.448842 255.115312 
L 293.191294 246.85311 
L 293.772111 227.574639 
L 294.352928 219.312442 
L 294.933746 227.574639 
L 296.09538 233.082776 
L 296.676197 257.869378 
L 297.257014 255.115312 
L 297.837831 241.344973 
L 299.580283 233.082776 
L 300.1611 246.85311 
L 300.741917 255.115312 
L 301.322735 266.131578 
L 301.903552 266.131578 
L 302.484369 252.361243 
L 303.646003 246.85311 
L 304.22682 227.574639 
L 304.807638 216.558369 
L 305.388455 222.066506 
L 305.969272 222.066506 
L 306.550089 216.558369 
L 307.130906 222.066506 
L 307.711724 224.820575 
L 308.292541 224.820575 
L 308.873358 230.328708 
L 309.454175 233.082776 
L 310.034992 233.082776 
L 310.615809 227.574639 
L 311.196627 233.082776 
L 312.358261 227.574639 
L 312.939078 227.574639 
L 313.519895 244.099042 
L 314.100713 233.082776 
L 314.68153 235.836841 
L 315.262347 233.082776 
L 315.843164 244.099042 
L 316.423981 235.836841 
L 317.004798 244.099042 
L 317.585616 241.344973 
L 318.166433 241.344973 
L 318.74725 227.574639 
L 319.328067 233.082776 
L 319.908884 235.836841 
L 320.489702 227.574639 
L 321.070519 235.836841 
L 321.651336 241.344973 
L 322.232153 235.836841 
L 323.393787 230.328708 
L 323.974605 230.328708 
L 324.555422 222.066506 
L 325.136239 230.328708 
L 326.297873 208.296168 
L 326.878691 208.296168 
L 327.459508 213.804305 
L 328.040325 200.033967 
L 328.621142 205.542104 
L 329.201959 219.312442 
L 329.782776 213.804305 
L 330.363594 216.558369 
L 330.944411 227.574639 
L 332.106045 211.050241 
L 332.686862 211.050241 
L 333.267679 208.296168 
L 333.848497 208.296168 
L 335.010131 213.804305 
L 335.590948 211.050241 
L 336.171765 200.033967 
L 336.752583 197.279902 
L 337.3334 202.788039 
L 337.914217 202.788039 
L 338.495034 205.542104 
L 339.075851 197.279902 
L 339.656668 194.525838 
L 340.237486 186.263636 
L 340.818303 186.263636 
L 341.39912 180.755499 
L 341.979937 205.542104 
L 342.560754 197.279902 
L 343.141572 208.296168 
L 343.722389 202.788039 
L 344.303206 213.804305 
L 344.884023 194.525838 
L 345.46484 197.279902 
L 346.045657 189.017701 
L 346.626475 197.279902 
L 347.207292 186.263636 
L 347.788109 189.017701 
L 348.368926 189.017701 
L 348.949743 183.509572 
L 349.530561 169.739234 
L 350.111378 180.755499 
L 350.692195 183.509572 
L 351.273012 191.771765 
L 351.853829 205.542104 
L 352.434646 216.558369 
L 353.015464 202.788039 
L 353.596281 216.558369 
L 354.177098 202.788039 
L 354.757915 205.542104 
L 355.338732 200.033967 
L 355.91955 202.788039 
L 356.500367 197.279902 
L 357.081184 205.542104 
L 357.662001 189.017701 
L 358.242818 194.525838 
L 358.823635 189.017701 
L 359.404453 186.263636 
L 359.98527 186.263636 
L 360.566087 178.001435 
L 361.146904 183.509572 
L 361.727721 183.509572 
L 362.308539 178.001435 
L 363.470173 178.001435 
L 364.05099 172.493298 
L 364.631807 180.755499 
L 365.212624 180.755499 
L 365.793442 178.001435 
L 366.374259 191.771765 
L 366.955076 189.017701 
L 367.535893 197.279902 
L 368.11671 213.804305 
L 368.697528 216.558369 
L 369.278345 213.804305 
L 369.859162 222.066506 
L 370.439979 211.050241 
L 371.020796 186.263636 
L 371.601613 194.525838 
L 372.182431 194.525838 
L 372.763248 191.771765 
L 373.344065 191.771765 
L 373.924882 202.788039 
L 374.505699 183.509572 
L 375.086517 180.755499 
L 375.667334 183.509572 
L 376.248151 178.001435 
L 376.828968 178.001435 
L 377.409785 194.525838 
L 377.990602 197.279902 
L 378.57142 180.755499 
L 379.152237 183.509572 
L 379.733054 189.017701 
L 380.313871 183.509572 
L 380.894688 175.247371 
L 381.475506 180.755499 
L 382.056323 183.509572 
L 382.63714 164.231097 
L 383.217957 169.739234 
L 383.798774 183.509572 
L 384.379591 183.509572 
L 384.960409 180.755499 
L 385.541226 189.017701 
L 386.122043 189.017701 
L 386.70286 175.247371 
L 387.283677 175.247371 
L 387.864494 172.493298 
L 388.445312 172.493298 
L 389.026129 161.477032 
L 389.606946 169.739234 
L 390.187763 153.214831 
L 390.76858 164.231097 
L 391.349398 172.493298 
L 391.930215 169.739234 
L 392.511032 169.739234 
L 393.091849 197.279902 
L 394.253483 180.755499 
L 394.834301 197.279902 
L 395.995935 197.279902 
L 396.576752 194.525838 
L 397.157569 194.525838 
L 397.738387 178.001435 
L 398.319204 169.739234 
L 398.900021 153.214831 
L 399.480838 155.968895 
L 400.061655 166.985169 
L 400.642472 180.755499 
L 401.22329 186.263636 
L 401.804107 189.017701 
L 402.384924 194.525838 
L 402.965741 183.509572 
L 403.546558 183.509572 
L 404.127376 191.771765 
L 404.708193 202.788039 
L 405.28901 194.525838 
L 405.869827 194.525838 
L 406.450644 197.279902 
L 407.031461 205.542104 
L 407.612279 211.050241 
L 408.773913 233.082776 
L 409.35473 227.574639 
L 410.516365 194.525838 
L 411.097182 189.017701 
L 411.677999 175.247371 
L 412.258816 175.247371 
L 412.839633 189.017701 
L 413.42045 205.542104 
L 414.001268 205.542104 
L 414.582085 222.066506 
L 415.162902 205.542104 
L 415.743719 194.525838 
L 416.324536 186.263636 
L 416.905354 186.263636 
L 417.486171 183.509572 
L 418.066988 200.033967 
L 418.647805 202.788039 
L 419.228622 202.788039 
L 419.809439 200.033967 
L 420.390257 180.755499 
L 420.971074 166.985169 
L 421.551891 172.493298 
L 422.132708 164.231097 
L 422.713525 164.231097 
L 423.294343 158.722968 
L 423.87516 172.493298 
L 424.455977 155.968895 
L 425.036794 147.706702 
L 425.617611 144.952638 
L 426.198428 164.231097 
L 427.360063 147.706702 
L 427.94088 164.231097 
L 428.521697 158.722968 
L 429.102514 147.706702 
L 429.683332 147.706702 
L 430.264149 153.214831 
L 430.844966 139.444492 
L 431.425783 150.460766 
L 432.0066 142.198557 
L 432.587417 136.690428 
L 433.168235 150.460766 
L 433.749052 155.968895 
L 434.329869 153.214831 
L 434.910686 175.247371 
L 436.072321 164.231097 
L 436.653138 166.985169 
L 437.233955 164.231097 
L 437.814772 164.231097 
L 438.395589 169.739234 
L 438.976406 164.231097 
L 439.557224 164.231097 
L 440.138041 155.968895 
L 440.718858 144.952638 
L 441.299675 150.460766 
L 441.880492 142.198557 
L 443.042127 142.198557 
L 443.622944 128.428235 
L 444.203761 120.166025 
L 444.784578 117.411961 
L 445.365395 92.625348 
L 445.946213 95.379429 
L 446.52703 109.149751 
L 447.107847 109.149751 
L 447.688664 100.887558 
L 448.269481 114.657896 
L 448.850298 120.166025 
L 449.431116 111.903832 
L 450.011933 100.887558 
L 450.59275 128.428235 
L 451.173567 133.936364 
L 451.754384 122.92009 
L 452.335202 128.428235 
L 452.916019 139.444492 
L 453.496836 122.92009 
L 454.077653 122.92009 
L 454.65847 133.936364 
L 455.239287 133.936364 
L 455.820105 128.428235 
L 456.400922 125.674154 
L 456.981739 117.411961 
L 457.562556 111.903832 
L 458.143373 114.657896 
L 458.724191 111.903832 
L 459.305008 122.92009 
L 459.885825 114.657896 
L 460.466642 109.149751 
L 461.047459 106.395687 
L 461.628276 111.903832 
L 462.209094 114.657896 
L 462.789911 133.936364 
L 463.370728 144.952638 
L 463.951545 144.952638 
L 464.532362 147.706702 
L 465.693997 131.182299 
L 466.274814 125.674154 
L 466.855631 122.92009 
L 467.436448 128.428235 
L 468.017265 136.690428 
L 468.598083 136.690428 
L 469.1789 139.444492 
L 470.340534 122.92009 
L 470.921351 111.903832 
L 471.502169 106.395687 
L 472.082986 111.903832 
L 472.663803 122.92009 
L 473.24462 125.674154 
L 474.406254 147.706702 
L 474.987072 139.444492 
L 476.148706 144.952638 
L 476.729523 158.722968 
L 477.31034 161.477032 
L 477.891158 166.985169 
L 478.471975 178.001435 
L 479.052792 178.001435 
L 479.633609 172.493298 
L 480.214426 191.771765 
L 480.795243 191.771765 
L 481.376061 175.247371 
L 481.956878 178.001435 
L 482.537695 175.247371 
L 483.118512 164.231097 
L 483.699329 155.968895 
L 484.280147 153.214831 
L 484.860964 142.198557 
L 485.441781 122.92009 
L 486.022598 98.133494 
L 486.603415 84.363155 
L 487.184232 81.609091 
L 487.76505 84.363155 
L 488.345867 84.363155 
L 488.926684 81.609091 
L 489.507501 81.609091 
L 490.088318 76.100962 
L 491.249953 70.592817 
L 491.83077 76.100962 
L 492.992404 92.625348 
L 493.573221 95.379429 
L 494.154039 103.641622 
L 494.734856 106.395687 
L 495.315673 103.641622 
L 495.89649 103.641622 
L 496.477307 109.149751 
L 497.058124 106.395687 
L 497.638942 98.133494 
L 498.219759 95.379429 
L 498.800576 98.133494 
L 499.381393 84.363155 
L 499.96221 78.855027 
L 500.543028 84.363155 
L 501.123845 95.379429 
L 501.704662 92.625348 
L 502.285479 98.133494 
L 502.866296 106.395687 
L 503.447113 117.411961 
L 504.027931 120.166025 
L 504.608748 117.411961 
L 505.189565 111.903832 
L 505.770382 111.903832 
L 506.351199 92.625348 
L 506.932017 87.11722 
L 507.512834 92.625348 
L 508.093651 100.887558 
L 508.674468 103.641622 
L 509.255285 120.166025 
L 509.836102 122.92009 
L 510.41692 120.166025 
L 510.997737 114.657896 
L 511.578554 114.657896 
L 512.159371 117.411961 
L 512.740188 103.641622 
L 513.321006 106.395687 
L 513.901823 103.641622 
L 514.48264 106.395687 
L 515.063457 89.871284 
L 515.644274 84.363155 
L 516.225091 70.592817 
L 516.805909 67.838753 
L 517.386726 62.330624 
L 517.967543 67.838753 
L 518.54836 76.100962 
L 519.129177 78.855027 
L 519.709995 89.871284 
L 520.290812 92.625348 
L 520.871629 98.133494 
L 521.452446 106.395687 
L 522.033263 106.395687 
L 522.61408 100.887558 
L 523.194898 100.887558 
L 523.775715 111.903832 
L 524.356532 109.149751 
L 524.937349 109.149751 
L 525.518166 106.395687 
L 526.098984 95.379429 
L 526.679801 87.11722 
L 527.260618 98.133494 
L 527.841435 111.903832 
L 528.422252 114.657896 
L 529.003069 111.903832 
L 529.583887 103.641622 
L 530.164704 89.871284 
L 530.745521 84.363155 
L 531.326338 76.100962 
L 531.907155 84.363155 
L 532.487973 78.855027 
L 533.649607 78.855027 
L 534.230424 92.625348 
L 534.811241 89.871284 
L 535.972876 111.903832 
L 536.553693 109.149751 
L 537.13451 103.641622 
L 538.876962 120.166025 
L 539.457779 128.428235 
L 540.038596 144.952638 
L 540.619413 150.460766 
L 541.20023 153.214831 
L 541.781047 128.428235 
L 542.942682 92.625348 
L 543.523499 89.871284 
L 544.104316 73.346881 
L 544.685133 87.11722 
L 545.26595 95.379429 
L 545.846768 89.871284 
L 546.427585 76.100962 
L 547.008402 78.855027 
L 548.170036 73.346881 
L 549.331671 89.871284 
L 549.912488 87.11722 
L 550.493305 81.609091 
L 551.654939 76.100962 
L 552.235757 76.100962 
L 552.816574 81.609091 
L 553.397391 84.363155 
L 553.978208 95.379429 
L 554.559025 98.133494 
L 556.882294 87.11722 
L 558.043928 70.592817 
L 558.624746 59.576559 
L 559.205563 76.100962 
L 559.78638 76.100962 
L 560.948014 136.690428 
L 561.528832 166.985169 
L 562.109649 153.214831 
L 562.690466 150.460766 
L 563.8521 109.149751 
L 565.013735 87.11722 
L 565.594552 87.11722 
L 566.756186 76.100962 
L 567.337003 65.084688 
L 567.917821 76.100962 
L 568.498638 78.855027 
L 569.079455 89.871284 
L 569.660272 92.625348 
L 570.241089 89.871284 
L 570.821906 89.871284 
L 571.402724 78.855027 
L 571.983541 70.592817 
L 572.564358 73.346881 
L 573.145175 84.363155 
L 573.725992 87.11722 
L 574.30681 92.625348 
L 574.887627 84.363155 
L 575.468444 95.379429 
L 576.049261 87.11722 
L 576.630078 89.871284 
L 577.210895 87.11722 
L 577.791713 92.625348 
L 578.37253 73.346881 
L 578.953347 76.100962 
L 579.534164 65.084688 
L 580.114981 59.576559 
L 580.695799 59.576559 
L 581.276616 67.838753 
L 581.857433 62.330624 
L 583.019067 56.822479 
L 583.599884 56.822479 
L 584.180702 59.576559 
L 584.761519 54.068414 
L 585.342336 56.822479 
L 585.923153 67.838753 
L 586.50397 67.838753 
L 587.084788 59.576559 
L 587.665605 67.838753 
L 588.246422 62.330624 
L 588.827239 59.576559 
L 589.408056 59.576559 
L 590.569691 65.084688 
L 591.150508 65.084688 
L 591.731325 70.592817 
L 592.312142 67.838753 
L 592.892959 59.576559 
L 593.473777 54.068414 
L 594.054594 62.330624 
L 594.635411 48.560285 
L 595.216228 48.560285 
L 595.797045 45.806221 
L 596.377862 59.576559 
L 596.95868 51.31435 
L 597.539497 56.822479 
L 598.120314 54.068414 
L 598.701131 62.330624 
L 599.281948 45.806221 
L 599.862765 48.560285 
L 601.0244 65.084688 
L 601.605217 67.838753 
L 602.186034 76.100962 
L 602.766851 78.855027 
L 603.347669 70.592817 
L 603.928486 59.576559 
L 604.509303 59.576559 
L 605.09012 54.068414 
L 605.670937 56.822479 
L 606.251754 51.31435 
L 606.832572 56.822479 
L 607.413389 51.31435 
L 607.994206 54.068414 
L 608.575023 45.806221 
L 609.15584 45.806221 
L 610.317475 40.298076 
L 610.898292 32.035883 
L 612.059926 37.544011 
L 612.640743 45.806221 
L 613.221561 56.822479 
L 613.802378 62.330624 
L 614.383195 70.592817 
L 614.964012 76.100962 
L 615.544829 78.855027 
L 616.125647 92.625348 
L 617.287281 81.609091 
L 617.868098 89.871284 
L 619.029732 89.871284 
L 619.61055 103.641622 
L 620.191367 114.657896 
L 620.772184 117.411961 
L 621.353001 117.411961 
L 621.933818 114.657896 
L 622.514636 109.149751 
L 623.095453 98.133494 
L 623.67627 84.363155 
L 624.257087 76.100962 
L 624.837904 62.330624 
L 625.418721 59.576559 
L 625.999539 62.330624 
L 626.580356 62.330624 
L 627.161173 67.838753 
L 627.74199 65.084688 
L 628.322807 59.576559 
L 628.903625 56.822479 
L 630.065259 45.806221 
L 630.646076 54.068414 
L 631.226893 56.822479 
L 632.388528 56.822479 
L 632.969345 62.330624 
L 633.550162 48.560285 
L 634.130979 54.068414 
L 634.711796 56.822479 
L 635.292614 54.068414 
L 635.873431 45.806221 
L 636.454248 48.560285 
L 637.615882 65.084688 
L 638.196699 78.855027 
L 638.777517 84.363155 
L 639.358334 81.609091 
L 639.939151 70.592817 
L 640.519968 65.084688 
L 641.100785 65.084688 
L 641.681603 59.576559 
L 642.26242 76.100962 
L 642.843237 76.100962 
L 643.424054 67.838753 
L 644.004871 62.330624 
L 644.585688 62.330624 
L 645.166506 51.31435 
L 646.32814 51.31435 
L 646.908957 45.806221 
L 647.489774 54.068414 
L 648.070592 45.806221 
L 648.651409 40.298076 
L 649.232226 43.052157 
L 649.813043 51.31435 
L 650.39386 43.052157 
L 650.974677 59.576559 
L 651.555495 65.084688 
L 652.136312 62.330624 
L 652.717129 62.330624 
L 653.297946 65.084688 
L 653.878763 54.068414 
L 654.45958 59.576559 
L 655.040398 59.576559 
L 655.621215 54.068414 
L 656.782849 54.068414 
L 657.363666 51.31435 
L 657.944484 51.31435 
L 658.525301 56.822479 
L 659.106118 48.560285 
L 659.686935 48.560285 
L 660.267752 51.31435 
L 660.848569 51.31435 
L 661.429387 40.298076 
L 662.010204 51.31435 
L 662.591021 45.806221 
L 663.171838 34.789947 
L 663.752655 32.035883 
L 664.333473 32.035883 
L 664.91429 29.281818 
L 665.495107 32.035883 
L 666.656741 32.035883 
L 667.237558 37.544011 
L 667.818376 37.544011 
L 668.399193 40.298076 
L 668.98001 45.806221 
L 669.560827 56.822479 
L 670.141644 65.084688 
L 670.722462 59.576559 
L 671.303279 59.576559 
L 671.884096 56.822479 
L 672.464913 56.822479 
L 673.04573 48.560285 
L 673.626547 48.560285 
L 674.207365 51.31435 
L 674.788182 51.31435 
L 674.788182 51.31435 
" clip-path="url(#paeca2c9c55)" style="fill: none; stroke: #1f77b4; stroke-width: 1.5; stroke-linecap: square"/>
   </g>
   <g id="line2d_16">
    <path d="M 100.35999 286.660853 
L 111.976334 284.033014 
L 123.592677 283.344498 
L 135.209021 283.344498 
L 146.825364 282.655981 
L 158.441708 278.52488 
L 170.058052 280.728134 
L 181.674395 275.22 
L 193.290739 274.531483 
L 204.907083 269.023349 
L 216.523426 267.646316 
L 228.13977 273.56756 
L 239.756113 261.725071 
L 251.372457 265.856172 
L 262.988801 259.797225 
L 274.605144 243.410525 
L 286.221488 239.692535 
L 297.837831 244.236746 
L 309.454175 228.951674 
L 321.070519 232.531961 
L 332.686862 210.086315 
L 344.303206 193.699616 
L 355.91955 195.90287 
L 367.535893 192.597989 
L 379.152237 183.371866 
L 390.76858 178.68995 
L 402.384924 186.401339 
L 414.001268 200.584784 
L 425.617611 160.375406 
L 437.233955 156.382007 
L 448.850298 118.100476 
L 460.466642 124.985646 
L 472.082986 132.697031 
L 483.699329 143.024783 
L 495.315673 91.11062 
L 506.932017 107.910428 
L 518.54836 91.248322 
L 530.164704 95.104017 
L 541.781047 108.461243 
L 553.397391 82.710717 
L 565.013735 101.438372 
L 576.630078 78.855021 
L 588.246422 61.642104 
L 599.862765 58.61263 
L 611.479109 55.996264 
L 623.095453 86.291004 
L 634.711796 59.301144 
L 646.32814 56.822488 
L 657.944484 52.829088 
L 669.560827 45.255403 
" clip-path="url(#paeca2c9c55)" style="fill: none; stroke: #ff0000; stroke-width: 1.5; stroke-linecap: square"/>
   </g>
   <g id="patch_3">
    <path d="M 65.54 304 
L 65.54 16.2 
" style="fill: none; stroke: #000000; stroke-width: 0.8; stroke-linejoin: miter; stroke-linecap: square"/>
   </g>
   <g id="patch_4">
    <path d="M 703.8 304 
L 703.8 16.2 
" style="fill: none; stroke: #000000; stroke-width: 0.8; stroke-linejoin: miter; stroke-linecap: square"/>
   </g>
   <g id="patch_5">
    <path d="M 65.54 304 
L 703.8 304 
" style="fill: none; stroke: #000000; stroke-width: 0.8; stroke-linejoin: miter; stroke-linecap: square"/>
   </g>
   <g id="patch_6">
    <path d="M 65.54 16.2 
L 703.8 16.2 
" style="fill: none; stroke: #000000; stroke-width: 0.8; stroke-linejoin: miter; stroke-linecap: square"/>
   </g>
  </g>
 </g>
 <defs>
  <clipPath id="paeca2c9c55">
   <rect x="65.54" y="16.2" width="638.26" height="287.8"/>
  </clipPath>
 </defs>
</svg>
