<?xml version="1.0" encoding="utf-8" standalone="no"?>
<!DOCTYPE svg PUBLIC "-//W3C//DTD SVG 1.1//EN"
  "http://www.w3.org/Graphics/SVG/1.1/DTD/svg11.dtd">
<svg xmlns:xlink="http://www.w3.org/1999/xlink" width="720pt" height="360pt" viewBox="0 0 720 360" xmlns="http://www.w3.org/2000/svg" version="1.1">
 <metadata>
  <rdf:RDF xmlns:dc="http://purl.org/dc/elements/1.1/" xmlns:cc="http://creativecommons.org/ns#" xmlns:rdf="http://www.w3.org/1999/02/22-rdf-syntax-ns#">
   <cc:Work>
    <dc:type rdf:resource="http://purl.org/dc/dcmitype/StillImage"/>
    <dc:date>2024-04-29T15:10:19.402995</dc:date>
    <dc:format>image/svg+xml</dc:format>
    <dc:creator>
     <cc:Agent>
      <dc:title>Matplotlib v3.7.5, https://matplotlib.org/</dc:title>
     </cc:Agent>
    </dc:creator>
   </cc:Work>
  </rdf:RDF>
 </metadata>
 <defs>
  <style type="text/css">*{stroke-linejoin: round; stroke-linecap: butt}</style>
 </defs>
 <g id="figure_1">
  <g id="patch_1">
   <path d="M 0 360 
L 720 360 
L 720 0 
L 0 0 
z
" style="fill: #ffffff"/>
  </g>
  <g id="axes_1">
   <g id="patch_2">
    <path d="M 73.28 304 
L 703.8 304 
L 703.8 16.2 
L 73.28 16.2 
z
" style="fill: #ffffff"/>
   </g>
   <g id="matplotlib.axis_1">
    <g id="xtick_1">
     <g id="line2d_1">
      <defs>
       <path id="m79eac94d5a" d="M 0 0 
L 0 3.5 
" style="stroke: #000000; stroke-width: 0.8"/>
      </defs>
      <g>
       <use xlink:href="#m79eac94d5a" x="99.059598" y="304" style="stroke: #000000; stroke-width: 0.8"/>
      </g>
     </g>
     <g id="text_1">
      <text style="font: 15px 'DejaVu Sans', 'Bitstream Vera Sans', 'Computer Modern Sans Serif', 'Lucida Grande', 'Verdana', 'Geneva', 'Lucid', 'Arial', 'Helvetica', 'Avant Garde', sans-serif; text-anchor: middle" x="99.059598" y="322.397656" transform="rotate(-0 99.059598 322.397656)">0</text>
     </g>
    </g>
    <g id="xtick_2">
     <g id="line2d_2">
      <g>
       <use xlink:href="#m79eac94d5a" x="171.069648" y="304" style="stroke: #000000; stroke-width: 0.8"/>
      </g>
     </g>
     <g id="text_2">
      <text style="font: 15px 'DejaVu Sans', 'Bitstream Vera Sans', 'Computer Modern Sans Serif', 'Lucida Grande', 'Verdana', 'Geneva', 'Lucid', 'Arial', 'Helvetica', 'Avant Garde', sans-serif; text-anchor: middle" x="171.069648" y="322.397656" transform="rotate(-0 171.069648 322.397656)">500</text>
     </g>
    </g>
    <g id="xtick_3">
     <g id="line2d_3">
      <g>
       <use xlink:href="#m79eac94d5a" x="243.079698" y="304" style="stroke: #000000; stroke-width: 0.8"/>
      </g>
     </g>
     <g id="text_3">
      <text style="font: 15px 'DejaVu Sans', 'Bitstream Vera Sans', 'Computer Modern Sans Serif', 'Lucida Grande', 'Verdana', 'Geneva', 'Lucid', 'Arial', 'Helvetica', 'Avant Garde', sans-serif; text-anchor: middle" x="243.079698" y="322.397656" transform="rotate(-0 243.079698 322.397656)">1000</text>
     </g>
    </g>
    <g id="xtick_4">
     <g id="line2d_4">
      <g>
       <use xlink:href="#m79eac94d5a" x="315.089749" y="304" style="stroke: #000000; stroke-width: 0.8"/>
      </g>
     </g>
     <g id="text_4">
      <text style="font: 15px 'DejaVu Sans', 'Bitstream Vera Sans', 'Computer Modern Sans Serif', 'Lucida Grande', 'Verdana', 'Geneva', 'Lucid', 'Arial', 'Helvetica', 'Avant Garde', sans-serif; text-anchor: middle" x="315.089749" y="322.397656" transform="rotate(-0 315.089749 322.397656)">1500</text>
     </g>
    </g>
    <g id="xtick_5">
     <g id="line2d_5">
      <g>
       <use xlink:href="#m79eac94d5a" x="387.099799" y="304" style="stroke: #000000; stroke-width: 0.8"/>
      </g>
     </g>
     <g id="text_5">
      <text style="font: 15px 'DejaVu Sans', 'Bitstream Vera Sans', 'Computer Modern Sans Serif', 'Lucida Grande', 'Verdana', 'Geneva', 'Lucid', 'Arial', 'Helvetica', 'Avant Garde', sans-serif; text-anchor: middle" x="387.099799" y="322.397656" transform="rotate(-0 387.099799 322.397656)">2000</text>
     </g>
    </g>
    <g id="xtick_6">
     <g id="line2d_6">
      <g>
       <use xlink:href="#m79eac94d5a" x="459.109849" y="304" style="stroke: #000000; stroke-width: 0.8"/>
      </g>
     </g>
     <g id="text_6">
      <text style="font: 15px 'DejaVu Sans', 'Bitstream Vera Sans', 'Computer Modern Sans Serif', 'Lucida Grande', 'Verdana', 'Geneva', 'Lucid', 'Arial', 'Helvetica', 'Avant Garde', sans-serif; text-anchor: middle" x="459.109849" y="322.397656" transform="rotate(-0 459.109849 322.397656)">2500</text>
     </g>
    </g>
    <g id="xtick_7">
     <g id="line2d_7">
      <g>
       <use xlink:href="#m79eac94d5a" x="531.119899" y="304" style="stroke: #000000; stroke-width: 0.8"/>
      </g>
     </g>
     <g id="text_7">
      <text style="font: 15px 'DejaVu Sans', 'Bitstream Vera Sans', 'Computer Modern Sans Serif', 'Lucida Grande', 'Verdana', 'Geneva', 'Lucid', 'Arial', 'Helvetica', 'Avant Garde', sans-serif; text-anchor: middle" x="531.119899" y="322.397656" transform="rotate(-0 531.119899 322.397656)">3000</text>
     </g>
    </g>
    <g id="xtick_8">
     <g id="line2d_8">
      <g>
       <use xlink:href="#m79eac94d5a" x="603.12995" y="304" style="stroke: #000000; stroke-width: 0.8"/>
      </g>
     </g>
     <g id="text_8">
      <text style="font: 15px 'DejaVu Sans', 'Bitstream Vera Sans', 'Computer Modern Sans Serif', 'Lucida Grande', 'Verdana', 'Geneva', 'Lucid', 'Arial', 'Helvetica', 'Avant Garde', sans-serif; text-anchor: middle" x="603.12995" y="322.397656" transform="rotate(-0 603.12995 322.397656)">3500</text>
     </g>
    </g>
    <g id="xtick_9">
     <g id="line2d_9">
      <g>
       <use xlink:href="#m79eac94d5a" x="675.14" y="304" style="stroke: #000000; stroke-width: 0.8"/>
      </g>
     </g>
     <g id="text_9">
      <text style="font: 15px 'DejaVu Sans', 'Bitstream Vera Sans', 'Computer Modern Sans Serif', 'Lucida Grande', 'Verdana', 'Geneva', 'Lucid', 'Arial', 'Helvetica', 'Avant Garde', sans-serif; text-anchor: middle" x="675.14" y="322.397656" transform="rotate(-0 675.14 322.397656)">4000</text>
     </g>
    </g>
    <g id="text_10">
     <text style="font: 15px 'DejaVu Sans', 'Bitstream Vera Sans', 'Computer Modern Sans Serif', 'Lucida Grande', 'Verdana', 'Geneva', 'Lucid', 'Arial', 'Helvetica', 'Avant Garde', sans-serif; text-anchor: middle" x="388.54" y="340.914844" transform="rotate(-0 388.54 340.914844)">Episodes</text>
    </g>
   </g>
   <g id="matplotlib.axis_2">
    <g id="ytick_1">
     <g id="line2d_10">
      <defs>
       <path id="m6f9618f870" d="M 0 0 
L -3.5 0 
" style="stroke: #000000; stroke-width: 0.8"/>
      </defs>
      <g>
       <use xlink:href="#m6f9618f870" x="73.28" y="302.264572" style="stroke: #000000; stroke-width: 0.8"/>
      </g>
     </g>
     <g id="text_11">
      <text style="font: 15px 'DejaVu Sans', 'Bitstream Vera Sans', 'Computer Modern Sans Serif', 'Lucida Grande', 'Verdana', 'Geneva', 'Lucid', 'Arial', 'Helvetica', 'Avant Garde', sans-serif; text-anchor: end" x="66.28" y="307.9634" transform="rotate(-0 66.28 307.9634)">−12</text>
     </g>
    </g>
    <g id="ytick_2">
     <g id="line2d_11">
      <g>
       <use xlink:href="#m6f9618f870" x="73.28" y="253.832911" style="stroke: #000000; stroke-width: 0.8"/>
      </g>
     </g>
     <g id="text_12">
      <text style="font: 15px 'DejaVu Sans', 'Bitstream Vera Sans', 'Computer Modern Sans Serif', 'Lucida Grande', 'Verdana', 'Geneva', 'Lucid', 'Arial', 'Helvetica', 'Avant Garde', sans-serif; text-anchor: end" x="66.28" y="259.531739" transform="rotate(-0 66.28 259.531739)">−10</text>
     </g>
    </g>
    <g id="ytick_3">
     <g id="line2d_12">
      <g>
       <use xlink:href="#m6f9618f870" x="73.28" y="205.401251" style="stroke: #000000; stroke-width: 0.8"/>
      </g>
     </g>
     <g id="text_13">
      <text style="font: 15px 'DejaVu Sans', 'Bitstream Vera Sans', 'Computer Modern Sans Serif', 'Lucida Grande', 'Verdana', 'Geneva', 'Lucid', 'Arial', 'Helvetica', 'Avant Garde', sans-serif; text-anchor: end" x="66.28" y="211.100079" transform="rotate(-0 66.28 211.100079)">−8</text>
     </g>
    </g>
    <g id="ytick_4">
     <g id="line2d_13">
      <g>
       <use xlink:href="#m6f9618f870" x="73.28" y="156.96959" style="stroke: #000000; stroke-width: 0.8"/>
      </g>
     </g>
     <g id="text_14">
      <text style="font: 15px 'DejaVu Sans', 'Bitstream Vera Sans', 'Computer Modern Sans Serif', 'Lucida Grande', 'Verdana', 'Geneva', 'Lucid', 'Arial', 'Helvetica', 'Avant Garde', sans-serif; text-anchor: end" x="66.28" y="162.668418" transform="rotate(-0 66.28 162.668418)">−6</text>
     </g>
    </g>
    <g id="ytick_5">
     <g id="line2d_14">
      <g>
       <use xlink:href="#m6f9618f870" x="73.28" y="108.537929" style="stroke: #000000; stroke-width: 0.8"/>
      </g>
     </g>
     <g id="text_15">
      <text style="font: 15px 'DejaVu Sans', 'Bitstream Vera Sans', 'Computer Modern Sans Serif', 'Lucida Grande', 'Verdana', 'Geneva', 'Lucid', 'Arial', 'Helvetica', 'Avant Garde', sans-serif; text-anchor: end" x="66.28" y="114.236758" transform="rotate(-0 66.28 114.236758)">−4</text>
     </g>
    </g>
    <g id="ytick_6">
     <g id="line2d_15">
      <g>
       <use xlink:href="#m6f9618f870" x="73.28" y="60.106269" style="stroke: #000000; stroke-width: 0.8"/>
      </g>
     </g>
     <g id="text_16">
      <text style="font: 15px 'DejaVu Sans', 'Bitstream Vera Sans', 'Computer Modern Sans Serif', 'Lucida Grande', 'Verdana', 'Geneva', 'Lucid', 'Arial', 'Helvetica', 'Avant Garde', sans-serif; text-anchor: end" x="66.28" y="65.805097" transform="rotate(-0 66.28 65.805097)">−2</text>
     </g>
    </g>
    <g id="text_17">
     <text style="font: 15px 'DejaVu Sans', 'Bitstream Vera Sans', 'Computer Modern Sans Serif', 'Lucida Grande', 'Verdana', 'Geneva', 'Lucid', 'Arial', 'Helvetica', 'Avant Garde', sans-serif; text-anchor: middle" x="27.503438" y="160.1" transform="rotate(-90 27.503438 160.1)">Episode Reward Mean</text>
    </g>
   </g>
   <g id="line2d_16">
    <path d="M 101.94 223.950172 
L 104.820402 212.553539 
L 107.700804 227.440398 
L 110.581206 243.842937 
L 113.461608 251.813323 
L 116.34201 264.256525 
L 119.222412 284.86685 
L 122.102814 290.918182 
L 124.983216 289.052645 
L 127.863618 282.483345 
L 130.74402 277.95146 
L 133.624422 256.987791 
L 136.504824 248.274598 
L 139.385226 232.905875 
L 142.265628 225.930133 
L 145.14603 214.805595 
L 148.026432 216.589824 
L 150.906834 206.952048 
L 153.787236 204.278919 
L 156.667638 195.322209 
L 159.54804 186.919499 
L 162.428442 176.354583 
L 165.308844 166.994314 
L 168.189246 158.22528 
L 171.069648 147.808604 
L 173.95005 141.022247 
L 176.830452 132.138858 
L 179.710854 124.968538 
L 182.591256 117.055866 
L 185.471658 112.704585 
L 188.35206 102.112188 
L 196.993266 82.528172 
L 199.873668 79.873606 
L 202.75407 80.46615 
L 205.634472 78.295429 
L 208.514874 74.797157 
L 211.395276 72.480561 
L 214.275678 68.067911 
L 217.15608 62.947347 
L 220.036482 60.800371 
L 222.916884 60.371194 
L 225.797286 58.41317 
L 228.677688 56.957612 
L 234.438492 58.620397 
L 237.318894 58.075221 
L 240.199296 58.108291 
L 243.079698 58.374964 
L 245.960101 57.808334 
L 248.840503 57.014209 
L 251.720905 57.66579 
L 254.601307 57.294264 
L 257.481709 56.508974 
L 263.242513 55.152639 
L 266.122915 53.148071 
L 269.003317 52.021024 
L 271.883719 51.869385 
L 274.764121 50.809672 
L 277.644523 50.00731 
L 280.524925 50.417378 
L 283.405327 50.99537 
L 289.166131 50.148706 
L 292.046533 49.245196 
L 297.807337 45.476507 
L 300.687739 44.537036 
L 303.568141 44.250742 
L 309.328945 45.59922 
L 312.209347 45.873652 
L 315.089749 46.332722 
L 317.970151 46.501325 
L 320.850553 46.184633 
L 323.730955 46.843912 
L 326.611357 46.237262 
L 329.491759 46.042899 
L 332.372161 44.703539 
L 338.132965 42.515635 
L 341.013367 42.909964 
L 343.893769 41.757296 
L 346.774171 42.337057 
L 349.654573 43.196163 
L 352.534975 42.715134 
L 355.415377 42.349111 
L 361.176181 43.474275 
L 364.056583 43.309121 
L 366.936985 43.341284 
L 369.817387 43.615765 
L 372.697789 43.424789 
L 375.578191 43.933756 
L 378.458593 43.011051 
L 381.338995 42.282478 
L 384.219397 42.138475 
L 387.099799 41.708873 
L 389.980201 40.828444 
L 392.860603 41.497477 
L 395.741005 41.209212 
L 398.621407 40.251929 
L 401.501809 40.574074 
L 404.382211 38.901547 
L 407.262613 37.940738 
L 410.143015 37.578994 
L 413.023417 39.598388 
L 415.903819 38.753403 
L 418.784221 39.77754 
L 421.664623 39.163507 
L 424.545025 39.409225 
L 427.425427 36.911314 
L 430.305829 37.420667 
L 433.186231 36.059842 
L 436.066633 36.579472 
L 438.947035 36.23697 
L 441.827437 36.568681 
L 444.707839 36.462444 
L 447.588241 36.860622 
L 450.468643 36.810657 
L 453.349045 37.207119 
L 456.229447 37.765676 
L 459.109849 37.418487 
L 461.990251 37.92417 
L 464.870653 37.986565 
L 467.751055 38.643256 
L 470.631457 37.174785 
L 476.392261 35.781233 
L 479.272663 35.85279 
L 482.153065 34.741916 
L 487.913869 36.334707 
L 490.794271 35.840759 
L 493.674673 35.17911 
L 499.435477 35.410362 
L 502.315879 34.877312 
L 505.196281 36.031396 
L 508.076683 35.859477 
L 513.837487 36.024687 
L 516.717889 35.60353 
L 519.598291 34.573626 
L 525.359095 33.572789 
L 528.239497 32.914717 
L 531.119899 32.825288 
L 534.000302 33.111764 
L 536.880704 32.582189 
L 539.761106 32.237899 
L 542.641508 32.255138 
L 545.52191 32.855065 
L 548.402312 31.988258 
L 551.282714 32.418279 
L 554.163116 32.390708 
L 557.043518 32.477359 
L 559.92392 31.640085 
L 565.684724 32.924324 
L 568.565126 32.967147 
L 571.445528 32.699742 
L 574.32593 32.66206 
L 580.086734 31.835195 
L 582.967136 31.851695 
L 588.72794 32.298601 
L 591.608342 32.689467 
L 594.488744 32.363644 
L 597.369146 32.406438 
L 600.249548 32.133986 
L 603.12995 32.350505 
L 606.010352 31.956578 
L 608.890754 31.779089 
L 611.771156 31.479132 
L 614.651558 31.959905 
L 617.53196 31.517321 
L 620.412362 31.342218 
L 623.292764 31.850672 
L 626.173166 31.695695 
L 629.053568 30.685021 
L 631.93397 30.312924 
L 634.814372 30.484103 
L 643.455578 30.517772 
L 646.33598 30.744254 
L 649.216382 31.249872 
L 657.857588 31.579318 
L 666.498794 29.643789 
L 669.379196 29.589187 
L 672.259598 29.281818 
L 675.14 30.269872 
L 675.14 30.269872 
" clip-path="url(#pef88a48356)" style="fill: none; stroke: #1f77b4; stroke-width: 1.5; stroke-linecap: square"/>
   </g>
   <g id="line2d_17">
    <path d="M 130.74402 242.558818 
L 188.35206 114.370676 
L 245.960101 57.237 
L 303.568141 47.416219 
L 361.176181 42.957378 
L 418.784221 38.586193 
L 476.392261 36.46104 
L 534.000302 33.568023 
L 591.608342 32.224912 
L 649.216382 30.71317 
" clip-path="url(#pef88a48356)" style="fill: none; stroke: #ff0000; stroke-width: 1.5; stroke-linecap: square"/>
   </g>
   <g id="patch_3">
    <path d="M 73.28 304 
L 73.28 16.2 
" style="fill: none; stroke: #000000; stroke-width: 0.8; stroke-linejoin: miter; stroke-linecap: square"/>
   </g>
   <g id="patch_4">
    <path d="M 703.8 304 
L 703.8 16.2 
" style="fill: none; stroke: #000000; stroke-width: 0.8; stroke-linejoin: miter; stroke-linecap: square"/>
   </g>
   <g id="patch_5">
    <path d="M 73.28 304 
L 703.8 304 
" style="fill: none; stroke: #000000; stroke-width: 0.8; stroke-linejoin: miter; stroke-linecap: square"/>
   </g>
   <g id="patch_6">
    <path d="M 73.28 16.2 
L 703.8 16.2 
" style="fill: none; stroke: #000000; stroke-width: 0.8; stroke-linejoin: miter; stroke-linecap: square"/>
   </g>
  </g>
 </g>
 <defs>
  <clipPath id="pef88a48356">
   <rect x="73.28" y="16.2" width="630.52" height="287.8"/>
  </clipPath>
 </defs>
</svg>
